<svg height="108" viewBox="0 0 108 108" width="108" xmlns="http://www.w3.org/2000/svg" xmlns:xlink="http://www.w3.org/1999/xlink"><clipPath id="a"><path d="m78.525 7.223h108v108h-108z"/></clipPath><clipPath id="b"><path d="m116.85 67.041h13.332v6.73h-13.332z"/></clipPath><clipPath id="c"><path d="m133.426 53.943h14.41v7.275h-14.41z"/></clipPath><clipPath id="d"><path d="m152.885 40.476 25.056 14.653v-6.248l-25.056-14.522z"/></clipPath><clipPath id="e"><path d="m144.334 76.721h18.773v11.182h-18.773z"/></clipPath><clipPath id="f"><path d="m129.109 87.235h21.053v10.629h-21.053z"/></clipPath><clipPath id="g"><path d="m88.617 47.861c0 13.245 11.663 23.982 26.051 23.982a27.2 27.2 0 0 0 17.515-6.267l-.107.114 8 6.94-3.822-11.336-.012.013a22.556 22.556 0 0 0 4.48-13.446c0-13.245-11.664-23.982-26.051-23.982s-26.054 10.737-26.054 23.982"/></clipPath><clipPath id="h"><path d="m0 0h108v108h-108z"/></clipPath><g clip-path="url(#h)"><path d="m0 0h108v108h-108z" fill="#fff"/><g transform="translate(-78.525 -7.223)"><path d="m171.2 7.223-92.675 52.653v48.166l108-61.952v-38.867z" fill="#d1b898"/><g clip-path="url(#a)"><path d="m70.286 113.345-39.054-27.175.69-.392 150.985-85.778.257.173 38.827 26.149zm-37.18-27.09 37.232 25.907 149.762-85.909-37.237-25.078z" fill="#073358"/></g><path d="m78.525 110.728v4.495h108v-67.508z" fill="#728b96"/><g clip-path="url(#a)"><path d="m216.983 29.365 64.236 34.85-146.843 85.73-.251-.144-62.3-35.743zm62.2 34.882-62.183-33.735-143.178 83.539 60.55 34.739z" fill="#073358"/></g><path d="m78.525 107.961v2.766l108-63.012v-2.767z" fill="#d7d7d8"/><g clip-path="url(#a)"><path d="m214.467 28.067 3.562 1.846-145.192 84.712-3.562-1.846zm1.489 1.9-1.46-.756-143.147 83.517 1.46.756z" fill="#073358"/></g><path d="m124.1 115.223h4.149l58.273-34v-2.423z" fill="#fff"/><g clip-path="url(#a)"><g clip-path="url(#b)" opacity=".3"><path d="m116.85 70.406c0 1.859 2.984 3.365 6.666 3.365s6.666-1.506 6.666-3.365-2.985-3.365-6.666-3.365-6.666 1.506-6.666 3.365" fill="#180c0c"/></g><path d="m127.551 49.705s.611-.568 1.382-1.161c.344-.263.684-.688.654-1.009-.052-.56.04-1.161-.493-1.4-.643-.291-1.037.275-1.323.749s-.912 1.929-.912 1.929z" fill="#fff"/><path d="m127.551 50.2h-.041a.5.5 0 0 1 -.355-.192l-.692-.894a.5.5 0 0 1 -.064-.5c.026-.061.642-1.491.943-1.99.209-.347.646-1.07 1.411-1.07a1.322 1.322 0 0 1 .546.124 1.51 1.51 0 0 1 .767 1.522c0 .1.009.2.017.289a1.859 1.859 0 0 1 -.848 1.452c-.741.57-1.339 1.125-1.345 1.13a.5.5 0 0 1 -.339.129zm-.115-1.466.183.236c.255-.221.61-.52 1.01-.827a1.239 1.239 0 0 0 .461-.571c-.01-.114-.015-.225-.02-.332-.021-.482-.054-.6-.181-.656a.337.337 0 0 0 -.134-.035c-.2 0-.458.426-.555.587-.183.305-.546 1.108-.764 1.603z" fill="#05365d"/><g fill="#0a2c4c"><path d="m120.333 68.866s-.186 1.421.057 1.605a2.907 2.907 0 0 0 1.583.2c.605-.024 2.007-.429 2-.782-.016-.609-.469-1.94-1.224-1.511a1.814 1.814 0 0 1 -1.67-.153z"/><path d="m121.077 67.785a.437.437 0 0 1 .233.067 1.777 1.777 0 0 0 .814.243.8.8 0 0 0 .407-.1 1.015 1.015 0 0 1 .5-.141c.921 0 1.355 1.338 1.373 2.021.013.5-.6.778-1.062.939a5.317 5.317 0 0 1 -1.356.292c-.159.006-.307.009-.44.009a2.357 2.357 0 0 1 -1.424-.295c-.134-.1-.446-.338-.227-2.011a.438.438 0 0 1 .147-.274l.744-.644a.437.437 0 0 1 .291-.106zm2.449 1.995c-.054-.5-.347-1.05-.49-1.05a.161.161 0 0 0 -.072.027 1.677 1.677 0 0 1 -.839.214 2.483 2.483 0 0 1 -.984-.223l-.392.34a5.132 5.132 0 0 0 -.028 1.068 2.65 2.65 0 0 0 .831.086c.122 0 .259 0 .406-.009a4.289 4.289 0 0 0 1.568-.454z"/><path d="m124.068 69.72a3.824 3.824 0 0 0 1.366-.015c.6-.153 1.079 0 .937.8-.1.567-.556.555-1.354.816a4.424 4.424 0 0 1 -2.273.343.658.658 0 0 1 -.358-.167 3.152 3.152 0 0 1 .1-1.849l1.585.076"/><path d="m122.481 69.206h.023l1.585.076a.44.44 0 0 1 .056.006 4.076 4.076 0 0 0 .628.05 2.263 2.263 0 0 0 .552-.058 1.964 1.964 0 0 1 .484-.067.988.988 0 0 1 .8.335 1.211 1.211 0 0 1 .195 1.029c-.13.72-.682.876-1.216 1.026-.136.038-.276.078-.432.129l-.093.03a5.872 5.872 0 0 1 -1.819.385 2.861 2.861 0 0 1 -.588-.06 1.072 1.072 0 0 1 -.587-.3c-.079-.084-.241-.258-.212-1.155a3.922 3.922 0 0 1 .166-1.1.494.494 0 0 1 .458-.326zm.76 2.066a5.149 5.149 0 0 0 1.547-.342l.093-.03c.173-.056.329-.1.466-.139.56-.158.565-.189.592-.338.043-.242 0-.312 0-.313a.258.258 0 0 0 -.127-.021 1.115 1.115 0 0 0 -.267.039 3.125 3.125 0 0 1 -.77.086 5 5 0 0 1 -.751-.059l-1.244-.06a4.89 4.89 0 0 0 -.032 1.113.884.884 0 0 0 .088.022 1.958 1.958 0 0 0 .406.043z"/></g><path d="m122.035 58.387c0 2.428.334 4.442.347 5.179.021 1.236-.183 5.995-.183 5.995a2.682 2.682 0 0 0 1.445.5 1.561 1.561 0 0 0 1.268-.484l.436-13.426-5.472.05s.328 3.534.415 6.232c.079 2.47 0 6.465 0 6.465a1.818 1.818 0 0 0 1.922.308" fill="#717071"/><path d="m123.644 70.563a3.2 3.2 0 0 1 -1.748-.6.5.5 0 0 1 -.113-.121 2.32 2.32 0 0 1 -1.843-.582.5.5 0 0 1 -.149-.366c0-.04.078-4.011 0-6.439-.086-2.652-.41-6.167-.413-6.2a.5.5 0 0 1 .493-.546l5.472-.05a.5.5 0 0 1 .5.516l-.431 13.425a.5.5 0 0 1 -.1.279 2.032 2.032 0 0 1 -1.668.684zm-.933-1.27a2.016 2.016 0 0 0 .933.27 1.325 1.325 0 0 0 .775-.206l.412-12.7-4.41.04c.095 1.1.3 3.664.369 5.721.067 2.1.02 5.316 0 6.237a1.314 1.314 0 0 0 .933.176c.055-1.371.169-4.336.153-5.258 0-.224-.044-.606-.094-1.089a38.8 38.8 0 0 1 -.254-4.1.5.5 0 0 1 .5-.5.5.5 0 0 1 .5.5 37.387 37.387 0 0 0 .248 3.995c.053.507.094.908.1 1.175.024 1.077-.121 4.68-.165 5.739z" fill="#05365d"/><path d="m120.086 48.479s6.4.017 6.972-.943l.784 2.211z" fill="#fff"/><path d="m127.058 47.036h.048a.5.5 0 0 1 .423.331l.784 2.211a.5.5 0 0 1 -.552.661l-7.756-1.268a.5.5 0 0 1 .082-.993h.021c.169 0 1.7 0 3.261-.113 2.742-.193 3.208-.541 3.267-.6a.5.5 0 0 1 .422-.229zm.03 2.081-.288-.811a8.211 8.211 0 0 1 -2.024.433z" fill="#05365d"/><path d="m130.438 52.423a4.125 4.125 0 0 1 -.066-1.9c.159-.675.664-.718.96-.843.518-.22.808-.691 1.273-.336a1.158 1.158 0 0 1 -.086 1.755c-.422.359-1.291 1.332-1.291 1.332z" fill="#fff"/><path d="m131.228 52.929-.79-.006a.5.5 0 0 1 -.475-.355 4.628 4.628 0 0 1 -.074-2.162 1.493 1.493 0 0 1 1.122-1.142c.05-.017.1-.033.13-.046a2.2 2.2 0 0 0 .334-.193 1.447 1.447 0 0 1 .8-.311 1.037 1.037 0 0 1 .636.231 1.437 1.437 0 0 1 .561 1.131 1.821 1.821 0 0 1 -.627 1.4c-.324.276-1.006 1.02-1.242 1.284a.5.5 0 0 1 -.375.169zm-.387-1h.166c.274-.3.851-.925 1.188-1.211a.809.809 0 0 0 .275-.615.444.444 0 0 0 -.168-.362.272.272 0 0 0 -.034-.023 1.614 1.614 0 0 0 -.247.144 3.1 3.1 0 0 1 -.492.278c-.068.029-.136.052-.2.074-.284.1-.4.145-.467.424a3.4 3.4 0 0 0 -.021 1.288z" fill="#05365d"/><path d="m124.332 40.749c.858.361 1.652 2.465 1.427 4.091s-1.638 1.107-1.753 1.675a3.974 3.974 0 0 0 .283 1.6l-2.4.011-.222-2.624s-1.489-6.5 2.667-4.757" fill="#eecfbd"/><path d="m123.081 39.951a3.8 3.8 0 0 1 1.444.337c1.108.466 1.981 2.8 1.729 4.62a1.9 1.9 0 0 1 -1.576 1.737c-.061.017-.138.039-.193.059a3.88 3.88 0 0 0 .27 1.236.5.5 0 0 1 -.465.679l-2.4.011a.5.5 0 0 1 -.5-.458l-.219-2.59c-.109-.492-.724-3.525.39-4.923a1.876 1.876 0 0 1 1.52-.708zm.529 7.671a2.963 2.963 0 0 1 -.095-1.205c.1-.509.576-.644.889-.733.443-.126.763-.218.859-.912a5.078 5.078 0 0 0 -.283-2.283 2.29 2.29 0 0 0 -.843-1.279 2.829 2.829 0 0 0 -1.057-.259.874.874 0 0 0 -.74.332c-.717.9-.368 3.331-.189 4.112a.5.5 0 0 1 .011.069l.183 2.164z" fill="#05365d"/><path d="m124.519 43.247a.3.3 0 1 0 .305-.305.3.3 0 0 0 -.305.305" fill="#0c2d4f"/><path d="m0 .479a.438.438 0 0 1 -.434-.379.438.438 0 0 1 .378-.49l.317-.044a.438.438 0 0 1 .49.378.438.438 0 0 1 -.378.49l-.317.041a.442.442 0 0 1 -.056.004z" fill="#0a2c4c" transform="translate(125.225 44.612)"/><path d="m.195 2.959a.438.438 0 0 1 -.436-.4l-.195-2.525a.438.438 0 0 1 .4-.47.438.438 0 0 1 .47.4l.197 2.523a.438.438 0 0 1 -.4.47z" fill="#05365d" transform="translate(123.602 43.075)"/><path d="m123.108 44.958a3.154 3.154 0 0 0 1.776 1.1" fill="#0a2c4c"/><path d="m124.884 46.491h-.025a3.479 3.479 0 0 1 -2.088-1.253.437.437 0 0 1 .674-.558 2.658 2.658 0 0 0 1.464.938.438.438 0 0 1 -.024.874z" fill="#05365d"/><path d="m125.162 50.5.158 5.656a5.084 5.084 0 0 1 -4.533.049s-.049-1.149-.094-3.854c-.032-1.9-.739-4.763.569-5.713.6-.437 3.424-.034 4.085.8 0 0 1.992 3.175 2.328 3.43.39.3 2.844-.379 2.844-.379a8.491 8.491 0 0 0 .46 2.052s-3.978 1.173-4.584.486a9.181 9.181 0 0 1 -1.233-2.525" fill="#fff"/><path d="m122.19 45.956c1.089 0 2.91.362 3.549 1.166a.5.5 0 0 1 .032.045c.871 1.388 1.889 2.933 2.18 3.266a1.077 1.077 0 0 0 .108 0 12.478 12.478 0 0 0 2.327-.433.5.5 0 0 1 .631.443 8.049 8.049 0 0 0 .429 1.914.5.5 0 0 1 -.326.657 18.167 18.167 0 0 1 -3.88.722 1.542 1.542 0 0 1 -1.22-.385 3.372 3.372 0 0 1 -.289-.385l.089 3.171a.5.5 0 0 1 -.292.469 6.247 6.247 0 0 1 -2.6.588 4.987 4.987 0 0 1 -2.395-.565.5.5 0 0 1 -.243-.408c0-.012-.05-1.186-.094-3.867-.007-.442-.053-.942-.1-1.472-.162-1.766-.345-3.767.877-4.654a2.1 2.1 0 0 1 1.217-.272zm2.751 1.77a4.757 4.757 0 0 0 -2.751-.77 1.571 1.571 0 0 0 -.637.085c-.759.551-.6 2.252-.466 3.752.05.549.1 1.067.106 1.546.032 1.906.066 3.044.083 3.542a4.364 4.364 0 0 0 1.65.314 5.148 5.148 0 0 0 1.885-.37l-.148-5.315a.5.5 0 0 1 .976-.166 8.544 8.544 0 0 0 1.118 2.331 1.233 1.233 0 0 0 .484.062 14.836 14.836 0 0 0 3.1-.544 9.2 9.2 0 0 1 -.243-1.086 10.537 10.537 0 0 1 -2.036.33 1.1 1.1 0 0 1 -.687-.177 29.84 29.84 0 0 1 -2.434-3.534z" fill="#05365d"/><path d="m121.262 46.638a2.723 2.723 0 0 0 -.118.874.415.415 0 0 0 .435.335 1.664 1.664 0 0 0 .917-.186 3.859 3.859 0 0 0 1.053-1.012l.791.31a2.461 2.461 0 0 0 -.72 1.377c.572 1.541.122 3.091.376 3.454.37.528 1.444.639 1.444.639l.1 4.824-.588-.244a7.107 7.107 0 0 1 -2.724.441 8.571 8.571 0 0 1 -2.512-.75s-.021-1.821-.028-6.462a6.611 6.611 0 0 1 .7-3.258z" fill="#2f3943"/><path d="m121.262 46.138a.5.5 0 0 1 .481.638 3.02 3.02 0 0 0 -.109.573h.086a1.166 1.166 0 0 0 .545-.135 3.319 3.319 0 0 0 .876-.857.5.5 0 0 1 .591-.177l.791.31a.5.5 0 0 1 .116.867 1.819 1.819 0 0 0 -.5.941 7.282 7.282 0 0 1 .28 2.589 4.339 4.339 0 0 0 .007.637 2.034 2.034 0 0 0 1.067.4.5.5 0 0 1 .448.487l.1 4.824a.5.5 0 0 1 -.692.472l-.428-.178-.153.044a7.754 7.754 0 0 1 -2.128.4 3.489 3.489 0 0 1 -.481-.032 9.031 9.031 0 0 1 -2.673-.8.5.5 0 0 1 -.27-.438c0-.018-.021-1.877-.028-6.467a7.082 7.082 0 0 1 .777-3.521.5.5 0 0 1 .243-.2l.87-.342a.5.5 0 0 1 .184-.035zm.458 2.215c-.06 0-.121 0-.181-.007a.911.911 0 0 1 -.886-.738v-.01a7.037 7.037 0 0 0 -.462 2.64c.005 3.527.019 5.438.025 6.141a8.458 8.458 0 0 0 2.084.577 2.488 2.488 0 0 0 .343.023 6.98 6.98 0 0 0 1.85-.356c.117-.034.227-.066.33-.094a.5.5 0 0 1 .2-.013l-.077-3.663a2.3 2.3 0 0 1 -1.362-.775 2.016 2.016 0 0 1 -.168-1.216 6.129 6.129 0 0 0 -.267-2.351.5.5 0 0 1 -.025-.255 3.436 3.436 0 0 1 .142-.541 2.687 2.687 0 0 1 -.541.39 2.157 2.157 0 0 1 -1.005.248z" fill="#05365d"/><path d="m123.108 44.958a1.022 1.022 0 0 1 -.334-.883c.009-.517.719-.631.719-.631l-.113-.369-3.713.5a2.444 2.444 0 0 0 .653 1.7 13.33 13.33 0 0 0 1.426 1.184l-.04-.465.367.465.284-.594.256.47z" fill="#0a2c4c"/><path d="m122.073 46.9a3.759 3.759 0 0 0 -.578-.079 13.665 13.665 0 0 1 -1.479-1.228 2.885 2.885 0 0 1 -.786-2.035.437.437 0 0 1 .378-.414l3.713-.5a.437.437 0 0 1 .477.305l.113.369a.437.437 0 0 1 -.349.56c-.12.021-.349.111-.351.207a.7.7 0 0 0 .15.518.4.4 0 0 1 .158.505l-.5 1.381a3.891 3.891 0 0 0 -.9.411zm-1.938-2.944a1.815 1.815 0 0 0 .489 1.008c.277.268.561.51.8.7a.958.958 0 0 0 .924-.234.436.436 0 0 1 .123.014l.14-.39a1.638 1.638 0 0 1 -.272-.988.94.94 0 0 1 .1-.424z" fill="#0a2c4c"/><path d="m122.551 39.578a3.06 3.06 0 0 1 3.1 2.271 10.465 10.465 0 0 1 -3.177 1.611 17.755 17.755 0 0 1 -3.027.683 3.422 3.422 0 0 1 3.1-4.565" fill="#c8c9ca"/><path d="m122.786 39.07a3.259 3.259 0 0 1 2.681 1.337 4.135 4.135 0 0 1 .667 1.315.5.5 0 0 1 -.144.494 11.42 11.42 0 0 1 -3.356 1.718 18.088 18.088 0 0 1 -3.126.706.5.5 0 0 1 -.548-.377 4.161 4.161 0 0 1 .556-3.595 4.011 4.011 0 0 1 3-1.589c.092-.006.184-.009.27-.009zm2.277 2.614a2.459 2.459 0 0 0 -2.277-1.614c-.066 0-.134 0-.2.007a2.873 2.873 0 0 0 -2.74 3.5 16.458 16.458 0 0 0 2.469-.591 11.68 11.68 0 0 0 2.747-1.302z" fill="#05365d"/><path d="m124.568 40.189a2.957 2.957 0 0 0 -.268 1.111c0 .949-1.273 1.844-1.273 1.844l.027.107a9.133 9.133 0 0 0 2.6-1.4 3.571 3.571 0 0 0 -1.084-1.66" fill="#05365d"/><path d="m140.423 34.775-.761 5.832a3.736 3.736 0 0 1 -2.493.338 3.529 3.529 0 0 1 -1.437-1.732l1.352-.8.8.507s.761-4.184 2.536-4.142" fill="#84c5df"/><path d="m140.4 34.275h.038a.5.5 0 0 1 .484.565l-.761 5.832a.5.5 0 0 1 -.277.385 5.418 5.418 0 0 1 -2.038.516 2.118 2.118 0 0 1 -.881-.173 3.919 3.919 0 0 1 -1.7-2.007.5.5 0 0 1 .211-.61l1.352-.8a.5.5 0 0 1 .522.007l.2.129a12.412 12.412 0 0 1 .463-1.453c.629-1.588 1.429-2.391 2.387-2.391zm-1.2 5.986.613-4.7a4.228 4.228 0 0 0 -.868 1.468 12.056 12.056 0 0 0 -.57 1.977.5.5 0 0 1 -.759.333l-.54-.339-.7.414a2.538 2.538 0 0 0 1 1.08 1.138 1.138 0 0 0 .467.083 4.007 4.007 0 0 0 1.357-.316z" fill="#063964"/><g clip-path="url(#c)" opacity=".3"><path d="m133.426 57.581c0 2.009 3.226 3.638 7.205 3.638s7.205-1.629 7.205-3.638-3.226-3.638-7.205-3.638-7.205 1.629-7.205 3.638" fill="#190e0e"/></g><path d="m140.372 58.675c.867.267 3.222-.383 3.537-.918s-.076-1.183-.075-1.591a6.235 6.235 0 0 1 -1.933.268c-.145.11-.363.484-.544.624-.714.555-1.852 1.35-.985 1.617" fill="#f3f4f4"/><path d="m140.888 59.237a2.285 2.285 0 0 1 -.663-.084.839.839 0 0 1 -.654-.643c-.112-.624.577-1.154 1.308-1.715l.171-.132a2.145 2.145 0 0 0 .209-.25 1.963 1.963 0 0 1 .34-.378.5.5 0 0 1 .378-.1 1.277 1.277 0 0 0 .189.012 6.834 6.834 0 0 0 1.528-.266.5.5 0 0 1 .64.481 1.881 1.881 0 0 0 .07.338 1.884 1.884 0 0 1 -.064 1.5 2.661 2.661 0 0 1 -1.494.882 6.911 6.911 0 0 1 -1.958.355zm-.173-1.007c.048 0 .106.007.173.007a5.237 5.237 0 0 0 2.594-.741c.091-.164.044-.391-.04-.716a6.113 6.113 0 0 1 -1.336.171l-.053.069a2.318 2.318 0 0 1 -.391.434l-.175.135a9.225 9.225 0 0 0 -.772.641z" fill="#082d4e"/><path d="m137.27 57.863c.795.438 2.964-.672 3.156-1.189a11 11 0 0 0 0-1.235l-1.858-.379-.116 1.272c-.608.379-1.7 1.244-1.182 1.531" fill="#f3f4f4"/><path d="m137.74 58.463a1.461 1.461 0 0 1 -.711-.162.729.729 0 0 1 -.4-.627 1.5 1.5 0 0 1 .63-1.071 6.519 6.519 0 0 1 .712-.558l.094-1.031a.5.5 0 0 1 .6-.444l1.858.379a.5.5 0 0 1 .4.469 4.257 4.257 0 0 1 -.03 1.427c-.172.464-.88.877-1.286 1.082a4.669 4.669 0 0 1 -1.867.536zm1.275-2.8-.065.716a.5.5 0 0 1 -.233.379 5.081 5.081 0 0 0 -.9.7 4.237 4.237 0 0 0 2.129-.951c.006-.125 0-.384 0-.66z" fill="#082d4e"/><path d="m143.995 42.91c.245 1.018.206 13.256.206 13.256a3.372 3.372 0 0 1 -2.806.375l-.374-10-.169 9.5a3.446 3.446 0 0 1 -2.2-.306l.01-12.76z" fill="#175f95"/><path d="m144 42.41a.5.5 0 0 1 .486.383c.252 1.046.224 12.116.22 13.375a.5.5 0 0 1 -.252.432 4.236 4.236 0 0 1 -2.121.589 3.135 3.135 0 0 1 -1.133-.189.5.5 0 0 1 -.309-.444v-.015a4.466 4.466 0 0 1 -.746.061 3.431 3.431 0 0 1 -1.761-.441.5.5 0 0 1 -.239-.427l.01-12.76a.5.5 0 0 1 .494-.5l5.337-.068zm-.3 13.454c.011-4.264-.021-10.718-.148-12.448l-4.4.056-.009 11.96a2.711 2.711 0 0 0 1 .174c.075 0 .146 0 .211-.006l.161-9.068a.5.5 0 0 1 1-.01l.36 9.631a2.661 2.661 0 0 0 .448.037 3.159 3.159 0 0 0 1.377-.326z" fill="#063964"/><path d="m144.236 42.207a1.472 1.472 0 0 0 .83-.593c1.018-1.529.287-5.3-.4-6.125-.454-.552-3.3-1.182-3.3-1.182a10.444 10.444 0 0 0 -1.624.933c-1.02.745-1.07 2.253-1.056 3.466.022 1.875-.337 4.9-.337 4.9a19.643 19.643 0 0 0 5.9.216z" fill="#84c5df"/><path d="m141.574 44.461a12.108 12.108 0 0 1 -3.366-.371.5.5 0 0 1 -.351-.537c0-.03.355-3.02.334-4.84-.012-1.024-.034-2.93 1.261-3.876a10.873 10.873 0 0 1 1.714-.985.5.5 0 0 1 .313-.032c.03.007.737.164 1.513.393 1.492.44 1.887.744 2.064.96a6.978 6.978 0 0 1 .944 3.059 6.007 6.007 0 0 1 -.52 3.659 1.91 1.91 0 0 1 -.742.654l.017 1.276a.5.5 0 0 1 -.446.5c-.05.009-1.278.14-2.735.14zm-2.674-1.226a13.187 13.187 0 0 0 2.675.225c.885 0 1.7-.052 2.177-.09l-.015-1.157a.5.5 0 0 1 .361-.487.979.979 0 0 0 .552-.389 4.944 4.944 0 0 0 .36-2.992 6.236 6.236 0 0 0 -.725-2.538 4.372 4.372 0 0 0 -1.6-.644c-.519-.152-1.011-.273-1.258-.331a9.677 9.677 0 0 0 -1.386.811c-.811.592-.864 1.888-.851 3.056a44.913 44.913 0 0 1 -.29 4.536z" fill="#063964"/><path d="m138.784 29.893s-.651 3.508.55 4.166a1.719 1.719 0 0 0 1.215.289v.81s.874.759 2-.376a6.789 6.789 0 0 0 .148-1.55s.9-.52.811-1.311a5.507 5.507 0 0 0 -1.1-3.268 2.417 2.417 0 0 0 -3.617 1.24" fill="#f7d7c5"/><path d="m141.095 27.761a2.4 2.4 0 0 1 1.665.544 6.018 6.018 0 0 1 1.24 3.564 1.89 1.89 0 0 1 -.808 1.626 7.168 7.168 0 0 1 -.162 1.4.5.5 0 0 1 -.131.235 2.269 2.269 0 0 1 -1.61.773 1.7 1.7 0 0 1 -1.069-.371.5.5 0 0 1 -.172-.378v-.315a2.98 2.98 0 0 1 -.955-.345c-.673-.369-1-1.3-.985-2.775a12.683 12.683 0 0 1 .184-1.921q0-.021.01-.042a2.758 2.758 0 0 1 2.793-1.995zm.992 6.769a6.57 6.57 0 0 0 .107-1.287.5.5 0 0 1 .249-.442s.613-.378.565-.826a5 5 0 0 0 -.966-2.975 1.585 1.585 0 0 0 -.947-.241 1.776 1.776 0 0 0 -1.823 1.245c-.241 1.322-.269 3.3.3 3.615a1.68 1.68 0 0 0 .781.248.506.506 0 0 0 .059 0 .458.458 0 0 1 .435.058.5.5 0 0 1 .2.424v.518a.744.744 0 0 0 .241.04 1.222 1.222 0 0 0 .799-.378z" fill="#063964"/><path d="m140.781 31.593a.288.288 0 1 0 .326-.251.291.291 0 0 0 -.326.251" fill="#0c2d51"/><path d="m139.319 31.593a.288.288 0 1 0 .326-.251.291.291 0 0 0 -.326.251" fill="#0c2d51"/><path d="m142.373 31.4-.289-1.215a9.547 9.547 0 0 1 -4.065-.477 10.017 10.017 0 0 0 .929-.611c-.319-.306-.7-.743-.556-.989.175-.305 1.155.036 1.549.187a2.365 2.365 0 0 1 .3-.13l-.276-.707a3.008 3.008 0 0 1 1.017.537 2.679 2.679 0 0 1 2.145.746 3.413 3.413 0 0 1 .26 3.674.931.931 0 0 0 -1.011-1.015" fill="#0c2d51"/><path d="m143.384 32.91a.5.5 0 0 1 -.5-.5c0-.154 0-.516-.466-.516h-.009a.486.486 0 0 1 -.522-.383l-.191-.8c-.172.008-.387.014-.631.014a8.07 8.07 0 0 1 -3.262-.567.5.5 0 0 1 -.031-.885s.186-.107.422-.26a1.053 1.053 0 0 1 -.236-1.153.8.8 0 0 1 .757-.375 3.022 3.022 0 0 1 .773.131.5.5 0 0 1 .441-.657h.044c.186 0 .456.067 1.151.531a3.066 3.066 0 0 1 2.4.956 3.925 3.925 0 0 1 .3 4.207.5.5 0 0 1 -.44.257zm-.607-1.977a1.463 1.463 0 0 1 .5.21 2.823 2.823 0 0 0 -.555-2.111 2.169 2.169 0 0 0 -1.543-.549c-.056 0-.111 0-.166.006a.5.5 0 0 1 -.317-.087l-.015-.01a.5.5 0 0 1 -.267.236 1.9 1.9 0 0 0 -.235.1.5.5 0 0 1 -.417.027 6.019 6.019 0 0 0 -.651-.212c.05.055.111.117.183.186a.5.5 0 0 1 -.045.76l-.079.059a9.5 9.5 0 0 0 1.894.17c.565 0 .968-.038.972-.038a.5.5 0 0 1 .534.382z" fill="#082d4e"/><path d="m142.666 38.786-1.2.608s-1.8-.716-1.624-1.411c.1-.4-.933-.889.065-1.128.592-.142 1.841.717 2.213 1.15z" fill="#f7d7c5"/><path d="m141.471 39.894a.5.5 0 0 1 -.184-.035 6.8 6.8 0 0 1 -.959-.485c-.731-.454-1.062-.933-.984-1.425-.024-.039-.063-.092-.091-.131a.936.936 0 0 1 -.236-.893 1.006 1.006 0 0 1 .779-.556 1.117 1.117 0 0 1 .26-.029 4.333 4.333 0 0 1 2.449 1.34.5.5 0 0 1 .032.041l.541.781a.5.5 0 0 1 -.184.73l-1.2.608a.5.5 0 0 1 -.223.054zm-1.133-1.814a2.782 2.782 0 0 0 1.114.762l.477-.243-.2-.287a3.916 3.916 0 0 0 -1.585-.966.936.936 0 0 1 .194.734z" fill="#063964"/><path d="m144.219 42.212a1.641 1.641 0 0 1 -1.641-.511 7.123 7.123 0 0 1 -1.578-2.36l1.577-.973 1.613 1.6" fill="#84c5df"/><path d="m143.81 42.768a2.171 2.171 0 0 1 -1.6-.731 7.568 7.568 0 0 1 -1.691-2.553.5.5 0 0 1 .216-.569l1.577-.973a.5.5 0 0 1 .614.07l1.613 1.595a.5.5 0 1 1 -.7.711l-1.339-1.318-.874.539a8.668 8.668 0 0 0 1.321 1.826 1.147 1.147 0 0 0 1.136.366.5.5 0 0 1 .269.963 2.019 2.019 0 0 1 -.542.074z" fill="#063964"/><path d="m137.8 38.029-1.86-.718-1.183-3.339 1.86.718z" fill="#398c97"/><path d="m137.8 38.529a.5.5 0 0 1 -.18-.034l-1.86-.718a.5.5 0 0 1 -.291-.3l-1.183-3.339a.5.5 0 0 1 .651-.633l1.86.718a.5.5 0 0 1 .291.3l1.183 3.339a.5.5 0 0 1 -.471.667zm-1.465-1.6.631.244-.743-2.1-.631-.244z" fill="#063964"/><path d="m135.351 37.734s.211-1.183.423-1.1.253.423.253.423.93-.465 1.184-.169 0 1.056-.212 1.31a3.841 3.841 0 0 1 -.8.592c-.127.084-.507.042-.845-1.057" fill="#f7d7c5"/><path d="m136.1 39.319c-.518 0-.929-.484-1.223-1.438a.5.5 0 0 1 -.014-.235c0-.012.054-.3.134-.595.087-.322.25-.921.76-.921a.557.557 0 0 1 .206.039.8.8 0 0 1 .326.243 2.151 2.151 0 0 1 .647-.123.827.827 0 0 1 .659.273c.467.546.108 1.578-.208 1.956a3.368 3.368 0 0 1 -.817.63l-.092.057a.681.681 0 0 1 -.378.114zm-.23-1.616a2.186 2.186 0 0 0 .251.549 2.458 2.458 0 0 0 .5-.373 1.326 1.326 0 0 0 .2-.575 2.591 2.591 0 0 0 -.566.2.511.511 0 0 1 -.351.042c-.016.054-.028.104-.038.154z" fill="#063964"/><path d="m.93.485h-.037l-.929-.085a.4.4 0 0 1 -.364-.436.4.4 0 0 1 .436-.364l.93.085a.4.4 0 0 1 -.036.8z" fill="#082d4e" transform="translate(139.704 33)"/><path d="m195.6 11.089-179.953 103.795 3.042 1.77 179.957-103.8z" fill="#a4855c"/><path d="m195.6 10.589a.5.5 0 0 1 .251.068l3.041 1.77a.5.5 0 0 1 0 .865l-179.954 103.796a.5.5 0 0 1 -.5 0l-3.042-1.77a.5.5 0 0 1 0-.865l179.958-103.8a.5.5 0 0 1 .246-.064zm2.044 2.268-2.045-1.19-178.955 103.219 2.046 1.19z" fill="#053760"/><path d="m198.646 12.858-179.958 103.796 3.042 1.77 179.957-103.8z" fill="#a4855c"/><path d="m198.646 12.358a.5.5 0 0 1 .252.068l3.041 1.77a.5.5 0 0 1 0 .865l-179.959 103.796a.5.5 0 0 1 -.5 0l-3.042-1.77a.5.5 0 0 1 0-.865l179.962-103.797a.5.5 0 0 1 .246-.067zm2.044 2.268-2.045-1.19-178.96 103.22 2.046 1.19z" fill="#053760"/><path d="m201.688 14.628-179.958 103.796 3.041 1.77 179.957-103.794z" fill="#a4855c"/><path d="m201.688 14.128a.5.5 0 0 1 .251.068l3.041 1.77a.5.5 0 0 1 0 .865l-179.959 103.796a.5.5 0 0 1 -.5 0l-3.041-1.77a.5.5 0 0 1 0-.865l179.957-103.8a.5.5 0 0 1 .251-.064zm2.044 2.268-2.045-1.19-178.959 103.219 2.045 1.19z" fill="#053760"/><path d="m204.729 16.4-179.957 103.793 3.041 1.769 179.957-103.795z" fill="#a4855c"/><path d="m204.729 15.9a.5.5 0 0 1 .251.068l3.041 1.77a.5.5 0 0 1 0 .865l-179.958 103.797a.5.5 0 0 1 -.5 0l-3.041-1.769a.5.5 0 0 1 0-.865l179.957-103.8a.5.5 0 0 1 .25-.066zm2.044 2.268-2.045-1.19-178.959 103.217 2.045 1.189z" fill="#053760"/><path d="m189.522 7.549-179.958 103.796 3.042 1.77 179.957-103.796z" fill="#a4855c"/><path d="m189.522 7.049a.5.5 0 0 1 .252.068l3.041 1.77a.5.5 0 0 1 0 .865l-179.959 103.797a.5.5 0 0 1 -.5 0l-3.042-1.77a.5.5 0 0 1 0-.865l179.958-103.798a.5.5 0 0 1 .25-.067zm2.044 2.268-2.045-1.19-178.96 103.22 2.046 1.19z" fill="#053760"/><path d="m180.458 2.276-179.958 103.797 2.98 1.734 179.958-103.797z" fill="#a4855c"/><path d="m180.458 1.776a.5.5 0 0 1 .251.068l2.98 1.734a.5.5 0 0 1 0 .865l-179.959 103.798a.5.5 0 0 1 -.5 0l-2.98-1.734a.5.5 0 0 1 0-.865l179.959-103.799a.5.5 0 0 1 .249-.067zm1.983 2.232-1.984-1.154-178.957 103.221 1.984 1.154z" fill="#053760"/><path d="m192.563 9.319-179.958 103.796 3.042 1.77 179.953-103.796z" fill="#a4855c"/><path d="m192.563 8.819a.5.5 0 0 1 .252.068l3.041 1.77a.5.5 0 0 1 0 .865l-179.956 103.796a.5.5 0 0 1 -.5 0l-3.042-1.77a.5.5 0 0 1 0-.865l179.955-103.797a.5.5 0 0 1 .25-.067zm2.044 2.268-2.045-1.187-178.962 103.217 2.046 1.19z" fill="#053760"/><path d="m183.439 4.01-179.958 103.797 3.041 1.769 179.958-103.796z" fill="#a4855c"/><path d="m183.439 3.51a.5.5 0 0 1 .252.068l3.041 1.77a.5.5 0 0 1 0 .865l-179.96 103.797a.5.5 0 0 1 -.5 0l-3.043-1.77a.5.5 0 0 1 0-.865l179.96-103.798a.5.5 0 0 1 .25-.067zm2.044 2.268-2.045-1.19-178.96 103.221 2.045 1.191z" fill="#053760"/><path d="m186.48 5.78-179.958 103.797 3.041 1.769 179.958-103.796z" fill="#a4855c"/><path d="m186.48 5.28a.5.5 0 0 1 .252.068l3.041 1.77a.5.5 0 0 1 0 .865l-179.96 103.796a.5.5 0 0 1 -.5 0l-3.041-1.769a.5.5 0 0 1 0-.865l179.958-103.798a.5.5 0 0 1 .25-.067zm2.044 2.268-2.045-1.19-178.959 103.221 2.045 1.189z" fill="#053760"/><path d="m207.77 18.167-179.957 103.796 3.041 1.769 179.957-103.795z" fill="#a4855c"/><path d="m207.77 17.667a.5.5 0 0 1 .251.068l3.041 1.77a.5.5 0 0 1 0 .865l-179.962 103.795a.5.5 0 0 1 -.5 0l-3.041-1.769a.5.5 0 0 1 0-.865l179.957-103.8a.5.5 0 0 1 .254-.064zm2.044 2.268-2.045-1.19-178.958 103.219 2.045 1.189z" fill="#053760"/><path d="m219.936 25.245-179.956 103.796 3.041 1.769 179.956-103.795z" fill="#a4855c"/><path d="m219.936 24.745a.5.5 0 0 1 .251.068l3.041 1.77a.5.5 0 0 1 0 .865l-179.957 103.795a.5.5 0 0 1 -.5 0l-3.041-1.769a.5.5 0 0 1 0-.865l179.956-103.8a.5.5 0 0 1 .25-.064zm2.044 2.268-2.045-1.19-178.957 103.22 2.045 1.189z" fill="#053760"/><path d="m232.1 32.323-179.954 103.795 3.042 1.77 179.955-103.795z" fill="#a4855c"/><path d="m232.1 31.823a.5.5 0 0 1 .251.068l3.041 1.77a.5.5 0 0 1 0 .865l-179.954 103.795a.5.5 0 0 1 -.5 0l-3.042-1.77a.5.5 0 0 1 0-.865l179.956-103.796a.5.5 0 0 1 .248-.067zm2.044 2.268-2.044-1.191-178.957 103.22 2.046 1.19z" fill="#053760"/><path d="m229.061 30.553-179.961 103.795 3.042 1.77 179.958-103.795z" fill="#a4855c"/><path d="m229.061 30.053a.5.5 0 0 1 .251.068l3.041 1.77a.5.5 0 0 1 0 .865l-179.953 103.795a.5.5 0 0 1 -.5 0l-3.042-1.77a.5.5 0 0 1 0-.865l179.953-103.796a.5.5 0 0 1 .25-.067zm2.044 2.268-2.045-1.19-178.96 103.219 2.046 1.19z" fill="#053760"/><path d="m216.895 23.475-179.957 103.796 3.042 1.769 179.956-103.795z" fill="#a4855c"/><path d="m216.895 22.975a.5.5 0 0 1 .251.068l3.041 1.77a.5.5 0 0 1 0 .865l-179.957 103.795a.5.5 0 0 1 -.5 0l-3.044-1.773a.5.5 0 0 1 0-.865l179.957-103.8a.5.5 0 0 1 .252-.06zm2.044 2.268-2.045-1.19-178.959 103.22 2.045 1.189z" fill="#053760"/><path d="m213.853 21.706-179.953 103.794 3.042 1.769 179.952-103.793z" fill="#a4855c"/><path d="m213.853 21.206a.5.5 0 0 1 .251.068l3.041 1.77a.5.5 0 0 1 0 .865l-179.957 103.791a.5.5 0 0 1 -.5 0l-3.042-1.769a.5.5 0 0 1 0-.865l179.954-103.793a.5.5 0 0 1 .253-.067zm2.044 2.268-2.045-1.19-178.958 103.216 2.045 1.189z" fill="#053760"/><path d="m226.019 28.784-179.956 103.795 3.041 1.77 179.956-103.795z" fill="#a4855c"/><path d="m226.019 28.284a.5.5 0 0 1 .252.068l3.041 1.77a.5.5 0 0 1 0 .865l-179.958 103.795a.5.5 0 0 1 -.5 0l-3.041-1.77a.5.5 0 0 1 0-.865l179.956-103.796a.5.5 0 0 1 .25-.067zm2.044 2.268-2.045-1.19-178.958 103.219 2.045 1.19z" fill="#053760"/><path d="m210.812 19.936-179.957 103.796 3.045 1.768 179.953-103.794z" fill="#a4855c"/><path d="m210.812 19.436a.5.5 0 0 1 .251.068l3.041 1.77a.5.5 0 0 1 0 .865l-179.957 103.795a.5.5 0 0 1 -.5 0l-3.047-1.77a.5.5 0 0 1 0-.865l179.962-103.799a.5.5 0 0 1 .25-.064zm2.044 2.268-2.045-1.19-178.959 103.22 2.045 1.189z" fill="#053760"/><path d="m222.978 27.014-179.956 103.796 3.041 1.769 179.956-103.795z" fill="#a4855c"/><path d="m222.978 26.514a.5.5 0 0 1 .252.068l3.041 1.77a.5.5 0 0 1 0 .865l-179.959 103.795a.5.5 0 0 1 -.5 0l-3.041-1.769a.5.5 0 0 1 0-.865l179.956-103.8a.5.5 0 0 1 .251-.064zm2.044 2.268-2.045-1.19-178.958 103.22 2.045 1.188z" fill="#053760"/><path d="m235.116 34.339-179.958 103.796 3.042 1.77 179.957-103.8z" fill="#a4855c"/><path d="m235.116 33.839a.5.5 0 0 1 .251.068l3.041 1.77a.5.5 0 0 1 0 .865l-179.958 103.796a.5.5 0 0 1 -.5 0l-3.042-1.77a.5.5 0 0 1 0-.865l179.958-103.8a.5.5 0 0 1 .25-.064zm2.044 2.268-2.045-1.19-178.959 103.22 2.046 1.19z" fill="#053760"/><path d="m238.158 36.109-179.958 103.791 3.042 1.77 179.958-103.791z" fill="#a4855c"/><path d="m238.158 35.609a.5.5 0 0 1 .251.068l3.041 1.77a.5.5 0 0 1 0 .865l-179.958 103.796a.5.5 0 0 1 -.5 0l-3.042-1.77a.5.5 0 0 1 0-.865l179.958-103.8a.5.5 0 0 1 .25-.064zm2.044 2.268-2.045-1.19-178.957 103.22 2.046 1.19z" fill="#053760"/><path d="m241.2 37.878-179.958 103.796 3.041 1.77 179.957-103.796z" fill="#a4855c"/><path d="m241.2 37.378a.5.5 0 0 1 .251.068l3.041 1.77a.5.5 0 0 1 0 .865l-179.959 103.796a.5.5 0 0 1 -.5 0l-3.041-1.77a.5.5 0 0 1 0-.865l179.957-103.8a.5.5 0 0 1 .251-.064zm2.044 2.268-2.045-1.19-178.959 103.22 2.045 1.19z" fill="#053760"/><path d="m244.241 39.648-179.957 103.796 3.041 1.769 179.957-103.795z" fill="#a4855c"/><path d="m244.241 39.148a.5.5 0 0 1 .251.068l3.041 1.77a.5.5 0 0 1 0 .865l-179.958 103.795a.5.5 0 0 1 -.5 0l-3.041-1.769a.5.5 0 0 1 0-.865l179.957-103.8a.5.5 0 0 1 .25-.064zm2.044 2.268-2.045-1.19-178.959 103.22 2.045 1.189z" fill="#053760"/><path d="m247.282 41.417-179.957 103.796 3.041 1.769 179.957-103.795z" fill="#a4855c"/><path d="m247.282 40.917a.5.5 0 0 1 .251.068l3.041 1.77a.5.5 0 0 1 0 .865l-179.958 103.795a.5.5 0 0 1 -.5 0l-3.041-1.769a.5.5 0 0 1 0-.865l179.957-103.8a.5.5 0 0 1 .25-.064zm2.044 2.268-2.045-1.185-178.958 103.215 2.045 1.189z" fill="#053760"/><path d="m259.448 48.5-179.956 103.791 3.041 1.769 179.956-103.795z" fill="#a4855c"/><path d="m259.448 48a.5.5 0 0 1 .252.068l3.041 1.77a.5.5 0 0 1 0 .865l-179.958 103.79a.5.5 0 0 1 -.5 0l-3.041-1.769a.5.5 0 0 1 0-.865l179.958-103.797a.5.5 0 0 1 .248-.062zm2.044 2.268-2.045-1.19-178.957 103.215 2.045 1.189z" fill="#053760"/><path d="m271.614 55.574-179.956 103.794 3.042 1.77 179.955-103.794z" fill="#a4855c"/><path d="m271.614 55.074a.5.5 0 0 1 .252.068l3.041 1.77a.5.5 0 0 1 0 .865l-179.957 103.795a.5.5 0 0 1 -.5 0l-3.042-1.77a.5.5 0 0 1 0-.865l179.956-103.797a.5.5 0 0 1 .25-.066zm2.044 2.268-2.045-1.19-178.958 103.218 2.046 1.19z" fill="#053760"/><path d="m268.572 53.8-179.956 103.8 3.042 1.77 179.955-103.796z" fill="#a4855c"/><path d="m268.572 53.3a.5.5 0 0 1 .252.068l3.041 1.77a.5.5 0 0 1 0 .865l-179.957 103.797a.5.5 0 0 1 -.5 0l-3.042-1.77a.5.5 0 0 1 0-.865l179.957-103.794a.5.5 0 0 1 .249-.071zm2.044 2.268-2.045-1.19-178.957 103.222 2.046 1.19z" fill="#053760"/><path d="m256.407 46.726-179.957 103.796 3.042 1.769 179.956-103.791z" fill="#a4855c"/><path d="m256.407 46.226a.5.5 0 0 1 .251.068l3.041 1.77a.5.5 0 0 1 0 .865l-179.958 103.795a.5.5 0 0 1 -.5 0l-3.041-1.77a.5.5 0 0 1 0-.865l179.957-103.8a.5.5 0 0 1 .25-.063zm2.044 2.268-2.045-1.19-178.959 103.22 2.045 1.189z" fill="#053760"/><path d="m253.365 44.956-179.957 103.796 3.042 1.769 179.956-103.795z" fill="#a4855c"/><path d="m253.365 44.456a.5.5 0 0 1 .252.068l3.041 1.77a.5.5 0 0 1 0 .865l-179.958 103.795a.5.5 0 0 1 -.5 0l-3.042-1.769a.5.5 0 0 1 0-.865l179.957-103.8a.5.5 0 0 1 .25-.064zm2.044 2.268-2.045-1.19-178.958 103.22 2.045 1.189z" fill="#053760"/><path d="m265.531 52.035-179.956 103.794 3.041 1.77 179.956-103.799z" fill="#a4855c"/><path d="m265.531 51.535a.5.5 0 0 1 .251.068l3.041 1.77a.5.5 0 0 1 0 .865l-179.957 103.795a.5.5 0 0 1 -.5 0l-3.041-1.77a.5.5 0 0 1 0-.865l179.956-103.798a.5.5 0 0 1 .25-.065zm2.044 2.268-2.045-1.19-178.958 103.218 2.045 1.19z" fill="#053760"/><path d="m250.324 43.187-179.957 103.796 3.042 1.769 179.956-103.795z" fill="#a4855c"/><path d="m250.324 42.687a.5.5 0 0 1 .252.068l3.041 1.77a.5.5 0 0 1 0 .865l-179.958 103.795a.5.5 0 0 1 -.5 0l-3.042-1.769a.5.5 0 0 1 0-.865l179.957-103.8a.5.5 0 0 1 .25-.064zm2.044 2.268-2.045-1.19-178.959 103.22 2.045 1.189z" fill="#053760"/><path d="m262.49 50.265-179.956 103.796 3.041 1.769 179.955-103.795z" fill="#a4855c"/><path d="m262.49 49.765a.5.5 0 0 1 .252.068l3.041 1.77a.5.5 0 0 1 0 .865l-179.959 103.795a.5.5 0 0 1 -.5 0l-3.041-1.769a.5.5 0 0 1 0-.865l179.957-103.797a.5.5 0 0 1 .25-.067zm2.044 2.268-2.045-1.19-178.958 103.22 2.045 1.189z" fill="#053760"/><path d="m283.453 62.987-179.953 103.795 3.042 1.77 179.952-103.795z" fill="#a4855c"/><path d="m283.453 62.487a.5.5 0 0 1 .252.068l3.041 1.77a.5.5 0 0 1 0 .865l-179.957 103.795a.5.5 0 0 1 -.5 0l-3.042-1.77a.5.5 0 0 1 0-.865l179.953-103.796a.5.5 0 0 1 .253-.067zm2.044 2.268-2.045-1.19-178.957 103.219 2.046 1.19z" fill="#053760"/><path d="m280.412 61.218-179.956 103.795 3.042 1.77 179.955-103.8z" fill="#a4855c"/><path d="m280.412 60.718a.5.5 0 0 1 .251.068l3.041 1.77a.5.5 0 0 1 0 .865l-179.955 103.8a.5.5 0 0 1 -.5 0l-3.042-1.77a.5.5 0 0 1 0-.865l179.955-103.801a.5.5 0 0 1 .25-.067zm2.044 2.268-2.045-1.19-178.958 103.219 2.046 1.19z" fill="#053760"/><path d="m277.37 59.448-179.956 103.795 3.041 1.77 179.956-103.8z" fill="#a4855c"/><path d="m277.37 58.948a.5.5 0 0 1 .251.068l3.041 1.77a.5.5 0 0 1 0 .865l-179.956 103.8a.5.5 0 0 1 -.5 0l-3.041-1.77a.5.5 0 0 1 0-.865l179.955-103.801a.5.5 0 0 1 .25-.067zm2.044 2.268-2.045-1.19-178.957 103.219 2.045 1.19z" fill="#053760"/><path d="m274.329 57.679-179.956 103.796 3.041 1.769 179.956-103.795z" fill="#a4855c"/><path d="m274.329 57.179a.5.5 0 0 1 .252.068l3.041 1.77a.5.5 0 0 1 0 .865l-179.958 103.795a.5.5 0 0 1 -.5 0l-3.041-1.769a.5.5 0 0 1 0-.865l179.956-103.8a.5.5 0 0 1 .25-.064zm2.044 2.268-2.045-1.19-178.958 103.22 2.045 1.189z" fill="#053760"/><path d="m77.609 87.683 64.275-36.613v-28.987l-64.275 36.617z" fill="#efefec"/><path d="m77.61 88.183a.5.5 0 0 1 -.5-.5v-28.983a.5.5 0 0 1 .253-.434l64.275-36.613a.5.5 0 0 1 .747.434v28.983a.5.5 0 0 1 -.253.434l-64.275 36.613a.5.5 0 0 1 -.247.066zm.5-29.2v27.84l63.275-36.043v-27.837z" fill="#053760"/><path d="m132.407 83.861-30.614 17.609v-3.911l30.614-17.609z" fill="#827561"/><path d="m132.407 79.45a.5.5 0 0 1 .5.5v3.911a.5.5 0 0 1 -.251.433l-30.614 17.606a.5.5 0 0 1 -.749-.433v-3.908a.5.5 0 0 1 .251-.433l30.614-17.609a.5.5 0 0 1 .249-.067zm-.5 4.122v-2.757l-29.614 17.033v2.757z" fill="#09335a"/><path d="m131.06 80.942-29.267 16.617v-2.414l29.267-16.617z" fill="#fffbed"/><path d="m131.06 78.028a.5.5 0 0 1 .5.5v2.414a.5.5 0 0 1 -.253.435l-29.267 16.617a.5.5 0 0 1 -.747-.435v-2.414a.5.5 0 0 1 .253-.435l29.267-16.617a.5.5 0 0 1 .247-.065zm-.5 2.623v-1.264l-28.267 16.049v1.264z" fill="#09335a"/><path d="m117.661 86.256-15.868 8.889-17.893-9.712 16.62-8.833z" fill="#fffbed"/><path d="m101.793 95.645a.5.5 0 0 1 -.239-.061l-17.89-9.712a.5.5 0 0 1 0-.881l16.617-8.833a.5.5 0 0 1 .48.006l17.141 9.656a.5.5 0 0 1 0 .872l-15.868 8.889a.5.5 0 0 1 -.241.064zm-16.833-10.207 16.83 9.136 14.851-8.319-16.127-9.085z" fill="#09335a"/><path d="m89.667 82.065c9.1-3.438 14.679-9.864 23.768-13.269a2.2 2.2 0 0 1 1.566.016 30.192 30.192 0 0 1 3.545 1.957c4.316 2.73 8.456 4.809 12.771 7.54a2.753 2.753 0 0 1 .795.657 10.569 10.569 0 0 1 .145 3.623c-8.5 3.615-16.129 10.38-24.626 14a13.3 13.3 0 0 0 -.258-4.192c-.288-.6-1.676-.953-2.212-1.347-6-4.411-9.491-5.626-15.494-8.982" fill="#badde5"/><path d="m114.192 68.16a2.728 2.728 0 0 1 .99.186 30.36 30.36 0 0 1 3.632 2c2.145 1.357 4.286 2.574 6.356 3.752 2.086 1.187 4.244 2.414 6.414 3.788a3.215 3.215 0 0 1 .932.786c.076.106.255.352.3 1.743a15.85 15.85 0 0 1 -.068 2.231.5.5 0 0 1 -.3.4 84.725 84.725 0 0 0 -12.241 6.96 85.513 85.513 0 0 1 -12.385 7.037.5.5 0 0 1 -.685-.565 13.376 13.376 0 0 0 -.225-3.88 3.338 3.338 0 0 0 -1.132-.67 5.292 5.292 0 0 1 -.921-.481 68.621 68.621 0 0 0 -10.454-6.3c-1.541-.795-3.134-1.616-4.988-2.653a.5.5 0 0 1 .067-.9 57.314 57.314 0 0 0 11.757-6.575 57.613 57.613 0 0 1 12.013-6.694 2.65 2.65 0 0 1 .938-.165zm17.5 11.079a2.5 2.5 0 0 0 -.642-.507c-2.15-1.361-4.3-2.582-6.374-3.763s-4.232-2.407-6.4-3.777a29.978 29.978 0 0 0 -3.459-1.913 1.732 1.732 0 0 0 -.628-.118 1.654 1.654 0 0 0 -.582.1 56.829 56.829 0 0 0 -11.807 6.591 61.851 61.851 0 0 1 -10.963 6.288c1.457.8 2.763 1.47 4.033 2.125a69.445 69.445 0 0 1 10.587 6.378 4.9 4.9 0 0 0 .738.374 3.118 3.118 0 0 1 1.629 1.159 14.007 14.007 0 0 1 .384 3.61 90.842 90.842 0 0 0 11.463-6.619 87.464 87.464 0 0 1 12.118-6.922 11.827 11.827 0 0 0 -.098-3.007z" fill="#053760"/><path d="m101.793 101.47-1.572.88-17.241-11.423-1.1-9.686c0-.857 2.026-1.333 2.768-.9l15.8 9.153a2.691 2.691 0 0 1 1.342 2.329z" fill="#827561"/><path d="m100.221 102.85a.5.5 0 0 1 -.276-.083l-17.245-11.423a.5.5 0 0 1 -.221-.361l-1.1-9.686a.5.5 0 0 1 0-.056c0-1.067 1.492-1.564 2.5-1.564a2.1 2.1 0 0 1 1.019.228l15.8 9.153a3.2 3.2 0 0 1 1.591 2.762v9.65a.5.5 0 0 1 -.256.436l-1.572.88a.5.5 0 0 1 -.24.064zm-16.77-12.211 16.792 11.126 1.05-.588v-9.357a2.2 2.2 0 0 0 -1.092-1.9l-15.801-9.149a1.065 1.065 0 0 0 -.517-.094 1.9 1.9 0 0 0 -1.5.55z" fill="#09335a"/><path d="m100.221 102.349-18.813-10.9v-9.625a1.113 1.113 0 0 1 1.671-.963l15.8 9.153a2.692 2.692 0 0 1 1.342 2.329z" fill="#6c6355"/><path d="m100.221 102.849a.5.5 0 0 1 -.251-.067l-18.813-10.9a.5.5 0 0 1 -.249-.433v-9.625a1.611 1.611 0 0 1 2.422-1.4l15.8 9.153a3.2 3.2 0 0 1 1.591 2.762v10.006a.5.5 0 0 1 -.5.5zm-18.313-11.686 17.813 10.319v-9.139a2.2 2.2 0 0 0 -1.093-1.9l-15.8-9.153a.6.6 0 0 0 -.305-.084.616.616 0 0 0 -.615.615z" fill="#09335a"/><path d="m129.567 79.329s-4.824 2.578-8.649 4.657c-3.758 2.043-11.112 5.939-11.636 6.463" fill="#badde5"/><path d="m109.281 90.951a.5.5 0 0 1 -.353-.855c.4-.4 3.075-1.87 8.929-5.024 1.036-.558 2.014-1.085 2.822-1.524 3.783-2.056 8.6-4.633 8.652-4.659a.5.5 0 0 1 .471.882c-.048.026-4.866 2.6-8.646 4.655-.81.44-1.789.968-2.825 1.526-3.291 1.773-8.263 4.452-8.7 4.854a.5.5 0 0 1 -.35.145z" fill="#053760"/><path d="m104.563 69.34c.637-.117 1.653.025 2.179-.354a.461.461 0 0 1 .278-.128c.22.014.245.325.224.545a6.626 6.626 0 0 0 .191 1.929q.255 1.272.508 2.542a.473.473 0 0 1 0 .261c-.077.2-.351.2-.562.236a2.332 2.332 0 0 0 -.91.511 10.3 10.3 0 0 1 -2.011 1.049l-1.957.844c-.13.056-.319.091-.378-.038a.3.3 0 0 1 0-.178 4.529 4.529 0 0 0 -.259-2.607c-.359-.926-1.5-3.115-.3-3.265.422-.052 1.267-1.03 3-1.347" fill="#1d81b5"/><path d="m107.006 68.358h.047a.693.693 0 0 1 .486.244 1.147 1.147 0 0 1 .2.848 6.237 6.237 0 0 0 .184 1.784q.255 1.272.508 2.542a.931.931 0 0 1 -.023.541.942.942 0 0 1 -.853.534l-.091.013a1.582 1.582 0 0 0 -.572.327l-.128.095a10.684 10.684 0 0 1 -2.108 1.1l-.453.2-1.5.649a1.068 1.068 0 0 1 -.412.091.657.657 0 0 1 -.619-.38.754.754 0 0 1 -.038-.469v-.008a4.027 4.027 0 0 0 -.234-2.335c-.048-.124-.115-.28-.185-.446-.521-1.225-.919-2.3-.523-2.984a1.034 1.034 0 0 1 .8-.51 3.15 3.15 0 0 0 .4-.242 6.643 6.643 0 0 1 2.573-1.1 5.839 5.839 0 0 1 .809-.068 2.594 2.594 0 0 0 1.168-.2l.023-.017a.884.884 0 0 1 .541-.209zm.424 5.5q-.242-1.212-.485-2.429a7.776 7.776 0 0 1 -.213-1.87 4.1 4.1 0 0 1 -1.411.22 5.2 5.2 0 0 0 -.668.052 5.68 5.68 0 0 0 -2.207.956 2.055 2.055 0 0 1 -.817.4.181.181 0 0 0 -.07.018s-.092.148.066.729a11.372 11.372 0 0 0 .512 1.365c.074.173.143.337.2.476a5.036 5.036 0 0 1 .355 2.379l1.122-.484.453-.2a9.932 9.932 0 0 0 1.915-.994l.117-.087a2.349 2.349 0 0 1 1-.512l.127-.019z" fill="#053760"/><path d="m100.67 72.259c.638-.117 1.654.025 2.18-.354a.461.461 0 0 1 .278-.128c.22.014.245.325.224.545a6.626 6.626 0 0 0 .191 1.929q.255 1.272.508 2.542a.473.473 0 0 1 0 .261c-.077.2-.351.2-.562.236a2.332 2.332 0 0 0 -.91.511 10.3 10.3 0 0 1 -2.011 1.049l-1.957.844c-.13.056-.319.091-.378-.038a.3.3 0 0 1 0-.178 4.529 4.529 0 0 0 -.259-2.607c-.359-.926-1.5-3.115-.3-3.265.422-.052 1.267-1.03 2.994-1.347" fill="#acc29c"/><path d="m103.114 71.277h.047a.693.693 0 0 1 .486.244 1.147 1.147 0 0 1 .2.848 6.237 6.237 0 0 0 .184 1.784q.255 1.272.508 2.542a.931.931 0 0 1 -.023.541.942.942 0 0 1 -.853.534l-.091.013a1.581 1.581 0 0 0 -.572.327l-.128.095a10.684 10.684 0 0 1 -2.108 1.1l-.451.194-1.506.65a1.068 1.068 0 0 1 -.412.091.657.657 0 0 1 -.619-.38.754.754 0 0 1 -.038-.469v-.008a4.027 4.027 0 0 0 -.234-2.335c-.048-.124-.115-.28-.185-.446-.521-1.225-.919-2.3-.523-2.984a1.034 1.034 0 0 1 .8-.51 3.153 3.153 0 0 0 .4-.242 6.642 6.642 0 0 1 2.572-1.1 5.85 5.85 0 0 1 .81-.068 2.6 2.6 0 0 0 1.168-.2l.023-.017a.884.884 0 0 1 .545-.204zm.424 5.5q-.242-1.212-.485-2.429a7.775 7.775 0 0 1 -.213-1.87 4.1 4.1 0 0 1 -1.411.22 5.207 5.207 0 0 0 -.668.052 5.678 5.678 0 0 0 -2.206.956 2.055 2.055 0 0 1 -.817.4.181.181 0 0 0 -.07.018s-.093.143.066.729a11.373 11.373 0 0 0 .512 1.365c.074.173.143.337.2.476a5.036 5.036 0 0 1 .354 2.376l1.124-.485.451-.194a9.932 9.932 0 0 0 1.915-.994l.117-.087a2.348 2.348 0 0 1 1-.512l.127-.019z" fill="#053760"/><path d="m187.441 77.623-45.557-26.553v-28.987l45.557 26.553z" fill="#efefec"/><path d="m187.441 78.123a.5.5 0 0 1 -.252-.068l-45.556-26.555a.5.5 0 0 1 -.248-.432v-28.985a.5.5 0 0 1 .752-.432l45.556 26.549a.5.5 0 0 1 .248.432v28.991a.5.5 0 0 1 -.5.5zm-45.057-27.34 44.557 25.97v-27.83l-44.557-25.97z" fill="#053760"/><path d="m177.941 60.776-30.141-17.536v-11.894l30.14 17.536z" fill="#efefec"/><path d="m177.941 61.276a.5.5 0 0 1 -.251-.068l-30.14-17.536a.5.5 0 0 1 -.249-.432v-11.894a.5.5 0 0 1 .751-.432l30.14 17.536a.5.5 0 0 1 .249.432v11.894a.5.5 0 0 1 -.5.5zm-29.641-18.324 29.14 16.954v-10.737l-29.14-16.954z" fill="#053760"/><path d="m177.941 60.776-30.141-17.536 5.084-2.764 24.976 14.617z" fill="#fff"/><path d="m177.941 61.276a.5.5 0 0 1 -.251-.068l-30.14-17.536a.5.5 0 0 1 .013-.871l5.084-2.764a.5.5 0 0 1 .491.008l24.976 14.617a.5.5 0 0 1 .247.424l.08 5.683a.5.5 0 0 1 -.5.507zm-29.121-18.022 28.608 16.646-.064-4.517-24.488-14.333z" fill="#053760"/><path d="m152.885 40.476-5.085 2.764v-11.894l5.085 3.013z" fill="#dbdbd9"/><path d="m147.8 43.74a.5.5 0 0 1 -.5-.5v-11.894a.5.5 0 0 1 .755-.43l5.085 3.013a.5.5 0 0 1 .245.43v6.117a.5.5 0 0 1 -.261.439l-5.085 2.764a.5.5 0 0 1 -.239.061zm.5-11.517v10.177l4.085-2.22v-5.536z" fill="#053760"/></g><g clip-path="url(#d)"><path d="m152.885 40.476 25.056 14.653v-6.248l-25.056-14.522z" fill="#a4855c"/><path d="m152.885 33.859a.5.5 0 0 1 .251.067l25.056 14.522a.5.5 0 0 1 .249.433v6.248a.5.5 0 0 1 -.752.432l-25.057-14.653a.5.5 0 0 1 -.248-.432v-6.117a.5.5 0 0 1 .5-.5zm24.556 15.31-24.056-13.942v4.962l24.056 14.068z" fill="#053760"/><path d="m151.274 35.122-12.636 7.106 8.988 5.189 12.636-7.106z" fill="#dadddd"/><path d="m151.274 34.622a.5.5 0 0 1 .25.067l8.988 5.189a.5.5 0 0 1 0 .869l-12.636 7.106a.5.5 0 0 1 -.5 0l-8.988-5.189a.5.5 0 0 1 0-.869l12.636-7.106a.5.5 0 0 1 .25-.067zm7.978 5.683-7.982-4.605-11.623 6.536 7.981 4.608z" fill="#053760"/><path d="m148.5 35.294-11.023 6.2a.8.8 0 0 0 -.007 1.383l7.384 4.264a.8.8 0 0 0 .789 0l11.022-6.2a.8.8 0 0 0 .008-1.383l-7.386-4.258a.8.8 0 0 0 -.788 0" fill="#7f8080"/><path d="m148.889 34.692a1.3 1.3 0 0 1 .647.173l7.385 4.264a1.3 1.3 0 0 1 -.013 2.252l-11.022 6.2a1.3 1.3 0 0 1 -1.283-.006l-7.385-4.265a1.3 1.3 0 0 1 .012-2.252l11.023-6.2a1.3 1.3 0 0 1 .636-.166zm-3.638 12.055a.3.3 0 0 0 .145-.038l11.022-6.2a.3.3 0 0 0 0-.514l-7.386-4.264a.3.3 0 0 0 -.293 0l-11.023 6.2a.3.3 0 0 0 0 .514l7.385 4.264a.3.3 0 0 0 .151.037z" fill="#053760"/><path d="m152.487 38.289c1.489 0 2.655.785 2.655 1.788s-1.166 1.788-2.655 1.788-2.654-.785-2.654-1.788 1.167-1.788 2.654-1.788zm0 2.776c1.093 0 1.855-.521 1.855-.988s-.762-.988-1.855-.988-1.854.521-1.854.988.761.988 1.854.988z" fill="#fff"/><path d="m160.262 41.351-5.024 2.839v-1.041l5.024-2.839z" fill="#b7baba"/><path d="m160.262 39.81a.5.5 0 0 1 .5.5v1.041a.5.5 0 0 1 -.254.435l-5.024 2.839a.5.5 0 0 1 -.746-.435v-1.041a.5.5 0 0 1 .254-.435l5.024-2.839a.5.5 0 0 1 .246-.065z" fill="#053760"/><path d="m173.2 52.735-5.024 2.839v-3.93l5.024-2.839z" fill="#b7baba"/><path d="m168.177 56.074a.5.5 0 0 1 -.5-.5v-3.93a.5.5 0 0 1 .254-.435l5.024-2.839a.5.5 0 0 1 .746.435v3.93a.5.5 0 0 1 -.254.435l-5.024 2.839a.5.5 0 0 1 -.246.065zm.5-4.138v2.781l4.024-2.274v-2.781z" fill="#053760"/><path d="m168.177 51.644-12.939-7.454 5.023-2.839 12.94 7.454z" fill="#dae5eb"/><path d="m168.177 52.144a.5.5 0 0 1 -.25-.067l-12.939-7.454a.5.5 0 0 1 0-.869l5.023-2.839a.5.5 0 0 1 .5 0l12.94 7.454a.5.5 0 0 1 0 .869l-5.024 2.839a.5.5 0 0 1 -.25.067zm-11.93-7.95 11.933 6.874 4.013-2.268-11.933-6.874z" fill="#053760"/><path d="m165.513 51.256-4.9-2.857a.958.958 0 0 1 .011-1.661l3.093-1.748a.957.957 0 0 1 .953.007l4.9 2.857a.957.957 0 0 1 -.011 1.66l-3.093 1.748a.957.957 0 0 1 -.953-.006" fill="#dae5eb"/><path d="m166 51.886a1.461 1.461 0 0 1 -.734-.2l-4.9-2.857a1.458 1.458 0 0 1 .016-2.528l3.093-1.748a1.457 1.457 0 0 1 1.451.011l4.9 2.857a1.457 1.457 0 0 1 -.017 2.527l-3.097 1.752a1.455 1.455 0 0 1 -.712.186zm-1.812-6.52a.459.459 0 0 0 -.225.059l-3.093 1.748a.458.458 0 0 0 -.005.794l4.9 2.857a.464.464 0 0 0 .455 0l3.094-1.748a.457.457 0 0 0 .005-.793l-4.9-2.857a.456.456 0 0 0 -.235-.06z" fill="#053760"/></g><g clip-path="url(#a)"><path d="m152.885 33.859a.5.5 0 0 1 .251.067l25.056 14.522a.5.5 0 0 1 .249.433v6.248a.5.5 0 0 1 -.752.432l-25.057-14.653a.5.5 0 0 1 -.248-.432v-6.117a.5.5 0 0 1 .5-.5zm24.556 15.31-24.056-13.942v4.962l24.056 14.068z" fill="#053760"/><path d="m0 2.147a.5.5 0 0 1 -.5-.5v-1.647a.5.5 0 0 1 .5-.5.5.5 0 0 1 .5.5v1.647a.5.5 0 0 1 -.5.5z" fill="#053760" transform="translate(164.163 45.437)"/><path d="m161.824 66.981c0 .682-1.106 1.235-2.47 1.235s-2.47-.553-2.47-1.235l-.253-4.3h5.446z" fill="#1f91a4"/><path d="m159.354 68.716c-1.684 0-2.955-.737-2.97-1.718l-.252-4.291a.5.5 0 0 1 .5-.529h5.446a.5.5 0 0 1 .5.529l-.254 4.293c-.015.979-1.286 1.716-2.97 1.716zm-2.193-5.539.222 3.775q0 .015 0 .029c0 .259.748.735 1.97.735s1.97-.476 1.97-.735q0-.015 0-.029l.222-3.775z" fill="#053760"/><path d="m162.077 62.677c0 .752-1.219 1.362-2.723 1.362s-2.724-.61-2.724-1.362 1.22-1.362 2.724-1.362 2.723.61 2.723 1.362" fill="#a36b4c"/><g fill="#053760"><path d="m159.354 60.815c1.837 0 3.223.8 3.223 1.862s-1.386 1.862-3.223 1.862-3.224-.8-3.224-1.862 1.386-1.862 3.224-1.862zm0 2.724c1.336 0 2.223-.519 2.223-.862s-.887-.862-2.223-.862-2.224.519-2.224.862.887.862 2.224.862z"/><path d="m159.578 63.789a1 1 0 0 1 -1-.956 36.423 36.423 0 0 0 -1.522-8.822 1 1 0 1 1 1.9-.632 37.921 37.921 0 0 1 1.622 9.366 1 1 0 0 1 -.955 1.043z"/><path d="m159.915 64.351a1 1 0 0 1 -.985-.836 21.866 21.866 0 0 1 1.07-10.691 1 1 0 0 1 1.856.744 20.175 20.175 0 0 0 -.954 9.618 1 1 0 0 1 -.988 1.165z"/><path d="m158.9 64.126a1 1 0 0 1 -1-1c0-7.336-3.792-10.905-3.831-10.941a1 1 0 0 1 1.353-1.473c.183.168 4.477 4.208 4.477 12.413a1 1 0 0 1 -.999 1.001z"/></g><path d="m162.494 49.659.492-.647a3.4 3.4 0 0 1 .216-.264 1.6 1.6 0 0 1 2.757 1.13 1.323 1.323 0 0 1 -.465 1.008 3.215 3.215 0 0 1 -1.184.433 1.181 1.181 0 0 0 -.92.778c-.063.33.116.691-.021 1a1.038 1.038 0 0 1 -.7.467 2.461 2.461 0 0 1 -.964.155.907.907 0 0 1 -.775-.521c-.109-.288-.018-.639-.186-.9-.259-.4-.916-.286-1.241-.629a.806.806 0 0 1 .248-1.154c.985-.648 1.918.229 2.745-.858" fill="#7d9d60"/><path d="m164.382 47.754a2.033 2.033 0 0 1 .776.15 2.136 2.136 0 0 1 1.3 1.984 1.823 1.823 0 0 1 -.653 1.388 2.653 2.653 0 0 1 -1.089.454c-.095.023-.185.045-.27.069-.315.09-.537.244-.566.391a1.12 1.12 0 0 0 .014.286 1.472 1.472 0 0 1 -.07.822 1.5 1.5 0 0 1 -1.012.741 3.261 3.261 0 0 1 -.971.184 1.894 1.894 0 0 1 -.19-.009 1.4 1.4 0 0 1 -1.192-.841 1.845 1.845 0 0 1 -.1-.541.875.875 0 0 0 -.039-.259.927.927 0 0 0 -.352-.137 1.673 1.673 0 0 1 -.834-.421 1.1 1.1 0 0 1 -.285-.9 1.44 1.44 0 0 1 .621-1.012 2.287 2.287 0 0 1 1.328-.352h.216.191a.921.921 0 0 0 .888-.4l.5-.661a3.692 3.692 0 0 1 .239-.289 2.128 2.128 0 0 1 1.55-.647zm-2.539 5.47a2.406 2.406 0 0 0 .676-.139c.31-.095.379-.161.393-.193a.863.863 0 0 0 -.009-.292 1.881 1.881 0 0 1 0-.6 1.626 1.626 0 0 1 1.274-1.165c.1-.03.208-.055.308-.079a1.862 1.862 0 0 0 .7-.263.829.829 0 0 0 .278-.627 1.132 1.132 0 0 0 -.681-1.039 1.039 1.039 0 0 0 -.4-.076 1.138 1.138 0 0 0 -.817.338c-.056.059-.112.133-.172.212l-.5.658a1.9 1.9 0 0 1 -1.684.791h-.211-.2a1.305 1.305 0 0 0 -.778.187.439.439 0 0 0 -.177.292.138.138 0 0 0 .018.1 1.02 1.02 0 0 0 .369.144 1.464 1.464 0 0 1 .927.555 1.448 1.448 0 0 1 .2.736 1.082 1.082 0 0 0 .035.256.433.433 0 0 0 .356.2.9.9 0 0 0 .095.004z" fill="#053760"/><path d="m160.382 54.628a2.123 2.123 0 0 1 .55 1.185 1.105 1.105 0 0 1 -.593 1.1l-1.228-.552a.842.842 0 0 0 -.382-.1.663.663 0 0 0 -.425.243 7.865 7.865 0 0 0 -.693 1.122 1.2 1.2 0 0 1 -1.072.646 1.48 1.48 0 0 1 -.51-.2c-.544-.3-1.153-.736-1.142-1.359a1.458 1.458 0 0 1 .229-.682 4.009 4.009 0 0 1 .963-1.124.232.232 0 0 0 .1-.121c.02-.1-.084-.168-.163-.227a.949.949 0 0 1 -.085-1.321 1.535 1.535 0 0 1 1.346-.462 5.688 5.688 0 0 1 3.109 1.862" fill="#7d9d60"/><path d="m157.068 52.255a2.423 2.423 0 0 1 .259.014 6.175 6.175 0 0 1 3.438 2.038 2.584 2.584 0 0 1 .666 1.472 1.6 1.6 0 0 1 -.9 1.59.5.5 0 0 1 -.4 0l-1.216-.547-.012-.005a1.23 1.23 0 0 0 -.142-.056.412.412 0 0 0 -.092.08 2.854 2.854 0 0 0 -.377.593c-.081.152-.164.309-.265.463a1.74 1.74 0 0 1 -1.392.88 1.259 1.259 0 0 1 -.165-.011 1.918 1.918 0 0 1 -.686-.262c-.389-.218-1.418-.792-1.4-1.805a1.959 1.959 0 0 1 .3-.923 4.465 4.465 0 0 1 .813-1.029 1.334 1.334 0 0 1 -.284-.687 1.535 1.535 0 0 1 .331-1.146 1.956 1.956 0 0 1 1.524-.659zm3.219 4.082a.712.712 0 0 0 .147-.489 1.627 1.627 0 0 0 -.434-.9 5.218 5.218 0 0 0 -2.78-1.687 1.419 1.419 0 0 0 -.152-.008.983.983 0 0 0 -.756.293.533.533 0 0 0 -.107.388.312.312 0 0 0 .1.212l.013.01a.718.718 0 0 1 .342.72.708.708 0 0 1 -.272.41 3.533 3.533 0 0 0 -.843.984 1.045 1.045 0 0 0 -.163.443c0 .277.285.576.886.912a1.146 1.146 0 0 0 .331.145h.034a.819.819 0 0 0 .553-.425c.077-.119.147-.25.221-.389a3.643 3.643 0 0 1 .524-.8 1.126 1.126 0 0 1 .763-.4h.056a1.352 1.352 0 0 1 .559.146l.015.007z" fill="#053760"/><path d="m162.216 51.124c.487.309.678.983 1.2 1.223.458.211.994.012 1.5.053a1.561 1.561 0 0 1 .319 3.053 2.774 2.774 0 0 1 -2.036-.414.762.762 0 0 0 -.317-.116c-.234-.01-.412.193-.6.34a1.709 1.709 0 0 1 -1.9.067 2.43 2.43 0 0 1 -1.07-1.643 1.437 1.437 0 0 1 .213-1.194c.631-.747 1.507-2.117 2.685-1.369" fill="#7d9d60"/><path d="m161.534 50.407a1.759 1.759 0 0 1 .95.295 2.6 2.6 0 0 1 .685.713 1.44 1.44 0 0 0 .457.477.737.737 0 0 0 .312.053c.111 0 .234-.011.364-.023.148-.014.3-.028.463-.028.067 0 .129 0 .19.007a2.061 2.061 0 0 1 .42 4.031 2.2 2.2 0 0 1 -.626.089 3.929 3.929 0 0 1 -1.789-.541h-.006c-.026-.014-.061-.033-.087-.045a1.7 1.7 0 0 0 -.153.123c-.039.034-.078.067-.117.1a2.055 2.055 0 0 1 -1.282.431 2.336 2.336 0 0 1 -1.185-.325 2.907 2.907 0 0 1 -1.3-1.979 1.9 1.9 0 0 1 .323-1.61c.067-.08.14-.17.216-.265.506-.637 1.204-1.503 2.165-1.503zm2.4 2.538a1.711 1.711 0 0 1 -.729-.145 2.226 2.226 0 0 1 -.847-.8 1.812 1.812 0 0 0 -.414-.459.771.771 0 0 0 -.414-.139c-.483 0-.986.624-1.39 1.125-.08.1-.156.194-.232.283a.969.969 0 0 0 -.1.779 1.936 1.936 0 0 0 .836 1.307 1.321 1.321 0 0 0 .67.183 1.052 1.052 0 0 0 .657-.212c.029-.023.058-.049.088-.074a1.229 1.229 0 0 1 .8-.375h.038a1.194 1.194 0 0 1 .529.173 2.888 2.888 0 0 0 1.319.424 1.2 1.2 0 0 0 .342-.047 1.061 1.061 0 0 0 -.217-2.075 2.961 2.961 0 0 0 -.48.02c-.142.019-.29.033-.452.033z" fill="#053760"/><path d="m152.827 49.4a3.825 3.825 0 0 0 -2.618 1.2 1.534 1.534 0 0 0 1.345.633c.519.007 1.036-.114 1.553-.08a9.207 9.207 0 0 1 2.529.878 1.822 1.822 0 0 0 1.02.141.774.774 0 0 0 .635-.723c-.029-.591-3.784-1.987-4.464-2.052" fill="#7d9d60"/><path d="m152.64 48.9c.078 0 .157 0 .235.011a13.809 13.809 0 0 1 2.622.865c2.084.874 2.277 1.315 2.294 1.66a1.264 1.264 0 0 1 -1.024 1.235 1.675 1.675 0 0 1 -.365.04 2.706 2.706 0 0 1 -.94-.2c-.267-.1-.526-.217-.777-.33a4.827 4.827 0 0 0 -1.609-.518c-.051 0-.1 0-.159 0-.195 0-.4.02-.609.041a6.762 6.762 0 0 1 -.759.045 1.98 1.98 0 0 1 -1.772-.884.5.5 0 0 1 .115-.634 4.5 4.5 0 0 1 2.748-1.331zm4.123 2.657a8.467 8.467 0 0 0 -1.863-.945 12.659 12.659 0 0 0 -2.121-.706c-.046 0-.093-.007-.14-.007a2.922 2.922 0 0 0 -1.659.735 1.608 1.608 0 0 0 .58.11 5.9 5.9 0 0 0 .648-.041c.228-.022.463-.045.706-.046.077 0 .153 0 .225.007a5.642 5.642 0 0 1 1.955.6c.247.111.48.216.717.3a1.792 1.792 0 0 0 .589.136.662.662 0 0 0 .146-.015.38.38 0 0 0 .217-.132z" fill="#053760"/><g clip-path="url(#e)" opacity=".3"><path d="m155.185 87.73 7.207-3.917a1.371 1.371 0 0 0 -.058-2.437l-9.125-4.508a1.411 1.411 0 0 0 -1.3.028l-6.856 3.716a1.371 1.371 0 0 0 .016 2.416l8.774 4.709a1.413 1.413 0 0 0 1.346-.007" fill="#180d0d"/></g><path d="m155 80.371-.267 4.464a.464.464 0 0 1 -.454.342c-.558.052-.514-.315-.514-.315l.247-3.976z" fill="#ad7c3a"/><path d="m155 79.871a.5.5 0 0 1 .5.53l-.267 4.464a.5.5 0 0 1 -.007.057.97.97 0 0 1 -.9.753c-.051 0-.1.007-.149.007a.913.913 0 0 1 -.717-.286.784.784 0 0 1 -.192-.573l.246-3.968a.5.5 0 0 1 .268-.412l.988-.515a.5.5 0 0 1 .23-.057z" fill="#09335a"/><path d="m146.066 73.426a1.132 1.132 0 0 0 -.655.883 25.818 25.818 0 0 0 .093 2.932c.028.483.043.792.325.967.229.142.59.36.814.475.419.215.956-.084 1.318-.316.573-.368 3.09-1.95 3.375-2.121s.737-.345.855-.883c.109-.5.5-2.433.565-2.831.06-.375.222-.974-.041-1.234a1.24 1.24 0 0 0 -1.184-.39c-.484.114-5.465 2.518-5.465 2.518" fill="#5aa681"/><path d="m151.8 70.376a1.8 1.8 0 0 1 1.269.567 1.657 1.657 0 0 1 .211 1.5c-.011.058-.021.112-.029.163-.068.42-.466 2.381-.57 2.858a1.708 1.708 0 0 1 -.972 1.141c-.04.022-.079.044-.114.065-.276.166-2.79 1.746-3.362 2.113a2.468 2.468 0 0 1 -1.267.469 1.191 1.191 0 0 1 -.549-.129c-.268-.138-.683-.392-.849-.495-.5-.31-.529-.814-.56-1.348v-.01c0-.063-.01-.154-.017-.264a18.109 18.109 0 0 1 -.07-2.779 1.647 1.647 0 0 1 .948-1.26c1.2-.579 5.054-2.429 5.55-2.546a1.667 1.667 0 0 1 .381-.045zm.551 1.264a.8.8 0 0 0 -.551-.264.666.666 0 0 0 -.152.018c-.328.089-3.009 1.346-5.362 2.482a.226.226 0 0 1 -.04.017.645.645 0 0 0 -.339.5 23.7 23.7 0 0 0 .082 2.549c.007.112.013.2.017.27v.016c.015.255.03.52.089.556.121.075.537.331.779.455a.192.192 0 0 0 .093.019 1.769 1.769 0 0 0 .727-.311c.6-.383 3.1-1.955 3.388-2.129.045-.027.093-.054.143-.082.265-.147.43-.249.481-.48.112-.517.5-2.427.56-2.8.009-.057.021-.119.033-.185a2.075 2.075 0 0 0 .05-.631z" fill="#09335a"/><path d="m147.019 78.225a.5.5 0 0 1 -.5-.5v-2.742a1.605 1.605 0 0 1 .757-1.237c.551-.345 3.833-1.807 4.2-1.972a.5.5 0 0 1 .406.914c-1.437.639-3.709 1.673-4.082 1.907a.687.687 0 0 0 -.286.388v2.742a.5.5 0 0 1 -.495.5z" fill="#09335a"/><path d="m159.894 77.115a.758.758 0 0 0 -.1-.37l.383.319a4.063 4.063 0 0 0 -.83-.734l-4.958-2.763a3.613 3.613 0 0 0 -3.253.135l-3.286 1.9a1.437 1.437 0 0 0 -.782.937v.015.067c-.015.865-.253 1.7.555 2.166l5.342 3.084a2.975 2.975 0 0 0 2.87-.455l3.286-1.9c.881-.509 1.131-1.1.785-2.4" fill="#5aa681"/><path d="m152.972 72.742a3.338 3.338 0 0 1 1.659.39l4.955 2.761h.007a4.593 4.593 0 0 1 .977.861.5.5 0 0 1 -.086.7 2.109 2.109 0 0 1 -1.123 2.492l-3.286 1.9a4.627 4.627 0 0 1 -2.257.742 2.194 2.194 0 0 1 -1.118-.288l-5.342-3.084a2.008 2.008 0 0 1 -.826-2.168c.009-.145.019-.3.021-.44q0-.009 0-.019c0-.017 0-.041 0-.068a.5.5 0 0 1 .025-.145 1.968 1.968 0 0 1 1.01-1.212l3.286-1.9a4.3 4.3 0 0 1 2.098-.522zm6.123 4.023-4.954-2.765h-.007a2.382 2.382 0 0 0 -1.162-.258 3.273 3.273 0 0 0 -1.591.393l-3.286 1.9a1.013 1.013 0 0 0 -.538.584v.023c0 .163-.013.321-.023.474-.048.749-.033 1.03.328 1.238l5.342 3.084a1.192 1.192 0 0 0 .613.153 3.756 3.756 0 0 0 1.757-.608l3.286-1.9c.636-.368.854-.7.552-1.839a.5.5 0 0 1 -.016-.109.258.258 0 0 0 -.033-.132.5.5 0 0 1 -.032-.062 2.261 2.261 0 0 0 -.236-.176z" fill="#09335a"/><path d="m154.37 81.385a3.378 3.378 0 0 1 -1.666-.392l-4.926-2.843a.5.5 0 0 1 .5-.866l4.926 2.843a3.116 3.116 0 0 0 2.753-.135l3.286-1.9a.5.5 0 1 1 .5.866l-3.286 1.9a4.269 4.269 0 0 1 -2.087.527z" fill="#09335a"/><path d="m160.6 68.8a47.944 47.944 0 0 0 -5.964-3.145 1.989 1.989 0 0 0 -1.757 1.021 54.609 54.609 0 0 0 -1.144 5.76l6.45 3.5c-.083.536-.138.9-.138.9l1.867.48s.921-5.328 1.061-6.081c.406-2.195-.375-2.431-.375-2.431" fill="#5aa681"/><path d="m154.628 65.154h.007c.161 0 .433 0 3.182 1.48 1.2.647 2.62 1.446 3.028 1.728.315.154 1.028.753.619 2.96-.138.742-1.051 6.022-1.06 6.075a.5.5 0 0 1 -.617.4l-1.867-.48a.5.5 0 0 1 -.37-.56s.032-.211.084-.55l-6.141-3.331a.5.5 0 0 1 -.255-.517c0-.013.208-1.318.451-2.676.505-2.822.672-3.114.753-3.254a2.493 2.493 0 0 1 2.186-1.275zm5.766 4.1a.5.5 0 0 1 -.1-.056 54.648 54.648 0 0 0 -5.7-3.045 1.494 1.494 0 0 0 -1.286.769 46.169 46.169 0 0 0 -1.029 5.241l6.139 3.33a.5.5 0 0 1 .256.516l-.069.449.9.232c.238-1.375.856-4.939.97-5.553.275-1.456-.036-1.837-.081-1.881z" fill="#09335a"/><path d="m159.192 78.474.98 3.5a.465.465 0 0 1 -.327.465c-.515.222-.585-.14-.585-.14l-.849-3.035z" fill="#ad7c3a"/><path d="m159.192 77.974a.5.5 0 0 1 .481.365l.98 3.5a.5.5 0 0 1 .014.067.971.971 0 0 1 -.626.992 1.233 1.233 0 0 1 -.491.112.775.775 0 0 1 -.776-.591l-.845-3.022a.5.5 0 0 1 .125-.485l.781-.8a.5.5 0 0 1 .357-.138z" fill="#09335a"/><path d="m159.084 74.367a.5.5 0 0 1 -.494-.581c.019-.114.464-2.813.672-3.6.274-1.037.835-1.163 1-1.177a.5.5 0 0 1 .176.98.956.956 0 0 0 -.21.452c-.2.744-.648 3.483-.652 3.511a.5.5 0 0 1 -.492.415z" fill="#09335a"/><path d="m147.6 80.879-.274 1.318a20.724 20.724 0 0 1 -1.682 1.373c-.637.642-.015 1.273 1.157.878.907-.305 2.119-.895 2.3-1.372a10.9 10.9 0 0 0 .073-1.922z" fill="#7a6953"/><path d="m147.6 80.379a.5.5 0 0 1 .087.008l1.574.275a.5.5 0 0 1 .414.477 8.669 8.669 0 0 1 -.1 2.114c-.328.865-2.23 1.542-2.609 1.67a2.625 2.625 0 0 1 -.833.149 1.186 1.186 0 0 1 -1.168-.646 1.1 1.1 0 0 1 .33-1.207 5.693 5.693 0 0 1 .733-.579 5.924 5.924 0 0 0 .842-.675l.247-1.187a.5.5 0 0 1 .483-.399zm1.084 1.2-.692-.121-.175.844a.5.5 0 0 1 -.106.219 5.841 5.841 0 0 1 -1.108.936 5.118 5.118 0 0 0 -.6.467.577.577 0 0 0 -.092.116.621.621 0 0 0 .22.033 1.661 1.661 0 0 0 .514-.1 4.83 4.83 0 0 0 1.985-1.073 8.5 8.5 0 0 0 .051-1.324z" fill="#09335a"/><path d="m150.124 81.768-.274 1.318c-.461.55-1.393.9-1.682 1.373-.424.695.144 1.318 1.315.923.908-.306 2.122-.866 2.3-1.344a9.495 9.495 0 0 0 -.088-2z" fill="#7a6953"/><path d="m150.123 81.268a.5.5 0 0 1 .087.008l1.574.275a.5.5 0 0 1 .41.429 7.1 7.1 0 0 1 .06 2.235c-.3.787-1.925 1.41-2.611 1.641a2.614 2.614 0 0 1 -.829.149 1.26 1.26 0 0 1 -1.153-.586 1.188 1.188 0 0 1 .081-1.221 2.988 2.988 0 0 1 .965-.84 4.536 4.536 0 0 0 .683-.509l.246-1.184a.5.5 0 0 1 .487-.397zm1.121 1.2-.73-.127-.175.844a.5.5 0 0 1 -.106.219 4.416 4.416 0 0 1 -.978.787 2.613 2.613 0 0 0 -.66.524c-.072.117-.073.193-.063.211s.1.075.281.075a1.65 1.65 0 0 0 .51-.1 5.023 5.023 0 0 0 1.991-1.041 8.275 8.275 0 0 0 -.069-1.389z" fill="#09335a"/><path d="m152.961 75.051s-2.016.794-2.349 1.45c-.209.411-.96 6.291-.96 6.291a2.632 2.632 0 0 0 2.624.268s.463-3.172.665-4.553c.048-.333 1.143-.766 1.765-1.044a9.332 9.332 0 0 0 2.839-1.766c.594-.69.129-2.478.129-2.478l-5.367-.006c-.007.006-3.665 1.707-4.1 2.379-.689 1.078-.731 6.2-.731 6.2a2.088 2.088 0 0 0 2.222.6l.147-1.111" fill="#13507c"/><path d="m151.182 83.794a3.1 3.1 0 0 1 -1.819-.594.5.5 0 0 1 -.163-.193 2.635 2.635 0 0 1 -2.106-.893.5.5 0 0 1 -.114-.322c.007-.88.08-5.328.81-6.469.151-.236.535-.619 2.187-1.5.417-.223 1.114-.584 2.062-1.034l.044-.021a.485.485 0 0 1 .225-.053l5.367.006a.5.5 0 0 1 .483.374c.089.341.494 2.084-.234 2.93a10.239 10.239 0 0 1 -3.013 1.9l-.259.114a7.03 7.03 0 0 0 -1.228.628c-.208 1.422-.653 4.471-.653 4.471a.5.5 0 0 1 -.265.372 3.091 3.091 0 0 1 -1.324.284zm-.993-1.256a2.124 2.124 0 0 0 1.634.162c.119-.812.458-3.137.623-4.266.076-.527.733-.85 1.805-1.318l.251-.11a9.012 9.012 0 0 0 2.664-1.636 2.552 2.552 0 0 0 .1-1.652l-4.849-.005a16.6 16.6 0 0 0 -3.787 2.149c-.429.672-.622 3.783-.649 5.731a1.575 1.575 0 0 0 1.268.4c.028-.211.061-.458.1-.729l.006-.045v-.01c.061-.451.13-.963.2-1.479a16.122 16.122 0 0 1 .608-3.457c.389-.765 2.1-1.486 2.611-1.689a.5.5 0 1 1 .366.93 6.168 6.168 0 0 0 -2.08 1.2c-.116.344-.441 2.564-.717 4.617v.018l-.147 1.111v.006z" fill="#073358"/><path d="m152.21 68.022c-.164 2.859-.478 5.191-.478 5.191.295.809 3.381 2.507 5.912 1.159l-.167-6.018" fill="#dad28c"/><path d="m155.544 75.372a6.2 6.2 0 0 1 -2.211-.422 3.714 3.714 0 0 1 -2.072-1.566.5.5 0 0 1 -.026-.238c0-.023.313-2.348.474-5.153a.5.5 0 1 1 1 .057c-.139 2.417-.387 4.484-.461 5.066a3.7 3.7 0 0 0 1.486.916 4.627 4.627 0 0 0 3.4.03l-.158-5.695a.5.5 0 1 1 1-.028l.167 6.018a.5.5 0 0 1 -.265.455 4.951 4.951 0 0 1 -2.334.56z" fill="#09335a"/><path d="m151.478 71.479c-.913-.092-1.808-.735-.878-3.248a5.283 5.283 0 0 1 1.94-2.84 4.5 4.5 0 0 1 4.484.279 5.569 5.569 0 0 1 -.513 8.7l-1.846-.783a13.619 13.619 0 0 0 1.846-2.728 7.811 7.811 0 0 0 0-2.231" fill="#dad28c"/><path d="m156.511 74.872a.5.5 0 0 1 -.2-.04l-1.846-.783a.5.5 0 0 1 -.223-.735c.25-.381.527-.726.8-1.06a5.259 5.259 0 0 0 .99-1.54 6.938 6.938 0 0 0 -.018-2.02.5.5 0 1 1 .992-.128 7.873 7.873 0 0 1 -.018 2.442 5.917 5.917 0 0 1 -1.167 1.873c-.129.161-.261.325-.388.491l.99.42a5.438 5.438 0 0 0 1.85-2.958 5.845 5.845 0 0 0 -1.56-4.772 4 4 0 0 0 -3.916-.243 4.808 4.808 0 0 0 -1.715 2.54c0 .015-.009.03-.014.045-.523 1.414-.364 2.006-.222 2.233.045.073.183.294.681.344a.5.5 0 0 1 -.1.995 1.815 1.815 0 0 1 -1.43-.81c-.428-.686-.387-1.7.125-3.089a5.71 5.71 0 0 1 2.158-3.115 4.975 4.975 0 0 1 5.052.315 6.07 6.07 0 0 1 -.519 9.491.5.5 0 0 1 -.302.104z" fill="#09335a"/><path d="m155.926 74.086-.911-.374a5.3 5.3 0 0 0 -1.326.889c-.429.461-.329.93-.007.981.6.093-.018.694.972.535 1.149-.184 1.272-2.031 1.272-2.031" fill="#eecab6"/><path d="m155.015 73.212a.5.5 0 0 1 .19.037l.911.374a.5.5 0 0 1 .309.5c-.056.834-.474 2.3-1.692 2.491a2.3 2.3 0 0 1 -.363.033.774.774 0 0 1 -.836-.582.815.815 0 0 1 -.58-.536 1.278 1.278 0 0 1 .369-1.266 5.618 5.618 0 0 1 1.479-1 .5.5 0 0 1 .213-.051zm.362 1.189-.341-.14a4.2 4.2 0 0 0 -.982.681.694.694 0 0 0 -.128.185.777.777 0 0 1 .527.513c.033 0 .073-.008.122-.016.472-.076.707-.747.802-1.224z" fill="#06355c"/><path d="m152.2 60.4s-.636 3.428.537 4.071a3.838 3.838 0 0 0 1.192.471l.017.663a1 1 0 0 0 .731.439 1.746 1.746 0 0 0 1.393-.541l-.106-1.8s.963 0 .829-1.5a4.675 4.675 0 0 0 -1.058-3.014 2.362 2.362 0 0 0 -3.535 1.211" fill="#eecab6"/><path d="m154.454 58.3a2.364 2.364 0 0 1 1.636.535 5.042 5.042 0 0 1 1.2 3.318 2.042 2.042 0 0 1 -.412 1.617 1.315 1.315 0 0 1 -.392.295l.083 1.4a.5.5 0 0 1 -.128.364 2.275 2.275 0 0 1 -1.583.718 1.889 1.889 0 0 1 -.247-.016 1.5 1.5 0 0 1 -1.1-.689.5.5 0 0 1 -.064-.233l-.007-.288a5.712 5.712 0 0 1 -.942-.42c-.671-.368-.987-1.258-.968-2.722a12.41 12.41 0 0 1 .18-1.879q0-.021.01-.041a2.706 2.706 0 0 1 2.734-1.959zm1.5 4.9a.32.32 0 0 0 .195-.113 1.208 1.208 0 0 0 .145-.842 4.187 4.187 0 0 0 -.919-2.71 1.545 1.545 0 0 0 -.918-.231 1.724 1.724 0 0 0 -1.77 1.208c-.234 1.288-.264 3.216.29 3.52a3.658 3.658 0 0 0 1.019.414.488.488 0 0 1 .433.483l.013.491a.573.573 0 0 0 .3.128.88.88 0 0 0 .115.008 1.2 1.2 0 0 0 .7-.265l-.092-1.56a.488.488 0 0 1 .13-.386.462.462 0 0 1 .358-.145z" fill="#06355c"/><path d="m154.149 62.062a.281.281 0 1 0 .318-.245.284.284 0 0 0 -.318.245" fill="#0a2e51"/><path d="m152.72 62.062a.281.281 0 1 0 .318-.245.284.284 0 0 0 -.318.245" fill="#0a2e51"/><path d="m157.174 59.809a2.614 2.614 0 0 0 -2.134-1.592 2.793 2.793 0 0 0 -3.107 1.879c-.268.812.984 1.328 2.022.694.87-.53 1.471-.3 1.777.082s.1 1.331.1 1.331.245-.381.444-.391c.508-.026.889.289.659 1.049a3.029 3.029 0 0 0 .235-3.052" fill="#0a2e51"/><path d="m154.65 57.691a3.3 3.3 0 0 1 .46.031 3.092 3.092 0 0 1 2.522 1.887 3.518 3.518 0 0 1 -.263 3.507.5.5 0 0 1 -.909-.4c.072-.237.044-.35.028-.371a.175.175 0 0 0 -.1-.032 1.152 1.152 0 0 0 -.13.162.5.5 0 0 1 -.909-.377 1.74 1.74 0 0 0 -.007-.915.528.528 0 0 0 -.434-.2 1.4 1.4 0 0 0 -.691.239 2.385 2.385 0 0 1 -1.241.357 1.662 1.662 0 0 1 -1.365-.608 1.113 1.113 0 0 1 -.151-1.026 3.251 3.251 0 0 1 3.19-2.254zm2.306 3.767a2.607 2.607 0 0 0 -.24-1.449 2.11 2.11 0 0 0 -1.746-1.3 2.328 2.328 0 0 0 -.319-.021 2.246 2.246 0 0 0 -2.243 1.562.12.12 0 0 0 .012.126.717.717 0 0 0 .555.194 1.38 1.38 0 0 0 .72-.21 2.347 2.347 0 0 1 1.212-.385 1.524 1.524 0 0 1 1.217.582 1.429 1.429 0 0 1 .269.751 1.262 1.262 0 0 1 .563.15z" fill="#0a2e51"/><path d="m152.028 68.969.794.36s1.854-1.062 1.444-1.523c-.531-.6.038-1.318-.792-1.307-1.213.017-1.446 2.47-1.446 2.47" fill="#eecab6"/><path d="m152.822 69.829a.5.5 0 0 1 -.206-.045l-.794-.36a.5.5 0 0 1 -.291-.5c.028-.3.322-2.9 1.937-2.923h.026a.92.92 0 0 1 1 .99.75.75 0 0 0 .149.484.728.728 0 0 1 .175.613c-.059.361-.361.724-.979 1.177a9.126 9.126 0 0 1 -.765.5.5.5 0 0 1 -.252.064zm-.247-1.161.215.1a4.748 4.748 0 0 0 .987-.774 1.774 1.774 0 0 1 -.283-.916c0-.024 0-.051-.007-.076h-.007c-.456.003-.78.952-.905 1.666z" fill="#06355c"/><path d="m151.253 69.5.572-1.144 1.777.838s-1.155 2.385-2.124 2.287" fill="#dad28c"/><path d="m151.54 71.982a1.116 1.116 0 0 1 -.112-.006.5.5 0 1 1 .1-.995c.109.011.45-.162.966-.9.164-.234.308-.471.419-.665l-.859-.405-.353.707a.5.5 0 1 1 -.894-.447l.572-1.144a.5.5 0 0 1 .66-.229l1.777.838a.5.5 0 0 1 .237.67 10.1 10.1 0 0 1 -.739 1.25c-.625.892-1.206 1.326-1.774 1.326z" fill="#09335a"/><path d="m153.822 77.469a1.134 1.134 0 0 0 -.656.883 25.815 25.815 0 0 0 .093 2.932c.028.483.043.792.325.967.229.142.59.36.814.475.419.215.956-.084 1.318-.316.573-.368 3.09-1.95 3.375-2.121s.737-.345.856-.883c.108-.5.476-2.992.54-3.39.061-.375.222-.974-.04-1.234a1.243 1.243 0 0 0 -1.185-.39c-.484.114-5.44 3.077-5.44 3.077" fill="#5aa681"/><path d="m159.529 73.86a1.8 1.8 0 0 1 1.27.566 1.664 1.664 0 0 1 .21 1.511c-.01.056-.02.109-.028.159-.016.1-.05.326-.1.62-.185 1.216-.372 2.434-.45 2.8a1.712 1.712 0 0 1 -.973 1.142c-.04.022-.079.044-.114.065-.277.166-2.79 1.746-3.362 2.113a2.468 2.468 0 0 1 -1.267.469 1.191 1.191 0 0 1 -.549-.129c-.268-.138-.683-.392-.849-.495-.5-.31-.529-.814-.56-1.348v-.015c0-.063-.01-.154-.017-.263a18.11 18.11 0 0 1 -.07-2.78 1.656 1.656 0 0 1 .925-1.249c1.528-.913 5.048-3 5.549-3.115a1.667 1.667 0 0 1 .385-.051zm.552 1.263a.806.806 0 0 0 -.552-.263.662.662 0 0 0 -.144.016c-.406.138-3.342 1.847-5.307 3.021a.317.317 0 0 1 -.079.038.647.647 0 0 0 -.341.5 23.728 23.728 0 0 0 .082 2.549c.007.112.013.2.017.27v.016c.015.255.03.52.089.556.121.075.537.331.779.455a.192.192 0 0 0 .093.019 1.769 1.769 0 0 0 .727-.311c.6-.383 3.1-1.955 3.388-2.129.045-.027.093-.054.143-.082.266-.148.431-.25.482-.481.077-.359.312-1.9.438-2.732.045-.3.08-.529.1-.629.009-.057.02-.117.032-.18a2.083 2.083 0 0 0 .053-.633z" fill="#09335a"/><path d="m154.774 82.267a.5.5 0 0 1 -.5-.5v-2.742a1.61 1.61 0 0 1 .756-1.236c.25-.156 4.035-2.243 4.466-2.48a.5.5 0 0 1 .483.876c-1.681.926-4.245 2.344-4.418 2.452a.691.691 0 0 0 -.286.388v2.742a.5.5 0 0 1 -.501.5z" fill="#09335a"/><g clip-path="url(#f)" opacity=".3"><path d="m129.109 92.549c0 2.936 4.713 5.315 10.526 5.315s10.527-2.379 10.527-5.315-4.713-5.313-10.527-5.313-10.526 2.379-10.526 5.313" fill="#180c0c"/></g><path d="m132.407 83.077v10.037c0 .14-.372.253-.83.253s-.831-.113-.831-.253v-10.181z" fill="#c19c70"/><path d="m130.746 82.433h.043l1.661.144a.5.5 0 0 1 .457.5v10.037c0 .472-.5.753-1.33.753s-1.331-.282-1.331-.753v-10.181a.5.5 0 0 1 .5-.5zm1.161 1.1-.661-.057v9.364a2.074 2.074 0 0 0 .661 0z" fill="#09335a"/><path d="m149.448 83.077v10.037c0 .14-.372.253-.83.253s-.831-.113-.831-.253v-10.181z" fill="#c19c70"/><path d="m147.787 82.433h.043l1.661.144a.5.5 0 0 1 .457.5v10.037c0 .472-.5.753-1.33.753s-1.331-.282-1.331-.753v-10.181a.5.5 0 0 1 .5-.5zm1.161 1.1-.661-.057v9.364a2.074 2.074 0 0 0 .661 0z" fill="#09335a"/><path d="m142.011 86.615v10.037c0 .14-.372.253-.83.253s-.831-.113-.831-.253v-10.181z" fill="#c19c70"/><path d="m140.35 85.971h.043l1.661.144a.5.5 0 0 1 .457.5v10.037c0 .472-.5.753-1.33.753s-1.331-.282-1.331-.753v-10.181a.5.5 0 0 1 .5-.5zm1.161 1.1-.661-.057v9.362a2.074 2.074 0 0 0 .661 0z" fill="#09335a"/><path d="m150.137 80.8h-19.776v1.551c0 1.461.965 2.922 2.9 4.037a15.456 15.456 0 0 0 13.983 0c1.931-1.115 2.894-2.576 2.894-4.037z" fill="#c19c70"/><path d="m130.361 80.3h19.776a.5.5 0 0 1 .5.5v1.551a.5.5 0 0 1 0 .059c-.025 1.689-1.139 3.254-3.144 4.411a15.949 15.949 0 0 1 -14.483 0c-2.029-1.171-3.146-2.759-3.146-4.47v-1.551a.5.5 0 0 1 .497-.5zm19.276 1h-18.776v1.051c0 1.339.94 2.619 2.646 3.6a14.963 14.963 0 0 0 13.483 0c1.7-.984 2.644-2.264 2.644-3.6a.5.5 0 0 1 0-.055z" fill="#09335a"/><path d="m147.24 85.018a15.458 15.458 0 0 1 -13.984 0c-3.861-2.23-3.861-5.844 0-8.074a15.458 15.458 0 0 1 13.984 0c3.861 2.23 3.861 5.845 0 8.074" fill="#c19c70"/><path d="m140.248 87.19a14.723 14.723 0 0 1 -7.242-1.739c-2.029-1.172-3.146-2.759-3.146-4.47s1.117-3.3 3.146-4.47a15.951 15.951 0 0 1 14.484 0c2.029 1.172 3.146 2.76 3.146 4.471s-1.117 3.3-3.146 4.469a14.719 14.719 0 0 1 -7.242 1.739zm0-11.418a13.716 13.716 0 0 0 -6.742 1.6c-1.706.985-2.646 2.265-2.646 3.6s.94 2.619 2.646 3.6a14.965 14.965 0 0 0 13.484 0c1.706-.985 2.646-2.265 2.646-3.6s-.94-2.619-2.646-3.6a13.715 13.715 0 0 0 -6.742-1.6z" fill="#09335a"/><path d="m144.325 82.157-6.575-3.681 4.545-2.812 6.077 3.509-.019.659z" fill="#dbdcdc"/><path d="m144.325 82.657a.5.5 0 0 1 -.244-.064l-6.575-3.681a.5.5 0 0 1 -.019-.861l4.545-2.812a.5.5 0 0 1 .513-.008l6.077 3.509a.5.5 0 0 1 .25.447l-.019.659a.5.5 0 0 1 -.25.419l-4.028 2.325a.5.5 0 0 1 -.25.067zm-5.59-4.2 5.586 3.127 3.54-2.043v-.082l-5.56-3.21z" fill="#09335a"/><path d="m144.325 82.157-6.611-3.839-2.37-5.673 6.611 3.838z" fill="#dbdcdc"/><path d="m144.325 82.657a.5.5 0 0 1 -.251-.068l-6.611-3.839a.5.5 0 0 1 -.21-.24l-2.37-5.673a.5.5 0 0 1 .712-.625l6.611 3.838a.5.5 0 0 1 .21.24l2.37 5.674a.5.5 0 0 1 -.461.693zm-6.214-4.687 5.18 3.008-1.732-4.147-5.18-3.007z" fill="#09335a"/><path d="m0 2.314 4.132-2.314" fill="#9c9c9c" transform="translate(144.105 79.138)"/><path d="m0 2.714a.4.4 0 0 1 -.349-.2.4.4 0 0 1 .149-.549l4.137-2.314a.4.4 0 0 1 .544.149.4.4 0 0 1 -.154.544l-4.127 2.319a.4.4 0 0 1 -.2.051z" fill="#09335a" transform="translate(144.105 79.138)"/><path d="m144.1 81.452-1.119-2.527-.758-1.733 4.513 2.744z" fill="#5c5c5e"/><path d="m144.1 81.852a.4.4 0 0 1 -.366-.238l-1.119-2.527-.759-1.735a.4.4 0 0 1 .574-.5l4.513 2.744a.4.4 0 0 1 -.008.689l-2.635 1.515a.4.4 0 0 1 -.2.052zm-1-3.661.251.573.938 2.119 1.664-.957z" fill="#09335a"/><path d="m140.074 72.63-3.823-11.335-.012.012a22.562 22.562 0 0 0 4.48-13.446c0-13.244-11.664-23.981-26.052-23.981s-26.05 10.737-26.05 23.981 11.664 23.982 26.05 23.982a27.2 27.2 0 0 0 17.515-6.266l-.106.113z" fill="#fff"/></g><g clip-path="url(#g)"><path d="m136.437 51.077c-.036 3.471-6.653 4.842-6.653 4.842l-.8-1.5s1.072-1.619 1.276-2.068.408-2.94.816-2.858.735.081.776.571.163 1.1.163 1.1 2.369-1.511 2.818-1.96.98-.49 1.021-.2.04.857.04.857z" fill="#eecab6"/><path d="m135.593 48.324a.722.722 0 0 1 .759.61 7.731 7.731 0 0 1 .044.82l.5 1.12a.5.5 0 0 1 .043.208c-.04 3.83-6.765 5.267-7.052 5.326a.5.5 0 0 1 -.543-.255l-.8-1.5a.5.5 0 0 1 .025-.511c.406-.613 1.1-1.7 1.238-2a8.156 8.156 0 0 0 .188-.915c.235-1.348.39-2.238 1.064-2.238a.6.6 0 0 1 .118.012l.12.022a1.069 1.069 0 0 1 1.055 1c.008.1.02.206.034.31a22.775 22.775 0 0 0 2.1-1.479 1.665 1.665 0 0 1 1.107-.53zm.341 2.851-.493-1.11a.5.5 0 0 1 -.043-.2c0-.088 0-.276-.01-.457a1.068 1.068 0 0 0 -.2.158 32.128 32.128 0 0 1 -2.9 2.028.5.5 0 0 1 -.759-.324c-.005-.026-.128-.647-.171-1.159a.437.437 0 0 0 -.006-.047.839.839 0 0 0 -.083-.021 13 13 0 0 0 -.287 1.364 5.78 5.78 0 0 1 -.262 1.157c-.171.375-.832 1.4-1.151 1.888l.477.9a16.558 16.558 0 0 0 2.856-1c1.343-.644 2.945-1.702 3.031-3.177z" fill="#06355c"/><path d="m121.587 57.779c.254 7.678.066 18.421.066 18.421-1.51 2.061-11.066 4.116-17.723.571l.445-17.354" fill="#fff"/><path d="m112.476 79.195a18.879 18.879 0 0 1 -8.781-1.982.5.5 0 0 1 -.265-.454l.445-17.354a.5.5 0 1 1 1 .026l-.437 17.041a19.41 19.41 0 0 0 10.236 1.619c3.317-.319 5.751-1.282 6.482-2.073.023-1.418.164-11.175-.069-18.222a.5.5 0 0 1 1-.033c.252 7.6.068 18.339.066 18.446a.5.5 0 0 1 -.1.287c-.89 1.215-3.819 2.256-7.287 2.59-.624.06-1.406.109-2.29.109z" fill="#09335a"/><path d="m121.776 59.81a5.071 5.071 0 0 0 2.55.9c1.853.033 7.038-4.392 7.038-4.392l-2.3-4.05s-4.438 2.835-5.365 3.278c0 0-3.1-7.66-7.447-10.043l-5.365-.467c-2.311 2.965-3.823.305-7.339 9.865-.209.567-5.041 10.4.478 11.786 3.827.962 10.468-4.423 10.468-4.423l-3.579-3.726-4.645 2.735" fill="#fff"/><path d="m105 67.3a4.508 4.508 0 0 1 -1.1-.128 3.64 3.64 0 0 1 -2.515-1.965c-.663-1.356-.664-3.322 0-5.845a30.016 30.016 0 0 1 1.583-4.383c.048-.109.1-.221.108-.25 2.46-6.689 4.009-7.574 5.506-8.43a5.613 5.613 0 0 0 1.907-1.57.5.5 0 0 1 .438-.191l5.365.467a.5.5 0 0 1 .2.06c1.882 1.032 3.748 3.083 5.543 6.1a35.547 35.547 0 0 1 1.908 3.684c1.13-.644 3.552-2.17 4.852-3a.5.5 0 0 1 .7.174l2.3 4.05a.5.5 0 0 1 -.11.627c-.013.011-1.329 1.132-2.856 2.234-2.147 1.549-3.624 2.294-4.515 2.278a5.555 5.555 0 0 1 -2.836-.993.5.5 0 0 1 .59-.807 4.589 4.589 0 0 0 2.263.8c1.151.021 4.395-2.343 6.389-4.006l-1.837-3.232c-1.157.735-4.2 2.654-4.974 3.025a.5.5 0 0 1 -.679-.264c-.03-.074-3.04-7.415-7.134-9.742l-4.993-.435a6.587 6.587 0 0 1 -2.027 1.61c-1.342.767-2.73 1.56-5.064 7.907-.02.055-.055.134-.132.308a29.064 29.064 0 0 0 -1.531 4.234c-.591 2.252-.614 4.034-.067 5.152a2.648 2.648 0 0 0 1.86 1.435c1.435.361 3.609-.259 6.287-1.793a32.352 32.352 0 0 0 3.313-2.2l-2.92-3.04-4.3 2.534a.5.5 0 1 1 -.507-.862l4.645-2.735a.5.5 0 0 1 .614.084l3.579 3.726a.5.5 0 0 1 -.046.735c-.255.203-5.782 4.647-9.807 4.647z" fill="#09335a"/><path d="m121.17 32.119s5.064 11.357-3.029 12.286z" fill="#0a2e51"/><path d="m121.17 31.619a.5.5 0 0 1 .456.3c.122.273 2.952 6.719.81 10.472a5.233 5.233 0 0 1 -4.236 2.509.5.5 0 0 1 -.542-.616l3.027-12.284a.5.5 0 0 1 .441-.378zm-2.362 12.17a3.951 3.951 0 0 0 2.76-1.9c1.324-2.32.393-6.042-.3-8.094z" fill="#0a2e51"/><path d="m116.958 56.457 1.889-4.865-1.435-1.483.963-2.2-2.267-2.848-5.224-.028-1.388 4.34 1.606 1.558-1.602 1.512 4.234 6.712" fill="#fff"/><path d="m113.731 59.655a.5.5 0 0 1 -.423-.233l-4.234-6.712a.5.5 0 0 1 .08-.631l1.225-1.153-1.23-1.194a.5.5 0 0 1 -.128-.511l1.388-4.34a.5.5 0 0 1 .479-.348l5.224.028a.5.5 0 0 1 .389.189l2.267 2.848a.5.5 0 0 1 .067.512l-.835 1.89 1.2 1.242a.5.5 0 0 1 .107.529l-1.889 4.865a.5.5 0 0 1 -.932-.362l1.773-4.566-1.212-1.253a.5.5 0 0 1 -.1-.548l.842-1.924-1.93-2.425-4.618-.025-1.182 3.7 1.383 1.342a.5.5 0 0 1 -.005.723l-1.306 1.23 4.014 6.364a.5.5 0 0 1 -.422.767z" fill="#09335a"/><path d="m120.668 32.665s.949 8.093-1.574 10.343a4.373 4.373 0 0 1 -3.069 1.364l.051 1.979-.576 11.538-4.221-11.416.296-2.473s-3.336-2.655-2.985-6.6c.324-3.64 1.041-6.13 2.782-7.925 1.464-1.508 7.883-1.944 9.3 3.186" fill="#eecab6"/><path d="m114.731 27.97a7.344 7.344 0 0 1 3.777.992 5.825 5.825 0 0 1 2.642 3.57.5.5 0 0 1 .015.075 32.547 32.547 0 0 1 .162 4.4c-.108 3.2-.748 5.344-1.9 6.371a5.5 5.5 0 0 1 -2.889 1.466l.038 1.491q0 .019 0 .038l-.576 11.541a.5.5 0 0 1 -.968.149l-4.221-11.416a.5.5 0 0 1 -.028-.232l.262-2.207a10.037 10.037 0 0 1 -1.509-1.743 7.8 7.8 0 0 1 -1.446-5.1c.363-4.08 1.209-6.464 2.921-8.229a5.49 5.49 0 0 1 3.72-1.166zm5.445 4.791a4.849 4.849 0 0 0 -2.185-2.944 6.375 6.375 0 0 0 -3.26-.848 4.572 4.572 0 0 0 -3 .857c-1.536 1.584-2.3 3.792-2.643 7.621-.323 3.633 2.767 6.138 2.8 6.162a.5.5 0 0 1 .185.45l-.279 2.352 3.332 9.012.451-9.079-.05-1.96a.5.5 0 0 1 .159-.385.488.488 0 0 1 .39-.126h.054a4.144 4.144 0 0 0 2.632-1.241c1.899-1.691 1.668-7.66 1.414-9.87z" fill="#06355c"/><path d="m107.164 32.43c1.533-2.964 4.531-5.385 6.687-4.294 1.776-1.3 5.136-.448 7.319 3.983.448.909.057 4.445.057 4.445a11.813 11.813 0 0 1 -3.312-3.9c-1.008-1.773-2.49-1.845-3.3-1.082-1.026-.463-1.91.861-2.518 2-2.364 4.422-1.612 8.174.568 10.823 0 0-5.069-.338-6.158-2.187s-.97-6.647.655-9.788" fill="#0a2e51"/><path d="m115.631 27.08a5.248 5.248 0 0 1 3.142 1.169 10.086 10.086 0 0 1 2.846 3.648c.488.99.173 4.106.105 4.721a.5.5 0 0 1 -.77.364 12.237 12.237 0 0 1 -3.474-4.071 2.155 2.155 0 0 0 -1.708-1.29 1.179 1.179 0 0 0 -.812.324.5.5 0 0 1 -.549.092.523.523 0 0 0 -.218-.051c-.308 0-.846.317-1.654 1.829a10.3 10.3 0 0 0 -1.363 5.8 8.093 8.093 0 0 0 1.876 4.474.5.5 0 0 1 -.419.817 19.985 19.985 0 0 1 -2.747-.411c-2-.45-3.284-1.13-3.808-2.021a8.945 8.945 0 0 1 -.759-4.69 14.044 14.044 0 0 1 1.4-5.581 11.285 11.285 0 0 1 2.631-3.357 5.375 5.375 0 0 1 3.359-1.473 3.027 3.027 0 0 1 1.093.2 3.527 3.527 0 0 1 1.829-.493zm5.184 8.5a10.181 10.181 0 0 0 -.093-3.243 9.107 9.107 0 0 0 -2.553-3.294 4.266 4.266 0 0 0 -2.537-.966 2.484 2.484 0 0 0 -1.484.459.5.5 0 0 1 -.522.043 2.007 2.007 0 0 0 -.915-.213 4.482 4.482 0 0 0 -2.711 1.239 10.262 10.262 0 0 0 -2.39 3.054c-1.548 2.992-1.661 7.617-.668 9.3.368.625 1.492 1.176 3.166 1.553.538.121 1.057.207 1.488.267a8.927 8.927 0 0 1 -1.413-4.081 11.28 11.28 0 0 1 1.477-6.357c.587-1.1 1.4-2.358 2.535-2.358a1.47 1.47 0 0 1 .319.035 2.171 2.171 0 0 1 1.259-.4 3.1 3.1 0 0 1 2.578 1.8 13.078 13.078 0 0 0 2.463 3.165z" fill="#0a2e51"/><path d="m121.227 54.289s.37 3.637.426 6.446" fill="#fff"/><path d="m121.653 61.235a.5.5 0 0 1 -.5-.49c-.055-2.756-.42-6.369-.424-6.405a.5.5 0 0 1 .995-.1c0 .037.373 3.69.428 6.487a.5.5 0 0 1 -.49.51z" fill="#09335a"/><path d="m116 47.944a18.436 18.436 0 0 1 -4.291-.326l3.8 10.272z" fill="#827e96"/><path d="m111.7 47.118a.5.5 0 0 1 .092.009 18.629 18.629 0 0 0 3.424.337c.252 0 .5-.006.75-.018a.5.5 0 0 1 .524.524l-.49 9.945a.5.5 0 0 1 -.968.149l-3.8-10.272a.5.5 0 0 1 .469-.673zm3.516 1.345a18.946 18.946 0 0 1 -2.748-.209l2.651 7.171.346-6.964z" fill="#06355c"/><path d="m111.695 59.393a1.051 1.051 0 0 0 .962-.715c.36-.765.99-2.161.99-2.161s1.533-1.731 2.206-1.3c.856.54-.135 1.89-.135 1.89a18.232 18.232 0 0 0 2.7-.225c.585-.18 1.486-.81 1.666-.585a.9.9 0 0 1 -.135 1.081c-.315.27-.135 1.44-.9 2.34s-3.421.991-4.006.9-1.389.8-1.389.8z" fill="#eecab6"/><path d="m113.654 61.915a.5.5 0 0 1 -.359-.152l-1.959-2.022a.508.508 0 0 1 -.1-.581.476.476 0 0 1 .495-.266c.056 0 .3-.041.477-.428.354-.753.98-2.14.987-2.154a.5.5 0 0 1 .081-.126c.32-.361 1.434-1.541 2.331-1.541a.95.95 0 0 1 .516.145 1.2 1.2 0 0 1 .557.809 1.872 1.872 0 0 1 -.116.973 10.55 10.55 0 0 0 1.711-.173 5.143 5.143 0 0 0 .654-.29 2.656 2.656 0 0 1 1.035-.365.643.643 0 0 1 .515.236 1.388 1.388 0 0 1 -.171 1.747 2.975 2.975 0 0 0 -.1.418 3.852 3.852 0 0 1 -.779 1.893c-.892 1.051-3.375 1.1-3.863 1.1a4.414 4.414 0 0 1 -.6-.033h-.01a2.072 2.072 0 0 0 -.932.642.5.5 0 0 1 -.362.165zm-1.08-2.333 1.093 1.128a2.194 2.194 0 0 1 1.29-.6 1.068 1.068 0 0 1 .162.012 3.2 3.2 0 0 0 .447.022c1.194 0 2.687-.264 3.1-.752a2.922 2.922 0 0 0 .558-1.428 1.568 1.568 0 0 1 .4-.968.269.269 0 0 0 .069-.144c-.11.05-.229.109-.325.157a5.758 5.758 0 0 1 -.8.349 16.818 16.818 0 0 1 -2.837.247.5.5 0 0 1 -.414-.8 1.758 1.758 0 0 0 .38-1.022.2.2 0 0 0 -.094-.14 3.792 3.792 0 0 0 -1.53 1.149c-.133.294-.65 1.436-.961 2.1a1.874 1.874 0 0 1 -.538.69z" fill="#06355c"/><path d="m117.779 40.673a3.012 3.012 0 0 1 -2.016.367s-.049 1.979.962 1.787c.962-.184 1.054-2.154 1.054-2.154" fill="#0b2c4d"/><path d="m114.022 35.384a.5.5 0 0 1 -.321-.885 1.85 1.85 0 0 1 2.194-.158.5.5 0 1 1 -.563.826.858.858 0 0 0 -.99.1.5.5 0 0 1 -.32.117z" fill="#06355c"/><path d="m2.181.709h-.048l-2.181-.209a.5.5 0 0 1 -.452-.548.5.5 0 0 1 .548-.452l2.18.209a.5.5 0 0 1 -.047 1z" fill="#06355c" transform="translate(110.487 37.138)"/><path d="m116.5 37.347a1.917 1.917 0 1 1 -1.917-1.917 1.917 1.917 0 0 1 1.917 1.917" fill="#fff"/><path d="m114.585 34.93a2.417 2.417 0 1 1 -2.418 2.417 2.42 2.42 0 0 1 2.418-2.417zm0 3.834a1.417 1.417 0 1 0 -1.418-1.417 1.419 1.419 0 0 0 1.418 1.417z" fill="#06355c"/><path d="m115.509 37.393a.5.5 0 1 1 -.563-.433.5.5 0 0 1 .563.433" fill="#0a2e51"/><path d="m120.783 37.347a1.917 1.917 0 1 1 -1.917-1.917 1.917 1.917 0 0 1 1.917 1.917" fill="#fff"/><path d="m118.866 34.93a2.417 2.417 0 1 1 -2.418 2.417 2.42 2.42 0 0 1 2.418-2.417zm0 3.834a1.417 1.417 0 1 0 -1.418-1.417 1.419 1.419 0 0 0 1.418 1.417z" fill="#06355c"/><path d="m119.526 37.393a.5.5 0 1 1 -.563-.433.5.5 0 0 1 .563.433" fill="#0a2e51"/><path d="m.456.5h-.456a.5.5 0 0 1 -.5-.5.5.5 0 0 1 .5-.5h.456a.5.5 0 0 1 .5.5.5.5 0 0 1 -.5.5z" fill="#06355c" transform="translate(116.497 37.462)"/></g><g clip-path="url(#a)"><path d="m140.074 73.13a.5.5 0 0 1 -.328-.122l-7.695-6.677a27.8 27.8 0 0 1 -17.384 6.012 28.324 28.324 0 0 1 -10.321-1.919 26.693 26.693 0 0 1 -8.438-5.238 24.4 24.4 0 0 1 -5.7-7.782 22.8 22.8 0 0 1 0-19.087 24.4 24.4 0 0 1 5.7-7.782 26.693 26.693 0 0 1 8.438-5.237 28.721 28.721 0 0 1 20.643 0 26.7 26.7 0 0 1 8.438 5.237 24.394 24.394 0 0 1 5.7 7.782 22.7 22.7 0 0 1 2.093 9.543 23.02 23.02 0 0 1 -4.413 13.516l3.741 11.093a.5.5 0 0 1 -.474.66zm-25.407-48.75a27.328 27.328 0 0 0 -9.958 1.851 25.7 25.7 0 0 0 -8.123 5.041 23.4 23.4 0 0 0 -5.467 7.464 21.8 21.8 0 0 0 0 18.252 23.4 23.4 0 0 0 5.467 7.464 25.7 25.7 0 0 0 8.123 5.041 27.328 27.328 0 0 0 9.958 1.851 26.758 26.758 0 0 0 17.194-6.149.5.5 0 0 1 .821.36l6.331 5.493-3.193-9.469a.5.5 0 0 1 .018-.568 22.05 22.05 0 0 0 4.383-13.149 21.708 21.708 0 0 0 -2-9.126 23.4 23.4 0 0 0 -5.467-7.464 25.7 25.7 0 0 0 -8.124-5.041 27.334 27.334 0 0 0 -9.963-1.851z" fill="#09335a"/></g><circle cx="8" cy="8" fill="#c0a56d" r="8" transform="translate(165.525 12.223)"/><g fill="#fff"><path d="m8 1a7 7 0 1 0 7 7 7.008 7.008 0 0 0 -7-7m0-1a8 8 0 1 1 -8 8 8 8 0 0 1 8-8z" transform="translate(165.525 12.223)"/><text font-family="HiraMaruProN-W4, Hiragino Maru Gothic ProN" font-size="10" transform="translate(173.525 24.223)"><tspan x="-2.895" y="0">?</tspan></text></g></g></g></svg>