<svg height="108" viewBox="0 0 108 108" width="108" xmlns="http://www.w3.org/2000/svg" xmlns:xlink="http://www.w3.org/1999/xlink"><clipPath id="a"><path d="m0 0h108v108h-108z"/></clipPath><clipPath id="b"><path d="m44.12 85.518h10.584v5.344h-10.584z"/></clipPath><clipPath id="c"><path d="m10.765 71.3h9.777v4.936h-9.777z"/></clipPath><clipPath id="d"><path d="m32.215 93.572h10.953v5.53h-10.953z"/></clipPath><clipPath id="e"><path d="m82.886 78.599h11.263v5.686h-11.263z"/></clipPath><clipPath id="f"><path d="m21.472 63.031h10.584v5.344h-10.584z"/></clipPath><clipPath id="g"><path d="m70.909 87.396h11.374v5.742h-11.374z"/></clipPath><clipPath id="h"><path d="m44.256 37.358 12.42 8.418 13.2-8.89-12.42-8.418z"/></clipPath><clipPath id="i"><path d="m44.256 34.817 12.42 8.417 13.2-8.89-12.42-8.417z"/></clipPath><clipPath id="j"><path d="m44.256 32.251 12.42 8.416 13.2-8.89-12.415-8.417z"/></clipPath><clipPath id="k"><path d="m44.256 29.694 12.42 8.417 13.2-8.891-12.415-8.42z"/></clipPath><clipPath id="l"><path d="m42.4 27.127 13.388 6.773 11.974-10.487-13.386-6.776z"/></clipPath><clipPath id="m"><path d="m0 0h108v108h-108z"/></clipPath><g clip-path="url(#m)"><path d="m0 0h108v108h-108z" fill="#fff"/><g clip-path="url(#a)"><g clip-path="url(#a)"><path d="m68.269 92.876c3.088 4.769 12.047 5.8 20.01 2.307s11.916-10.194 8.828-14.963-12.047-5.8-20.01-2.308-11.916 10.195-8.828 14.964" fill="#afcbd2"/><path d="m28.839 98.809c3.088 4.769 12.047 5.8 20.01 2.307s11.916-10.194 8.828-14.963-12.047-5.8-20.01-2.308-11.916 10.195-8.828 14.964" fill="#afcbd2"/><path d="m6.791 76.5c3.088 4.765 12.047 5.8 20.009 2.3s11.917-10.191 8.829-14.96-12.047-5.8-20.01-2.308-11.919 10.195-8.828 14.968" fill="#afcbd2"/><g clip-path="url(#b)" opacity=".3"><path d="m54.7 88.19c0 1.476-2.369 2.672-5.292 2.672s-5.292-1.2-5.292-2.672 2.369-2.672 5.292-2.672 5.292 1.2 5.292 2.672" fill="#190e0e"/></g><path d="m46.882 87.728c.88.41 3.288.153 3.143-.842-.017-.118-.044-1.42-.044-1.42l-1.661-.29-.07 1.133c-.53.352-1.847 1.2-1.368 1.419" fill="#082d4e"/><path d="m47.987 88.415a3.368 3.368 0 0 1 -1.316-.234.645.645 0 0 1 -.39-.543c-.036-.488.45-.916 1.486-1.608l.055-.885a.5.5 0 0 1 .585-.462l1.661.29a.5.5 0 0 1 .414.482c.012.59.03 1.257.04 1.366a1.052 1.052 0 0 1 -.26.853 3.2 3.2 0 0 1 -2.275.741zm-.409-1.023a3.556 3.556 0 0 0 .409.023 2.355 2.355 0 0 0 1.517-.394c.03-.035.028-.047.026-.063-.012-.083-.025-.442-.04-1.07l-.706-.123-.036.575a.5.5 0 0 1 -.222.386l-.082.055q-.564.373-.866.611z" fill="#082d4e"/><path d="m46.119 71.243-.944.655s-1.692-1.058-1.462-1.653c.132-.342-.733-.881.173-.989.537-.064 1.552.822 1.836 1.242z" fill="#f7d7c5"/><path d="m45.175 72.4a.5.5 0 0 1 -.265-.076 8.116 8.116 0 0 1 -.878-.648c-.248-.213-.978-.841-.818-1.5-.016-.032-.039-.073-.057-.1a.89.89 0 0 1 -.118-.866.974.974 0 0 1 .788-.441.987.987 0 0 1 .117-.007 3.692 3.692 0 0 1 2.193 1.465.5.5 0 0 1 .027.045l.4.745a.5.5 0 0 1 -.156.646l-.944.655a.5.5 0 0 1 -.289.082zm-.975-2.027a3.338 3.338 0 0 0 .972.921l.3-.208-.174-.327a3.81 3.81 0 0 0 -1.144-.945.808.808 0 0 1 .046.559z" fill="#063964"/><path d="m49.127 70.654s-.784.878-1.261.892a4.25 4.25 0 0 1 -1.9-.784l-.955 1.372s1.662 1.779 2.955 1.706a5.033 5.033 0 0 0 2.615-1.21z" fill="#228cbf"/><path d="m49.127 70.154h.024a.5.5 0 0 1 .379.2l1.454 1.976a.5.5 0 0 1 -.068.667 5.506 5.506 0 0 1 -2.922 1.338c-.035 0-.071 0-.107 0-1.456 0-3.063-1.676-3.242-1.867a.5.5 0 0 1 -.045-.627l.955-1.372a.5.5 0 0 1 .7-.121 3.7 3.7 0 0 0 1.578.691h.013a2.818 2.818 0 0 0 .907-.726.5.5 0 0 1 .374-.159zm.765 2.384-.823-1.118a2.134 2.134 0 0 1 -1.189.626h-.046a3.836 3.836 0 0 1 -1.733-.6l-.44.632a4.248 4.248 0 0 0 2.226 1.267h.05a4.094 4.094 0 0 0 1.955-.807z" fill="#053760"/><path d="m49.578 88.76c1.113.2 2.923-.062 3.189-.545s-.189-1.259-.189-1.259a6.8 6.8 0 0 1 -1.627.135c-.127.1-.5.009-.653.143-.68.6-1.514 1.383-.72 1.526" fill="#082d4e"/><path d="m50.431 89.328a5.372 5.372 0 0 1 -.941-.075.807.807 0 0 1 -.709-.561c-.163-.584.441-1.175 1.186-1.832a1.028 1.028 0 0 1 .671-.209l.088-.005a.5.5 0 0 1 .286-.049 1.919 1.919 0 0 0 .229.012 7.7 7.7 0 0 0 1.238-.141.5.5 0 0 1 .53.237 1.957 1.957 0 0 1 .2 1.753c-.47.842-2.543.87-2.778.87zm-.521-1.028a5.027 5.027 0 0 0 .52.026 3.932 3.932 0 0 0 1.905-.368.784.784 0 0 0 -.054-.445 7.351 7.351 0 0 1 -1.041.092c-.073 0-.142 0-.207-.006a1.4 1.4 0 0 1 -.349.048c-.033 0-.077 0-.109.007a7.6 7.6 0 0 0 -.665.646z" fill="#082d4e"/><path d="m52.8 75.154c.156 1.258-.09 11.707-.09 11.707-.727.446-2.8-.066-2.8-.066l.127-8.339-.127 8.339a5.136 5.136 0 0 1 -1.736-.179l-.063-11.272z" fill="#c8c9ca"/><path d="m52.8 74.654a.5.5 0 0 1 .5.438c.159 1.28-.076 11.352-.086 11.78a.5.5 0 0 1 -.238.414 2.288 2.288 0 0 1 -1.2.256 9.464 9.464 0 0 1 -1.9-.244c-.064 0-.16.008-.281.008a5.97 5.97 0 0 1 -1.548-.21.5.5 0 0 1 -.369-.48l-.063-11.272a.5.5 0 0 1 .48-.5l4.689-.19zm-.58 11.855c.064-2.811.18-8.946.114-10.836l-3.718.151.058 10.395a4.976 4.976 0 0 0 .746.086l.12-7.856a.5.5 0 0 1 1 .007s0 .005 0 .008l-.121 7.928a7.7 7.7 0 0 0 1.356.152 2.468 2.468 0 0 0 .445-.035z" fill="#073358"/><path d="m52.957 74.032a.7.7 0 0 0 .339-.078c.785-.434.758-2.3.641-2.8a6.629 6.629 0 0 0 -1.078-2.271 7.62 7.62 0 0 0 -2.559-1.309 7.387 7.387 0 0 0 -1.731.868c-.888.687-.743 1.9-.7 2.978.067 1.665.044 5.151.044 5.151.2.457 1.259.6 1.79-.245a3.238 3.238 0 0 0 1.124.7 2.413 2.413 0 0 0 2.4-.337z" fill="#228cbf"/><path d="m51.812 77.693a3.873 3.873 0 0 1 -1.13-.186 3.206 3.206 0 0 1 -.924-.486 1.716 1.716 0 0 1 -1.114.416 1.256 1.256 0 0 1 -1.186-.665.5.5 0 0 1 -.042-.2c0-.035.022-3.493-.044-5.128 0-.092-.008-.185-.013-.279-.049-1.037-.111-2.328.906-3.115a7.819 7.819 0 0 1 1.874-.945.5.5 0 0 1 .311 0 7.727 7.727 0 0 1 2.782 1.457 7.074 7.074 0 0 1 1.192 2.49c.125.536.223 2.736-.886 3.349l-.04.021.226 2.229a.5.5 0 0 1 -.2.45 2.763 2.763 0 0 1 -1.712.592zm-2.107-1.867a.5.5 0 0 1 .352.144 2.714 2.714 0 0 0 .919.581 2.883 2.883 0 0 0 .836.142 1.65 1.65 0 0 0 .887-.247l-.24-2.363a.5.5 0 0 1 .5-.55.212.212 0 0 0 .1-.016c.421-.233.527-1.685.4-2.245a6.151 6.151 0 0 0 -.964-2.052 6.408 6.408 0 0 0 -2.183-1.12 6.335 6.335 0 0 0 -1.435.735c-.605.468-.564 1.347-.519 2.277 0 .1.009.192.013.286.059 1.458.049 4.244.045 4.991a.531.531 0 0 0 .228.046.749.749 0 0 0 .638-.377.5.5 0 0 1 .423-.234z" fill="#053760"/><path d="m47.894 63.717s-.49 3.133.594 3.687a1.527 1.527 0 0 0 1.086.226l-.238.776 2.206-.062a7.486 7.486 0 0 1 -.365-1.717s.828-1.129.735-1.83c-.168-1.253-.216-1.669-.836-2.273a2.148 2.148 0 0 0 -3.182 1.193" fill="#f7d7c5"/><path d="m49.981 61.707a2.122 2.122 0 0 1 1.444.458 3.486 3.486 0 0 1 .976 2.512l.007.053a3.5 3.5 0 0 1 -.719 2.037 7.52 7.52 0 0 0 .326 1.413.5.5 0 0 1 -.459.663l-2.206.062a.5.5 0 0 1 -.492-.646l.05-.165a2.932 2.932 0 0 1 -.648-.246c-.636-.325-.955-1.139-.976-2.489a11.327 11.327 0 0 1 .116-1.719q0-.021.008-.042a2.359 2.359 0 0 1 1.063-1.485 2.916 2.916 0 0 1 1.51-.406zm.9 6.155a6.394 6.394 0 0 1 -.2-1.211.5.5 0 0 1 .1-.32 3.063 3.063 0 0 0 .643-1.469l-.007-.052c-.164-1.223-.21-1.468-.682-1.929a1.3 1.3 0 0 0 -.746-.175 1.559 1.559 0 0 0 -1.6 1.109c-.2 1.309-.114 2.915.331 3.143a1.308 1.308 0 0 0 .711.192.461.461 0 0 1 .5.092.506.506 0 0 1 .124.534l-.034.11z" fill="#063964"/><path d="m51.293 67.437-1.471.752.75 1.318 1.243-1.325z" fill="#f2f3f3"/><path d="m51.293 66.937a.5.5 0 0 1 .41.213l.522.745a.5.5 0 0 1 -.045.629l-1.243 1.325a.5.5 0 0 1 -.8-.095l-.75-1.318a.5.5 0 0 1 .207-.692l1.471-.752a.5.5 0 0 1 .228-.055zm-.12 1.2-.039-.056-.618.316.156.274z" fill="#082c4a"/><path d="m46.939 68.065 3.639.429.7 4.912-3.73-.347z" fill="#f2f3f3"/><path d="m46.939 67.565a.5.5 0 0 1 .059 0l3.638.435a.5.5 0 0 1 .436.426l.7 4.912a.5.5 0 0 1 -.541.569l-3.73-.347a.5.5 0 0 1 -.45-.437l-.611-4.994a.5.5 0 0 1 .5-.561zm3.2 1.381-2.625-.309.486 3.963 2.7.251z" fill="#082c4a"/><path d="m52.114 72.071-.985.671s-1.671-.428-1.591-1.061c.046-.364-.922-.679-.07-1 .506-.191 1.7.425 2.081.764z" fill="#f7d7c5"/><path d="m51.129 73.242a.5.5 0 0 1 -.129-.016 6.11 6.11 0 0 1 -.9-.326c-.708-.323-1.064-.719-1.061-1.177-.024-.027-.056-.061-.08-.087a.89.89 0 0 1 -.322-.812.973.973 0 0 1 .658-.617 1.145 1.145 0 0 1 .406-.068 4.21 4.21 0 0 1 2.187.928.5.5 0 0 1 .037.037l.565.628a.5.5 0 0 1 -.09.748l-.985.671a.5.5 0 0 1 -.286.091zm-1.09-1.542a2.662 2.662 0 0 0 1 .5l.318-.217-.157-.183a3.738 3.738 0 0 0 -1.336-.638.8.8 0 0 1 .175.538z" fill="#063964"/><path d="m52.715 72.118-1.166-.674-.9 1.435a5.369 5.369 0 0 0 2.3 1.153" fill="#228cbf"/><path d="m52.955 74.532a5.583 5.583 0 0 1 -2.617-1.265.5.5 0 0 1 -.109-.653l.9-1.435a.5.5 0 0 1 .674-.168l1.166.674a.5.5 0 0 1 -.5.866l-.748-.432-.4.637a3.9 3.9 0 0 0 1.635.776.5.5 0 1 1 0 1z" fill="#053760"/><path d="m51.945 62.343c.362.218.284 1.979.3 2.507a4.059 4.059 0 0 1 -.67 1.541l-.356-.135s.572-1.362.408-1.668a.706.706 0 0 0 -.548-.326l-.38-1s-1.113.187-1.515.23c0 0 .182-2.7 2.762-1.145" fill="#0a2d4e"/><path d="m.331.3h-.331a.3.3 0 0 1 -.3-.3.3.3 0 0 1 .3-.3h.332a.3.3 0 0 1 .3.3.3.3 0 0 1 -.301.3z" fill="#082c4a" transform="translate(48.296 65.056)"/><path d="m.507.306-.507-.006a.3.3 0 0 1 -.3-.3.3.3 0 0 1 .3-.3l.507.006a.3.3 0 0 1 0 .6z" fill="#082c4a" transform="translate(49.663 65.068)"/><path d="m49.183 63.488a10.343 10.343 0 0 0 -1.083-.228c-.082.023-.25.69-.25.69s-.334-1.564-.152-1.714a1.371 1.371 0 0 1 1.643-.46c1.046.363.805.618.805.618z" fill="#0a2d4e"/><g clip-path="url(#c)" opacity=".3"><path d="m20.542 73.768c0 1.363-2.189 2.468-4.889 2.468s-4.888-1.105-4.888-2.468 2.188-2.468 4.888-2.468 4.889 1.1 4.889 2.468" fill="#180c0c"/></g><path d="m14.109 72.843v-5.55l1.538-.071-.513 6.207z" fill="#eecfbd"/><path d="m15.134 73.929a.5.5 0 0 1 -.248-.066l-1.025-.586a.5.5 0 0 1 -.252-.434v-5.55a.5.5 0 0 1 .477-.5l1.538-.071a.5.5 0 0 1 .521.541l-.513 6.207a.5.5 0 0 1 -.5.459zm-.525-1.376.091.052.4-4.857-.493.023z" fill="#05365d"/><path d="m13.792 73.158s-.023.842.166.985a1.726 1.726 0 0 0 1.132.222c.472-.018 1.4-.319 1.394-.6-.013-.475-.579-1.362-1.168-1.027a1.319 1.319 0 0 1 -1.275-.155z" fill="#fff"/><path d="m14.041 72.088a.5.5 0 0 1 .288.091 1.091 1.091 0 0 0 .531.18.413.413 0 0 0 .209-.052 1.028 1.028 0 0 1 .513-.139c.788 0 1.384.948 1.4 1.587.021.845-1.579 1.1-1.875 1.108-.067 0-.134 0-.2 0a2.029 2.029 0 0 1 -1.257-.328c-.1-.073-.393-.3-.363-1.4a.5.5 0 0 1 .042-.187l.249-.57a.5.5 0 0 1 .458-.3zm1.909 1.539c-.08-.217-.281-.458-.368-.458a.069.069 0 0 0 -.019.008 1.406 1.406 0 0 1 -.7.182 1.807 1.807 0 0 1 -.568-.1 3.006 3.006 0 0 0 .041.52 1.482 1.482 0 0 0 .58.084h.158a2.618 2.618 0 0 0 .876-.236z" fill="#0a2d4e"/><path d="m15.646 67.222-.106 5.957s.957.379 1.45-.128l.125-6z" fill="#eecfbd"/><path d="m17.115 66.552a.5.5 0 0 1 .5.51l-.125 6a.5.5 0 0 1 -.141.338 1.467 1.467 0 0 1 -1.083.416 2.7 2.7 0 0 1 -.909-.171.5.5 0 0 1 -.316-.474l.106-5.957a.5.5 0 0 1 .442-.488l1.469-.17a.5.5 0 0 1 .057-.004zm-.62 6.231.108-5.169-.465.054-.091 5.132a1.4 1.4 0 0 0 .218.018.735.735 0 0 0 .235-.035z" fill="#05365d"/><path d="m18.054 56.248a4.417 4.417 0 0 0 -.638-1.389.522.522 0 0 0 -.829.432 6.225 6.225 0 0 0 .283 1.3z" fill="#eecfbd"/><path d="m16.87 57.089a.5.5 0 0 1 -.475-.343 6.485 6.485 0 0 1 -.308-1.436.988.988 0 0 1 .268-.732 1.047 1.047 0 0 1 .755-.312 1.025 1.025 0 0 1 .6.189 3.683 3.683 0 0 1 .823 1.651.5.5 0 0 1 -.341.623l-1.184.341a.5.5 0 0 1 -.138.019zm.217-1.82a3.764 3.764 0 0 0 .125.7l.2-.058a3.26 3.26 0 0 0 -.3-.646.109.109 0 0 0 -.025.004z" fill="#05365d"/><path d="m17.44 61.73 1.2 5.67s-4.391 1.441-5.988-.3l.94-6.188z" fill="#145382"/><path d="m13.592 60.412a.5.5 0 0 1 .1.011l3.848.818a.5.5 0 0 1 .385.386l1.2 5.67a.5.5 0 0 1 -.333.579 12.9 12.9 0 0 1 -3.535.585 3.88 3.88 0 0 1 -2.978-1.022.5.5 0 0 1 -.126-.413l.94-6.188a.5.5 0 0 1 .494-.425zm3.426 1.739-3.011-.64-.821 5.406a3.274 3.274 0 0 0 2.076.543 11.522 11.522 0 0 0 2.793-.411z" fill="#07355b"/><path d="m16.2 49.372c.638.268 1.228 1.832 1.061 3.041s-1.218.823-1.3 1.246a2.949 2.949 0 0 0 .21 1.192l-1.786.008-.164-1.951s-1.108-4.835 1.982-3.536" fill="#eecfbd"/><path d="m15.273 48.65a2.909 2.909 0 0 1 1.124.261 2.492 2.492 0 0 1 1.109 1.46 4.619 4.619 0 0 1 .253 2.111 1.546 1.546 0 0 1 -1.263 1.4l-.049.014a3.257 3.257 0 0 0 .191.779.5.5 0 0 1 -.465.679l-1.786.008a.5.5 0 0 1 -.5-.458l-.161-1.917c-.088-.4-.542-2.682.316-3.759a1.518 1.518 0 0 1 1.231-.578zm.233 5.7a2.094 2.094 0 0 1 -.036-.793.9.9 0 0 1 .751-.644c.314-.09.487-.139.547-.572a3.1 3.1 0 0 0 -.759-2.512 1.982 1.982 0 0 0 -.736-.183.524.524 0 0 0 -.449.2c-.446.559-.308 2.105-.115 2.949a.5.5 0 0 1 .011.069l.125 1.491z" fill="#05365d"/><path d="m17.88 58.176a20.7 20.7 0 0 0 -.767-2.725 2.513 2.513 0 0 0 -1.135-1.183 4.355 4.355 0 0 1 -1.82-.183c-1.067 1.228-.888 2.642-.773 4.292.082 1.193.006 3.1.006 3.1a5.031 5.031 0 0 0 4.049.248l-.313-2.315a1.007 1.007 0 0 0 1.277-.99 5.33 5.33 0 0 0 -.243-2.174l-.593-.009" fill="#d0514f"/><path d="m15.811 62.569a6.122 6.122 0 0 1 -2.658-.648.5.5 0 0 1 -.262-.46c0-.019.074-1.9-.005-3.05q-.011-.151-.022-.3c-.114-1.565-.221-3.044.916-4.353a.446.446 0 0 1 .612-.116 5.249 5.249 0 0 0 1.578.127.5.5 0 0 1 .183.032 2.966 2.966 0 0 1 1.4 1.411 3.5 3.5 0 0 1 .211.533l.406.006a.5.5 0 0 1 .459.319 5.823 5.823 0 0 1 .275 2.4 1.6 1.6 0 0 1 -.674 1.234 1.5 1.5 0 0 1 -.528.221l.235 1.741a.5.5 0 0 1 -.288.522 4.391 4.391 0 0 1 -1.838.381zm-1.909-1.4a4.555 4.555 0 0 0 2.99.24l-.26-1.925a.5.5 0 0 1 .646-.544.5.5 0 0 0 .394-.067.47.47 0 0 0 .163-.2.5.5 0 0 1 -.443-.389 18.894 18.894 0 0 0 -.718-2.594 2.332 2.332 0 0 0 -.81-.921 7.471 7.471 0 0 1 -1.522-.109c-.657.94-.578 2.028-.48 3.377q.011.151.022.3c.063.921.036 2.221.016 2.829z" fill="#05365d"/><path d="m16.487 51.393a.252.252 0 1 0 .252-.252.252.252 0 0 0 -.252.252" fill="#0c2e52"/><path d="m16.857 52.8a1.012 1.012 0 0 1 -.7-.25.3.3 0 1 1 .407-.441.549.549 0 0 0 .458.069.3.3 0 1 1 .174.574 1.219 1.219 0 0 1 -.339.048z" fill="#0a2d4e"/><path d="m14.681 48.767a2.464 2.464 0 0 1 2.189 1.015c-.437 1.122-1.131 1.267-1.131 1.267s.508 4.147-1.117 5.339l.068-1.24a5.113 5.113 0 0 1 -1.01 1.441l.171-1.488-.724 1.013-.186-4.109a2.367 2.367 0 0 1 1.74-3.238" fill="#0a2d4e"/><path d="m14.972 48.246a3.047 3.047 0 0 1 2.308 1.254.5.5 0 0 1 .056.467 2.71 2.71 0 0 1 -1.066 1.39 14.1 14.1 0 0 1 .019 1.95c-.111 1.728-.572 2.9-1.371 3.488a.5.5 0 0 1 -.666-.067 3.257 3.257 0 0 1 -.239.238.5.5 0 0 1 -.833-.351.5.5 0 0 1 -.553-.475l-.182-4.04a3.12 3.12 0 0 1 .28-2.578 2.621 2.621 0 0 1 1.886-1.245 2.559 2.559 0 0 1 .361-.031zm1.313 1.621a1.91 1.91 0 0 0 -1.313-.621 1.553 1.553 0 0 0 -.22.016 1.637 1.637 0 0 0 -1.176.779 2.134 2.134 0 0 0 -.161 1.8.5.5 0 0 1 .026.137l.123 2.71a.5.5 0 0 1 .722.162.5.5 0 0 1 .758-.06 10.493 10.493 0 0 0 .2-3.684.47.47 0 0 1 .386-.549 1.312 1.312 0 0 0 .655-.69z" fill="#0a2d4e"/><path d="m16.7 73.021a2.973 2.973 0 0 0 1.066-.012c.465-.119.842 0 .731.621-.079.443-.433.433-1.057.637a3.43 3.43 0 0 1 -1.773.268.516.516 0 0 1 -.28-.13 2.467 2.467 0 0 1 .076-1.444z" fill="#fff"/><path d="m15.467 72.461h.025l1.237.06a.5.5 0 0 1 .064.007 3.015 3.015 0 0 0 .461.037 1.627 1.627 0 0 0 .392-.041 1.7 1.7 0 0 1 .418-.057.925.925 0 0 1 .744.318 1.093 1.093 0 0 1 .186.932c-.118.66-.619.8-1.062.925-.1.029-.213.06-.332.1l-.064.021a4.7 4.7 0 0 1 -1.475.312 2.384 2.384 0 0 1 -.493-.051 1 1 0 0 1 -.539-.275c-.142-.152-.231-.382-.209-1.017a3.115 3.115 0 0 1 .143-.918.546.546 0 0 1 .504-.353zm2.533 1.106a.254.254 0 0 0 .006-.025c.005-.028.008-.052.01-.072a.845.845 0 0 0 -.125.023 2.587 2.587 0 0 1 -.641.072 4.013 4.013 0 0 1 -.6-.047l-.814-.04a4.311 4.311 0 0 0 -.017.575 1.385 1.385 0 0 0 .242.02 3.9 3.9 0 0 0 1.163-.262l.065-.021c.139-.045.263-.08.372-.111a2.117 2.117 0 0 0 .339-.112z" fill="#0a2d4e"/><g clip-path="url(#d)" opacity=".3"><path d="m32.215 96.337c0 1.527 2.452 2.765 5.476 2.765s5.477-1.238 5.477-2.765-2.452-2.765-5.477-2.765-5.476 1.238-5.476 2.765" fill="#190e0e"/></g><path d="m35.622 79.4a30.781 30.781 0 0 0 -.839 3.887 21.28 21.28 0 0 0 .751 3.313l1.413-.221z" fill="#7d9d60"/><path d="m35.622 78.9h.019a.5.5 0 0 1 .472.406l1.325 6.979a.5.5 0 0 1 -.414.587l-1.413.221a.5.5 0 0 1 -.556-.351 20.326 20.326 0 0 1 -.772-3.456 28.962 28.962 0 0 1 .856-4.018.5.5 0 0 1 .483-.368zm.738 7.065-.8-4.233a10.112 10.112 0 0 0 -.273 1.555 16.528 16.528 0 0 0 .608 2.751z" fill="#063964"/><path d="m34.859 94.217s-.584.829-.717 1.094.054.378.238.64.584.6.768.863 1.189.91 1.661.7-.48-.844-.48-1.474v-1.326s-.867-.759-1.47-.5" fill="#0e2f54"/><path d="m35.139 93.662a2.712 2.712 0 0 1 1.519.676.5.5 0 0 1 .171.376v1.326a1.428 1.428 0 0 0 .281.541 1.136 1.136 0 0 1 .306.945.693.693 0 0 1 -.4.445 1.031 1.031 0 0 1 -.422.084 2.907 2.907 0 0 1 -1.853-.956 3.766 3.766 0 0 0 -.329-.365 4.271 4.271 0 0 1 -.439-.5c-.029-.042-.062-.082-.1-.125a.878.878 0 0 1 -.179-1.024c.143-.285.655-1.016.756-1.159a.5.5 0 0 1 .21-.171 1.194 1.194 0 0 1 .479-.093zm.69 1.3a1.532 1.532 0 0 0 -.671-.3c-.186.268-.418.613-.526.8l.022.027c.039.048.087.108.136.178a3.686 3.686 0 0 0 .336.374 4.338 4.338 0 0 1 .431.488 2.169 2.169 0 0 0 .573.387 1.647 1.647 0 0 1 -.3-.872z" fill="#063964"/><path d="m39.48 96.521a1.517 1.517 0 0 1 .879-.458c.628-.012.911.222.839.751-.051.378-2.037 1.113-2.619 1.043a.516.516 0 0 1 -.273-.092c-.146-.122-.25-1.315-.122-1.317l1.3.073" fill="#0e2f54"/><path d="m40.4 95.563a1.32 1.32 0 0 1 1.057.388 1.124 1.124 0 0 1 .232.931c-.037.272-.225.61-1.343 1.056a5.451 5.451 0 0 1 -1.684.424 1.215 1.215 0 0 1 -.146-.008.994.994 0 0 1 -.531-.2c-.123-.1-.257-.266-.332-.934a2.407 2.407 0 0 1 .024-.9.539.539 0 0 1 .5-.371h.036l1.087.061a1.8 1.8 0 0 1 1.049-.447zm.3 1.045a.686.686 0 0 0 -.3-.045h-.036a1.031 1.031 0 0 0 -.525.3.5.5 0 0 1 -.391.156l-.815-.046c.011.135.029.279.05.387a5.54 5.54 0 0 0 2.022-.717.214.214 0 0 0 -.005-.036z" fill="#063964"/><path d="m40.145 85.014s-.193 5.25-.193 6.222.065 5.068.065 5.068a1.883 1.883 0 0 1 -2.054-.033s-.183-2.512-.265-4.019l-1.192 3.191a3.663 3.663 0 0 0 -2.065-1.027 45.736 45.736 0 0 0 1.534-4.416 40.5 40.5 0 0 0 -.265-4.417" fill="#175f95"/><path d="m38.924 97.111a1.984 1.984 0 0 1 -1.275-.451.5.5 0 0 1 -.185-.353c0-.014-.056-.763-.118-1.685l-.372 1a.5.5 0 0 1 -.851.147 3.2 3.2 0 0 0 -1.774-.857.5.5 0 0 1 -.374-.674 41.33 41.33 0 0 0 1.5-4.3 36.624 36.624 0 0 0 -.267-4.3.5.5 0 0 1 .995-.1 37.835 37.835 0 0 1 .263 4.538 34.121 34.121 0 0 1 -1.357 4 4.542 4.542 0 0 1 1.169.546l.947-2.536a.5.5 0 0 1 .968.148c.066 1.212.2 3.1.247 3.767a1.3 1.3 0 0 0 1.068 0c-.015-.987-.06-3.942-.06-4.758 0-.97.185-6.026.193-6.24a.5.5 0 0 1 1 .037c0 .052-.193 5.252-.193 6.2s.064 5.019.065 5.06a.5.5 0 0 1 -.235.432 2.81 2.81 0 0 1 -1.354.379z" fill="#063964"/><path d="m41.364 86.157s.133 1.193.4 1.369 1.59-.132 1.457-.662a5.094 5.094 0 0 0 -1.06-1.458z" fill="#f7d7c5"/><path d="m42.159 84.906a.5.5 0 0 1 .354.146 5.111 5.111 0 0 1 1.187 1.691.815.815 0 0 1 -.16.71 2.148 2.148 0 0 1 -1.53.623.931.931 0 0 1 -.53-.134c-.238-.158-.386-.467-.51-1.065-.07-.339-.105-.651-.107-.665a.5.5 0 0 1 .154-.419l.795-.751a.5.5 0 0 1 .347-.136zm.537 1.981a4.215 4.215 0 0 0 -.56-.772l-.243.229a4.436 4.436 0 0 0 .166.73 1.514 1.514 0 0 0 .641-.187z" fill="#063964"/><path d="m37.717 92.04c-.011-.205-.021-.388-.028-.538-.077-1.547-.212-3.612-.212-3.612" fill="#fff"/><path d="m37.717 92.54a.5.5 0 0 1 -.5-.473v-.08c-.009-.174-.018-.33-.024-.461-.076-1.524-.21-3.582-.211-3.6a.5.5 0 0 1 1-.065c0 .021.136 2.087.212 3.62.006.131.014.284.024.456v.08a.5.5 0 0 1 -.473.526z" fill="#0c2d4f"/><path d="m38.873 72.482c.619.26.884 1.734.883 2.919 0 .86-1.035.833-1.118 1.243a2.855 2.855 0 0 0 .2 1.157l-1.734.008-.16-1.894s-1.074-4.694 1.925-3.433" fill="#f7d7c5"/><path d="m37.97 71.767a2.837 2.837 0 0 1 1.1.254c1.134.476 1.19 2.9 1.189 3.38a1.463 1.463 0 0 1 -.967 1.324c-.051.026-.12.062-.167.091a2.819 2.819 0 0 0 .187.806.5.5 0 0 1 -.464.679l-1.734.008a.5.5 0 0 1 -.5-.458l-.157-1.86c-.086-.392-.526-2.611.311-3.661a1.488 1.488 0 0 1 1.202-.563zm.208 5.537a2.016 2.016 0 0 1 -.031-.759 1.1 1.1 0 0 1 .682-.708c.358-.185.426-.254.426-.436a3.739 3.739 0 0 0 -.577-2.458 1.909 1.909 0 0 0 -.709-.176.489.489 0 0 0 -.425.187c-.447.561-.267 2.162-.11 2.85a.5.5 0 0 1 .011.069l.121 1.434z" fill="#063964"/><path d="m40.172 83.948.839 2.12a1.436 1.436 0 0 0 1.5-.707l-1.148-2.826s-.906-3.622-1.325-3.976a8.633 8.633 0 0 1 -1.385-1.325 4.266 4.266 0 0 1 -1.767-.176c-1.5 1.437-1.42 2.078-1.3 3.776.079 1.158.055 4.537.055 4.537a3.112 3.112 0 0 0 .961.695 3.566 3.566 0 0 0 3.611 0z" fill="#7d9d60"/><path d="m38.318 87.051a4.1 4.1 0 0 1 -1.828-.486l-.1-.045a3.632 3.632 0 0 1 -1.13-.821.5.5 0 0 1 -.123-.332c0-.034.023-3.373-.054-4.5l-.008-.12c-.115-1.656-.173-2.487 1.465-4.052a.438.438 0 0 1 .578-.083 4.651 4.651 0 0 0 1.32.123h.207a.472.472 0 0 1 .42.217 9.46 9.46 0 0 0 1.295 1.226c.183.155.424.477.977 2.362.248.844.457 1.664.5 1.84l1.135 2.794a.5.5 0 0 1 -.033.442 2.012 2.012 0 0 1 -1.614 1 1.66 1.66 0 0 1 -.456-.065.5.5 0 0 1 -.263-.181.5.5 0 0 1 -.191.153 5.088 5.088 0 0 1 -2.097.528zm-2.177-1.886a2.667 2.667 0 0 0 .668.446l.1.046a3.187 3.187 0 0 0 1.409.394 3.759 3.759 0 0 0 1.387-.312l-.034-1.782a.5.5 0 0 1 .965-.193l.732 1.848a.916.916 0 0 0 .574-.327l-1.042-2.562a.5.5 0 0 1 -.022-.067 21.5 21.5 0 0 0 -1.18-3.73 13.193 13.193 0 0 1 -1.278-1.19 6.8 6.8 0 0 1 -1.4-.114c-1.088 1.094-1.053 1.593-.951 3.057l.008.121c.076 1.008.068 3.6.064 4.365z" fill="#063964"/><path d="m39.2 80.768.634 2.318.338.862" fill="#fff"/><g fill="#0c2d4f"><path d="m40.172 84.448a.5.5 0 0 1 -.466-.318l-.338-.862a.5.5 0 0 1 -.017-.051l-.633-2.317a.5.5 0 1 1 .965-.264l.627 2.292.328.837a.5.5 0 0 1 -.465.683z"/><path d="m39.52 72.594-.689 1.3c-.944-.1-.182 1.176-.182 1.176a7.5 7.5 0 0 0 -.895 1.176l-.679.1a18.1 18.1 0 0 1 -1.093-1.627 1.876 1.876 0 0 1 1.418-2.824 2.542 2.542 0 0 1 2.125.7"/><path d="m37.757 71.369a3.062 3.062 0 0 1 2.131.886.5.5 0 0 1 .074.573l-.689 1.3a.5.5 0 0 1 -.384.263 2.137 2.137 0 0 0 .19.423.5.5 0 0 1 -.162.679 9.421 9.421 0 0 0 -.743 1.026.5.5 0 0 1 -.347.222l-.679.1a.5.5 0 0 1 -.473-.2 17.561 17.561 0 0 1 -1.139-1.7 2.508 2.508 0 0 1 -.034-2.307 2.393 2.393 0 0 1 1.822-1.234 3.057 3.057 0 0 1 .433-.031zm1.131 1.35a2 2 0 0 0 -1.422-.329 1.388 1.388 0 0 0 -1.079.709 1.522 1.522 0 0 0 .042 1.4 13.928 13.928 0 0 0 .872 1.313l.159-.023c.254-.383.441-.636.58-.805a1.375 1.375 0 0 1 -.072-1.187.785.785 0 0 1 .555-.384z"/><path d="m37.4 71.895 1.27-.468-.1.625 1.015-.244-.3.48.911.083-.646.729z"/><path d="m38.665 70.926a.5.5 0 0 1 .5.466l.3-.071a.5.5 0 0 1 .614.537l.161.015a.5.5 0 0 1 .329.83l-.646.729a.5.5 0 0 1 -.619.1l-2.148-1.2a.5.5 0 0 1 .072-.905l1.27-.468a.5.5 0 0 1 .167-.033z"/></g><path d="m88.339 61.986-.649 4.976a3.188 3.188 0 0 1 -2.127.288 3.007 3.007 0 0 1 -1.226-1.478l1.154-.685.685.432s.649-3.569 2.163-3.533" fill="#f4d151"/><path d="m88.316 61.486h.035a.5.5 0 0 1 .484.565l-.649 4.976a.5.5 0 0 1 -.277.385 4.706 4.706 0 0 1 -1.771.448 1.879 1.879 0 0 1 -.782-.154 3.417 3.417 0 0 1 -1.485-1.753.5.5 0 0 1 .211-.61l1.154-.685a.5.5 0 0 1 .522.007l.089.056a10.516 10.516 0 0 1 .372-1.151c.545-1.383 1.25-2.084 2.097-2.084zm-1.085 5.128.488-3.745a7.135 7.135 0 0 0 -1.052 2.74.5.5 0 0 1 -.759.333l-.426-.269-.495.294a2.009 2.009 0 0 0 .781.828.9.9 0 0 0 .369.065 3.279 3.279 0 0 0 1.094-.246z" fill="#053760"/><g clip-path="url(#e)" opacity=".3"><path d="m82.886 81.442c0 1.57 2.521 2.843 5.631 2.843s5.632-1.273 5.632-2.843-2.522-2.842-5.632-2.842-5.631 1.273-5.631 2.843" fill="#190e0e"/></g><path d="m88.3 82.375a4.277 4.277 0 0 0 3.017-.783c.269-.456-.065-1.009-.063-1.358a5.317 5.317 0 0 1 -1.649.229c-.124.094-.31.413-.464.533-.61.473-1.581 1.151-.841 1.379" fill="#f3f4f4"/><path d="m88.736 82.928a1.994 1.994 0 0 1 -.588-.075.786.786 0 0 1 -.608-.606c-.1-.577.5-1.043 1.147-1.535l.144-.111a2.054 2.054 0 0 0 .163-.2 1.73 1.73 0 0 1 .305-.338.5.5 0 0 1 .378-.1 1.016 1.016 0 0 0 .15.009 5.747 5.747 0 0 0 1.283-.224.5.5 0 0 1 .64.483 1.651 1.651 0 0 0 .057.271 1.686 1.686 0 0 1 -.064 1.339c-.394.676-2.17 1.087-3.007 1.087zm1.076-1.95-.023.031a2.045 2.045 0 0 1 -.344.382l-.149.115c-.134.1-.353.27-.526.423a4.581 4.581 0 0 0 2.12-.6.789.789 0 0 0 -.027-.481 5.2 5.2 0 0 1 -1.051.13z" fill="#082d4e"/><path d="m85.812 81.683c.678.373 2.529-.573 2.692-1.014a9.234 9.234 0 0 0 0-1.054l-1.586-.324-.1 1.086c-.518.324-1.452 1.061-1.008 1.306" fill="#f3f4f4"/><path d="m86.212 82.268a1.318 1.318 0 0 1 -.641-.147.694.694 0 0 1 -.375-.6c-.015-.539.639-1.089 1.148-1.434l.077-.845a.5.5 0 0 1 .6-.444l1.586.324a.5.5 0 0 1 .4.469 3.542 3.542 0 0 1 -.032 1.248 2.339 2.339 0 0 1 -1.132.961 4.059 4.059 0 0 1 -1.631.468zm1.154-2.376-.048.53a.5.5 0 0 1 -.233.379 4.727 4.727 0 0 0 -.593.438 3.736 3.736 0 0 0 1.528-.739c0-.1 0-.279 0-.473z" fill="#082d4e"/><path d="m91.386 68.925c.209.868.176 11.309.176 11.309a2.874 2.874 0 0 1 -2.394.32l-.318-8.532-.144 8.108a2.946 2.946 0 0 1 -1.882-.261l.01-10.886z" fill="#175f95"/><path d="m91.386 68.425a.5.5 0 0 1 .486.383c.212.882.2 9.674.19 11.428a.5.5 0 0 1 -.251.432 3.681 3.681 0 0 1 -1.845.513 2.754 2.754 0 0 1 -.988-.164.5.5 0 0 1 -.3-.374 4.016 4.016 0 0 1 -.571.04 2.96 2.96 0 0 1 -1.542-.387.5.5 0 0 1 -.24-.427l.01-10.886a.5.5 0 0 1 .494-.5l4.552-.058zm-.323 11.5c.009-3.586-.017-8.951-.121-10.5l-3.608.046-.009 10.081a2.3 2.3 0 0 0 .781.125h.109l.136-7.667a.5.5 0 0 1 1-.01l.3 8.156a2.22 2.22 0 0 0 .312.022 2.6 2.6 0 0 0 1.1-.248z" fill="#063964"/><path d="m91.593 68.326a1.256 1.256 0 0 0 .708-.506c.869-1.3.245-4.519-.338-5.226-.388-.47-2.815-1.007-2.815-1.007a8.866 8.866 0 0 0 -1.385.795c-.871.636-.914 1.922-.9 2.957.019 1.6-.287 4.185-.287 4.185a16.737 16.737 0 0 0 5.037.184z" fill="#f4d151"/><path d="m89.32 70.322a10.383 10.383 0 0 1 -2.892-.322.5.5 0 0 1 -.351-.537c0-.026.3-2.572.284-4.12-.01-.887-.029-2.537 1.107-3.367a9.314 9.314 0 0 1 1.476-.848.5.5 0 0 1 .312-.032c.025.006.631.14 1.3.336 1.292.38 1.639.649 1.8.841.739.9 1.355 4.341.368 5.822a1.719 1.719 0 0 1 -.62.56l.014 1.044a.5.5 0 0 1 -.446.5c-.051.011-1.104.123-2.352.123zm-2.2-1.177a11.441 11.441 0 0 0 2.2.177c.713 0 1.37-.039 1.785-.071l-.012-.918a.5.5 0 0 1 .361-.487.762.762 0 0 0 .43-.3c.734-1.1.152-4.064-.3-4.628a8.708 8.708 0 0 0 -2.375-.8 8.084 8.084 0 0 0 -1.148.673c-.664.485-.708 1.569-.7 2.547a37.887 37.887 0 0 1 -.242 3.807z" fill="#053760"/><path d="m86.941 57.821s-.555 2.993.469 3.554a1.468 1.468 0 0 0 1.037.247v.691s.745.647 1.7-.321a5.843 5.843 0 0 0 .126-1.322s.763-.444.692-1.119a4.7 4.7 0 0 0 -.941-2.788 2.063 2.063 0 0 0 -3.086 1.058" fill="#f7d7c5"/><path d="m88.912 55.929a2.126 2.126 0 0 1 1.473.486 5.2 5.2 0 0 1 1.08 3.084 1.675 1.675 0 0 1 -.69 1.431 6.231 6.231 0 0 1 -.139 1.178.5.5 0 0 1 -.131.236 2.008 2.008 0 0 1 -1.427.681 1.532 1.532 0 0 1 -.96-.334.5.5 0 0 1 -.172-.378v-.207a2.676 2.676 0 0 1 -.777-.292c-.608-.333-.9-1.129-.878-2.432a10.91 10.91 0 0 1 .158-1.651q0-.021.01-.042a2.424 2.424 0 0 1 2.453-1.76zm.779 5.81a5.587 5.587 0 0 0 .085-1.059.5.5 0 0 1 .248-.442c.123-.074.476-.353.446-.635a4.209 4.209 0 0 0 -.8-2.492 1.292 1.292 0 0 0 -.756-.183 1.445 1.445 0 0 0 -1.483 1.005c-.226 1.244-.191 2.776.222 3a1.361 1.361 0 0 0 .632.2h.033a.451.451 0 0 1 .433.056.494.494 0 0 1 .2.428v.387a.56.56 0 0 0 .132.016.992.992 0 0 0 .608-.282z" fill="#063964"/><path d="m88.645 59.271a.246.246 0 1 0 .278-.214.248.248 0 0 0 -.278.214" fill="#0c2d51"/><path d="m87.4 59.271a.246.246 0 1 0 .278-.214.248.248 0 0 0 -.278.214" fill="#0c2d51"/><path d="m90 59.1-.247-1.037a8.143 8.143 0 0 1 -3.468-.407 8.407 8.407 0 0 0 .793-.521c-.272-.261-.594-.633-.474-.843.149-.261.985.03 1.321.159a1.9 1.9 0 0 1 .254-.111l-.236-.6a2.575 2.575 0 0 1 .868.458 2.287 2.287 0 0 1 1.83.636 2.913 2.913 0 0 1 .222 3.135.8.8 0 0 0 -.863-.869" fill="#0c2d51"/><path d="m90.866 60.468a.5.5 0 0 1 -.5-.5c0-.178-.025-.367-.325-.367a.483.483 0 0 1 -.521-.383l-.15-.628c-.137.006-.3.01-.481.01a6.956 6.956 0 0 1 -2.815-.491.5.5 0 0 1 -.031-.885s.124-.071.291-.177a.918.918 0 0 1 -.158-1 .757.757 0 0 1 .71-.357 2.367 2.367 0 0 1 .564.083.5.5 0 0 1 .463-.531h.046a1.959 1.959 0 0 1 1 .453 2.684 2.684 0 0 1 2.088.845 3.423 3.423 0 0 1 .26 3.668.5.5 0 0 1 -.441.26zm-.458-1.822a1.342 1.342 0 0 1 .305.118 2.343 2.343 0 0 0 -.473-1.635 1.805 1.805 0 0 0 -1.257-.438c-.046 0-.092 0-.137 0a.336.336 0 0 0 -.491.115 1.445 1.445 0 0 0 -.188.081.5.5 0 0 1 -.42.028q-.153-.059-.282-.1a.5.5 0 0 1 -.027.666 8.387 8.387 0 0 0 1.447.114c.478 0 .819-.032.822-.032a.5.5 0 0 1 .534.382z" fill="#082d4e"/><path d="m90.253 65.407-1.019.519s-1.539-.612-1.386-1.2c.088-.341-.8-.759.055-.962.506-.121 1.571.611 1.889.981z" fill="#f7d7c5"/><path d="m89.234 66.426a.5.5 0 0 1 -.185-.035 5.9 5.9 0 0 1 -.829-.42c-.638-.4-.933-.82-.878-1.261-.018-.027-.042-.06-.061-.085a.871.871 0 0 1 -.211-.831.952.952 0 0 1 .716-.52 1.028 1.028 0 0 1 .239-.027 3.788 3.788 0 0 1 2.146 1.168.5.5 0 0 1 .032.041l.461.666a.5.5 0 0 1 -.184.73l-1.019.519a.5.5 0 0 1 -.227.055zm-.89-1.634a2.546 2.546 0 0 0 .872.582l.3-.153-.119-.172a3.585 3.585 0 0 0 -1.138-.749.78.78 0 0 1 .085.492z" fill="#063964"/><path d="m91.578 68.33a1.4 1.4 0 0 1 -1.4-.436 6.091 6.091 0 0 1 -1.35-2.013l1.345-.831 1.377 1.362" fill="#f4d151"/><path d="m91.229 68.878a1.926 1.926 0 0 1 -1.421-.648 6.455 6.455 0 0 1 -1.459-2.205.5.5 0 0 1 .216-.569l1.345-.831a.5.5 0 0 1 .614.07l1.376 1.362a.5.5 0 1 1 -.7.711l-1.1-1.085-.638.394a7.539 7.539 0 0 0 1.085 1.482.913.913 0 0 0 .9.29.5.5 0 0 1 .268.963 1.8 1.8 0 0 1 -.486.066z" fill="#053760"/><path d="m86.1 64.762-1.586-.613-1.006-2.849 1.586.613z" fill="#f3f4f4"/><path d="m86.1 65.262a.5.5 0 0 1 -.18-.034l-1.586-.613a.5.5 0 0 1 -.291-.3l-1.01-2.848a.5.5 0 0 1 .652-.633l1.586.613a.5.5 0 0 1 .291.3l1.01 2.848a.5.5 0 0 1 -.471.667zm-1.191-1.5.356.138-.565-1.6-.356-.138z" fill="#082d4e"/><path d="m84.013 64.509s.18-1.01.361-.937.216.36.216.36.793-.4 1.009-.144 0 .9-.18 1.118a3.25 3.25 0 0 1 -.685.5c-.108.072-.433.036-.721-.9" fill="#f7d7c5"/><path d="m84.648 65.934c-.478 0-.853-.43-1.113-1.278a.5.5 0 0 1 -.014-.235c.145-.812.342-1.353.834-1.353a.548.548 0 0 1 .206.04.738.738 0 0 1 .272.189 1.834 1.834 0 0 1 .527-.094.775.775 0 0 1 .619.26c.43.5.114 1.412-.175 1.762a2.915 2.915 0 0 1 -.717.554l-.075.046a.652.652 0 0 1 -.364.109zm-.12-1.457a2.074 2.074 0 0 0 .161.372 1.757 1.757 0 0 0 .345-.263 1.036 1.036 0 0 0 .138-.346 2.387 2.387 0 0 0 -.359.14.525.525 0 0 1 -.277.055z" fill="#063964"/><path d="m23.714 48.7-.547 1.011s-1.988-.182-2.051-.816c-.036-.366-1.051-.456-.291-.962.45-.3 1.755.034 2.2.281z" fill="#f7d7c5"/><path d="m23.167 50.21h-.046a8.131 8.131 0 0 1 -1.076-.183c-.318-.079-1.253-.31-1.409-.974-.029-.022-.068-.048-.1-.067a.89.89 0 0 1 -.5-.719.975.975 0 0 1 .5-.749 1.454 1.454 0 0 1 .822-.2 4.6 4.6 0 0 1 1.9.463.5.5 0 0 1 .044.028l.698.481a.5.5 0 0 1 .152.647l-.547 1.011a.5.5 0 0 1 -.438.262zm-1.561-1.421a3.347 3.347 0 0 0 1.283.384l.174-.321-.3-.213a3.786 3.786 0 0 0 -1.389-.325h-.055a.806.806 0 0 1 .287.475z" fill="#063964"/><path d="m26.134 46.816s-.3 1.137-.723 1.364a4.248 4.248 0 0 1 -2.05.158l-.234 1.655s2.287.839 3.407.19a5.039 5.039 0 0 0 1.789-2.259z" fill="#228cbf"/><path d="m26.134 46.316a.5.5 0 0 1 .226.054l2.189 1.108a.5.5 0 0 1 .241.626 5.513 5.513 0 0 1 -2 2.512 2.748 2.748 0 0 1 -1.385.314 8.2 8.2 0 0 1 -2.445-.467.5.5 0 0 1 -.323-.539l.234-1.655a.5.5 0 0 1 .571-.424 5.9 5.9 0 0 0 .781.054 2.085 2.085 0 0 0 .952-.155 2.816 2.816 0 0 0 .482-1.056.5.5 0 0 1 .483-.37zm1.531 1.835-1.237-.626a2.132 2.132 0 0 1 -.778 1.095 3.051 3.051 0 0 1 -1.432.278c-.154 0-.3-.006-.429-.014l-.108.762a6.6 6.6 0 0 0 1.718.284 1.817 1.817 0 0 0 .884-.179 4.042 4.042 0 0 0 1.382-1.6z" fill="#053760"/><path d="m20.813 43.838-2.26 1.114.931 4.847 2.343-1.053z" fill="#f2f3f3"/><path d="m20.813 43.338a.5.5 0 0 1 .49.4l1.014 4.908a.5.5 0 0 1 -.285.557l-2.343 1.053a.5.5 0 0 1 -.7-.362l-.931-4.847a.5.5 0 0 1 .27-.543l2.26-1.114a.5.5 0 0 1 .225-.052zm.443 5.116-.8-3.882-1.338.66.74 3.852z" fill="#082c4a"/><g clip-path="url(#f)" opacity=".3"><path d="m32.056 65.7c0 1.476-2.369 2.672-5.292 2.672s-5.292-1.2-5.292-2.672 2.369-2.672 5.292-2.672 5.292 1.2 5.292 2.672" fill="#190e0e"/></g><path d="m24.234 65.242c.88.41 3.288.153 3.143-.842-.017-.118-.044-1.42-.044-1.42l-1.661-.29-.07 1.133c-.53.352-1.847 1.2-1.368 1.419" fill="#082d4e"/><path d="m25.339 65.929a3.368 3.368 0 0 1 -1.316-.234.645.645 0 0 1 -.39-.543c-.036-.488.45-.916 1.486-1.608l.055-.885a.5.5 0 0 1 .585-.462l1.661.29a.5.5 0 0 1 .414.482c.012.59.03 1.257.04 1.366a1.052 1.052 0 0 1 -.26.853 3.2 3.2 0 0 1 -2.275.741zm-.409-1.023a3.556 3.556 0 0 0 .409.023 2.355 2.355 0 0 0 1.517-.394c.03-.035.028-.047.026-.063-.012-.083-.025-.442-.04-1.07l-.706-.123-.036.575a.5.5 0 0 1 -.222.386l-.082.055q-.564.373-.866.611z" fill="#082d4e"/><path d="m26.93 66.273c1.113.2 2.923-.062 3.189-.545s-.189-1.259-.189-1.259a6.8 6.8 0 0 1 -1.63.131c-.127.1-.5.009-.653.143-.68.6-1.514 1.383-.72 1.526" fill="#082d4e"/><path d="m27.783 66.841a5.372 5.372 0 0 1 -.941-.075.807.807 0 0 1 -.709-.561c-.163-.584.441-1.175 1.186-1.832a1.028 1.028 0 0 1 .671-.209l.088-.005a.5.5 0 0 1 .286-.049 1.919 1.919 0 0 0 .229.012 7.7 7.7 0 0 0 1.238-.141.5.5 0 0 1 .53.237 1.957 1.957 0 0 1 .2 1.753c-.47.845-2.543.87-2.778.87zm-.52-1.026a5.027 5.027 0 0 0 .52.026 3.932 3.932 0 0 0 1.905-.368.784.784 0 0 0 -.054-.445 7.351 7.351 0 0 1 -1.041.092c-.073 0-.142 0-.207-.006a1.4 1.4 0 0 1 -.349.048c-.033 0-.077 0-.109.007a7.6 7.6 0 0 0 -.666.646z" fill="#082d4e"/><path d="m30.154 52.667c.156 1.258-.09 11.707-.09 11.707-.727.446-2.8-.066-2.8-.066l.127-8.339-.127 8.339a5.136 5.136 0 0 1 -1.736-.179l-.063-11.272z" fill="#c8c9ca"/><path d="m30.154 52.167a.5.5 0 0 1 .5.438c.159 1.28-.076 11.352-.086 11.78a.5.5 0 0 1 -.238.414 2.288 2.288 0 0 1 -1.2.256 9.463 9.463 0 0 1 -1.9-.244c-.064 0-.16.008-.281.008a5.97 5.97 0 0 1 -1.548-.21.5.5 0 0 1 -.369-.48l-.067-11.269a.5.5 0 0 1 .48-.5l4.689-.19zm-.582 11.855c.064-2.811.18-8.946.114-10.836l-3.718.151.058 10.395a4.977 4.977 0 0 0 .746.086l.12-7.856a.5.5 0 0 1 1 .007s0 .005 0 .008l-.122 7.923a7.7 7.7 0 0 0 1.356.152 2.468 2.468 0 0 0 .446-.03z" fill="#073358"/><path d="m30.309 51.545a.7.7 0 0 0 .339-.078c.785-.434.758-2.3.641-2.8a6.629 6.629 0 0 0 -1.078-2.267 7.62 7.62 0 0 0 -2.557-1.312 7.387 7.387 0 0 0 -1.731.868c-.888.687-.743 1.9-.7 2.978.067 1.665.044 5.151.044 5.151.2.457 1.259.6 1.79-.245a3.238 3.238 0 0 0 1.124.7 2.413 2.413 0 0 0 2.4-.337z" fill="#228cbf"/><path d="m29.164 55.206a3.872 3.872 0 0 1 -1.13-.186 3.206 3.206 0 0 1 -.924-.486 1.716 1.716 0 0 1 -1.11.416 1.256 1.256 0 0 1 -1.186-.665.5.5 0 0 1 -.042-.2c0-.035.022-3.493-.044-5.128 0-.092-.008-.185-.013-.279-.049-1.037-.111-2.328.906-3.115a7.819 7.819 0 0 1 1.874-.945.5.5 0 0 1 .311 0 7.727 7.727 0 0 1 2.782 1.457 7.073 7.073 0 0 1 1.192 2.49c.125.536.223 2.736-.886 3.349l-.04.021.226 2.229a.5.5 0 0 1 -.2.45 2.763 2.763 0 0 1 -1.716.592zm-2.107-1.867a.5.5 0 0 1 .352.144 2.714 2.714 0 0 0 .919.581 2.808 2.808 0 0 0 .836.142 1.65 1.65 0 0 0 .887-.247l-.24-2.363a.5.5 0 0 1 .5-.55.212.212 0 0 0 .1-.016c.421-.233.527-1.685.4-2.245a6.151 6.151 0 0 0 -.964-2.052 6.409 6.409 0 0 0 -2.174-1.116 6.335 6.335 0 0 0 -1.435.735c-.605.468-.564 1.347-.519 2.277 0 .1.009.192.013.286.059 1.458.049 4.244.045 4.991a.531.531 0 0 0 .223.044.749.749 0 0 0 .638-.377.5.5 0 0 1 .423-.234z" fill="#053760"/><path d="m25.246 41.231s-.49 3.133.594 3.687a1.527 1.527 0 0 0 1.086.226l-.238.776 2.206-.062a7.486 7.486 0 0 1 -.365-1.717s.828-1.129.735-1.83c-.168-1.253-.216-1.669-.836-2.273a2.148 2.148 0 0 0 -3.182 1.193" fill="#f7d7c5"/><path d="m27.333 39.221a2.122 2.122 0 0 1 1.444.458 3.486 3.486 0 0 1 .976 2.512l.007.053a3.5 3.5 0 0 1 -.719 2.037 7.52 7.52 0 0 0 .326 1.413.5.5 0 0 1 -.459.663l-2.208.063a.5.5 0 0 1 -.492-.646l.05-.165a2.932 2.932 0 0 1 -.648-.246c-.636-.325-.955-1.139-.976-2.489a11.327 11.327 0 0 1 .115-1.721q0-.021.008-.042a2.359 2.359 0 0 1 1.063-1.485 2.916 2.916 0 0 1 1.513-.405zm.9 6.155a6.394 6.394 0 0 1 -.2-1.211.5.5 0 0 1 .1-.32 3.063 3.063 0 0 0 .643-1.469l-.007-.052c-.164-1.223-.21-1.468-.682-1.929a1.3 1.3 0 0 0 -.746-.175 1.559 1.559 0 0 0 -1.6 1.109c-.2 1.309-.114 2.915.331 3.143a1.308 1.308 0 0 0 .711.192.461.461 0 0 1 .5.092.506.506 0 0 1 .124.534l-.034.11z" fill="#063964"/><path d="m28.645 44.95-1.471.752.75 1.318 1.243-1.32z" fill="#f2f3f3"/><path d="m28.645 44.45a.5.5 0 0 1 .41.213l.522.745a.5.5 0 0 1 -.045.629l-1.243 1.325a.5.5 0 0 1 -.8-.095l-.75-1.318a.5.5 0 0 1 .207-.692l1.471-.752a.5.5 0 0 1 .228-.055zm-.12 1.2-.039-.056-.618.316.156.274z" fill="#082c4a"/><path d="m29.466 49.585-.985.671s-1.671-.428-1.591-1.061c.046-.364-.922-.679-.07-1 .506-.191 1.7.425 2.081.764z" fill="#f7d7c5"/><path d="m28.481 50.756a.5.5 0 0 1 -.124-.016 6.112 6.112 0 0 1 -.909-.323c-.708-.323-1.064-.719-1.061-1.177-.024-.027-.056-.061-.08-.087a.89.89 0 0 1 -.322-.812.973.973 0 0 1 .658-.617 1.145 1.145 0 0 1 .406-.068 4.21 4.21 0 0 1 2.187.928.5.5 0 0 1 .037.037l.565.628a.5.5 0 0 1 -.09.748l-.985.671a.5.5 0 0 1 -.282.088zm-1.09-1.547a2.662 2.662 0 0 0 1 .5l.318-.217-.163-.181a3.738 3.738 0 0 0 -1.336-.638.8.8 0 0 1 .181.536z" fill="#063964"/><path d="m30.067 49.631-1.167-.674-.9 1.435a5.369 5.369 0 0 0 2.3 1.153" fill="#228cbf"/><path d="m30.307 52.045a5.582 5.582 0 0 1 -2.617-1.265.5.5 0 0 1 -.109-.653l.9-1.435a.5.5 0 0 1 .674-.168l1.166.674a.5.5 0 1 1 -.5.866l-.748-.432-.4.637a3.888 3.888 0 0 0 1.636.776.5.5 0 1 1 0 1z" fill="#053760"/><path d="m28.269 39.618c1.4 0 1.577 1.919 1.327 2.521-.2.487-.67 1.766-.67 1.766l-.356-.135s.512-1.006.348-1.312-.747-.26-.747-.26l-.968-.817a13.789 13.789 0 0 1 -2.184 1.1 2.39 2.39 0 0 1 -.037-2.042c.631-.917 2.221-1.689 3.287-.816" fill="#0a2d4e"/><path d="m26.955 42.636a.249.249 0 1 0 .249-.249.249.249 0 0 0 -.249.249" fill="#073358"/><path d="m25.754 42.636a.249.249 0 1 0 .246-.249.249.249 0 0 0 -.249.249" fill="#073358"/><g clip-path="url(#g)" opacity=".3"><path d="m70.909 90.267c0 1.586 2.545 2.871 5.686 2.871s5.687-1.285 5.687-2.871-2.546-2.867-5.682-2.867-5.686 1.285-5.686 2.871" fill="#180c0c"/></g><path d="m79.783 72.578s.462-.542 1.057-1.12a1.238 1.238 0 0 0 .454-.919c-.1-.47-.08-.989-.555-1.14-.574-.183-.852.335-1.048.765s-.582 1.725-.582 1.725z" fill="#f7d7c5"/><path d="m79.783 73.078a.5.5 0 0 1 -.357-.15l-.674-.689a.5.5 0 0 1 -.122-.493c.041-.136.4-1.34.606-1.789.15-.328.5-1.1 1.276-1.1a1.249 1.249 0 0 1 .379.061 1.364 1.364 0 0 1 .85 1.273c.014.085.027.165.042.24a1.657 1.657 0 0 1 -.6 1.381c-.569.553-1.02 1.08-1.025 1.085a.5.5 0 0 1 -.363.175zm-.109-1.327.093.095c.19-.207.442-.472.725-.747a1.1 1.1 0 0 0 .31-.472c-.019-.094-.034-.185-.048-.273-.058-.361-.091-.455-.166-.479a.255.255 0 0 0 -.076-.014c-.089 0-.212.172-.366.51-.119.261-.336.938-.472 1.38z" fill="#063964"/><path d="m73.88 88.953s-.159 1.212.048 1.369a2.471 2.471 0 0 0 1.351.168c.516-.02 1.713-.366 1.705-.667-.014-.519-.4-1.655-1.044-1.289a1.548 1.548 0 0 1 -1.425-.131z" fill="#0a2c4c"/><path d="m74.515 87.965a.437.437 0 0 1 .233.067 1.449 1.449 0 0 0 .661.2.624.624 0 0 0 .316-.077.928.928 0 0 1 .461-.128c.839 0 1.219 1.163 1.236 1.786.013.473-.536.719-.949.864a4.6 4.6 0 0 1 -1.176.252c-.139.006-.265.008-.383.008a2.048 2.048 0 0 1 -1.25-.265c-.123-.093-.409-.311-.217-1.774a.437.437 0 0 1 .147-.274l.635-.55a.437.437 0 0 1 .286-.109zm2.02 1.735a1.393 1.393 0 0 0 -.352-.8.187.187 0 0 0 -.027.013 1.5 1.5 0 0 1 -.748.191 2.163 2.163 0 0 1 -.828-.18l-.285.247a4.712 4.712 0 0 0 -.027.83 2.528 2.528 0 0 0 .645.057c.1 0 .222 0 .348-.008a3.757 3.757 0 0 0 1.274-.35z" fill="#0a2c4c"/><path d="m77.066 89.681a3.256 3.256 0 0 0 1.166-.013c.508-.13.92 0 .8.679-.086.484-.473.474-1.155.7a3.777 3.777 0 0 1 -1.938.294.563.563 0 0 1 -.306-.144 2.692 2.692 0 0 1 .083-1.577l1.352.065" fill="#0a2c4c"/><path d="m75.713 89.178h.022l1.352.065a.438.438 0 0 1 .056.006 3.407 3.407 0 0 0 .524.042 1.866 1.866 0 0 0 .456-.048 1.743 1.743 0 0 1 .429-.059.9.9 0 0 1 .73.309 1.092 1.092 0 0 1 .179.93c-.116.654-.609.793-1.085.926-.115.032-.234.066-.365.108l-.072.024a5.069 5.069 0 0 1 -1.579.334 2.5 2.5 0 0 1 -.511-.052.983.983 0 0 1 -.537-.274c-.115-.123-.219-.334-.2-1.029a3.4 3.4 0 0 1 .147-.964.49.49 0 0 1 .454-.318zm2.9.887a.311.311 0 0 0 -.058 0 .889.889 0 0 0 -.212.031 2.727 2.727 0 0 1 -.673.075 4.335 4.335 0 0 1 -.647-.051l-1-.048a4.481 4.481 0 0 0 -.023.828l.033.008a1.6 1.6 0 0 0 .329.033 4.359 4.359 0 0 0 1.307-.291l.073-.024c.149-.048.282-.086.4-.119.44-.123.443-.139.46-.238a.613.613 0 0 0 .008-.204z" fill="#0a2c4c"/><path d="m75.332 80.012c0 2.072.285 3.79.3 4.418.018 1.055-.156 5.115-.156 5.115a2.292 2.292 0 0 0 1.233.428 1.333 1.333 0 0 0 1.081-.412l.372-11.455-4.668.042s.28 3.015.354 5.318c.068 2.107 0 5.515 0 5.515a1.551 1.551 0 0 0 1.64.263" fill="#c8c9ca"/><path d="m76.7 90.473a2.757 2.757 0 0 1 -1.536-.53.5.5 0 0 1 -.086-.083 2.06 2.06 0 0 1 -1.59-.523.5.5 0 0 1 -.149-.366c0-.034.067-3.419 0-5.489-.073-2.261-.349-5.258-.352-5.288a.5.5 0 0 1 .493-.546l4.668-.042a.5.5 0 0 1 .5.516l-.372 11.455a.5.5 0 0 1 -.1.28 1.809 1.809 0 0 1 -1.476.616zm-.721-1.2a1.614 1.614 0 0 0 .721.2 1.1 1.1 0 0 0 .588-.142l.348-10.72-3.606.032c.084.978.253 3.1.308 4.807.057 1.76.019 4.447 0 5.284a1.028 1.028 0 0 0 .651.127c.048-1.193.141-3.65.128-4.422 0-.188-.037-.512-.079-.922a33.127 33.127 0 0 1 -.217-3.5.5.5 0 0 1 .5-.5.5.5 0 0 1 .5.5 31.8 31.8 0 0 0 .211 3.4c.045.434.081.777.085 1.008.026.9-.093 3.89-.133 4.849z" fill="#073358"/><path d="m74.841 72.869s3.572-1.426 4.4-1.9l.793 1.615-1.287.5z" fill="#728b96"/><path d="m78.747 73.589h-.028l-3.906-.22a.5.5 0 0 1 -.157-.964c1.224-.489 3.706-1.508 4.337-1.87a.5.5 0 0 1 .7.214l.793 1.615a.5.5 0 0 1 -.266.686l-1.287.505a.5.5 0 0 1 -.186.034zm-1.671-1.095 1.59.09.68-.267-.33-.673c-.509.242-1.241.556-1.94.85z" fill="#073358"/><path d="m82.5 74.924a3.526 3.526 0 0 1 -.057-1.622c.136-.576.567-.612.82-.719.442-.188.689-.59 1.086-.287a.989.989 0 0 1 -.074 1.5c-.36.306-1.1 1.136-1.1 1.136z" fill="#f7d7c5"/><path d="m83.175 75.43-.674-.006a.5.5 0 0 1 -.474-.355 4.037 4.037 0 0 1 -.065-1.882 1.356 1.356 0 0 1 1.006-1.027c.042-.014.081-.027.106-.038a1.826 1.826 0 0 0 .273-.159 1.31 1.31 0 0 1 .724-.277.957.957 0 0 1 .587.212 1.3 1.3 0 0 1 .507 1.018 1.631 1.631 0 0 1 -.561 1.258c-.274.233-.852.864-1.052 1.088a.5.5 0 0 1 -.377.168zm-.267-1h.047c.243-.266.716-.776 1-1.015a.626.626 0 0 0 .209-.469.309.309 0 0 0 -.107-.245c-.044.023-.111.067-.163.1a2.7 2.7 0 0 1 -.432.243c-.062.026-.121.046-.179.065-.234.078-.3.11-.35.308a2.776 2.776 0 0 0 -.025 1.011z" fill="#063964"/><path d="m77.292 64.965c.732.308 1.41 2.1 1.218 3.49s-1.4.945-1.5 1.43a3.391 3.391 0 0 0 .242 1.368l-2.05.009-.189-2.239s-1.27-5.548 2.275-4.058" fill="#eecfbd"/><path d="m76.225 64.211a3.311 3.311 0 0 1 1.26.293 2.8 2.8 0 0 1 1.232 1.632 5.219 5.219 0 0 1 .287 2.387 1.69 1.69 0 0 1 -1.4 1.543l-.104.034a3.542 3.542 0 0 0 .227.975.5.5 0 0 1 -.465.679l-2.05.009a.5.5 0 0 1 -.5-.458l-.186-2.2c-.1-.44-.62-3.042.348-4.256a1.671 1.671 0 0 1 1.351-.638zm.359 6.545a2.462 2.462 0 0 1 -.06-.969.968.968 0 0 1 .81-.682c.365-.1.606-.173.681-.718a3.563 3.563 0 0 0 -.917-2.96 2.343 2.343 0 0 0 -.873-.215.669.669 0 0 0 -.574.255c-.593.745-.3 2.788-.147 3.445a.5.5 0 0 1 .011.069l.15 1.779z" fill="#05365d"/><path d="m0 .335a.3.3 0 0 1 -.3-.262.3.3 0 0 1 .262-.336l.271-.037a.3.3 0 0 1 .336.259.3.3 0 0 1 -.26.341l-.271.033z" fill="#0a2c4c" transform="translate(78.053 68.26)"/><path d="m76.248 68.556a2.7 2.7 0 0 0 1.516.935" fill="#0a2c4c"/><path d="m77.764 69.929h-.026a3.04 3.04 0 0 1 -1.828-1.093.438.438 0 0 1 .674-.558 2.21 2.21 0 0 0 1.2.777.438.438 0 0 1 -.025.874z" fill="#05365d"/><path d="m78 73.282.526 6.2a3.169 3.169 0 0 1 -3.582-.938 2.545 2.545 0 0 1 -1.634.743s.173-2.2.18-3.565c.008-1.624-.948-4.677 1.183-5.739.568-.283 2.921-.029 3.485.681 0 0 1.7 2.708 1.986 2.926.332.253 2.426-.323 2.426-.323a7.246 7.246 0 0 0 .393 1.751s-3.394 1-3.911.415a7.843 7.843 0 0 1 -1.052-2.151" fill="#228cbf"/><path d="m75.449 69.374c.932 0 2.527.262 3.1.983a.5.5 0 0 1 .032.045c.721 1.15 1.566 2.434 1.834 2.755h.056a10.557 10.557 0 0 0 1.965-.369.5.5 0 0 1 .631.442 6.792 6.792 0 0 0 .362 1.613.5.5 0 0 1 -.326.657 15.592 15.592 0 0 1 -3.332.619 1.443 1.443 0 0 1 -1.056-.312l.308 3.635a.5.5 0 0 1 -.315.508 3.736 3.736 0 0 1 -1.366.275 3.583 3.583 0 0 1 -2.408-1.017 3.005 3.005 0 0 1 -1.624.582.5.5 0 0 1 -.5-.539c0-.022.172-2.2.178-3.528a11.887 11.887 0 0 0 -.089-1.19c-.178-1.693-.423-4.011 1.549-4.994a2.338 2.338 0 0 1 1.001-.165zm2.3 1.589a4.082 4.082 0 0 0 -2.3-.589 1.677 1.677 0 0 0 -.553.061c-1.251.623-1.2 2.112-1 3.994a12.507 12.507 0 0 1 .095 1.3c0 .915-.081 2.176-.133 2.938a2.162 2.162 0 0 0 .738-.476.5.5 0 0 1 .669-.027c.057.047.116.1.184.163a2.819 2.819 0 0 0 1.9.9 2.526 2.526 0 0 0 .652-.09l-.501-5.813a.5.5 0 0 1 .975-.194 7.334 7.334 0 0 0 .928 1.95 1.171 1.171 0 0 0 .368.04 12.271 12.271 0 0 0 2.553-.442 7.956 7.956 0 0 1 -.176-.785 8.612 8.612 0 0 1 -1.677.265 1 1 0 0 1 -.631-.167 23.8 23.8 0 0 1 -2.088-3.029z" fill="#053760"/><path d="m76.248 68.556a.873.873 0 0 1 -.285-.753c.008-.442.614-.539.614-.539l.429-.971 1.152-.589s.384-.868-.965-1.537a3.917 3.917 0 0 0 -2.263-.06c-.476.112-.56.729-.56.729s-1.13.868-.426 3.15a3.3 3.3 0 0 0 1.256 1.461l-.033-.4.313.4.242-.506.218.4z" fill="#0a2c4c"/><path d="m75.476 69.885a5.921 5.921 0 0 0 -.514-.068 3.718 3.718 0 0 1 -1.436-1.7c-.642-2.082.116-3.156.444-3.5a1.235 1.235 0 0 1 .86-.933 5.991 5.991 0 0 1 1.3-.152 2.854 2.854 0 0 1 1.262.246c1.364.676 1.362 1.673 1.171 2.106a.438.438 0 0 1 -.2.213l-1.014.518-.366.829a.437.437 0 0 1 -.331.255.478.478 0 0 0 -.247.116.562.562 0 0 0 .106.388.388.388 0 0 1 .15.518l-.312.786a15.7 15.7 0 0 0 -.818.378zm-.837-4.7c-.067.057-.86.788-.277 2.676a2.1 2.1 0 0 0 .571.822.817.817 0 0 0 .737-.172 1.549 1.549 0 0 1 -.145-.71.991.991 0 0 1 .736-.9l.344-.779a.437.437 0 0 1 .2-.213l.965-.494c0-.181-.109-.521-.774-.851a2.044 2.044 0 0 0 -.874-.155 5.163 5.163 0 0 0 -1.1.129c-.149.035-.219.312-.226.362a.4.4 0 0 1 -.157.281z" fill="#0a2c4c"/><path d="m83.368 65.8-3.068-.655.063 5.41 3.162.778z" fill="#f2f3f3"/><path d="m80.3 64.645a.5.5 0 0 1 .1.011l3.072.655a.5.5 0 0 1 .4.475l.153 5.533a.5.5 0 0 1 -.619.5l-3.162-.778a.5.5 0 0 1 -.381-.48l-.063-5.41a.5.5 0 0 1 .5-.506zm2.583 1.562-2.083-.442.051 4.4 2.149.526z" fill="#082c4a"/><path d="m77.957 67.477.79-.288-.108-1.152-.79.288z" fill="#fff"/><path d="m77.957 67.777a.3.3 0 0 1 -.3-.272l-.108-1.152a.3.3 0 0 1 .2-.31l.79-.288a.3.3 0 0 1 .4.254l.108 1.152a.3.3 0 0 1 -.2.31l-.79.288a.3.3 0 0 1 -.1.018zm.212-1.249.05.534.207-.076-.05-.534z" fill="#05365d"/><path d="m0 .727a.3.3 0 0 1 -.286-.211.3.3 0 0 1 .2-.376l1.368-.426a.3.3 0 0 1 .376.2.3.3 0 0 1 -.2.376l-1.369.423a.3.3 0 0 1 -.089.014z" fill="#05365d" transform="translate(76.478 66.757)"/><path d="m0 0 8.806 5.968" fill="#fff" transform="translate(70.821 39.603)"/><path d="m8.806 6.468a.5.5 0 0 1 -.28-.086l-8.807-5.968a.5.5 0 0 1 -.133-.695.5.5 0 0 1 .695-.133l8.806 5.968a.5.5 0 0 1 -.281.914z" fill="#05365d" transform="translate(70.821 39.603)"/><path d="m0 0 8.806 5.968" fill="#fff" transform="translate(67.446 41.875)"/><path d="m8.806 6.468a.5.5 0 0 1 -.28-.086l-8.807-5.968a.5.5 0 0 1 -.133-.695.5.5 0 0 1 .695-.133l8.806 5.968a.5.5 0 0 1 -.281.914z" fill="#05365d" transform="translate(67.446 41.875)"/><path d="m0 0 8.806 5.968" fill="#fff" transform="translate(64.071 44.147)"/><path d="m8.806 6.468a.5.5 0 0 1 -.28-.086l-8.807-5.968a.5.5 0 0 1 -.133-.695.5.5 0 0 1 .695-.133l8.806 5.968a.5.5 0 0 1 -.281.914z" fill="#05365d" transform="translate(64.071 44.147)"/><path d="m0 0 8.806 5.968" fill="#fff" transform="translate(60.696 46.42)"/><path d="m8.806 6.468a.5.5 0 0 1 -.28-.086l-8.807-5.968a.5.5 0 0 1 -.133-.695.5.5 0 0 1 .695-.133l8.806 5.968a.5.5 0 0 1 -.281.914z" fill="#05365d" transform="translate(60.696 46.42)"/><path d="m56.676 46.276a.5.5 0 0 1 -.28-.086l-12.42-8.417a.5.5 0 0 1 0-.829l13.2-8.89a.5.5 0 0 1 .56 0l12.42 8.417a.5.5 0 0 1 0 .829l-13.2 8.89a.5.5 0 0 1 -.28.086zm-11.527-8.916 11.528 7.812 12.311-8.288-11.528-7.812z" fill="#05365d"/></g><g clip-path="url(#h)"><path d="m54.87 39.906c.752.509 2.151 2.287 1.539 3.429-.518.968-4.615 4.811-9.039 7.157l-1.625-1.049-1.111.7s-6.014-2.883-6.524-4.681c0 0 8.83-5.864 10.133-6.693s4.36-.435 5.008 0 1.619 1.133 1.619 1.133" fill="#fff"/><path d="m50.545 37.784a6.631 6.631 0 0 1 2.986.575c.623.422 1.548 1.082 1.624 1.137.814.555 2.5 2.569 1.694 4.076-.629 1.175-4.966 5.093-9.245 7.363a.5.5 0 0 1 -.505-.022l-1.357-.876-.841.53a.5.5 0 0 1 -.483.028c-.062-.03-1.543-.742-3.113-1.689a19.528 19.528 0 0 1 -2.278-1.567 3.927 3.927 0 0 1 -1.4-1.74.5.5 0 0 1 .2-.553c.361-.24 8.849-5.876 10.141-6.7a5.077 5.077 0 0 1 2.577-.562zm-3.152 12.128c4.418-2.406 8.174-6.064 8.575-6.813.412-.769-.677-2.3-1.378-2.779l-.01-.007c-.01-.007-.973-.695-1.609-1.126a6.054 6.054 0 0 0 -2.425-.4 4.04 4.04 0 0 0 -2.034.407c-1.133.721-8.085 5.333-9.762 6.447a10.121 10.121 0 0 0 3.072 2.411c1.161.7 2.3 1.281 2.782 1.522l.875-.551a.5.5 0 0 1 .538 0z" fill="#073358"/><path d="m54.585 39.937c-.649-.44-2.009-1.569-2.009-1.569a10.519 10.519 0 0 0 -4.733-.579 38.29 38.29 0 0 0 -10.626 6.082l1.548 1.1-1.04.748s4.247 4.072 6.909 4.423c0 0 7.891-5.94 9.122-6.818" fill="#fff"/><path d="m44.634 50.643a.5.5 0 0 1 -.065 0c-2.792-.368-7.011-4.387-7.19-4.558a.5.5 0 0 1 .054-.767l.472-.34-.978-.7a.5.5 0 0 1 -.035-.788 38.676 38.676 0 0 1 10.834-6.19 8.156 8.156 0 0 1 3.159.094 9.3 9.3 0 0 1 1.973.557l.038.029c.013.011 1.349 1.119 1.97 1.54a.5.5 0 0 1 -.561.828c-.6-.4-1.738-1.342-2-1.556a10.121 10.121 0 0 0 -4.347-.52 38.421 38.421 0 0 0 -9.923 5.566l1.017.724a.5.5 0 0 1 0 .813l-.542.39c1.1.988 4 3.452 5.989 3.847 1.187-.893 7.825-5.887 8.961-6.7a.5.5 0 0 1 .581.814c-1.212.864-9.033 6.751-9.112 6.81a.5.5 0 0 1 -.295.107z" fill="#073358"/><path d="m54.646 35.611a1.585 1.585 0 0 1 -1.623.119c-.4-.27-.317-.761.181-1.1a1.587 1.587 0 0 1 1.624-.119c.4.27.316.76-.182 1.1" fill="#f7d7c5"/><path d="m53.673 36.4a1.649 1.649 0 0 1 -.931-.259 1.025 1.025 0 0 1 -.472-.853 1.332 1.332 0 0 1 .655-1.072 2.3 2.3 0 0 1 1.253-.376 1.65 1.65 0 0 1 .931.259 1.025 1.025 0 0 1 .472.852 1.334 1.334 0 0 1 -.655 1.072 2.291 2.291 0 0 1 -1.253.377zm-.4-1.114a.157.157 0 0 0 .033.028.69.69 0 0 0 .37.086 1.285 1.285 0 0 0 .693-.206c.166-.112.209-.212.213-.24a.158.158 0 0 0 -.033-.028.691.691 0 0 0 -.37-.086 1.289 1.289 0 0 0 -.694.206c-.167.114-.21.214-.215.242z" fill="#073358"/><path d="m60.269 39.422a1.585 1.585 0 0 1 -1.623.119c-.4-.27-.317-.761.181-1.1a1.587 1.587 0 0 1 1.624-.119c.4.27.316.76-.182 1.1" fill="#f7d7c5"/><path d="m59.3 40.213a1.649 1.649 0 0 1 -.931-.259 1.025 1.025 0 0 1 -.472-.853 1.332 1.332 0 0 1 .655-1.072 2.3 2.3 0 0 1 1.253-.376 1.65 1.65 0 0 1 .931.259 1.025 1.025 0 0 1 .472.852 1.334 1.334 0 0 1 -.655 1.072 2.291 2.291 0 0 1 -1.253.377zm-.4-1.114a.157.157 0 0 0 .033.028.69.69 0 0 0 .37.086 1.285 1.285 0 0 0 .693-.206c.166-.112.209-.212.213-.24a.158.158 0 0 0 -.033-.028.691.691 0 0 0 -.37-.086 1.289 1.289 0 0 0 -.694.206c-.171.112-.212.212-.219.241z" fill="#073358"/><path d="m60.14 38.634c1.717-1.156 2.5-3.393.933-4.452s-4.877-.541-6.594.615c-1.326.892-1.691 2.163-1.075 3.185l-1.137.765c-.169.114-.127 1.449-.127 1.449a14.267 14.267 0 0 0 2.146-.081l1.136-.765a5.981 5.981 0 0 0 4.718-.716" fill="#f7d7c5"/><path d="m52.751 40.7c-.345 0-.608 0-.619 0a.5.5 0 0 1 -.491-.484c0-.014-.011-.353 0-.713.022-.721.106-1 .347-1.167l.778-.524a2.92 2.92 0 0 1 1.434-3.43 8.656 8.656 0 0 1 4.528-1.276 4.7 4.7 0 0 1 2.625.662 2.342 2.342 0 0 1 1.064 1.992 4.248 4.248 0 0 1 -2 3.289 6.272 6.272 0 0 1 -3.476 1 6.288 6.288 0 0 1 -1.428-.16l-.95.64c-.135.093-.252.171-1.812.171zm-.115-1h.115a11.416 11.416 0 0 0 1.321-.044l1.072-.722a.5.5 0 0 1 .413-.067 5.2 5.2 0 0 0 1.388.181 5.339 5.339 0 0 0 2.917-.83 3.283 3.283 0 0 0 1.557-2.461 1.335 1.335 0 0 0 -.625-1.163 3.731 3.731 0 0 0 -2.064-.49 7.706 7.706 0 0 0 -3.97 1.106c-1.055.71-1.418 1.7-.926 2.512a.5.5 0 0 1 -.149.673l-1.011.68a5.484 5.484 0 0 0 -.038.625z" fill="#073358"/><path d="m57.437 36.017a.737.737 0 0 1 -.763.014.29.29 0 0 1 .025-.516.735.735 0 0 1 .763-.013.289.289 0 0 1 -.025.515" fill="#0e2f54"/><path d="m59.232 37.344a.737.737 0 0 1 -.763.014.29.29 0 0 1 .025-.516.735.735 0 0 1 .763-.013.289.289 0 0 1 -.025.515" fill="#0e2f54"/><path d="m59.291 35.889a6.684 6.684 0 0 1 -.292-1.5l-4.27.075s4.128-2.992 5.564-1.364c1.648-.424 5.7 2.186.637 5.4a23.934 23.934 0 0 1 -1.639-2.606" fill="#0c2e51"/><path d="m60.93 39a.5.5 0 0 1 -.408-.211 22.979 22.979 0 0 1 -1.692-2.7 5.3 5.3 0 0 1 -.277-1.189l-3.815.067a.5.5 0 0 1 -.3-.9c.11-.079 2.7-1.944 4.633-1.944a2.111 2.111 0 0 1 1.389.45q.109-.011.224-.011a3.423 3.423 0 0 1 3.116 2.172c.283.975.062 2.493-2.6 4.184a.5.5 0 0 1 -.27.082zm-1.93-5.115a.5.5 0 0 1 .5.459 6.009 6.009 0 0 0 .255 1.353 18.127 18.127 0 0 0 1.308 2.111c1.392-.974 2.022-1.957 1.778-2.795a2.432 2.432 0 0 0 -2.157-1.462 1.07 1.07 0 0 0 -.264.03.5.5 0 0 1 -.5-.153 1.065 1.065 0 0 0 -.849-.316 6.122 6.122 0 0 0 -2.512.817l2.433-.043z" fill="#073358"/><path d="m47.665 39.467s-6.707 3.93-8.9 5.505" fill="#fff"/><path d="m38.764 45.472a.5.5 0 0 1 -.292-.906c2.188-1.57 8.665-5.369 8.94-5.53a.5.5 0 1 1 .506.863c-.067.039-6.712 3.936-8.862 5.48a.5.5 0 0 1 -.292.093z" fill="#073358"/><path d="m55.126 40.108-6.426 2.515 3.446-4.534s-3.887-1.845-9.2 1.424l10.509 7.073s5.9-3.348 1.671-6.478" fill="#0e2f54"/><path d="m49.235 37.07a7.817 7.817 0 0 1 3.126.567l.556.264-2.742 3.607 5.025-1.966.222.165a3.525 3.525 0 0 1 1.723 3.029c-.145 2.386-3.31 4.209-3.445 4.286l-.269.153-5.511-3.709-.7.272.373-.49-5.576-3.753.662-.407a12.473 12.473 0 0 1 6.556-2.018zm2.1 1.266a8.008 8.008 0 0 0 -2.1-.266 11.124 11.124 0 0 0 -5.347 1.474l4.312 2.906zm2.138 7.656c.906-.58 2.6-1.936 2.68-3.319a2.449 2.449 0 0 0 -1.105-2l-5.989 2.344z" fill="#073358"/></g><g clip-path="url(#a)"><path d="m67.714 55.048-29.39-19.918 19.9-13.4 29.387 19.923z" fill="#fff"/><path d="m67.714 55.548a.5.5 0 0 1 -.281-.086l-29.389-19.918a.5.5 0 0 1 0-.829l19.9-13.4a.5.5 0 0 1 .56 0l29.388 19.924a.5.5 0 0 1 0 .829l-19.9 13.4a.5.5 0 0 1 -.278.08zm-28.5-20.417 28.5 19.313 19-12.793-28.5-19.314z" fill="#05365d"/><path d="m0 0 8.806 5.968" fill="#fff" transform="translate(70.821 37.062)"/><path d="m8.806 6.468a.5.5 0 0 1 -.28-.086l-8.807-5.968a.5.5 0 0 1 -.133-.695.5.5 0 0 1 .695-.133l8.806 5.968a.5.5 0 0 1 -.281.914z" fill="#05365d" transform="translate(70.821 37.062)"/><path d="m0 0 8.806 5.968" fill="#fff" transform="translate(67.446 39.334)"/><path d="m8.806 6.468a.5.5 0 0 1 -.28-.086l-8.807-5.968a.5.5 0 0 1 -.133-.695.5.5 0 0 1 .695-.133l8.806 5.968a.5.5 0 0 1 -.281.914z" fill="#05365d" transform="translate(67.446 39.334)"/><path d="m0 0 8.806 5.968" fill="#fff" transform="translate(64.071 41.606)"/><path d="m8.806 6.468a.5.5 0 0 1 -.28-.086l-8.807-5.968a.5.5 0 0 1 -.133-.695.5.5 0 0 1 .695-.133l8.806 5.968a.5.5 0 0 1 -.281.914z" fill="#05365d" transform="translate(64.071 41.606)"/><path d="m0 0 8.806 5.968" fill="#fff" transform="translate(60.696 43.879)"/><g fill="#05365d"><path d="m8.806 6.468a.5.5 0 0 1 -.28-.086l-8.807-5.968a.5.5 0 0 1 -.133-.695.5.5 0 0 1 .695-.133l8.806 5.968a.5.5 0 0 1 -.281.914z" transform="translate(60.696 43.879)"/><path d="m56.676 43.735a.5.5 0 0 1 -.28-.086l-12.42-8.417a.5.5 0 0 1 0-.829l13.2-8.89a.5.5 0 0 1 .56 0l12.42 8.417a.5.5 0 0 1 0 .829l-13.2 8.89a.5.5 0 0 1 -.28.086zm-11.527-8.916 11.528 7.812 12.311-8.288-11.528-7.812z"/></g></g><g clip-path="url(#i)"><path d="m54.87 37.365c.752.509 2.151 2.287 1.539 3.429-.518.968-4.615 4.811-9.039 7.157l-1.625-1.051-1.111.7s-6.014-2.883-6.524-4.681c0 0 8.83-5.864 10.133-6.693s4.36-.435 5.008 0 1.619 1.133 1.619 1.133" fill="#fff"/><path d="m50.545 35.243a6.631 6.631 0 0 1 2.986.575c.623.422 1.548 1.082 1.624 1.137.814.555 2.5 2.569 1.694 4.076-.629 1.175-4.966 5.093-9.245 7.363a.5.5 0 0 1 -.505-.022l-1.357-.872-.841.53a.5.5 0 0 1 -.483.028c-.062-.03-1.543-.742-3.113-1.689a19.528 19.528 0 0 1 -2.278-1.569 3.927 3.927 0 0 1 -1.4-1.74.5.5 0 0 1 .2-.553c.361-.24 8.849-5.876 10.141-6.7a5.077 5.077 0 0 1 2.577-.564zm-3.152 12.128c4.418-2.406 8.174-6.064 8.575-6.813.412-.769-.677-2.3-1.378-2.779l-.01-.007c-.01-.007-.973-.695-1.609-1.126a6.054 6.054 0 0 0 -2.425-.4 4.04 4.04 0 0 0 -2.034.407c-1.133.721-8.085 5.333-9.762 6.447a10.121 10.121 0 0 0 3.072 2.411c1.161.7 2.3 1.281 2.782 1.522l.875-.551a.5.5 0 0 1 .538 0z" fill="#073358"/><path d="m54.585 37.4c-.649-.44-2.009-1.569-2.009-1.569a10.519 10.519 0 0 0 -4.733-.579 38.29 38.29 0 0 0 -10.626 6.078l1.548 1.1-1.04.748s4.247 4.072 6.909 4.423c0 0 7.891-5.94 9.122-6.818" fill="#fff"/><path d="m44.634 48.1a.5.5 0 0 1 -.065 0c-2.792-.368-7.011-4.387-7.19-4.558a.5.5 0 0 1 .054-.767l.472-.34-.978-.7a.5.5 0 0 1 -.035-.788 38.676 38.676 0 0 1 10.833-6.188 8.156 8.156 0 0 1 3.159.094 9.3 9.3 0 0 1 1.973.557l.038.029c.013.011 1.349 1.119 1.97 1.54a.5.5 0 0 1 -.561.828c-.6-.4-1.738-1.342-2-1.556a10.121 10.121 0 0 0 -4.347-.52 38.422 38.422 0 0 0 -9.919 5.569l1.017.723a.5.5 0 0 1 0 .813l-.542.39c1.1.988 4 3.452 5.989 3.847 1.187-.893 7.825-5.887 8.961-6.7a.5.5 0 1 1 .581.814c-1.212.864-9.033 6.751-9.112 6.81a.5.5 0 0 1 -.298.103z" fill="#073358"/><path d="m54.646 33.07a1.585 1.585 0 0 1 -1.623.119c-.4-.27-.317-.76.181-1.1a1.587 1.587 0 0 1 1.624-.119c.4.27.316.76-.182 1.1" fill="#f7d7c5"/><path d="m53.673 33.861a1.649 1.649 0 0 1 -.931-.259 1.025 1.025 0 0 1 -.472-.852 1.334 1.334 0 0 1 .654-1.073 2.3 2.3 0 0 1 1.253-.377 1.65 1.65 0 0 1 .931.259 1.025 1.025 0 0 1 .472.852 1.334 1.334 0 0 1 -.655 1.072 2.291 2.291 0 0 1 -1.252.378zm-.4-1.114a.159.159 0 0 0 .033.028.69.69 0 0 0 .37.086 1.285 1.285 0 0 0 .693-.206c.166-.112.209-.212.213-.24a.158.158 0 0 0 -.033-.028.691.691 0 0 0 -.37-.086 1.289 1.289 0 0 0 -.694.206c-.167.112-.21.211-.215.24z" fill="#073358"/><path d="m60.269 36.881a1.585 1.585 0 0 1 -1.623.119c-.4-.27-.317-.761.181-1.1a1.587 1.587 0 0 1 1.624-.119c.4.27.316.76-.182 1.1" fill="#f7d7c5"/><path d="m59.3 37.672a1.649 1.649 0 0 1 -.931-.259 1.025 1.025 0 0 1 -.472-.853 1.332 1.332 0 0 1 .655-1.072 2.3 2.3 0 0 1 1.253-.376 1.65 1.65 0 0 1 .931.259 1.025 1.025 0 0 1 .472.852 1.334 1.334 0 0 1 -.655 1.072 2.291 2.291 0 0 1 -1.253.377zm-.4-1.114a.157.157 0 0 0 .033.028.69.69 0 0 0 .37.086 1.285 1.285 0 0 0 .693-.206c.166-.112.209-.212.213-.24a.158.158 0 0 0 -.033-.028.691.691 0 0 0 -.37-.086 1.289 1.289 0 0 0 -.694.206c-.171.112-.212.212-.219.24z" fill="#073358"/><path d="m60.14 36.093c1.717-1.156 2.5-3.393.933-4.452s-4.877-.541-6.594.615c-1.326.892-1.691 2.163-1.075 3.185l-1.137.765c-.169.114-.127 1.449-.127 1.449a14.267 14.267 0 0 0 2.146-.081l1.136-.765a5.981 5.981 0 0 0 4.718-.716" fill="#f7d7c5"/><path d="m52.751 38.159c-.345 0-.608 0-.619 0a.5.5 0 0 1 -.491-.484c0-.014-.011-.353 0-.713.022-.721.106-1 .347-1.167l.778-.524a2.92 2.92 0 0 1 1.434-3.43 8.656 8.656 0 0 1 4.528-1.276 4.7 4.7 0 0 1 2.625.662 2.342 2.342 0 0 1 1.064 1.992 4.248 4.248 0 0 1 -2 3.289 6.272 6.272 0 0 1 -3.476 1 6.288 6.288 0 0 1 -1.428-.16l-.95.64c-.135.093-.252.171-1.812.171zm-.115-1h.115a11.416 11.416 0 0 0 1.321-.044l1.072-.722a.5.5 0 0 1 .413-.067 5.2 5.2 0 0 0 1.388.181 5.339 5.339 0 0 0 2.917-.83 3.283 3.283 0 0 0 1.557-2.461 1.335 1.335 0 0 0 -.625-1.163 3.731 3.731 0 0 0 -2.064-.49 7.706 7.706 0 0 0 -3.97 1.106c-1.055.71-1.418 1.7-.926 2.512a.5.5 0 0 1 -.149.673l-1.011.68a5.484 5.484 0 0 0 -.038.625z" fill="#073358"/><path d="m57.437 33.476a.737.737 0 0 1 -.763.014.29.29 0 0 1 .025-.516.737.737 0 0 1 .763-.014.29.29 0 0 1 -.025.516" fill="#0e2f54"/><path d="m59.232 34.8a.737.737 0 0 1 -.763.014.29.29 0 0 1 .025-.516.737.737 0 0 1 .763-.014.29.29 0 0 1 -.025.516" fill="#0e2f54"/><path d="m59.291 33.348a6.684 6.684 0 0 1 -.292-1.5l-4.27.075s4.128-2.992 5.564-1.364c1.648-.424 5.7 2.186.637 5.4a23.934 23.934 0 0 1 -1.639-2.606" fill="#0c2e51"/><path d="m60.93 36.454a.5.5 0 0 1 -.408-.211 22.979 22.979 0 0 1 -1.692-2.7 5.3 5.3 0 0 1 -.277-1.189l-3.815.067a.5.5 0 0 1 -.3-.9c.11-.079 2.7-1.944 4.633-1.944a2.111 2.111 0 0 1 1.389.45q.109-.011.224-.011a3.423 3.423 0 0 1 3.116 2.177c.283.975.062 2.493-2.6 4.184a.5.5 0 0 1 -.27.077zm-1.93-5.11a.5.5 0 0 1 .5.459 6.009 6.009 0 0 0 .255 1.353 18.127 18.127 0 0 0 1.308 2.111c1.392-.974 2.022-1.957 1.778-2.795a2.432 2.432 0 0 0 -2.157-1.462 1.07 1.07 0 0 0 -.264.03.5.5 0 0 1 -.5-.153 1.065 1.065 0 0 0 -.849-.316 6.122 6.122 0 0 0 -2.512.817l2.433-.043z" fill="#073358"/><path d="m47.665 36.926s-6.707 3.93-8.9 5.505" fill="#fff"/><path d="m38.764 42.931a.5.5 0 0 1 -.292-.906c2.188-1.57 8.665-5.369 8.94-5.53a.5.5 0 1 1 .506.863c-.067.039-6.712 3.936-8.862 5.48a.5.5 0 0 1 -.292.093z" fill="#073358"/><path d="m55.126 37.567-6.426 2.515 3.446-4.534s-3.887-1.845-9.2 1.424l10.509 7.073s5.9-3.348 1.671-6.478" fill="#0e2f54"/><path d="m49.235 34.529a7.817 7.817 0 0 1 3.126.567l.556.264-2.742 3.607 5.025-1.967.222.165a3.525 3.525 0 0 1 1.723 3.029c-.145 2.386-3.309 4.206-3.445 4.286l-.269.153-5.511-3.709-.7.272.373-.49-5.576-3.753.662-.407a12.473 12.473 0 0 1 6.556-2.017zm2.1 1.266a8.008 8.008 0 0 0 -2.1-.266 11.124 11.124 0 0 0 -5.347 1.471l4.312 2.909zm2.138 7.656c.906-.58 2.6-1.936 2.68-3.319a2.449 2.449 0 0 0 -1.105-2l-5.989 2.344z" fill="#073358"/></g><g clip-path="url(#a)"><path d="m84.242 42.226-1.554-1.26 5.2-3.186 1.554 1.259z" fill="#d0514f"/><path d="m84.242 42.726a.5.5 0 0 1 -.315-.112l-1.554-1.26a.5.5 0 0 1 .054-.815l5.2-3.186a.5.5 0 0 1 .576.038l1.554 1.259a.5.5 0 0 1 -.053.815l-5.2 3.187a.5.5 0 0 1 -.262.074zm-.69-1.7.73.592 4.295-2.633-.73-.591z" fill="#05365d"/><path d="m67.714 52.481-29.39-19.918 19.9-13.4 29.387 19.923z" fill="#fff"/><path d="m67.714 52.981a.5.5 0 0 1 -.281-.086l-29.389-19.918a.5.5 0 0 1 0-.829l19.9-13.4a.5.5 0 0 1 .56 0l29.388 19.924a.5.5 0 0 1 0 .829l-19.9 13.4a.5.5 0 0 1 -.278.08zm-28.5-20.417 28.5 19.313 19-12.793-28.495-19.314z" fill="#05365d"/><path d="m0 0 8.806 5.968" fill="#fff" transform="translate(70.821 34.495)"/><path d="m8.806 6.468a.5.5 0 0 1 -.28-.086l-8.807-5.968a.5.5 0 0 1 -.133-.695.5.5 0 0 1 .695-.133l8.806 5.968a.5.5 0 0 1 -.281.914z" fill="#05365d" transform="translate(70.821 34.495)"/><path d="m0 0 8.806 5.968" fill="#fff" transform="translate(67.446 36.767)"/><path d="m8.806 6.468a.5.5 0 0 1 -.28-.086l-8.807-5.968a.5.5 0 0 1 -.133-.695.5.5 0 0 1 .695-.133l8.806 5.968a.5.5 0 0 1 -.281.914z" fill="#05365d" transform="translate(67.446 36.767)"/><path d="m0 0 8.806 5.968" fill="#fff" transform="translate(64.071 39.039)"/><path d="m8.806 6.468a.5.5 0 0 1 -.28-.086l-8.807-5.968a.5.5 0 0 1 -.133-.695.5.5 0 0 1 .695-.133l8.806 5.968a.5.5 0 0 1 -.281.914z" fill="#05365d" transform="translate(64.071 39.039)"/><path d="m0 0 8.806 5.968" fill="#fff" transform="translate(60.696 41.312)"/><g fill="#05365d"><path d="m8.806 6.468a.5.5 0 0 1 -.28-.086l-8.807-5.968a.5.5 0 0 1 -.133-.695.5.5 0 0 1 .695-.133l8.806 5.968a.5.5 0 0 1 -.281.914z" transform="translate(60.696 41.312)"/><path d="m56.676 41.167a.5.5 0 0 1 -.28-.086l-12.42-8.417a.5.5 0 0 1 0-.829l13.2-8.89a.5.5 0 0 1 .56 0l12.42 8.417a.5.5 0 0 1 0 .829l-13.2 8.89a.5.5 0 0 1 -.28.086zm-11.527-8.915 11.528 7.812 12.311-8.288-11.528-7.812z"/></g></g><g clip-path="url(#j)"><path d="m54.87 34.8c.752.509 2.151 2.287 1.539 3.429-.518.968-4.615 4.811-9.039 7.157l-1.625-1.049-1.111.7s-6.014-2.883-6.524-4.681c0 0 8.83-5.864 10.133-6.693s4.36-.435 5.008 0 1.619 1.137 1.619 1.137" fill="#fff"/><path d="m50.545 32.676a6.631 6.631 0 0 1 2.986.575c.623.422 1.548 1.082 1.624 1.137.814.555 2.5 2.569 1.694 4.076-.629 1.175-4.966 5.093-9.245 7.363a.5.5 0 0 1 -.504-.027l-1.357-.876-.841.53a.5.5 0 0 1 -.483.028c-.062-.03-1.543-.742-3.113-1.689a19.528 19.528 0 0 1 -2.278-1.567 3.927 3.927 0 0 1 -1.4-1.74.5.5 0 0 1 .2-.553c.361-.24 8.849-5.876 10.141-6.7a5.077 5.077 0 0 1 2.576-.557zm-3.152 12.124c4.418-2.406 8.174-6.064 8.575-6.813.412-.769-.677-2.3-1.378-2.779l-.01-.007c-.01-.007-.973-.695-1.609-1.126a6.054 6.054 0 0 0 -2.425-.4 4.04 4.04 0 0 0 -2.034.407c-1.133.721-8.085 5.333-9.762 6.447a10.121 10.121 0 0 0 3.072 2.411c1.161.7 2.3 1.281 2.782 1.522l.875-.551a.5.5 0 0 1 .538 0z" fill="#073358"/><path d="m54.585 34.829c-.649-.44-2.009-1.569-2.009-1.569a10.519 10.519 0 0 0 -4.733-.579 38.29 38.29 0 0 0 -10.626 6.082l1.548 1.1-1.04.748s4.247 4.072 6.909 4.423c0 0 7.891-5.94 9.122-6.818" fill="#fff"/><path d="m44.634 45.535a.5.5 0 0 1 -.065 0c-2.792-.368-7.011-4.387-7.19-4.558a.5.5 0 0 1 .054-.767l.472-.34-.978-.7a.5.5 0 0 1 -.035-.788 38.676 38.676 0 0 1 10.833-6.188 8.156 8.156 0 0 1 3.159.094 9.3 9.3 0 0 1 1.973.557l.038.029c.013.011 1.349 1.119 1.97 1.54a.5.5 0 0 1 -.561.828c-.6-.4-1.738-1.342-2-1.556a10.121 10.121 0 0 0 -4.347-.52 38.422 38.422 0 0 0 -9.923 5.566l1.017.723a.5.5 0 0 1 0 .813l-.542.39c1.1.988 4 3.452 5.989 3.847 1.187-.893 7.825-5.887 8.961-6.7a.5.5 0 1 1 .581.814c-1.212.864-9.033 6.751-9.112 6.81a.5.5 0 0 1 -.294.106z" fill="#073358"/><path d="m54.646 30.5a1.585 1.585 0 0 1 -1.623.119c-.4-.27-.317-.76.181-1.1a1.587 1.587 0 0 1 1.624-.119c.4.27.316.76-.182 1.1" fill="#f7d7c5"/><path d="m53.673 31.294a1.649 1.649 0 0 1 -.931-.259 1.025 1.025 0 0 1 -.472-.852 1.334 1.334 0 0 1 .654-1.073 2.3 2.3 0 0 1 1.253-.377 1.65 1.65 0 0 1 .931.259 1.025 1.025 0 0 1 .472.852 1.334 1.334 0 0 1 -.655 1.072 2.291 2.291 0 0 1 -1.252.378zm-.4-1.114a.159.159 0 0 0 .033.028.69.69 0 0 0 .37.086 1.285 1.285 0 0 0 .693-.206c.166-.112.209-.212.213-.24a.158.158 0 0 0 -.033-.028.691.691 0 0 0 -.37-.086 1.289 1.289 0 0 0 -.694.206c-.167.112-.21.211-.215.24z" fill="#073358"/><path d="m60.269 34.314a1.585 1.585 0 0 1 -1.623.119c-.4-.27-.317-.76.181-1.1a1.587 1.587 0 0 1 1.624-.119c.4.27.316.76-.182 1.1" fill="#f7d7c5"/><path d="m59.3 35.105a1.649 1.649 0 0 1 -.931-.259 1.025 1.025 0 0 1 -.476-.846 1.334 1.334 0 0 1 .654-1.073 2.3 2.3 0 0 1 1.253-.377 1.65 1.65 0 0 1 .931.259 1.025 1.025 0 0 1 .472.852 1.334 1.334 0 0 1 -.655 1.072 2.291 2.291 0 0 1 -1.248.372zm-.4-1.114a.159.159 0 0 0 .033.028.69.69 0 0 0 .37.086 1.285 1.285 0 0 0 .693-.206c.166-.112.209-.212.213-.24a.158.158 0 0 0 -.033-.028.691.691 0 0 0 -.37-.086 1.289 1.289 0 0 0 -.694.206c-.171.112-.212.211-.219.24z" fill="#073358"/><path d="m60.14 33.526c1.717-1.156 2.5-3.393.933-4.452s-4.877-.541-6.594.615c-1.326.892-1.691 2.163-1.075 3.185l-1.137.765c-.169.114-.127 1.449-.127 1.449a14.267 14.267 0 0 0 2.146-.081l1.136-.765a5.981 5.981 0 0 0 4.718-.716" fill="#f7d7c5"/><path d="m52.751 35.592c-.345 0-.608 0-.619 0a.5.5 0 0 1 -.491-.484c0-.014-.011-.353 0-.713.022-.721.106-1 .347-1.167l.778-.524a2.92 2.92 0 0 1 1.434-3.43 8.656 8.656 0 0 1 4.528-1.274 4.7 4.7 0 0 1 2.625.662 2.342 2.342 0 0 1 1.064 1.992 4.248 4.248 0 0 1 -2 3.289 6.272 6.272 0 0 1 -3.476 1 6.288 6.288 0 0 1 -1.428-.16l-.95.64c-.135.091-.252.169-1.812.169zm-.115-1h.115a11.416 11.416 0 0 0 1.321-.044l1.072-.722a.5.5 0 0 1 .413-.067 5.2 5.2 0 0 0 1.388.181 5.339 5.339 0 0 0 2.917-.83 3.283 3.283 0 0 0 1.557-2.461 1.335 1.335 0 0 0 -.625-1.163 3.731 3.731 0 0 0 -2.066-.486 7.706 7.706 0 0 0 -3.97 1.106c-1.055.71-1.418 1.7-.926 2.512a.5.5 0 0 1 -.149.673l-1.011.68a5.484 5.484 0 0 0 -.036.621z" fill="#073358"/><path d="m57.437 30.909a.737.737 0 0 1 -.763.014.29.29 0 0 1 .025-.516.737.737 0 0 1 .763-.014.29.29 0 0 1 -.025.516" fill="#0e2f54"/><path d="m59.232 32.236a.737.737 0 0 1 -.763.014.29.29 0 0 1 .025-.516.737.737 0 0 1 .763-.014.29.29 0 0 1 -.025.516" fill="#0e2f54"/><path d="m59.291 30.781a6.684 6.684 0 0 1 -.292-1.5l-4.27.075s4.128-2.992 5.564-1.364c1.648-.424 5.7 2.186.637 5.4a23.934 23.934 0 0 1 -1.639-2.606" fill="#0c2e51"/><path d="m60.93 33.887a.5.5 0 0 1 -.408-.211 22.98 22.98 0 0 1 -1.692-2.7 5.3 5.3 0 0 1 -.277-1.189l-3.815.067a.5.5 0 0 1 -.3-.9c.11-.079 2.7-1.944 4.633-1.944a2.111 2.111 0 0 1 1.389.45q.109-.011.224-.011a3.423 3.423 0 0 1 3.116 2.177c.283.975.062 2.493-2.6 4.184a.5.5 0 0 1 -.27.077zm-1.93-5.11a.5.5 0 0 1 .5.459 6.009 6.009 0 0 0 .255 1.353 18.127 18.127 0 0 0 1.305 2.111c1.392-.974 2.022-1.957 1.778-2.795a2.432 2.432 0 0 0 -2.157-1.462 1.07 1.07 0 0 0 -.264.03.5.5 0 0 1 -.5-.153 1.065 1.065 0 0 0 -.848-.32 6.122 6.122 0 0 0 -2.512.817l2.433-.043z" fill="#073358"/><path d="m47.665 34.359s-6.707 3.93-8.9 5.5" fill="#fff"/><path d="m38.764 40.364a.5.5 0 0 1 -.292-.906c2.188-1.57 8.665-5.369 8.94-5.53a.5.5 0 1 1 .506.863c-.067.039-6.712 3.936-8.862 5.48a.5.5 0 0 1 -.292.093z" fill="#073358"/><path d="m55.126 35-6.426 2.515 3.446-4.534s-3.887-1.845-9.2 1.424l10.509 7.073s5.9-3.348 1.671-6.478" fill="#0e2f54"/><path d="m49.235 31.962a7.817 7.817 0 0 1 3.126.567l.556.264-2.741 3.607 5.024-1.966.222.165a3.525 3.525 0 0 1 1.723 3.029c-.145 2.386-3.31 4.209-3.445 4.286l-.269.153-5.511-3.709-.7.272.373-.49-5.576-3.753.662-.407a12.473 12.473 0 0 1 6.556-2.018zm2.1 1.266a8.008 8.008 0 0 0 -2.1-.266 11.124 11.124 0 0 0 -5.347 1.474l4.312 2.906zm2.138 7.656c.906-.58 2.6-1.936 2.68-3.319a2.449 2.449 0 0 0 -1.105-2l-5.989 2.344z" fill="#073358"/></g><g clip-path="url(#a)"><path d="m67.714 49.924-29.39-19.918 19.9-13.4 29.387 19.923z" fill="#fff"/><path d="m67.714 50.424a.5.5 0 0 1 -.281-.086l-29.389-19.918a.5.5 0 0 1 0-.829l19.9-13.4a.5.5 0 0 1 .56 0l29.388 19.924a.5.5 0 0 1 0 .829l-19.9 13.4a.5.5 0 0 1 -.278.08zm-28.5-20.417 28.5 19.313 19-12.793-28.5-19.314z" fill="#05365d"/><path d="m0 0 8.806 5.968" fill="#fff" transform="translate(70.821 31.938)"/><path d="m8.806 6.468a.5.5 0 0 1 -.28-.086l-8.807-5.968a.5.5 0 0 1 -.133-.695.5.5 0 0 1 .695-.133l8.806 5.968a.5.5 0 0 1 -.281.914z" fill="#05365d" transform="translate(70.821 31.938)"/><path d="m0 0 8.806 5.968" fill="#fff" transform="translate(67.446 34.211)"/><path d="m8.806 6.468a.5.5 0 0 1 -.28-.086l-8.807-5.968a.5.5 0 0 1 -.133-.695.5.5 0 0 1 .695-.133l8.806 5.968a.5.5 0 0 1 -.281.914z" fill="#05365d" transform="translate(67.446 34.211)"/><path d="m0 0 8.806 5.968" fill="#fff" transform="translate(64.071 36.483)"/><path d="m8.806 6.468a.5.5 0 0 1 -.28-.086l-8.807-5.968a.5.5 0 0 1 -.133-.695.5.5 0 0 1 .695-.133l8.806 5.968a.5.5 0 0 1 -.281.914z" fill="#05365d" transform="translate(64.071 36.483)"/><path d="m0 0 8.806 5.968" fill="#fff" transform="translate(60.696 38.755)"/><g fill="#05365d"><path d="m8.806 6.468a.5.5 0 0 1 -.28-.086l-8.807-5.968a.5.5 0 0 1 -.133-.695.5.5 0 0 1 .695-.133l8.806 5.968a.5.5 0 0 1 -.281.914z" transform="translate(60.696 38.755)"/><path d="m56.676 38.611a.5.5 0 0 1 -.28-.086l-12.42-8.417a.5.5 0 0 1 0-.829l13.2-8.89a.5.5 0 0 1 .56 0l12.42 8.417a.5.5 0 0 1 0 .829l-13.2 8.89a.5.5 0 0 1 -.28.086zm-11.527-8.911 11.528 7.812 12.311-8.292-11.528-7.813z"/></g></g><g clip-path="url(#k)"><path d="m54.87 32.242c.752.509 2.151 2.287 1.539 3.429-.518.968-4.615 4.811-9.039 7.157l-1.625-1.049-1.111.7s-6.014-2.879-6.524-4.679c0 0 8.83-5.864 10.133-6.693s4.36-.435 5.008 0 1.619 1.133 1.619 1.133" fill="#fff"/><path d="m50.545 30.12a6.631 6.631 0 0 1 2.986.575c.623.422 1.548 1.082 1.624 1.137.814.555 2.5 2.569 1.694 4.076-.628 1.175-4.965 5.092-9.249 7.362a.5.5 0 0 1 -.505-.022l-1.357-.876-.841.53a.5.5 0 0 1 -.483.028c-.062-.03-1.543-.742-3.113-1.689a19.528 19.528 0 0 1 -2.278-1.567 3.927 3.927 0 0 1 -1.4-1.74.5.5 0 0 1 .2-.553c.361-.24 8.849-5.876 10.141-6.7a5.077 5.077 0 0 1 2.581-.561zm-3.152 12.128c4.418-2.406 8.174-6.064 8.575-6.813.412-.769-.677-2.3-1.378-2.779l-.01-.007c-.01-.007-.973-.695-1.609-1.126a6.054 6.054 0 0 0 -2.425-.4 4.04 4.04 0 0 0 -2.034.407c-1.133.721-8.085 5.333-9.762 6.447a10.121 10.121 0 0 0 3.072 2.411c1.161.7 2.3 1.281 2.782 1.522l.875-.551a.5.5 0 0 1 .538 0z" fill="#073358"/><path d="m54.585 32.273c-.649-.44-2.009-1.569-2.009-1.569a10.518 10.518 0 0 0 -4.733-.579 38.29 38.29 0 0 0 -10.626 6.082l1.548 1.1-1.04.748s4.247 4.072 6.909 4.423c0 0 7.891-5.941 9.122-6.818" fill="#fff"/><path d="m44.634 42.979a.5.5 0 0 1 -.065 0c-2.792-.368-7.011-4.387-7.19-4.558a.5.5 0 0 1 .054-.767l.472-.34-.978-.7a.5.5 0 0 1 -.035-.788 38.676 38.676 0 0 1 10.833-6.188 8.156 8.156 0 0 1 3.159.094 9.3 9.3 0 0 1 1.973.557l.038.029c.013.011 1.349 1.119 1.97 1.54a.5.5 0 0 1 -.561.828c-.6-.4-1.738-1.342-2-1.556a10.121 10.121 0 0 0 -4.347-.52 38.422 38.422 0 0 0 -9.923 5.566l1.017.723a.5.5 0 0 1 0 .813l-.542.39c1.1.988 4 3.452 5.989 3.847 1.187-.893 7.825-5.888 8.962-6.7a.5.5 0 1 1 .58.814c-1.212.863-9.033 6.751-9.111 6.81a.5.5 0 0 1 -.295.106z" fill="#073358"/><path d="m54.646 27.947a1.585 1.585 0 0 1 -1.623.119c-.4-.27-.317-.76.181-1.1a1.587 1.587 0 0 1 1.624-.119c.4.27.316.76-.182 1.1" fill="#f7d7c5"/><path d="m53.673 28.738a1.649 1.649 0 0 1 -.931-.259 1.025 1.025 0 0 1 -.472-.852 1.334 1.334 0 0 1 .654-1.073 2.3 2.3 0 0 1 1.253-.377 1.65 1.65 0 0 1 .931.259 1.025 1.025 0 0 1 .472.852 1.334 1.334 0 0 1 -.655 1.072 2.291 2.291 0 0 1 -1.252.378zm-.4-1.114a.159.159 0 0 0 .033.028.69.69 0 0 0 .37.086 1.285 1.285 0 0 0 .693-.206c.166-.112.209-.212.213-.24a.158.158 0 0 0 -.033-.028.691.691 0 0 0 -.37-.086 1.289 1.289 0 0 0 -.694.206c-.167.116-.21.216-.215.24z" fill="#073358"/><path d="m60.269 31.757a1.585 1.585 0 0 1 -1.623.119c-.4-.27-.317-.76.181-1.1a1.587 1.587 0 0 1 1.624-.119c.4.27.316.76-.182 1.1" fill="#f7d7c5"/><path d="m59.3 32.548a1.649 1.649 0 0 1 -.931-.259 1.025 1.025 0 0 1 -.472-.852 1.334 1.334 0 0 1 .654-1.073 2.3 2.3 0 0 1 1.253-.377 1.65 1.65 0 0 1 .931.259 1.025 1.025 0 0 1 .472.852 1.334 1.334 0 0 1 -.655 1.072 2.291 2.291 0 0 1 -1.252.378zm-.4-1.114a.159.159 0 0 0 .033.028.69.69 0 0 0 .37.086 1.285 1.285 0 0 0 .693-.206c.166-.112.209-.212.213-.24a.158.158 0 0 0 -.033-.028.691.691 0 0 0 -.37-.086 1.289 1.289 0 0 0 -.694.206c-.171.112-.212.211-.219.24z" fill="#073358"/><path d="m60.14 30.969c1.717-1.156 2.5-3.393.933-4.452s-4.877-.541-6.594.615c-1.326.892-1.691 2.163-1.075 3.185l-1.137.765c-.169.114-.127 1.449-.127 1.449a14.267 14.267 0 0 0 2.146-.081l1.136-.766a5.977 5.977 0 0 0 4.718-.715" fill="#f7d7c5"/><path d="m52.751 33.035c-.345 0-.608 0-.619 0a.5.5 0 0 1 -.491-.484c0-.014-.011-.353 0-.713.022-.721.106-1 .347-1.167l.778-.524a2.92 2.92 0 0 1 1.434-3.43 8.656 8.656 0 0 1 4.528-1.276 4.7 4.7 0 0 1 2.625.662 2.342 2.342 0 0 1 1.064 1.992 4.248 4.248 0 0 1 -2 3.289 6.268 6.268 0 0 1 -3.474 1 6.417 6.417 0 0 1 -1.43-.16l-.95.641c-.135.092-.252.17-1.812.17zm-.115-1h.115a11.421 11.421 0 0 0 1.321-.044l1.071-.722a.5.5 0 0 1 .413-.067 5.191 5.191 0 0 0 1.389.182 5.335 5.335 0 0 0 2.915-.83 3.283 3.283 0 0 0 1.557-2.461 1.335 1.335 0 0 0 -.625-1.163 3.731 3.731 0 0 0 -2.064-.49 7.706 7.706 0 0 0 -3.97 1.106c-1.055.71-1.418 1.7-.926 2.512a.5.5 0 0 1 -.149.673l-1.011.68a5.484 5.484 0 0 0 -.036.624z" fill="#073358"/><path d="m57.437 28.353a.737.737 0 0 1 -.763.014.29.29 0 0 1 .025-.516.737.737 0 0 1 .763-.014.29.29 0 0 1 -.025.516" fill="#0e2f54"/><path d="m59.232 29.68a.737.737 0 0 1 -.763.014.29.29 0 0 1 .025-.516.737.737 0 0 1 .763-.014.29.29 0 0 1 -.025.516" fill="#0e2f54"/><path d="m59.291 28.224a6.684 6.684 0 0 1 -.291-1.504l-4.27.075s4.128-2.992 5.564-1.364c1.648-.424 5.7 2.186.637 5.4a23.934 23.934 0 0 1 -1.639-2.606" fill="#0c2e51"/><path d="m60.93 31.33a.5.5 0 0 1 -.408-.211 22.979 22.979 0 0 1 -1.692-2.7 5.3 5.3 0 0 1 -.277-1.189l-3.815.067a.5.5 0 0 1 -.3-.9c.11-.079 2.7-1.944 4.633-1.944a2.111 2.111 0 0 1 1.389.45q.109-.011.224-.011a3.423 3.423 0 0 1 3.116 2.177c.283.975.062 2.493-2.6 4.184a.5.5 0 0 1 -.27.077zm-1.93-5.11a.5.5 0 0 1 .5.459 6.009 6.009 0 0 0 .255 1.353 18.127 18.127 0 0 0 1.308 2.111c1.392-.974 2.022-1.957 1.778-2.795a2.432 2.432 0 0 0 -2.157-1.462 1.07 1.07 0 0 0 -.264.03.5.5 0 0 1 -.5-.153 1.065 1.065 0 0 0 -.849-.316 6.122 6.122 0 0 0 -2.512.817l2.433-.043z" fill="#073358"/><path d="m47.665 31.8s-6.707 3.93-8.9 5.5" fill="#fff"/><path d="m38.764 37.808a.5.5 0 0 1 -.292-.906c2.188-1.57 8.665-5.369 8.94-5.53a.5.5 0 0 1 .506.863c-.067.039-6.712 3.936-8.862 5.48a.5.5 0 0 1 -.292.093z" fill="#073358"/><path d="m55.126 32.444-6.426 2.515 3.446-4.534s-3.887-1.845-9.2 1.424l10.509 7.073s5.9-3.348 1.671-6.478" fill="#0e2f54"/><path d="m49.235 29.406a7.817 7.817 0 0 1 3.126.567l.556.264-2.742 3.607 5.025-1.966.222.165a3.525 3.525 0 0 1 1.723 3.029c-.145 2.385-3.309 4.208-3.445 4.285l-.269.153-5.509-3.71-.7.272.373-.49-5.573-3.752.662-.407a12.473 12.473 0 0 1 6.551-2.017zm2.1 1.266a8.008 8.008 0 0 0 -2.1-.266 11.124 11.124 0 0 0 -5.347 1.474l4.312 2.906zm2.138 7.656c.906-.58 2.6-1.936 2.68-3.319a2.449 2.449 0 0 0 -1.105-2l-5.989 2.344z" fill="#073358"/></g><g clip-path="url(#a)"><path d="m81.946 36.631-1.554-1.26 5.2-3.186 1.554 1.259z" fill="#7d9d60"/><path d="m81.946 37.131a.5.5 0 0 1 -.315-.112l-1.554-1.26a.5.5 0 0 1 .054-.815l5.2-3.186a.5.5 0 0 1 .576.038l1.554 1.259a.5.5 0 0 1 -.053.815l-5.2 3.187a.5.5 0 0 1 -.262.074zm-.69-1.7.73.592 4.295-2.633-.73-.591z" fill="#053760"/><path d="m68.234 44.224-31.676-16.037 18.042-15.807 31.675 16.037z" fill="#fff"/><path d="m68.234 44.724a.5.5 0 0 1 -.226-.054l-31.676-16.037a.5.5 0 0 1 -.1-.822l18.037-15.811a.5.5 0 0 1 .555-.07l31.676 16.041a.5.5 0 0 1 .1.822l-18.037 15.807a.5.5 0 0 1 -.329.124zm-30.79-16.648 30.714 15.55 17.23-15.1-30.714-15.547z" fill="#053760"/><path d="m0 0 9.49 4.805" fill="#fff" transform="translate(69.038 25.99)"/><path d="m9.49 5.305a.5.5 0 0 1 -.225-.054l-9.491-4.805a.5.5 0 0 1 -.22-.672.5.5 0 0 1 .672-.22l9.49 4.8a.5.5 0 0 1 -.226.946z" fill="#05365d" transform="translate(69.038 25.99)"/><path d="m0 0 9.49 4.805" fill="#fff" transform="translate(65.978 28.671)"/><path d="m9.49 5.305a.5.5 0 0 1 -.225-.054l-9.491-4.805a.5.5 0 0 1 -.22-.672.5.5 0 0 1 .672-.22l9.49 4.8a.5.5 0 0 1 -.226.946z" fill="#05365d" transform="translate(65.978 28.671)"/><path d="m0 0 9.49 4.805" fill="#fff" transform="translate(62.918 31.352)"/><path d="m9.49 5.305a.5.5 0 0 1 -.225-.054l-9.491-4.805a.5.5 0 0 1 -.22-.672.5.5 0 0 1 .672-.22l9.49 4.8a.5.5 0 0 1 -.226.946z" fill="#05365d" transform="translate(62.918 31.352)"/><path d="m0 0 9.49 4.805" fill="#fff" transform="translate(59.858 34.034)"/><path d="m9.49 5.305a.5.5 0 0 1 -.225-.054l-9.491-4.805a.5.5 0 0 1 -.22-.672.5.5 0 0 1 .672-.22l9.49 4.8a.5.5 0 0 1 -.226.946z" fill="#05365d" transform="translate(59.858 34.034)"/><path d="m55.789 33.9-13.389-6.773 11.976-10.491 13.385 6.777z" fill="#fff"/><path d="m55.788 34.4a.5.5 0 0 1 -.226-.054l-13.385-6.773a.5.5 0 0 1 -.1-.822l11.97-10.491a.5.5 0 0 1 .555-.07l13.385 6.777a.5.5 0 0 1 .1.822l-11.969 10.491a.5.5 0 0 1 -.33.12zm-12.5-7.389 12.424 6.29 11.162-9.781-12.423-6.29z" fill="#05365d"/></g><g clip-path="url(#l)"><path d="m53.254 28.311c.81.41 2.423 2 1.961 3.206-.392 1.027-3.969 5.357-8.061 8.244l-1.744-.834-1.014.834s-6.33-2.1-7.064-3.817c0 0 8.016-6.934 9.2-7.922s4.27-.984 4.969-.63 1.749.919 1.749.919" fill="#fff"/><path d="m49.935 26.676a4.891 4.891 0 0 1 1.8.27c.671.341 1.674.878 1.755.922.877.447 2.806 2.232 2.2 3.828-.476 1.246-4.283 5.682-8.24 8.474a.5.5 0 0 1 -.5.043l-1.457-.7-.768.632a.5.5 0 0 1 -.475.088c-.066-.022-1.625-.54-3.3-1.281a19.514 19.514 0 0 1 -2.458-1.266 3.927 3.927 0 0 1 -1.607-1.549.5.5 0 0 1 .115-.571c.08-.069 8.033-6.949 9.211-7.928a6.626 6.626 0 0 1 3.724-.962zm-2.835 12.507c4.077-2.945 7.341-7.05 7.644-7.844.311-.814-.964-2.2-1.72-2.582l-.011-.006c-.01-.006-1.053-.565-1.739-.914a3.918 3.918 0 0 0 -1.344-.162 5.394 5.394 0 0 0 -3.079.731c-1.033.859-7.344 6.314-8.867 7.63a10.1 10.1 0 0 0 3.346 2c1.241.548 2.446.982 2.959 1.16l.8-.657a.5.5 0 0 1 .533-.065z" fill="#073358"/><path d="m52.975 28.377c-.7-.354-2.192-1.3-2.192-1.3a10.516 10.516 0 0 0 -4.768.025 38.286 38.286 0 0 0 -9.77 7.379l1.674.9-.936.874s4.728 3.5 7.413 3.513c0 0 7.075-6.892 8.186-7.919" fill="#fff"/><path d="m44.4 40.261c-2.816-.012-7.51-3.464-7.709-3.611a.5.5 0 0 1 -.044-.767l.425-.4-1.058-.566a.5.5 0 0 1 -.135-.777 38.671 38.671 0 0 1 9.962-7.51 8.157 8.157 0 0 1 3.146-.306 9.282 9.282 0 0 1 2.027.3l.041.023c.015.009 1.481.939 2.15 1.278a.5.5 0 1 1 -.452.892c-.643-.326-1.895-1.111-2.178-1.291a10.119 10.119 0 0 0 -4.378.035 38.415 38.415 0 0 0 -9.138 6.778l1.1.588a.5.5 0 0 1 .106.806l-.488.455c1.215.84 4.405 2.918 6.428 3.059 1.064-1.036 7.017-6.831 8.042-7.779a.5.5 0 0 1 .679.734c-1.094 1.011-8.106 7.841-8.177 7.91a.5.5 0 0 1 -.349.149z" fill="#073358"/><path d="m52.488 24.078a1.587 1.587 0 0 1 -1.595.324c-.429-.218-.411-.715.041-1.111a1.585 1.585 0 0 1 1.6-.323c.43.217.411.714-.041 1.11" fill="#f7d7c5"/><path d="m51.366 25a1.534 1.534 0 0 1 -.7-.155 1.027 1.027 0 0 1 -.577-.788 1.333 1.333 0 0 1 .514-1.146 2.263 2.263 0 0 1 1.45-.548 1.532 1.532 0 0 1 .7.156 1.024 1.024 0 0 1 .576.785 1.333 1.333 0 0 1 -.514 1.147 2.265 2.265 0 0 1 -1.449.549zm-.283-1.071a.155.155 0 0 0 .037.024.57.57 0 0 0 .247.047 1.273 1.273 0 0 0 .792-.3.462.462 0 0 0 .181-.264.158.158 0 0 0 -.036-.023.569.569 0 0 0 -.249-.048 1.271 1.271 0 0 0 -.791.3.456.456 0 0 0 -.181.267z" fill="#073358"/><path d="m58.548 27.146a1.587 1.587 0 0 1 -1.6.324c-.429-.218-.411-.715.041-1.111a1.585 1.585 0 0 1 1.6-.323c.43.217.411.714-.041 1.11" fill="#f7d7c5"/><path d="m57.426 28.071a1.534 1.534 0 0 1 -.7-.155 1.027 1.027 0 0 1 -.577-.788 1.333 1.333 0 0 1 .514-1.146 2.263 2.263 0 0 1 1.45-.548 1.532 1.532 0 0 1 .7.156 1.024 1.024 0 0 1 .576.785 1.333 1.333 0 0 1 -.514 1.147 2.265 2.265 0 0 1 -1.449.549zm-.283-1.071a.155.155 0 0 0 .037.024.57.57 0 0 0 .247.047 1.273 1.273 0 0 0 .792-.3.462.462 0 0 0 .181-.264.158.158 0 0 0 -.036-.023.569.569 0 0 0 -.249-.048 1.271 1.271 0 0 0 -.791.3.456.456 0 0 0 -.181.264z" fill="#073358"/><path d="m58.32 26.381c1.557-1.364 2.047-3.682.362-4.535s-4.907.082-6.464 1.446c-1.2 1.053-1.4 2.359-.663 3.3l-1.03.9c-.154.134.057 1.453.057 1.453a14.205 14.205 0 0 0 2.118-.352l1.031-.9a5.976 5.976 0 0 0 4.589-1.307" fill="#f7d7c5"/><path d="m50.581 29.443a.5.5 0 0 1 -.493-.421c0-.014-.056-.349-.09-.707-.069-.719-.021-1.011.2-1.2l.7-.617a2.923 2.923 0 0 1 .988-3.58 8.68 8.68 0 0 1 5.188-1.9 4.04 4.04 0 0 1 1.832.381 2.343 2.343 0 0 1 1.308 1.842 4.248 4.248 0 0 1 -1.566 3.515 6.436 6.436 0 0 1 -4.144 1.485 6.067 6.067 0 0 1 -.613-.031l-.863.756c-.115.1-.272.239-2.393.473a.5.5 0 0 1 -.054.004zm.387-1.677a5.475 5.475 0 0 0 .043.623c.612-.076 1.215-.167 1.416-.224l.974-.853a.5.5 0 0 1 .4-.119 5.045 5.045 0 0 0 .7.049 5.409 5.409 0 0 0 3.49-1.242 3.284 3.284 0 0 0 1.233-2.638 1.336 1.336 0 0 0 -.767-1.075 3.108 3.108 0 0 0 -1.38-.273 7.692 7.692 0 0 0 -4.529 1.649c-.955.838-1.191 1.862-.6 2.609a.5.5 0 0 1 -.063.686z" fill="#073358"/><path d="m55.308 24.128a.734.734 0 0 1 -.755.11.289.289 0 0 1 -.04-.514.736.736 0 0 1 .755-.111.29.29 0 0 1 .04.515" fill="#0e2f54"/><path d="m57.257 25.217a.736.736 0 0 1 -.756.11.289.289 0 0 1 -.04-.514.736.736 0 0 1 .755-.111.291.291 0 0 1 .041.515" fill="#0e2f54"/><path d="m57.131 23.766a6.666 6.666 0 0 1 -.48-1.455l-4.226.615s3.716-3.491 5.346-2.057c1.582-.629 5.929 1.447 1.316 5.274a23.816 23.816 0 0 1 -1.956-2.377" fill="#0c2e51"/><path d="m59.087 26.643a.5.5 0 0 1 -.368-.161 22.868 22.868 0 0 1 -2.019-2.466 5.279 5.279 0 0 1 -.425-1.144l-3.776.549a.5.5 0 0 1 -.414-.859 15.039 15.039 0 0 1 1.561-1.248 5.933 5.933 0 0 1 3.141-1.291 1.986 1.986 0 0 1 1.082.294 2.531 2.531 0 0 1 .565-.06 3.335 3.335 0 0 1 3.079 1.929c.329.911.23 2.4-2.1 4.341a.5.5 0 0 1 -.326.116zm-2.436-4.832a.5.5 0 0 1 .489.4 5.992 5.992 0 0 0 .424 1.31 18.043 18.043 0 0 0 1.565 1.928c1.215-1.1 1.725-2.131 1.441-2.919a2.364 2.364 0 0 0 -2.138-1.268 1.321 1.321 0 0 0 -.476.076.5.5 0 0 1 -.515-.089.948.948 0 0 0 -.656-.221 5.4 5.4 0 0 0 -2.617 1.144l2.412-.351a.5.5 0 0 1 .072-.01z" fill="#073358"/><path d="m46.051 28.787s-6.151 4.748-8.131 6.587" fill="#fff"/><path d="m37.92 35.874a.5.5 0 0 1 -.341-.866c1.971-1.834 7.914-6.422 8.166-6.617a.5.5 0 0 1 .611.792c-.061.047-6.158 4.755-8.1 6.557a.5.5 0 0 1 -.336.134z" fill="#073358"/><path d="m53.534 28.478-6.055 3.309 2.844-4.935s-4.089-1.337-8.946 2.578l11.323 5.686s5.428-4.068.837-6.638" fill="#228cbf"/><path d="m48.525 26.132a6.813 6.813 0 0 1 1.954.245.5.5 0 0 1 .278.725l-1.957 3.393 4.494-2.456a.5.5 0 0 1 .484 0 3.525 3.525 0 0 1 2.093 2.787c.159 2.385-2.751 4.594-2.875 4.687a.5.5 0 0 1 -.524.047l-11.32-5.686a.5.5 0 0 1 -.089-.836 11.846 11.846 0 0 1 7.462-2.906zm1.02 1.069a7.336 7.336 0 0 0 -1.02-.069 10.561 10.561 0 0 0 -6.209 2.21l4.673 2.347a.5.5 0 0 1 .057-.152zm3.091 7.325c.825-.69 2.331-2.249 2.238-3.632a2.45 2.45 0 0 0 -1.349-1.841l-5.644 3.084z" fill="#053760"/></g><g clip-path="url(#a)"><path d="m81.342 29.744-1.742-.978 4.583-4.022 1.745.978z" fill="#f4d151"/><path d="m81.342 30.244a.5.5 0 0 1 -.244-.064l-1.745-.98a.5.5 0 0 1 -.085-.812l4.583-4.022a.5.5 0 0 1 .574-.06l1.745.978a.5.5 0 0 1 .085.812l-4.583 4.024a.5.5 0 0 1 -.33.124zm-.884-1.569.82.459 3.786-3.322-.82-.459z" fill="#063964"/><path d="m55.552 24.912 1.691.955.947-.813-1.771-.964z" fill="#fff"/><path d="m56.419 23.79a.3.3 0 0 1 .143.037l1.771.964a.3.3 0 0 1 .052.491l-.947.813a.3.3 0 0 1 -.343.034l-1.695-.956a.3.3 0 0 1 -.059-.479l.867-.822a.3.3 0 0 1 .211-.082zm1.246 1.32-1.2-.652-.414.393 1.154.652z" fill="#073358"/><path d="m53.059 23.518 1.691.955.947-.813-1.771-.96z" fill="#fff"/><path d="m53.926 22.4a.3.3 0 0 1 .143.037l1.771.964a.3.3 0 0 1 .052.491l-.947.813a.3.3 0 0 1 -.343.034l-1.691-.955a.3.3 0 0 1 -.059-.479l.867-.822a.3.3 0 0 1 .207-.083zm1.246 1.32-1.2-.652-.414.393 1.154.652z" fill="#073358"/><path d="m78.855 57.293a.5.5 0 0 1 -.381-.176s-.027-.031-.074-.092a.5.5 0 1 1 .787-.618l.052.064a.5.5 0 0 1 -.382.822zm-1.115-1.773a.5.5 0 0 1 -.447-.276l-.046-.093a.5.5 0 0 1 .9-.44l.043.086a.5.5 0 0 1 -.447.724zm-.763-1.953a.5.5 0 0 1 -.477-.367l-.028-.1a.5.5 0 1 1 .965-.264l.026.092a.5.5 0 0 1 -.481.637z" fill="#f4d151"/><path d="m78.143 59.6a.5.5 0 0 1 -.029-1l2.21-.13.38-2.25a.5.5 0 0 1 .986.166l-.446 2.643a.5.5 0 0 1 -.464.416l-2.607.153z" fill="#f4d151"/><path d="m47.684 56.652a.5.5 0 0 1 -.494-.583s.007-.04.022-.114a.5.5 0 0 1 .98.2c-.01.05-.015.078-.016.082a.5.5 0 0 1 -.492.415zm.6-2.007a.5.5 0 0 1 -.466-.682l.038-.1a.5.5 0 0 1 .929.37l-.035.09a.5.5 0 0 1 -.464.322zm.9-1.9a.5.5 0 0 1 -.432-.745l.051-.09a.5.5 0 0 1 .867.5l-.048.084a.5.5 0 0 1 -.435.256zm1.168-1.743a.5.5 0 0 1 -.393-.809l.064-.081a.5.5 0 0 1 .782.624l-.06.075a.5.5 0 0 1 -.391.195zm1.424-1.541a.5.5 0 0 1 -.339-.868l.077-.07a.5.5 0 1 1 .671.741l-.071.065a.5.5 0 0 1 -.336.136z" fill="#7d9d60"/><path d="m46.8 59.443a.5.5 0 0 1 -.419-.228l-1.461-2.247a.5.5 0 0 1 .838-.545l1.242 1.914 2.079-.761a.5.5 0 0 1 .344.939l-2.453.9a.5.5 0 0 1 -.17.028z" fill="#7d9d60"/><g fill="#d0514f"><path d="m33.983 43.131a.5.5 0 0 1 -.4-.8c.008-.01.037-.048.09-.108a.5.5 0 1 1 .746.666c-.023.026-.036.042-.041.048a.5.5 0 0 1 -.395.194zm1.663-1.267a.5.5 0 0 1 -.24-.939l.093-.05a.5.5 0 1 1 .471.882l-.083.045a.5.5 0 0 1 -.24.063zm1.93-.818a.5.5 0 0 1 -.154-.976l.1-.032a.5.5 0 0 1 .3.953l-.092.029a.5.5 0 0 1 -.153.026zm2.036-.507a.5.5 0 0 1 -.089-.992l.1-.018a.5.5 0 1 1 .175.985l-.1.017a.5.5 0 0 1 -.085.008zm2.082-.269a.5.5 0 0 1 -.04-1h.039a.5.5 0 1 1 .079 1h-.037z"/><path d="m34.19 45.724a.5.5 0 0 1 -.19-.039l-2.827-1.192a.5.5 0 0 1 -.283-.609l.531-1.708a.5.5 0 1 1 .955.3l-.4 1.275 2.409 1.016a.5.5 0 0 1 -.194.961z"/></g></g></g><circle cx="8" cy="8" fill="#c0a56d" r="8" transform="translate(87 5)"/><g fill="#fff"><path d="m8 1a7 7 0 1 0 7 7 7.008 7.008 0 0 0 -7-7m0-1a8 8 0 1 1 -8 8 8 8 0 0 1 8-8z" transform="translate(87 5)"/><text font-family="HiraMaruProN-W4, Hiragino Maru Gothic ProN" font-size="10" transform="translate(95 17)"><tspan x="-2.895" y="0">?</tspan></text></g></g></svg>