<svg height="42" viewBox="0 0 42 42" width="42" xmlns="http://www.w3.org/2000/svg" xmlns:xlink="http://www.w3.org/1999/xlink"><clipPath id="a"><circle cx="3127" cy="-3165" r="21"/></clipPath><clipPath id="b"><path d="m0-2h27v37h-27z"/></clipPath><clipPath id="c"><path d="m0-2h26.971v39.45h-26.971z"/></clipPath><g transform="translate(-3106 3186)"><circle cx="3127" cy="-3165" fill="#fff" opacity=".42" r="21"/><g clip-path="url(#a)"><g clip-path="url(#b)" transform="translate(3113 -3179)"><g clip-path="url(#c)" transform="translate(.104)"><path d="m29.818 50.068s-1.193-8.807-2.418-10.844c-1.539-2.565-7.582-5.705-7.582-5.705h-2.779s-5.284 2.933-6.823 5.5c-1.222 2.035-2.209 11.049-2.209 11.049" fill="#fff" transform="translate(-3.537 -14.805)"/><path d="m29.817 50.788a.72.72 0 0 1 -.713-.623c-.327-2.409-1.38-9-2.32-10.57-1.141-1.9-5.4-4.432-7.142-5.356h-2.413c-.877.5-5.117 3.017-6.4 5.149-.936 1.56-1.841 8.3-2.11 10.759a.72.72 0 1 1 -1.431-.157c.1-.939 1.041-9.232 2.307-11.343 1.62-2.7 6.869-5.634 7.091-5.757a.72.72 0 0 1 .349-.09h2.785a.72.72 0 0 1 .332.081c.254.132 6.242 3.265 7.868 5.974 1.262 2.1 2.388 10.2 2.512 11.118a.721.721 0 0 1 -.714.817z" fill="#073a64" transform="translate(-3.537 -14.805)"/><path d="m28.121 37.961-2.361 4.472-2.577-3.133-2.2 2.819-2.053-4.524" fill="#fff" transform="translate(-8.359 -16.605)"/><path d="m25.761 43.153a.72.72 0 0 1 -.556-.263l-2.005-2.441-1.652 2.112a.72.72 0 0 1 -1.223-.146l-2.055-4.524a.72.72 0 1 1 1.311-.6l1.562 3.442 1.473-1.884a.72.72 0 0 1 1.123-.014l1.89 2.3 1.855-3.515a.72.72 0 0 1 1.273.672l-2.357 4.478a.72.72 0 0 1 -.637.384z" fill="#073a64" transform="translate(-8.359 -16.605)"/><path d="m13.162 2.707a4.009 4.009 0 0 0 -4.117-.755 3.991 3.991 0 0 0 -2.779 4.411c.266 3.143 1.433 4.431-.238 6.728-1.1 1.508-.849 4.55 1.11 5.591 2.214 1.177-.663 3.844-.663 3.844s5.891-.409 5.3-4.65a10.167 10.167 0 0 1 .566-5.59s1.127-6.278.818-9.58" fill="#0f2f54" transform="translate(-2.376 -.762)"/><path d="m10.539 1a4.393 4.393 0 0 1 3.155 1.218.72.72 0 0 1 .184.417c.314 3.361-.78 9.514-.827 9.774a.72.72 0 0 1 -.066.2 9.66 9.66 0 0 0 -.5 5.167 3.992 3.992 0 0 1 -.827 3.189c-1.634 2.014-5 2.269-5.138 2.279a.72.72 0 0 1 -.534-1.244c.45-.419 1.351-1.5 1.264-2.165-.011-.081-.039-.3-.45-.515a4.087 4.087 0 0 1 -2-2.779 4.884 4.884 0 0 1 .649-3.871c.989-1.359.812-2.219.491-3.779a19.967 19.967 0 0 1 -.389-2.465 4.879 4.879 0 0 1 1.206-3.861 4.872 4.872 0 0 1 2.084-1.3 6.031 6.031 0 0 1 1.698-.265zm1.928 2.047a3.135 3.135 0 0 0 -1.927-.607 4.594 4.594 0 0 0 -1.291.2 3.417 3.417 0 0 0 -1.438.906 3.438 3.438 0 0 0 -.828 2.754 18.771 18.771 0 0 0 .364 2.3c.336 1.633.625 3.043-.737 4.916a3.516 3.516 0 0 0 -.411 2.7 2.733 2.733 0 0 0 1.276 1.831 2.094 2.094 0 0 1 1.2 1.6 2.989 2.989 0 0 1 -.439 1.795 4.792 4.792 0 0 0 2.309-1.388 2.574 2.574 0 0 0 .517-2.08 11.181 11.181 0 0 1 .586-5.906 49.853 49.853 0 0 0 .819-9.017z" fill="#073a64" transform="translate(-2.376 -.762)"/><path d="m13.278 21.005a2.19 2.19 0 0 1 -1.87 2.443 2.189 2.189 0 0 1 -2.108-2.237 2.19 2.19 0 0 1 1.87-2.443 2.19 2.19 0 0 1 2.112 2.237" fill="#f8d8c6" transform="translate(-4.104 -8.289)"/><path d="m11.255 18.046a2.919 2.919 0 0 1 2.745 2.922 2.908 2.908 0 0 1 -2.552 3.2 2.9 2.9 0 0 1 -2.868-2.919 3.268 3.268 0 0 1 .645-2.159 2.554 2.554 0 0 1 1.907-1.04q.06-.004.123-.004zm.064 4.684h.052a1.483 1.483 0 0 0 1.189-1.687 1.494 1.494 0 0 0 -1.36-1.556 1.137 1.137 0 0 0 -.838.477 1.828 1.828 0 0 0 -.35 1.209 1.514 1.514 0 0 0 1.307 1.557z" fill="#073a64" transform="translate(-4.104 -8.289)"/><path d="m39.155 17.929a2.368 2.368 0 0 1 -2.023 2.642 2.368 2.368 0 0 1 -2.285-2.42 2.369 2.369 0 0 1 2.023-2.642 2.368 2.368 0 0 1 2.285 2.42" fill="#f8d8c6" transform="translate(-15.39 -6.849)"/><path d="m36.966 14.787a3.1 3.1 0 0 1 2.907 3.105 3.087 3.087 0 0 1 -2.705 3.4c-.044 0-.089 0-.133 0a3.1 3.1 0 0 1 -2.907-3.105 3.087 3.087 0 0 1 2.705-3.4c.044.001.089 0 .133 0zm.069 5.067h.059a1.661 1.661 0 0 0 1.341-1.886 1.674 1.674 0 0 0 -1.528-1.738 1.661 1.661 0 0 0 -1.341 1.886 1.7 1.7 0 0 0 1.469 1.737z" fill="#073a64" transform="translate(-15.39 -6.849)"/><path d="m26.967 13.167c-.063-1.221.083-3.089-.494-4.359-1.379-3.04-4.513-5.177-7.347-5.031-3.451.178-6.459 4.259-7.017 7.95a9.938 9.938 0 0 0 .32 2.423c.6 3.24 2.383 5.01 5.723 5.786l.031 1.718 1.982 2.7 2.352-2.866-.309-1.933c2.678-1.22 4.925-3.2 4.76-6.392" fill="#f8d8c6" transform="translate(-5.341 -1.665)"/><path d="m19.4 3.049a7.912 7.912 0 0 1 4.488 1.551 9.888 9.888 0 0 1 3.24 3.912 9.617 9.617 0 0 1 .537 3.725c0 .324.007.63.021.895a6.209 6.209 0 0 1 -1.481 4.437 9.9 9.9 0 0 1 -3.2 2.41l.224 1.4a.72.72 0 0 1 -.154.571l-2.352 2.866a.72.72 0 0 1 -1.137-.031l-1.982-2.7a.72.72 0 0 1 -.139-.413l-.023-1.172a7.3 7.3 0 0 1 -5.721-6.217c-.019-.1-.045-.229-.075-.375a7.4 7.4 0 0 1 -.249-2.287c.6-3.973 3.836-8.362 7.692-8.561.103-.008.211-.011.311-.011zm2.353 18.236-.253-1.613a.72.72 0 0 1 .412-.769 8.929 8.929 0 0 0 3.188-2.261 4.749 4.749 0 0 0 1.148-3.442c-.015-.294-.019-.614-.023-.953a8.635 8.635 0 0 0 -.407-3.147c-1.218-2.67-3.912-4.611-6.418-4.611-.08 0-.16 0-.239.006a5.959 5.959 0 0 0 -4.077 2.4 10.4 10.4 0 0 0 -2.265 4.939 7.743 7.743 0 0 0 .236 1.781c.032.154.059.287.081.4.544 2.939 2.092 4.5 5.178 5.216a.72.72 0 0 1 .557.688l.027 1.49 1.3 1.772z" fill="#073a64" transform="translate(-5.341 -1.665)"/><path d="m20.739 18.651a.894.894 0 1 1 -.939-.851.894.894 0 0 1 .937.848" fill="#0f2f54" transform="translate(-8.371 -7.863)"/><path d="m30.535 17.367a.894.894 0 1 1 -.938-.848.895.895 0 0 1 .938.848" fill="#0f2f54" transform="translate(-12.698 -7.296)"/><path d="m22.314 4.095c-.138 1.364-2.527 3.412-4.215 4.088a3.443 3.443 0 0 1 -2.679-.088 6.091 6.091 0 0 1 -3.963 2.562s-3.3-7.741 5.8-9.7c0 0 4.245-1.026 7.06 1.175 3.071 2.4 2.66 8.163 2.66 8.163-2.489-.465-4.661-6.2-4.661-6.2" fill="#0f2f54" transform="translate(-4.803 -.318)"/><path d="m19.581 0a8.308 8.308 0 0 1 5.177 1.567c3.334 2.607 2.953 8.531 2.935 8.781a.72.72 0 0 1 -.85.657c-1.25-.233-2.514-1.453-3.757-3.626-.313-.547-.585-1.084-.805-1.551a8.491 8.491 0 0 1 -1 1.1 10.171 10.171 0 0 1 -2.911 1.927 3.966 3.966 0 0 1 -1.482.284 4.315 4.315 0 0 1 -1.215-.177 6.77 6.77 0 0 1 -4.131 2.413.72.72 0 0 1 -.745-.433 8.489 8.489 0 0 1 .111-6.633c1.048-2.031 3.131-3.393 6.192-4.052a11.721 11.721 0 0 1 2.481-.257zm6.684 9.157c-.052-1.691-.423-4.915-2.393-6.456a6.777 6.777 0 0 0 -4.29-1.261 10.389 10.389 0 0 0 -2.159.219h-.017c-2.62.563-4.377 1.676-5.222 3.306a6.727 6.727 0 0 0 -.256 4.845 5.445 5.445 0 0 0 2.9-2.128.709.709 0 0 1 .924-.23 2.8 2.8 0 0 0 1.134.24 2.532 2.532 0 0 0 .946-.181c1.628-.649 3.668-2.543 3.768-3.489a.72.72 0 0 1 1.39-.182 22.61 22.61 0 0 0 1.357 2.839 8.871 8.871 0 0 0 1.918 2.478z" fill="#073a64" transform="translate(-4.803 -.318)"/><path d="m23.121 25.164a4.178 4.178 0 0 0 3.351-.441s-.241 1.941-1.311 2.089-2.04-1.648-2.04-1.648" fill="#0f2f54" transform="translate(-10.212 -10.92)"/><path d="m26.472 24.243a.48.48 0 0 1 .476.539c-.029.236-.327 2.312-1.721 2.5a1.407 1.407 0 0 1 -.193.013c-1.268 0-2.23-1.713-2.336-1.909a.48.48 0 0 1 .587-.679 2.866 2.866 0 0 0 .957.143 3.548 3.548 0 0 0 1.942-.517.48.48 0 0 1 .288-.09zm-1.438 2.1a.444.444 0 0 0 .061 0c.279-.039.5-.367.652-.741a5.21 5.21 0 0 1 -1.5.22h-.062a1.375 1.375 0 0 0 .849.518z" fill="#0c2e52" transform="translate(-10.212 -10.92)"/><path d="m29.982 27.528h-.048a.48.48 0 1 1 .017-.96 5.7 5.7 0 0 0 3.049-.814 5.684 5.684 0 0 0 1.7-2.893.48.48 0 0 1 .94.2 6.62 6.62 0 0 1 -2.04 3.439 6.469 6.469 0 0 1 -3.618 1.028z" fill="#0f2f54" transform="translate(-13.225 -10.141)"/><path d="m0 0h.758v1.17h-.758z" fill="#0f2f54" transform="matrix(.0458163 -.99894988 .99894988 .0458163 15.728 17.278)"/><path d="m0-.48h.758a.48.48 0 0 1 .48.48v1.17a.48.48 0 0 1 -.48.48h-.758a.48.48 0 0 1 -.48-.48v-1.17a.48.48 0 0 1 .48-.48z" fill="#0f2f54" transform="matrix(.0458163 -.99894988 .99894988 .0458163 15.728 17.278)"/><path d="m7.633 37.389c.453-1.132.809-3.051.019-3.593-.453-.312-1.387.085-1.885.888 0 0-1.2-.753-1.987-1.235a2.573 2.573 0 0 0 -2.951.542 1.906 1.906 0 0 0 .353 1.809 11.545 11.545 0 0 0 3.886 3.132l.151 2.527 2.66-.792z" fill="#f8d8c6" transform="translate(-.318 -14.665)"/><path d="m5.218 42.184a.72.72 0 0 1 -.719-.677l-.124-2.078a10.27 10.27 0 0 1 -1.645-1.105 13.552 13.552 0 0 1 -2.115-2.076 2.548 2.548 0 0 1 -.378-2.667 3.114 3.114 0 0 1 2.5-1.1 2.76 2.76 0 0 1 1.421.354c.445.274 1.031.639 1.452.9a2.472 2.472 0 0 1 1.663-.767 1.381 1.381 0 0 1 .788.233c1.2.825.78 3.014.3 4.294l.239 3.123a.72.72 0 0 1 -.512.744l-2.66.792a.72.72 0 0 1 -.21.03zm-3.772-7.816a1.506 1.506 0 0 0 .3.993 11.089 11.089 0 0 0 3.516 2.883.72.72 0 0 1 .521.649l.1 1.621 1.234-.368-.2-2.7a.72.72 0 0 1 .05-.321 6.385 6.385 0 0 0 .426-1.8 1.479 1.479 0 0 0 -.125-.913 1.344 1.344 0 0 0 -.886.654.72.72 0 0 1 -.994.231c-.012-.008-1.211-.757-1.983-1.232a1.37 1.37 0 0 0 -.667-.141 1.826 1.826 0 0 0 -1.292.444z" fill="#073a64" transform="translate(-.318 -14.665)"/><path d="m10.278 56.861.4-12s-2.943 1.245-4.3.679l-1.363 8.872" fill="#fff" transform="translate(-2.215 -19.813)"/><g fill="#073a64"><path d="m10.279 57.581h-.025a.72.72 0 0 1 -.7-.744l.371-10.937c-.214.069-.451.14-.7.207a7.027 7.027 0 0 1 -2.248.29l-1.25 8.124a.72.72 0 0 1 -1.427-.221l1.365-8.875a.72.72 0 0 1 .988-.555c.742.309 2.636-.211 3.744-.678a.72.72 0 0 1 1 .687l-.4 12a.72.72 0 0 1 -.718.702z" transform="translate(-2.215 -19.813)"/><path d="m35.7 41.591a3.182 3.182 0 0 1 1.179-2.377 3.282 3.282 0 0 1 2.707-.641 5.727 5.727 0 0 1 -1.745 2.339 7.091 7.091 0 0 1 -2.141.679" transform="translate(-15.767 -17.007)"/><path d="m35.7 42.311a.72.72 0 0 1 -.72-.7 3.9 3.9 0 0 1 3.941-3.828 3.624 3.624 0 0 1 .845.091.72.72 0 0 1 .483.977 6.2 6.2 0 0 1 -2.067 2.693 7.808 7.808 0 0 1 -2.39.759.72.72 0 0 1 -.092.008zm2.7-3.037a2.394 2.394 0 0 0 -1.069.5 2.492 2.492 0 0 0 -.675.856 5.051 5.051 0 0 0 .84-.35 3 3 0 0 0 .904-1.006z" transform="translate(-15.767 -17.007)"/></g><path d="m36.05 27.681s-2.538-1.207-3.7.416c-.69.96.956 1.21 1.04 1.748s-1.289 2.787.791 3.619l.908 2.855 2.336-1.319-.7-2.348s.576-4.133-.672-4.969" fill="#f8d8c6" transform="translate(-14.213 -12.036)"/><path d="m34.164 26.529a5.733 5.733 0 0 1 2.195.5.72.72 0 0 1 .092.052c.737.494 1.1 1.6 1.123 3.388a17.317 17.317 0 0 1 -.118 2.118l.659 2.2a.72.72 0 0 1 -.336.834l-2.339 1.32a.72.72 0 0 1 -1.04-.409l-.812-2.554a2.29 2.29 0 0 1 -1.269-1.824 4.863 4.863 0 0 1 .251-1.864c.022-.079.049-.174.07-.254-.058-.041-.126-.086-.18-.121a1.888 1.888 0 0 1 -.979-1.162 1.381 1.381 0 0 1 .283-1.081 2.817 2.817 0 0 1 2.4-1.143zm1.516 1.771a4.24 4.24 0 0 0 -1.516-.335 1.405 1.405 0 0 0 -1.22.532c.083.068.214.154.3.212a1.586 1.586 0 0 1 .853 1.021 2.3 2.3 0 0 1 -.144.951c-.342 1.213-.35 1.774.49 2.11a.72.72 0 0 1 .419.45l.639 2.01 1.067-.6-.538-1.8a.72.72 0 0 1 -.023-.306 15.912 15.912 0 0 0 .125-2.079c-.017-1.61-.343-2.057-.452-2.166z" fill="#073a64" transform="translate(-14.213 -12.036)"/><path d="m37.545 52.325c-1.241-.573-1.4-8.83-1.4-8.83l-.445-1.85a18.188 18.188 0 0 0 3.886-3.018s3.81 8.819 2.467 13.7" fill="#fff" transform="translate(-15.767 -17.061)"/><path d="m42.049 53.045a.721.721 0 0 1 -.695-.911c.514-1.866.263-4.728-.724-8.277-.455-1.636-.973-3.074-1.319-3.972a19.539 19.539 0 0 1 -2.789 2.109l.325 1.329a.72.72 0 0 1 .021.158c0 .019.037 1.9.208 3.9.3 3.494.73 4.206.823 4.32a.72.72 0 0 1 -.655 1.281c-.6-.276-1.2-1.1-1.579-5.219-.175-1.925-.225-3.763-.234-4.171l-.431-1.776a.72.72 0 0 1 .358-.805 17.666 17.666 0 0 0 3.713-2.888.72.72 0 0 1 1.175.219c.16.37 3.895 9.11 2.5 14.174a.72.72 0 0 1 -.697.529z" fill="#073a64" transform="translate(-15.767 -17.061)"/><path d="m38.317 15.778c-.393.049-.961.251-.988 1.646s.53 2.565 1.411 2.382 1.017-1.159.863-2.314-.893-1.763-1.286-1.715" fill="#0f2f54" transform="translate(-16.488 -6.968)"/><path d="m38.362 15.055a2.444 2.444 0 0 1 1.955 2.345 4.354 4.354 0 0 1 -.068 1.825 1.771 1.771 0 0 1 -1.362 1.288 1.605 1.605 0 0 1 -.327.034 1.569 1.569 0 0 1 -1.135-.5 3.692 3.692 0 0 1 -.816-2.638c.018-.982.314-2.186 1.619-2.347a1.092 1.092 0 0 1 .134-.007zm.2 4.05a.164.164 0 0 0 .033 0c.109-.023.206-.061.278-.3a2.983 2.983 0 0 0 .018-1.216 1.529 1.529 0 0 0 -.554-1.083.15.15 0 0 0 -.1.055 1.466 1.466 0 0 0 -.187.878 2.43 2.43 0 0 0 .4 1.6.175.175 0 0 0 .11.066z" fill="#0f2f54" transform="translate(-16.488 -6.968)"/></g></g></g></g></svg>