<svg xmlns="http://www.w3.org/2000/svg" xmlns:xlink="http://www.w3.org/1999/xlink" width="108" height="108" viewBox="0 0 108 108"><defs><clipPath id="a"><rect width="108" height="108" fill="none"/></clipPath><clipPath id="c"><rect width="10.521" height="5.312" transform="translate(24.307 89.781)" fill="none"/></clipPath><clipPath id="d"><rect width="10.521" height="5.312" transform="translate(73.059 89.781)" fill="none"/></clipPath><clipPath id="e"><rect width="10.521" height="5.312" transform="translate(49.979 75.711)" fill="none"/></clipPath><clipPath id="g"><rect width="108" height="108"/></clipPath></defs><g id="f" clip-path="url(#g)"><rect width="108" height="108" fill="#fff"/><g clip-path="url(#a)"><g clip-path="url(#a)"><g opacity="0.3"><g clip-path="url(#c)"><path d="M34.828,92.437c0,1.467-2.355,2.656-5.26,2.656s-5.261-1.189-5.261-2.656,2.355-2.656,5.261-2.656,5.26,1.189,5.26,2.656" fill="#1a0f0f"/></g></g><g opacity="0.3"><g clip-path="url(#d)"><path d="M83.58,92.437c0,1.467-2.355,2.656-5.26,2.656s-5.261-1.189-5.261-2.656,2.355-2.656,5.261-2.656,5.26,1.189,5.26,2.656" fill="#1a0f0f"/></g></g><g opacity="0.3"><g clip-path="url(#e)"><path d="M60.5,78.367c0,1.467-2.355,2.656-5.26,2.656s-5.261-1.189-5.261-2.656,2.355-2.656,5.261-2.656S60.5,76.9,60.5,78.367" fill="#1a0f0f"/></g></g><path d="M60.308,63.021H47.539a5.5,5.5,0,0,1-5.5-5.5V19.9a5.5,5.5,0,0,1,5.5-5.5H60.308a5.5,5.5,0,0,1,5.5,5.5V57.523a5.5,5.5,0,0,1-5.5,5.5" fill="#cadde7"/><path d="M5.5-.5H18.267a6,6,0,0,1,6,6V43.125a6.006,6.006,0,0,1-6,6H5.5a6,6,0,0,1-6-6V5.5A6,6,0,0,1,5.5-.5ZM18.266,48.124a5,5,0,0,0,5-5V5.5a5,5,0,0,0-5-5H5.5a5,5,0,0,0-5,5V43.126a5,5,0,0,0,5,5Z" transform="translate(42.041 14.397)" fill="#093b68"/><path d="M29.452,20.98c-.514-.6-2.246-1.725-2.772-1.479l-16.2,7.714a1.72,1.72,0,0,0-.952,1.4V75.038c0,.526,1.8,1.8,2.389,1.852Z" fill="#cadde7"/><path d="M26.863,18.966h0a5.745,5.745,0,0,1,2.969,1.688.5.5,0,0,1,.1.475L12.39,77.04a.5.5,0,0,1-.518.349,4.385,4.385,0,0,1-1.675-.845c-1.174-.877-1.174-1.35-1.174-1.506V28.613a2.2,2.2,0,0,1,1.24-1.851l16.2-7.713A.928.928,0,0,1,26.863,18.966Zm2.023,2.149a4.994,4.994,0,0,0-2.02-1.149l-16.175,7.7a1.236,1.236,0,0,0-.667.947V75a3.191,3.191,0,0,0,.862.812,5.5,5.5,0,0,0,.7.438Z" fill="#093b68"/><path d="M11.913,76.882l.8-2.542-.2-43.8-2.983-1.93V75.03c0,.526,1.8,1.8,2.389,1.852" fill="#fff"/><path d="M28.57,69.1l-16.2,7.715c-.526.246-.952.019-.952-.507V29.886a1.718,1.718,0,0,1,.952-1.4l16.2-7.715c.526-.246.952-.019.952.507V67.706a1.72,1.72,0,0,1-.952,1.4" fill="#3e828b"/><path d="M11.963,77.417a1.043,1.043,0,0,1-1.049-1.106V29.886a2.2,2.2,0,0,1,1.24-1.85l16.2-7.714a1.455,1.455,0,0,1,.618-.148,1.043,1.043,0,0,1,1.049,1.106V67.706a2.2,2.2,0,0,1-1.24,1.85l-16.2,7.714A1.455,1.455,0,0,1,11.963,77.417Zm-.032-1a.124.124,0,0,0,.032,0,.465.465,0,0,0,.191-.052l16.2-7.714a1.235,1.235,0,0,0,.667-.946V21.281a.238.238,0,0,0-.017-.1.124.124,0,0,0-.032,0,.465.465,0,0,0-.191.052l-16.2,7.714a1.235,1.235,0,0,0-.667.946V76.311A.238.238,0,0,0,11.931,76.414Z" fill="#093b68"/><path d="M29.522,65.6,11.414,74.209V31.772l18.108-8.606Z" fill="#fff"/><path d="M11.414,74.709a.5.5,0,0,1-.5-.5V31.772a.5.5,0,0,1,.285-.452l18.108-8.606a.5.5,0,0,1,.715.452V65.6a.5.5,0,0,1-.285.452L11.628,74.661A.5.5,0,0,1,11.414,74.709Zm.5-42.621v41.33l17.108-8.131V23.957Z" fill="#093b68"/><path d="M17.636,46.815s-5.231-2.858-3.927-6.193c1.067-2.727,3.775-.488,3.775-.488s1.528-3.632,3.49-1.9c2.516,2.228-3.338,8.576-3.338,8.576" fill="#ea6280"/><path d="M17.636,47.457a.64.64,0,0,1-.308-.079,12.986,12.986,0,0,1-2.6-1.953c-1.694-1.675-2.255-3.417-1.621-5.038a2.483,2.483,0,0,1,2.279-1.761,3.835,3.835,0,0,1,1.849.566c.47-.825,1.388-2.066,2.656-2.066a2.255,2.255,0,0,1,1.505.632,2.5,2.5,0,0,1,.84,1.82c.065,1.288-.622,2.981-2.042,5.034a26.75,26.75,0,0,1-2.09,2.639A.642.642,0,0,1,17.636,47.457ZM15.39,39.911c-.306,0-.752.1-1.083.945-.439,1.122.008,2.352,1.328,3.657a11.68,11.68,0,0,0,1.876,1.478c1.243-1.438,3.541-4.5,3.447-6.348a1.234,1.234,0,0,0-.409-.923,1.028,1.028,0,0,0-.654-.309c-.747,0-1.548,1.329-1.819,1.972a.642.642,0,0,1-1,.246A3.234,3.234,0,0,0,15.39,39.911Z" fill="#093b68"/><line y1="3.914" x2="8.288" transform="translate(14.595 54.664)" fill="#16639f"/><path d="M0,4.414a.5.5,0,0,1-.452-.287.5.5,0,0,1,.239-.666L8.074-.452a.5.5,0,0,1,.666.239A.5.5,0,0,1,8.5.452L.214,4.366A.5.5,0,0,1,0,4.414Z" transform="translate(14.595 54.664)" fill="#093b68"/><line y1="3.914" x2="8.288" transform="translate(14.595 57.24)" fill="#16639f"/><path d="M0,4.414a.5.5,0,0,1-.452-.287.5.5,0,0,1,.239-.666L8.074-.452a.5.5,0,0,1,.666.239A.5.5,0,0,1,8.5.452L.214,4.366A.5.5,0,0,1,0,4.414Z" transform="translate(14.595 57.24)" fill="#093b68"/><line y1="3.914" x2="8.288" transform="translate(14.595 59.816)" fill="#16639f"/><path d="M0,4.414a.5.5,0,0,1-.452-.287.5.5,0,0,1,.239-.666L8.074-.452a.5.5,0,0,1,.666.239A.5.5,0,0,1,8.5.452L.214,4.366A.5.5,0,0,1,0,4.414Z" transform="translate(14.595 59.816)" fill="#093b68"/><line y1="3.914" x2="8.288" transform="translate(14.595 62.392)" fill="#16639f"/><path d="M0,4.414a.5.5,0,0,1-.452-.287.5.5,0,0,1,.239-.666L8.074-.452a.5.5,0,0,1,.666.239A.5.5,0,0,1,8.5.452L.214,4.366A.5.5,0,0,1,0,4.414Z" transform="translate(14.595 62.392)" fill="#093b68"/><line y1="3.914" x2="8.288" transform="translate(19.187 27.291)" fill="#16639f"/><path d="M0,4.414a.5.5,0,0,1-.452-.287.5.5,0,0,1,.239-.666L8.074-.452a.5.5,0,0,1,.666.239A.5.5,0,0,1,8.5.452L.214,4.366A.5.5,0,0,1,0,4.414Z" transform="translate(19.187 27.291)" fill="#093b68"/><path d="M11.873,77.388a4.385,4.385,0,0,1-1.675-.845c-1.174-.877-1.174-1.35-1.174-1.506V28.613a2.2,2.2,0,0,1,1.24-1.85l16.2-7.714a.5.5,0,0,1,.43.9l-16.2,7.715a1.235,1.235,0,0,0-.667.946V75a3.191,3.191,0,0,0,.862.812,3.4,3.4,0,0,0,1.067.583Z" fill="#093b68"/><path d="M78.614,20.98c.514-.6,2.246-1.725,2.772-1.479l16.2,7.714a1.72,1.72,0,0,1,.952,1.4V75.038c0,.526-1.8,1.8-2.389,1.852Z" fill="#cadde7"/><path d="M81.2,18.966a.925.925,0,0,1,.395.082L97.8,26.764a2.2,2.2,0,0,1,1.237,1.849V75.038c0,.628-.883,1.289-1.174,1.506a4.385,4.385,0,0,1-1.675.845.5.5,0,0,1-.518-.349L78.137,21.13a.5.5,0,0,1,.1-.475A5.744,5.744,0,0,1,81.2,18.966ZM98.042,75V28.613a1.234,1.234,0,0,0-.664-.945L81.2,19.966a4.993,4.993,0,0,0-2.02,1.149L96.475,76.247a5.5,5.5,0,0,0,.7-.438A3.191,3.191,0,0,0,98.042,75Z" fill="#093b68"/><path d="M96.153,76.882l-.8-2.542.2-43.8,2.983-1.93V75.03c0,.526-1.8,1.8-2.389,1.852" fill="#acadae"/><path d="M79.5,69.1l16.2,7.715c.526.246.952.019.952-.507V29.886a1.718,1.718,0,0,0-.952-1.4L79.5,20.774c-.526-.246-.952-.019-.952.507V67.706a1.72,1.72,0,0,0,.952,1.4" fill="#009cb9"/><path d="M96.1,77.417h0a1.451,1.451,0,0,1-.615-.146L79.281,69.554a2.2,2.2,0,0,1-1.237-1.848V21.281a1.043,1.043,0,0,1,1.049-1.106,1.451,1.451,0,0,1,.615.146l16.207,7.716a2.2,2.2,0,0,1,1.237,1.848V76.311a1.129,1.129,0,0,1-.287.787A1.026,1.026,0,0,1,96.1,77.417ZM79.061,21.178a.238.238,0,0,0-.017.1V67.706a1.234,1.234,0,0,0,.664.944l16.207,7.716a.458.458,0,0,0,.188.051.124.124,0,0,0,.032,0,.238.238,0,0,0,.017-.1V29.886a1.234,1.234,0,0,0-.664-.944L79.281,21.225a.458.458,0,0,0-.188-.051A.124.124,0,0,0,79.061,21.178Z" fill="#093b68"/><path d="M78.545,65.6l18.108,8.606V31.772L78.545,23.166Z" fill="#fff"/><path d="M96.652,74.709a.5.5,0,0,1-.215-.048L78.33,66.055a.5.5,0,0,1-.285-.452V23.166a.5.5,0,0,1,.715-.452l18.108,8.606a.5.5,0,0,1,.285.452V74.209a.5.5,0,0,1-.5.5ZM79.045,65.287l17.108,8.131V32.088L79.045,23.957Z" fill="#093b68"/><path d="M83.469,45.037s6.023-2.995,4.719-6.418c-1.066-2.8-3.775-.743-3.775-.743s-1.528-3.735-3.49-2.13c-2.516,2.058,2.546,9.291,2.546,9.291" fill="#ea6280"/><path d="M83.469,45.679a.642.642,0,0,1-.526-.274,28.762,28.762,0,0,1-2.274-3.973c-1.4-3.04-1.451-5.121-.153-6.183a2.194,2.194,0,0,1,1.4-.546c1.333,0,2.292,1.382,2.766,2.256a3.814,3.814,0,0,1,1.69-.453,2.62,2.62,0,0,1,2.415,1.884c1.494,3.922-4.766,7.088-5.033,7.221A.64.64,0,0,1,83.469,45.679Zm-1.552-9.692a.944.944,0,0,0-.588.256c-.766.627-.586,2.279.506,4.652a27.469,27.469,0,0,0,1.841,3.3,14.292,14.292,0,0,0,2.234-1.578c1.547-1.361,2.111-2.628,1.677-3.767-.361-.948-.866-1.057-1.215-1.057a3.114,3.114,0,0,0-1.574.6.643.643,0,0,1-.981-.269C83.532,37.424,82.69,35.987,81.917,35.987Z" fill="#093b68"/><line x1="8.288" y1="3.914" transform="translate(80.106 53.662)" fill="#16639f"/><path d="M8.288,4.414a.5.5,0,0,1-.213-.048L-.214.452A.5.5,0,0,1-.452-.214.5.5,0,0,1,.214-.452L8.5,3.462a.5.5,0,0,1-.214.952Z" transform="translate(80.106 53.662)" fill="#093b68"/><line x1="8.288" y1="3.914" transform="translate(80.106 56.238)" fill="#16639f"/><path d="M8.288,4.414a.5.5,0,0,1-.213-.048L-.214.452A.5.5,0,0,1-.452-.214.5.5,0,0,1,.214-.452L8.5,3.462a.5.5,0,0,1-.214.952Z" transform="translate(80.106 56.238)" fill="#093b68"/><line x1="8.288" y1="3.914" transform="translate(80.199 58.814)" fill="#16639f"/><path d="M8.288,4.414a.5.5,0,0,1-.213-.048L-.214.452A.5.5,0,0,1-.452-.214.5.5,0,0,1,.214-.452L8.5,3.462a.5.5,0,0,1-.214.952Z" transform="translate(80.199 58.814)" fill="#093b68"/><line x1="8.288" y1="3.914" transform="translate(80.199 61.39)" fill="#16639f"/><path d="M8.288,4.414a.5.5,0,0,1-.213-.048L-.214.452A.5.5,0,0,1-.452-.214.5.5,0,0,1,.214-.452L8.5,3.462a.5.5,0,0,1-.214.952Z" transform="translate(80.199 61.39)" fill="#093b68"/><line x1="8.288" y1="3.914" transform="translate(86.576 30.349)" fill="#16639f"/><path d="M8.288,4.414a.5.5,0,0,1-.213-.048L-.214.452A.5.5,0,0,1-.452-.214.5.5,0,0,1,.214-.452L8.5,3.462a.5.5,0,0,1-.214.952Z" transform="translate(86.576 30.349)" fill="#093b68"/><path d="M96.152,77.39a.5.5,0,0,1-.04-1,3.4,3.4,0,0,0,1.067-.583A3.191,3.191,0,0,0,98.042,75V28.613a1.234,1.234,0,0,0-.664-.944L81.171,19.952a.5.5,0,1,1,.43-.9l16.2,7.715a2.2,2.2,0,0,1,1.237,1.848V75.038c0,.628-.883,1.289-1.174,1.506a4.385,4.385,0,0,1-1.675.845Z" fill="#093b68"/><path d="M83.06,48.487c0,1.75-.468,2.495-1.526,1.986A2.322,2.322,0,0,1,80.3,49.117a.794.794,0,0,1-.04-.228.306.306,0,0,1,.228-.336.381.381,0,0,1,.25.03.647.647,0,0,1,.285.322,1.2,1.2,0,0,0,.518.606c.424.2.683-.094.7-.9a.669.669,0,0,1-.83.041,2.6,2.6,0,0,1-1.29-2.328c0-.9.424-1.546,1.42-1.068.928.447,1.517,1.593,1.517,3.235m-2.111-1.794a1.132,1.132,0,0,0,.607,1.065c.353.17.607-.017.607-.481a1.2,1.2,0,0,0-.616-1.065c-.357-.171-.6.029-.6.481" fill="#093b68"/><path d="M84.448,51.2c0,.357-.21.5-.478.372a.95.95,0,0,1-.477-.831c0-.357.21-.5.477-.371a.945.945,0,0,1,.478.83" fill="#093b68"/><path d="M86.336,52.771c-1-.48-1.495-1.647-1.495-3.367,0-1.672.536-2.3,1.495-1.834.916.439,1.509,1.481,1.509,3.319,0,1.691-.536,2.35-1.509,1.882m-.629-2.933c0,1.024.192,1.7.634,1.918s.634-.249.634-1.315c0-.976-.192-1.633-.634-1.846s-.634.255-.634,1.243" fill="#093b68"/><path d="M31.4,79.04s1.07-.791,1.3-.763a12.237,12.237,0,0,1,1.641,1.591s.075.333-.49.555-2-.326-2-.326Z" fill="#fbdac8"/><path d="M32.687,77.776a.61.61,0,0,1,.073,0c.177.021.419.05,1.953,1.753a.5.5,0,0,1,.116.225c.063.279-.034.831-.795,1.13a1.44,1.44,0,0,1-.53.087,6.262,6.262,0,0,1-1.827-.412.5.5,0,0,1-.28-.269l-.457-1.057a.5.5,0,0,1,.162-.6C32.266,77.776,32.572,77.776,32.687,77.776Zm1.037,2.158c-.417-.451-.863-.907-1.094-1.107-.146.078-.373.221-.612.386l.21.486a4.811,4.811,0,0,0,1.276.277.5.5,0,0,0,.165-.018Z" fill="#093b68"/><path d="M31.491,69.725s1.543,7.567,2.141,9.01c0,0-1.494.647-1.743.7s-1.145-1.443-1.145-1.443L30.2,71.467Z" fill="#e7a197"/><path d="M31.491,69.225a.5.5,0,0,1,.49.4c.53,2.6,1.655,7.812,2.113,8.918a.5.5,0,0,1-.263.65,19.009,19.009,0,0,1-1.843.728.566.566,0,0,1-.111.011c-.205,0-.548,0-1.561-1.687a.5.5,0,0,1-.07-.216L29.7,71.509a.5.5,0,0,1,.1-.34l1.294-1.742A.5.5,0,0,1,31.491,69.225Zm1.514,9.234c-.515-1.63-1.371-5.6-1.778-7.541l-.517.7.521,6.217a9.328,9.328,0,0,0,.733,1.052C32.2,78.8,32.6,78.632,33.005,78.459Z" fill="#093b68"/><path d="M31.3,85.622c-.064,1.328-.351,5.138-.351,5.138s1.74,1.242,1.93,1.324-.821.675-1.717.448a9.418,9.418,0,0,1-2.126-1.017l.032-5.9" fill="#fbdac8"/><path d="M31.589,93.083a2.242,2.242,0,0,1-.551-.066,9.8,9.8,0,0,1-2.273-1.081.5.5,0,0,1-.23-.424l.032-5.9a.5.5,0,0,1,1,.005l-.03,5.622a7.884,7.884,0,0,0,1.748.812,1.471,1.471,0,0,0,.629,0q-.484-.333-1.256-.884a.5.5,0,0,1-.208-.445c0-.038.287-3.818.35-5.125a.5.5,0,1,1,1,.048c-.054,1.124-.263,3.959-.331,4.87.725.515,1.476,1.035,1.621,1.114a.532.532,0,0,1,.284.659c-.113.332-.557.538-.91.652A2.9,2.9,0,0,1,31.589,93.083Z" fill="#093b68"/><path d="M29.045,90.783A12.589,12.589,0,0,0,31.3,92.169l.9-.365,1.018.115c.53.737-1.053,1.089-1.73,1.146a5.045,5.045,0,0,1-1.765-.7l-.965-.1s-.839-.352.281-1.48" fill="#0c2f54"/><path d="M29.885,86.093c-.063,1.328-.39,5.124-.39,5.124s1.78,1.256,1.97,1.338-.821.675-1.717.448a5.5,5.5,0,0,1-1.831-1.039l-.263-5.882" fill="#fbdac8"/><path d="M30.176,93.554a2.242,2.242,0,0,1-.551-.066,5.97,5.97,0,0,1-2.036-1.146.5.5,0,0,1-.172-.355L27.154,86.1a.5.5,0,1,1,1-.045l.253,5.657a4.581,4.581,0,0,0,1.465.8,1.467,1.467,0,0,0,.625,0q-.495-.337-1.289-.9a.5.5,0,0,1-.21-.451c0-.038.327-3.8.389-5.1a.5.5,0,0,1,1,.047c-.053,1.124-.289,3.942-.367,4.857.744.522,1.512,1.049,1.657,1.128a.532.532,0,0,1,.285.659c-.113.332-.557.538-.91.652A2.9,2.9,0,0,1,30.176,93.554Z" fill="#093b68"/><path d="M27.792,91.009a21.272,21.272,0,0,0,2.1,1.631l.9-.366,1.192.419c-.037.56-1.227.786-1.9.842a5.047,5.047,0,0,1-1.766-.7h-.44s-1.2-.7-.083-1.827" fill="#0c2f54"/><path d="M26.662,78.785s.249,6.223.448,7.119,4.032.448,4.879-.15l-.1-7.317Z" fill="#fff"/><path d="M31.889,77.937a.5.5,0,0,1,.5.493l.1,7.317a.5.5,0,0,1-.212.415,7.869,7.869,0,0,1-3.566.748c-1.272,0-1.956-.294-2.09-.9-.2-.913-.434-6.566-.459-7.207a.5.5,0,0,1,.466-.519l5.227-.348Zm-.4,7.52L31.4,78.971l-4.215.281c.1,2.416.277,5.78.406,6.493a2.513,2.513,0,0,0,1.124.166A8.627,8.627,0,0,0,31.485,85.457Z" fill="#093b68"/><path d="M32.263,65.12l.274,2.514a3.37,3.37,0,0,1-1.942-.349c-.771-.5,1.668-2.165,1.668-2.165" fill="#102f55"/><path d="M32.263,64.62a.5.5,0,0,1,.5.446l.274,2.514a.5.5,0,0,1-.434.55,4.035,4.035,0,0,1-.473.025,3.4,3.4,0,0,1-1.8-.45.793.793,0,0,1-.38-.67c-.006-.445.327-.934,1.079-1.586a11.892,11.892,0,0,1,.958-.742A.5.5,0,0,1,32.263,64.62Zm-.282,2.532-.12-1.1a4.468,4.468,0,0,0-.873.885A2.538,2.538,0,0,0,31.982,67.152Z" fill="#0d2f53"/><path d="M32.288,79.308c-1.461,1.346-3.157,1.381-6.123.3,0,0-.139-6.352.135-8.608.166-1.363,1.149-2.057,2.274-2.89l2.071-.275c.358.49,1.892,1.916,1.568,3.758a62.248,62.248,0,0,0,.075,7.716" fill="#e7a197"/><path d="M29.586,80.872a10.738,10.738,0,0,1-3.592-.8.5.5,0,0,1-.329-.459c-.006-.261-.137-6.414.139-8.679.188-1.541,1.255-2.331,2.386-3.167l.087-.065a.5.5,0,0,1,.232-.094l2.071-.275a.5.5,0,0,1,.47.2c.042.058.117.147.2.249a4.839,4.839,0,0,1,1.453,3.89,63.061,63.061,0,0,0,.077,7.556.5.5,0,0,1-.156.441A4.253,4.253,0,0,1,29.586,80.872Zm-2.928-1.62a9.178,9.178,0,0,0,2.928.62,3.226,3.226,0,0,0,2.175-.768,63.6,63.6,0,0,1-.041-7.6,3.926,3.926,0,0,0-1.231-3.071l-.057-.068-1.665.221c-1.027.76-1.836,1.364-1.971,2.472C26.566,72.956,26.635,77.9,26.658,79.252Z" fill="#093b68"/><path d="M32.079,63.24a3.513,3.513,0,0,1-.354,3.357,2.442,2.442,0,0,1-1.308.8l.253,1.054a1.3,1.3,0,0,1-1.982-.127l.37-.928a2.2,2.2,0,0,1-1.547-1.62,3.611,3.611,0,0,1,.84-3.566c.554-.571,3.194-.912,3.728,1.028" fill="#fbdac8"/><path d="M29.877,61.266a2.578,2.578,0,0,1,2.676,1.811,3.961,3.961,0,0,1-.441,3.838,2.918,2.918,0,0,1-1.1.813l.146.608a.5.5,0,0,1-.117.454,1.831,1.831,0,0,1-1.28.561,2,2,0,0,1-1.426-.674.5.5,0,0,1-.109-.537l.184-.462a2.814,2.814,0,0,1-1.376-1.758,4.127,4.127,0,0,1,.961-4.057A2.815,2.815,0,0,1,29.877,61.266Zm.232,6.989-.178-.74a.5.5,0,0,1,.4-.608,1.966,1.966,0,0,0,1.013-.628,3.006,3.006,0,0,0,.28-2.842.5.5,0,0,1-.023-.065,1.629,1.629,0,0,0-1.72-1.107,2.02,2.02,0,0,0-1.167.294,3.125,3.125,0,0,0-.72,3.075,1.723,1.723,0,0,0,1.163,1.272.487.487,0,0,1,.347.245.5.5,0,0,1,.023.431l-.238.6a.835.835,0,0,0,.475.171A.735.735,0,0,0,30.108,68.255Z" fill="#093b68"/><path d="M30.886,64.832a.28.28,0,1,0,.317-.244.282.282,0,0,0-.317.244" fill="#102f55"/><path d="M29.248,64.832a.28.28,0,1,0,.317-.244.282.282,0,0,0-.317.244" fill="#102f55"/><path fill="#0d2f53"/><path d="M32.337,63.2s-.722-2.961-4.174-1.529a4.758,4.758,0,0,0-2.081,4.436c.09,1.746,2.491,2,2.491,2L27.93,64.5a24.329,24.329,0,0,0,4.407-1.3" fill="#102f55"/><path d="M29.884,60.783h0a3.037,3.037,0,0,1,2.939,2.3.5.5,0,0,1-.294.58,25.119,25.119,0,0,1-4.02,1.231l.557,3.126a.5.5,0,0,1-.545.585,4.85,4.85,0,0,1-1.368-.388,2.4,2.4,0,0,1-1.57-2.083,5.226,5.226,0,0,1,2.336-4.9.5.5,0,0,1,.053-.026A5.048,5.048,0,0,1,29.884,60.783Zm1.808,2.134a1.958,1.958,0,0,0-1.807-1.134h0a4.032,4.032,0,0,0-1.5.34,4.267,4.267,0,0,0-1.805,3.961c.041.791.788,1.185,1.368,1.372l-.511-2.871a.5.5,0,0,1,.4-.58A23.416,23.416,0,0,0,31.691,62.917Z" fill="#0d2f53"/><path d="M26.185,73.256A4.5,4.5,0,0,0,26.9,76.4c.438.6,4.842-1.557,4.842-1.557l-.28-1.588-3.228,1.208-.123-1.931" fill="#e7a197"/><path d="M27.213,77.01a.791.791,0,0,1-.713-.31,5.057,5.057,0,0,1-.814-3.477.5.5,0,1,1,1,.067,4.1,4.1,0,0,0,.555,2.723,7.653,7.653,0,0,0,2.313-.725c.655-.271,1.271-.554,1.635-.726l-.11-.622-2.665,1a.5.5,0,0,1-.674-.437l-.123-1.931a.5.5,0,0,1,1-.064l.08,1.258,2.6-.972a.5.5,0,0,1,.668.381l.28,1.588a.5.5,0,0,1-.272.536c-.046.022-1.131.553-2.29,1.019A7.554,7.554,0,0,1,27.213,77.01Z" fill="#093b68"/><path d="M33.607,72.936l-1.518.747.622-3.037,1.518-.747Z" fill="#3e828b"/><path d="M32.089,74.183a.5.5,0,0,1-.49-.6l.622-3.037a.5.5,0,0,1,.269-.348l1.518-.747a.5.5,0,0,1,.711.549L34.1,73.036a.5.5,0,0,1-.269.348l-1.518.747A.5.5,0,0,1,32.089,74.183Zm1.063-3.2-.368,1.8.383-.188.368-1.8Z" fill="#093b68"/><path d="M31.41,73.327s1.07-.791,1.3-.763a9.059,9.059,0,0,1,1.385.819s.074.334-.491.555a13.67,13.67,0,0,1-1.739.446Z" fill="#fbdac8"/><path d="M32.7,72.063a.61.61,0,0,1,.073,0c.1.012.355.043,1.608.9a.5.5,0,0,1,.205.3c.062.279-.036.831-.8,1.129a13.924,13.924,0,0,1-1.827.471.5.5,0,0,1-.553-.293l-.457-1.057a.5.5,0,0,1,.162-.6C32.278,72.063,32.584,72.063,32.7,72.063Zm.664,1.432c-.271-.175-.528-.332-.674-.406a6.542,6.542,0,0,0-.66.41l.135.312A11.044,11.044,0,0,0,33.363,73.5Z" fill="#093b68"/><path d="M74.987,77.327a3.551,3.551,0,0,0-.557,1.114,1.641,1.641,0,0,0,.487,1.044.625.625,0,0,0,.8.034,1.681,1.681,0,0,0,.661-.8l-.244-.87Z" fill="#fbdac8"/><path d="M74.987,76.827a.5.5,0,0,1,.207.045l1.148.522a.5.5,0,0,1,.274.32l.244.87a.5.5,0,0,1-.013.311,2.157,2.157,0,0,1-.892,1.065,1.362,1.362,0,0,1-.651.184,1.085,1.085,0,0,1-.673-.248l-.012-.009a2.1,2.1,0,0,1-.687-1.491,3.607,3.607,0,0,1,.648-1.359A.5.5,0,0,1,74.987,76.827Zm.729,1.381-.544-.248a1.935,1.935,0,0,0-.244.526,1.3,1.3,0,0,0,.3.607h0a.487.487,0,0,0,.072.049.418.418,0,0,0,.179-.064,1.042,1.042,0,0,0,.366-.4Z" fill="#093b68"/><path d="M77.76,89.508a9.106,9.106,0,0,0-.715.811c-.253.6-2.079.57-1.913,1.165s.9.965,2.887.659l1.931-.277-.531-2.629Z" fill="#0c2f54"/><path d="M79.42,88.7a.534.534,0,0,1,.523.428l.531,2.629a.534.534,0,0,1-.448.634l-1.929.277a8.927,8.927,0,0,1-1.331.116c-1.211,0-1.934-.39-2.149-1.159a.826.826,0,0,1,.473-.973,3.937,3.937,0,0,1,.76-.285,2.782,2.782,0,0,0,.711-.279,4.5,4.5,0,0,1,.814-.954.534.534,0,0,1,.3-.156l1.659-.271A.538.538,0,0,1,79.42,88.7Zm-.1,2.715L79,89.847l-.975.159c-.216.229-.439.474-.505.563-.235.484-.831.664-1.359.823-.115.035-.264.08-.385.124a1.906,1.906,0,0,0,.992.2,7.88,7.88,0,0,0,1.171-.1h.005Z" fill="#0c2f54"/><path d="M79.841,90.246a9.106,9.106,0,0,0-.715.811c-.253.6-2.079.57-1.913,1.165s.9.965,2.887.659l1.542-.327L81.5,89.975Z" fill="#0c2f54"/><path d="M81.5,89.441a.534.534,0,0,1,.533.5l.142,2.579a.534.534,0,0,1-.422.552l-1.542.327-.03.005a8.934,8.934,0,0,1-1.334.116c-1.211,0-1.934-.39-2.149-1.159a.826.826,0,0,1,.473-.973,3.936,3.936,0,0,1,.76-.285,2.783,2.783,0,0,0,.711-.279,4.5,4.5,0,0,1,.814-.954.534.534,0,0,1,.3-.156l1.659-.271A.534.534,0,0,1,81.5,89.441Zm-.416,2.686L81,90.6l-.9.146c-.216.229-.439.474-.505.563-.235.484-.831.664-1.359.823-.115.035-.264.08-.385.124a1.906,1.906,0,0,0,.992.2,7.843,7.843,0,0,0,1.157-.1Z" fill="#0c2f54"/><path d="M75.822,77.385,76.7,90.222a4.1,4.1,0,0,0,2.1.312s.626,1.113,3.062.417c0,0-.526-12.406-.532-13.8-.006-1.475-4.454-.835-4.454-.835Z" fill="#1686d1"/><path d="M78.872,75.68h0a6.386,6.386,0,0,1,1.824.213c.99.306,1.14.92,1.142,1.258.006,1.367.526,13.655.532,13.779a.5.5,0,0,1-.362.5,5.844,5.844,0,0,1-1.586.248,2.533,2.533,0,0,1-1.81-.609q-.133.013-.274.013a5.253,5.253,0,0,1-1.831-.4.5.5,0,0,1-.3-.424l-.882-12.837a.5.5,0,0,1,.144-.387l1.061-1.067a.5.5,0,0,1,.283-.142A16.2,16.2,0,0,1,78.872,75.68Zm2.481,14.887c-.092-2.184-.51-12.152-.515-13.412,0-.191-.525-.475-1.965-.475h0a15.44,15.44,0,0,0-1.755.112l-.78.785.844,12.29a3.865,3.865,0,0,0,1.155.217,1.607,1.607,0,0,0,.359-.037.461.461,0,0,1,.545.234,1.416,1.416,0,0,0,1.181.4A4.343,4.343,0,0,0,81.352,90.567Z" fill="#093b68"/><path d="M75.839,78.058c2.088,1.322,6.061.719,6.061.719s.62-7.333-.006-9.212S78,67.549,78,67.549c-2.645.208-2.6,2.041-3.387,9.883,0,0-.2.742,1.223.626" fill="#d6893d"/><path d="M79.823,79.646a8.633,8.633,0,0,1-4.167-.845h-.1a1.708,1.708,0,0,1-1.437-.564,1.179,1.179,0,0,1-.226-.918q.091-.909.169-1.712a33.542,33.542,0,0,1,.965-6.551,2.992,2.992,0,0,1,2.92-2.238.73.73,0,0,1,.088,0,8.526,8.526,0,0,1,1.891.334,3.68,3.68,0,0,1,2.664,2.182c.655,1.965.106,8.739.041,9.505a.732.732,0,0,1-.62.662A16.022,16.022,0,0,1,79.823,79.646Zm-3.984-2.32a.732.732,0,0,1,.392.114,6.982,6.982,0,0,0,3.593.743c.55,0,1.041-.032,1.4-.064.221-2.906.377-7.133-.019-8.322-.371-1.114-2.429-1.47-3.185-1.514a1.549,1.549,0,0,0-1.606,1.255,34.175,34.175,0,0,0-.891,6.214q-.073.744-.156,1.576a1.553,1.553,0,0,0,.193.011c.069,0,.144,0,.225-.01Z" fill="#093b68"/><path d="M77.96,68.109c-3.006-.358-2.21-3.55-1.915-4.252a2.477,2.477,0,0,1,4.158-.8c1.695,1.955-.221,4.4-.221,4.4,0,.3-.005.843-.005.843s-1.123.776-1.894.186Z" fill="#fbdac8"/><path d="M78.769,69.2a1.59,1.59,0,0,1-.99-.324.5.5,0,0,1-.171-.24l-.027-.081a2.722,2.722,0,0,1-1.945-1.289,4.532,4.532,0,0,1-.053-3.6A3.036,3.036,0,0,1,78.4,61.736a2.884,2.884,0,0,1,2.182.991,3.408,3.408,0,0,1,.625,3.408,5.689,5.689,0,0,1-.724,1.478c0,.3,0,.681,0,.686a.5.5,0,0,1-.216.407A2.917,2.917,0,0,1,78.769,69.2ZM78.5,68.15a.663.663,0,0,0,.269.051,1.718,1.718,0,0,0,.71-.2c0-.176,0-.4,0-.553a.5.5,0,0,1,.107-.309,4.625,4.625,0,0,0,.67-1.331,2.418,2.418,0,0,0-.434-2.429,1.859,1.859,0,0,0-1.426-.646,2.05,2.05,0,0,0-1.893,1.314,3.6,3.6,0,0,0-.005,2.714,1.867,1.867,0,0,0,1.518.849.5.5,0,0,1,.415.339Z" fill="#093b68"/><path d="M77.1,65.143a.316.316,0,1,1-.316-.317.316.316,0,0,1,.316.317" fill="#103056"/><path d="M78.706,65.208a.317.317,0,1,1-.316-.317.316.316,0,0,1,.316.317" fill="#103056"/><path fill="#0c2f54"/><path d="M80.158,67.656c3.844-3.234.074-5.323.074-5.323-1.635-1.914-3.462-.073-4.022-.011a6.665,6.665,0,0,1-1.282-.029,2.321,2.321,0,0,0,.846,1.283c1,.648,3.533.142,3.533.142l.707,1.122s.692-.118.818.343-.636,1.125-.636,1.125Z" fill="#0c2f54"/><path d="M80.158,68.19a.534.534,0,0,1-.534-.549l.038-1.348a.534.534,0,0,1,.183-.388,2.086,2.086,0,0,0,.442-.54.666.666,0,0,0-.084,0,.77.77,0,0,0-.1.007.516.516,0,0,1-.537-.242l-.517-.82a11.259,11.259,0,0,1-1.642.135,3.532,3.532,0,0,1-1.92-.416,2.812,2.812,0,0,1-1.076-1.611.534.534,0,0,1,.586-.65,7.212,7.212,0,0,0,.774.046,3.682,3.682,0,0,0,.369-.016,3.553,3.553,0,0,0,.38-.193,4.3,4.3,0,0,1,2.038-.668,2.662,2.662,0,0,1,2.024.986,3.8,3.8,0,0,1,1.829,2.627c.114,1.176-.527,2.36-1.905,3.52A.534.534,0,0,1,80.158,68.19ZM80.3,64.3a1.062,1.062,0,0,1,1.038.72,1.694,1.694,0,0,0,.005-.362A2.838,2.838,0,0,0,79.972,62.8a.544.544,0,0,1-.146-.119A1.655,1.655,0,0,0,78.555,62a3.33,3.33,0,0,0-1.522.535,2.181,2.181,0,0,1-.764.318,4.605,4.605,0,0,1-.472.024,1.149,1.149,0,0,0,.268.251,2.536,2.536,0,0,0,1.338.244,10.654,10.654,0,0,0,1.8-.178.534.534,0,0,1,.556.239Z" fill="#0c2f54"/><line x2="0.905" y2="10.44" transform="translate(77.903 80.094)" fill="#1686d1"/><path d="M.9,10.94a.5.5,0,0,1-.5-.457L-.5.043A.5.5,0,0,1-.043-.5.5.5,0,0,1,.5-.043L1.4,10.4a.5.5,0,0,1-.455.541Z" transform="translate(77.903 80.094)" fill="#093b68"/><path d="M76.225,70.815a55.839,55.839,0,0,0-.386,7.243" fill="#d6893d"/><path d="M75.838,78.79a.732.732,0,0,1-.727-.653,55.157,55.157,0,0,1,.386-7.4.732.732,0,0,1,1.455.16,55.738,55.738,0,0,0-.386,7.084.733.733,0,0,1-.729.811Z" fill="#093b68"/><path d="M81.537,68.92c1.355,1.605,1.075,5.113.872,6.651a.712.712,0,0,1-.95.642,22.091,22.091,0,0,1-2.3-.835,2.477,2.477,0,0,0,.139-1.6l1.461.348s-.1-2.679-.174-3.166" fill="#d6893d"/><path d="M81.708,76.983a1.61,1.61,0,0,1-.457-.068,22.641,22.641,0,0,1-2.382-.866.727.727,0,0,1-.4-.415.719.719,0,0,1,.029-.568,1.742,1.742,0,0,0,.1-1.076.732.732,0,0,1,.87-.925l.519.124c-.041-.91-.092-1.889-.127-2.125a.732.732,0,1,1,1.449-.208c.073.51.17,2.964.181,3.242a.732.732,0,0,1-.9.74l-.5-.119c-.01.082-.022.16-.037.235.418.164,1.007.381,1.609.558l.01,0a.28.28,0,0,0,.007-.038c.375-2.842.111-5.116-.706-6.084a.732.732,0,0,1,1.119-.944c1.5,1.775,1.294,5.285,1.038,7.219a1.5,1.5,0,0,1-.658,1.091A1.4,1.4,0,0,1,81.708,76.983Z" fill="#093b68"/><line x1="0.818" y1="0.165" transform="translate(80.764 74.125)" fill="#d6893d"/><path d="M.819.9A.735.735,0,0,1,.673.883L-.145.718A.732.732,0,0,1-.718-.145.732.732,0,0,1,.145-.718l.818.165A.732.732,0,0,1,.819.9Z" transform="translate(80.764 74.125)" fill="#093b68"/><path d="M77.264,73.882l1.518.747-.622-3.037-1.518-.747Z" fill="#139ab6"/><path d="M78.782,75.129a.5.5,0,0,1-.221-.051l-1.518-.747a.5.5,0,0,1-.269-.348l-.622-3.037a.5.5,0,0,1,.711-.549l1.518.747a.5.5,0,0,1,.269.348l.622,3.037a.5.5,0,0,1-.49.6ZM77.7,73.542l.383.188-.368-1.8-.383-.188Z" fill="#093b68"/><path d="M79.824,74.23a8.421,8.421,0,0,0-1.044-.87c-.278-.139-.592.174-.592.174s-.73,0-.765.1a.842.842,0,0,0-.035,1.184,1.181,1.181,0,0,0,1.079.591l1.044-.209Z" fill="#fbdac8"/><path d="M78.627,72.824h0a.835.835,0,0,1,.377.088,7.635,7.635,0,0,1,1.166.955.5.5,0,0,1,.131.515l-.313.974a.5.5,0,0,1-.378.337l-1.044.209H78.56a.965.965,0,0,1-.175.014,1.764,1.764,0,0,1-1.4-.8,1.288,1.288,0,0,1-.013-1.712l.006-.008c.141-.279.48-.355,1.03-.367A1.105,1.105,0,0,1,78.627,72.824Zm.624,1.555a7.663,7.663,0,0,0-.642-.54.45.45,0,0,0-.068.049.5.5,0,0,1-.353.146c-.156,0-.334.009-.448.022-.1.125-.139.217.048.466.283.377.54.4.6.4l.735-.147Z" fill="#093b68"/><path d="M60.308,64.914H47.539a5.5,5.5,0,0,1-5.5-5.5V21.789a5.5,5.5,0,0,1,5.5-5.5H60.308a5.5,5.5,0,0,1,5.5,5.5V59.416a5.5,5.5,0,0,1-5.5,5.5" fill="#fff"/><path d="M5.5-.5H18.267a6,6,0,0,1,6,6V43.125a6.006,6.006,0,0,1-6,6H5.5a6.006,6.006,0,0,1-6-6V5.5A6,6,0,0,1,5.5-.5ZM18.266,48.124a5,5,0,0,0,5-5V5.5a5,5,0,0,0-5-5H5.5a5,5,0,0,0-5,5V43.125a5,5,0,0,0,5,5Z" transform="translate(42.041 16.29)" fill="#093b68"/><rect width="23.766" height="42.622" transform="translate(42.041 19.083)" fill="#fff"/><path d="M0-.5H23.766a.5.5,0,0,1,.5.5V42.622a.5.5,0,0,1-.5.5H0a.5.5,0,0,1-.5-.5V0A.5.5,0,0,1,0-.5ZM23.266.5H.5V42.122H23.266Z" transform="translate(42.041 19.083)" fill="#093b68"/><path d="M65.807,18.2a1.914,1.914,0,0,0-1.915-1.914H43.956A1.915,1.915,0,0,0,42.041,18.2v.879H65.807Z" fill="#e5a92a"/><path d="M65.807,19.583H42.041a.5.5,0,0,1-.5-.5V18.2a2.417,2.417,0,0,1,2.415-2.414H63.892A2.417,2.417,0,0,1,66.307,18.2v.879A.5.5,0,0,1,65.807,19.583Zm-23.266-1H65.307V18.2a1.416,1.416,0,0,0-1.415-1.414H43.956A1.416,1.416,0,0,0,42.541,18.2Z" fill="#093b68"/><path d="M42.041,63a1.915,1.915,0,0,0,1.915,1.915H63.892A1.916,1.916,0,0,0,65.807,63V61.705H42.041Z" fill="#e5a92a"/><path d="M42.041,61.205H65.807a.5.5,0,0,1,.5.5V63a2.418,2.418,0,0,1-2.415,2.415H43.956A2.418,2.418,0,0,1,41.541,63V61.705A.5.5,0,0,1,42.041,61.205Zm23.266,1H42.541V63a1.417,1.417,0,0,0,1.415,1.415H63.892A1.417,1.417,0,0,0,65.307,63Z" fill="#093b68"/><line y1="4.333" x2="9.246" transform="translate(37.801 70.066)" fill="#16639f"/><path d="M0,5.4a1.068,1.068,0,0,1-.968-.615,1.068,1.068,0,0,1,.514-1.42L8.793-.967a1.068,1.068,0,0,1,1.42.514A1.068,1.068,0,0,1,9.7.967L.453,5.3A1.064,1.064,0,0,1,0,5.4Z" transform="translate(37.801 70.066)" fill="#093b68"/><path d="M37.995,74.829a.987.987,0,1,1-.987-.987.987.987,0,0,1,.987.987" fill="#fff"/><path d="M37.008,73.342a1.487,1.487,0,1,1-1.488,1.487A1.489,1.489,0,0,1,37.008,73.342Zm0,1.974a.487.487,0,1,0-.488-.487A.488.488,0,0,0,37.008,75.316Z" fill="#093b68"/><path d="M48.281,69.912a.987.987,0,1,1-.987-.987.987.987,0,0,1,.987.987" fill="#fff"/><path d="M47.294,68.425a1.487,1.487,0,1,1-1.488,1.487A1.489,1.489,0,0,1,47.294,68.425Zm0,1.974a.487.487,0,1,0-.488-.487A.488.488,0,0,0,47.294,70.4Z" fill="#093b68"/><line x1="9.246" y1="4.333" transform="translate(61.569 70.066)" fill="#16639f"/><path d="M9.245,5.4a1.064,1.064,0,0,1-.452-.1L-.453.967A1.068,1.068,0,0,1-.967-.453,1.068,1.068,0,0,1,.453-.967L9.7,3.366A1.068,1.068,0,0,1,9.245,5.4Z" transform="translate(61.569 70.066)" fill="#093b68"/><path d="M70.62,74.829a.987.987,0,1,0,.987-.987.987.987,0,0,0-.987.987" fill="#fff"/><path d="M71.607,73.342a1.487,1.487,0,1,1-1.487,1.487A1.489,1.489,0,0,1,71.607,73.342Zm0,1.974a.487.487,0,1,0-.487-.487A.488.488,0,0,0,71.607,75.316Z" fill="#093b68"/><path d="M60.335,69.912a.988.988,0,1,0,.987-.987.987.987,0,0,0-.987.987" fill="#fff"/><path d="M61.322,68.425a1.487,1.487,0,1,1-1.487,1.487A1.489,1.489,0,0,1,61.322,68.425Zm0,1.974a.487.487,0,1,0-.487-.487A.488.488,0,0,0,61.322,70.4Z" fill="#093b68"/><line x2="8.288" transform="translate(44.852 56.052)" fill="#16639f"/><path d="M8.288.5H0A.5.5,0,0,1-.5,0,.5.5,0,0,1,0-.5H8.288a.5.5,0,0,1,.5.5A.5.5,0,0,1,8.288.5Z" transform="translate(44.852 56.052)" fill="#093b68"/><line x2="8.288" transform="translate(44.852 53.476)" fill="#16639f"/><path d="M8.288.5H0A.5.5,0,0,1-.5,0,.5.5,0,0,1,0-.5H8.288a.5.5,0,0,1,.5.5A.5.5,0,0,1,8.288.5Z" transform="translate(44.852 53.476)" fill="#093b68"/><line x2="8.288" transform="translate(44.852 50.9)" fill="#16639f"/><path d="M8.288.5H0A.5.5,0,0,1-.5,0,.5.5,0,0,1,0-.5H8.288a.5.5,0,0,1,.5.5A.5.5,0,0,1,8.288.5Z" transform="translate(44.852 50.9)" fill="#093b68"/><line x2="8.288" transform="translate(44.852 48.323)" fill="#16639f"/><path d="M8.288.5H0A.5.5,0,0,1-.5,0,.5.5,0,0,1,0-.5H8.288a.5.5,0,0,1,.5.5A.5.5,0,0,1,8.288.5Z" transform="translate(44.852 48.323)" fill="#093b68"/><line x2="9.627" transform="translate(53.835 22.086)" fill="#16639f"/><path d="M9.627.5H0A.5.5,0,0,1-.5,0,.5.5,0,0,1,0-.5H9.627a.5.5,0,0,1,.5.5A.5.5,0,0,1,9.627.5Z" transform="translate(53.835 22.086)" fill="#093b68"/><path d="M49.546,31.676s1.939-3.7,4.271-1.824c3.715,2.988-4.271,8.276-4.271,8.276s-7.986-5.288-4.271-8.276c2.332-1.876,4.271,1.824,4.271,1.824" fill="#ea6280"/><path d="M46.629,28.679A3.536,3.536,0,0,1,49.2,30.074c.127.144.243.289.346.426.1-.137.219-.281.346-.426a3.537,3.537,0,0,1,2.571-1.395,2.776,2.776,0,0,1,1.756.673,3,3,0,0,1,1.222,2.53c-.063,1.37-1.033,2.938-2.881,4.66a22.869,22.869,0,0,1-2.66,2.121.642.642,0,0,1-.709,0,22.869,22.869,0,0,1-2.66-2.121c-1.848-1.722-2.817-3.29-2.881-4.66a3,3,0,0,1,1.222-2.53A2.777,2.777,0,0,1,46.629,28.679Zm2.917,3.639h0a.642.642,0,0,1-.569-.344c-.3-.559-1.293-2.011-2.348-2.011a1.514,1.514,0,0,0-.951.389,1.724,1.724,0,0,0-.744,1.47c.09,1.935,3.087,4.446,4.612,5.526,1.525-1.082,4.524-3.6,4.613-5.527a1.724,1.724,0,0,0-.744-1.47,1.514,1.514,0,0,0-.951-.389c-1.057,0-2.075,1.489-2.349,2.011A.642.642,0,0,1,49.546,32.318Z" fill="#093b68"/><path d="M48.611,42.415c0,1.749-.52,2.719-1.693,2.719a1.358,1.358,0,0,1-1.372-.761.547.547,0,0,1-.045-.209.556.556,0,0,1,.53-.535.372.372,0,0,1,.317.184.682.682,0,0,0,.575.357c.47,0,.757-.422.782-1.244a1.069,1.069,0,0,1-.921.441,1.517,1.517,0,0,1-1.431-1.708,1.565,1.565,0,0,1,1.575-1.75c1.03,0,1.683.863,1.683,2.506m-2.342-.78c0,.506.272.774.674.774a.777.777,0,0,0-.011-1.542.687.687,0,0,0-.663.768" fill="#093b68"/><path d="M50.152,44.462a.534.534,0,1,1-.53-.6.551.551,0,0,1,.53.6" fill="#093b68"/><path d="M51.693,41.677c-.005.054-.02.119-.031.184a1.174,1.174,0,0,1,.748-.249c.877,0,1.416.648,1.416,1.713a1.623,1.623,0,0,1-1.589,1.827,1.546,1.546,0,0,1-1.466-.815.479.479,0,0,1-.064-.244.623.623,0,0,1,.258-.482.463.463,0,0,1,.277-.107.407.407,0,0,1,.351.244.742.742,0,0,0,.624.417c.411,0,.644-.352.644-.845s-.263-.762-.644-.762a.585.585,0,0,0-.529.285.481.481,0,0,1-.427.238.4.4,0,0,1-.084-.006.431.431,0,0,1-.411-.482.265.265,0,0,1,.005-.059l.163-1.994c.031-.339.2-.517.5-.517h1.922c.2,0,.3.238.3.5s-.1.512-.3.512h-1.52c-.055,0-.094.036-.1.107Z" fill="#093b68"/><path d="M17.652,52.6a2.587,2.587,0,0,1-1.669,2.288c-1.04.484-1.659.212-1.659-.71a2.016,2.016,0,0,1,.847-1.662c-.471.053-.7-.2-.7-.811a2.413,2.413,0,0,1,1.521-2.053c.916-.426,1.52-.142,1.52.62a1.756,1.756,0,0,1-.678,1.47c.535-.123.817.185.817.858M15.29,53.617c0,.4.267.5.7.3a1.082,1.082,0,0,0,.688-.945c0-.4-.262-.508-.688-.31a1.1,1.1,0,0,0-.7.958m.074-2.183c0,.369.252.459.639.28a.983.983,0,0,0,.614-.863c0-.351-.248-.444-.624-.27a.979.979,0,0,0-.629.853" fill="#093b68"/><path d="M19.148,52.738a.975.975,0,0,1-.53.848c-.3.138-.53,0-.53-.355a.976.976,0,0,1,.53-.848c.3-.138.53,0,.53.355" fill="#093b68"/><path d="M20.688,49.236c0,.056-.02.128-.03.2a2.062,2.062,0,0,1,.748-.6c.877-.408,1.417-.011,1.417,1.055a2.841,2.841,0,0,1-1.59,2.566c-.837.389-1.248.158-1.466-.134a.334.334,0,0,1-.065-.213,1.03,1.03,0,0,1,.258-.6.832.832,0,0,1,.277-.236.264.264,0,0,1,.352.08.478.478,0,0,0,.624.126,1.227,1.227,0,0,0,.644-1.144c0-.482-.263-.64-.644-.462a1.088,1.088,0,0,0-.53.532.894.894,0,0,1-.426.436.457.457,0,0,1-.084.033c-.287.1-.411-.023-.411-.291a.3.3,0,0,1,.005-.062l.163-2.069a.857.857,0,0,1,.5-.75l1.922-.9c.2-.094.3.1.3.36a.714.714,0,0,1-.3.652l-1.52.708a.172.172,0,0,0-.1.153Z" fill="#093b68"/><rect width="1.358" height="5.801" transform="translate(52.168 69.912)" fill="#fbdac8"/><path d="M0-.5H1.358a.5.5,0,0,1,.5.5V5.8a.5.5,0,0,1-.5.5H0a.5.5,0,0,1-.5-.5V0A.5.5,0,0,1,0-.5ZM.858.5H.5V5.3H.858Z" transform="translate(52.168 69.912)" fill="#093b68"/><rect width="1.358" height="5.801" transform="matrix(0.998, -0.062, 0.062, 0.998, 55.416, 70.021)" fill="#fbdac8"/><path d="M0-.5H1.358a.5.5,0,0,1,.5.5V5.8a.5.5,0,0,1-.5.5H0a.5.5,0,0,1-.5-.5V0A.5.5,0,0,1,0-.5ZM.858.5H.5V5.3H.858Z" transform="matrix(0.998, -0.062, 0.062, 0.998, 55.416, 70.021)" fill="#093b68"/><path d="M51.922,61.766s-.617,7.282-.432,8.886a3.871,3.871,0,0,0,2.777.124l.185-5.739.556,5.739a8.108,8.108,0,0,0,3.023.02s-1.172-8.1-1.481-9.4-4.628.37-4.628.37" fill="#4e8378"/><path d="M55.53,60.4h0c1.072,0,1.411.477,1.506.878.311,1.3,1.441,9.112,1.489,9.444a.5.5,0,0,1-.4.563,8.6,8.6,0,0,1-3.231-.024.5.5,0,0,1-.258-.151.5.5,0,0,1-.147.111,2.883,2.883,0,0,1-1.3.28,5.372,5.372,0,0,1-1.9-.392.5.5,0,0,1-.3-.4c-.189-1.635.405-8.686.431-8.986a.5.5,0,0,1,.318-.424A13.717,13.717,0,0,1,55.53,60.4Zm1.935,9.976c-.258-1.771-1.144-7.789-1.4-8.866a.041.041,0,0,0,0-.008c-.015-.021-.151-.1-.531-.1a11.626,11.626,0,0,0-3.136.723c-.108,1.326-.508,6.422-.43,8.166a4.184,4.184,0,0,0,1.227.211,2.184,2.184,0,0,0,.587-.073l.174-5.409a.5.5,0,0,1,1-.032l.519,5.361a8.013,8.013,0,0,0,1.121.079A7.452,7.452,0,0,0,57.465,70.378Z" fill="#093b68"/><path d="M50.338,61.705s-.535,1.481-.329,1.769.7.782.823.782a6.461,6.461,0,0,0,.864-.329l-.247-1.317-.165-.946Z" fill="#fbdac8"/><path d="M51.284,61.164a.5.5,0,0,1,.492.414l.164.943.246,1.314a.5.5,0,0,1-.289.549c-.838.372-.981.372-1.067.372-.212,0-.41-.115-.729-.424a4.613,4.613,0,0,1-.5-.567c-.191-.267-.188-.663.011-1.412.112-.422.249-.8.255-.818a.5.5,0,0,1,.449-.33l.946-.041Zm-.154,2.461-.173-.922V62.7l-.09-.513-.165.007a4.762,4.762,0,0,0-.241,1.053,4.1,4.1,0,0,0,.446.471C50.97,63.689,51.048,63.659,51.131,63.625Z" fill="#093b68"/><path d="M53.094,52.654a4.537,4.537,0,0,0-2.386,1.563,20.231,20.231,0,0,0-.679,7.9l1.358.031.031.864s4.391.71,5.749-.154c0,0-.051-7.045-.082-8.064s-1.584-2.016-2.14-2.016-1.851-.123-1.851-.123" fill="#fff"/><path d="M53.094,52.154l.047,0c.013,0,1.279.121,1.8.121a3.021,3.021,0,0,1,1.583.739,2.6,2.6,0,0,1,1.057,1.762c.031,1.013.08,7.788.082,8.076a.5.5,0,0,1-.232.425,5.266,5.266,0,0,1-2.71.507,24.237,24.237,0,0,1-3.388-.281.5.5,0,0,1-.42-.476l-.014-.393-.887-.02a.5.5,0,0,1-.485-.437,20.273,20.273,0,0,1,.728-8.185A3.416,3.416,0,0,1,51.8,52.646,4.586,4.586,0,0,1,53.094,52.154Zm3.571,10.393c-.01-1.378-.053-6.86-.079-7.739A1.618,1.618,0,0,0,55.9,53.8a2.333,2.333,0,0,0-.959-.52c-.5,0-1.526-.091-1.82-.118a4.061,4.061,0,0,0-1.97,1.282,19.87,19.87,0,0,0-.677,7.185l.92.021a.5.5,0,0,1,.488.482l.016.447a22.735,22.735,0,0,0,2.823.21A5.756,5.756,0,0,0,56.665,62.547Z" fill="#093b68"/><path d="M52.23,50.18a.625.625,0,1,1-.617-.725.678.678,0,0,1,.617.725" fill="#fbdac8"/><path d="M.617-.5A1.176,1.176,0,0,1,1.734.725,1.176,1.176,0,0,1,.617,1.95,1.176,1.176,0,0,1-.5.725,1.176,1.176,0,0,1,.617-.5Zm0,1.45C.657.95.734.862.734.725S.657.5.617.5.5.588.5.725.577.95.617.95Z" transform="translate(50.996 49.455)" fill="#093b68"/><path d="M57.044,50.18a.625.625,0,1,1-.617-.725.678.678,0,0,1,.617.725" fill="#fbdac8"/><path d="M.617-.5A1.176,1.176,0,0,1,1.734.725,1.176,1.176,0,0,1,.617,1.95,1.176,1.176,0,0,1-.5.725,1.176,1.176,0,0,1,.617-.5Zm0,1.45C.657.95.734.862.734.725S.657.5.617.5.5.588.5.725.577.95.617.95Z" transform="translate(55.81 49.455)" fill="#093b68"/><path d="M56.489,49.763c0-1.38-1.085-3.024-2.423-3.024s-2.423,1.644-2.423,3.024A2.492,2.492,0,0,0,53.2,52.09V53c0,.136.387.247.864.247s.864-.111.864-.247V52.09a2.492,2.492,0,0,0,1.559-2.327" fill="#fbdac8"/><path d="M54.066,46.239c1.646,0,2.923,1.894,2.923,3.524a2.981,2.981,0,0,1-1.559,2.645V53c0,.475-.5.747-1.364.747S52.7,53.478,52.7,53v-.595a2.981,2.981,0,0,1-1.559-2.645C51.143,48.133,52.42,46.239,54.066,46.239Zm.364,6.482V52.09a.5.5,0,0,1,.316-.465,1.981,1.981,0,0,0,1.243-1.862,3,3,0,0,0-.609-1.729,1.483,1.483,0,0,0-2.627,0,3,3,0,0,0-.609,1.729,1.981,1.981,0,0,0,1.243,1.862.5.5,0,0,1,.316.465v.631a2.327,2.327,0,0,0,.728,0Z" fill="#093b68"/><path d="M53.678,49.3a.317.317,0,1,1-.316-.317.316.316,0,0,1,.316.317" fill="#103056"/><path d="M55.285,49.362a.317.317,0,1,1-.316-.317.316.316,0,0,1,.316.317" fill="#103056"/><path fill="#0c2f54"/><path d="M54.606,47.912l-1.512.771.216-.987-1.7,1.882a2.257,2.257,0,0,1,2.036-3.147s3.209-.771,3.086,3.178a22.186,22.186,0,0,1-2.129-1.7" fill="#0c2f54"/><path d="M56.735,50.143a.534.534,0,0,1-.3-.093,22.678,22.678,0,0,1-1.91-1.5l-1.186.6a.534.534,0,0,1-.569-.053l-.006,0-.752.834a.534.534,0,0,1-.9-.166,3.165,3.165,0,0,1,.137-2.488,3.04,3.04,0,0,1,2.3-1.375,3.157,3.157,0,0,1,2.827.753,3.94,3.94,0,0,1,.894,2.966.534.534,0,0,1-.534.517Zm-2.129-2.765a.534.534,0,0,1,.36.14c.4.367.811.7,1.159.974a1.816,1.816,0,0,0-2.354-1.541l-.037.007a2.061,2.061,0,0,0-1.554.85A1.461,1.461,0,0,0,52,48.35l.912-1.012a.534.534,0,0,1,.931.363l.519-.265A.533.533,0,0,1,54.606,47.378Z" fill="#0c2f54"/><path d="M51.695,55.287s-.37,5.04-.309,6.86" fill="#fff"/><path d="M51.386,62.647a.5.5,0,0,1-.5-.483c-.061-1.826.295-6.706.31-6.913a.5.5,0,1,1,1,.073c0,.05-.367,5.034-.308,6.807a.5.5,0,0,1-.483.516Z" fill="#093b68"/><rect width="1.892" height="3.456" transform="translate(54.164 52.077)" fill="#e5a92a"/><path d="M0-.5H1.892a.5.5,0,0,1,.5.5V3.456a.5.5,0,0,1-.5.5H0a.5.5,0,0,1-.5-.5V0A.5.5,0,0,1,0-.5ZM1.392.5H.5V2.956h.892Z" transform="translate(54.164 52.077)" fill="#093b68"/><path d="M57,55.451a6.508,6.508,0,0,0-.288-1.646c-.206-.37-1.111-.452-1.111-.452s-.946-.247-.9.206,0,.822.247,1.028.823.741.823.741l.288.205Z" fill="#fbdac8"/><path d="M56.057,56.033a.5.5,0,0,1-.29-.093l-.288-.2a.5.5,0,0,1-.05-.041c-.006-.005-.569-.528-.8-.723a1.415,1.415,0,0,1-.408-1.115c0-.082-.009-.167-.017-.252a.711.711,0,0,1,.179-.552.939.939,0,0,1,.726-.266,2.733,2.733,0,0,1,.582.073c.313.033,1.167.169,1.464.7a6.064,6.064,0,0,1,.35,1.857.5.5,0,0,1-.456.53l-.946.082Zm.028-1.094.112.08L56.461,55a4.279,4.279,0,0,0-.177-.937,1.73,1.73,0,0,0-.726-.209.512.512,0,0,1-.08-.014,1.977,1.977,0,0,0-.262-.045V53.8a1.48,1.48,0,0,0,.053.405C55.494,54.393,55.971,54.834,56.085,54.939Z" fill="#093b68"/><path d="M55.768,55.328l1.646-.165s.658,2.633.329,3.621-.988.823-1.111.74a8.3,8.3,0,0,1-.864-4.2" fill="#fff"/><path d="M57.414,54.663a.5.5,0,0,1,.485.379c.071.284.683,2.806.318,3.9-.345,1.035-1.035,1.146-1.316,1.146a1.02,1.02,0,0,1-.549-.15,3.6,3.6,0,0,1-.7-1.5,11.011,11.011,0,0,1-.389-3.121.5.5,0,0,1,.45-.489l1.646-.165Zm-.468,4.419c.119-.034.237-.2.322-.456a8.013,8.013,0,0,0-.242-2.922l-.757.076A8.825,8.825,0,0,0,56.946,59.082Z" fill="#093b68"/><path d="M52.169,75.713s-.494,1.08-.71,1.512-.031,1.08.309,1.142,2,0,2,0,.679-.494.4-1.142l-.648-1.512Z" fill="#c4c38f"/><path d="M52.169,75.213h1.358a.5.5,0,0,1,.46.3l.648,1.512a1.494,1.494,0,0,1-.567,1.743.5.5,0,0,1-.276.1c-.031,0-.756.027-1.353.027a4.59,4.59,0,0,1-.759-.035.934.934,0,0,1-.659-.536A1.527,1.527,0,0,1,51.012,77c.21-.419.7-1.486.7-1.5A.5.5,0,0,1,52.169,75.213Zm1.028,1h-.708c-.163.354-.435.938-.583,1.236a.552.552,0,0,0,.01.433c.072.006.223.013.522.013.4,0,.883-.013,1.137-.021a.436.436,0,0,0,.139-.452Z" fill="#093b68"/><path d="M55.717,75.811l.062,2.309h3.486s.6-.749-.154-.988A3.2,3.2,0,0,1,57.2,75.727Z" fill="#c4c38f"/><path d="M57.2,75.227a.482.482,0,0,1,.445.277,2.755,2.755,0,0,0,1.617,1.151.966.966,0,0,1,.687.639,1.358,1.358,0,0,1-.294,1.137.5.5,0,0,1-.391.189H55.779a.5.5,0,0,1-.5-.487l-.062-2.309a.5.5,0,0,1,.472-.513l1.481-.084Zm1.778,2.388-.019-.007a3.992,3.992,0,0,1-2.021-1.366l-.709.04.036,1.337h2.711Z" fill="#093b68"/><path d="M36.556,82.563a.988.988,0,1,1-.988-.987.988.988,0,0,1,.988.987" fill="#fff"/><path d="M35.568,81.076a1.487,1.487,0,1,1-1.488,1.487A1.489,1.489,0,0,1,35.568,81.076Zm0,1.974a.487.487,0,1,0-.488-.487A.488.488,0,0,0,35.568,83.05Z" fill="#093b68"/><path d="M73.953,82.563a.988.988,0,1,1-.987-.987.987.987,0,0,1,.987.987" fill="#fff"/><path d="M72.966,81.076a1.487,1.487,0,1,1-1.488,1.487A1.489,1.489,0,0,1,72.966,81.076Zm0,1.974a.487.487,0,1,0-.488-.487A.488.488,0,0,0,72.966,83.05Z" fill="#093b68"/><line x2="35.422" transform="translate(36.556 82.687)" fill="#16639f"/><path d="M35.422,1.068H0A1.068,1.068,0,0,1-1.068,0,1.068,1.068,0,0,1,0-1.068H35.422A1.068,1.068,0,0,1,36.49,0,1.068,1.068,0,0,1,35.422,1.068Z" transform="translate(36.556 82.687)" fill="#093b68"/></g></g></g></svg>