<svg xmlns="http://www.w3.org/2000/svg" xmlns:xlink="http://www.w3.org/1999/xlink" width="108.001" height="108" viewBox="0 0 108.001 108">
  <defs>
    <clipPath id="clip-path">
      <rect id="長方形_1013" data-name="長方形 1013" width="108" height="108" transform="translate(47.293 7.223)" fill="none"/>
    </clipPath>
    <clipPath id="clip-path-5">
      <rect id="長方形_1016" data-name="長方形 1016" width="44.848" height="27.96" transform="translate(39.191 89.072)" fill="none"/>
    </clipPath>
    <clipPath id="clip-path-7">
      <rect id="長方形_1018" data-name="長方形 1018" width="24.082" height="19.101" transform="translate(43.95 82.071)" fill="none"/>
    </clipPath>
    <clipPath id="clip-path-8">
      <rect id="長方形_1019" data-name="長方形 1019" width="19.409" height="15.983" transform="translate(60.688 85.062)" fill="none"/>
    </clipPath>
    <clipPath id="clip-path-9">
      <rect id="長方形_1020" data-name="長方形 1020" width="11.392" height="10.686" transform="translate(46.291 84.226)" fill="none"/>
    </clipPath>
    <clipPath id="clip-path-10">
      <rect id="長方形_1021" data-name="長方形 1021" width="10.202" height="6.112" transform="translate(65.995 90.773)" fill="none"/>
    </clipPath>
    <clipPath id="clip-path-11">
      <rect id="長方形_1022" data-name="長方形 1022" width="13.332" height="6.731" transform="translate(85.618 67.041)" fill="none"/>
    </clipPath>
    <clipPath id="clip-path-12">
      <rect id="長方形_1023" data-name="長方形 1023" width="52.675" height="30.782" transform="translate(95.369 68.028)" fill="none"/>
    </clipPath>
    <clipPath id="clip-path-13">
      <rect id="長方形_1024" data-name="長方形 1024" width="14.411" height="7.275" transform="translate(102.194 53.943)" fill="none"/>
    </clipPath>
  </defs>
  <g id="グループ_609" data-name="グループ 609" transform="translate(-47.293 -7.223)">
    <g id="グループ_654" data-name="グループ 654">
      <path id="パス_23229" data-name="パス 23229" d="M139.973,7.223,47.294,59.876v48.166l108-61.952V7.223Z" fill="#d1b898"/>
      <g id="グループ_575" data-name="グループ 575">
        <g id="グループ_574" data-name="グループ 574" clip-path="url(#clip-path)">
          <path id="パス_23230" data-name="パス 23230" d="M39.08,112.754.937,86.213,151.653.588l38.161,25.7Z" fill="none" stroke="#073358" stroke-miterlimit="10" stroke-width="1"/>
        </g>
        <path id="パス_23233" data-name="パス 23233" d="M47.293,107.961v2.766l108-63.012V44.948Z" fill="#d7d7d8"/>
      </g>
      <path id="パス_23231" data-name="パス 23231" d="M47.293,110.728v4.5h108V47.715Z" fill="#728b96"/>
      <g id="グループ_577" data-name="グループ 577">
        <g id="グループ_576" data-name="グループ 576" clip-path="url(#clip-path)">
          <path id="パス_23232" data-name="パス 23232" d="M248.968,64.23,103.142,149.367,41.591,114.054,185.76,29.938Z" fill="none" stroke="#073358" stroke-miterlimit="10" stroke-width="1"/>
        </g>
      </g>
      <g id="グループ_579" data-name="グループ 579">
        <g id="グループ_578" data-name="グループ 578" clip-path="url(#clip-path)">
          <path id="パス_23234" data-name="パス 23234" d="M185.76,29.939,41.591,114.055l-2.511-1.3L183.249,28.638Z" fill="none" stroke="#073358" stroke-miterlimit="10" stroke-width="1"/>
        </g>
      </g>
      <path id="パス_23235" data-name="パス 23235" d="M92.871,115.223,155.293,78.8Z" fill="#fff"/>
      <g id="グループ_584" data-name="グループ 584">
        <g id="グループ_583" data-name="グループ 583" clip-path="url(#clip-path)">
          <g id="グループ_582" data-name="グループ 582" opacity="0.3">
            <g id="グループ_581" data-name="グループ 581">
              <g id="グループ_580" data-name="グループ 580" clip-path="url(#clip-path-5)">
                <path id="パス_23236" data-name="パス 23236" d="M53.65,116.622,83.466,99a1.189,1.189,0,0,0-.09-2.084L67.21,89.184a1.263,1.263,0,0,0-1.279.144l-25.9,19.218c-.945.58-1.188,2.34-.218,2.792l11.308,5.454a2.686,2.686,0,0,0,2.532-.17" fill="#180d0d"/>
              </g>
            </g>
          </g>
        </g>
      </g>
      <path id="パス_23237" data-name="パス 23237" d="M63.775,105.241l-4.041,1.767-2.891-2.222.055-2.233,4.644-.6Z" fill="#0a2d4e"/>
      <path id="パス_23238" data-name="パス 23238" d="M81.961,96.176,77.92,97.943l-2.891-2.222.055-2.233,4.644-.6Z" fill="#0a2d4e"/>
      <g id="グループ_607" data-name="グループ 607">
        <g id="グループ_606" data-name="グループ 606" clip-path="url(#clip-path)">
          <path id="パス_23239" data-name="パス 23239" d="M80.274,97.167c3.368-1.63,4.854-4.908,4.979-8.42.159-4.478-4.882-8.21-7.469-9.566s-2.867-1.755-7.162-2.173c-3.231-.314-6.382,1.049-14.131,5.563,1.085,1.186,2.1,2.492,3.5,3.035.259.1-14.18,6.852-14.459,6.968a8.912,8.912,0,0,0-2.529,2.39c-.277.324-1.2.447-1.465.765-.222.269-.3,1.067-.5,1.312-.482.587-.709,1.087-.976,1.366-2.09,2.187-3.083,6.1-2.032,7.266,2.457,2.734,6.955,5.644,10.944,4.722a52.084,52.084,0,0,0,6.158-1.651c2.4-5.443,7.042-6.611,5.637-1.984,8.1-3.43,10.674-4.517,14.928-6.966.4-4.945,6.11-7.951,4.575-2.627" fill="#c15a44"/>
          <path id="パス_23240" data-name="パス 23240" d="M80.274,97.167c3.368-1.63,4.854-4.908,4.979-8.42.159-4.478-4.882-8.21-7.469-9.566s-2.867-1.755-7.162-2.173c-3.231-.314-6.382,1.049-14.131,5.563,1.085,1.186,2.1,2.492,3.5,3.035.259.1-14.18,6.852-14.459,6.968a8.912,8.912,0,0,0-2.529,2.39c-.277.324-1.2.447-1.465.765-.222.269-.3,1.067-.5,1.312-.482.587-.709,1.087-.976,1.366-2.09,2.187-3.083,6.1-2.032,7.266,2.457,2.734,6.955,5.644,10.944,4.722a52.084,52.084,0,0,0,6.158-1.651c2.4-5.443,7.042-6.611,5.637-1.984,8.1-3.43,10.674-4.517,14.928-6.966C76.1,94.849,81.809,91.843,80.274,97.167Z" fill="none" stroke="#053760" stroke-linecap="round" stroke-linejoin="round" stroke-width="1"/>
          <path id="パス_23241" data-name="パス 23241" d="M67.269,88.1l-3.052,4.186L55.4,96.328l-3.46-2.549,12.444-6.194s2.129.838,2.887.514" fill="#003d6a"/>
          <path id="パス_23242" data-name="パス 23242" d="M67.269,88.1l-3.052,4.186L55.4,96.328l-3.46-2.549,12.444-6.194s2.129.838,2.887.514" fill="none" stroke="#053760" stroke-linecap="round" stroke-linejoin="round" stroke-width="1"/>
          <path id="パス_23243" data-name="パス 23243" d="M55.821,106.68c-.881,1.825-.67,3.554.471,3.861s2.781-.923,3.662-2.749.669-3.554-.472-3.861-2.78.924-3.661,2.749" fill="#0c2e52"/>
          <path id="パス_23244" data-name="パス 23244" d="M55.821,106.68c-.881,1.825-.67,3.554.471,3.861s2.781-.923,3.662-2.749.669-3.554-.472-3.861S56.7,104.855,55.821,106.68Z" fill="none" stroke="#053760" stroke-linecap="round" stroke-linejoin="round" stroke-width="1"/>
          <path id="パス_23245" data-name="パス 23245" d="M56.9,106.915c-.381.829-.256,1.607.278,1.739s1.276-.433,1.657-1.262.256-1.607-.278-1.739-1.276.433-1.657,1.262" fill="#5ea1b2"/>
          <path id="パス_23246" data-name="パス 23246" d="M56.9,106.915c-.381.829-.256,1.607.278,1.739s1.276-.433,1.657-1.262.256-1.607-.278-1.739S57.276,106.086,56.9,106.915Z" fill="none" stroke="#494a6d" stroke-linecap="round" stroke-linejoin="round" stroke-width="1"/>
          <path id="パス_23247" data-name="パス 23247" d="M48.393,90.1s-.009-.778-1.564-.133-1.834,3.924-1.834,3.924l1.347-.092,1.68-2.05Z" fill="#c15a44"/>
          <path id="パス_23248" data-name="パス 23248" d="M48.393,90.1s-.009-.778-1.564-.133-1.834,3.924-1.834,3.924l1.347-.092,1.68-2.05Z" fill="none" stroke="#053760" stroke-linecap="round" stroke-linejoin="round" stroke-width="1"/>
          <path id="パス_23249" data-name="パス 23249" d="M75.483,97.652c-.624,1.876-.153,3.519,1.051,3.671s2.686-1.246,3.31-3.121.154-3.519-1.051-3.671-2.686,1.245-3.31,3.121" fill="#0c2e52"/>
          <path id="パス_23250" data-name="パス 23250" d="M75.483,97.652c-.624,1.876-.153,3.519,1.051,3.671s2.686-1.246,3.31-3.121.154-3.519-1.051-3.671S76.107,95.776,75.483,97.652Z" fill="none" stroke="#053760" stroke-linecap="round" stroke-linejoin="round" stroke-width="1"/>
          <path id="パス_23251" data-name="パス 23251" d="M61.188,100.546a50.909,50.909,0,0,1,8.234-13.008,25.766,25.766,0,0,0,5.538-1.975c3.752.394,5.807,3.573,3.932,5.857-.747.909-4.9,5.484-17.7,9.126" fill="#fff"/>
          <path id="パス_23252" data-name="パス 23252" d="M61.188,100.546a50.909,50.909,0,0,1,8.234-13.008,25.766,25.766,0,0,0,5.538-1.975c3.752.394,5.807,3.573,3.932,5.857C78.145,92.329,73.991,96.9,61.188,100.546Z" fill="none" stroke="#053760" stroke-linecap="round" stroke-linejoin="round" stroke-width="1.202"/>
          <path id="パス_23253" data-name="パス 23253" d="M78.711,82.01c-2.254-3.5-4.481-4.368-9.841-4.984a45.9,45.9,0,0,1,5.9.884A17.518,17.518,0,0,1,83.8,84.337a7.982,7.982,0,0,0-5.087-2.327" fill="#165b8d"/>
          <path id="パス_23254" data-name="パス 23254" d="M78.711,82.01c-2.254-3.5-4.481-4.368-9.841-4.984a45.9,45.9,0,0,1,5.9.884A17.518,17.518,0,0,1,83.8,84.337,7.982,7.982,0,0,0,78.711,82.01Z" fill="none" stroke="#053760" stroke-linecap="round" stroke-linejoin="round" stroke-width="1"/>
          <path id="パス_23255" data-name="パス 23255" d="M85.312,88.91c-.454.086-1.487,1.265-1.832,1.733s-.468,1.422-.115,1.63S84.447,91.59,84.839,91a4.01,4.01,0,0,0,.473-2.086" fill="#d5aa4c"/>
          <path id="パス_23256" data-name="パス 23256" d="M85.312,88.91c-.454.086-1.487,1.265-1.832,1.733s-.468,1.422-.115,1.63S84.447,91.59,84.839,91A4.01,4.01,0,0,0,85.312,88.91Z" fill="none" stroke="#0a2c4c" stroke-linecap="round" stroke-linejoin="round" stroke-width="1"/>
          <path id="パス_23257" data-name="パス 23257" d="M61.011,82.475c-.068,1.777,3.021,2.8,6.9,2.275s7.075-2.382,7.143-4.159-3.021-2.8-6.9-2.275-7.075,2.382-7.143,4.159" fill="#c15a44"/>
          <path id="パス_23258" data-name="パス 23258" d="M61.011,82.475c-.068,1.777,3.021,2.8,6.9,2.275s7.075-2.382,7.143-4.159-3.021-2.8-6.9-2.275S61.079,80.7,61.011,82.475Z" fill="none" stroke="#053760" stroke-linecap="round" stroke-linejoin="round" stroke-width="1"/>
          <path id="パス_23259" data-name="パス 23259" d="M46.449,106.841a8.915,8.915,0,0,0,4.073-.094c1.1-.3,1.71-.462,1.8-1.082s-.371-1.205-1.467-1.162-4.96,2.084-4.408,2.338" fill="#fff"/>
          <path id="パス_23260" data-name="パス 23260" d="M46.449,106.841a8.915,8.915,0,0,0,4.073-.094c1.1-.3,1.71-.462,1.8-1.082s-.371-1.205-1.467-1.162S45.9,106.587,46.449,106.841Z" fill="none" stroke="#0a2c4c" stroke-linecap="round" stroke-linejoin="round" stroke-width="1.2"/>
          <path id="パス_23261" data-name="パス 23261" d="M76.61,97.743c-.264.849-.022,1.586.54,1.645s1.232-.581,1.495-1.43.022-1.585-.54-1.645-1.231.581-1.5,1.43" fill="#5ea1b2"/>
          <path id="パス_23262" data-name="パス 23262" d="M76.61,97.743c-.264.849-.022,1.586.54,1.645s1.232-.581,1.495-1.43.022-1.585-.54-1.645S76.874,96.894,76.61,97.743Z" fill="none" stroke="#494a6d" stroke-linecap="round" stroke-linejoin="round" stroke-width="1"/>
          <path id="パス_23263" data-name="パス 23263" d="M58.551,88.169A23.6,23.6,0,0,0,55.314,86.4a2.585,2.585,0,0,0-1.125,2.354s-4.8,3.316-5.589,5.275,4.815,3.449,4.815,3.449l2.23-2.033a27.184,27.184,0,0,0,2.906-7.272" fill="#0c2e52"/>
          <path id="パス_23264" data-name="パス 23264" d="M65.295,90.652a16.482,16.482,0,0,0-2.7-1.273,2.587,2.587,0,0,0-1.126,2.354s-4.8,3.316-5.587,5.275,3.858,2.971,3.858,2.971l1.305-2.357s2.084-3.855,4.253-6.97" fill="#0c2e52"/>
          <path id="パス_23265" data-name="パス 23265" d="M54.749,95.4a2.142,2.142,0,0,0,2.138,2.455,2.771,2.771,0,0,0,2.84-2.25,2.142,2.142,0,0,0-2.138-2.455,2.772,2.772,0,0,0-2.84,2.25m.9.037A1.775,1.775,0,0,1,57.463,94a1.371,1.371,0,0,1,1.368,1.571,1.773,1.773,0,0,1-1.817,1.44,1.371,1.371,0,0,1-1.369-1.571" fill="#165b8d"/>
          <path id="パス_23266" data-name="パス 23266" d="M54.749,95.4a2.142,2.142,0,0,0,2.138,2.455,2.771,2.771,0,0,0,2.84-2.25,2.142,2.142,0,0,0-2.138-2.455A2.772,2.772,0,0,0,54.749,95.4Zm.9.037A1.775,1.775,0,0,1,57.463,94a1.371,1.371,0,0,1,1.368,1.571,1.773,1.773,0,0,1-1.817,1.44A1.371,1.371,0,0,1,55.645,95.44Z" fill="none" stroke="#053760" stroke-linecap="round" stroke-linejoin="round" stroke-width="1"/>
          <path id="パス_23267" data-name="パス 23267" d="M44.45,94.134a17.26,17.26,0,0,1,2.528-3.2c-.2.738-.143,1.329.506,1.405L50.919,94.5a26.274,26.274,0,0,0,4.071-.424c3.074-.465,3.4,4.046,3.4,4.046s.9.106,2.26.191c-.449.8-.867,1.578-1.245,2.307-7.307.543-12.576-2.834-14.959-6.481" fill="#003d6a"/>
          <path id="パス_23268" data-name="パス 23268" d="M44.45,94.134a17.26,17.26,0,0,1,2.528-3.2c-.2.738-.143,1.329.506,1.405L50.919,94.5a26.274,26.274,0,0,0,4.071-.424c3.074-.465,3.4,4.046,3.4,4.046s.9.106,2.26.191c-.449.8-.867,1.578-1.245,2.307C52.1,101.158,46.833,97.781,44.45,94.134Z" fill="none" stroke="#053760" stroke-linecap="round" stroke-linejoin="round" stroke-width="1"/>
          <path id="パス_23269" data-name="パス 23269" d="M66.752,90.92a25.063,25.063,0,0,1-.969,7.511l-.586.851c-1.233.429-2.563.852-4.009,1.264a48.017,48.017,0,0,1,5.564-9.626" fill="#0c2e52"/>
          <path id="パス_23270" data-name="パス 23270" d="M70.408,87.3a27.222,27.222,0,0,0,4.552-1.737c3.751.4,5.807,3.574,3.932,5.857a13.439,13.439,0,0,1-2.086,1.966,20.7,20.7,0,0,0,.166-3.969c-.137-.561-3.667-1.465-6.564-2.117" fill="#0a2d4e"/>
          <path id="パス_23271" data-name="パス 23271" d="M65.783,98.431a25.057,25.057,0,0,0,.969-7.511c.8-1.09,1.687-2.208,2.67-3.382.265-.047,3.336-1.045,3.712-1.15,2.9.652,3.7,2.467,3.838,3.028a20.717,20.717,0,0,1-.166,3.97,39.72,39.72,0,0,1-11.609,5.9Z" fill="#165b8d"/>
          <path id="パス_23272" data-name="パス 23272" d="M65.783,98.431a25.057,25.057,0,0,0,.969-7.511c.8-1.09,1.687-2.208,2.67-3.382.265-.047,3.336-1.045,3.712-1.15,2.9.652,3.7,2.467,3.838,3.028a20.717,20.717,0,0,1-.166,3.97,39.72,39.72,0,0,1-11.609,5.9Z" fill="none" stroke="#053760" stroke-linecap="round" stroke-linejoin="round" stroke-width="1"/>
          <line id="線_15343" data-name="線 15343" x1="4.665" y1="3.151" transform="translate(67.854 90.934)" fill="#fff"/>
          <line id="線_15344" data-name="線 15344" x1="4.665" y1="3.151" transform="translate(67.854 90.934)" fill="none" stroke="#053760" stroke-linecap="round" stroke-linejoin="round" stroke-width="1.202"/>
          <line id="線_15345" data-name="線 15345" x1="3.121" y1="2.022" transform="translate(66.649 95.381)" fill="#fff"/>
          <line id="線_15346" data-name="線 15346" x1="3.121" y1="2.022" transform="translate(66.649 95.381)" fill="none" stroke="#053760" stroke-linecap="round" stroke-linejoin="round" stroke-width="1.202"/>
          <g id="グループ_587" data-name="グループ 587" opacity="0.25">
            <g id="グループ_586" data-name="グループ 586">
              <g id="グループ_585" data-name="グループ 585" clip-path="url(#clip-path-7)">
                <path id="パス_23273" data-name="パス 23273" d="M44.45,94.134a7.35,7.35,0,0,1,.408-.661c.036-.052.08-.108.118-.162.137-.193.284-.391.448-.6l.113-.139c.187-.231.387-.469.6-.715l.06-.069A69.779,69.779,0,0,1,53.027,85.3l.134-.112q.381-.32.746-.619l.352-.287.315-.253q.244-.2.478-.378l.178-.14c.2-.156.388-.3.57-.435l.159-.118c.185-.137.362-.267.522-.38l.01-.007,0,.006c.091.131.2.266.312.4.066.078.145.157.218.236.06.064.113.126.177.19.115.116.243.233.373.351.032.029.059.057.091.086.162.143.335.287.517.431l.012.009a17.244,17.244,0,0,0,2.642,1.7l.008,0c.251.132.508.259.769.38l.013.007c.255.119.516.232.779.34l.033.014c.249.1.5.2.758.286l.077.028c.238.083.48.157.721.228.043.013.086.028.129.04.22.063.443.115.665.167.064.015.128.034.193.048.211.045.422.08.632.114.075.012.15.029.225.04.211.03.421.048.63.066.074.006.149.018.222.023.282.017.563.023.84.016a95.184,95.184,0,0,0-6.491,9.839c-.129.23-.26.463-.387.687-.449.8-.867,1.578-1.245,2.307a19.905,19.905,0,0,1-3.828-.078l-.2-.028a16.578,16.578,0,0,1-7.362-2.783q-.429-.3-.823-.617A13.036,13.036,0,0,1,44.45,94.134Z" fill="#176da8"/>
                <path id="パス_23274" data-name="パス 23274" d="M44.45,94.134a7.35,7.35,0,0,1,.408-.661c.036-.052.08-.108.118-.162.137-.193.284-.391.448-.6l.113-.139c.187-.231.387-.469.6-.715l.06-.069A69.779,69.779,0,0,1,53.027,85.3l.134-.112q.381-.32.746-.619l.352-.287.315-.253q.244-.2.478-.378l.178-.14c.2-.156.388-.3.57-.435l.159-.118c.185-.137.362-.267.522-.38l.01-.007,0,.006c.091.131.2.266.312.4.066.078.145.157.218.236.06.064.113.126.177.19.115.116.243.233.373.351.032.029.059.057.091.086.162.143.335.287.517.431l.012.009a17.244,17.244,0,0,0,2.642,1.7l.008,0c.251.132.508.259.769.38l.013.007c.255.119.516.232.779.34l.033.014c.249.1.5.2.758.286l.077.028c.238.083.48.157.721.228.043.013.086.028.129.04.22.063.443.115.665.167.064.015.128.034.193.048.211.045.422.08.632.114.075.012.15.029.225.04.211.03.421.048.63.066.074.006.149.018.222.023.282.017.563.023.84.016a95.184,95.184,0,0,0-6.491,9.839c-.129.23-.26.463-.387.687-.449.8-.867,1.578-1.245,2.307a19.905,19.905,0,0,1-3.828-.078l-.2-.028a16.578,16.578,0,0,1-7.362-2.783q-.429-.3-.823-.617A13.036,13.036,0,0,1,44.45,94.134Z" fill="none" stroke="#053760" stroke-linecap="round" stroke-linejoin="round" stroke-width="1"/>
              </g>
            </g>
          </g>
          <path id="パス_23275" data-name="パス 23275" d="M44.45,94.134a7.35,7.35,0,0,1,.408-.661c.036-.052.08-.108.118-.162.137-.193.284-.391.448-.6l.113-.139c.187-.231.387-.469.6-.715l.06-.069A69.779,69.779,0,0,1,53.027,85.3l.134-.112q.381-.32.746-.619l.352-.287.315-.253q.244-.2.478-.378l.178-.14c.2-.156.388-.3.57-.435l.159-.118c.185-.137.362-.267.522-.38l.01-.007,0,.006c.091.131.2.266.312.4.066.078.145.157.218.236.06.064.113.126.177.19.115.116.243.233.373.351.032.029.059.057.091.086.162.143.335.287.517.431l.012.009a17.244,17.244,0,0,0,2.642,1.7l.008,0c.251.132.508.259.769.38l.013.007c.255.119.516.232.779.34l.033.014c.249.1.5.2.758.286l.077.028c.238.083.48.157.721.228.043.013.086.028.129.04.22.063.443.115.665.167.064.015.128.034.193.048.211.045.422.08.632.114.075.012.15.029.225.04.211.03.421.048.63.066.074.006.149.018.222.023.282.017.563.023.84.016a95.184,95.184,0,0,0-6.491,9.839c-.129.23-.26.463-.387.687-.449.8-.867,1.578-1.245,2.307a19.905,19.905,0,0,1-3.828-.078l-.2-.028a16.578,16.578,0,0,1-7.362-2.783q-.429-.3-.823-.617A13.036,13.036,0,0,1,44.45,94.134Z" fill="none" stroke="#053760" stroke-linecap="round" stroke-linejoin="round" stroke-width="1"/>
          <path id="パス_23276" data-name="パス 23276" d="M44.45,94.134a7.35,7.35,0,0,1,.408-.661c.036-.052.08-.108.118-.162.137-.193.284-.391.448-.6l.113-.139c.187-.231.387-.469.6-.715l.06-.069A69.779,69.779,0,0,1,53.027,85.3l.134-.112q.381-.32.746-.619l.352-.287.315-.253q.244-.2.478-.378l.178-.14c.2-.156.388-.3.57-.435l.159-.118c.185-.137.362-.267.522-.38l.01-.007,0,.006c.091.131.2.266.312.4.066.078.145.157.218.236.06.064.113.126.177.19.115.116.243.233.373.351.032.029.059.057.091.086.162.143.335.287.517.431l.012.009a17.244,17.244,0,0,0,2.642,1.7l.008,0c.251.132.508.259.769.38l.013.007c.255.119.516.232.779.34l.033.014c.249.1.5.2.758.286l.077.028c.238.083.48.157.721.228.043.013.086.028.129.04.221.063.443.115.665.167.064.015.128.034.193.048.211.045.422.08.632.114.075.012.15.029.225.04.211.03.421.048.63.066.074.006.149.018.222.023.282.017.563.023.84.016a95.184,95.184,0,0,0-6.491,9.839c-.129.23-.26.463-.387.687-.449.8-.867,1.578-1.245,2.307a19.905,19.905,0,0,1-3.828-.078l-.2-.028a16.578,16.578,0,0,1-7.362-2.783q-.429-.3-.823-.617A13.036,13.036,0,0,1,44.45,94.134Z" fill="none" stroke="#053760" stroke-linecap="round" stroke-linejoin="round" stroke-width="1.202"/>
          <g id="グループ_590" data-name="グループ 590" opacity="0.46">
            <g id="グループ_589" data-name="グループ 589">
              <g id="グループ_588" data-name="グループ 588" clip-path="url(#clip-path-8)">
                <path id="パス_23277" data-name="パス 23277" d="M63.306,99.909l-.292.09c-.241.075-.48.15-.728.225q-.537.162-1.1.321c.225-.514.457-1.015.692-1.511.071-.15.144-.3.217-.448q.262-.542.537-1.073c.077-.149.154-.3.232-.447.25-.472.506-.941.773-1.4.028-.05.059-.1.088-.149q.367-.635.763-1.266c.1-.16.2-.321.306-.481q.311-.484.639-.973c.109-.162.217-.324.329-.486.317-.458.643-.92.988-1.387q.594-.805,1.249-1.634l.019-.026c.445-.562.91-1.135,1.4-1.721.241-.044,2.8-.871,3.543-1.1l.151-.059c.133-.052.264-.1.393-.157l.269-.112c.145-.061.285-.123.421-.184l.206-.092c.2-.093.387-.184.555-.272,3.048.32,4.977,2.479,4.587,4.5a3.029,3.029,0,0,1-.655,1.355l-.1.121-.024.027c-.036.042-.076.087-.121.137-.008.008-.014.016-.022.025C77.492,92.972,73.7,96.47,64.267,99.6l-.057.018c-.3.1-.6.2-.9.293" fill="#165b8d"/>
                <path id="パス_23278" data-name="パス 23278" d="M63.306,99.909l-.292.09c-.241.075-.48.15-.728.225q-.537.162-1.1.321c.225-.514.457-1.015.692-1.511.071-.15.144-.3.217-.448q.262-.542.537-1.073c.077-.149.154-.3.232-.447.25-.472.506-.941.773-1.4.028-.05.059-.1.088-.149q.367-.635.763-1.266c.1-.16.2-.321.306-.481q.311-.484.639-.973c.109-.162.217-.324.329-.486.317-.458.643-.92.988-1.387q.594-.805,1.249-1.634l.019-.026c.445-.562.91-1.135,1.4-1.721.241-.044,2.8-.871,3.543-1.1l.151-.059c.133-.052.264-.1.393-.157l.269-.112c.145-.061.285-.123.421-.184l.206-.092c.2-.093.387-.184.555-.272,3.048.32,4.977,2.479,4.587,4.5a3.029,3.029,0,0,1-.655,1.355l-.1.121-.024.027c-.036.042-.076.087-.121.137-.008.008-.014.016-.022.025C77.492,92.972,73.7,96.47,64.267,99.6l-.057.018C63.914,99.714,63.614,99.812,63.306,99.909Z" fill="none" stroke="#053760" stroke-linecap="round" stroke-linejoin="round" stroke-width="1"/>
              </g>
            </g>
          </g>
          <path id="パス_23279" data-name="パス 23279" d="M63.306,99.909l-.292.09c-.241.075-.48.15-.728.225q-.537.162-1.1.321c.225-.514.457-1.015.692-1.511.071-.15.144-.3.217-.448q.262-.542.537-1.073c.077-.149.154-.3.232-.447.25-.472.506-.941.773-1.4.028-.05.059-.1.088-.149q.367-.635.763-1.266c.1-.16.2-.321.306-.481q.311-.484.639-.973c.109-.162.217-.324.329-.486.317-.458.643-.92.988-1.387q.594-.805,1.249-1.634l.019-.026c.445-.562.91-1.135,1.4-1.721.241-.044,2.8-.871,3.543-1.1l.151-.059c.133-.052.264-.1.393-.157l.269-.112c.145-.061.285-.123.421-.184l.206-.092c.2-.093.387-.184.555-.272,3.048.32,4.977,2.479,4.587,4.5a3.029,3.029,0,0,1-.655,1.355l-.1.121-.024.027c-.036.042-.076.087-.121.137-.008.008-.014.016-.022.025C77.492,92.972,73.7,96.47,64.267,99.6l-.057.018C63.914,99.714,63.614,99.812,63.306,99.909Z" fill="none" stroke="#053760" stroke-linecap="round" stroke-linejoin="round" stroke-width="1"/>
          <path id="パス_23280" data-name="パス 23280" d="M61.146,100.343S62.458,97.8,63,97.531s2.248.13,1.975,1.292-3.576,2.07-3.576,2.07-.5.02-.251-.55" fill="#c15a44"/>
          <path id="パス_23281" data-name="パス 23281" d="M61.146,100.343S62.458,97.8,63,97.531s2.248.13,1.975,1.292-3.576,2.07-3.576,2.07S60.894,100.913,61.146,100.343Z" fill="none" stroke="#053760" stroke-linecap="round" stroke-linejoin="round" stroke-width="1"/>
          <g id="グループ_593" data-name="グループ 593" opacity="0.43">
            <g id="グループ_592" data-name="グループ 592">
              <g id="グループ_591" data-name="グループ 591" clip-path="url(#clip-path-9)">
                <path id="パス_23282" data-name="パス 23282" d="M56.683,85.226a63.882,63.882,0,0,0-9.392,8.686" fill="none" stroke="#fff" stroke-linecap="round" stroke-linejoin="round" stroke-width="2"/>
              </g>
            </g>
          </g>
          <g id="グループ_596" data-name="グループ 596" opacity="0.45">
            <g id="グループ_595" data-name="グループ 595">
              <g id="グループ_594" data-name="グループ 594" clip-path="url(#clip-path-10)">
                <path id="パス_23283" data-name="パス 23283" d="M75.447,91.523a60.886,60.886,0,0,1-8.7,4.612" fill="none" stroke="#fff" stroke-linecap="round" stroke-linejoin="round" stroke-width="1.5"/>
              </g>
            </g>
          </g>
          <path id="パス_23284" data-name="パス 23284" d="M59.408,100.615l-1.819-7.462,1.27-6.1-1.283-3.292" fill="none" stroke="#dde6ec" stroke-linecap="round" stroke-linejoin="round" stroke-width="0.8"/>
          <path id="パス_23285" data-name="パス 23285" d="M64.382,87.586,60.39,91.729l-2.8,1.425L56.5,96.145,54.487,100.3" fill="none" stroke="#dde6ec" stroke-linecap="round" stroke-linejoin="round" stroke-width="0.8"/>
          <path id="パス_23286" data-name="パス 23286" d="M58.247,90.416l2.143,1.312,4.2.35" fill="none" stroke="#dde6ec" stroke-linecap="round" stroke-linejoin="round" stroke-width="0.8"/>
          <path id="パス_23287" data-name="パス 23287" d="M44.567,94.279a7.1,7.1,0,0,1,.407-.661c.036-.052.081-.108.118-.162.137-.193.284-.391.449-.6.035-.045.076-.093.112-.139q.281-.347.6-.715l.06-.069a69.781,69.781,0,0,1,6.827-6.489c.044-.038.089-.074.134-.112q.381-.319.745-.619l.352-.287.315-.253q.246-.2.478-.378l.179-.14c.2-.156.388-.3.57-.435.054-.04.106-.08.159-.118.185-.137.362-.267.521-.38l.011-.007,0,.006c.091.131.195.266.312.4.067.078.145.157.219.236.059.064.113.126.176.19.116.116.244.233.374.351.031.029.058.057.091.086.161.143.334.287.516.431l.013.009a17.2,17.2,0,0,0,2.642,1.7l.008,0c.251.132.508.258.769.38l.012.007c.256.119.517.232.78.34l.032.014c.25.1.5.2.758.286l.078.028c.238.083.48.157.72.228.044.013.087.028.13.04.22.063.443.115.665.167.063.015.128.034.193.048.211.045.421.08.631.114.075.012.151.029.225.04.211.03.422.048.631.066.073.006.148.018.222.023.281.017.562.023.839.016a94.987,94.987,0,0,0-6.49,9.839l-.387.687c-.45.8-.868,1.578-1.245,2.307a19.918,19.918,0,0,1-3.829-.078l-.2-.028a16.574,16.574,0,0,1-7.361-2.783q-.429-.3-.824-.617A13.031,13.031,0,0,1,44.567,94.279Z" fill="none" stroke="#053760" stroke-linecap="round" stroke-linejoin="round" stroke-width="1"/>
          <g id="グループ_599" data-name="グループ 599" opacity="0.3">
            <g id="グループ_598" data-name="グループ 598">
              <g id="グループ_597" data-name="グループ 597" clip-path="url(#clip-path-11)">
                <path id="パス_23288" data-name="パス 23288" d="M85.618,70.406c0,1.859,2.984,3.365,6.666,3.365s6.666-1.506,6.666-3.365-2.985-3.365-6.666-3.365-6.666,1.506-6.666,3.365" fill="#180c0c"/>
              </g>
            </g>
          </g>
          <path id="パス_23289" data-name="パス 23289" d="M96.319,49.705s.611-.568,1.382-1.161c.344-.263.684-.688.654-1.009-.052-.56.04-1.161-.493-1.4-.643-.291-1.037.275-1.323.749s-.912,1.929-.912,1.929Z" fill="#fff"/>
          <path id="パス_23290" data-name="パス 23290" d="M96.319,49.705s.611-.568,1.382-1.161c.344-.263.684-.688.654-1.009-.052-.56.04-1.161-.493-1.4-.643-.291-1.037.275-1.323.749s-.912,1.929-.912,1.929Z" fill="none" stroke="#05365d" stroke-linecap="round" stroke-linejoin="round" stroke-width="1"/>
          <path id="パス_23291" data-name="パス 23291" d="M89.1,68.866s-.186,1.421.057,1.605a2.907,2.907,0,0,0,1.583.2c.605-.024,2.007-.429,2-.782-.016-.609-.469-1.94-1.224-1.511a1.814,1.814,0,0,1-1.67-.153Z" fill="#0a2c4c"/>
          <path id="パス_23292" data-name="パス 23292" d="M89.1,68.866s-.186,1.421.057,1.605a2.907,2.907,0,0,0,1.583.2c.605-.024,2.007-.429,2-.782-.016-.609-.469-1.94-1.224-1.511a1.814,1.814,0,0,1-1.67-.153Z" fill="none" stroke="#0a2c4c" stroke-linecap="round" stroke-linejoin="round" stroke-width="0.875"/>
          <path id="パス_23293" data-name="パス 23293" d="M92.836,69.72a3.824,3.824,0,0,0,1.366-.015c.6-.153,1.079,0,.937.8-.1.567-.556.555-1.354.816a4.424,4.424,0,0,1-2.273.343.658.658,0,0,1-.358-.167,3.152,3.152,0,0,1,.1-1.849l1.585.076" fill="#0a2c4c"/>
          <path id="パス_23294" data-name="パス 23294" d="M92.836,69.72a3.824,3.824,0,0,0,1.366-.015c.6-.153,1.079,0,.937.8-.1.567-.556.555-1.354.816a4.424,4.424,0,0,1-2.273.343.658.658,0,0,1-.358-.167,3.152,3.152,0,0,1,.1-1.849Z" fill="none" stroke="#0a2c4c" stroke-linecap="round" stroke-linejoin="round" stroke-width="0.875"/>
          <path id="パス_23295" data-name="パス 23295" d="M90.8,58.387c0,2.428.334,4.442.347,5.179.021,1.236-.183,5.995-.183,5.995a2.682,2.682,0,0,0,1.445.5,1.561,1.561,0,0,0,1.268-.484l.436-13.426-5.472.05s.328,3.533.415,6.232c.079,2.47,0,6.465,0,6.465a1.818,1.818,0,0,0,1.922.308" fill="#717071"/>
          <path id="パス_23296" data-name="パス 23296" d="M90.8,58.387c0,2.428.334,4.442.347,5.179.021,1.236-.183,5.995-.183,5.995a2.682,2.682,0,0,0,1.445.5,1.561,1.561,0,0,0,1.268-.484l.436-13.426-5.472.05s.328,3.533.415,6.232c.079,2.47,0,6.465,0,6.465a1.818,1.818,0,0,0,1.922.308" fill="none" stroke="#05365d" stroke-linecap="round" stroke-linejoin="round" stroke-width="1"/>
          <path id="パス_23297" data-name="パス 23297" d="M88.854,48.479s6.4.017,6.972-.943l.784,2.211Z" fill="#fff"/>
          <path id="パス_23298" data-name="パス 23298" d="M88.854,48.479s6.4.017,6.972-.943l.784,2.211Z" fill="none" stroke="#05365d" stroke-linecap="round" stroke-linejoin="round" stroke-width="1"/>
          <path id="パス_23299" data-name="パス 23299" d="M99.206,52.423a4.125,4.125,0,0,1-.066-1.9c.159-.675.664-.718.96-.843.518-.22.808-.691,1.273-.336a1.158,1.158,0,0,1-.086,1.755c-.422.359-1.291,1.332-1.291,1.332Z" fill="#fff"/>
          <path id="パス_23300" data-name="パス 23300" d="M99.206,52.423a4.125,4.125,0,0,1-.066-1.9c.159-.675.664-.718.96-.843.518-.22.808-.691,1.273-.336a1.158,1.158,0,0,1-.086,1.755c-.422.359-1.291,1.332-1.291,1.332Z" fill="none" stroke="#05365d" stroke-linecap="round" stroke-linejoin="round" stroke-width="1"/>
          <path id="パス_23301" data-name="パス 23301" d="M93.1,40.749c.858.361,1.652,2.465,1.427,4.091s-1.638,1.107-1.753,1.675a3.974,3.974,0,0,0,.283,1.6l-2.4.011-.222-2.624S88.944,39,93.1,40.749" fill="#eecfbd"/>
          <path id="パス_23302" data-name="パス 23302" d="M93.1,40.749c.858.361,1.652,2.465,1.427,4.091s-1.638,1.107-1.753,1.675a3.974,3.974,0,0,0,.283,1.6l-2.4.011-.222-2.624S88.944,39,93.1,40.749Z" fill="none" stroke="#05365d" stroke-linecap="round" stroke-linejoin="round" stroke-width="1"/>
          <path id="パス_23303" data-name="パス 23303" d="M93.287,43.247a.3.3,0,1,0,.305-.305.3.3,0,0,0-.305.305" fill="#0c2d4f"/>
          <line id="線_15347" data-name="線 15347" x1="0.317" y2="0.041" transform="translate(93.993 44.612)" fill="none" stroke="#0a2c4c" stroke-linecap="round" stroke-linejoin="round" stroke-width="0.875"/>
          <line id="線_15348" data-name="線 15348" x2="0.195" y2="2.521" transform="translate(92.37 43.075)" fill="none" stroke="#05365d" stroke-linecap="round" stroke-linejoin="round" stroke-width="0.875"/>
          <path id="パス_23304" data-name="パス 23304" d="M91.876,44.958a3.154,3.154,0,0,0,1.776,1.1" fill="#0a2c4c"/>
          <path id="パス_23305" data-name="パス 23305" d="M91.876,44.958a3.154,3.154,0,0,0,1.776,1.1" fill="none" stroke="#05365d" stroke-linecap="round" stroke-linejoin="round" stroke-width="0.875"/>
          <path id="パス_23306" data-name="パス 23306" d="M93.93,50.5l.158,5.656a5.084,5.084,0,0,1-4.533.049s-.049-1.149-.094-3.854c-.032-1.9-.739-4.763.569-5.713.6-.437,3.424-.034,4.085.8,0,0,1.992,3.175,2.328,3.43.39.3,2.844-.379,2.844-.379a8.491,8.491,0,0,0,.46,2.052s-3.978,1.173-4.584.486A9.182,9.182,0,0,1,93.93,50.5" fill="#fff"/>
          <path id="パス_23307" data-name="パス 23307" d="M93.93,50.5l.158,5.656a5.084,5.084,0,0,1-4.533.049s-.049-1.149-.094-3.854c-.032-1.9-.739-4.763.569-5.713.6-.437,3.424-.034,4.085.8,0,0,1.992,3.175,2.328,3.43.39.3,2.844-.379,2.844-.379a8.491,8.491,0,0,0,.46,2.052s-3.978,1.173-4.584.486A9.182,9.182,0,0,1,93.93,50.5Z" fill="none" stroke="#05365d" stroke-linecap="round" stroke-linejoin="round" stroke-width="1"/>
          <path id="パス_23308" data-name="パス 23308" d="M90.031,46.638a2.723,2.723,0,0,0-.118.874.415.415,0,0,0,.435.335,1.664,1.664,0,0,0,.917-.186,3.859,3.859,0,0,0,1.053-1.012l.791.31a2.461,2.461,0,0,0-.72,1.377c.572,1.541.122,3.091.376,3.454.37.528,1.444.639,1.444.639l.1,4.824-.588-.244A7.107,7.107,0,0,1,91,57.45a8.571,8.571,0,0,1-2.512-.75s-.021-1.821-.028-6.462a6.612,6.612,0,0,1,.7-3.258Z" fill="#2f3943"/>
          <path id="パス_23309" data-name="パス 23309" d="M90.031,46.638a2.723,2.723,0,0,0-.118.874.415.415,0,0,0,.435.335,1.664,1.664,0,0,0,.917-.186,3.859,3.859,0,0,0,1.053-1.012l.791.31a2.461,2.461,0,0,0-.72,1.377c.572,1.541.122,3.091.376,3.454.37.528,1.444.639,1.444.639l.1,4.824-.588-.244A7.107,7.107,0,0,1,91,57.45a8.571,8.571,0,0,1-2.512-.75s-.021-1.821-.028-6.462a6.612,6.612,0,0,1,.7-3.258Z" fill="none" stroke="#05365d" stroke-linecap="round" stroke-linejoin="round" stroke-width="1"/>
          <path id="パス_23310" data-name="パス 23310" d="M91.876,44.958a1.022,1.022,0,0,1-.334-.883c.009-.517.719-.631.719-.631l-.113-.369-3.713.5a2.444,2.444,0,0,0,.653,1.7,13.33,13.33,0,0,0,1.426,1.184L90.474,46l.367.465.284-.594.256.47Z" fill="#0a2c4c"/>
          <path id="パス_23311" data-name="パス 23311" d="M91.876,44.958a1.022,1.022,0,0,1-.334-.883c.009-.517.719-.631.719-.631l-.113-.369-3.713.5a2.444,2.444,0,0,0,.653,1.7,13.33,13.33,0,0,0,1.426,1.184L90.474,46l.367.465.284-.594.256.47Z" fill="none" stroke="#0a2c4c" stroke-linecap="round" stroke-linejoin="round" stroke-width="0.875"/>
          <path id="パス_23312" data-name="パス 23312" d="M91.32,39.578a3.06,3.06,0,0,1,3.1,2.271,10.477,10.477,0,0,1-3.177,1.611,17.756,17.756,0,0,1-3.028.683,3.423,3.423,0,0,1,3.105-4.565" fill="#c8c9ca"/>
          <path id="パス_23313" data-name="パス 23313" d="M91.32,39.578a3.06,3.06,0,0,1,3.1,2.271,10.477,10.477,0,0,1-3.177,1.611,17.756,17.756,0,0,1-3.028.683A3.423,3.423,0,0,1,91.32,39.578Z" fill="none" stroke="#05365d" stroke-linecap="round" stroke-linejoin="round" stroke-width="1"/>
          <path id="パス_23314" data-name="パス 23314" d="M93.336,40.189a2.957,2.957,0,0,0-.265,1.107c0,.949-1.273,1.844-1.273,1.844l.027.107a9.132,9.132,0,0,0,2.6-1.4,3.571,3.571,0,0,0-1.084-1.66" fill="#05365d"/>
          <g id="グループ_602" data-name="グループ 602" opacity="0.3">
            <g id="グループ_601" data-name="グループ 601">
              <g id="グループ_600" data-name="グループ 600" clip-path="url(#clip-path-12)">
                <path id="パス_23315" data-name="パス 23315" d="M147.968,78.4c-.513-2.411-15-10.19-15-10.19a1.092,1.092,0,0,0-1.132-.043l-35.9,19.917a1.092,1.092,0,0,0-.072,1.866,34.56,34.56,0,0,0,5.174,4.744,22.7,22.7,0,0,0,11.729,4.113,31.936,31.936,0,0,0,7.151-2.01c1.539-.638,23.966-12.437,24.557-12.805,1.83-1.139,4.011-3.181,3.5-5.592" fill="#190e0e"/>
              </g>
            </g>
          </g>
          <path id="パス_23316" data-name="パス 23316" d="M125.17,88.873l-4.727-.187.166-3.853,4.727.188Z" fill="#0e2f54"/>
          <path id="パス_23317" data-name="パス 23317" d="M138.925,83.191l-4.841.8.28-4.84,4.727.188Z" fill="#0e2f54"/>
          <path id="パス_23318" data-name="パス 23318" d="M140.149,77.158c.925-.338,2.319-.091,2.642.6a19.351,19.351,0,0,0,4.524-4.4,29.372,29.372,0,0,0-.266-3.031s1.285-1.759.677-2.842-13.192-8.253-13.733-8.253a21.945,21.945,0,0,0-3.337,1.263,14.783,14.783,0,0,0-7.036.361,48.7,48.7,0,0,0-13.063,6.262,51.1,51.1,0,0,0-9.373,9.973s-6.517,4.916-4.758,11.275c.507,1.832,8.592,8.016,14.071,7.8,5.209-.2,7.556-1.806,8.072-2.976s-.2-4.4,3.586-6.021c1.294-.555,1.9.044,2.189.836,3.47-1.862,8.682-4.668,12.529-6.774a4.944,4.944,0,0,1,3.276-4.074" fill="#dbdcdc"/>
          <path id="パス_23319" data-name="パス 23319" d="M140.149,77.158c.925-.338,2.319-.091,2.642.6a19.351,19.351,0,0,0,4.524-4.4,29.372,29.372,0,0,0-.266-3.031s1.285-1.759.677-2.842-13.192-8.253-13.733-8.253a21.945,21.945,0,0,0-3.337,1.263,14.783,14.783,0,0,0-7.036.361,48.7,48.7,0,0,0-13.063,6.262,51.1,51.1,0,0,0-9.373,9.973s-6.517,4.916-4.758,11.275c.507,1.832,8.592,8.016,14.071,7.8,5.209-.2,7.556-1.806,8.072-2.976s-.2-4.4,3.586-6.021c1.294-.555,1.9.044,2.189.836,3.47-1.862,8.682-4.668,12.529-6.774A4.944,4.944,0,0,1,140.149,77.158Z" fill="none" stroke="#053760" stroke-linecap="round" stroke-linejoin="round" stroke-width="1"/>
          <path id="パス_23320" data-name="パス 23320" d="M142.791,77.754a6.332,6.332,0,0,1,.493,2.178s1.4-.609,3.021-3.315a4.886,4.886,0,0,0,1.011-3.259,19.4,19.4,0,0,1-4.525,4.4" fill="#dbdcdc"/>
          <path id="パス_23321" data-name="パス 23321" d="M142.791,77.754a6.332,6.332,0,0,1,.493,2.178s1.4-.609,3.021-3.315a4.886,4.886,0,0,0,1.011-3.259A19.4,19.4,0,0,1,142.791,77.754Z" fill="none" stroke="#053760" stroke-linecap="round" stroke-linejoin="round" stroke-width="1"/>
          <path id="パス_23322" data-name="パス 23322" d="M124.575,90.065l12.11-6.344a13.168,13.168,0,0,1,.189-2.489c-3.848,2.107-9.059,4.912-12.53,6.775a5.724,5.724,0,0,1,.231,2.058" fill="#dbdcdc"/>
          <path id="パス_23323" data-name="パス 23323" d="M124.575,90.065l12.11-6.344a13.168,13.168,0,0,1,.189-2.489c-3.848,2.107-9.059,4.912-12.53,6.775A5.724,5.724,0,0,1,124.575,90.065Z" fill="none" stroke="#053760" stroke-linecap="round" stroke-linejoin="round" stroke-width="1"/>
          <path id="パス_23324" data-name="パス 23324" d="M105.757,71.713s-1.891-.895-2.216-.225-.417,2.726.125,3.084,2.091-2.859,2.091-2.859" fill="#dbdcdc"/>
          <path id="パス_23325" data-name="パス 23325" d="M105.757,71.713s-1.891-.895-2.216-.225-.417,2.726.125,3.084S105.757,71.713,105.757,71.713Z" fill="none" stroke="#053760" stroke-linecap="round" stroke-linejoin="round" stroke-width="1"/>
          <path id="パス_23326" data-name="パス 23326" d="M113.216,65.46s1.255,6.91,13.057,6.806a116.364,116.364,0,0,0-7.343,9.154c-1.713,2.661-3.756,1.481-5.138,1.14s-10.038-4.829-9.809-6.535,1.666-4.955,9.233-10.565" fill="#175f95"/>
          <path id="パス_23327" data-name="パス 23327" d="M113.216,65.46s1.255,6.91,13.057,6.806a116.364,116.364,0,0,0-7.343,9.154c-1.713,2.661-3.756,1.481-5.138,1.14s-10.038-4.829-9.809-6.535S105.649,71.07,113.216,65.46Z" fill="none" stroke="#063964" stroke-linecap="round" stroke-linejoin="round" stroke-width="1"/>
          <path id="パス_23328" data-name="パス 23328" d="M113.792,82.56c1.283.548,2.793,2.107,5.139-1.14,2.469-3.42,3.835-4.977,5.916-7.462a11.44,11.44,0,0,0-1.91-.339,2.645,2.645,0,0,0-1.024.065,2.455,2.455,0,0,0-1.023.759A11.512,11.512,0,0,0,119,77.258c-.225.476-.549,1.054-1.113,1.04a.9.9,0,0,1-.765-1.072,3.07,3.07,0,0,1,.752-1.258c.517-.651,1.243-1.006,1.56-1.759a1.586,1.586,0,0,0,.112-1.316,2.089,2.089,0,0,0-1.407-.824c-.947-.254-2.194-.867-3.141-1.122a2.916,2.916,0,0,0-1.509-.129,2.659,2.659,0,0,0-1.133.8l-2.288,2.326a4.4,4.4,0,0,1-1.053.867,4.755,4.755,0,0,1-1.1.362c-1.361.328-.914-2.378-2.95-1.6a12.1,12.1,0,0,0-.99,2.452c-.229,1.706,8.5,5.976,9.809,6.535" fill="#003f6f"/>
          <path id="パス_23329" data-name="パス 23329" d="M127.913,73.907s-7.133,8.45-7.659,9.66-.224,1.181.747.664,12.9-6.2,15.02-8.375,1.273-5.546,1.273-5.546-.1-.8-2.406-.175a15.893,15.893,0,0,0-6.975,3.772" fill="#175f95"/>
          <path id="パス_23330" data-name="パス 23330" d="M127.913,73.907s-7.133,8.45-7.659,9.66-.224,1.181.747.664,12.9-6.2,15.02-8.375,1.273-5.546,1.273-5.546-.1-.8-2.406-.175A15.893,15.893,0,0,0,127.913,73.907Z" fill="none" stroke="#063964" stroke-linecap="round" stroke-linejoin="round" stroke-width="1"/>
          <path id="パス_23331" data-name="パス 23331" d="M113.792,82.56c1.382.341,2.929,2.113,5.86-2,.027-.037-.974-.143-.947-.18-5.087-.758-7.07-3.011-7.039-3.72.037-.856.028-3.047-2.444-3.336a12.11,12.11,0,0,0-4.867,1.119,10.692,10.692,0,0,0-.372,1.579c-.229,1.706,8.427,6.194,9.809,6.535" fill="#0e2f54"/>
          <path id="パス_23332" data-name="パス 23332" d="M113.216,65.46s1.255,6.91,13.057,6.806c0,0-3.287,3.838-6.756,8.7-2.436,3.112-4.33,2.165-5.725,1.591-1.317-.542-10.038-4.829-9.809-6.535S105.762,71.138,113.216,65.46Z" fill="none" stroke="#063964" stroke-linecap="round" stroke-linejoin="round" stroke-width="1"/>
          <path id="パス_23333" data-name="パス 23333" d="M112.046,68.606s-4.283,3.308-6.2,7.043" fill="none" stroke="#80a7c5" stroke-linecap="round" stroke-linejoin="round" stroke-width="1.5"/>
          <path id="パス_23334" data-name="パス 23334" d="M135,78.782l-1.827,1.1s.26.638.822.368c.671-.322,1.22-.593,1.005-1.466" fill="#dbdcdc"/>
          <path id="パス_23335" data-name="パス 23335" d="M135,78.782l-1.827,1.1s.26.638.822.368C134.664,79.926,135.213,79.655,135,78.782Z" fill="none" stroke="#053760" stroke-linecap="round" stroke-linejoin="round" stroke-width="1"/>
          <path id="パス_23336" data-name="パス 23336" d="M123.62,60.855s10.657,5.775,14,6.178a50.611,50.611,0,0,0,5.209.226c.89,0-12.177-6.765-12.177-6.765s-4.966-.2-7.035.361" fill="#003f6f"/>
          <path id="パス_23337" data-name="パス 23337" d="M123.62,60.855s10.657,5.775,14,6.178a50.611,50.611,0,0,0,5.209.226c.89,0-12.177-6.765-12.177-6.765a28.756,28.756,0,0,0-7.035.361" fill="none" stroke="#063964" stroke-linecap="round" stroke-linejoin="round" stroke-width="1"/>
          <path id="パス_23338" data-name="パス 23338" d="M129.285,76.644a1.026,1.026,0,0,0,.141-.62,1.283,1.283,0,0,0-.652-.761,9.172,9.172,0,0,0-1.391-.725c-1.66,1.98-6.69,8.02-7.129,9.028-.526,1.21-.223,1.182.748.665.492-.262,3.8-1.851,7.218-3.638a2.973,2.973,0,0,1-.419-.919c-.216-1.12.961-2,1.484-3.03" fill="#003f6f"/>
          <path id="パス_23339" data-name="パス 23339" d="M127.913,73.907s-7.133,8.45-7.659,9.66-.224,1.181.747.664,12.9-6.2,15.02-8.375,1.273-5.546,1.273-5.546-.1-.8-2.406-.175A15.893,15.893,0,0,0,127.913,73.907Z" fill="none" stroke="#063964" stroke-linecap="round" stroke-linejoin="round" stroke-width="1"/>
          <path id="パス_23340" data-name="パス 23340" d="M135.849,71.569a28.765,28.765,0,0,0-6.242,2.62" fill="none" stroke="#80a7c5" stroke-linecap="round" stroke-linejoin="round" stroke-width="1"/>
          <path id="パス_23341" data-name="パス 23341" d="M120.266,85a.753.753,0,0,1-.854-1.083c.621-1.027,1.468-2.287,1.864-2.231a1.916,1.916,0,0,1,1.7,1.912c.011.764-1.48,1.185-2.708,1.4" fill="#dbdcdc"/>
          <path id="パス_23342" data-name="パス 23342" d="M120.266,85a.753.753,0,0,1-.854-1.083c.621-1.027,1.468-2.287,1.864-2.231a1.916,1.916,0,0,1,1.7,1.912C122.985,84.366,121.494,84.787,120.266,85Z" fill="none" stroke="#053760" stroke-linecap="round" stroke-linejoin="round" stroke-width="1"/>
          <path id="パス_23343" data-name="パス 23343" d="M107.137,90.62a11.887,11.887,0,0,0,3.01.812,13.839,13.839,0,0,0,2.639-.474.624.624,0,0,1,.135.744c-.2.474-.789,1.015-.925,1.421s-3.348.834-5.874-.97Z" fill="#fff"/>
          <path id="パス_23344" data-name="パス 23344" d="M107.137,90.62a11.887,11.887,0,0,0,3.01.812,13.839,13.839,0,0,0,2.639-.474.624.624,0,0,1,.135.744c-.2.474-.789,1.015-.925,1.421s-3.348.834-5.874-.97Z" fill="none" stroke="#063964" stroke-linecap="round" stroke-linejoin="round" stroke-width="1"/>
          <path id="パス_23345" data-name="パス 23345" d="M96.291,84.848s-.316.9.992,1.849,8.863,6.213,11.41,6.584c4.025.587,5.48-.4,6.156-1.037" fill="none" stroke="#063964" stroke-linecap="round" stroke-linejoin="round" stroke-width="1"/>
          <path id="パス_23346" data-name="パス 23346" d="M98.4,87.452v-1.8s-1.894-1.624-1.624-2.8c0,0-.856,2.525-.09,3.2s1.714,1.4,1.714,1.4" fill="#fff"/>
          <path id="パス_23347" data-name="パス 23347" d="M98.4,87.452v-1.8s-1.894-1.624-1.624-2.8c0,0-.856,2.525-.09,3.2S98.4,87.452,98.4,87.452Z" fill="none" stroke="#063964" stroke-linecap="round" stroke-linejoin="round" stroke-width="1"/>
          <path id="パス_23348" data-name="パス 23348" d="M103.258,93.867l-3.653-2.39V89.538l3.653,2.39Z" fill="#fff"/>
          <path id="パス_23349" data-name="パス 23349" d="M103.258,93.867l-3.653-2.39V89.538l3.653,2.39Z" fill="none" stroke="#063964" stroke-linecap="round" stroke-linejoin="round" stroke-width="1"/>
          <path id="パス_23350" data-name="パス 23350" d="M115.119,84.363S110.012,87.17,108.354,89" fill="#fff"/>
          <path id="パス_23351" data-name="パス 23351" d="M115.119,84.363S110.012,87.17,108.354,89" fill="none" stroke="#063964" stroke-linecap="round" stroke-linejoin="round" stroke-width="1"/>
          <path id="パス_23352" data-name="パス 23352" d="M102.469,78.072S99.8,82,99.188,84.4" fill="#fff"/>
          <path id="パス_23353" data-name="パス 23353" d="M102.469,78.072S99.8,82,99.188,84.4" fill="none" stroke="#063964" stroke-linecap="round" stroke-linejoin="round" stroke-width="1"/>
          <path id="パス_23354" data-name="パス 23354" d="M123.974,92.331c-.847,1.918-2.58,2.97-3.871,2.349s-1.651-2.679-.8-4.6,2.58-2.969,3.871-2.348,1.651,2.679.8,4.6" fill="#0e2f54"/>
          <path id="パス_23355" data-name="パス 23355" d="M123.974,92.331c-.847,1.918-2.58,2.97-3.871,2.349s-1.651-2.679-.8-4.6,2.58-2.969,3.871-2.348S124.821,90.413,123.974,92.331Z" fill="none" stroke="#063964" stroke-linecap="round" stroke-linejoin="round" stroke-width="1"/>
          <path id="パス_23356" data-name="パス 23356" d="M122.635,91.687c-.352.8-1.086,1.23-1.638.965a1.465,1.465,0,0,1-.361-1.926c.353-.8,1.086-1.231,1.638-.965a1.464,1.464,0,0,1,.361,1.926" fill="#60a9bb"/>
          <path id="パス_23357" data-name="パス 23357" d="M122.635,91.687c-.352.8-1.086,1.23-1.638.965a1.465,1.465,0,0,1-.361-1.926c.353-.8,1.086-1.231,1.638-.965A1.464,1.464,0,0,1,122.635,91.687Z" fill="none" stroke="#4b4c70" stroke-linecap="round" stroke-linejoin="round" stroke-width="1"/>
          <path id="パス_23358" data-name="パス 23358" d="M142.491,82.105c-.889,2.014-2.709,3.118-4.065,2.466s-1.733-2.813-.844-4.827,2.709-3.118,4.065-2.466,1.733,2.813.844,4.827" fill="#0e2f54"/>
          <path id="パス_23359" data-name="パス 23359" d="M142.491,82.105c-.889,2.014-2.709,3.118-4.065,2.466s-1.733-2.813-.844-4.827,2.709-3.118,4.065-2.466S143.38,80.091,142.491,82.105Z" fill="none" stroke="#063964" stroke-linecap="round" stroke-linejoin="round" stroke-width="1"/>
          <path id="パス_23360" data-name="パス 23360" d="M141.086,81.429c-.37.838-1.14,1.292-1.719,1.013a1.536,1.536,0,0,1-.38-2.022c.371-.839,1.14-1.292,1.72-1.013a1.537,1.537,0,0,1,.379,2.022" fill="#60a9bb"/>
          <path id="パス_23361" data-name="パス 23361" d="M141.086,81.429c-.37.838-1.14,1.292-1.719,1.013a1.536,1.536,0,0,1-.38-2.022c.371-.839,1.14-1.292,1.72-1.013A1.537,1.537,0,0,1,141.086,81.429Z" fill="none" stroke="#4b4c70" stroke-linecap="round" stroke-linejoin="round" stroke-width="1"/>
          <path id="パス_23362" data-name="パス 23362" d="M100.324,84.9l5.844,3.791,3.757-5.616-5.844-3.791Z" fill="#fff"/>
          <path id="パス_23363" data-name="パス 23363" d="M101.984,83.109l5.2,3.375,2.213-3.309L104.2,79.8Z" fill="#e83932"/>
          <path id="パス_23364" data-name="パス 23364" d="M100.849,84.806l5.2,3.375.16-.24-5.2-3.374Z" fill="#e83932"/>
          <path id="パス_23365" data-name="パス 23365" d="M105.593,86.576a.532.532,0,0,0,.088.75.551.551,0,0,0,.735-.216.534.534,0,0,0-.088-.751.552.552,0,0,0-.735.217" fill="#30528f"/>
          <path id="パス_23366" data-name="パス 23366" d="M104.62,85.946a.532.532,0,0,0,.088.75.551.551,0,0,0,.735-.216.534.534,0,0,0-.088-.751.552.552,0,0,0-.735.217" fill="#30528f"/>
          <path id="パス_23367" data-name="パス 23367" d="M103.648,85.315a.532.532,0,0,0,.088.75.551.551,0,0,0,.735-.216.534.534,0,0,0-.088-.751.552.552,0,0,0-.735.217" fill="#00a899"/>
          <path id="パス_23368" data-name="パス 23368" d="M102.676,84.684a.532.532,0,0,0,.088.75.551.551,0,0,0,.735-.216.534.534,0,0,0-.088-.751.552.552,0,0,0-.735.217" fill="#30528f"/>
          <path id="パス_23369" data-name="パス 23369" d="M101.7,84.053a.532.532,0,0,0,.088.75.551.551,0,0,0,.735-.216.534.534,0,0,0-.088-.751.552.552,0,0,0-.735.217" fill="#30528f"/>
          <path id="パス_23370" data-name="パス 23370" d="M126.373,87.832l4.59-2.411V80.782l-4.59,2.411Z" fill="#fff"/>
          <path id="パス_23371" data-name="パス 23371" d="M126.625,86.045l4.086-2.146V81.166l-4.086,2.146Z" fill="#e83932"/>
          <path id="パス_23372" data-name="パス 23372" d="M126.625,87.447l4.086-2.146v-.2l-4.086,2.147Z" fill="#e83932"/>
          <path id="パス_23373" data-name="パス 23373" d="M129.872,84.988c0,.221.145.323.323.23a.7.7,0,0,0,.323-.57c0-.22-.144-.323-.323-.229a.7.7,0,0,0-.323.569" fill="#30528f"/>
          <path id="パス_23374" data-name="パス 23374" d="M129.109,85.39c0,.221.145.323.323.23a.7.7,0,0,0,.323-.57c0-.22-.144-.323-.323-.229a.7.7,0,0,0-.323.569" fill="#30528f"/>
          <path id="パス_23375" data-name="パス 23375" d="M128.345,85.791c0,.221.145.323.323.23a.7.7,0,0,0,.323-.57c0-.22-.144-.323-.323-.229a.7.7,0,0,0-.323.569" fill="#00a899"/>
          <path id="パス_23376" data-name="パス 23376" d="M127.581,86.192c0,.221.145.323.323.23a.7.7,0,0,0,.323-.57c0-.22-.144-.323-.323-.229a.7.7,0,0,0-.323.569" fill="#30528f"/>
          <path id="パス_23377" data-name="パス 23377" d="M126.817,86.593c0,.221.145.323.323.23a.7.7,0,0,0,.323-.57c0-.22-.144-.323-.323-.229a.7.7,0,0,0-.323.569" fill="#30528f"/>
          <path id="パス_23378" data-name="パス 23378" d="M109.191,34.775l-.761,5.832a3.736,3.736,0,0,1-2.493.338,3.529,3.529,0,0,1-1.437-1.732l1.352-.8.8.507s.761-4.184,2.536-4.142" fill="#84c5df"/>
          <path id="パス_23379" data-name="パス 23379" d="M109.191,34.775l-.761,5.832a3.736,3.736,0,0,1-2.493.338,3.529,3.529,0,0,1-1.437-1.732l1.352-.8.8.507S107.416,34.733,109.191,34.775Z" fill="none" stroke="#063964" stroke-linecap="round" stroke-linejoin="round" stroke-width="1"/>
          <g id="グループ_605" data-name="グループ 605" opacity="0.3">
            <g id="グループ_604" data-name="グループ 604">
              <g id="グループ_603" data-name="グループ 603" clip-path="url(#clip-path-13)">
                <path id="パス_23380" data-name="パス 23380" d="M102.194,57.581c0,2.009,3.226,3.638,7.205,3.638s7.2-1.629,7.2-3.638-3.226-3.638-7.2-3.638-7.205,1.629-7.205,3.638" fill="#190e0e"/>
              </g>
            </g>
          </g>
          <path id="パス_23381" data-name="パス 23381" d="M109.14,58.675c.867.267,3.222-.383,3.537-.918s-.076-1.183-.075-1.591a6.235,6.235,0,0,1-1.933.268c-.145.11-.363.484-.544.624-.714.555-1.852,1.35-.985,1.617" fill="#f3f4f4"/>
          <path id="パス_23382" data-name="パス 23382" d="M109.14,58.675c.867.267,3.222-.383,3.537-.918s-.076-1.183-.075-1.591a6.235,6.235,0,0,1-1.933.268c-.145.11-.363.484-.544.624C109.411,57.613,108.273,58.408,109.14,58.675Z" fill="none" stroke="#082d4e" stroke-linecap="round" stroke-linejoin="round" stroke-width="1"/>
          <path id="パス_23383" data-name="パス 23383" d="M106.038,57.863c.795.438,2.964-.672,3.156-1.189a11,11,0,0,0,0-1.235l-1.858-.379-.116,1.272c-.608.379-1.7,1.244-1.182,1.531" fill="#f3f4f4"/>
          <path id="パス_23384" data-name="パス 23384" d="M106.038,57.863c.795.438,2.964-.672,3.156-1.189a11,11,0,0,0,0-1.235l-1.858-.379-.116,1.272C106.612,56.711,105.517,57.576,106.038,57.863Z" fill="none" stroke="#082d4e" stroke-linecap="round" stroke-linejoin="round" stroke-width="1"/>
          <path id="パス_23385" data-name="パス 23385" d="M112.763,42.91c.245,1.018.206,13.256.206,13.256a3.372,3.372,0,0,1-2.806.375l-.373-10-.169,9.5a3.449,3.449,0,0,1-2.205-.306l.011-12.76Z" fill="#175f95"/>
          <path id="パス_23386" data-name="パス 23386" d="M112.763,42.91c.245,1.018.206,13.256.206,13.256a3.372,3.372,0,0,1-2.806.375l-.373-10-.169,9.5a3.449,3.449,0,0,1-2.205-.306l.011-12.76Z" fill="none" stroke="#063964" stroke-linecap="round" stroke-linejoin="round" stroke-width="1"/>
          <path id="パス_23387" data-name="パス 23387" d="M113,42.207a1.472,1.472,0,0,0,.83-.593c1.018-1.529.287-5.3-.4-6.125-.454-.552-3.3-1.182-3.3-1.182a10.444,10.444,0,0,0-1.624.933c-1.02.745-1.07,2.253-1.056,3.466.022,1.875-.337,4.9-.337,4.9a19.643,19.643,0,0,0,5.9.216Z" fill="#84c5df"/>
          <path id="パス_23388" data-name="パス 23388" d="M113,42.207a1.472,1.472,0,0,0,.83-.593c1.018-1.529.287-5.3-.4-6.125-.454-.552-3.3-1.182-3.3-1.182a10.444,10.444,0,0,0-1.624.933c-1.02.745-1.07,2.253-1.056,3.466.022,1.875-.337,4.9-.337,4.9a19.643,19.643,0,0,0,5.9.216Z" fill="none" stroke="#063964" stroke-linecap="round" stroke-linejoin="round" stroke-width="1"/>
          <path id="パス_23389" data-name="パス 23389" d="M107.552,29.893s-.651,3.508.55,4.166a1.719,1.719,0,0,0,1.215.289v.81s.874.759,2-.376a6.79,6.79,0,0,0,.148-1.55s.9-.52.811-1.311a5.507,5.507,0,0,0-1.1-3.268,2.417,2.417,0,0,0-3.617,1.24" fill="#f7d7c5"/>
          <path id="パス_23390" data-name="パス 23390" d="M107.552,29.893s-.651,3.508.55,4.166a1.719,1.719,0,0,0,1.215.289v.81s.874.759,2-.376a6.79,6.79,0,0,0,.148-1.55s.9-.52.811-1.311a5.507,5.507,0,0,0-1.1-3.268A2.417,2.417,0,0,0,107.552,29.893Z" fill="none" stroke="#063964" stroke-linecap="round" stroke-linejoin="round" stroke-width="1"/>
          <path id="パス_23391" data-name="パス 23391" d="M109.549,31.593a.288.288,0,1,0,.326-.251.291.291,0,0,0-.326.251" fill="#0c2d51"/>
          <path id="パス_23392" data-name="パス 23392" d="M108.087,31.593a.288.288,0,1,0,.326-.251.291.291,0,0,0-.326.251" fill="#0c2d51"/>
          <path id="パス_23393" data-name="パス 23393" d="M111.141,31.4l-.289-1.215a9.547,9.547,0,0,1-4.065-.477,10.018,10.018,0,0,0,.929-.611c-.319-.306-.7-.743-.556-.989.175-.305,1.155.036,1.549.187a2.365,2.365,0,0,1,.3-.13l-.276-.707a3.008,3.008,0,0,1,1.017.537,2.679,2.679,0,0,1,2.145.746,3.413,3.413,0,0,1,.26,3.674.931.931,0,0,0-1.011-1.015" fill="#0c2d51"/>
          <path id="パス_23394" data-name="パス 23394" d="M111.141,31.4l-.289-1.215a9.547,9.547,0,0,1-4.065-.477,10.018,10.018,0,0,0,.929-.611c-.319-.306-.7-.743-.556-.989.175-.305,1.155.036,1.549.187a2.365,2.365,0,0,1,.3-.13l-.276-.707a3.008,3.008,0,0,1,1.017.537,2.679,2.679,0,0,1,2.145.746,3.413,3.413,0,0,1,.26,3.674A.931.931,0,0,0,111.141,31.4Z" fill="none" stroke="#082d4e" stroke-linecap="round" stroke-linejoin="round" stroke-width="1"/>
          <path id="パス_23395" data-name="パス 23395" d="M111.434,38.786l-1.195.608s-1.8-.716-1.624-1.411c.1-.4-.933-.889.065-1.128.592-.142,1.841.717,2.213,1.15Z" fill="#f7d7c5"/>
          <path id="パス_23396" data-name="パス 23396" d="M111.434,38.786l-1.195.608s-1.8-.716-1.624-1.411c.1-.4-.933-.889.065-1.128.592-.142,1.841.717,2.213,1.15Z" fill="none" stroke="#063964" stroke-linecap="round" stroke-linejoin="round" stroke-width="1"/>
          <path id="パス_23397" data-name="パス 23397" d="M112.987,42.212a1.641,1.641,0,0,1-1.641-.511,7.123,7.123,0,0,1-1.582-2.36l1.577-.973,1.613,1.6" fill="#84c5df"/>
          <path id="パス_23398" data-name="パス 23398" d="M112.987,42.212a1.641,1.641,0,0,1-1.641-.511,7.123,7.123,0,0,1-1.582-2.36l1.577-.973,1.613,1.6" fill="none" stroke="#063964" stroke-linecap="round" stroke-linejoin="round" stroke-width="1"/>
          <path id="パス_23399" data-name="パス 23399" d="M106.571,38.029l-1.86-.718-1.183-3.339,1.86.718Z" fill="#398c97"/>
          <path id="パス_23400" data-name="パス 23400" d="M106.571,38.029l-1.86-.718-1.183-3.339,1.86.718Z" fill="none" stroke="#063964" stroke-linecap="round" stroke-linejoin="round" stroke-width="1"/>
          <path id="パス_23401" data-name="パス 23401" d="M104.119,37.734s.211-1.183.423-1.1.253.423.253.423.93-.465,1.184-.169,0,1.056-.212,1.31a3.841,3.841,0,0,1-.8.592c-.127.084-.507.042-.845-1.057" fill="#f7d7c5"/>
          <path id="パス_23402" data-name="パス 23402" d="M104.119,37.734s.211-1.183.423-1.1.253.423.253.423.93-.465,1.184-.169,0,1.056-.212,1.31a3.841,3.841,0,0,1-.8.592C104.837,38.875,104.457,38.833,104.119,37.734Z" fill="none" stroke="#063964" stroke-linecap="round" stroke-linejoin="round" stroke-width="1"/>
          <line id="線_15349" data-name="線 15349" x2="0.93" y2="0.085" transform="translate(108.472 33)" fill="none" stroke="#082d4e" stroke-linecap="round" stroke-linejoin="round" stroke-width="0.8"/>
        </g>
      </g>
    </g>
    <g id="グループ_896" data-name="グループ 896" transform="translate(134.027 12.223)">
      <g id="楕円形_2" data-name="楕円形 2" transform="translate(0.266)" fill="#c0a56d" stroke="#fff" stroke-width="1">
        <circle cx="8" cy="8" r="8" stroke="none"/>
        <circle cx="8" cy="8" r="7.5" fill="none"/>
      </g>
      <text id="_" data-name="?" transform="translate(8.266 12)" fill="#fff" font-size="10" font-family="SegoeUI, Segoe UI"><tspan x="-2.241" y="0">?</tspan></text>
    </g>
  </g>
</svg>
