<svg height="39" viewBox="0 0 45 39" width="45" xmlns="http://www.w3.org/2000/svg" xmlns:xlink="http://www.w3.org/1999/xlink"><clipPath id="a"><circle cx="188" cy="228" r="15"/></clipPath><clipPath id="b"><path d="m0 0h81v69.015h-81z"/></clipPath><clipPath id="c"><path d="m0 0h14.129v7.133h-14.129z"/></clipPath><clipPath id="d"><path d="m0 0h14.128v7.133h-14.128z"/></clipPath><clipPath id="e"><path d="m0 0h65.921v37.688h-65.921z"/></clipPath><clipPath id="f"><path d="m0 0h18.963v6.034h-18.963z"/></clipPath><clipPath id="g"><path d="m0 0h15.285v8.224h-15.285z"/></clipPath><clipPath id="h"><path d="m0 0h15.284v8.224h-15.284z"/></clipPath><clipPath id="i"><path d="m0 0h1.582v7.656h-1.582z"/></clipPath><clipPath id="j"><path d="m0 0h66.739v61.496h-66.739z"/></clipPath><g clip-path="url(#a)" transform="translate(-173 -213)"><path d="m15 0a15 15 0 1 1 -15 15 15 15 0 0 1 15-15z" fill="#52a399" transform="translate(173 213)"/><g clip-path="url(#b)" transform="translate(169.221 200.235)"><g clip-path="url(#b)"><path d="m6.5 21.453s-1.576-1.439-1.713-1.234.034.72.034.72l-1.439.1c-.48.035-.685.275-.548.377a4.125 4.125 0 0 1 .446.514s-.24.171.1.479a2.947 2.947 0 0 0 1.028.72c.411.137 2.09-.685 2.09-.685l.891-.137-.24-.959z" fill="#f4ceba" transform="translate(-1.052 -7.625)"/><path d="m4.828 19.7c.152 0 .462 0 1.826 1.223l.867-.137.479 1.934-1.358.209a6.937 6.937 0 0 1 -2.125.718.856.856 0 0 1 -.274-.041 3.088 3.088 0 0 1 -1.112-.739l-.093-.084a.9.9 0 0 1 -.349-.723q0-.026 0-.051a2.086 2.086 0 0 0 -.173-.193.6.6 0 0 1 -.213-.646 1.069 1.069 0 0 1 1.029-.628l.889-.063a.944.944 0 0 1 .136-.537.552.552 0 0 1 .471-.242zm1.5 2.274-.166-.151c-.232-.212-.5-.439-.734-.635l.067.2-.638.047-1.258.09.081.105.308.41-.15.107a2.209 2.209 0 0 0 .7.5 7.282 7.282 0 0 0 1.737-.647z" fill="#707070" transform="translate(-1.052 -7.625)"/><path d="m4.828 19.7c.152 0 .462 0 1.826 1.223l.415-.065a.5.5 0 0 1 .563.373l.24.959a.5.5 0 0 1 -.409.615l-.816.125a6.937 6.937 0 0 1 -2.125.718.856.856 0 0 1 -.274-.041 3.088 3.088 0 0 1 -1.112-.739l-.093-.084a.9.9 0 0 1 -.349-.723q0-.026 0-.051a2.086 2.086 0 0 0 -.173-.193.6.6 0 0 1 -.213-.646 1.069 1.069 0 0 1 1.029-.628l.889-.063a.944.944 0 0 1 .136-.537.552.552 0 0 1 .466-.243zm1.609 2.25a.5.5 0 0 1 -.279-.127c-.274-.251-.593-.523-.863-.74a.5.5 0 0 1 -.443.355l-1.258.09.081.105a.5.5 0 0 1 .079.445l.055.05a2.3 2.3 0 0 0 .725.519 7.282 7.282 0 0 0 1.741-.647.5.5 0 0 1 .144-.045z" fill="#06375f" transform="translate(-1.052 -7.625)"/><path d="m2.649 4.622s.735-2 .492-2.053-.653.3-.653.3l-.64-1.293c-.214-.431-.514-.53-.556-.365a4.13 4.13 0 0 1 -.307.607s-.249-.152-.405.282a2.948 2.948 0 0 0 -.28 1.224c.032.432 1.43 1.676 1.43 1.676l.464.772.8-.586z" fill="#f4ceba" transform="translate(-.113 -.431)"/><path d="m2.048 6.5-.708-1.18c-.117-.106-.391-.36-.672-.649-.732-.756-.848-1.079-.868-1.314a3.076 3.076 0 0 1 .261-1.3l.049-.126a.873.873 0 0 1 .59-.611 2.094 2.094 0 0 0 .11-.235.594.594 0 0 1 .582-.445 1.109 1.109 0 0 1 .905.718l.395.8a1.038 1.038 0 0 1 .4-.092.749.749 0 0 1 .147.014.548.548 0 0 1 .369.271c.088.157.233.417-.409 2.217l.455.75zm-1.248-3.24a7.1 7.1 0 0 0 1.262 1.365l.04.036.078-.211c.108-.294.218-.622.309-.917l-.162.14-.287-.573-.559-1.13-.067.114-.262.439-.152-.103a2.2 2.2 0 0 0 -.2.84z" fill="#707070" transform="translate(-.113 -.431)"/><path d="m2.194 6.271a.5.5 0 0 1 -.429-.242l-.425-.709c-.117-.106-.391-.36-.672-.649-.732-.756-.848-1.079-.868-1.314a3.076 3.076 0 0 1 .261-1.3l.049-.126a.873.873 0 0 1 .59-.611 2.094 2.094 0 0 0 .11-.235.594.594 0 0 1 .582-.445 1.109 1.109 0 0 1 .905.718l.395.8a1.038 1.038 0 0 1 .4-.092.749.749 0 0 1 .147.014.548.548 0 0 1 .369.271c.088.157.233.417-.409 2.217l.218.359a.5.5 0 0 1 -.131.662l-.8.586a.5.5 0 0 1 -.292.096zm-1.394-3.011a7.1 7.1 0 0 0 1.262 1.365.5.5 0 0 1 .1.116l.009.015a.5.5 0 0 1 .009-.306c.128-.349.26-.746.357-1.079a.5.5 0 0 1 -.5-.276l-.559-1.13-.067.114a.5.5 0 0 1 -.383.241l-.027.074a2.28 2.28 0 0 0 -.201.866z" fill="#06375f" transform="translate(-.113 -.431)"/><g clip-path="url(#c)" opacity=".3" transform="translate(2.936 29.175)"><g clip-path="url(#d)"><path d="m18.844 50.436c0 1.97-3.163 3.566-7.065 3.566s-7.064-1.6-7.064-3.566 3.164-3.566 7.065-3.566 7.065 1.6 7.065 3.566" fill="#1a0e0e" transform="translate(-4.716 -46.869)"/></g></g><path d="m9.212 11.024-4.112-1.542s-.857-2.09-1.1-3.015c0 0-1.2-.1-1.645.651l.868 3.157a.989.989 0 0 0 .64.92l3.797 1.559" fill="#f9c06b" transform="translate(-.891 -2.44)"/><path d="m7.47 13.217-3.787-1.557a1.5 1.5 0 0 1 -.954-1.309l-.908-3.3.108-.182a2.373 2.373 0 0 1 2.118-.9l.353.031.089.343c.186.718.776 2.209.994 2.75l3.906 1.465-.351.936-4.317-1.62-.083-.2c-.031-.074-.684-1.674-1.007-2.7a1.318 1.318 0 0 0 -.722.256l.818 2.976v.066a.492.492 0 0 0 .316.455l.014.005 3.793 1.56z" fill="#707070" transform="translate(-.891 -2.44)"/><path d="m7.66 13.254a.5.5 0 0 1 -.19-.038l-3.787-1.556a1.5 1.5 0 0 1 -.954-1.309l-.852-3.1a.5.5 0 0 1 .052-.387 2.373 2.373 0 0 1 2.118-.9.5.5 0 0 1 .441.373c.186.718.776 2.209.994 2.75l3.906 1.465a.5.5 0 0 1 -.351.936l-4.112-1.537a.5.5 0 0 1 -.287-.278c-.031-.073-.684-1.673-1.007-2.699a1.318 1.318 0 0 0 -.722.256l.8 2.913a.5.5 0 0 1 .018.129.492.492 0 0 0 .316.455l.014.005 3.793 1.56a.5.5 0 0 1 -.19.963z" fill="#073a64" transform="translate(-.891 -2.44)"/><path d="m28.114 26.817c.207-.262.294-.735.4-.766a5.5 5.5 0 0 1 2.7.846c.672.357.57 1.076-.312 1.059l-1.29-.023a2.621 2.621 0 0 0 -1.493-1.115" fill="#fff" transform="translate(-10.614 -9.826)"/><path d="m30.927 28.456h-.04l-1.025-.018-.567-.01-.136-.27a2.192 2.192 0 0 0 -1.208-.867l-.669-.229.439-.555a1.681 1.681 0 0 0 .171-.36c.093-.239.189-.486.467-.574a1.146 1.146 0 0 1 .345-.047 7.366 7.366 0 0 1 2.738.929 1.127 1.127 0 0 1 .675 1.238 1.11 1.11 0 0 1 -1.19.763zm-1.037-1.018 1.017.018h.021a.674.674 0 0 0 .181-.021.537.537 0 0 0 -.135-.1 7.227 7.227 0 0 0 -2.158-.805l-.012.031a2.932 2.932 0 0 1 1.085.877z" fill="#707070" transform="translate(-10.614 -9.826)"/><path d="m28.705 25.526a7.366 7.366 0 0 1 2.738.929 1.04 1.04 0 0 1 -.556 2l-1.025-.018h-.264a.5.5 0 0 1 -.438-.275 2.192 2.192 0 0 0 -1.208-.867.5.5 0 0 1 -.23-.783 1.681 1.681 0 0 0 .171-.36c.093-.239.189-.486.467-.574a1.146 1.146 0 0 1 .345-.052zm2.4 1.909a.537.537 0 0 0 -.135-.1 7.227 7.227 0 0 0 -2.158-.805l-.012.031a2.932 2.932 0 0 1 1.086.874l1.017.018h.021a.674.674 0 0 0 .184-.018z" fill="#06375f" transform="translate(-10.614 -9.826)"/><path d="m25.365 29.809s1.089-1.678 1.752-2.515a2.616 2.616 0 0 1 1.492 1.116l-.352-.006-2.416 2.9z" fill="#f4ceba" transform="translate(-9.576 -10.304)"/><path d="m25.641 32.326-.824-2.59.129-.2c.045-.069 1.11-1.707 1.779-2.553l.219-.277.335.114a3.092 3.092 0 0 1 1.777 1.365l.37.739-.938-.017zm.273-2.441.127.4 1.74-2.089a2.6 2.6 0 0 0 -.5-.3c-.488.663-1.104 1.588-1.367 1.989z" fill="#707070" transform="translate(-9.576 -10.304)"/><path d="m25.841 31.8a.5.5 0 0 1 -.477-.348l-.476-1.5a.5.5 0 0 1 .057-.424c.045-.069 1.11-1.707 1.779-2.553a.5.5 0 0 1 .554-.163 3.092 3.092 0 0 1 1.777 1.365.5.5 0 0 1 -.456.724h-.112l-2.263 2.717a.5.5 0 0 1 -.383.182zm.073-1.92.127.4 1.74-2.089a2.6 2.6 0 0 0 -.5-.3c-.488.668-1.104 1.593-1.367 1.994z" fill="#06375f" transform="translate(-9.576 -10.304)"/><path d="m22.994 45.172-2.031-1.582 1.013-1.048s-.017-.242 1.724 1.518c.008.007.019.012.027.019a2.481 2.481 0 0 1 -.733 1.093" fill="#f4ceba" transform="translate(-7.914 -16.057)"/><path d="m22.994 45.806-2.777-2.163 1.367-1.414q.014-.017.029-.034a.518.518 0 0 1 .378-.163c.223 0 .4 0 2.033 1.645l.026.021.267.226-.12.328a2.966 2.966 0 0 1 -.9 1.316zm-1.285-2.268 1.239.965a2.154 2.154 0 0 0 .184-.3c-.555-.554-.885-.855-1.077-1.019z" fill="#707070" transform="translate(-7.914 -16.057)"/><path d="m22.994 45.672a.5.5 0 0 1 -.307-.106l-2.031-1.582a.5.5 0 0 1 -.052-.742l.98-1.014q.014-.017.029-.034a.518.518 0 0 1 .378-.163c.223 0 .4 0 2.033 1.645l.026.021a.5.5 0 0 1 .147.554 2.966 2.966 0 0 1 -.9 1.316.5.5 0 0 1 -.303.105zm-1.285-2.135 1.239.965a2.154 2.154 0 0 0 .184-.3c-.555-.554-.885-.855-1.077-1.019z" fill="#06375f" transform="translate(-7.914 -16.057)"/><path d="m24.226 46.111a2.481 2.481 0 0 0 .733-1.093c.332.311 1.233.669 1.332.795.393.494-1.118 3.943-1.382 3.288a16.421 16.421 0 0 1 -.586-2.9z" fill="#fff" transform="translate(-9.146 -16.995)"/><path d="m24.75 44.136.551.517a4.477 4.477 0 0 0 .768.453 1.78 1.78 0 0 1 .614.4c.218.274.228.715.033 1.428a9.406 9.406 0 0 1 -.582 1.531c-.489 1.014-.806 1.222-1.131 1.222a.6.6 0 0 1 -.558-.4 15.1 15.1 0 0 1 -.595-2.842l-.4-.362.472-.367a1.963 1.963 0 0 0 .57-.871zm1.106 1.986c-.072-.039-.165-.087-.242-.126-.147-.075-.3-.154-.45-.237a2.831 2.831 0 0 1 -.334.467c.053.43.176 1.272.33 1.95.1-.2.215-.446.328-.732a4.834 4.834 0 0 0 .367-1.322z" fill="#707070" transform="translate(-9.146 -16.995)"/><path d="m24.959 44.518a.5.5 0 0 1 .342.135 4.477 4.477 0 0 0 .768.453 1.78 1.78 0 0 1 .614.4c.218.274.228.715.033 1.428a9.406 9.406 0 0 1 -.582 1.531c-.489 1.014-.806 1.222-1.131 1.222a.6.6 0 0 1 -.558-.4 15.128 15.128 0 0 1 -.6-2.848.5.5 0 0 1 .07-.724 1.963 1.963 0 0 0 .57-.871.5.5 0 0 1 .469-.328zm.9 1.6c-.072-.039-.165-.087-.242-.126-.147-.075-.3-.154-.45-.237a2.831 2.831 0 0 1 -.334.467c.053.43.176 1.272.33 1.95.1-.2.215-.446.328-.732a4.834 4.834 0 0 0 .364-1.318z" fill="#06375f" transform="translate(-9.146 -16.995)"/><path d="m14 36.059c-1.565-3.684-3.107-8.738-3.107-8.738l4.8-2.105 2.883 4.171 2.163-2.557 2.126 1.321s-3.805 4.475-4.532 4.618-2.469-2.388-3.3-3.163c-.278-.259-.322.215-.322.215l1.274 4.92 3.623 1.9s-.694 1.979-1.234 1.979z" fill="#77807d" transform="translate(-4.111 -9.52)"/><path d="m18.368 39.12h-.136l-4.632-2.713-.065-.152c-1.557-3.666-3.11-8.736-3.125-8.787l-.13-.425 5.585-2.449 2.746 3.973 2.02-2.388 2.986 1.855-.376.442c-.01.011-.969 1.139-2.006 2.269-2.2 2.394-2.6 2.473-2.81 2.515a.914.914 0 0 1 -.158.015c-.694 0-1.452-.84-2.619-2.223l-.158-.187.916 3.536 3.81 2-.143.408a10.957 10.957 0 0 1 -.437 1.043c-.547 1.124-.965 1.268-1.268 1.268zm-3.975-3.409 3.976 2.33a5.592 5.592 0 0 0 .608-1.163l-3.427-1.8-1.35-5.217.008-.087c.041-.446.311-.746.671-.746a.711.711 0 0 1 .489.211 14.963 14.963 0 0 1 1.047 1.167c.381.452.775.919 1.141 1.29a2.57 2.57 0 0 0 .694.568 32.335 32.335 0 0 0 3.854-4l-1.264-.785-2.306 2.726-3.02-4.369-4.014 1.764c.4 1.269 1.64 5.128 2.893 8.111z" fill="#707070" transform="translate(-4.111 -9.52)"/><path d="m18.368 39.12a.5.5 0 0 1 -.253-.069l-4.37-2.561a.5.5 0 0 1 -.207-.236c-1.557-3.666-3.11-8.736-3.125-8.787a.5.5 0 0 1 .277-.6l4.8-2.105a.5.5 0 0 1 .612.174l2.511 3.633 1.741-2.059a.5.5 0 0 1 .646-.11l2.126 1.321a.5.5 0 0 1 .117.749c-.01.011-.969 1.139-2.006 2.269-2.2 2.394-2.6 2.473-2.81 2.515a.914.914 0 0 1 -.158.015c-.694 0-1.452-.84-2.619-2.223l-.158-.187.916 3.536 3.427 1.8a.5.5 0 0 1 .239.608 10.957 10.957 0 0 1 -.437 1.043c-.548 1.13-.966 1.274-1.269 1.274zm-3.975-3.409 3.976 2.33a5.592 5.592 0 0 0 .608-1.163l-3.231-1.7a.5.5 0 0 1 -.252-.317l-1.274-4.92a.5.5 0 0 1 -.014-.171c.041-.446.311-.746.671-.746a.711.711 0 0 1 .489.211 14.963 14.963 0 0 1 1.047 1.167c.381.452.775.919 1.141 1.29a2.57 2.57 0 0 0 .694.568 32.335 32.335 0 0 0 3.854-4l-1.264-.785-1.884 2.235a.5.5 0 0 1 -.793-.039l-2.648-3.831-4.013 1.76c.4 1.269 1.64 5.128 2.893 8.111z" fill="#073a64" transform="translate(-4.111 -9.52)"/><path d="m11.51 13.493 1.838.043.818-.067a.853.853 0 0 1 .9.636l.118.454a46.332 46.332 0 0 0 1.336 7.656c-1.8 2.018-6.936.767-6.936.767a14.264 14.264 0 0 1 -.235-5.442 8.12 8.12 0 0 1 .544-2.669" fill="#f9c06b" transform="translate(-3.457 -5.084)"/><path d="m12.874 23.866q-.254 0-.521-.011a16.3 16.3 0 0 1 -2.891-.387l-.333-.081-.044-.34c-.047-.362-.106-.716-.163-1.058a11.671 11.671 0 0 1 -.072-4.519 8.329 8.329 0 0 1 .6-2.839l.876.483v-.008a8.366 8.366 0 0 0 -.489 2.485l-.006.043a10.682 10.682 0 0 0 .072 4.191c.04.242.082.49.12.746 1.481.3 4.591.642 5.931-.507a45.932 45.932 0 0 1 -1.275-7.422l-.107-.41a.352.352 0 0 0 -.371-.263l-.845.069-1.856-.045.023-1 1.812.042.792-.065a1.351 1.351 0 0 1 1.421 1.008l.13.5v.046a46.175 46.175 0 0 0 1.322 7.56l.071.262-.181.2c-.781.878-2.131 1.32-4.016 1.32z" fill="#707070" transform="translate(-3.457 -5.084)"/><path d="m12.874 23.866q-.254 0-.521-.011a16.3 16.3 0 0 1 -2.891-.387.5.5 0 0 1 -.377-.422c-.047-.362-.106-.716-.163-1.058a11.671 11.671 0 0 1 -.072-4.518 8.329 8.329 0 0 1 .6-2.839l.876.483v-.008a8.366 8.366 0 0 0 -.489 2.485q0 .021-.006.043a10.682 10.682 0 0 0 .072 4.191c.04.242.082.49.12.746 1.481.3 4.591.642 5.931-.507a45.932 45.932 0 0 1 -1.275-7.422l-.107-.41a.352.352 0 0 0 -.371-.263l-.818.067h-.053l-1.83-.043a.5.5 0 1 1 .023-1l1.812.042.792-.065a1.351 1.351 0 0 1 1.421 1.008l.118.455a.5.5 0 0 1 .015.091 46.175 46.175 0 0 0 1.319 7.56.5.5 0 0 1 -.109.464c-.782.876-2.132 1.318-4.017 1.318z" fill="#073a64" transform="translate(-3.457 -5.084)"/><path d="m11.066 8.909c-2.671-1.483-1.037-4.009-.566-4.787a2.373 2.373 0 0 1 1.77-1.258 2.586 2.586 0 0 1 2.991 1.412c.723 1.793.126 3.74-1.351 3.942 0 0-.379.8-.4.911a2.17 2.17 0 0 0 -.017.727 1.186 1.186 0 0 1 -2.087.337 6.268 6.268 0 0 0 .415-1.266z" fill="#f4ceba" transform="translate(-3.614 -1.056)"/><path d="m12.337 11.181a1.6 1.6 0 0 1 -1.346-.709l-.152-.225.106-.25c.083-.2.164-.4.23-.585l-.244-.006-.108-.06a3.172 3.172 0 0 1 -1.657-1.946 4.718 4.718 0 0 1 .877-3.481l.034-.056a2.939 2.939 0 0 1 2.156-1.5 3.834 3.834 0 0 1 .7-.063 2.812 2.812 0 0 1 2.79 1.791 4.073 4.073 0 0 1 -.093 3.478 2.274 2.274 0 0 1 -1.376 1.089c-.121.261-.236.516-.266.6a1.693 1.693 0 0 0 -.008.521l.02.067-.009.073a1.6 1.6 0 0 1 -1.654 1.262zm-.347-1.1a.616.616 0 0 0 .347.1.719.719 0 0 0 .649-.345 2.612 2.612 0 0 1 .036-.816 6.316 6.316 0 0 1 .439-1.02l.116-.245.268-.037a1.265 1.265 0 0 0 .925-.656 3.107 3.107 0 0 0 .03-2.6 1.823 1.823 0 0 0 -1.863-1.162 2.728 2.728 0 0 0 -.55.052l-.11.025-.054-.012a2.092 2.092 0 0 0 -1.293 1.018l-.035.057a3.878 3.878 0 0 0 -.762 2.7 2.125 2.125 0 0 0 1.067 1.272l1.1.025.016.472a3.857 3.857 0 0 1 -.326 1.176z" fill="#707070" transform="translate(-3.614 -1.056)"/><path d="m12.337 11.181a1.6 1.6 0 0 1 -1.346-.709.5.5 0 0 1 -.046-.472c.083-.2.164-.4.23-.585h-.12a.5.5 0 0 1 -.231-.063 3.172 3.172 0 0 1 -1.658-1.952 4.718 4.718 0 0 1 .877-3.481l.034-.056a2.939 2.939 0 0 1 2.156-1.5 3.834 3.834 0 0 1 .7-.063 2.812 2.812 0 0 1 2.79 1.791 4.073 4.073 0 0 1 -.093 3.478 2.274 2.274 0 0 1 -1.376 1.089c-.121.261-.236.516-.266.6a1.693 1.693 0 0 0 -.008.521.514.514 0 0 1 0 .143 1.6 1.6 0 0 1 -1.643 1.259zm-.347-1.1a.616.616 0 0 0 .347.1.719.719 0 0 0 .649-.345 2.612 2.612 0 0 1 .036-.816 6.316 6.316 0 0 1 .439-1.02.5.5 0 0 1 .384-.281 1.265 1.265 0 0 0 .925-.656 3.107 3.107 0 0 0 .03-2.6 1.823 1.823 0 0 0 -1.863-1.163 2.728 2.728 0 0 0 -.55.052.513.513 0 0 1 -.149.012 2.069 2.069 0 0 0 -1.308 1.02l-.035.057a3.878 3.878 0 0 0 -.762 2.7 2.125 2.125 0 0 0 1.067 1.271l.627.014a.5.5 0 0 1 .488.483 3.857 3.857 0 0 1 -.325 1.176z" fill="#06375f" transform="translate(-3.614 -1.056)"/><path d="m14.257 13.724a2.153 2.153 0 0 1 1.081 2.286 8.2 8.2 0 0 1 -2.366 4.052 47.378 47.378 0 0 1 -4.832.411l-.1-1.953a19.979 19.979 0 0 0 3.666-.445 19.63 19.63 0 0 0 1.694-2.116" fill="#f9c06b" transform="translate(-3.035 -5.181)"/><path d="m7.668 21-.155-2.95.5-.026a21.655 21.655 0 0 0 3.416-.364 19.4 19.4 0 0 0 1.564-1.989l.814.581a16.748 16.748 0 0 1 -1.807 2.228c-.176.128-.492.266-2.224.419-.45.04-.89.071-1.211.091l.05.96a40.152 40.152 0 0 0 4.158-.347 8.258 8.258 0 0 0 2.073-3.677 1.607 1.607 0 0 0 -.309-1.319 1.77 1.77 0 0 0 -.506-.438l.45-.893a2.649 2.649 0 0 1 1.351 2.818c-.284 1.667-1.946 4.121-2.662 4.428a36.309 36.309 0 0 1 -5.005.451z" fill="#707070" transform="translate(-3.035 -5.181)"/><path d="m8.14 20.974a.5.5 0 0 1 -.5-.474l-.1-1.953a.5.5 0 0 1 .473-.526 21.655 21.655 0 0 0 3.416-.364 19.4 19.4 0 0 0 1.564-1.989.5.5 0 0 1 .814.581 16.748 16.748 0 0 1 -1.807 2.231c-.176.128-.492.266-2.224.419-.45.04-.89.071-1.211.091l.05.96a40.152 40.152 0 0 0 4.158-.347 8.258 8.258 0 0 0 2.073-3.677 1.607 1.607 0 0 0 -.309-1.319 1.77 1.77 0 0 0 -.506-.438.5.5 0 1 1 .45-.893 2.649 2.649 0 0 1 1.351 2.818c-.284 1.667-1.946 4.121-2.662 4.428a36.309 36.309 0 0 1 -5.005.451z" fill="#073a64" transform="translate(-3.035 -5.181)"/><path d="m13.811 7.384a.5.5 0 0 1 -.46-.3l-.226-.527a.5.5 0 0 1 .426-.7l.565-.038a.5.5 0 0 1 .186.975.5.5 0 0 1 -.492.589z" fill="#06375f" transform="translate(-5.128 -2.385)"/><path d="m11.284 5.949a.5.5 0 0 1 -.111-.988.5.5 0 0 1 .971-.016l.094.358a.5.5 0 0 1 -.464.627l-.471.019z" fill="#06375f" transform="translate(-4.26 -1.915)"/><path d="m11.246 16.16a.5.5 0 0 1 -.1-.01c-.491-.1-.532-.729-.532-1.313a2.089 2.089 0 0 1 1.217-1.708.5.5 0 0 1 .444.9 1.489 1.489 0 0 0 -.622.613.5.5 0 0 1 .566.815l-.642.578a.5.5 0 0 1 -.331.125z" fill="#073a64" transform="translate(-4.197 -5.126)"/><path d="m14.238 16.808h-.049a.5.5 0 0 1 -.347-.193l-.314-.408-.077.134a.5.5 0 0 1 -.867-.5l.449-.784a.5.5 0 0 1 .83-.056l.429.558a3.478 3.478 0 0 0 .43-.537 2.442 2.442 0 0 0 -.044-1.239.5.5 0 1 1 .97-.242 3.143 3.143 0 0 1 -.071 2 6.01 6.01 0 0 1 -1.01 1.145.5.5 0 0 1 -.329.122z" fill="#073a64" transform="translate(-4.914 -5.157)"/><path d="m11.093 7.544a.489.489 0 0 0 .274.308c.206.068.36-.068.532.189s.051 1.645-.429 1.594-.5-.6-.5-.6z" fill="#0c2e50" transform="translate(-4.143 -2.848)"/><path d="m11.509 7.374h.084a.812.812 0 0 1 .721.389 2.376 2.376 0 0 1 -.091 1.882.815.815 0 0 1 -.728.49.746.746 0 0 1 -.078 0 1.078 1.078 0 0 1 -.944-1.081v-.032l.122-1.522.979-.1a.141.141 0 0 0 -.048-.027z" fill="#707070" transform="translate(-4.143 -2.848)"/><path d="m11.092 7.026a.48.48 0 0 1 .474.348h.027a.812.812 0 0 1 .721.389 2.376 2.376 0 0 1 -.091 1.882.815.815 0 0 1 -.728.49.746.746 0 0 1 -.078 0 1.078 1.078 0 0 1 -.944-1.081.5.5 0 0 1 0-.056l.12-1.49a.513.513 0 0 1 .463-.476z" fill="#0c2e50" transform="translate(-4.143 -2.848)"/><path d="m13.2 1.741s-.411-.754-.24-.977.736.171.736.171a4.2 4.2 0 0 1 .404-.668c.12-.1.326.274.446.5s1.747.822 1.987 1.268 2.005.959.736 3.958a2.929 2.929 0 0 1 -2.227 1.49 24.1 24.1 0 0 0 .658-2.744c-.034-.325.017-.925-.034-.959a3.443 3.443 0 0 1 .326-.72 10.388 10.388 0 0 1 -2.792-1.319" fill="#604c3f" transform="translate(-4.876 -.094)"/><path d="m14.376 8.012.19-.668a25.393 25.393 0 0 0 .633-2.57 5.826 5.826 0 0 1 -.012-.583c0-.081 0-.184 0-.248a.676.676 0 0 1 .043-.478c.015-.036.032-.075.053-.12a7.609 7.609 0 0 1 -2.461-1.273l-.037-.042-.027-.049c-.377-.69-.443-1.2-.2-1.521a.682.682 0 0 1 .56-.26 1.125 1.125 0 0 1 .373.073 1.443 1.443 0 0 1 .288-.381.571.571 0 0 1 .371-.142c.4 0 .624.378.8.71.1.068.353.2.542.292a3.523 3.523 0 0 1 1.474 1.031 2.222 2.222 0 0 0 .172.156c.57.486 1.755 1.5.591 4.246l-.019.039a3.418 3.418 0 0 1 -2.64 1.756zm1.8-4.22a3.577 3.577 0 0 1 .009.411c0 .162 0 .363.008.484a9.615 9.615 0 0 1 -.438 2.1 2.707 2.707 0 0 0 1.066-1.019 3.369 3.369 0 0 0 .328-2.2 1.6 1.6 0 0 0 -.479-.713l-.245.445c-.096.18-.196.378-.248.491zm-2.285-2.15a13.9 13.9 0 0 0 2.255.943l.348.114a1.588 1.588 0 0 1 -.393-.422 5.252 5.252 0 0 0 -1.058-.634 2.778 2.778 0 0 1 -.87-.547l-.036.069z" fill="#707070" transform="translate(-4.876 -.094)"/><path d="m14.15-.25c.4 0 .624.378.8.71.1.068.353.2.542.292a3.523 3.523 0 0 1 1.474 1.031 2.222 2.222 0 0 0 .172.156c.57.486 1.755 1.5.591 4.246q-.009.02-.019.039a3.418 3.418 0 0 1 -2.64 1.756.5.5 0 0 1 -.5-.636 25.393 25.393 0 0 0 .633-2.57 5.827 5.827 0 0 1 -.012-.583c0-.081 0-.184 0-.248a.676.676 0 0 1 .043-.478c.015-.036.032-.075.053-.12a7.609 7.609 0 0 1 -2.461-1.273.5.5 0 0 1 -.063-.09c-.377-.69-.443-1.2-.2-1.522a.682.682 0 0 1 .555-.26 1.125 1.125 0 0 1 .373.073 1.444 1.444 0 0 1 .288-.381.571.571 0 0 1 .371-.142zm1.95 2.527a5.252 5.252 0 0 0 -1.058-.634 2.778 2.778 0 0 1 -.87-.547l-.036.069a.5.5 0 0 1 -.541.261l.01.019a10.127 10.127 0 0 0 2.539 1.14.5.5 0 0 1 .282.716c-.1.179-.2.377-.25.49a3.577 3.577 0 0 1 .009.411c0 .162 0 .363.008.484a9.615 9.615 0 0 1 -.438 2.1 2.707 2.707 0 0 0 1.066-1.019 3.369 3.369 0 0 0 .328-2.2 1.842 1.842 0 0 0 -.657-.87 1.59 1.59 0 0 1 -.392-.42z" fill="#0c2e50" transform="translate(-4.876 -.094)"/><path d="m16.916 7.3s1.09-.181.867.608-1.251 1.13-1.251 1.13" fill="#f4ceba" transform="translate(-6.242 -2.749)"/><path d="m16.691 9.513-.316-.949a1.566 1.566 0 0 0 .922-.773 1.126 1.126 0 0 0 -.3 0l-.163-.987a1.481 1.481 0 0 1 1.262.318.934.934 0 0 1 .168.919 2.505 2.505 0 0 1 -1.573 1.472z" fill="#707070" transform="translate(-6.242 -2.749)"/><path d="m16.533 9.538a.5.5 0 0 1 -.158-.975 1.566 1.566 0 0 0 .922-.773 1.126 1.126 0 0 0 -.3 0 .5.5 0 1 1 -.163-.987 1.481 1.481 0 0 1 1.262.318.934.934 0 0 1 .168.919 2.505 2.505 0 0 1 -1.574 1.469.5.5 0 0 1 -.157.029z" fill="#06375f" transform="translate(-6.242 -2.749)"/><g fill="#073a64"><path d="m.373 7.359a.5.5 0 0 1 -.5-.473l-.373-6.859a.5.5 0 0 1 .473-.527.5.5 0 0 1 .527.473l.373 6.859a.5.5 0 0 1 -.473.526z" transform="translate(21.301 4.173)"/><path d="m3.018 5.609a.5.5 0 0 1 -.431-.246l-3.018-5.109a.5.5 0 0 1 .177-.685.5.5 0 0 1 .685.176l3.017 5.11a.5.5 0 0 1 -.43.754z" transform="translate(16.489 6.566)"/><path d="m0 5.575a.5.5 0 0 1 -.177-.033.5.5 0 0 1 -.29-.642l1.925-5.077a.5.5 0 0 1 .642-.29.5.5 0 0 1 .29.645l-1.923 5.074a.5.5 0 0 1 -.467.323z" transform="translate(23.583 6.248)"/><path d="m25.636 8.456a.463.463 0 1 1 -.575-.312.463.463 0 0 1 .575.312" transform="translate(-9.336 -3.067)"/></g><path d="m25.193 9.551a.963.963 0 1 1 .274-.04.969.969 0 0 1 -.274.04z" fill="#707070" transform="translate(-9.336 -3.067)"/><path d="m34.261 4.432a.463.463 0 1 1 -.576-.312.464.464 0 0 1 .576.312" fill="#073a64" transform="translate(-12.592 -1.548)"/><path d="m33.817 5.527a.964.964 0 1 1 .274-.04.959.959 0 0 1 -.274.04z" fill="#707070" transform="translate(-12.592 -1.548)"/><path d="m41.78 7.712a.463.463 0 1 1 -.575-.312.463.463 0 0 1 .575.312" fill="#073a64" transform="translate(-15.431 -2.787)"/><path d="m41.337 8.807a.963.963 0 1 1 .923-1.237.963.963 0 0 1 -.923 1.237z" fill="#707070" transform="translate(-15.431 -2.787)"/><g clip-path="url(#e)" opacity=".3" transform="translate(15.079 31.327)"><g clip-path="url(#e)"><path d="m65.508 87.656-40.17-23.22c-1.729-1.015-1.383-3.46.6-4.248l19.24-9.652a2.811 2.811 0 0 1 2.443.149l41.409 22.615c1.7 1 1.4 3.382-.519 4.214l-20.476 10.257a2.819 2.819 0 0 1 -2.527-.115" fill="#1a0e0e" transform="translate(-24.224 -50.327)"/></g></g><path d="m73.668 85.8 10.38 6.009.662-7.609-10.58-4.824z" fill="#0e2f54" transform="translate(-27.811 -29.966)"/><path d="m84.478 92.632-11.331-6.56.536-7.45 11.556 5.266zm-10.289-7.112 9.429 5.458.563-6.472-9.6-4.377z" fill="#707070" transform="translate(-27.811 -29.966)"/><path d="m29.107 59.962 10.228 5.486.509-6.9-10.58-4.822z" fill="#0e2f54" transform="translate(-10.989 -20.282)"/><path d="m39.777 66.252-11.178-6 .184-7.3 11.585 5.28zm-10.162-6.585 9.278 4.977.427-5.788-9.575-4.364z" fill="#707070" transform="translate(-10.989 -20.282)"/><path d="m76.538 89.871c.683 2.866 3.116 4.663 5.432 4.014s3.641-3.5 2.958-6.365-3.116-4.662-5.432-4.013-3.642 3.5-2.958 6.364" fill="#0e2f54" transform="translate(-28.827 -31.475)"/><path d="m81.009 94.517a4.628 4.628 0 0 1 -3.1-1.278 6.37 6.37 0 0 1 -1.858-3.252 6.667 6.667 0 0 1 .387-4.34 4.642 4.642 0 0 1 2.923-2.622 4.064 4.064 0 0 1 1.1-.151 4.627 4.627 0 0 1 3.1 1.278 6.369 6.369 0 0 1 1.854 3.248 6.668 6.668 0 0 1 -.387 4.34 4.642 4.642 0 0 1 -2.923 2.622 4.061 4.061 0 0 1 -1.096.155zm-.552-10.643a3.064 3.064 0 0 0 -.827.114c-2.058.577-3.227 3.164-2.607 5.767a5.45 5.45 0 0 0 1.56 2.747 3.634 3.634 0 0 0 2.425 1.016 3.061 3.061 0 0 0 .826-.114c2.058-.577 3.227-3.164 2.607-5.767a5.449 5.449 0 0 0 -1.56-2.746 3.633 3.633 0 0 0 -2.424-1.017z" fill="#707070" transform="translate(-28.827 -31.475)"/><path d="m81.009 94.517a4.628 4.628 0 0 1 -3.1-1.278 6.37 6.37 0 0 1 -1.858-3.252 6.667 6.667 0 0 1 .387-4.34 4.642 4.642 0 0 1 2.923-2.622 4.064 4.064 0 0 1 1.1-.151 4.627 4.627 0 0 1 3.1 1.278 6.369 6.369 0 0 1 1.854 3.248 6.668 6.668 0 0 1 -.387 4.34 4.642 4.642 0 0 1 -2.923 2.622 4.061 4.061 0 0 1 -1.096.155zm-.552-10.643a3.064 3.064 0 0 0 -.827.114c-2.058.577-3.227 3.164-2.607 5.767a5.45 5.45 0 0 0 1.56 2.747 3.634 3.634 0 0 0 2.425 1.016 3.061 3.061 0 0 0 .826-.114c2.058-.577 3.227-3.164 2.607-5.767a5.449 5.449 0 0 0 -1.56-2.746 3.633 3.633 0 0 0 -2.424-1.017z" fill="#063964" transform="translate(-28.827 -31.475)"/><path d="m80.461 91.08a1.97 1.97 0 0 0 2.308 1.657 2.165 2.165 0 0 0 1.279-2.662 1.97 1.97 0 0 0 -2.308-1.656 2.164 2.164 0 0 0 -1.279 2.662" fill="#60a9bb" transform="translate(-30.348 -33.358)"/><path d="m82.347 93.3a2.56 2.56 0 0 1 -2.373-2.1 2.666 2.666 0 0 1 1.63-3.259 2.062 2.062 0 0 1 .556-.077 2.559 2.559 0 0 1 2.373 2.1 2.667 2.667 0 0 1 -1.63 3.26 2.062 2.062 0 0 1 -.556.076zm-.186-4.435a1.063 1.063 0 0 0 -.287.04 1.669 1.669 0 0 0 -.927 2.064 1.594 1.594 0 0 0 1.4 1.331 1.062 1.062 0 0 0 .286-.04 1.67 1.67 0 0 0 .927-2.065 1.593 1.593 0 0 0 -1.399-1.335z" fill="#707070" transform="translate(-30.348 -33.358)"/><path d="m82.347 93.3a2.56 2.56 0 0 1 -2.373-2.1 2.666 2.666 0 0 1 1.63-3.259 2.062 2.062 0 0 1 .556-.077 2.559 2.559 0 0 1 2.373 2.1 2.667 2.667 0 0 1 -1.63 3.26 2.062 2.062 0 0 1 -.556.076zm-.186-4.435a1.063 1.063 0 0 0 -.287.04 1.669 1.669 0 0 0 -.927 2.064 1.594 1.594 0 0 0 1.4 1.331 1.062 1.062 0 0 0 .286-.04 1.67 1.67 0 0 0 .927-2.065 1.593 1.593 0 0 0 -1.399-1.335z" fill="#4b4c70" transform="translate(-30.348 -33.358)"/><path d="m31.661 64.1c.408 2.585 2.472 4.338 4.611 3.915s3.543-2.862 3.135-5.447-2.471-4.342-4.607-3.918-3.543 2.862-3.135 5.447" fill="#0e2f54" transform="translate(-11.926 -22.118)"/><path d="m35.633 68.574a4.149 4.149 0 0 1 -2.911-1.262 5.67 5.67 0 0 1 -1.554-3.138 5.911 5.911 0 0 1 .673-3.862 4.276 4.276 0 0 1 2.859-2.153 3.806 3.806 0 0 1 .737-.073 4.148 4.148 0 0 1 2.911 1.262 5.671 5.671 0 0 1 1.552 3.139 5.911 5.911 0 0 1 -.673 3.862 4.275 4.275 0 0 1 -2.857 2.151 3.806 3.806 0 0 1 -.737.074zm-.2-9.488a2.8 2.8 0 0 0 -.543.054c-1.876.371-3.1 2.559-2.739 4.878a4.665 4.665 0 0 0 1.27 2.584 3.157 3.157 0 0 0 2.207.972 2.722 2.722 0 0 0 .543-.054c1.876-.371 3.1-2.559 2.738-4.878a4.665 4.665 0 0 0 -1.27-2.584 3.156 3.156 0 0 0 -2.202-.971z" fill="#707070" transform="translate(-11.926 -22.118)"/><path d="m35.633 68.574a4.149 4.149 0 0 1 -2.911-1.262 5.67 5.67 0 0 1 -1.554-3.138 5.911 5.911 0 0 1 .673-3.862 4.276 4.276 0 0 1 2.859-2.153 3.806 3.806 0 0 1 .737-.073 4.148 4.148 0 0 1 2.911 1.262 5.671 5.671 0 0 1 1.552 3.139 5.911 5.911 0 0 1 -.673 3.862 4.275 4.275 0 0 1 -2.857 2.151 3.806 3.806 0 0 1 -.737.074zm-.2-9.488a2.8 2.8 0 0 0 -.543.054c-1.876.371-3.1 2.559-2.739 4.878a4.665 4.665 0 0 0 1.27 2.584 3.157 3.157 0 0 0 2.207.972 2.722 2.722 0 0 0 .543-.054c1.876-.371 3.1-2.559 2.738-4.878a4.665 4.665 0 0 0 -1.27-2.584 3.156 3.156 0 0 0 -2.202-.971z" fill="#063964" transform="translate(-11.926 -22.118)"/><path d="m35.249 65.337a1.763 1.763 0 0 0 1.963 1.621 1.936 1.936 0 0 0 1.349-2.276 1.762 1.762 0 0 0 -1.963-1.62 1.934 1.934 0 0 0 -1.349 2.275" fill="#60a9bb" transform="translate(-13.296 -23.797)"/><path d="m36.931 67.486a2.309 2.309 0 0 1 -2.176-2.071 2.437 2.437 0 0 1 1.745-2.843 1.949 1.949 0 0 1 .378-.037 2.309 2.309 0 0 1 2.176 2.07 2.439 2.439 0 0 1 -1.746 2.844 1.952 1.952 0 0 1 -.377.037zm-.053-3.951a.948.948 0 0 0 -.184.018 1.438 1.438 0 0 0 -.952 1.707 1.34 1.34 0 0 0 1.189 1.227.95.95 0 0 0 .183-.018 1.44 1.44 0 0 0 .952-1.708 1.34 1.34 0 0 0 -1.187-1.227z" fill="#707070" transform="translate(-13.296 -23.797)"/><path d="m36.931 67.486a2.309 2.309 0 0 1 -2.176-2.071 2.437 2.437 0 0 1 1.745-2.843 1.949 1.949 0 0 1 .378-.037 2.309 2.309 0 0 1 2.176 2.07 2.439 2.439 0 0 1 -1.746 2.844 1.952 1.952 0 0 1 -.377.037zm-.053-3.951a.948.948 0 0 0 -.184.018 1.438 1.438 0 0 0 -.952 1.707 1.34 1.34 0 0 0 1.189 1.227.95.95 0 0 0 .183-.018 1.44 1.44 0 0 0 .952-1.708 1.34 1.34 0 0 0 -1.187-1.227z" fill="#4b4c70" transform="translate(-13.296 -23.797)"/><path d="m27.951 23.888c-.949 6.8-2.319 14.756-2.49 17.539a2.058 2.058 0 0 0 1.039 2.073l2.194 1.238s.315-4.4 4.077-3.31c3.6 1.045 3.475 5.061 3.249 6.77a1.212 1.212 0 0 0 .6 1.2c1.545.918 17.2 9.924 19.662 11.319.013.007.686-5.367 5.466-3.711 4.022 1.394 3.755 6.076 3.625 8.062a1.569 1.569 0 0 0 .805 1.465l1.938 1.1a2.544 2.544 0 0 0 2.39.059l18.709-9.62a1.384 1.384 0 0 0 .77-1.234l-.072-20.7a3.612 3.612 0 0 0 -1.8-3.533c-6.781-4.492-28.12-16.5-36.9-20.166a6.519 6.519 0 0 0 -5.459.2l-15.332 7.809a4.572 4.572 0 0 0 -2.471 3.44" fill="#d0e2ec" transform="translate(-9.605 -4.504)"/><path d="m69.36 68.457a3.042 3.042 0 0 1 -1.5-.393l-1.938-1.1a2.058 2.058 0 0 1 -1.058-1.933 13.028 13.028 0 0 0 -.24-4.093 4.607 4.607 0 0 0 -3.05-3.464 4.754 4.754 0 0 0 -1.54-.289c-2.445 0-3.115 2.737-3.263 3.576a.507.507 0 0 1 -.5.452h-.132l-.115-.065c-2.269-1.284-18.088-10.384-19.671-11.324a1.714 1.714 0 0 1 -.836-1.693 8.844 8.844 0 0 0 -.176-3.43 3.828 3.828 0 0 0 -2.717-2.795 3.562 3.562 0 0 0 -.984-.154 2.114 2.114 0 0 0 -1.991 1.359 5.245 5.245 0 0 0 -.464 1.66.5.5 0 0 1 -.541.463l-.109-.009-2.289-1.292a2.55 2.55 0 0 1 -1.29-2.557c.111-1.773.679-5.488 1.337-9.788.394-2.573.8-5.234 1.155-7.772a5.078 5.078 0 0 1 2.747-3.816l15.331-7.81a7.02 7.02 0 0 1 5.874-.22c8.677 3.621 30 15.583 36.98 20.21a4.108 4.108 0 0 1 2.023 3.949l.072 20.7a1.877 1.877 0 0 1 -1.045 1.683l-18.701 9.62a3.061 3.061 0 0 1 -1.369.325zm-9.321-12.27a5.743 5.743 0 0 1 1.867.345c4.421 1.532 4.086 6.643 3.96 8.567a1.065 1.065 0 0 0 .553 1l1.938 1.1a2.045 2.045 0 0 0 1.919.047l18.7-9.618a.884.884 0 0 0 .5-.79l-.072-20.7a3.135 3.135 0 0 0 -1.575-3.118c-6.953-4.614-28.176-16.52-36.81-20.127a6.02 6.02 0 0 0 -5.039.188l-15.331 7.812a4.078 4.078 0 0 0 -2.2 3.063c-.355 2.545-.763 5.209-1.157 7.785-.656 4.29-1.223 8-1.329 9.716v.038a1.555 1.555 0 0 0 .789 1.569l1.571.887a5.829 5.829 0 0 1 .442-1.28 3.107 3.107 0 0 1 2.888-1.918 4.556 4.556 0 0 1 1.262.194 4.832 4.832 0 0 1 3.4 3.477 9.664 9.664 0 0 1 .207 3.839.715.715 0 0 0 .355.7c1.48.879 15.435 8.908 19.065 10.978a6.938 6.938 0 0 1 .676-1.668 3.839 3.839 0 0 1 3.421-2.086z" fill="#707070" transform="translate(-9.605 -4.504)"/><path d="m48.7 11.43a6.979 6.979 0 0 1 2.7.541c8.677 3.621 30 15.583 36.98 20.21a4.108 4.108 0 0 1 2.023 3.949l.072 20.7a1.877 1.877 0 0 1 -1.045 1.683l-18.701 9.619a3.044 3.044 0 0 1 -2.865-.068l-1.938-1.1a2.058 2.058 0 0 1 -1.058-1.933 13.028 13.028 0 0 0 -.24-4.093 4.607 4.607 0 0 0 -3.05-3.464 4.752 4.752 0 0 0 -1.54-.289c-2.446 0-3.116 2.737-3.263 3.576a.507.507 0 0 1 -.5.452.5.5 0 0 1 -.246-.065c-2.269-1.284-18.088-10.384-19.671-11.324a1.714 1.714 0 0 1 -.836-1.693 8.844 8.844 0 0 0 -.176-3.43 3.828 3.828 0 0 0 -2.717-2.795 3.562 3.562 0 0 0 -.983-.154 2.114 2.114 0 0 0 -1.991 1.359 5.244 5.244 0 0 0 -.464 1.66.5.5 0 0 1 -.745.4l-2.194-1.238a2.55 2.55 0 0 1 -1.29-2.557c.111-1.773.679-5.488 1.337-9.788.394-2.573.8-5.234 1.155-7.772a5.078 5.078 0 0 1 2.741-3.816l15.331-7.81a7.023 7.023 0 0 1 3.174-.76zm20.66 56.027a2.051 2.051 0 0 0 .916-.216l18.7-9.618a.884.884 0 0 0 .5-.79l-.072-20.7a3.135 3.135 0 0 0 -1.575-3.118c-6.953-4.609-28.176-16.515-36.81-20.122a6.02 6.02 0 0 0 -5.039.188l-15.331 7.812a4.078 4.078 0 0 0 -2.2 3.063c-.355 2.545-.763 5.209-1.157 7.785-.656 4.29-1.223 8-1.329 9.716q0 .019 0 .038a1.555 1.555 0 0 0 .789 1.569l1.571.887a5.828 5.828 0 0 1 .442-1.279 3.107 3.107 0 0 1 2.889-1.918 4.556 4.556 0 0 1 1.262.194 4.832 4.832 0 0 1 3.4 3.477 9.664 9.664 0 0 1 .207 3.839.715.715 0 0 0 .355.7c1.48.879 15.435 8.908 19.065 10.978a6.939 6.939 0 0 1 .676-1.668 3.84 3.84 0 0 1 3.429-2.09 5.742 5.742 0 0 1 1.867.345c4.421 1.532 4.086 6.643 3.96 8.567a1.065 1.065 0 0 0 .553 1l1.938 1.1a2.04 2.04 0 0 0 .994.261z" fill="#063964" transform="translate(-9.605 -4.504)"/><path d="m116.765 88.271-3.439 1.763.042-1.673 3.421-1.753z" fill="#f7f7f7" transform="translate(-42.783 -32.696)"/><path d="m117.3 85.783-.04 2.8-4.456 2.284.071-2.812zm-1.031 2.18.008-.531-2.416 1.238-.014.535z" fill="#707070" transform="translate(-42.783 -32.696)"/><path d="m116.789 86.107a.5.5 0 0 1 .5.507l-.024 1.663a.5.5 0 0 1 -.272.438l-3.439 1.763a.5.5 0 0 1 -.728-.458l.042-1.673a.5.5 0 0 1 .272-.432l3.421-1.753a.5.5 0 0 1 .228-.055zm-.519 1.855.008-.531-2.416 1.238-.014.535z" fill="#063964" transform="translate(-42.783 -32.696)"/><path d="m97.5 58.463-12.681 6.5-.34-17.123c.167-2.93-3.114-5.432-5.692-6.864-5.273-2.93-17.662-10.376-24.887-13.893-.83-.4-1.168-1.346-.346-1.765l9.569-4.937c1.349-.687 2.448-.529 4.281.086 4.675 1.715 23.124 12.568 27.33 15.463a5.8 5.8 0 0 1 2.658 4.256z" fill="#d0e2ec" transform="translate(-20.039 -7.525)"/><path d="m84.331 65.778-.352-17.947v-.019c.056-.985-.361-3.58-5.436-6.4-1.578-.876-3.767-2.143-6.3-3.61-6.018-3.481-13.507-7.813-18.561-10.27a1.809 1.809 0 0 1 -1.1-1.516 1.26 1.26 0 0 1 .746-1.144l9.566-4.936a4.273 4.273 0 0 1 2-.505 8.7 8.7 0 0 1 2.666.562h.013c4.787 1.76 23.427 12.758 27.444 15.525a6.252 6.252 0 0 1 2.874 4.665l.109 18.585zm.649-17.929.32 16.308 11.7-6-.1-17.97a5.307 5.307 0 0 0 -2.441-3.847c-3.994-2.749-22.473-13.661-27.212-15.4a7.5 7.5 0 0 0 -2.342-.507 3.264 3.264 0 0 0 -1.547.4l-9.566 4.936c-.2.1-.2.206-.2.245a.868.868 0 0 0 .537.626c5.086 2.473 12.592 6.815 18.624 10.3 2.532 1.465 4.718 2.729 6.288 3.6 2.29 1.277 6.117 3.923 5.939 7.309z" fill="#707070" transform="translate(-20.039 -7.525)"/><path d="m84.815 65.468a.5.5 0 0 1 -.5-.49l-.336-17.128q0-.019 0-.038c.056-.985-.361-3.58-5.436-6.4-1.578-.876-3.767-2.143-6.3-3.61-6.018-3.481-13.507-7.813-18.561-10.27a1.809 1.809 0 0 1 -1.1-1.516 1.26 1.26 0 0 1 .746-1.144l9.566-4.936a4.273 4.273 0 0 1 2-.505 8.7 8.7 0 0 1 2.666.562h.013c4.787 1.76 23.427 12.758 27.444 15.525a6.252 6.252 0 0 1 2.874 4.665l.109 18.277a.5.5 0 0 1 -.272.448l-12.681 6.5a.5.5 0 0 1 -.232.06zm.165-17.619.32 16.308 11.7-6-.1-17.97a5.307 5.307 0 0 0 -2.441-3.847c-3.994-2.749-22.473-13.661-27.212-15.4a7.5 7.5 0 0 0 -2.342-.507 3.264 3.264 0 0 0 -1.547.4l-9.566 4.936c-.2.1-.2.206-.2.245a.868.868 0 0 0 .537.626c5.086 2.473 12.592 6.815 18.624 10.3 2.532 1.465 4.718 2.729 6.288 3.6 2.29 1.277 6.117 3.923 5.939 7.309z" fill="#063964" transform="translate(-20.039 -7.525)"/><path d="m66.855 58.592c-17.117-9.155-23.769-10.858-32.136-11.492-1.042-.079-1.829-.742-1.688-1.428 1.592-7.739 4.946-12.056 9-10.188l25.3 14.789c.859.433 1.307.617 1.238 1.307l-.319 6.585c-.046.46-.842.727-1.4.427" fill="#175f95" transform="translate(-12.464 -13.233)"/><path d="m67.383 59.219a1.622 1.622 0 0 1 -.764-.186c-16.8-8.987-23.431-10.79-31.938-11.434a2.575 2.575 0 0 1 -1.864-.909 1.382 1.382 0 0 1 -.275-1.118c1.44-7 4.227-11.02 7.644-11.02a4.914 4.914 0 0 1 2.058.479l.043.023 25.29 14.781.119.06c.789.4 1.472.738 1.379 1.723l-.321 6.6a1.279 1.279 0 0 1 -1.371 1.001zm-27.2-23.668c-2.857 0-5.348 3.821-6.665 10.222a.391.391 0 0 0 .094.315 1.624 1.624 0 0 0 1.141.514 48.462 48.462 0 0 1 12.91 2.575c5.027 1.71 11.018 4.478 19.424 8.974a.62.62 0 0 0 .292.068.558.558 0 0 0 .376-.12l.319-6.569c.027-.266.007-.323-.831-.743l-.161-.082-25.282-14.776a3.912 3.912 0 0 0 -1.615-.378z" fill="#707070" transform="translate(-12.464 -13.233)"/><path d="m72.778 62.1s2.684.721 2.591-1.347c-.091-2.042-.009-2.19 2.1-3.145a11.921 11.921 0 0 0 1.831-.969 19.728 19.728 0 0 1 4.022 2.418c.82.914-.23 7.573-.23 7.573l-.8.279z" fill="#003f6f" transform="translate(-27.475 -21.384)"/><path d="m82.257 67.456-9.705-4.905.355-.929a3.773 3.773 0 0 0 .85.1 1.333 1.333 0 0 0 .926-.273.877.877 0 0 0 .185-.673 3.723 3.723 0 0 1 .308-2.279 4.7 4.7 0 0 1 2.086-1.345 11.857 11.857 0 0 0 1.747-.921l.238-.169.265.123a19.015 19.015 0 0 1 4.182 2.537c.306.342.619 1.163.318 4.508-.16 1.775-.424 3.46-.427 3.477l-.047.3zm-7.478-4.9 7.549 3.816.314-.11c.081-.548.253-1.785.371-3.076.294-3.23-.027-3.744-.065-3.792a17.046 17.046 0 0 0 -3.613-2.179 15.727 15.727 0 0 1 -1.661.854c-1.019.461-1.475.7-1.665.986s-.184.747-.142 1.682a1.835 1.835 0 0 1 -.461 1.409 1.721 1.721 0 0 1 -.626.41z" fill="#707070" transform="translate(-27.475 -21.384)"/><path d="m45.555 50.378c-.115-.612 1.45-1.12 3.112-1.5.891-.2 1.025-1.137.87-3.1s.187-2.36 1.03-2.9c.476-.3 2.619-1.234 2.619-1.234l14 8.14-9.111 4.636s-11.175-4.115-12.52-4.042" fill="#003f6f" transform="translate(-17.196 -15.724)"/><path d="m40.477 35.058c-2.845-.286-5.045 4-6.022 5.414-.548 2.357-1.138 3.455-1.173 4.5l13.486-6.882s-3.522-2.475-6.291-3.035" fill="#0e2f54" transform="translate(-12.565 -13.23)"/><g clip-path="url(#f)" opacity=".57" transform="translate(23.248 30.468)"><g clip-path="url(#f)"><path d="m56.064 55.235a.5.5 0 0 1 -.215-.049c-7.671-3.668-13.213-5.144-17.443-4.644a.5.5 0 1 1 -.117-.993c4.426-.523 10.143.982 17.992 4.735a.5.5 0 0 1 -.216.951z" fill="#fff3e1" transform="translate(-37.725 -49.324)"/></g></g><path d="m67.383 59.217a1.622 1.622 0 0 1 -.764-.186c-16.801-8.987-23.431-10.791-31.938-11.431a2.575 2.575 0 0 1 -1.864-.909 1.382 1.382 0 0 1 -.275-1.118c1.441-7.006 4.226-11.024 7.642-11.024a4.894 4.894 0 0 1 2.048.476l.043.023 25.3 14.788a2.458 2.458 0 0 1 1.547 2.3l-.369 6.062q0 .01 0 .019a1.279 1.279 0 0 1 -1.37 1zm-27.2-23.672c-2.855 0-5.345 3.823-6.662 10.226a.391.391 0 0 0 .094.315 1.624 1.624 0 0 0 1.141.514 48.462 48.462 0 0 1 12.91 2.575c5.027 1.71 11.018 4.478 19.424 8.974a.62.62 0 0 0 .292.068.556.556 0 0 0 .377-.12l.367-6.035q0-.01 0-.02c.048-.476-.342-.984-1.016-1.325l-.027-.015-25.292-14.783a3.892 3.892 0 0 0 -1.608-.374z" fill="#063964" transform="translate(-12.464 -13.23)"/><path d="m28.542 23.7a76.413 76.413 0 0 0 -1.368 11.321l1.531.755a.7.7 0 0 0 1.02-.536c.212-2.24.779-7.176 1.043-9.287.25-2 .56-2.682 2.637-3.711 4.89-2.42 18.716-9.531 18.716-9.531a9.168 9.168 0 0 0 -2.037-.812 14.978 14.978 0 0 0 -3.17.2c-6.354 3.328-14.814 7.614-16.621 8.843-1.04.53-1.246 1.555-1.75 2.763" fill="#175f95" transform="translate(-10.259 -4.494)"/><path d="m30.165 42a8.156 8.156 0 0 0 -2.887 1.9l-.2 2.264c.766.364 1.641.961 2.2.916 0 0 .508-1.129.458-.8s.426-4.28.426-4.28" fill="#0e2f54" transform="translate(-10.223 -15.855)"/><g clip-path="url(#g)" opacity=".5" transform="translate(22.694 8.271)"><g clip-path="url(#h)"><path d="m0 7.791a.5.5 0 0 1 -.446-.274.5.5 0 0 1 .219-.672l14.351-7.291a.5.5 0 0 1 .672.219.5.5 0 0 1 -.219.672l-14.351 7.291a.5.5 0 0 1 -.226.055z" fill="#fff" transform="translate(.467 .467)"/></g></g><path d="m29.032 36.169a1.211 1.211 0 0 1 -.553-.135l-1.527-.753a.5.5 0 0 1 -.279-.448c0-2.314 1-10.148 1.2-11.19a5.154 5.154 0 0 1 1.855-3.129c.84-.751 9.452-5.063 16.528-8.548a6.587 6.587 0 0 1 5.477-.151l.587.25a.5.5 0 0 1 .033.9c-.138.071-13.885 7.14-18.723 9.535-1.885.933-2.131 1.463-2.364 3.324-.263 2.106-.829 7.036-1.042 9.272a1.183 1.183 0 0 1 -1.192 1.073zm-1.354-1.645 1.247.615.011.006a.2.2 0 0 0 .1.024.189.189 0 0 0 .19-.169c.213-2.245.781-7.19 1.045-9.3.274-2.192.69-3 2.912-4.1 4.079-2.019 14.508-7.37 17.74-9.03a5.59 5.59 0 0 0 -4.229.285c-9.637 4.746-15.731 7.885-16.3 8.4a4.2 4.2 0 0 0 -1.539 2.57c-.202 1.052-1.1 8.196-1.177 10.699z" fill="#063964" transform="translate(-10.258 -4.451)"/><path d="m115.9 58.655-17.272 8.79a1.186 1.186 0 0 1 -1.728-1v-8.415a1.77 1.77 0 0 1 1.027-1.585l16.984-8.719a1.177 1.177 0 0 1 1.71 1l.162 8.97c0 .561-.357.707-.883.963" fill="#175f95" transform="translate(-36.581 -17.971)"/><path d="m98.085 68.071a1.66 1.66 0 0 1 -1.685-1.627v-8.414a2.258 2.258 0 0 1 1.3-2.03l16.99-8.722a1.713 1.713 0 0 1 .748-.171 1.651 1.651 0 0 1 1.678 1.614l.162 8.975c0 .848-.58 1.129-1.092 1.377l-.069.033-17.272 8.794a1.723 1.723 0 0 1 -.76.171zm17.045-19.9-16.988 8.729a1.266 1.266 0 0 0 -.742 1.13v8.414a.662.662 0 0 0 .687.627.73.73 0 0 0 .313-.071l17.349-8.828c.524-.254.528-.289.528-.473l-.162-8.975a.654.654 0 0 0 -.678-.619.72.72 0 0 0 -.306.069z" fill="#707070" transform="translate(-36.581 -17.971)"/><path d="m113.592 51.033a16.83 16.83 0 0 1 .142 3.487c-.042.344.1.5.447.6.775.225 2.662.605 2.662 1.432-5.912 2.624-19.807 8.655-19.807 8.655s-.471-6.741.265-7.371c.593-.507 10.814-6.027 14.352-7.686a1.383 1.383 0 0 1 1.938.879" fill="#003f6f" transform="translate(-36.577 -18.883)"/><path d="m96.587 65.951-.049-.705c0-.017-.119-1.719-.144-3.477-.015-1.04 0-1.9.058-2.552.082-1 .234-1.507.525-1.756.707-.605 11.117-6.189 14.465-7.759a1.91 1.91 0 0 1 .816-.182 1.847 1.847 0 0 1 1.821 1.4 16.97 16.97 0 0 1 .152 3.665v.029a.768.768 0 0 0 .092.032c.1.028.216.06.343.094 1.067.285 2.681.715 2.681 1.819v.325l-.3.132c-5.846 2.6-19.672 8.6-19.811 8.657zm1.058-7.745c-.055.1-.3.719-.25 3.7.017.988.062 1.943.1 2.564 2.732-1.187 13.315-5.786 18.629-8.139a2.323 2.323 0 0 0 -.31-.168 9.255 9.255 0 0 0 -1.414-.463c-.132-.035-.257-.069-.364-.1a.981.981 0 0 1 -.8-1.144 16.49 16.49 0 0 0 -.132-3.309.851.851 0 0 0 -.848-.63.917.917 0 0 0 -.392.088c-3.672 1.724-13.464 7.037-14.219 7.6z" fill="#707070" transform="translate(-36.577 -18.883)"/><path d="m97.921 66.74 14.979-7.765c.814-.4 1.642-.111 2.827.548s.907.621.918.994c.023.79.01 2.108-.31 2.375-.524.436-17.7 8.916-18.33 8.916-1.218 0-1.33-1.714-1.272-3.285a2.078 2.078 0 0 1 1.188-1.783" fill="#0e2f54" transform="translate(-36.514 -22.195)"/><path d="m98 72.308a1.472 1.472 0 0 1 -1.086-.451c-.687-.713-.732-2.095-.685-3.352a2.582 2.582 0 0 1 1.471-2.211l14.984-7.768a2.223 2.223 0 0 1 1-.233 5.022 5.022 0 0 1 2.292.794c.9.5 1.266.73 1.182 1.331a.5.5 0 0 0 -.008.085c.067 2.308-.323 2.634-.489 2.773-.482.4-9.135 4.644-9.223 4.687-2.381 1.167-4.567 2.22-6.156 2.966-2.943 1.379-3.121 1.379-3.282 1.379zm15.119-12.886-14.978 7.767a1.585 1.585 0 0 0 -.908 1.352c-.052 1.405.085 2.287.406 2.621a.456.456 0 0 0 .324.144c.474-.14 3.444-1.5 9.129-4.291 4.833-2.369 8.432-4.2 8.9-4.5a5.7 5.7 0 0 0 .149-1.986 1.3 1.3 0 0 1 .007-.171 7.329 7.329 0 0 0 -.667-.4 4.005 4.005 0 0 0 -1.806-.667 1.244 1.244 0 0 0 -.551.13z" fill="#707070" transform="translate(-36.514 -22.195)"/><g clip-path="url(#i)" opacity=".5" transform="translate(77.537 31.746)"><g clip-path="url(#i)"><path d="m125.706 58.911a.5.5 0 0 1 -.5-.566 19.251 19.251 0 0 0 -.14-6.249.5.5 0 0 1 .981-.192 20.248 20.248 0 0 1 .149 6.574.5.5 0 0 1 -.49.433z" fill="#fff" transform="translate(-124.939 -51.377)"/></g></g><path d="m98.085 68.022a1.66 1.66 0 0 1 -1.685-1.622v-8.419a2.258 2.258 0 0 1 1.3-2.033l17.092-8.8.012-.006a1.716 1.716 0 0 1 .749-.171 1.651 1.651 0 0 1 1.678 1.618l.023 8.681a1.981 1.981 0 0 1 -1.134 1.781l-17.267 8.791h-.008a1.723 1.723 0 0 1 -.76.18zm17.159-19.978-17.09 8.8-.012.006a1.266 1.266 0 0 0 -.744 1.135v8.415a.662.662 0 0 0 .687.627.73.73 0 0 0 .319-.074l17.267-8.788h.008a.988.988 0 0 0 .577-.883l-.023-8.681a.654.654 0 0 0 -.678-.619.723.723 0 0 0 -.311.062z" fill="#063964" transform="translate(-36.581 -17.922)"/><path d="m127.754 74.538-1.113.621a.365.365 0 0 1 -.545-.345l.5-5.108 1.206-.725z" fill="#cb5d46" transform="translate(-47.603 -26.042)"/><path d="m126.46 75.706a.873.873 0 0 1 -.645-.286.842.842 0 0 1 -.217-.655l.525-5.359 2.187-1.314-.059 6.74-1.367.762a.874.874 0 0 1 -.424.112zm.609-5.7-.45 4.593.637-.355.038-4.374z" fill="#707070" transform="translate(-47.603 -26.042)"/><path d="m128.481 71.619-.668.334c-.262.093-.416-.022-.381-.376s.108-1.2.108-1.2c.059-.329.061-.362.173-.43.156-.1.768-.408.768-.408z" fill="#ddb04b" transform="translate(-48.106 -26.254)"/><path d="m127.657 72.483a.7.7 0 0 1 -.528-.228.908.908 0 0 1 -.194-.728c.034-.348.106-1.181.107-1.189l.006-.044.006-.032c.06-.335.1-.556.4-.739.16-.1.693-.371.8-.424l.727-.371v3.2l-.972.486-.029.01a.972.972 0 0 1 -.323.059z" fill="#707070" transform="translate(-48.106 -26.254)"/><path d="m127.314 75.309c.09.25.625.35 1 .181 0-.475-.033-1.279-.033-1.754-.649.3-1.159 1.043-.967 1.572" fill="#fff" transform="translate(-48.048 -27.837)"/><path d="m127.9 76.074a1.064 1.064 0 0 1 -1.057-.595 1.971 1.971 0 0 1 1.226-2.2l.712-.333v.786c0 .231.008.552.016.863s.017.646.017.89v.323l-.294.133a1.516 1.516 0 0 1 -.62.133z" fill="#707070" transform="translate(-48.048 -27.837)"/><path d="m126.6 75.668a.9.9 0 0 1 -.662-.294.864.864 0 0 1 -.223-.668l.406-4.961v-.007a1.348 1.348 0 0 1 .646-1.018l.031-.017.921-.469a.5.5 0 0 1 .727.446v5.878a.5.5 0 0 1 -.282.45l-1.144.555a.9.9 0 0 1 -.42.105zm.518-5.837-.39 4.761.72-.349v-4.749l-.175.089a.338.338 0 0 0 -.152.248z" fill="#063964" transform="translate(-47.649 -25.928)"/><path d="m99.745 88.843-2.945 1.477a.471.471 0 0 1 -.688-.456v-4.308a.9.9 0 0 1 .424-.777l1.624-.842a.456.456 0 0 1 .664.278l1.159 3.958a.569.569 0 0 1 -.233.669" fill="#cb5d46" transform="translate(-36.283 -31.665)"/><path d="m96.577 90.881a1 1 0 0 1 -.969-1.016v-4.309a1.4 1.4 0 0 1 .671-1.209l.023-.013 1.615-.837a.937.937 0 0 1 .461-.122.976.976 0 0 1 .917.681l.006.018 1.157 3.951a1.066 1.066 0 0 1 -.458 1.25l-.028.015-2.938 1.472a.935.935 0 0 1 -.457.119zm.2-5.666a.4.4 0 0 0 -.169.341v4.3l2.892-1.448a.091.091 0 0 0 .009-.077l-.006-.018-1.151-3.913z" fill="#707070" transform="translate(-36.283 -31.665)"/><path d="m96.577 90.881a1 1 0 0 1 -.969-1.016v-4.309a1.4 1.4 0 0 1 .671-1.209l.023-.013 1.615-.837a.937.937 0 0 1 .461-.122.976.976 0 0 1 .917.681l.006.018 1.157 3.951a1.066 1.066 0 0 1 -.458 1.25l-.028.015-2.938 1.472a.935.935 0 0 1 -.457.119zm.2-5.666a.4.4 0 0 0 -.169.341v4.3l2.892-1.448a.091.091 0 0 0 .009-.077l-.006-.018-1.151-3.913z" fill="#063964" transform="translate(-36.283 -31.665)"/><path d="m98.791 86.9-1.172.624a.423.423 0 0 1 -.619-.403v-.776a.856.856 0 0 1 .373-.789l.867-.457a.325.325 0 0 1 .469.2l.268.8c.115.34.106.631-.184.806" fill="#ddb04b" transform="translate(-36.619 -32.111)"/><path d="m97.412 88.071a.9.9 0 0 1 -.913-.95v-.776a1.328 1.328 0 0 1 .625-1.224l.014-.008.862-.453a.812.812 0 0 1 .393-.1.839.839 0 0 1 .788.58l.268.8a1.067 1.067 0 0 1 -.4 1.392l-.024.013-1.195.637-.025.01a1.05 1.05 0 0 1 -.393.079zm.2-2.078c-.1.065-.116.267-.116.352v.682l1.041-.555a.567.567 0 0 0 -.042-.211l-.208-.623z" fill="#707070" transform="translate(-36.619 -32.111)"/><path d="m99.617 89.8c.153.383-.222.883-.941 1.231s-1.316.316-1.469-.067.195-.973.914-1.32 1.342-.227 1.5.156" fill="#fff" transform="translate(-36.684 -33.766)"/><path d="m97.783 91.776a1.042 1.042 0 0 1 -1.039-.623c-.267-.667.232-1.508 1.161-1.956a2.389 2.389 0 0 1 1.023-.255 1.167 1.167 0 0 1 1.153.676c.263.658-.2 1.39-1.187 1.866a2.627 2.627 0 0 1 -1.111.292zm-.112-1.013a.413.413 0 0 0 .112.013 1.606 1.606 0 0 0 .676-.192c.507-.246.681-.514.692-.594a.4.4 0 0 0 -.223-.048 1.414 1.414 0 0 0 -.588.156c-.481.231-.664.551-.669.665z" fill="#707070" transform="translate(-36.684 -33.766)"/><path d="m.228 1.65-.456-.89 2.35-1.205.456.89z" fill="#707070" transform="translate(71.099 51.296)"/><path d="m0 1.705a.5.5 0 0 1 -.445-.272.5.5 0 0 1 .217-.673l2.35-1.205a.5.5 0 0 1 .678.217.5.5 0 0 1 -.217.673l-2.355 1.205a.5.5 0 0 1 -.228.055z" fill="#063964" transform="translate(71.099 51.296)"/><path d="m60.317 62.495a.5.5 0 0 1 .191.038c.473.2.874.362 1.279.53l1.163.482a.5.5 0 0 1 .263.672 1.265 1.265 0 0 1 -1.192.783 2.417 2.417 0 0 1 -.933-.22c-.7-.3-1.582-.667-1.254-1.914a.5.5 0 0 1 .484-.373z" fill="#063964" transform="translate(-22.75 -23.782)"/><path d="m19.171 11.589a.5.5 0 0 1 -.25-.067l-19.171-11.089a.5.5 0 0 1 -.183-.683.5.5 0 0 1 .683-.183l19.172 11.089a.5.5 0 0 1 -.251.933z" fill="#063964" transform="translate(28.36 42.565)"/><path d="m93.568 90.66a2.651 2.651 0 0 1 -1.307-.345l-2.712-1.534a.5.5 0 0 1 .492-.87l2.712 1.534a1.651 1.651 0 0 0 1.565.035l19.437-9.863a.5.5 0 1 1 .452.892l-19.436 9.862a2.653 2.653 0 0 1 -1.203.289z" fill="#063964" transform="translate(-33.9 -30.226)"/><path d="m26.375 50.64c1.344.494.617 4.573.617 4.573l-.88-.527a.648.648 0 0 1 -.329-.549 13.29 13.29 0 0 1 .592-3.5" fill="#fff" transform="translate(-9.733 -19.118)"/><path d="m27.357 56.014-1.5-.9a1.148 1.148 0 0 1 -.576-.976 12.994 12.994 0 0 1 .557-3.427l.188-.734.52.191c.789.29 1.162 1.254 1.14 2.947a15.051 15.051 0 0 1 -.2 2.183zm-.768-4.174a9.369 9.369 0 0 0 -.306 2.292.15.15 0 0 0 .079.121h.008l.232.139c.041-.365.081-.829.086-1.3a5.868 5.868 0 0 0 -.099-1.252z" fill="#707070" transform="translate(-9.733 -19.118)"/><path d="m26.375 50.14a.5.5 0 0 1 .172.031c.789.29 1.162 1.254 1.14 2.947a15.051 15.051 0 0 1 -.2 2.183.5.5 0 0 1 -.749.341l-.877-.525a1.148 1.148 0 0 1 -.576-.976 12.994 12.994 0 0 1 .557-3.427l.051-.2a.5.5 0 0 1 .484-.376zm.225 4.26c.041-.365.081-.829.086-1.3a5.868 5.868 0 0 0 -.1-1.255 9.369 9.369 0 0 0 -.306 2.292.15.15 0 0 0 .079.121h.008z" fill="#063964" transform="translate(-9.733 -19.118)"/></g></g></g><g clip-path="url(#a)" transform="translate(-158 -204)"><circle cx="15" cy="15" fill="#52a399" r="15" transform="translate(173 213)"/><g clip-path="url(#j)" transform="translate(158.267 216.047)"><path d="m5.486 64.141v6.065c0 .369-.4.668-.89.668s-.89-.3-.89-.668v-5.787" fill="#fef6e0" transform="translate(58.756 -19.485)"/><path d="m4.6 71.174a1.085 1.085 0 0 1 -1.19-.968v-5.787a.3.3 0 1 1 .6 0v5.787c0 .174.242.368.59.368s.59-.194.59-.368v-6.065a.3.3 0 0 1 .6 0v6.065a1.085 1.085 0 0 1 -1.19.968z" fill="#132c4c" transform="translate(58.756 -19.485)"/><path d="m34.55 78.838v6.062c0 .369-.4.668-.89.668s-.89-.3-.89-.668v-5.784" fill="#fef6e0" transform="translate(10.105 -24.278)"/><path d="m33.659 85.871a1.085 1.085 0 0 1 -1.19-.968v-5.787a.3.3 0 1 1 .6 0v5.784c0 .174.242.368.59.368s.59-.194.59-.368v-6.062a.3.3 0 0 1 .6 0v6.062a1.085 1.085 0 0 1 -1.19.971z" fill="#132c4c" transform="translate(10.105 -24.278)"/><path d="m96.311 43.829v6.065c0 .369-.4.668-.89.668s-.89-.3-.89-.668v-5.787" fill="#fef6e0" transform="translate(-93.279 -12.862)"/><path d="m95.42 51.062a1.28 1.28 0 0 1 -1.39-1.168v-5.787h1v5.787c0 .032.13.168.39.168s.39-.136.39-.168v-6.065h1v6.065a1.28 1.28 0 0 1 -1.39 1.168z" fill="#707070" transform="translate(-93.279 -12.862)"/><path d="m95.42 51.062a1.28 1.28 0 0 1 -1.39-1.168v-5.787a.5.5 0 0 1 1 0v5.787c0 .032.13.168.39.168s.39-.136.39-.168v-6.065a.5.5 0 0 1 1 0v6.065a1.28 1.28 0 0 1 -1.39 1.168z" fill="#132c4c" transform="translate(-93.279 -12.862)"/><path d="m27.7 27.278 35.587 20.55v-2.513l-35.587-20.549-17.661 10.2 2.175 1.256z" fill="#fef6e0" transform="translate(-3.312 -6.647)"/><path d="m27.7 24.189 36.085 20.838v3.667l-36.085-20.839-15.486 8.945-3.176-1.838zm35.085 21.411-35.085-20.256-16.662 9.618 1.176.679 15.486-8.941 35.085 20.262z" fill="#707070" transform="translate(-3.312 -6.647)"/><path d="m27.7 24.266a.5.5 0 0 1 .25.067l35.585 20.549a.5.5 0 0 1 .25.433v2.512a.5.5 0 0 1 -.75.433l-35.335-20.405-15.235 8.8a.5.5 0 0 1 -.5 0l-2.177-1.255a.5.5 0 0 1 0-.866l17.661-10.2a.5.5 0 0 1 .251-.068zm35.085 21.334-35.085-20.256-16.662 9.618 1.176.679 15.235-8.8a.5.5 0 0 1 .5 0l34.836 20.121z" fill="#132c4c" transform="translate(-3.312 -6.647)"/><path d="m7.582 69.835 21.989-12.695v3.513l-21.989 12.694-7.224-4.171v-3.513z" fill="#fef6e0" transform="translate(36.927 -17.203)"/><path d="m7.582 73.647a.3.3 0 0 1 -.15-.04l-7.224-4.172a.3.3 0 0 1 -.15-.26v-3.512a.3.3 0 0 1 .45-.26l7.075 4.085 21.838-12.608a.3.3 0 0 1 .45.26v3.513a.3.3 0 0 1 -.15.26l-21.989 12.694a.3.3 0 0 1 -.15.04zm-6.924-4.647 6.925 4 21.688-12.521v-2.82l-21.539 12.435a.3.3 0 0 1 -.3 0l-6.774-3.911z" fill="#132c4c" transform="translate(36.927 -17.203)"/><path d="m22.347 19.176 44.306 25.585-21.988 12.695-44.307-25.585zm37.782 24.316-35.586-20.549-17.661 10.196 35.587 20.55z" fill="#fef6e0" transform="translate(-.156 -4.824)"/><path d="m22.347 18.6 45.306 26.161-22.988 13.272-45.307-26.162zm43.306 26.161-43.306-25.008-20.989 12.118 43.307 25.007zm-41.11-22.4 36.586 21.131-18.66 10.774-36.587-21.127zm34.587 21.131-34.587-19.972-16.661 9.619 34.587 19.973z" fill="#707070" transform="translate(-.156 -4.824)"/><path d="m22.347 18.676a.5.5 0 0 1 .25.067l44.303 25.585a.5.5 0 0 1 0 .866l-21.985 12.695a.5.5 0 0 1 -.5 0l-44.307-25.589a.5.5 0 0 1 0-.866l21.992-12.691a.5.5 0 0 1 .247-.067zm43.306 26.085-43.306-25.008-20.989 12.118 43.307 25.007zm-41.11-22.318a.5.5 0 0 1 .25.067l35.587 20.55a.5.5 0 0 1 0 .866l-17.66 10.2a.5.5 0 0 1 -.5 0l-35.588-20.554a.5.5 0 0 1 0-.866l17.661-10.2a.5.5 0 0 1 .25-.063zm34.587 21.049-34.587-19.972-16.661 9.619 34.587 19.973z" fill="#132c4c" transform="translate(-.156 -4.824)"/><path d="m0 3.813a.3.3 0 0 1 -.3-.3v-3.513a.3.3 0 0 1 .3-.3.3.3 0 0 1 .3.3v3.513a.3.3 0 0 1 -.3.3z" fill="#123052" transform="translate(44.509 52.632)"/><path d="m90.3 38.013 5.681 3.28v3.513l-5.681-3.28z" fill="#fef6e0" transform="translate(-90.096 -10.966)"/><path d="m89.8 37.147 6.679 3.853v4.667l-6.679-3.852zm5.681 4.435-4.681-2.7v2.358l4.681 2.7z" fill="#707070" transform="translate(-90.096 -10.966)"/><path d="m90.3 37.513a.5.5 0 0 1 .25.067l5.681 3.28a.5.5 0 0 1 .25.433v3.513a.5.5 0 0 1 -.75.433l-5.681-3.28a.5.5 0 0 1 -.25-.433v-3.513a.5.5 0 0 1 .5-.5zm5.181 4.069-4.681-2.7v2.358l4.681 2.7z" fill="#132c4c" transform="translate(-90.096 -10.966)"/><path d="m75.106 61.014v3.513l-31.406-18.134v-3.512z" fill="#fef6e0" transform="translate(-37.822 -12.553)"/><path d="m75.606 65.392-32.406-18.71v-4.667l32.4 18.71zm-31.406-19.292 30.4 17.556v-2.356l-30.4-17.553z" fill="#707070" transform="translate(-37.822 -12.553)"/><path d="m75.106 65.026a.5.5 0 0 1 -.25-.067l-31.4-18.133a.5.5 0 0 1 -.25-.433v-3.512a.5.5 0 0 1 .75-.433l31.4 18.133a.5.5 0 0 1 .25.433v3.513a.5.5 0 0 1 -.5.5zm-30.906-18.926 30.4 17.556v-2.356l-30.4-17.553z" fill="#132c4c" transform="translate(-37.822 -12.553)"/><path d="m0 11.2a.3.3 0 0 1 -.26-.15.3.3 0 0 1 .11-.41l18.871-10.9a.3.3 0 0 1 .41.11.3.3 0 0 1 -.11.41l-18.871 10.895a.3.3 0 0 1 -.15.045z" fill="#133256" transform="translate(46.068 43)"/><path d="m4.679 17.6a1.846 1.846 0 0 1 1.864.129l19.9 11.491a4.677 4.677 0 0 1 2.144 3.714v8.2a1.847 1.847 0 0 1 -.821 1.678 1.5 1.5 0 0 1 -.758.2 2.23 2.23 0 0 1 -1.106-.325l-19.902-11.495a4.672 4.672 0 0 1 -2.144-3.713v-8.2a1.848 1.848 0 0 1 .823-1.679m21.228 12.555-19.907-11.491a1.177 1.177 0 0 0 -.561-.183.436.436 0 0 0 -.222.054.83.83 0 0 0 -.28.742v.772l22.573 13.032v-.15a3.6 3.6 0 0 0 -1.6-2.776m-18.01.882 1.872 1.083v-8.033l-1.872-1.087zm14.783 8.535 1.875 1.082v-8.032l-1.879-1.082zm-2.957-1.707 1.874 1.082v-8.032l-1.875-1.082zm-2.957-1.706 1.875 1.082v-8.033l-1.875-1.082zm-2.959-1.708 1.874 1.082v-8.033l-1.874-1.082zm-2.957-1.706 1.875 1.082v-8.033l-1.875-1.082zm15.594 9a.834.834 0 0 0 .782.129.832.832 0 0 0 .28-.741v-6.804l-1.875-1.083v8.033zm-19.904-11.489.272.157v-8.033l-1.875-1.08v6.182a3.6 3.6 0 0 0 1.6 2.777" fill="#fef6e0" transform="translate(35.547 -4.245)"/><path d="m5.437 16.9a2.737 2.737 0 0 1 1.357.393l19.9 11.49a5.146 5.146 0 0 1 2.394 4.147v8.2a2.33 2.33 0 0 1 -1.071 2.111 1.993 1.993 0 0 1 -1.008.263 2.738 2.738 0 0 1 -1.356-.392l-19.901-11.487a5.142 5.142 0 0 1 -2.394-4.146v-8.2a2.331 2.331 0 0 1 1.071-2.112 1.985 1.985 0 0 1 1.008-.267zm21.575 25.609a1.006 1.006 0 0 0 .509-.129 1.368 1.368 0 0 0 .57-1.245v-8.2a4.194 4.194 0 0 0 -1.891-3.285l-19.907-11.49a1.743 1.743 0 0 0 -.856-.258 1 1 0 0 0 -.507.129 1.37 1.37 0 0 0 -.571 1.246v8.2a4.19 4.19 0 0 0 1.894 3.28l19.9 11.493a1.744 1.744 0 0 0 .859.259zm-21.571-24.528a1.641 1.641 0 0 1 .812.251l19.9 11.49.022.014a4.1 4.1 0 0 1 1.831 3.2v.15a.5.5 0 0 1 -.75.433l-22.566-13.037a.5.5 0 0 1 -.25-.433v-.772a1.273 1.273 0 0 1 .531-1.177.925.925 0 0 1 .47-.119zm20.195 12.6-19.884-11.481a.9.9 0 0 0 -.273-.112.883.883 0 0 0 -.039.292v.484l21.4 12.358a3.109 3.109 0 0 0 -1.186-1.53zm-20.696-9.781a.5.5 0 0 1 .25.067l1.875 1.083a.5.5 0 0 1 .25.433v8.033a.5.5 0 0 1 -.75.433l-.272-.157a4.1 4.1 0 0 1 -1.853-3.213v-6.179a.5.5 0 0 1 .5-.5zm1.375 1.872-.875-.505v5.316a3.179 3.179 0 0 0 .875 1.954zm1.585-.172a.5.5 0 0 1 .25.067l1.876 1.083a.5.5 0 0 1 .25.433v8.037a.5.5 0 0 1 -.75.433l-1.88-1.083a.5.5 0 0 1 -.25-.433v-8.037a.5.5 0 0 1 .5-.5zm1.376 1.872-.876-.502v6.878l.876.506zm1.582-.164a.5.5 0 0 1 .25.067l1.875 1.082a.5.5 0 0 1 .25.433v8.033a.5.5 0 0 1 -.75.433l-1.883-1.078a.5.5 0 0 1 -.25-.433v-8.033a.5.5 0 0 1 .5-.5zm1.375 1.871-.875-.505v6.878l.875.505zm1.582-.165a.5.5 0 0 1 .25.067l1.874 1.083a.5.5 0 0 1 .25.433v8.032a.5.5 0 0 1 -.75.433l-1.879-1.078a.5.5 0 0 1 -.25-.433v-8.033a.5.5 0 0 1 .5-.5zm1.374 1.872-.874-.505v6.878l.874.5zm1.582-.164a.5.5 0 0 1 .25.067l1.875 1.082a.5.5 0 0 1 .25.433v8.036a.5.5 0 0 1 -.75.433l-1.875-1.082a.5.5 0 0 1 -.25-.433v-8.033a.5.5 0 0 1 .5-.5zm1.37 1.878-.875-.505v6.878l.875.505zm1.582-.164a.5.5 0 0 1 .25.067l1.875 1.082a.5.5 0 0 1 .25.433v8.033a.5.5 0 0 1 -.75.433l-1.876-1.084a.5.5 0 0 1 -.25-.433v-8.035a.5.5 0 0 1 .5-.5zm1.377 1.864-.875-.505v6.877l.875.505zm1.582-.164a.5.5 0 0 1 .25.067l1.868 1.086a.5.5 0 0 1 .25.433v8.032a.5.5 0 0 1 -.75.433l-1.871-1.087a.5.5 0 0 1 -.25-.433v-8.027a.5.5 0 0 1 .5-.5zm1.375 1.871-.875-.505v6.877l.875.505zm1.581-.165a.5.5 0 0 1 .25.067l1.872 1.091a.5.5 0 0 1 .25.433v6.806a1.275 1.275 0 0 1 -.529 1.174.929.929 0 0 1 -.471.12 1.647 1.647 0 0 1 -.811-.249l-.813-.469a.5.5 0 0 1 -.25-.433v-8.036a.5.5 0 0 1 .5-.5zm1.375 1.872-.875-.505v6.881l.563.325a.866.866 0 0 0 .272.111.849.849 0 0 0 .04-.29z" fill="#132c4c" transform="translate(35.547 -4.245)"/><path d="m87.519 5.756-1.141-.628-21.989 12.695-.039 9.477 1.142.627.038-9.481z" fill="#d5846b" transform="translate(-64.148 -.244)"/><path d="m86.378 4.628a.5.5 0 0 1 .241.062l1.141.628a.5.5 0 0 1 .009.871l-21.74 12.552-.037 9.194a.5.5 0 0 1 -.741.436l-1.142-.627a.5.5 0 0 1 -.259-.44l.039-9.482a.5.5 0 0 1 .25-.431l21.989-12.691a.5.5 0 0 1 .25-.072zm.122 1.139-.116-.067-21.5 12.41-.037 8.9.144.079.035-8.64a.5.5 0 0 1 .25-.431z" fill="#133256" transform="translate(-64.148 -.244)"/><path d="m86.338 15.541.039-9.481-21.988 12.695-.039 9.481z" fill="#d5846b" transform="translate(-63.007 -.548)"/><path d="m86.378 5.56a.5.5 0 0 1 .5.5l-.039 9.481a.5.5 0 0 1 -.25.431l-21.989 12.697a.5.5 0 0 1 -.75-.435l.039-9.481a.5.5 0 0 1 .25-.431l21.989-12.695a.5.5 0 0 1 .25-.067zm-.538 9.692.034-8.323-20.986 12.116-.034 8.323z" fill="#133256" transform="translate(-63.007 -.548)"/><path d="m85.648 9.275a.5.5 0 0 1 .5.51l-.033 1.715a.5.5 0 0 1 -.25.423l-19.165 11.067a.5.5 0 0 1 -.75-.443l.034-1.715a.5.5 0 0 1 .25-.423l19.166-11.067a.5.5 0 0 1 .248-.067zm-.528 1.925.011-.548-18.156 10.482-.011.547z" fill="#123052" transform="translate(-63.691 -1.759)"/><path d="m2.3 19.009c1.06-.774 20.645-12.785 21.755-12.347s10.118 14.63 10.118 14.63 26.927 14.818 27.327 15.538a6.941 6.941 0 0 1 0 3.513c-.194.377-21.114 12.692-21.988 12.695s-27.968-15.906-29.1-16.983-9.743-14.291-9.803-15.188c-.038-.565.635-1.084 1.693-1.858" fill="#fff" transform="translate(4.599 -.74)"/><path d="m39.513 53.537c-.207 0-.441 0-5-2.566-2.551-1.435-6-3.42-9.7-5.59-4.777-2.8-14.006-8.267-14.741-8.964s-3.723-5.2-5.378-7.752c-1.207-1.863-2.31-3.617-3.107-4.94-1.447-2.386-1.465-2.65-1.476-2.825-.058-.866.8-1.5 1.9-2.3.525-.384 5.485-3.46 10.62-6.491 10.1-5.964 11.009-5.964 11.351-5.964a.7.7 0 0 1 .261.047c.293.116.84.331 5.709 7.668 2.135 3.217 4.183 6.428 4.58 7.051.909.5 7.172 3.952 13.4 7.439 13.685 7.657 13.87 7.988 14.006 8.23a7.04 7.04 0 0 1 .008 3.987c-.087.169-.135.263-3.581 2.341-2.029 1.224-4.709 2.809-7.351 4.349-2.894 1.687-5.55 3.207-7.481 4.28-3.586 1.999-3.827 2-4.02 2zm-38.405-32.724a75.558 75.558 0 0 0 4.522 7.472c2.453 3.781 4.655 6.965 5.12 7.407s6.731 4.242 14.265 8.655c7.7 4.508 13.561 7.812 14.5 8.173.686-.255 4.256-2.2 10.95-6.1 5.607-3.268 9.939-5.891 10.608-6.375a7.667 7.667 0 0 0 .152-1.4 4.322 4.322 0 0 0 -.14-1.531c-1.131-.949-16.787-9.684-27.153-15.39l-.112-.062-.069-.108c-.022-.034-2.214-3.486-4.537-6.991-3.939-5.943-5.022-7.163-5.309-7.409-.426.09-2.342.837-10.836 5.853-5.169 3.061-10.018 6.074-10.469 6.405-.661.482-1.477 1.079-1.492 1.401z" fill="#707070" transform="translate(4.599 -.74)"/><path d="m23.978 6.151a.7.7 0 0 1 .261.047c.293.116.84.331 5.709 7.668 2.135 3.217 4.183 6.428 4.58 7.051.909.5 7.172 3.952 13.4 7.438 13.685 7.657 13.87 7.988 14.006 8.23a7.04 7.04 0 0 1 .008 3.987c-.087.169-.135.263-3.581 2.341-2.029 1.224-4.709 2.809-7.351 4.349-2.894 1.687-5.55 3.207-7.481 4.28-3.584 1.993-3.825 1.994-4.018 1.995s-.442 0-5-2.566c-2.551-1.435-6-3.42-9.7-5.59-4.777-2.8-14.006-8.267-14.741-8.964s-3.723-5.2-5.378-7.752c-1.207-1.863-2.31-3.617-3.107-4.94-1.445-2.386-1.463-2.65-1.474-2.825-.058-.866.8-1.5 1.9-2.3.525-.384 5.485-3.46 10.62-6.491 10.098-5.958 11.005-5.958 11.347-5.958zm37.107 30.969c-1.131-.949-16.787-9.684-27.153-15.39a.5.5 0 0 1 -.181-.17c-.022-.034-2.214-3.486-4.537-6.991-3.937-5.94-5.021-7.161-5.308-7.408-.432.092-2.356.844-10.836 5.852-5.17 3.056-10.019 6.068-10.47 6.399-.659.482-1.475 1.078-1.489 1.4a75.556 75.556 0 0 0 4.519 7.473c2.453 3.781 4.655 6.965 5.12 7.407s6.731 4.242 14.265 8.655c7.7 4.508 13.561 7.812 14.5 8.173.686-.255 4.256-2.2 10.95-6.1 5.607-3.268 9.939-5.891 10.608-6.375a7.666 7.666 0 0 0 .152-1.4 4.322 4.322 0 0 0 -.14-1.525z" fill="#132c4c" transform="translate(4.599 -.74)"/><path d="m70.556 56.174a.5.5 0 0 1 -.247-.065c-2.626-1.493-25.687-14.616-26.7-15.487-.865-.746-8.152-12-9.6-14.251a.5.5 0 0 1 .84-.542c3.318 5.139 8.809 13.494 9.418 14.036.733.624 16.271 9.535 26.533 15.375a.5.5 0 0 1 -.248.935z" fill="#123052" transform="translate(-27.021 -7.082)"/><path d="m0 1.616a.3.3 0 0 1 -.3-.3v-1.316a.3.3 0 0 1 .3-.3.3.3 0 0 1 .3.3v1.316a.3.3 0 0 1 -.3.3z" fill="#123052" transform="translate(44.11 49.789)"/><path d="m.25 10.963-.5-.866 18.238-10.53.5.866z" fill="#707070" transform="translate(18.896 21.259)"/><path d="m0 11.03a.5.5 0 0 1 -.433-.25.5.5 0 0 1 .183-.68l18.238-10.533a.5.5 0 0 1 .683.183.5.5 0 0 1 -.183.683l-18.238 10.53a.5.5 0 0 1 -.25.067z" fill="#123052" transform="translate(18.896 21.259)"/><path d="m18.238 0-18.238 10.53" fill="#9ecfd9" transform="translate(45.84 37.498)"/><path d="m0 10.83a.3.3 0 0 1 -.26-.15.3.3 0 0 1 .11-.41l18.238-10.53a.3.3 0 0 1 .41.11.3.3 0 0 1 -.11.41l-18.238 10.529a.3.3 0 0 1 -.15.041z" fill="#123052" transform="translate(45.84 37.498)"/><path d="m66.079 9.583c1.521.81 5.7 6.049 6.057 9.242.116 1.039-12.609 8.5-13.965 8.033-1.516-.518-6.622-8.374-6.032-9.547 1.433-2.853 12.78-8.345 13.94-7.727" fill="#fff" transform="translate(-40.505 -1.68)"/><path d="m58.324 27.378a.959.959 0 0 1 -.314-.048c-.855-.292-2.2-2.008-3.171-3.4a28.83 28.83 0 0 1 -2.885-4.984c-.372-.91-.453-1.485-.262-1.864.916-1.823 5.049-4.186 6.784-5.118 2.632-1.413 6.051-2.933 7.338-2.933a1.044 1.044 0 0 1 .5.107 14.622 14.622 0 0 1 3.638 3.88c.9 1.279 2.455 3.726 2.681 5.747a1 1 0 0 1 -.323.746c-.875.978-4.067 3.017-6.843 4.6-1.714.989-5.841 3.267-7.143 3.267zm-.008-1h.008c.623 0 3.258-1.161 7.088-3.381s5.891-3.765 6.214-4.218a13.456 13.456 0 0 0 -2.491-5.179 14.48 14.48 0 0 0 -3.268-3.562.478.478 0 0 0 -.053 0c-.8 0-3.583 1.053-6.865 2.814-3.371 1.81-5.8 3.6-6.356 4.67a3.829 3.829 0 0 0 .564 1.675 28.488 28.488 0 0 0 1.721 3.01c1.542 2.379 2.948 3.977 3.438 4.171z" fill="#707070" transform="translate(-40.505 -1.68)"/><path d="m65.814 9.035a1.044 1.044 0 0 1 .5.107 14.622 14.622 0 0 1 3.638 3.88c.9 1.279 2.455 3.726 2.681 5.747a1 1 0 0 1 -.323.746c-.875.978-4.067 3.017-6.843 4.6-1.714.98-5.841 3.259-7.143 3.259a.959.959 0 0 1 -.314-.048c-.855-.292-2.2-2.008-3.171-3.4a28.83 28.83 0 0 1 -2.885-4.984c-.372-.91-.453-1.485-.262-1.864.916-1.823 5.049-4.186 6.784-5.118 2.632-1.405 6.051-2.925 7.338-2.925zm.053 1a.478.478 0 0 0 -.053 0c-.8 0-3.583 1.053-6.865 2.814-3.371 1.81-5.8 3.6-6.356 4.67a3.828 3.828 0 0 0 .564 1.675 28.487 28.487 0 0 0 1.721 3.01c1.54 2.382 2.947 3.981 3.437 4.174h.008c.623 0 3.258-1.161 7.088-3.381s5.891-3.765 6.214-4.218a13.456 13.456 0 0 0 -2.49-5.179 14.48 14.48 0 0 0 -3.267-3.563z" fill="#132c4c" transform="translate(-40.505 -1.68)"/><path d="m76.925 29.5a.5.5 0 0 1 -.458-.3 34.856 34.856 0 0 0 -2.438-4.493 26.99 26.99 0 0 0 -2.636-3.467.5.5 0 0 1 .719-.695 27.313 27.313 0 0 1 2.75 3.609 35.205 35.205 0 0 1 2.52 4.643.5.5 0 0 1 -.457.7z" fill="#123052" transform="translate(-58.542 -5.384)"/><path d="m23.469 42.767-1.141-.628-21.989 12.695-.039 9.481 1.142.628.038-9.481z" fill="#d5846b" transform="translate(43.067 -12.311)"/><path d="m22.328 41.839a.3.3 0 0 1 .145.037l1.141.628a.3.3 0 0 1 .005.523l-21.839 12.609-.038 9.309a.3.3 0 0 1 -.445.262l-1.141-.629a.3.3 0 0 1 -.156-.264l.039-9.481a.3.3 0 0 1 .15-.259l21.989-12.695a.3.3 0 0 1 .15-.04zm.53.934-.527-.29-21.692 12.525-.039 9.13.543.3.036-8.976a.3.3 0 0 1 .15-.259z" fill="#133256" transform="translate(43.067 -12.311)"/><path d="m22.289 52.553.039-9.481-21.989 12.695-.039 9.48z" fill="#d5846b" transform="translate(44.209 -12.615)"/><path d="m22.328 42.772a.3.3 0 0 1 .3.3l-.039 9.481a.3.3 0 0 1 -.15.259l-21.989 12.695a.3.3 0 0 1 -.45-.261l.039-9.481a.3.3 0 0 1 .15-.259l21.989-12.694a.3.3 0 0 1 .15-.04zm-.338 9.607.036-8.786-21.388 12.347-.038 8.787z" fill="#133256" transform="translate(44.209 -12.615)"/><path d="m21.6 46.487a.3.3 0 0 1 .3.306l-.034 1.716a.3.3 0 0 1 -.15.254l-19.169 11.065a.3.3 0 0 1 -.45-.266l.034-1.715a.3.3 0 0 1 .15-.254l19.167-11.066a.3.3 0 0 1 .152-.04zm-.33 1.841.02-1.015-18.562 10.716-.02 1.014z" fill="#123052" transform="translate(43.525 -13.827)"/><path d="m23.381 41.317 3.153 1.724s1.412-2.741 3.466-2.435c.9.133 1.922.826.783 3.529-.487 1.158-1.053 3.55-1.672 4.184a1.9 1.9 0 0 1 -2.866-.319c-.278-.416-1.1-1.942-1.1-1.942l-4.445-2.283z" fill="#fff" transform="translate(21.506 -11.804)"/><g fill="#133256"><path d="m29.677 40.282a2.471 2.471 0 0 1 .362.027 1.713 1.713 0 0 1 1.311.823c.387.687.287 1.737-.3 3.12-.161.383-.333.912-.516 1.472a8.855 8.855 0 0 1 -1.218 2.806 2.017 2.017 0 0 1 -1.456.607 2.288 2.288 0 0 1 -1.86-.974c-.248-.371-.89-1.556-1.067-1.884l-4.365-2.237a.3.3 0 0 1 -.066-.488l2.677-2.454a.3.3 0 0 1 .347-.042l2.895 1.583c.405-.675 1.591-2.359 3.256-2.359zm-1.813 8.254a1.407 1.407 0 0 0 1.027-.426 9.316 9.316 0 0 0 1.077-2.572c.186-.572.362-1.113.533-1.519a3.253 3.253 0 0 0 .325-2.593 1.123 1.123 0 0 0 -.876-.524 1.91 1.91 0 0 0 -.274-.02c-1.669 0-2.865 2.274-2.876 2.3a.3.3 0 0 1 -.41.126l-2.965-1.621-2.205 2.013 4.064 2.083a.3.3 0 0 1 .127.125c.008.015.816 1.518 1.083 1.918a1.674 1.674 0 0 0 1.371.71z" transform="translate(21.506 -11.804)"/><path d="m23.08 42.8a3.027 3.027 0 0 1 -2.144-.618 1.113 1.113 0 0 1 -.366-.811.2.2 0 0 1 .4.023.729.729 0 0 0 .257.512c.3.288 1 .6 2.61.458a.2.2 0 0 1 .036.4q-.422.036-.793.036z" transform="translate(28.887 -12.066)"/><path d="m24.749 46.682a3.089 3.089 0 0 1 -1.86-.53 2.375 2.375 0 0 1 -.947-1.56.2.2 0 0 1 .4-.041 2 2 0 0 0 .79 1.282 3.551 3.551 0 0 0 2.86.3.2.2 0 1 1 .084.391 6.331 6.331 0 0 1 -1.327.158z" transform="translate(25.785 -13.104)"/><path d="m23.491 42.372a.2.2 0 0 1 -.2-.2 1.239 1.239 0 0 0 -1.147-1.227.2.2 0 0 1 .037-.4 1.624 1.624 0 0 1 1.51 1.622.2.2 0 0 1 -.2.205z" transform="translate(28.311 -11.858)"/><path d="m24.411 49.819a.2.2 0 1 1 0-.4 4.308 4.308 0 0 0 3.071-1.873.2.2 0 0 1 .333.221 4.632 4.632 0 0 1 -3.404 2.052z" transform="translate(22.639 -14.111)"/><path d="m24.162 44.826c-2.482 0-3.111-1.491-3.139-1.561a.2.2 0 0 1 .371-.15c.03.072.707 1.6 3.568 1.261a.2.2 0 0 1 .048.4 7.112 7.112 0 0 1 -.848.05z" transform="translate(27.46 -12.654)"/><path d="m22.407 51.267a.2.2 0 0 1 -.01-.4 4.116 4.116 0 0 0 3.279-2.319.2.2 0 0 1 .366.162 4.444 4.444 0 0 1 -3.624 2.556z" transform="translate(25.779 -14.428)"/><path d="m27.419 48.017a.2.2 0 0 1 -.11-.033c-1.747-1.149-.857-3.9-.818-4.012a.2.2 0 0 1 .38.126c-.008.026-.832 2.571.658 3.551a.2.2 0 0 1 -.11.367z" transform="translate(21.505 -12.93)"/><path d="m0 2.239a.3.3 0 0 1 -.126-.028.3.3 0 0 1 -.146-.4l.9-1.939a.3.3 0 0 1 .4-.146.3.3 0 0 1 .146.4l-.9 1.939a.3.3 0 0 1 -.274.174z" transform="translate(47.285 31.106)"/><path d="m58.634 30.181s2.55-.379 3.374-1.849l-1.252-1.6z" transform="translate(-34.785 -7.289)"/><path d="m58.634 30.682a.5.5 0 0 1 -.426-.762l2.122-3.444a.5.5 0 0 1 .819-.046l1.252 1.6a.5.5 0 0 1 .043.553c-.933 1.664-3.623 2.082-3.737 2.1a.5.5 0 0 1 -.073-.001zm2.172-3.072-1.093 1.775a3.96 3.96 0 0 0 1.676-1.032z" transform="translate(-34.785 -7.289)"/></g><path d="m46.137 31.47-4.516-3.57-1.5-4.306 1.991-.7 1.482 3.226 2.6 3.834a13.858 13.858 0 0 0 1.9 1.263c.8.3.727 1.293-.531 1.177s-1.431-.923-1.431-.923" fill="#f5c4b1" transform="translate(-8.922 -6.036)"/><path d="m47.765 32.9c-.078 0-.16 0-.242-.012a2.006 2.006 0 0 1 -1.8-1.114l-4.523-3.569-1.711-4.913 2.89-1.022 1.655 3.6 2.534 3.733a12.129 12.129 0 0 0 1.712 1.144 1.173 1.173 0 0 1 .828 1.264c-.082.432-.476.889-1.343.889zm-1.139-1.544c.026.077.2.463.989.536.052 0 .1.007.151.007a.62.62 0 0 0 .351-.075.348.348 0 0 0 -.195-.144 12.938 12.938 0 0 1 -2.029-1.334l-.064-.049-2.671-3.935-1.309-2.849-1.091.386 1.288 3.7 4.554 3.601z" fill="#707070" transform="translate(-8.922 -6.036)"/><path d="m47.765 32.9c-.078 0-.16 0-.242-.012a2.006 2.006 0 0 1 -1.8-1.114l-4.411-3.474a.5.5 0 0 1 -.162-.228l-1.5-4.306a.5.5 0 0 1 .305-.636l1.991-.7a.5.5 0 0 1 .621.263l1.465 3.188 2.534 3.733a12.129 12.129 0 0 0 1.712 1.144 1.173 1.173 0 0 1 .828 1.264c-.08.421-.474.878-1.341.878zm-1.14-1.544c.025.076.193.464.989.537.052 0 .1.007.151.007a.62.62 0 0 0 .351-.075.348.348 0 0 0 -.195-.144 12.938 12.938 0 0 1 -2.029-1.334.5.5 0 0 1 -.109-.115l-2.6-3.834a.5.5 0 0 1 -.041-.072l-1.291-2.811-1.091.386 1.288 3.7 4.4 3.477a.422.422 0 0 1 .177.28z" fill="#133256" transform="translate(-8.922 -6.036)"/><path d="m36.517 48.756s-.021.684.007 1.183c.072 1.289.02 2.508-2.1 2.508l-1.27-2.874s2.672-1.331 3.36-.817" fill="#133256" transform="translate(7.852 -14.431)"/><path d="m36.047 48.338a1.054 1.054 0 0 1 .649.177.3.3 0 0 1 .12.25c0 .007-.02.677.006 1.158a2.863 2.863 0 0 1 -.489 2.2 2.505 2.505 0 0 1 -1.907.622.3.3 0 0 1 -.274-.179l-1.27-2.874a.3.3 0 0 1 .141-.39 9.485 9.485 0 0 1 3.024-.964zm.165.613a.928.928 0 0 0 -.165-.013 7.917 7.917 0 0 0 -2.5.781l1.071 2.425a1.8 1.8 0 0 0 1.278-.43 2.384 2.384 0 0 0 .326-1.758c-.017-.342-.014-.756-.009-1.005z" fill="#133256" transform="translate(7.852 -14.431)"/><path d="m30.858 48.059 3.151 1.841a2.058 2.058 0 0 1 .626-1.293c.518-.336 1.551-1.177 1.968-.55a4.18 4.18 0 0 1 -.288 3.4c-.251.518.321 1.8-.924 2.172a2.053 2.053 0 0 1 -2.1-.988l-5.183-3.141z" fill="#f5c4b1" transform="translate(10.954 -14.167)"/><path d="m36.176 47.53a.78.78 0 0 1 .677.36 4.389 4.389 0 0 1 -.268 3.7 1.545 1.545 0 0 0 -.045.522c0 .591.01 1.483-1.062 1.806a1.494 1.494 0 0 1 -.43.059 2.5 2.5 0 0 1 -1.968-1.11l-5.127-3.107a.3.3 0 0 1 .016-.522l2.75-1.444a.3.3 0 0 1 .291.006l2.79 1.628a1.856 1.856 0 0 1 .674-1.074c.062-.04.135-.091.213-.144a3.1 3.1 0 0 1 1.489-.68zm-1.128 5.847a.909.909 0 0 0 .257-.034c.6-.181.64-.584.635-1.228a1.8 1.8 0 0 1 .105-.788 3.968 3.968 0 0 0 .309-3.106.185.185 0 0 0 -.178-.092 2.85 2.85 0 0 0 -1.152.575c-.081.055-.157.108-.226.152a1.751 1.751 0 0 0 -.491 1.075.3.3 0 0 1 -.449.225l-3.008-1.756-2.132 1.12 4.726 2.864a.3.3 0 0 1 .091.085 1.935 1.935 0 0 0 1.513.908z" fill="#133256" transform="translate(10.954 -14.167)"/><path d="m0 1.155h-.024a.3.3 0 0 1 -.276-.323l.067-.855a.3.3 0 0 1 .324-.277.3.3 0 0 1 .275.324l-.066.855a.3.3 0 0 1 -.3.276z" fill="#133256" transform="translate(44.897 35.731)"/><path d="m36.38 36.266 9.879 6.94s-1.342-.042-1.814.561c-.657.84-1.546 1.289-.276 3.13 0 0-12.588-7.766-13.635-8.847a12.687 12.687 0 0 1 -2.406-4.177l8.217-2.259 1.838 1.609 11.489 6.392a2.476 2.476 0 0 0 -2.3 3.2l-5.867-3.155" fill="#74afe0" transform="translate(-1.889 -8.88)"/><path d="m43.905 47.322c-1.294-.8-12.671-7.831-13.732-8.924a13.068 13.068 0 0 1 -2.522-4.368l-.165-.5 8.984-2.47 2 1.752 12.93 7.194-1.7.108a2.424 2.424 0 0 0 -1.582.793 2.182 2.182 0 0 0 -.257 1.81l.218 1.05-.661-.356.493.346-1.672-.053a2.159 2.159 0 0 0 -1.4.37c-.1.134-.21.254-.313.37a1.675 1.675 0 0 0 -.494.786 2.241 2.241 0 0 0 .548 1.382zm-15.118-13.112a11.457 11.457 0 0 0 2.105 3.49c.672.693 7.189 4.831 12.153 7.912a1.822 1.822 0 0 1 0-.524 2.516 2.516 0 0 1 .734-1.307c.093-.105.189-.214.275-.324a1.828 1.828 0 0 1 .888-.57l-8.846-6.215.575-.818 5 3.513.078-.145 5.043 2.712a2.735 2.735 0 0 1 .542-1.639 2.846 2.846 0 0 1 1.045-.83l-10.486-5.83-1.676-1.467z" fill="#707070" transform="translate(-1.889 -8.88)"/><path d="m44.168 47.4a.5.5 0 0 1 -.262-.074c-1.294-.8-12.671-7.831-13.732-8.924a13.068 13.068 0 0 1 -2.522-4.368.5.5 0 0 1 .342-.639l8.217-2.259a.5.5 0 0 1 .462.106l1.8 1.574 11.443 6.367a.5.5 0 0 1 -.211.936 2.424 2.424 0 0 0 -1.582.793 2.182 2.182 0 0 0 -.257 1.81.5.5 0 0 1 -.726.542l-.409-.22a.5.5 0 0 1 -.488.665 2.159 2.159 0 0 0 -1.4.37c-.1.134-.21.254-.313.37a1.675 1.675 0 0 0 -.494.786 2.241 2.241 0 0 0 .548 1.382.5.5 0 0 1 -.412.784zm-15.381-13.19a11.457 11.457 0 0 0 2.105 3.49c.672.693 7.189 4.831 12.153 7.912a1.822 1.822 0 0 1 0-.524 2.516 2.516 0 0 1 .734-1.307c.093-.105.189-.214.275-.324a1.828 1.828 0 0 1 .888-.57l-8.846-6.215a.5.5 0 0 1 .575-.818l4.727 3.321a.5.5 0 0 1 .351.046l5.043 2.712a2.735 2.735 0 0 1 .542-1.639 2.846 2.846 0 0 1 1.045-.83l-10.439-5.804a.5.5 0 0 1 -.086-.061l-1.636-1.432z" fill="#133256" transform="translate(-1.889 -8.88)"/><path d="m49.54 14.845s3.039 1.2 3.576 2.056c.432.683 2.383 5.643 2.383 5.643l-1.551.223a18.031 18.031 0 0 0 3.823 4.989s-1.933.677-3.678 1.292a10.366 10.366 0 0 0 -3.093 1.905l-1.331-.727.658 1.353a2.924 2.924 0 0 0 -.79 1.963 30.142 30.142 0 0 1 -2.806-4.478c-.985-2.467-3.015-8.959-3.015-8.959z" fill="#74afe0" transform="translate(-20.496 -3.412)"/><path d="m49.541 14.345a.5.5 0 0 1 .184.035c.533.211 3.22 1.313 3.814 2.253.444.7 2.224 5.215 2.426 5.727a.5.5 0 0 1 -.394.678l-.877.126a19.208 19.208 0 0 0 3.414 4.222.5.5 0 0 1 -.172.841s-1.936.673-3.677 1.292a9.957 9.957 0 0 0 -2.939 1.821.5.5 0 0 1 -.52.07.5.5 0 0 1 -.065.461l-.116.159a2.227 2.227 0 0 0 -.58 1.512.5.5 0 0 1 -.9.3 30.029 30.029 0 0 1 -2.869-4.592c-.98-2.456-2.945-8.73-3.028-9a.5.5 0 0 1 .142-.52l5.821-5.26a.5.5 0 0 1 .336-.125zm5.259 7.794c-.775-1.953-1.838-4.544-2.108-4.971a9.814 9.814 0 0 0 -3.051-1.741l-5.351 4.835c.414 1.313 2.061 6.5 2.906 8.618a22.071 22.071 0 0 0 2.077 3.437 3.962 3.962 0 0 1 .473-.789l-.526-1.082a.5.5 0 0 1 .689-.658l1.037.566a10.056 10.056 0 0 1 2.978-1.778l2.916-1.024a16.659 16.659 0 0 1 -3.354-4.59.5.5 0 0 1 .389-.69z" fill="#133256" transform="translate(-20.496 -3.412)"/><path d="m52.749 30.317a.5.5 0 0 1 -.406-.208l-1.853-2.574a.5.5 0 0 1 -.073-.149l-1.92-6.4-.7-1.524a.5.5 0 0 1 .908-.419l.718 1.556a.5.5 0 0 1 .025.066l1.906 6.356 1.8 2.506a.5.5 0 0 1 -.405.792z" fill="#133256" transform="translate(-18.525 -4.848)"/><path d="m49.648 26.506s1.334 3.6 2.448 4.556c.685.585 5.193-1.26 6.756-1.894 1.712-.694 1.033-4-.651-3.746a39.39 39.39 0 0 0 -4.769 1.332l-.952-1.423z" fill="#fff" transform="translate(-26.569 -6.831)"/><path d="m52.669 24.713.967 1.446a35.146 35.146 0 0 1 4.492-1.231 1.729 1.729 0 0 1 .254-.019 2.108 2.108 0 0 1 1.906 1.92 3 3 0 0 1 -.106 1.592 2.011 2.011 0 0 1 -1.141 1.211l-.079.032c-2.45.995-5.127 2.011-6.4 2.011a1.172 1.172 0 0 1 -.789-.233c-1.179-1.007-2.451-4.381-2.593-4.762l-.167-.451zm-.108 5.962c1.251 0 4.844-1.459 6.025-1.938l.079-.032a1.439 1.439 0 0 0 .642-1.685c-.1-.535-.438-1.111-.925-1.111a.725.725 0 0 0 -.107.008 39.17 39.17 0 0 0 -4.68 1.311l-.364.125-.937-1.4-2 .83a13.742 13.742 0 0 0 2.107 3.88.724.724 0 0 0 .159.012z" fill="#707070" transform="translate(-26.569 -6.831)"/><path d="m52.481 24.832a.5.5 0 0 1 .416.222l.739 1.1a35.146 35.146 0 0 1 4.492-1.231 1.729 1.729 0 0 1 .254-.019 2.108 2.108 0 0 1 1.906 1.92 3 3 0 0 1 -.106 1.592 2.011 2.011 0 0 1 -1.141 1.211l-.079.032c-2.45.995-5.127 2.011-6.4 2.011a1.172 1.172 0 0 1 -.789-.233c-1.179-1.007-2.451-4.381-2.593-4.762a.5.5 0 0 1 .278-.636l2.832-1.169a.5.5 0 0 1 .191-.038zm.079 5.843c1.251 0 4.844-1.459 6.025-1.938l.079-.032a1.439 1.439 0 0 0 .642-1.685c-.1-.535-.438-1.111-.925-1.111a.725.725 0 0 0 -.107.008 39.17 39.17 0 0 0 -4.68 1.311.5.5 0 0 1 -.578-.195l-.724-1.082-2 .83a13.742 13.742 0 0 0 2.107 3.88.724.724 0 0 0 .161.014z" fill="#133256" transform="translate(-26.569 -6.831)"/><path d="m58.857 31.517a.5.5 0 0 1 -.377-.172c-.626-.718-2.51-2.631-3.7-2.859a.5.5 0 1 1 .188-.982c1.744.334 4.015 2.894 4.268 3.185a.5.5 0 0 1 -.377.828z" fill="#133256" transform="translate(-29.099 -7.7)"/><path d="m55.965 30.526a.5.5 0 0 1 -.376-.17c-.619-.706-2.488-2.586-3.68-2.815a.5.5 0 1 1 .188-.982c1.743.334 3.993 2.852 4.244 3.137a.5.5 0 0 1 -.376.83z" fill="#133256" transform="translate(-24.273 -7.391)"/><path d="m61.746 32.571a.5.5 0 0 1 -.359-.152c-.608-.628-2.45-2.308-3.652-2.539a.5.5 0 1 1 .188-.982c1.759.337 4.085 2.724 4.183 2.826a.5.5 0 0 1 -.359.848z" fill="#133256" transform="translate(-33.979 -8.154)"/><path d="m53.21 27.963a.5.5 0 0 1 -.418-.773 8.254 8.254 0 0 1 1.625-1.719.5.5 0 1 1 .613.79 7.332 7.332 0 0 0 -1.4 1.475.5.5 0 0 1 -.42.227z" fill="#133256" transform="translate(-23.845 -7.005)"/><path d="m50.382 29.265a.5.5 0 0 1 -.423-.766 12.543 12.543 0 0 1 2-2.275.5.5 0 1 1 .662.749 11.719 11.719 0 0 0 -1.814 2.057.5.5 0 0 1 -.425.235z" fill="#133256" transform="translate(-19.504 -7.244)"/><path d="m0 .861a.5.5 0 0 1 -.478-.352.5.5 0 0 1 .33-.625l1.167-.362a.5.5 0 0 1 .625.33.5.5 0 0 1 -.33.625l-1.166.362a.5.5 0 0 1 -.148.022z" fill="#133256" transform="translate(25.697 19.923)"/><path d="m62.627 14.764-2.786-.164s-3.27 2.3-3.806 3.582c-.569 1.368 1.4 8.043 1.4 8.043a7.2 7.2 0 0 1 3.015-2.969l-1.537-3.586" fill="#74afe0" transform="translate(-33.583 -3.331)"/><path d="m57.432 26.722h-.032a.5.5 0 0 1 -.447-.357c0-.017-.5-1.7-.92-3.539-.785-3.438-.638-4.408-.459-4.838.575-1.381 3.633-3.556 3.98-3.8a.5.5 0 0 1 .317-.09l2.786.166a.5.5 0 0 1 -.06 1l-2.611-.156c-1.23.88-3.154 2.457-3.49 3.265-.069.166-.236.961.511 4.231.206.9.431 1.768.6 2.41a8.6 8.6 0 0 1 2.2-1.963l-1.365-3.185a.5.5 0 0 1 .919-.394l1.537 3.586a.5.5 0 0 1 -.212.631 6.836 6.836 0 0 0 -2.805 2.736.5.5 0 0 1 -.449.297z" fill="#133256" transform="translate(-33.583 -3.331)"/><path d="m59 3.074s.532 5.1-.755 5.778a5.068 5.068 0 0 1 -1.787.43l.065 1.057.468 2.84s-2.541-2.587-3.315-3.56l-.13-1.786a6.1 6.1 0 0 1 -1.475-2.145c-1-3.153.867-3.616 1.867-4.57.84-.8 4.392-.9 5.062 1.957" fill="#f5c4b1" transform="translate(-27.265 1.223)"/><path d="m55.645.129a4.372 4.372 0 0 1 2.274.612 3.472 3.472 0 0 1 1.564 2.219.5.5 0 0 1 .01.062 24.372 24.372 0 0 1 .108 2.7c-.042 2.058-.4 3.193-1.128 3.574a4.825 4.825 0 0 1 -1.49.435l.034.553.464 2.815a.5.5 0 0 1 -.85.432c-.1-.106-2.569-2.617-3.35-3.6a.5.5 0 0 1 -.107-.275l-.116-1.6a6.26 6.26 0 0 1 -1.466-2.219c-.917-2.894.426-3.886 1.407-4.61a6.252 6.252 0 0 0 .591-.472 3.073 3.073 0 0 1 2.055-.626zm2.855 3.029a2.689 2.689 0 0 0 -2.857-2.029 2.263 2.263 0 0 0 -1.366.35 7.077 7.077 0 0 1 -.687.553c-.938.693-1.749 1.291-1.048 3.5a5.626 5.626 0 0 0 1.338 1.93.5.5 0 0 1 .159.33l.119 1.629c.459.554 1.351 1.5 2.075 2.258l-.208-1.263a.5.5 0 0 1 -.006-.051l-.065-1.057a.5.5 0 0 1 .476-.53 4.584 4.584 0 0 0 1.578-.373c.056-.029.544-.352.592-2.709a23.8 23.8 0 0 0 -.1-2.538z" fill="#133256" transform="translate(-27.265 1.223)"/><path d="m57.1 7.55a.409.409 0 1 1 -.448-.373.413.413 0 0 1 .448.373" fill="#142643" transform="translate(-28.296 -.911)"/><path d="m54.009 7.3a.409.409 0 1 1 -.448-.373.413.413 0 0 1 .448.373" fill="#142643" transform="translate(-23.122 -.831)"/><path d="m0 .594a.5.5 0 0 1 -.5-.441.5.5 0 0 1 .441-.553l.795-.1a.5.5 0 0 1 .555.438.5.5 0 0 1 -.437.562l-.8.094a.505.505 0 0 1 -.054 0z" fill="#132640" transform="translate(29.265 8.752)"/><path d="m52.762.8c.716-1.253 5.41.179 5.805.7.547.715-.216 2.181-.216 2.181s-3.429-1.043-4.358-1.424c0 0-.081 1.64-1.075 2.062l.255 1.281c-.435-1.275-2.519.012-1.242 1.44-1.1-.556-1.95-5.619.831-6.242" fill="#142643" transform="translate(-26.323 1.331)"/><path d="m54.183-.2a10.7 10.7 0 0 1 2.848.481 4.865 4.865 0 0 1 1.933.913c.719.94-.076 2.536-.169 2.715a.5.5 0 0 1 -.589.248c-.119-.036-2.5-.761-3.807-1.219a2.769 2.769 0 0 1 -.921 1.628l.186.938a.5.5 0 0 1 -.964.259c-.063-.183-.148-.183-.194-.183a.539.539 0 0 0 -.44.322.777.777 0 0 0 .237.807.5.5 0 0 1 -.6.78 2.834 2.834 0 0 1 -1.073-1.729 6.9 6.9 0 0 1 -.2-2.578 3.048 3.048 0 0 1 2.034-2.821 2.206 2.206 0 0 1 1.719-.561zm4 2.016a9.8 9.8 0 0 0 -4-1.016c-.624 0-.921.134-.987.249a.5.5 0 0 1 -.325.24 2.108 2.108 0 0 0 -1.443 2.011 5.642 5.642 0 0 0 .062 1.708 1.476 1.476 0 0 1 .972-.432l-.033-.168a.5.5 0 0 1 .3-.557c.571-.242.752-1.282.771-1.627a.5.5 0 0 1 .689-.437c.705.289 2.947.988 3.89 1.278a1.681 1.681 0 0 0 .102-1.249z" fill="#132640" transform="translate(-26.323 1.331)"/><path d="m50.727 25.309a.5.5 0 0 1 -.463-.309l-1.01-2.5a.5.5 0 0 1 -.019-.057l-.326-1.2a.5.5 0 0 1 .965-.262l.318 1.174 1 2.469a.5.5 0 0 1 -.463.688z" fill="#133256" transform="translate(-17.275 -5.454)"/></g></g></svg>