<svg xmlns="http://www.w3.org/2000/svg" xmlns:xlink="http://www.w3.org/1999/xlink" width="108" height="108" viewBox="0 0 108 108"><defs><clipPath id="a"><rect width="108" height="108" transform="translate(40.411 31.855)" fill="none"/></clipPath><clipPath id="c"><rect width="12.467" height="7.094" transform="translate(126.054 119.241)" fill="none"/></clipPath><clipPath id="d"><rect width="13.052" height="6.59" transform="translate(94.612 116.184)" fill="none"/></clipPath><clipPath id="e"><rect width="37.483" height="10.852" transform="translate(50.651 112.114)" fill="none"/></clipPath><clipPath id="g"><rect width="108" height="108"/></clipPath></defs><g id="f" clip-path="url(#g)"><rect width="108" height="108" fill="#fff"/><g transform="translate(-40.411 -31.855)"><path d="M132.548,31.855,40.411,86.739v53.116h108v-108Z" fill="#b4b195"/><g clip-path="url(#a)"><path d="M158.287,15.755l.362.339L237.2,89.69,79.643,184.308l-.364-.339L0,110.042Zm76.739,73.7L158.109,17.4,2.187,110.276l77.629,72.388Z" fill="#093b68"/></g><path d="M122.783,52.831,95.873,67.515V60.048l26.91-14.683Z" fill="#81362c"/><path d="M122.783,44.865a.5.5,0,0,1,.5.5v7.466a.5.5,0,0,1-.26.439L96.113,67.954a.5.5,0,0,1-.74-.439V60.048a.5.5,0,0,1,.261-.439l26.91-14.683A.5.5,0,0,1,122.783,44.865Zm-.5,7.669V46.208L96.373,60.345v6.328Z" fill="#063964"/><path d="M95.873,67.515l-6.3-3.839V56.209l6.3,3.84Z" fill="#cb5d46"/><path d="M95.873,68.015a.5.5,0,0,1-.26-.073l-6.3-3.839a.5.5,0,0,1-.24-.427V56.209a.5.5,0,0,1,.76-.427l6.3,3.84a.5.5,0,0,1,.24.427v7.466a.5.5,0,0,1-.5.5Zm-5.8-4.62,5.3,3.23v-6.3l-5.3-3.23Z" fill="#063964"/><g clip-path="url(#a)"><path d="M90.683,52.5a2.968,2.968,0,0,1,.938-.353c.362-.049.763.029,1.067-.178.242-.165.36-.475.6-.64.418-.282,1-.019,1.467-.19a5.228,5.228,0,0,0,.736-.482c.256-.145.64-.161.778.1a2.843,2.843,0,0,1,.27-1.227.947.947,0,0,1,1.043-.508,2.954,2.954,0,0,1,3.454-1.533,1.5,1.5,0,0,1,.985-.541l2.058-.507a1.455,1.455,0,0,1,1.44-1.182.783.783,0,0,1,1.171-.566c.3-.949,1.579-1,2.446-1.467.693-.373,1.407-1.125,2.108-.785-.086-.65.692-1.035,1.318-1.207a2.222,2.222,0,0,1,1.8.027,3.182,3.182,0,0,1,.583-1.234,1.054,1.054,0,0,1,1.22-.321,1.26,1.26,0,0,1,2-.277l1.894-.342a2.45,2.45,0,0,1,1.586.069c.592.316.873,1.091,1.509,1.3.171.058.359.068.529.131a1.818,1.818,0,0,1,.638.491A2.243,2.243,0,0,1,125,42.1a.8.8,0,0,1-.542.973.873.873,0,0,1-.727,1.4c.193.35-.083.778-.373,1.059a5.774,5.774,0,0,1-2.447,1.414,1.547,1.547,0,0,1-1.748,1.033,7.214,7.214,0,0,1-4.643,2.532,1.847,1.847,0,0,1-1.7.819c-.05.541-.614.859-1.105,1.08q-1.006.451-2.01.9a5.139,5.139,0,0,1-3.1,1.586,1.572,1.572,0,0,1-.746.059,1.28,1.28,0,0,1-1.249.825,29.546,29.546,0,0,1-4.331,2.84c-.634.34-1.278.656-1.924.972l-.674.33c-.435.213-.869.426-1.315.612a8.485,8.485,0,0,1-2.674.682,1.507,1.507,0,0,1-.606-.051,5.931,5.931,0,0,1-.541-.3,7.994,7.994,0,0,0-.942-.264.8.8,0,0,1-.605-.692,2.37,2.37,0,0,1-2.747-1.467c-.126-.358.046-.943.4-.817a1.812,1.812,0,0,1-.528-.779.65.65,0,0,1,.363-.788,1.182,1.182,0,0,1-.158-1.4c.258-.423.805-.591,1.1-.942.446-.53.578-.881,1.262-1.23" fill="#359d60"/><path d="M93.478,61.735a1.686,1.686,0,0,1-.567-.088,2.087,2.087,0,0,1-.415-.214,1.343,1.343,0,0,0-.612-.228,3.766,3.766,0,0,1-.453-.117,1.453,1.453,0,0,1-.789-.6q-.093.007-.186.007a2.871,2.871,0,0,1-2.686-1.869,1.359,1.359,0,0,1,.109-1.1,1.643,1.643,0,0,1-.251-.537,1.261,1.261,0,0,1,.183-1.008,1.7,1.7,0,0,1,.08-1.562,2.326,2.326,0,0,1,.763-.706,1.945,1.945,0,0,0,.385-.3c.1-.118.184-.23.266-.337a3.012,3.012,0,0,1,1.151-1.015,3.39,3.39,0,0,1,1.1-.4,3.588,3.588,0,0,1,.394-.025,1.008,1.008,0,0,0,.457-.07,1.054,1.054,0,0,0,.184-.209,1.814,1.814,0,0,1,.418-.431,1.475,1.475,0,0,1,.856-.226c.085,0,.167,0,.246.007s.142.006.208.006a.811.811,0,0,0,.269-.033,1.332,1.332,0,0,0,.306-.2,2.979,2.979,0,0,1,.352-.246,1.313,1.313,0,0,1,.6-.169,2.391,2.391,0,0,1,.264-.771,1.531,1.531,0,0,1,1.2-.792,3.5,3.5,0,0,1,2.94-1.625,3.122,3.122,0,0,1,.621.062,2.391,2.391,0,0,1,1.038-.465l1.774-.437a1.977,1.977,0,0,1,1.467-1.238,1.329,1.329,0,0,1,1.175-.711,1.207,1.207,0,0,1,.121.006,3.093,3.093,0,0,1,1.647-.974,5.416,5.416,0,0,0,.812-.322c.154-.083.315-.191.486-.306a2.86,2.86,0,0,1,1.457-.625,2.309,2.309,0,0,1,1.588-1.1,4.533,4.533,0,0,1,1.175-.2,2.138,2.138,0,0,1,.452.046,2.809,2.809,0,0,1,.52-.907,1.685,1.685,0,0,1,1.225-.576,1.352,1.352,0,0,1,.16.009,1.793,1.793,0,0,1,1.334-.575,1.676,1.676,0,0,1,1.031.34l.509-.092,1.137-.205a5.263,5.263,0,0,1,.927-.1,2.038,2.038,0,0,1,.984.225,2.938,2.938,0,0,1,.824.739,1.628,1.628,0,0,0,.607.531,1.59,1.59,0,0,0,.19.045,2.211,2.211,0,0,1,.355.092,2.275,2.275,0,0,1,.825.614,2.7,2.7,0,0,1,.8,1.265,1.431,1.431,0,0,1-.219,1.1,1.214,1.214,0,0,1-.147.175,1.376,1.376,0,0,1-.076.83,1.424,1.424,0,0,1-.765.8,1.824,1.824,0,0,1-.575.99,6.273,6.273,0,0,1-2.419,1.463,2.073,2.073,0,0,1-1.834,1.157l-.087,0a7.719,7.719,0,0,1-4.569,2.47,2.355,2.355,0,0,1-1.609.852,2.512,2.512,0,0,1-1.27,1.035q-.949.426-1.895.853a5.665,5.665,0,0,1-3.306,1.668,2.958,2.958,0,0,1-.572.1,1.787,1.787,0,0,1-1.368.8,30.114,30.114,0,0,1-4.268,2.781c-.663.356-1.342.688-1.941.981l-.693.339c-.428.209-.87.426-1.323.615a8.881,8.881,0,0,1-2.832.719C93.625,61.732,93.549,61.735,93.478,61.735Zm-2.489-2.311a.5.5,0,0,1,.5.515c0,.033.089.143.267.2a2.976,2.976,0,0,0,.336.084,2.282,2.282,0,0,1,.933.357,1.31,1.31,0,0,0,.219.12.721.721,0,0,0,.234.03c.047,0,.1,0,.171-.007a7.906,7.906,0,0,0,2.515-.644c.426-.178.836-.378,1.269-.591l.693-.339c.591-.289,1.261-.617,1.908-.964a29.1,29.1,0,0,0,4.257-2.792.5.5,0,0,1,.345-.106.777.777,0,0,0,.744-.5.5.5,0,0,1,.592-.314.4.4,0,0,0,.1.01,1.892,1.892,0,0,0,.408-.07,4.718,4.718,0,0,0,2.82-1.4.5.5,0,0,1,.2-.16q1-.453,2.011-.905c.336-.151.785-.385.812-.67a.5.5,0,0,1,.551-.451,1.153,1.153,0,0,0,.122.006,1.354,1.354,0,0,0,1.107-.6.5.5,0,0,1,.361-.224,6.7,6.7,0,0,0,4.317-2.355.5.5,0,0,1,.495-.168.809.809,0,0,0,.179.02,1.068,1.068,0,0,0,.981-.711.5.5,0,0,1,.343-.335,5.262,5.262,0,0,0,2.234-1.291c.245-.237.3-.43.284-.459a.5.5,0,0,1,.538-.731l.023,0c.077,0,.2-.1.265-.261.042-.1.056-.235-.007-.294a.5.5,0,0,1,.276-.856c.02,0,.045-.029.061-.053a.439.439,0,0,0,.062-.319,1.833,1.833,0,0,0-.542-.782,1.48,1.48,0,0,0-.452-.369,1.432,1.432,0,0,0-.2-.048,2.387,2.387,0,0,1-.316-.078,2.425,2.425,0,0,1-1.048-.828,2.139,2.139,0,0,0-.536-.507,1.072,1.072,0,0,0-.513-.107,4.366,4.366,0,0,0-.749.089l-1.137.205-.756.137a.5.5,0,0,1-.471-.169.633.633,0,0,0-.491-.2.749.749,0,0,0-.676.37.5.5,0,0,1-.685.225.275.275,0,0,0-.132-.03.7.7,0,0,0-.48.243,2.832,2.832,0,0,0-.477,1.047.5.5,0,0,1-.756.27.85.85,0,0,0-.483-.123,3.657,3.657,0,0,0-.91.162c-.484.133-.989.4-.954.659a.5.5,0,0,1-.714.515.342.342,0,0,0-.154-.036,2.171,2.171,0,0,0-.929.456c-.183.123-.373.25-.569.356a6.224,6.224,0,0,1-.966.389c-.691.234-1.12.4-1.24.787a.5.5,0,0,1-.772.254.13.13,0,0,0-.078-.021c-.135,0-.292.114-.3.218a.5.5,0,0,1-.522.465.961.961,0,0,0-.924.764.5.5,0,0,1-.374.4l-2.058.507c-.288.071-.578.155-.679.318a.5.5,0,0,1-.58.213,2.069,2.069,0,0,0-.639-.1,2.5,2.5,0,0,0-2.208,1.368.5.5,0,0,1-.609.263c-.132-.044-.347.1-.452.28a2.485,2.485,0,0,0-.206,1.013.5.5,0,0,1-.9.264.316.316,0,0,0-.13.039,2.166,2.166,0,0,0-.233.166,2.1,2.1,0,0,1-.579.351,1.787,1.787,0,0,1-.609.093c-.086,0-.169,0-.249-.007s-.141-.006-.2-.006a.537.537,0,0,0-.295.054,1.065,1.065,0,0,0-.182.208,1.814,1.814,0,0,1-.418.431,1.749,1.749,0,0,1-.994.244,2.811,2.811,0,0,0-.288.017,2.6,2.6,0,0,0-.777.3,2.049,2.049,0,0,0-.809.73c-.085.112-.181.239-.3.377a2.717,2.717,0,0,1-.595.487,1.548,1.548,0,0,0-.463.393.687.687,0,0,0,.086.789.5.5,0,0,1-.2.83.254.254,0,0,0-.029.187,1.467,1.467,0,0,0,.4.554.5.5,0,0,1-.3.845.364.364,0,0,0,.009.155,1.882,1.882,0,0,0,1.743,1.2,1.6,1.6,0,0,0,.405-.051A.5.5,0,0,1,90.989,59.424Z" fill="#093b68"/><path d="M92.193,54.907a.5.5,0,0,1-.464-.687A1.424,1.424,0,0,1,93.3,53.4a1.71,1.71,0,0,1,.771-.445,1.618,1.618,0,0,1,.83-.011,2.132,2.132,0,0,1,1.854-.517.5.5,0,1,1-.219.976,1.13,1.13,0,0,0-1.1.435.5.5,0,0,1-.673.123.544.544,0,0,0-.428-.04.657.657,0,0,0-.418.316.5.5,0,0,1-.748.173.3.3,0,0,0-.249-.02.393.393,0,0,0-.261.2A.5.5,0,0,1,92.193,54.907Z" fill="#063964"/><path d="M102.352,50.028a.5.5,0,0,1-.492-.593,1.464,1.464,0,0,1,.656-.942,1.5,1.5,0,0,1,.626-.231,1.67,1.67,0,0,1,1.072-.8,2.451,2.451,0,0,1,1.107.017,1.864,1.864,0,0,1,1.614-.619.5.5,0,1,1-.142.99.864.864,0,0,0-.826.437.5.5,0,0,1-.584.242,1.863,1.863,0,0,0-.935-.1.6.6,0,0,0-.463.405.5.5,0,0,1-.613.418.424.424,0,0,0-.313.075.477.477,0,0,0-.216.288A.5.5,0,0,1,102.352,50.028Z" fill="#063964"/><path d="M109.571,47.935h-.025a.5.5,0,0,1-.474-.524,1.336,1.336,0,0,1,.659-1.035,2.921,2.921,0,0,1,.889-.33l1.213-.294a.5.5,0,0,1,.236.972l-1.213.294a2.087,2.087,0,0,0-.593.206.385.385,0,0,0-.192.238A.5.5,0,0,1,109.571,47.935Z" fill="#063964"/><path d="M110.727,44.815a.5.5,0,0,1-.352-.855,1.955,1.955,0,0,1,1.862-.506.5.5,0,0,1-.266.964.966.966,0,0,0-.892.252A.5.5,0,0,1,110.727,44.815Z" fill="#063964"/><path d="M113.628,43.832a.5.5,0,0,1-.4-.8,2.147,2.147,0,0,1,1.346-.828.5.5,0,0,1,.167.986,1.153,1.153,0,0,0-.712.44A.5.5,0,0,1,113.628,43.832Z" fill="#063964"/><path d="M117.192,42.226a.5.5,0,0,1-.3-.9,2.966,2.966,0,0,1,2.229-.574.5.5,0,0,1-.16.987,1.949,1.949,0,0,0-1.463.382A.5.5,0,0,1,117.192,42.226Z" fill="#063964"/><path d="M115.291,45.946a.5.5,0,0,1-.482-.634,1.292,1.292,0,0,1,.69-.8,1.317,1.317,0,0,1,.551-.136,1.353,1.353,0,0,1,.653-.441,1.2,1.2,0,0,1,1.12.177.5.5,0,0,1-.624.781.235.235,0,0,0-.193,0,.311.311,0,0,0-.206.174.5.5,0,0,1-.671.323.254.254,0,0,0-.189.026.309.309,0,0,0-.165.172A.5.5,0,0,1,115.291,45.946Z" fill="#063964"/><path d="M94.743,59.083a2.4,2.4,0,0,1-1.33-.515.5.5,0,1,1,.567-.824,1.448,1.448,0,0,0,.783.338.4.4,0,0,0,.292-.174.686.686,0,0,1,.012-.2.5.5,0,0,1,.926-.141,2.164,2.164,0,0,0,.656-.136.462.462,0,0,0,.267-.266.5.5,0,0,1,.87-.232.15.15,0,0,0,.073-.006.634.634,0,0,0,.279-.242l.019-.027a1.05,1.05,0,0,1,.339-.335,1.016,1.016,0,0,1,.368-.116c.019,0,.037-.005.055-.01A.172.172,0,0,0,99,56.062a.5.5,0,1,1,.94-.342,1.082,1.082,0,0,1-.078.883,1.119,1.119,0,0,1-.719.569c-.05.011-.093.018-.128.023L99,57.2l-.024.034-.025.035a1.6,1.6,0,0,1-.778.609,1.146,1.146,0,0,1-.55.043,1.59,1.59,0,0,1-.557.42,3.071,3.071,0,0,1-.988.223,1.261,1.261,0,0,1-.264,0l-.013.016a1.407,1.407,0,0,1-1,.5Z" fill="#063964"/><path d="M102.694,54.239a.5.5,0,0,1-.022-1A1.377,1.377,0,0,0,103,53.2a.5.5,0,0,1,.777-.591.772.772,0,0,1,.267.623.992.992,0,0,1-.4.748,1.623,1.623,0,0,1-.93.259Z" fill="#063964"/><path d="M100.576,51.218a.5.5,0,0,1-.484-.627,1.29,1.29,0,0,1,.678-.811,1.232,1.232,0,0,1,1.006-.065.5.5,0,1,1-.369.929.252.252,0,0,0-.187.028.307.307,0,0,0-.161.173A.5.5,0,0,1,100.576,51.218Z" fill="#063964"/><path d="M94.141,69.836,67.231,84.52V77.053L94.141,62.37Z" fill="#81362c"/><path d="M94.141,61.87a.5.5,0,0,1,.5.5v7.466a.5.5,0,0,1-.26.439L67.47,84.959a.5.5,0,0,1-.74-.439V77.053a.5.5,0,0,1,.261-.439L93.9,61.931A.5.5,0,0,1,94.141,61.87Zm-.5,7.669V63.213L67.731,77.35v6.328Z" fill="#063964"/><path d="M67.23,84.52l-6.3-3.839V73.214l6.3,3.84Z" fill="#cb5d46"/><path d="M67.231,85.02a.5.5,0,0,1-.26-.073l-6.3-3.839a.5.5,0,0,1-.24-.427V73.214a.5.5,0,0,1,.76-.427l6.3,3.84a.5.5,0,0,1,.24.427V84.52a.5.5,0,0,1-.5.5Zm-5.8-4.62,5.3,3.23v-6.3l-5.3-3.23Z" fill="#063964"/><path d="M62.4,69.129a2.814,2.814,0,0,1,.939-.293c.362-.025.763.079,1.067-.109.242-.149.359-.452.6-.6.418-.255.995.045,1.466-.1a4.824,4.824,0,0,0,.737-.434.583.583,0,0,1,.778.148,2.73,2.73,0,0,1,.27-1.209.89.89,0,0,1,1.043-.441,2.79,2.79,0,0,1,3.454-1.312,1.391,1.391,0,0,1,.985-.476l2.058-.375a1.345,1.345,0,0,1,1.44-1.09.745.745,0,0,1,1.171-.491c.3-.93,1.578-.9,2.446-1.309.693-.329,1.406-1.035,2.108-.65-.086-.655.691-.991,1.318-1.122.6-.126.459-.41.764-.731a1.017,1.017,0,0,1,1.221-.243,1.241,1.241,0,0,1,2-.148l1.9-.22a2.482,2.482,0,0,1,1.586.17c.59.354.873,1.148,1.508,1.4.172.068.358.09.529.164a2,2,0,0,1,.639.533,2.445,2.445,0,0,1,.67,1.066c.088.412-.134.906-.541.937.5.517-.046,1.541-.729,1.358.193.363-.083.773-.371,1.035-.686.622.085.736-.828.934a1.446,1.446,0,0,1-1.748.921,6.693,6.693,0,0,1-4.643,2.233,1.728,1.728,0,0,1-1.7.71c-.051.538-.614.819-1.106,1.009l-2.01.775a4.776,4.776,0,0,1-3.1,1.387,1.561,1.561,0,0,1-.747.011,1.187,1.187,0,0,1-1.249.745,27.081,27.081,0,0,1-4.331,2.561c-.633.3-1.278.574-1.923.848l-.675.288c-.434.185-.868.37-1.314.527a8.165,8.165,0,0,1-2.675.51,1.523,1.523,0,0,1-.605-.09c-.194-.082-.355-.23-.541-.331a8.306,8.306,0,0,0-.942-.324.867.867,0,0,1-.606-.731,2.542,2.542,0,0,1-2.747-1.644c-.126-.366.047-.939.4-.791a1.985,1.985,0,0,1-.528-.813.609.609,0,0,1,.363-.764,1.207,1.207,0,0,1-.157-1.413c.258-.406.805-.539,1.1-.872.446-.5.579-.843,1.262-1.148" fill="#3f9c49"/><path d="M65.378,78.55a1.952,1.952,0,0,1-.774-.129,2.25,2.25,0,0,1-.4-.236c-.065-.044-.126-.086-.181-.116a2.113,2.113,0,0,0-.445-.157,3.982,3.982,0,0,1-.446-.143,1.6,1.6,0,0,1-.781-.657,3.07,3.07,0,0,1-2.858-2.019A1.35,1.35,0,0,1,59.6,74a1.753,1.753,0,0,1-.251-.55,1.24,1.24,0,0,1,.14-.94q.02-.032.042-.062a1.69,1.69,0,0,1,.086-1.562,2.184,2.184,0,0,1,.775-.67,1.742,1.742,0,0,0,.375-.268c.1-.113.185-.218.266-.32a2.787,2.787,0,0,1,1.165-.952,3.24,3.24,0,0,1,1.108-.335c.052,0,.107-.005.167-.005.078,0,.154,0,.227.006s.129.005.187.005a.532.532,0,0,0,.257-.041.95.95,0,0,0,.172-.186,1.674,1.674,0,0,1,.432-.416,1.322,1.322,0,0,1,.708-.181,3.8,3.8,0,0,1,.4.028,3.066,3.066,0,0,0,.307.023.582.582,0,0,0,.164-.019,1.182,1.182,0,0,0,.3-.175,2.76,2.76,0,0,1,.358-.226,1.282,1.282,0,0,1,.58-.135,2.259,2.259,0,0,1,.262-.733,1.466,1.466,0,0,1,1.211-.736A3.277,3.277,0,0,1,71.787,64.1a3.2,3.2,0,0,1,.825.107,2.275,2.275,0,0,1,1.043-.4l1.752-.319a1.85,1.85,0,0,1,1.47-1.146,1.266,1.266,0,0,1,1.115-.641,1.239,1.239,0,0,1,.191.015,2.959,2.959,0,0,1,1.654-.865,5.076,5.076,0,0,0,.808-.268c.151-.072.312-.169.482-.272a2.817,2.817,0,0,1,1.409-.538h.04a2.174,2.174,0,0,1,1.608-1,.443.443,0,0,0,.162-.054.853.853,0,0,0,.052-.1,1.614,1.614,0,0,1,1.45-.949,1.363,1.363,0,0,1,.239.021,1.7,1.7,0,0,1,1.224-.491,1.748,1.748,0,0,1,1.146.411l1.653-.192a6.2,6.2,0,0,1,.721-.052,2.237,2.237,0,0,1,1.179.29,3.2,3.2,0,0,1,.81.78,1.853,1.853,0,0,0,.626.585,1.764,1.764,0,0,0,.19.056,2.333,2.333,0,0,1,.353.113,2.431,2.431,0,0,1,.811.657,2.907,2.907,0,0,1,.788,1.3,1.411,1.411,0,0,1-.235,1.11,1.154,1.154,0,0,1-.13.147,1.421,1.421,0,0,1-.846,1.592,1.735,1.735,0,0,1-.583.953c-.161.146-.162.189-.164.243a.759.759,0,0,1-.634.744A1.953,1.953,0,0,1,91.258,67a1.876,1.876,0,0,1-.2-.01,7.193,7.193,0,0,1-4.566,2.173,2.246,2.246,0,0,1-1.6.75,2.362,2.362,0,0,1-1.282.952l-1.886.727A5.485,5.485,0,0,1,78.4,73.052a2.989,2.989,0,0,1-.562.061,1.711,1.711,0,0,1-1.374.713h0a27.647,27.647,0,0,1-4.265,2.5c-.663.313-1.342.6-1.941.856l-.674.288c-.435.185-.883.376-1.344.539a8.57,8.57,0,0,1-2.838.538Zm-2.15-2.588-.019.627c0,.046.11.177.3.253a3.184,3.184,0,0,0,.336.106,2.937,2.937,0,0,1,.658.243,2.988,2.988,0,0,1,.267.17,1.467,1.467,0,0,0,.227.139,1.049,1.049,0,0,0,.385.051H65.4a7.6,7.6,0,0,0,2.51-.481c.432-.152.865-.337,1.284-.515l.676-.288c.591-.251,1.261-.536,1.906-.84a26.639,26.639,0,0,0,4.251-2.514l.162-.117.2.027a.613.613,0,0,0,.081.005A.69.69,0,0,0,77.1,72.4l.165-.446.454.143a.48.48,0,0,0,.145.019,2.233,2.233,0,0,0,.364-.045,4.362,4.362,0,0,0,2.795-1.2l.086-.111,2.141-.826c.518-.2.769-.388.788-.59l.051-.537.531.091a1.188,1.188,0,0,0,.2.017,1.218,1.218,0,0,0,1-.515l.139-.206.248-.013A6.178,6.178,0,0,0,90.5,66.116l.21-.239.305.089a.853.853,0,0,0,.238.033.953.953,0,0,0,.893-.623l.087-.278.284-.062.121-.029a1.3,1.3,0,0,1,.477-.787c.206-.187.294-.377.265-.43l-.54-1.015,1.111.3a.123.123,0,0,0,.032,0c.076,0,.176-.1.227-.216.015-.034.082-.212-.018-.315l-.745-.766,1.066-.081a.081.081,0,0,0,.033-.03.409.409,0,0,0,.057-.3,2.089,2.089,0,0,0-.552-.835,1.662,1.662,0,0,0-.468-.41,1.518,1.518,0,0,0-.205-.063,2.56,2.56,0,0,1-.307-.095,2.629,2.629,0,0,1-1.034-.885,2.393,2.393,0,0,0-.547-.553,1.262,1.262,0,0,0-.665-.148,5.362,5.362,0,0,0-.606.046l-1.895.22-.275.032-.173-.216a.72.72,0,0,0-.571-.249.644.644,0,0,0-.591.306l-.24.485-.465-.278a.317.317,0,0,0-.167-.043.638.638,0,0,0-.435.2.688.688,0,0,0-.118.189,1.136,1.136,0,0,1-.905.687c-.469.1-.958.317-.925.568l.128.978-.865-.474a.384.384,0,0,0-.192-.05,2.152,2.152,0,0,0-.89.392,6.431,6.431,0,0,1-.572.321,5.876,5.876,0,0,1-.972.329c-.678.186-1.1.325-1.212.681l-.22.689-.567-.449a.173.173,0,0,0-.11-.034c-.121,0-.245.083-.251.167l-.035.52-.518-.057a.718.718,0,0,0-.078,0,.851.851,0,0,0-.814.68l-.058.346-2.4.438c-.269.048-.563.112-.654.254l-.221.344-.381-.148a2.178,2.178,0,0,0-.791-.146,2.268,2.268,0,0,0-2.032,1.209l-.2.419-.432-.171a.186.186,0,0,0-.07-.013.478.478,0,0,0-.359.243,2.382,2.382,0,0,0-.2.988l-.12,1.795-.8-1.557h-.013a.273.273,0,0,0-.116.027,1.946,1.946,0,0,0-.231.149,1.971,1.971,0,0,1-.59.318,1.552,1.552,0,0,1-.45.06,3.853,3.853,0,0,1-.412-.028c-.109-.011-.211-.022-.3-.022a.375.375,0,0,0-.187.034.959.959,0,0,0-.171.186,1.675,1.675,0,0,1-.429.414,1.445,1.445,0,0,1-.782.19c-.078,0-.153,0-.226-.006-.108,0-.211-.007-.286,0a2.411,2.411,0,0,0-.77.251,1.816,1.816,0,0,0-.793.664c-.086.107-.183.228-.3.36a2.5,2.5,0,0,1-.605.459,1.387,1.387,0,0,0-.447.348.713.713,0,0,0,.1.8l.6.646-.831.177a.259.259,0,0,0-.013.16,1.587,1.587,0,0,0,.412.6l1.541,1.681-1.849-.775a.263.263,0,0,0,.012.061,2.071,2.071,0,0,0,1.881,1.345,1.53,1.53,0,0,0,.3-.028Z" fill="#093b68"/><path d="M63.515,72.316a.5.5,0,0,1-.5-.448,1.139,1.139,0,0,1,.656-1.115,1.789,1.789,0,0,1,1.04-.135.5.5,0,1,1-.124.992.863.863,0,0,0-.472.039.2.2,0,0,0-.106.115.5.5,0,0,1-.445.549Z" fill="#063964"/><path d="M67.171,70.581a.5.5,0,0,1-.489-.4.957.957,0,0,1,.649-1.071,1.471,1.471,0,0,1,.712-.051,1.19,1.19,0,0,1,.8-.39,2.393,2.393,0,0,1,.75.08.5.5,0,1,1-.214.977,1.621,1.621,0,0,0-.447-.061.22.22,0,0,0-.128.045l-.008.014a.7.7,0,0,1-.37.336l-.01,0a.7.7,0,0,1-.375.011.9.9,0,0,0-.369-.022.5.5,0,0,1-.5.527Z" fill="#063964"/><path d="M70.492,68.232a.5.5,0,0,1-.475-.655,1.224,1.224,0,0,1,1.555-.782,1.305,1.305,0,0,1,1.227-.146.5.5,0,0,1-.383.924.3.3,0,0,0-.333.1.5.5,0,0,1-.746.112.246.246,0,0,0-.214-.049.239.239,0,0,0-.155.148A.5.5,0,0,1,70.492,68.232Z" fill="#063964"/><path d="M87.906,61.127a.5.5,0,0,1-.425-.762,1.2,1.2,0,0,1,.957-.563,1.87,1.87,0,0,1,.446.046l.048.009a1.157,1.157,0,0,1,.718-.4,1.687,1.687,0,0,1,.653.037,1.437,1.437,0,0,1,1.672.167.5.5,0,1,1-.679.734.431.431,0,0,0-.541,0,.5.5,0,0,1-.495.12,1.145,1.145,0,0,0-.455-.073.188.188,0,0,0-.1.043.5.5,0,0,1-.363.359,1.445,1.445,0,0,1-.652-.016,1.1,1.1,0,0,0-.212-.029.2.2,0,0,0-.15.089A.5.5,0,0,1,87.906,61.127Z" fill="#063964"/><path d="M83.549,65.644a.5.5,0,0,1-.416-.777,1.624,1.624,0,0,1,.981-.675l.019-.043a1.024,1.024,0,0,1,.653-.541,1.433,1.433,0,0,1,.724.012,1.378,1.378,0,0,1,1.342-.181.5.5,0,0,1-.385.923.37.37,0,0,0-.411.114.5.5,0,0,1-.561.183,1.2,1.2,0,0,0-.43-.089.5.5,0,0,1-.538.582.631.631,0,0,0-.561.268A.5.5,0,0,1,83.549,65.644Z" fill="#063964"/><path d="M79.56,70.143a2.71,2.71,0,0,1-.359-.029.5.5,0,1,1,.13-.992,1.148,1.148,0,0,0,.308.015.5.5,0,0,1,.987.138.937.937,0,0,1-.691.818l-.007,0A1.341,1.341,0,0,1,79.56,70.143Z" fill="#063964"/><path d="M72.4,73.394a2.952,2.952,0,0,1-.626-.067.5.5,0,1,1,.212-.977,1.949,1.949,0,0,0,1.021-.052.532.532,0,0,0,.172-.085.5.5,0,0,1,.767-.288.187.187,0,0,0,.074-.011,1.34,1.34,0,0,0,.313-.2c.091-.071.365-.283.365-.4a.5.5,0,1,1,1,0,1.6,1.6,0,0,1-.75,1.19,2.134,2.134,0,0,1-.6.36,1.19,1.19,0,0,1-.466.065,1.451,1.451,0,0,1-.563.325A2.95,2.95,0,0,1,72.4,73.394Z" fill="#063964"/><path d="M178.827,92.558l-42.145,21.887V53.78l42.145-21.887Z" fill="#c36d5c"/><path d="M136.682,114.945a.5.5,0,0,1-.5-.5V53.78a.5.5,0,0,1,.27-.444L178.6,31.449a.5.5,0,0,1,.73.444V92.558a.5.5,0,0,1-.27.444l-42.145,21.887A.5.5,0,0,1,136.682,114.945Zm.5-60.861v59.538l41.145-21.368V32.716Z" fill="#093b68"/><path d="M103.683,91.921l32.957,22.523v-60.3L103.683,32.284Z" fill="#e8a197"/><path d="M136.64,114.944a.5.5,0,0,1-.282-.087L103.4,92.334a.5.5,0,0,1-.218-.413V32.284a.5.5,0,0,1,.776-.417L136.916,53.73a.5.5,0,0,1,.224.417v60.3a.5.5,0,0,1-.5.5ZM104.183,91.657,136.14,113.5V54.415l-31.957-21.2Z" fill="#093b68"/><path d="M103.724,37.9l32.958,21.437V53.779l-32.958-21.5Z" fill="#e8c9c3"/><path d="M103.724,31.784a.5.5,0,0,1,.273.081l32.958,21.5a.5.5,0,0,1,.227.419v5.556a.5.5,0,0,1-.773.419L103.452,38.317a.5.5,0,0,1-.227-.419V32.284a.5.5,0,0,1,.5-.5ZM136.182,54.05,104.224,33.207v4.42l31.958,20.787Z" fill="#063964"/><path d="M136.682,53.779l-32.958-21.5L117.238,15.8l23.527,15.5Z" fill="#003f6f"/><path d="M136.682,54.279a.5.5,0,0,1-.273-.081L103.451,32.7a.5.5,0,0,1-.114-.736l13.514-16.485a.5.5,0,0,1,.662-.1l23.527,15.5a.5.5,0,0,1,.217.507l-4.083,22.478a.5.5,0,0,1-.492.411Zm-32.218-22.11,31.86,20.78,3.889-21.412L117.339,16.464Z" fill="#063964"/><path d="M136.682,53.779l42.145-21.887L164.876,20.184,140.765,31.3Z" fill="#0e2f54"/><path d="M136.682,54.279a.5.5,0,0,1-.492-.589l4.083-22.478a.5.5,0,0,1,.283-.365L164.667,19.73a.5.5,0,0,1,.531.071L179.148,31.51a.5.5,0,0,1-.091.827L136.912,54.223A.5.5,0,0,1,136.682,54.279Zm4.528-22.633-3.854,21.219,40.576-21.072L164.8,20.771Z" fill="#063964"/><path d="M129.569,46.867l6.57-11.7-6.694,2.562Z" fill="#bb6a5a"/><path d="M129.569,47.367a.5.5,0,0,1-.5-.493l-.124-9.135a.5.5,0,0,1,.321-.474L135.96,34.7a.5.5,0,0,1,.615.712L130,47.111A.5.5,0,0,1,129.569,47.367Zm.381-9.293L130.044,45l4.982-8.869Z" fill="#063964"/><path d="M129.125,36.335l.072-1.3-2.314-3.831-2.148,1.339-1.116.255V42.818l5.95,4.049V36.62Z" fill="#e09c92"/><path d="M126.883,30.707a.5.5,0,0,1,.428.241l2.314,3.831a.5.5,0,0,1,.071.286l-.056,1.006.2.128a.5.5,0,0,1,.23.421V46.867a.5.5,0,0,1-.781.413l-5.95-4.049a.5.5,0,0,1-.219-.413V32.8a.5.5,0,0,1,.389-.487l1.034-.236,2.077-1.295A.5.5,0,0,1,126.883,30.707Zm1.806,4.457L126.717,31.9,125,32.97a.5.5,0,0,1-.153.063l-.727.166v9.354l4.95,3.369V36.893l-.214-.137a.5.5,0,0,1-.229-.448Z" fill="#063964"/><path d="M136.758,33.371l-7,3.751-3.43-6.924,7-3.75Z" fill="#0e2f54"/><path d="M129.755,37.622a.5.5,0,0,1-.448-.278l-3.43-6.924a.5.5,0,0,1,.212-.663l7-3.75a.5.5,0,0,1,.684.219l3.429,6.923a.5.5,0,0,1-.212.663l-7,3.751A.5.5,0,0,1,129.755,37.622Zm-2.767-7.212,2.986,6.027,6.121-3.279-2.985-6.027Z" fill="#063964"/><path d="M129.755,38.691l7-3.751V33.37l-7,3.751Z" fill="#707070"/><path d="M129.755,39.191a.5.5,0,0,1-.5-.5v-1.57a.5.5,0,0,1,.264-.441l7-3.751a.5.5,0,0,1,.736.441v1.57a.5.5,0,0,1-.264.441l-7,3.751A.5.5,0,0,1,129.755,39.191Zm.5-1.771v.436l6-3.215v-.436Z" fill="#063964"/><path d="M126.326,30.2l-3.367,2.582v1.57l3.367-2.582,3.429,6.923v-1.57Z" fill="#707070"/><path d="M126.326,29.7a.5.5,0,0,1,.448.278L130.2,36.9a.5.5,0,0,1,.052.222v1.57a.5.5,0,0,1-.948.222l-3.159-6.378-2.885,2.212a.5.5,0,0,1-.8-.4V32.78a.5.5,0,0,1,.2-.4l3.367-2.582A.5.5,0,0,1,126.326,29.7Zm-.028,1.571-.151-.3-2.689,2.062v.31l2.563-1.965A.5.5,0,0,1,126.3,31.269Z" fill="#063964"/><path d="M128.222,44.647l-3.381-2.193v-7.76l3.381,2.193Z" fill="#1e8da4"/><path d="M128.222,45.147a.5.5,0,0,1-.272-.081l-3.381-2.193a.5.5,0,0,1-.228-.419v-7.76a.5.5,0,0,1,.772-.419l3.381,2.193a.5.5,0,0,1,.228.419v7.76a.5.5,0,0,1-.5.5Zm-2.881-2.965,2.381,1.544V37.159l-2.381-1.544Z" fill="#063964"/><line x2="3.015" y2="2.034" transform="translate(124.917 38.686)" fill="#175f95"/><path d="M3.015,2.534a.5.5,0,0,1-.279-.086L-.28.414A.5.5,0,0,1-.414-.28.5.5,0,0,1,.28-.414L3.295,1.62a.5.5,0,0,1-.28.915Z" transform="translate(124.917 38.686)" fill="#063964"/><path d="M116.736,38.538l6.57-11.7L116.612,29.4Z" fill="#bb6a5a"/><path d="M116.736,39.038a.5.5,0,0,1-.5-.493l-.124-9.135a.5.5,0,0,1,.321-.474l6.694-2.562a.5.5,0,0,1,.615.712l-6.57,11.7A.5.5,0,0,1,116.736,39.038Zm.381-9.293.094,6.927,4.982-8.869Z" fill="#063964"/><path d="M116.292,28.005l.072-1.3-2.314-3.831L111.9,24.217l-1.116.255V34.488l5.95,4.049V28.29Z" fill="#e09c92"/><path d="M114.05,22.378a.5.5,0,0,1,.428.241l2.314,3.831a.5.5,0,0,1,.071.286l-.056,1.006.2.128a.5.5,0,0,1,.23.421V38.538a.5.5,0,0,1-.781.413L110.5,34.9a.5.5,0,0,1-.219-.413V24.471a.5.5,0,0,1,.389-.487l1.034-.236,2.077-1.295A.5.5,0,0,1,114.05,22.378Zm1.806,4.457-1.972-3.265-1.718,1.071a.5.5,0,0,1-.153.063l-.727.166v9.354l4.95,3.368V28.564l-.214-.137a.5.5,0,0,1-.229-.448Z" fill="#063964"/><path d="M115.389,36.318l-3.381-2.193v-7.76l3.381,2.193Z" fill="#1e8da4"/><path d="M115.389,36.818a.5.5,0,0,1-.272-.081l-3.381-2.193a.5.5,0,0,1-.228-.419v-7.76a.5.5,0,0,1,.772-.419l3.381,2.193a.5.5,0,0,1,.228.419v7.76a.5.5,0,0,1-.5.5Zm-2.881-2.965,2.381,1.544V28.83l-2.381-1.544Z" fill="#063964"/><line x2="3.015" y2="2.034" transform="translate(112.084 30.357)" fill="#175f95"/><path d="M3.015,2.534a.5.5,0,0,1-.279-.086L-.28.414A.5.5,0,0,1-.414-.28.5.5,0,0,1,.28-.414L3.295,1.62a.5.5,0,0,1-.28.915Z" transform="translate(112.084 30.357)" fill="#063964"/><path d="M0,1.3a.5.5,0,0,1-.439-.26A.5.5,0,0,1-.24.365l1.464-.8a.5.5,0,0,1,.679.2.5.5,0,0,1-.2.679l-1.464.8A.5.5,0,0,1,0,1.3Z" transform="translate(126.085 37.319)" fill="#fff"/><path d="M0,1.3a.5.5,0,0,1-.439-.26A.5.5,0,0,1-.24.365l1.464-.8a.5.5,0,0,1,.679.2.5.5,0,0,1-.2.679l-1.464.8A.5.5,0,0,1,0,1.3Z" transform="translate(112.863 32.877)" fill="#fff"/><path d="M128.151,74.852l-5.283-3.437V59.29l5.283,3.437Z" fill="#dca32f"/><path d="M128.151,75.352a.5.5,0,0,1-.273-.081L122.6,71.834a.5.5,0,0,1-.227-.419V59.29a.5.5,0,0,1,.773-.419l5.283,3.437a.5.5,0,0,1,.227.419V74.852a.5.5,0,0,1-.5.5Zm-4.783-4.208,4.283,2.786V63l-4.283-2.786Z" fill="#063964"/><path d="M126.932,72.853l-3.081-2v-9.51l3.081,2.005Z" fill="#1e8da4"/><path d="M126.932,73.353a.5.5,0,0,1-.273-.081l-3.081-2a.5.5,0,0,1-.227-.419v-9.51a.5.5,0,0,1,.773-.419l3.081,2.005a.5.5,0,0,1,.227.419v9.509a.5.5,0,0,1-.5.5Zm-2.581-2.775,2.081,1.354V63.615l-2.081-1.354Z" fill="#063964"/><path d="M0,1.206A.5.5,0,0,1-.446.932.5.5,0,0,1-.226.26l1.39-.706a.5.5,0,0,1,.672.219.5.5,0,0,1-.219.672l-1.39.706A.5.5,0,0,1,0,1.206Z" transform="translate(124.745 64.95)" fill="#fff"/><path d="M128.151,108.356l-5.283-3.668V83.826l5.283,3.668Z" fill="#dca32f"/><path d="M128.151,108.856a.5.5,0,0,1-.285-.089l-5.283-3.668a.5.5,0,0,1-.215-.411V83.826a.5.5,0,0,1,.785-.411l5.283,3.668a.5.5,0,0,1,.215.411v20.862a.5.5,0,0,1-.5.5Zm-4.783-4.43,4.283,2.974V87.756l-4.283-2.974Z" fill="#063964"/><path d="M126.932,106.3l-3.081-2.139v-9.51l3.081,2.14Z" fill="#1e8da4"/><path d="M126.932,106.8a.5.5,0,0,1-.285-.089l-3.081-2.139a.5.5,0,0,1-.215-.411v-9.51a.5.5,0,0,1,.785-.411l3.081,2.14a.5.5,0,0,1,.215.411V106.3a.5.5,0,0,1-.5.5Zm-2.581-2.9,2.081,1.445V97.057l-2.081-1.445Z" fill="#063964"/><path d="M126.932,95.332l-3.081-2.139v-7.11l3.081,2.14Z" fill="#1e8da4"/><path d="M126.932,95.832a.5.5,0,0,1-.285-.089L123.566,93.6a.5.5,0,0,1-.215-.411v-7.11a.5.5,0,0,1,.785-.411l3.081,2.14a.5.5,0,0,1,.215.411v7.109a.5.5,0,0,1-.5.5Zm-2.581-2.9,2.081,1.445V88.484l-2.081-1.445Z" fill="#063964"/><path d="M0,1.206A.5.5,0,0,1-.446.932.5.5,0,0,1-.226.26l1.39-.706a.5.5,0,0,1,.672.219.5.5,0,0,1-.219.672l-1.39.706A.5.5,0,0,1,0,1.206Z" transform="translate(124.745 98.056)" fill="#fff"/><path d="M122.868,104.688l-5.283-3.668V80.158l5.283,3.668Z" fill="#dca32f"/><path d="M122.868,105.188a.5.5,0,0,1-.285-.089l-5.283-3.668a.5.5,0,0,1-.215-.411V80.158a.5.5,0,0,1,.785-.411l5.283,3.668a.5.5,0,0,1,.215.411v20.862a.5.5,0,0,1-.5.5Zm-4.783-4.43,4.283,2.974V84.087l-4.283-2.974Z" fill="#063964"/><path d="M121.649,102.636l-3.081-2.139v-9.51l3.081,2.14Z" fill="#1e8da4"/><path d="M121.649,103.136a.5.5,0,0,1-.285-.089l-3.081-2.139a.5.5,0,0,1-.215-.411v-9.51a.5.5,0,0,1,.785-.411l3.081,2.14a.5.5,0,0,1,.215.411v9.509a.5.5,0,0,1-.5.5Zm-2.581-2.9,2.081,1.445V93.389l-2.081-1.445Z" fill="#063964"/><path d="M121.649,91.663l-3.081-2.139v-7.11l3.081,2.14Z" fill="#1e8da4"/><path d="M121.649,92.164a.5.5,0,0,1-.285-.089l-3.081-2.139a.5.5,0,0,1-.215-.411v-7.11a.5.5,0,0,1,.785-.411l3.081,2.14a.5.5,0,0,1,.215.411v7.109a.5.5,0,0,1-.5.5Zm-2.581-2.9,2.081,1.445V84.816l-2.081-1.445Z" fill="#063964"/><path d="M0,1.206A.5.5,0,0,1-.446.932.5.5,0,0,1-.226.26l1.39-.706a.5.5,0,0,1,.672.219.5.5,0,0,1-.219.672l-1.39.706A.5.5,0,0,1,0,1.206Z" transform="translate(119.462 94.387)" fill="#fff"/><path d="M115.221,66.673l-5.283-3.437V51.111l5.283,3.437Z" fill="#dca32f"/><path d="M115.221,67.173a.5.5,0,0,1-.273-.081l-5.283-3.437a.5.5,0,0,1-.227-.419V51.111a.5.5,0,0,1,.773-.419l5.283,3.437a.5.5,0,0,1,.227.419V66.673a.5.5,0,0,1-.5.5Zm-4.783-4.208,4.283,2.786V54.819l-4.283-2.786Z" fill="#063964"/><path d="M114,64.674l-3.081-2V53.16L114,55.165Z" fill="#1e8da4"/><path d="M114,65.174a.5.5,0,0,1-.273-.081l-3.081-2a.5.5,0,0,1-.227-.419V53.16a.5.5,0,0,1,.773-.419l3.081,2.005a.5.5,0,0,1,.227.419v9.509a.5.5,0,0,1-.5.5ZM111.421,62.4l2.081,1.354V55.436l-2.081-1.354Z" fill="#063964"/><path d="M0,1.206A.5.5,0,0,1-.446.932.5.5,0,0,1-.226.26l1.39-.706a.5.5,0,0,1,.672.219.5.5,0,0,1-.219.672l-1.39.706A.5.5,0,0,1,0,1.206Z" transform="translate(111.815 56.205)" fill="#fff"/><path d="M143.77,77.112l5.283-2.809V62.178l-5.283,2.809Z" fill="#dca32f"/><path d="M143.77,77.612a.5.5,0,0,1-.5-.5V64.987a.5.5,0,0,1,.265-.441l5.283-2.809a.5.5,0,0,1,.735.441V74.3a.5.5,0,0,1-.265.441L144,77.554A.5.5,0,0,1,143.77,77.612Zm.5-12.325V76.28L148.553,74V63.01Z" fill="#063964"/><path d="M144.989,75.259l3.081-1.638v-9.51l-3.081,1.639Z" fill="#175f95"/><path d="M144.989,75.759a.5.5,0,0,1-.5-.5V65.75a.5.5,0,0,1,.265-.441l3.081-1.639a.5.5,0,0,1,.735.441v9.51a.5.5,0,0,1-.265.441L145.224,75.7A.5.5,0,0,1,144.989,75.759Zm.5-9.709v8.377l2.081-1.106V64.943Z" fill="#063964"/><path d="M1.39,1.432a.5.5,0,0,1-.278-.085L-.278.415A.5.5,0,0,1-.415-.278.5.5,0,0,1,.278-.415l1.39.932a.5.5,0,0,1-.279.915Z" transform="translate(145.786 67.139)" fill="#80a7c5"/><path d="M143.77,102.544l5.283-2.809V87.61l-5.283,2.809Z" fill="#dca32f"/><path d="M143.77,103.044a.5.5,0,0,1-.5-.5V90.419a.5.5,0,0,1,.265-.441l5.283-2.809a.5.5,0,0,1,.735.441V99.735a.5.5,0,0,1-.265.441L144,102.985A.5.5,0,0,1,143.77,103.044Zm.5-12.325v10.992l4.283-2.277V88.442Z" fill="#063964"/><path d="M144.989,100.69l3.081-1.638v-9.51l-3.081,1.639Z" fill="#175f95"/><path d="M144.989,101.19a.5.5,0,0,1-.5-.5V91.181a.5.5,0,0,1,.265-.441l3.081-1.639a.5.5,0,0,1,.735.441v9.51a.5.5,0,0,1-.265.441l-3.081,1.638A.5.5,0,0,1,144.989,101.19Zm.5-9.709v8.377l2.081-1.106V90.374Z" fill="#063964"/><path d="M1.39,1.432a.5.5,0,0,1-.278-.085L-.278.415A.5.5,0,0,1-.415-.278.5.5,0,0,1,.278-.415l1.39.932a.5.5,0,0,1-.279.915Z" transform="translate(145.786 92.571)" fill="#80a7c5"/><path d="M130.812,64.6,96.78,43.318l7.236-5.066L136.7,58.97Z" fill="#003f6f"/><path d="M130.812,65.1a.5.5,0,0,1-.265-.076L96.515,43.742a.5.5,0,0,1-.022-.834l7.236-5.066a.5.5,0,0,1,.554-.013l32.684,20.718a.5.5,0,0,1,.078.784l-5.888,5.629A.5.5,0,0,1,130.812,65.1Zm-33.126-21.8,33.062,20.674,5.145-4.919-31.863-20.2Z" fill="#063964"/><path d="M143.509,56.2l-3.583,1.862a.366.366,0,0,1-.528-.329V56.25a.459.459,0,0,1,.246-.41l3.654-1.9a.344.344,0,0,1,.5.308v1.48a.529.529,0,0,1-.285.473" fill="#975348"/><path d="M143.262,63.747l-3.583,1.862a.366.366,0,0,1-.528-.329V63.795a.458.458,0,0,1,.247-.41l3.653-1.9a.344.344,0,0,1,.5.308v1.48a.529.529,0,0,1-.285.473" fill="#b08273"/><path d="M142.484,100.375l-3.583,1.862a.366.366,0,0,1-.528-.329v-1.485a.458.458,0,0,1,.247-.41l3.653-1.9a.344.344,0,0,1,.5.308V99.9a.529.529,0,0,1-.285.473" fill="#b08273"/><path d="M143.067,88.921l-3.583,1.862a.366.366,0,0,1-.528-.329V88.969a.459.459,0,0,1,.246-.41l3.654-1.9a.344.344,0,0,1,.5.308v1.48a.529.529,0,0,1-.285.473" fill="#975348"/><path d="M143.067,80.852l-3.583,1.862a.366.366,0,0,1-.528-.329V80.9a.459.459,0,0,1,.246-.41l3.654-1.9a.344.344,0,0,1,.5.308v1.48a.529.529,0,0,1-.285.473" fill="#975348"/><path d="M151.72,79.32l-3.583,1.862a.366.366,0,0,1-.528-.329V79.368a.459.459,0,0,1,.246-.41l3.654-1.9a.344.344,0,0,1,.5.308v1.48a.529.529,0,0,1-.285.473" fill="#b08273"/><path d="M151.72,102.554l-3.583,1.862a.366.366,0,0,1-.528-.329V102.6a.459.459,0,0,1,.246-.41l3.654-1.9a.344.344,0,0,1,.5.308v1.48a.529.529,0,0,1-.285.473" fill="#b08273"/><path d="M110.542,81.406l-5.283-3.668V88.684l10.566,7.441V85.074Z" fill="#dca32f"/><path d="M105.259,77.238a.5.5,0,0,1,.285.089l10.566,7.336a.5.5,0,0,1,.215.411V96.125a.5.5,0,0,1-.788.409l-10.566-7.441a.5.5,0,0,1-.212-.409V77.738a.5.5,0,0,1,.5-.5Zm10.066,8.1-9.566-6.642v9.731l9.566,6.737Z" fill="#063964"/><path d="M106.389,80v8.208l8.236,5.723V85.619Z" fill="#1e8da4"/><path d="M106.389,79.5a.5.5,0,0,1,.282.087l8.236,5.619a.5.5,0,0,1,.218.413v8.312a.5.5,0,0,1-.785.411L106.1,88.619a.5.5,0,0,1-.215-.411V80a.5.5,0,0,1,.5-.5Zm7.736,6.383-7.236-4.937v7l7.236,5.028Z" fill="#063964"/><path d="M0,1.789a.5.5,0,0,1-.416-.223A.5.5,0,0,1-.277.873L1.655-.416a.5.5,0,0,1,.693.138A.5.5,0,0,1,2.21.416L.278,1.7A.5.5,0,0,1,0,1.789Z" transform="translate(111.709 84.568)" fill="#fff"/><path d="M0,1.789a.5.5,0,0,1-.416-.223A.5.5,0,0,1-.277.873L1.655-.416a.5.5,0,0,1,.693.138A.5.5,0,0,1,2.21.416L.278,1.7A.5.5,0,0,1,0,1.789Z" transform="translate(109.448 84.754)" fill="#fff"/><path d="M103.919,67.21l27.692,17.208s-2.616,4.373-10.442,8.093L93.081,74.728s7.022-2.8,10.838-7.518" fill="#f1eed9"/><path d="M103.919,66.71a.5.5,0,0,1,.264.075l27.692,17.208a.5.5,0,0,1,.165.681,14.825,14.825,0,0,1-2.37,2.756,31.624,31.624,0,0,1-8.286,5.531.5.5,0,0,1-.482-.029L92.814,75.15a.5.5,0,0,1,.082-.887c.069-.028,6.947-2.808,10.634-7.368A.5.5,0,0,1,103.919,66.71ZM130.9,84.566l-26.878-16.7a25.578,25.578,0,0,1-6.705,5.307c-1.3.753-2.438,1.3-3.173,1.639L121.2,91.94a30.5,30.5,0,0,0,7.74-5.2A16.924,16.924,0,0,0,130.9,84.566Z" fill="#093b68"/><path d="M121.169,95.282,93.081,77.5V74.727l28.088,17.784Z" fill="#c4b89b"/><path d="M121.169,95.782a.5.5,0,0,1-.267-.078L92.814,77.921a.5.5,0,0,1-.233-.422V74.727a.5.5,0,0,1,.767-.422l28.088,17.784a.5.5,0,0,1,.233.422v2.771a.5.5,0,0,1-.5.5ZM93.581,77.223l27.088,17.151V92.787L93.581,75.636Z" fill="#093b68"/><path d="M130.241,83.908,105.106,67.493V62.718l25.135,15.648Z" fill="#0c2e51"/><path d="M108.812,68.529c-.028.392-.231.466-.612.223l-.613-.392a1.383,1.383,0,0,1-.431-.456,1.073,1.073,0,0,1-.179-.547l0-1.537a.3.3,0,0,1,.178-.317.486.486,0,0,1,.434.094l.613.392a1.22,1.22,0,0,1,.61,1l-.307-.2a.644.644,0,0,0-.3-.5l-.307-.2a.246.246,0,0,0-.216-.048.146.146,0,0,0-.091.157l0,1.537a.54.54,0,0,0,.089.272.694.694,0,0,0,.217.229l.307.2q.27.172.3-.111Z" fill="#fff"/><path d="M109.669,66.925l.613.392a1.383,1.383,0,0,1,.431.456,1.079,1.079,0,0,1,.179.547l0,1.537a.3.3,0,0,1-.181.316.49.49,0,0,1-.431-.093l-.613-.392a1.383,1.383,0,0,1-.431-.456,1.076,1.076,0,0,1-.179-.547l0-1.537a.3.3,0,0,1,.181-.318.5.5,0,0,1,.431.1m0,.613,0,1.537a.524.524,0,0,0,.089.271.7.7,0,0,0,.217.23.249.249,0,0,0,.217.048.148.148,0,0,0,.09-.157l0-1.537a.523.523,0,0,0-.091-.273.686.686,0,0,0-.215-.228.247.247,0,0,0-.217-.048.146.146,0,0,0-.09.157" fill="#fff"/><path d="M111.133,70.625l0-2.763,1.527.976v.308l-.917-.586v.921l.613.392v.305l-.614-.392v1.229Z" fill="#fff"/><path d="M112.907,71.759l0-2.763,1.527.976v.308l-.917-.586v.921l.613.392v.305l-.613-.392v1.229Z" fill="#fff"/><path d="M114.681,72.893l0-2.763,1.527.976v.308l-.917-.586v.921l.613.392v.305l-.614-.392v.921l.917.586v.308Z" fill="#fff"/><path d="M116.456,74.026l0-2.763,1.527.976v.308l-.917-.586v.921l.613.392v.305l-.613-.392,0,.921.917.586V75Z" fill="#fff"/><path d="M118.759,75.5l0-2.763.61.39v1.229l.613.392,0-1.229.61.39,0,2.763-.611-.39,0-1.229-.614-.392v1.229Z" fill="#fff"/><path d="M121.451,74.452l.613.392a1.383,1.383,0,0,1,.431.456,1.079,1.079,0,0,1,.179.547l0,1.537a.3.3,0,0,1-.18.316.488.488,0,0,1-.432-.093l-.613-.392a1.383,1.383,0,0,1-.431-.456,1.073,1.073,0,0,1-.179-.547l0-1.537a.3.3,0,0,1,.181-.318.5.5,0,0,1,.431.1m0,.613,0,1.537a.524.524,0,0,0,.089.271.687.687,0,0,0,.217.23.245.245,0,0,0,.217.048.148.148,0,0,0,.09-.157l0-1.537a.523.523,0,0,0-.091-.273.686.686,0,0,0-.215-.228.246.246,0,0,0-.216-.048.146.146,0,0,0-.091.157" fill="#fff"/><path d="M124.143,76.172l.61.39,0,2.15a.3.3,0,0,1-.181.316.487.487,0,0,1-.431-.093l-.613-.392a1.377,1.377,0,0,1-.43-.455,1.072,1.072,0,0,1-.18-.548l0-2.15.611.39,0,2.15a.523.523,0,0,0,.09.272.681.681,0,0,0,.216.229.243.243,0,0,0,.217.048.148.148,0,0,0,.09-.157Z" fill="#fff"/><path d="M126.524,78.307l-.3-.194a.637.637,0,0,0-.289-.493.327.327,0,0,0-.242-.077c-.054.017-.082.077-.082.18a.573.573,0,0,0,.09.273l.647,1.145a1.157,1.157,0,0,1,.178.547v.156a.3.3,0,0,1-.18.317.488.488,0,0,1-.431-.094l-.307-.2a1.405,1.405,0,0,1-.457-.446,1.053,1.053,0,0,1-.153-.557l.307.2q0,.03,0,.048a.415.415,0,0,0,.1.252.821.821,0,0,0,.211.2c.109.07.187.093.235.071s.071-.084.072-.184a.572.572,0,0,0-.09-.274l-.647-1.142a1.153,1.153,0,0,1-.179-.548v-.155a.3.3,0,0,1,.18-.317.489.489,0,0,1,.432.094l.307.2a1.224,1.224,0,0,1,.609,1" fill="#fff"/><path d="M126.767,80.614l0-2.763,1.527.976v.308l-.917-.586v.921l.613.392v.305l-.614-.392V80.7l.917.586v.308Z" fill="#fff"/><path d="M130.229,75.336l3.541,2.477a.347.347,0,0,0,.529-.3V76.032a.5.5,0,0,0-.247-.426l-3.612-2.518a.326.326,0,0,0-.5.278v1.48a.57.57,0,0,0,.285.49" fill="#e7c3ba"/><path d="M131.979,78.987l3.541,2.477a.347.347,0,0,0,.529-.3V79.683a.5.5,0,0,0-.247-.426l-3.612-2.518a.326.326,0,0,0-.5.278V78.5a.57.57,0,0,0,.285.49" fill="#b08273"/><path d="M129.683,89.842l3.541,2.477a.347.347,0,0,0,.529-.3V90.538a.5.5,0,0,0-.247-.426l-3.612-2.518a.326.326,0,0,0-.5.278v1.48a.57.57,0,0,0,.285.49" fill="#e7c3ba"/><path d="M104.748,60.757l3.541,2.477a.347.347,0,0,0,.529-.3V61.453a.5.5,0,0,0-.247-.426l-3.612-2.518a.326.326,0,0,0-.5.278v1.48a.57.57,0,0,0,.285.49" fill="#e7c3ba"/><path d="M104.748,53.9l3.541,2.477a.347.347,0,0,0,.529-.3V54.6a.5.5,0,0,0-.247-.426l-3.612-2.518a.326.326,0,0,0-.5.278v1.48a.57.57,0,0,0,.285.49" fill="#e7c3ba"/><path d="M116.753,66.5l3.54,2.477a.348.348,0,0,0,.53-.3V67.195a.5.5,0,0,0-.247-.426l-3.612-2.518a.326.326,0,0,0-.5.277v1.481a.568.568,0,0,0,.286.49" fill="#b08273"/><path d="M130.558,69.453,134.1,71.93a.347.347,0,0,0,.529-.3V70.149a.5.5,0,0,0-.247-.426l-3.612-2.518a.326.326,0,0,0-.5.278v1.48a.57.57,0,0,0,.285.49" fill="#b08273"/><path d="M131.236,93.366l3.541,2.477a.347.347,0,0,0,.529-.3V94.062a.5.5,0,0,0-.247-.426l-3.612-2.518a.326.326,0,0,0-.5.277v1.481a.57.57,0,0,0,.285.49" fill="#b08273"/><path d="M108.734,94.469l3.541,2.477a.347.347,0,0,0,.529-.3V95.165a.5.5,0,0,0-.247-.426l-3.612-2.518a.326.326,0,0,0-.5.278v1.48a.57.57,0,0,0,.285.49" fill="#b08273"/><path d="M130.558,101.924,134.1,104.4a.347.347,0,0,0,.529-.3V102.62a.5.5,0,0,0-.247-.426l-3.612-2.518a.326.326,0,0,0-.5.277v1.481a.57.57,0,0,0,.285.49" fill="#b08273"/><g opacity="0.3"><g clip-path="url(#c)"><path d="M126.054,122.537l5.722,3.8,6.745-3.3-5.722-3.8Z" fill="#190e0e"/></g></g><path d="M135.176,123.083l-4.321-2.711-1.531-8.2,4.321,2.711Z" fill="#221714"/><path d="M135.176,123.583a.5.5,0,0,1-.266-.076L130.59,120.8a.5.5,0,0,1-.226-.332l-1.531-8.2a.5.5,0,0,1,.757-.515l4.321,2.711a.5.5,0,0,1,.226.332l1.531,8.2a.5.5,0,0,1-.492.592Zm-3.87-3.518,3.169,1.988-1.281-6.866-3.169-1.988Z" fill="#063964"/><path d="M132.345,123.732l-4.321-2.711,1.3-8.851,4.321,2.71Z" fill="#0e2f54"/><path d="M132.345,124.232a.5.5,0,0,1-.266-.076l-4.321-2.711a.5.5,0,0,1-.229-.5l1.3-8.851a.5.5,0,0,1,.76-.351l4.321,2.71a.5.5,0,0,1,.229.5l-1.3,8.852a.5.5,0,0,1-.495.427Zm-3.779-3.461,3.4,2.13,1.141-7.771-3.4-2.13Z" fill="#063964"/><line y1="1.24" x2="0.193" transform="translate(127.832 121.021)" fill="#0e2f54"/><path d="M0,1.74a.5.5,0,0,1-.078-.006.5.5,0,0,1-.417-.571L-.3-.077A.5.5,0,0,1,.27-.494.5.5,0,0,1,.687.077L.494,1.317A.5.5,0,0,1,0,1.74Z" transform="translate(127.832 121.021)" fill="#063964"/><line y1="1.24" x2="0.193" transform="translate(132.153 123.732)" fill="#0e2f54"/><path d="M0,1.74a.5.5,0,0,1-.078-.006.5.5,0,0,1-.417-.571L-.3-.077A.5.5,0,0,1,.27-.494.5.5,0,0,1,.687.077L.494,1.317A.5.5,0,0,1,0,1.74Z" transform="translate(132.153 123.732)" fill="#063964"/><path d="M.99.921A.3.3,0,0,1,.831.875L-.159.254A.3.3,0,0,1-.254-.159.3.3,0,0,1,.159-.254l.99.621A.3.3,0,0,1,.99.921Z" transform="translate(129.936 114.283)" fill="#d8d8d9"/><path d="M2.371,1.788a.3.3,0,0,1-.159-.046L-.159.254A.3.3,0,0,1-.254-.159.3.3,0,0,1,.159-.254L2.53,1.234a.3.3,0,0,1-.16.554Z" transform="translate(129.77 115.757)" fill="#d8d8d9"/><path d="M1.042.954A.3.3,0,0,1,.883.908L-.159.254A.3.3,0,0,1-.254-.159.3.3,0,0,1,.159-.254L1.2.4a.3.3,0,0,1-.16.554Z" transform="translate(129.565 117.08)" fill="#d8d8d9"/><path d="M.912.872A.3.3,0,0,1,.753.826L-.159.254A.3.3,0,0,1-.254-.159.3.3,0,0,1,.159-.254l.912.572a.3.3,0,0,1-.16.554Z" transform="translate(129.359 118.403)" fill="#d8d8d9"/><path d="M.912.872A.3.3,0,0,1,.753.826L-.159.254A.3.3,0,0,1-.254-.159.3.3,0,0,1,.159-.254l.912.572a.3.3,0,0,1-.16.554Z" transform="translate(131.027 119.449)" fill="#d8d8d9"/><path d="M.912.872A.3.3,0,0,1,.753.826L-.159.254A.3.3,0,0,1-.254-.159.3.3,0,0,1,.159-.254l.912.572a.3.3,0,0,1-.16.554Z" transform="translate(131.603 115.329)" fill="#d8d8d9"/><path d="M.912.872A.3.3,0,0,1,.753.826L-.159.254A.3.3,0,0,1-.254-.159.3.3,0,0,1,.159-.254l.912.572a.3.3,0,0,1-.16.554Z" transform="translate(129.89 120.324)" fill="#d8d8d9"/><line x1="0.255" y1="1.057" transform="translate(135.177 123.083)" fill="#0e2f54"/><path d="M.255,1.557a.5.5,0,0,1-.486-.383L-.486.117a.5.5,0,0,1,.369-.6.5.5,0,0,1,.6.369L.741.94a.5.5,0,0,1-.486.617Z" transform="translate(135.177 123.083)" fill="#063964"/><g opacity="0.3"><g clip-path="url(#d)"><path d="M94.612,119.479c0,1.82,2.922,3.3,6.526,3.3s6.526-1.475,6.526-3.3-2.921-3.295-6.526-3.295-6.526,1.475-6.526,3.295" fill="#190e0e"/></g></g><path d="M93.661,115.282a2.87,2.87,0,0,1,.007-.987l1.1-.3.506.551a9.075,9.075,0,0,0-.957,1.251,3.025,3.025,0,0,1-.651-.516" fill="#f7d7c5"/><path d="M94.312,116.3a.5.5,0,0,1-.277-.084,2.57,2.57,0,0,1-.8-.673c-.111-.183-.151-.434-.063-1.3a.5.5,0,0,1,.366-.432l1.1-.3a.5.5,0,0,1,.5.144l.506.551a.5.5,0,0,1,0,.676,8.618,8.618,0,0,0-.893,1.164.5.5,0,0,1-.432.249Zm-.189-1.253.057.046c.142-.2.29-.381.416-.531l-.46.126C94.122,114.871,94.121,114.982,94.123,115.045Z" fill="#063964"/><path d="M94.4,117.946c-.184.23-1.608,0-1.7-1.378a8.274,8.274,0,0,1,.046-2.021l.926-.253a2.875,2.875,0,0,0-.007.988,3.051,3.051,0,0,0,.651.516,1.494,1.494,0,0,0-.192.448c-.091.552.46,1.47.276,1.7" fill="#fff"/><path d="M94.13,118.524A2,2,0,0,1,92.2,116.6a8.71,8.71,0,0,1,.056-2.159.5.5,0,0,1,.357-.378l.926-.253a.5.5,0,0,1,.629.533,5.761,5.761,0,0,0-.042.7,5.444,5.444,0,0,0,.467.338.5.5,0,0,1,.155.666,1.048,1.048,0,0,0-.132.281,2.307,2.307,0,0,0,.159.745c.14.443.272.862.014,1.184A.789.789,0,0,1,94.13,118.524Zm-.962-3.127c-.008.291,0,.67.026,1.138a1,1,0,0,0,.651.926l-.027-.085a2.73,2.73,0,0,1-.192-1.211,1.214,1.214,0,0,1,.052-.2,1.577,1.577,0,0,1-.445-.425A.634.634,0,0,1,93.169,115.4Z" fill="#063964"/><path d="M102.057,119.479c.01-1.134.194-3.048.194-3.048l.918.459.276,1.883a1.561,1.561,0,0,0,.484.62,8.863,8.863,0,0,1-1.872.086" fill="#f7d7c5"/><path d="M102.565,120c-.187,0-.37-.007-.545-.02a.5.5,0,0,1-.463-.5c.01-1.143.189-3.012.2-3.091a.5.5,0,0,1,.721-.4l.918.459a.5.5,0,0,1,.271.375l.266,1.814a1.122,1.122,0,0,0,.305.366.5.5,0,0,1-.236.891A10.245,10.245,0,0,1,102.565,120Zm.12-2.79c-.041.507-.092,1.2-.115,1.79.137,0,.277,0,.422-.012-.008-.019-.013-.032-.015-.038a.5.5,0,0,1-.026-.1l-.238-1.625Z" fill="#063964"/><path d="M105.328,120.61c-.781.23-3.032.092-3.215-.367a2.754,2.754,0,0,1-.056-.765,8.937,8.937,0,0,0,1.872-.085,1.5,1.5,0,0,0,.48.252c.735.23,1.7.735.919.965" fill="#fff"/><path d="M104.247,121.219a7.9,7.9,0,0,1-1.465-.131c-.654-.13-1-.334-1.133-.661a2.536,2.536,0,0,1-.092-.956.5.5,0,0,1,.537-.493c.15.011.309.017.471.017a9.4,9.4,0,0,0,1.295-.1.5.5,0,0,1,.375.1.993.993,0,0,0,.322.17c.715.224,1.565.617,1.56,1.22,0,.191-.088.537-.649.7A4.78,4.78,0,0,1,104.247,121.219ZM102.576,120a5.077,5.077,0,0,0,1.671.223c.1,0,.188,0,.276-.006-.083-.032-.171-.063-.263-.092a1.965,1.965,0,0,1-.457-.208A10.031,10.031,0,0,1,102.576,120Z" fill="#063964"/><path d="M102.342,106.232s1.424,6.109,1.424,6.891.138,4.5.138,4.5a4.027,4.027,0,0,1-2.756.046s.175-6.582-.605-8.006a18.148,18.148,0,0,1-2.289,4.239,7.194,7.194,0,0,1-2.2,1.745s-1.93-.826-1.975-2.066c0,0,2.388-1.286,2.8-2.343s1.883-5.191,1.883-5.191Z" fill="#d55f48"/><path d="M98.759,105.549h.026l3.583.183a.5.5,0,0,1,.461.386c.24,1.029,1.437,6.205,1.437,7,0,.763.136,4.446.138,4.483a.5.5,0,0,1-.312.482,5.037,5.037,0,0,1-1.723.316,3.581,3.581,0,0,1-1.418-.274.5.5,0,0,1-.3-.473,47.986,47.986,0,0,0-.224-6.446,13.455,13.455,0,0,1-1.8,3.025,7.666,7.666,0,0,1-2.378,1.87.5.5,0,0,1-.4,0c-.227-.1-2.223-.994-2.278-2.508a.5.5,0,0,1,.263-.458,7.047,7.047,0,0,0,2.574-2.085c.405-1.037,1.863-5.135,1.877-5.176A.5.5,0,0,1,98.759,105.549Zm3.181,1.163-2.835-.145c-.366,1.026-1.419,3.972-1.763,4.855-.382.976-1.99,2-2.707,2.419a3.117,3.117,0,0,0,1.405,1.251,7.4,7.4,0,0,0,1.841-1.521,17.778,17.778,0,0,0,2.2-4.086.5.5,0,0,1,.9-.06c.738,1.347.7,6.384.674,7.893a2.806,2.806,0,0,0,.713.087,4.054,4.054,0,0,0,1.021-.14c-.035-.973-.124-3.5-.124-4.141C103.266,112.622,102.486,109.073,101.94,106.712Z" fill="#093b68"/><path d="M97.106,106.416a8.084,8.084,0,0,1-.138,1.7,2.692,2.692,0,0,1-.689.551s-1.47.138-1.562-.276.919-1.056.919-1.056l1.011-1.241Z" fill="#f7d7c5"/><path d="M96.647,105.594a.5.5,0,0,1,.287.091l.459.322a.5.5,0,0,1,.213.409c0,1.608-.152,1.862-.209,1.957a2.761,2.761,0,0,1-.865.725.5.5,0,0,1-.206.066c-.011,0-.262.024-.57.024-.376,0-1.374,0-1.527-.69-.14-.627.579-1.219,1.069-1.541l.961-1.18A.5.5,0,0,1,96.647,105.594Zm-.122,2.28a6.737,6.737,0,0,0,.072-.927l-.574.7a.5.5,0,0,1-.119.106,3.569,3.569,0,0,0-.527.415,3.615,3.615,0,0,0,.379.017c.146,0,.278-.006.366-.012A2.544,2.544,0,0,0,96.525,107.874Z" fill="#063964"/><path d="M99.862,98.883a4.894,4.894,0,0,0-1.837,1.011c-.6.643-1.011,2.8-1.149,3.491s-1.01,3.215-1.01,3.215l1.332.643a12.916,12.916,0,0,0,1.332-2.986,8.9,8.9,0,0,1,.551-1.837l-.919,3.9s3.675.735,4.64,0a8.16,8.16,0,0,1-.184-2.251,5.7,5.7,0,0,0,.115-2.5c-.1-.357,1.12,3.218,1.837,2.3a13.239,13.239,0,0,0,1.585-3.514l-1.01-.528-.965,1.584s-.873-2.3-2.113-2.434c-.45-.05-2.205-.092-2.205-.092" fill="#e5a92a"/><path d="M99.862,98.383h.012c.073,0,1.782.043,2.248.095.965.107,1.692,1.107,2.115,1.877l.481-.79a.5.5,0,0,1,.659-.183l1.01.528a.5.5,0,0,1,.267.479,13.136,13.136,0,0,1-1.689,3.786.832.832,0,0,1-.658.345c-.377,0-.729-.258-1.105-.84-.021.116-.042.23-.063.339l-.028.148a7.31,7.31,0,0,0,.182,2.055.5.5,0,0,1-.186.5,3.253,3.253,0,0,1-1.935.429,18.547,18.547,0,0,1-3.106-.336l-.046-.012c-.211.394-.374.667-.391.7a.5.5,0,0,1-.646.193l-1.332-.643a.5.5,0,0,1-.255-.613c.239-.694.885-2.612.992-3.15l.016-.079a8.98,8.98,0,0,1,1.257-3.654A5.231,5.231,0,0,1,99.72,98.4.5.5,0,0,1,99.862,98.383Zm4.318,3.526-.046,0a.5.5,0,0,1-.421-.32c-.251-.656-1-2.036-1.7-2.115-.333-.037-1.544-.074-2.079-.087a4.2,4.2,0,0,0-1.541.849,8.449,8.449,0,0,0-1.009,3.17l-.016.08c-.109.544-.627,2.1-.884,2.859l.513.248a10.465,10.465,0,0,0,1.044-2.431,9.357,9.357,0,0,1,.588-1.95.5.5,0,0,1,.94.326l-.8,3.39a16.167,16.167,0,0,0,2.4.227,4,4,0,0,0,1.069-.11,6.921,6.921,0,0,1-.112-2.06l.029-.151a4.967,4.967,0,0,0,.1-2.127.508.508,0,0,1,.078-.462.5.5,0,0,1,.4-.2c.34,0,.446.262.523.453a6.832,6.832,0,0,0,1.011,1.94,16.368,16.368,0,0,0,1.324-2.818l-.257-.134-.721,1.184A.5.5,0,0,1,104.18,101.909Z" fill="#093b68"/><path d="M102.251,98.194c2.236-.674,1.654-3.124,1.5-3.8a2.325,2.325,0,0,0-1.1-1.225,1.952,1.952,0,0,0-2.45.551c-.888,1.317-.061,3.736-.061,4.012s-.031,1.623-.031,1.623.95.7,1.623.49l.123-1.593Z" fill="#f7d7c5"/><path d="M101.452,100.388a3.213,3.213,0,0,1-1.643-.629.5.5,0,0,1-.2-.413c0-.013.03-1.288.031-1.593-.007-.046-.034-.163-.058-.266-.191-.836-.639-2.794.2-4.044a2.155,2.155,0,0,1,1.857-.993,3.029,3.029,0,0,1,1.2.262,2.253,2.253,0,0,1,.674.47,2.325,2.325,0,0,1,.719,1.1l0,.021a5.683,5.683,0,0,1,.144,2.088,2.681,2.681,0,0,1-1.993,2.278.5.5,0,0,1-.069.016h-.006l-.092,1.2a.5.5,0,0,1-.347.438A1.416,1.416,0,0,1,101.452,100.388Zm-.839-1.3a2.4,2.4,0,0,0,.653.276l.089-1.15a.5.5,0,0,1,.423-.456l.362-.055c1.18-.372,1.539-1.382,1.13-3.177l0-.021a1.951,1.951,0,0,0-.767-.859.5.5,0,0,1-.069-.028,2.062,2.062,0,0,0-.787-.17,1.165,1.165,0,0,0-1.028.552c-.6.891-.221,2.552-.058,3.262a2.323,2.323,0,0,1,.083.471C100.638,97.937,100.622,98.679,100.613,99.091Z" fill="#063964"/><path d="M101.125,93.945a14.4,14.4,0,0,0,2.618,1.424c.552.069,1.057-2.572-1.584-2.986,0,0-3.193-.85-3.193,2.343,0,0-.322,2.182-.919,2.434s1.447,1.1,1.838,1.126.712-4.134,1.24-4.341" fill="#0e2f54"/><path d="M101.27,91.78h0a4.434,4.434,0,0,1,.988.112,2.876,2.876,0,0,1,1.964,1.1,2.472,2.472,0,0,1,.454,1.636c-.058.742-.425,1.241-.913,1.241a.675.675,0,0,1-.083-.005,9.428,9.428,0,0,1-2.383-1.214c-.138.464-.286,1.275-.385,1.813-.093.509-.181.99-.273,1.358s-.239.963-.752.963h-.033a4.852,4.852,0,0,1-1.256-.419c-.941-.434-1.11-.74-1.152-.981a.621.621,0,0,1,.389-.679,5.135,5.135,0,0,0,.629-2.018,2.827,2.827,0,0,1,.994-2.363A2.944,2.944,0,0,1,101.27,91.78Zm2.361,3.035a1.453,1.453,0,0,0-.041-.9,1.754,1.754,0,0,0-1.509-1.036l-.051-.011a3.388,3.388,0,0,0-.76-.086h0a2.011,2.011,0,0,0-1.2.338,1.915,1.915,0,0,0-.6,1.607.5.5,0,0,1-.005.073,11.612,11.612,0,0,1-.247,1.179,3.782,3.782,0,0,1-.552,1.3,7.092,7.092,0,0,0,.977.43c.094-.345.2-.951.291-1.425.352-1.922.519-2.612,1.013-2.8a.5.5,0,0,1,.457.047A18.674,18.674,0,0,0,103.632,94.816Z" fill="#063964"/><path d="M102.848,95.84a.287.287,0,1,0,.287-.287.287.287,0,0,0-.287.287" fill="#0c2d51"/><path d="M101.389,95.9a.287.287,0,1,0,.287-.287.287.287,0,0,0-.287.287" fill="#0c2d51"/><path d="M102.477,97.594a1.723,1.723,0,0,1-.706-.17.44.44,0,1,1,.362-.8c.249.112.381.1.416.082a.44.44,0,0,1,.718.507A.913.913,0,0,1,102.477,97.594Z" fill="#063964"/><path d="M105.834,100.307s.62-.459.666-.735.023-1.746.023-1.746-.62-.413-.873.046a9.4,9.4,0,0,0-.436,2.045Z" fill="#f7d7c5"/><path d="M105.834,100.807a.5.5,0,0,1-.266-.077l-.62-.39a.5.5,0,0,1-.23-.481,8.891,8.891,0,0,1,.494-2.228.9.9,0,0,1,.805-.476,1.547,1.547,0,0,1,.784.255.5.5,0,0,1,.223.408c.006.355.02,1.538-.03,1.836a2.067,2.067,0,0,1-.862,1.055A.5.5,0,0,1,105.834,100.807Zm-.084-1.143.044.028a1.474,1.474,0,0,0,.217-.233c.016-.165.021-.674.017-1.194A9.854,9.854,0,0,0,105.75,99.664Z" fill="#063964"/><path d="M106.712,99.509l-.223-2.043,1.889-.07-.2,2.113a.91.91,0,0,1-1.47,0" fill="#76824d"/><path d="M107.468,100.384a1.566,1.566,0,0,1-1.11-.522.5.5,0,0,1-.144-.3l-.223-2.043a.5.5,0,0,1,.479-.554l1.889-.07a.5.5,0,0,1,.516.546l-.2,2.113a.5.5,0,0,1-.1.252A1.473,1.473,0,0,1,107.468,100.384Zm-.28-1.12a.493.493,0,0,0,.28.12.391.391,0,0,0,.232-.1l.127-1.371-.783.029Z" fill="#063964"/><path d="M108.331,96.528l.156.669c0,.342-.466.619-1.041.619s-1.041-.277-1.041-.619l.156-.669Z" fill="#fff"/><path d="M107.446,98.316c-.879,0-1.541-.481-1.541-1.119a.5.5,0,0,1,.013-.114l.156-.669a.5.5,0,0,1,.487-.386h1.77a.5.5,0,0,1,.487.386l.156.669a.5.5,0,0,1,.013.114C108.987,97.835,108.325,98.316,107.446,98.316Zm-.523-1.139a1.051,1.051,0,0,0,1.046,0l-.035-.149h-.976Z" fill="#063964"/><path d="M106.562,96.528c0,.291.4.526.885.526s.885-.235.885-.526-.4-.526-.885-.526-.885.235-.885.526" fill="#fff"/><path d="M107.447,95.5c.79,0,1.385.441,1.385,1.026s-.6,1.026-1.385,1.026-1.385-.441-1.385-1.026S106.657,95.5,107.447,95.5Z" fill="#063964"/><path d="M62.538,85.081,35.628,99.765V92.3l26.91-14.683Z" fill="#81362c"/><path d="M62.538,77.115a.5.5,0,0,1,.5.5v7.466a.5.5,0,0,1-.261.439L35.868,100.2a.5.5,0,0,1-.74-.439V92.3a.5.5,0,0,1,.261-.439L62.3,77.176A.5.5,0,0,1,62.538,77.115Zm-.5,7.669V78.458L36.128,92.6v6.328Z" fill="#063964"/><path d="M30.8,84.374a2.814,2.814,0,0,1,.939-.293c.362-.025.763.079,1.067-.109.242-.149.359-.452.6-.6.418-.255.995.045,1.466-.1a4.824,4.824,0,0,0,.737-.434.583.583,0,0,1,.778.148,2.73,2.73,0,0,1,.27-1.209.89.89,0,0,1,1.043-.441,2.79,2.79,0,0,1,3.454-1.312,1.391,1.391,0,0,1,.985-.476l2.058-.375a1.345,1.345,0,0,1,1.44-1.09A.745.745,0,0,1,46.81,77.6c.3-.93,1.578-.9,2.446-1.309.693-.329,1.406-1.035,2.108-.65-.086-.655.691-.991,1.318-1.122.6-.126.459-.41.764-.731a1.017,1.017,0,0,1,1.221-.243,1.241,1.241,0,0,1,2-.148l1.9-.22a2.481,2.481,0,0,1,1.586.17c.59.354.873,1.148,1.508,1.4.172.068.358.09.529.164a2,2,0,0,1,.639.533,2.445,2.445,0,0,1,.67,1.066c.088.412-.134.906-.541.937.5.517-.046,1.541-.729,1.358.193.363-.083.773-.371,1.035-.686.622.085.736-.828.934a1.446,1.446,0,0,1-1.748.921,6.693,6.693,0,0,1-4.643,2.233,1.728,1.728,0,0,1-1.7.71c-.051.538-.614.819-1.106,1.009l-2.01.775a4.776,4.776,0,0,1-3.1,1.387,1.561,1.561,0,0,1-.747.011,1.187,1.187,0,0,1-1.249.745,27.081,27.081,0,0,1-4.331,2.561c-.633.3-1.278.574-1.923.848l-.675.288c-.434.185-.868.37-1.314.527a8.164,8.164,0,0,1-2.675.51,1.523,1.523,0,0,1-.6-.09c-.194-.082-.355-.23-.541-.331a8.3,8.3,0,0,0-.942-.324.867.867,0,0,1-.606-.731,2.542,2.542,0,0,1-2.747-1.644c-.126-.366.047-.94.4-.791a1.985,1.985,0,0,1-.528-.813.609.609,0,0,1,.363-.764,1.207,1.207,0,0,1-.157-1.413c.258-.406.805-.539,1.1-.872.446-.5.579-.843,1.262-1.148" fill="#3f9c49"/><path d="M33.775,93.8A1.952,1.952,0,0,1,33,93.666a2.249,2.249,0,0,1-.4-.236c-.065-.044-.126-.086-.181-.116a2.112,2.112,0,0,0-.445-.157,3.984,3.984,0,0,1-.446-.143,1.6,1.6,0,0,1-.781-.657h-.031a3.07,3.07,0,0,1-2.827-2.019,1.351,1.351,0,0,1,.111-1.1,1.753,1.753,0,0,1-.251-.55,1.24,1.24,0,0,1,.14-.94q.02-.032.042-.062a1.69,1.69,0,0,1,.086-1.562,2.184,2.184,0,0,1,.775-.67,1.741,1.741,0,0,0,.375-.268c.1-.113.185-.218.266-.32a2.787,2.787,0,0,1,1.165-.952,3.24,3.24,0,0,1,1.108-.335c.052,0,.107-.005.167-.005.078,0,.154,0,.227.006s.129.005.187.005a.532.532,0,0,0,.257-.041.95.95,0,0,0,.172-.186,1.674,1.674,0,0,1,.432-.416,1.321,1.321,0,0,1,.708-.181,3.8,3.8,0,0,1,.4.028,3.064,3.064,0,0,0,.307.023.582.582,0,0,0,.164-.019,1.182,1.182,0,0,0,.3-.175,2.76,2.76,0,0,1,.358-.226,1.276,1.276,0,0,1,.58-.135,2.259,2.259,0,0,1,.262-.733,1.466,1.466,0,0,1,1.211-.736,3.277,3.277,0,0,1,2.746-1.443,3.2,3.2,0,0,1,.825.107,2.275,2.275,0,0,1,1.043-.4L43.8,78.74a1.85,1.85,0,0,1,1.47-1.146,1.266,1.266,0,0,1,1.115-.641,1.238,1.238,0,0,1,.191.015,2.959,2.959,0,0,1,1.654-.865,5.077,5.077,0,0,0,.808-.268c.151-.072.312-.169.482-.272a2.817,2.817,0,0,1,1.409-.538h.04a2.174,2.174,0,0,1,1.608-1,.443.443,0,0,0,.162-.054.851.851,0,0,0,.052-.1,1.614,1.614,0,0,1,1.45-.949,1.363,1.363,0,0,1,.239.021,1.7,1.7,0,0,1,1.224-.491,1.748,1.748,0,0,1,1.146.411l1.653-.192a6.2,6.2,0,0,1,.721-.052,2.233,2.233,0,0,1,1.18.29,3.2,3.2,0,0,1,.81.78,1.853,1.853,0,0,0,.626.585,1.764,1.764,0,0,0,.19.056,2.333,2.333,0,0,1,.353.113,2.431,2.431,0,0,1,.811.657,2.907,2.907,0,0,1,.788,1.3,1.411,1.411,0,0,1-.235,1.11,1.155,1.155,0,0,1-.13.147,1.421,1.421,0,0,1-.846,1.592,1.735,1.735,0,0,1-.583.953c-.161.146-.162.189-.164.243a.759.759,0,0,1-.634.744,1.953,1.953,0,0,1-1.736,1.052,1.873,1.873,0,0,1-.2-.01,7.193,7.193,0,0,1-4.566,2.173,2.246,2.246,0,0,1-1.6.75,2.362,2.362,0,0,1-1.282.952L51,86.5l-.881.34A5.485,5.485,0,0,1,46.8,88.3a2.982,2.982,0,0,1-.562.061,1.711,1.711,0,0,1-1.374.713h0a27.646,27.646,0,0,1-4.265,2.5c-.663.313-1.342.6-1.941.856l-.674.288c-.434.185-.883.376-1.344.539a8.57,8.57,0,0,1-2.838.538Zm-2.15-2.588-.019.627c0,.046.11.177.3.253a3.188,3.188,0,0,0,.336.106,2.936,2.936,0,0,1,.658.243,2.982,2.982,0,0,1,.267.17,1.466,1.466,0,0,0,.227.139,1.049,1.049,0,0,0,.385.051H33.8a7.594,7.594,0,0,0,2.51-.481c.432-.152.866-.337,1.285-.516l.675-.288c.591-.251,1.261-.535,1.906-.84a26.638,26.638,0,0,0,4.251-2.514l.162-.117.2.027a.613.613,0,0,0,.081.005.69.69,0,0,0,.632-.429l.165-.446.454.143a.48.48,0,0,0,.145.019,2.234,2.234,0,0,0,.364-.045,4.362,4.362,0,0,0,2.795-1.2L49.506,86l.131-.05,1-.387,1.005-.388c.518-.2.769-.388.788-.59l.051-.537.531.091a1.188,1.188,0,0,0,.2.017,1.218,1.218,0,0,0,1-.515l.139-.206.248-.013A6.178,6.178,0,0,0,58.9,81.361l.21-.239.305.089a.852.852,0,0,0,.238.033.953.953,0,0,0,.893-.623l.087-.278.284-.062.121-.029a1.3,1.3,0,0,1,.477-.787c.206-.187.294-.377.265-.43l-.54-1.015,1.111.3a.127.127,0,0,0,.032,0c.076,0,.176-.1.227-.216.015-.034.082-.212-.018-.315l-.745-.766,1.066-.081a.081.081,0,0,0,.033-.03.409.409,0,0,0,.057-.3,2.089,2.089,0,0,0-.552-.835,1.662,1.662,0,0,0-.468-.41,1.518,1.518,0,0,0-.205-.063,2.559,2.559,0,0,1-.307-.095,2.629,2.629,0,0,1-1.034-.885,2.393,2.393,0,0,0-.547-.553,1.259,1.259,0,0,0-.665-.148,5.359,5.359,0,0,0-.606.046l-1.895.22-.275.032-.173-.216a.72.72,0,0,0-.571-.249.644.644,0,0,0-.591.306l-.24.485-.465-.278a.317.317,0,0,0-.167-.043.638.638,0,0,0-.434.2.688.688,0,0,0-.118.189,1.136,1.136,0,0,1-.905.687c-.469.1-.958.317-.925.568l.128.978-.865-.474a.384.384,0,0,0-.192-.05,2.152,2.152,0,0,0-.89.392,6.432,6.432,0,0,1-.572.321,5.877,5.877,0,0,1-.972.329c-.678.186-1.1.325-1.212.681l-.22.689-.567-.449a.173.173,0,0,0-.111-.034c-.121,0-.245.083-.251.167l-.035.52-.518-.057a.717.717,0,0,0-.078,0,.851.851,0,0,0-.814.68l-.058.346-2.4.438c-.269.048-.563.112-.654.254l-.221.344-.381-.148a2.178,2.178,0,0,0-.791-.146,2.268,2.268,0,0,0-2.032,1.209l-.2.419-.432-.171a.186.186,0,0,0-.07-.013.478.478,0,0,0-.359.243,2.382,2.382,0,0,0-.2.988l-.12,1.795-.8-1.557h-.013a.273.273,0,0,0-.116.027,1.95,1.95,0,0,0-.231.149,1.971,1.971,0,0,1-.59.318,1.552,1.552,0,0,1-.45.06,3.851,3.851,0,0,1-.412-.028c-.109-.011-.211-.022-.3-.022a.375.375,0,0,0-.187.034.959.959,0,0,0-.171.186,1.675,1.675,0,0,1-.429.414,1.445,1.445,0,0,1-.783.19c-.078,0-.153,0-.226-.006-.108,0-.211-.007-.286,0a2.41,2.41,0,0,0-.77.251,1.816,1.816,0,0,0-.793.664c-.086.107-.183.228-.3.36a2.5,2.5,0,0,1-.605.459,1.387,1.387,0,0,0-.447.348.713.713,0,0,0,.1.8l.6.646-.831.177a.26.26,0,0,0-.013.16,1.587,1.587,0,0,0,.412.6l1.55,1.691-1.858-.784a.263.263,0,0,0,.012.06,2.071,2.071,0,0,0,1.881,1.345,1.531,1.531,0,0,0,.3-.028Z" fill="#093b68"/><path d="M38.89,83.477a.5.5,0,0,1-.475-.655,1.224,1.224,0,0,1,1.554-.782,1.3,1.3,0,0,1,1.228-.146.5.5,0,0,1-.383.924.3.3,0,0,0-.332.1.5.5,0,0,1-.747.113.247.247,0,0,0-.214-.049.239.239,0,0,0-.155.148A.5.5,0,0,1,38.89,83.477Z" fill="#063964"/><path d="M56.3,76.372a.5.5,0,0,1-.425-.762,1.2,1.2,0,0,1,.957-.563,1.871,1.871,0,0,1,.446.046l.048.009a1.157,1.157,0,0,1,.718-.4,1.687,1.687,0,0,1,.653.037,1.437,1.437,0,0,1,1.672.167.5.5,0,0,1-.679.734.431.431,0,0,0-.541,0,.5.5,0,0,1-.495.12,1.145,1.145,0,0,0-.455-.073.188.188,0,0,0-.1.043.5.5,0,0,1-.363.359,1.445,1.445,0,0,1-.652-.016,1.106,1.106,0,0,0-.212-.029.2.2,0,0,0-.15.089A.5.5,0,0,1,56.3,76.372Z" fill="#063964"/><path d="M51.946,80.889a.5.5,0,0,1-.416-.777,1.624,1.624,0,0,1,.981-.675l.019-.043a1.024,1.024,0,0,1,.653-.541,1.433,1.433,0,0,1,.724.012,1.378,1.378,0,0,1,1.342-.181.5.5,0,1,1-.385.923.37.37,0,0,0-.411.114.5.5,0,0,1-.561.183,1.2,1.2,0,0,0-.43-.089.5.5,0,0,1-.538.582.631.631,0,0,0-.561.268A.5.5,0,0,1,51.946,80.889Z" fill="#063964"/><path d="M47.959,85.389a2.825,2.825,0,0,1-.357-.028.5.5,0,0,1,.124-.992,1.167,1.167,0,0,0,.311.014.5.5,0,0,1,.987.139.934.934,0,0,1-.693.817A1.325,1.325,0,0,1,47.959,85.389Z" fill="#063964"/><path d="M40.8,88.64a3,3,0,0,1-.622-.065.5.5,0,0,1,.208-.978,1.971,1.971,0,0,0,1.023-.053.531.531,0,0,0,.172-.085.5.5,0,0,1,.767-.289.181.181,0,0,0,.075-.011,1.34,1.34,0,0,0,.313-.2c.091-.071.365-.283.365-.406a.5.5,0,0,1,1,0,1.6,1.6,0,0,1-.75,1.191,2.134,2.134,0,0,1-.6.36,1.187,1.187,0,0,1-.466.065,1.451,1.451,0,0,1-.563.326A2.955,2.955,0,0,1,40.8,88.64Z" fill="#063964"/><g opacity="0.3"><g clip-path="url(#e)"><path d="M88.134,118.753l-5.722-3.8-5.06,2.473c.008-.086.026-.171.026-.258,0-2.793-4.484-5.056-10.014-5.056-4.747,0-8.713,1.669-9.744,3.907l-.225-.149-6.745,3.3,5.723,3.8,4.238-2.071a16.432,16.432,0,0,0,6.753,1.33c4.285,0,7.931-1.361,9.36-3.272l4.665,3.1Z" fill="#190e0e"/></g></g><path d="M74.134,115.873c.015,1.842-2.869,3.359-6.443,3.388s-6.483-1.439-6.5-3.281v-.747H74.134Z" fill="#0e2f54"/><path d="M67.584,119.761a10.617,10.617,0,0,1-4.74-1.012,3.336,3.336,0,0,1-2.151-2.765v-.751a.5.5,0,0,1,.5-.5H74.134a.5.5,0,0,1,.5.5v.64c.009,1.083-.752,2.085-2.143,2.816a10.713,10.713,0,0,1-4.8,1.072Zm-5.891-4.028v.247c.005.672.591,1.359,1.607,1.88a10.707,10.707,0,0,0,8.725-.055c1.028-.54,1.614-1.243,1.608-1.927v-.144Z" fill="#063964"/><path d="M74.134,115.126c.015,1.842-2.869,3.359-6.443,3.388s-6.483-1.439-6.5-3.281,2.869-3.359,6.443-3.388,6.483,1.439,6.5,3.281" fill="#003f6f"/><path d="M67.743,111.345a10.617,10.617,0,0,1,4.739,1.012,3.337,3.337,0,0,1,2.151,2.765c.009,1.087-.752,2.089-2.143,2.82a10.713,10.713,0,0,1-4.8,1.072h-.112A10.617,10.617,0,0,1,62.844,118a3.336,3.336,0,0,1-2.151-2.765c-.009-1.087.751-2.089,2.143-2.821a10.715,10.715,0,0,1,4.8-1.072Zm-.16,6.67h.1a9.706,9.706,0,0,0,4.339-.957c1.028-.54,1.614-1.243,1.608-1.927s-.591-1.363-1.608-1.884a10.707,10.707,0,0,0-8.726.055c-1.028.54-1.614,1.243-1.608,1.927s.591,1.363,1.607,1.884A9.61,9.61,0,0,0,67.584,118.014Z" fill="#063964"/><path d="M68.306,115.245V96.89H67.021v18.355a.792.792,0,0,0,1.285,0" fill="#0d7858"/><path d="M67.663,116.082h0a1.405,1.405,0,0,1-1.037-.531.5.5,0,0,1-.1-.306V96.89a.5.5,0,0,1,.5-.5h1.285a.5.5,0,0,1,.5.5v18.355a.5.5,0,0,1-.132.339A1.363,1.363,0,0,1,67.663,116.082Zm-.142-1.053a.273.273,0,0,0,.142.053h0a.265.265,0,0,0,.143-.057V97.39h-.285Z" fill="#063964"/><path d="M80.3,107.039c.03,3.6-5.6,6.56-12.584,6.618s-12.663-2.812-12.692-6.409V105.79H80.3Z" fill="#005e43"/><path d="M67.509,114.158a20.261,20.261,0,0,1-9.041-1.924c-2.527-1.3-3.927-3.065-3.943-4.981V105.79a.5.5,0,0,1,.5-.5H80.3a.5.5,0,0,1,.5.5v1.249c.016,1.932-1.38,3.737-3.931,5.079a20.451,20.451,0,0,1-9.149,2.039ZM55.525,106.29v.958c.012,1.522,1.219,2.978,3.4,4.1a19.253,19.253,0,0,0,8.585,1.814h.2a19.444,19.444,0,0,0,8.692-1.924c2.2-1.158,3.409-2.646,3.4-4.189v-.753Z" fill="#063964"/><path d="M80.3,105.58c.03,3.6-5.6,6.561-12.584,6.619s-12.663-2.812-12.692-6.409,5.6-6.561,12.584-6.618,12.662,2.812,12.692,6.408" fill="#0d7858"/><path d="M67.817,98.671a20.261,20.261,0,0,1,9.041,1.924c2.527,1.3,3.927,3.064,3.943,4.98.016,1.936-1.38,3.742-3.93,5.083a20.448,20.448,0,0,1-9.149,2.04h-.212a20.261,20.261,0,0,1-9.041-1.924c-2.527-1.3-3.927-3.065-3.943-4.981-.016-1.936,1.38-3.741,3.93-5.083A20.443,20.443,0,0,1,67.6,98.672ZM67.509,111.7h.2a19.44,19.44,0,0,0,8.692-1.925c2.2-1.159,3.409-2.647,3.4-4.19-.013-1.526-1.22-2.981-3.4-4.1a19.253,19.253,0,0,0-8.585-1.814h-.2a19.436,19.436,0,0,0-8.692,1.924c-2.2,1.159-3.409,2.647-3.4,4.19.012,1.526,1.219,2.982,3.4,4.1A19.253,19.253,0,0,0,67.509,111.7Z" fill="#063964"/><path d="M68.306,105.328V86.973H67.021v18.355a.792.792,0,0,0,1.285,0" fill="#0d7858"/><path d="M67.663,106.165h0a1.4,1.4,0,0,1-1.037-.531.5.5,0,0,1-.1-.306V86.973a.5.5,0,0,1,.5-.5h1.285a.5.5,0,0,1,.5.5v18.355a.5.5,0,0,1-.132.339A1.363,1.363,0,0,1,67.663,106.165Zm-.142-1.053a.273.273,0,0,0,.142.053h0a.265.265,0,0,0,.143-.057V87.473h-.285Z" fill="#063964"/><path d="M67.168,74.11,48.516,87.017c.544,4.842,10.579,8.52,21.121,7.178,9.785-1.246,14.646-3.968,17.174-10Z" fill="#f1eed9"/><path d="M67.168,73.61a.5.5,0,0,1,.228.055L87.039,83.754a.5.5,0,0,1,.233.638c-2.57,6.128-7.5,9.016-17.572,10.3a35.586,35.586,0,0,1-4.477.283,29.455,29.455,0,0,1-11.672-2.213c-3.321-1.478-5.286-3.5-5.532-5.689a.5.5,0,0,1,.212-.467L66.883,73.7A.5.5,0,0,1,67.168,73.61Zm19,10.82L67.206,74.692,49.058,87.25a4.646,4.646,0,0,0,1.383,2.331,11.777,11.777,0,0,0,3.516,2.267,28.442,28.442,0,0,0,11.265,2.126,34.582,34.582,0,0,0,4.351-.275c4.97-.633,8.5-1.631,11.122-3.142A12.813,12.813,0,0,0,86.166,84.43Z" fill="#093b68"/><line x1="7.14" y2="13.546" transform="translate(59.027 77.447)" fill="#dca32f"/><path d="M0,14.046a.5.5,0,0,1-.233-.058.5.5,0,0,1-.209-.675L6.7-.233a.5.5,0,0,1,.675-.209.5.5,0,0,1,.209.675L.442,13.779A.5.5,0,0,1,0,14.046Z" transform="translate(59.027 77.447)" fill="#063964"/><line x2="9.275" y2="11.811" transform="translate(68.703 77.313)" fill="#dca32f"/><path d="M9.275,12.311a.5.5,0,0,1-.394-.191L-.393.309a.5.5,0,0,1,.084-.7.5.5,0,0,1,.7.084L9.668,11.5a.5.5,0,0,1-.393.809Z" transform="translate(68.703 77.313)" fill="#063964"/><path d="M66.137,107.527l.255,2.9c0,.317.442.574.987.574s.987-.257.987-.574l.255-2.9" fill="#d8d8d9"/><path d="M67.379,111.5c-.835,0-1.468-.448-1.487-1.047l-.253-2.881a.5.5,0,1,1,1-.088l.254,2.886a.992.992,0,0,0,.98,0l.254-2.886a.5.5,0,0,1,1,.088l-.253,2.881C68.847,111.05,68.214,111.5,67.379,111.5Z" fill="#063964"/><path d="M68.621,107.527c0,.443-.556.8-1.242.8s-1.242-.36-1.242-.8.556-.8,1.242-.8,1.242.36,1.242.8" fill="#d8d8d9"/><path d="M1.242-.5C2.219-.5,2.984.072,2.984.8s-.765,1.3-1.742,1.3S-.5,1.534-.5.8.265-.5,1.242-.5Zm0,1.606c.479,0,.742-.228.742-.3S1.721.5,1.242.5.5.728.5.8.763,1.106,1.242,1.106Z" transform="translate(66.137 106.724)" fill="#063964"/><path d="M66.281,109.162l.111,1.263c0,.317.442.574.987.574s.988-.257.988-.574l.111-1.263a3.117,3.117,0,0,1-2.2,0" fill="#dca32f"/><path d="M67.379,111.5c-.835,0-1.468-.448-1.487-1.047l-.253-2.881a.5.5,0,1,1,1-.088l.254,2.886a.992.992,0,0,0,.98,0l.254-2.886a.5.5,0,0,1,1,.088l-.253,2.881C68.847,111.05,68.214,111.5,67.379,111.5Z" fill="#063964"/><path d="M74.45,103.055l.255,2.9c0,.317.442.574.987.574s.987-.257.987-.574l.255-2.9" fill="#d8d8d9"/><path d="M75.692,107.027c-.835,0-1.468-.449-1.487-1.048l-.253-2.881a.5.5,0,0,1,1-.088L75.2,105.9a.992.992,0,0,0,.98,0l.254-2.886a.5.5,0,1,1,1,.088l-.253,2.881C77.16,106.579,76.527,107.027,75.692,107.027Z" fill="#063964"/><path d="M76.934,103.055c0,.443-.556.8-1.242.8s-1.242-.36-1.242-.8.556-.8,1.242-.8,1.242.36,1.242.8" fill="#d8d8d9"/><path d="M1.242-.5C2.219-.5,2.984.072,2.984.8s-.765,1.3-1.742,1.3S-.5,1.534-.5.8.265-.5,1.242-.5Zm0,1.606c.479,0,.742-.228.742-.3S1.721.5,1.242.5.5.728.5.8.763,1.106,1.242,1.106Z" transform="translate(74.45 102.252)" fill="#063964"/><path d="M74.593,104.69l.111,1.263c0,.317.442.574.987.574s.988-.257.988-.574l.111-1.263a3.117,3.117,0,0,1-2.2,0" fill="#dca32f"/><path d="M75.692,107.027c-.835,0-1.468-.449-1.487-1.048l-.253-2.881a.5.5,0,0,1,1-.088L75.2,105.9a.992.992,0,0,0,.98,0l.254-2.886a.5.5,0,1,1,1,.088l-.253,2.881C77.16,106.579,76.527,107.027,75.692,107.027Z" fill="#063964"/><line y1="4.633" transform="translate(52.346 115.669)" fill="#175f95"/><path d="M0,5.133a.5.5,0,0,1-.5-.5V0A.5.5,0,0,1,0-.5.5.5,0,0,1,.5,0V4.633A.5.5,0,0,1,0,5.133Z" transform="translate(52.346 115.669)" fill="#063964"/><line y1="4.633" transform="translate(55.649 118.127)" fill="#175f95"/><path d="M0,5.133a.5.5,0,0,1-.5-.5V0A.5.5,0,0,1,0-.5.5.5,0,0,1,.5,0V4.633A.5.5,0,0,1,0,5.133Z" transform="translate(55.649 118.127)" fill="#063964"/><line y1="4.633" transform="translate(56.955 113.442)" fill="#175f95"/><path d="M0,5.133a.5.5,0,0,1-.5-.5V0A.5.5,0,0,1,0-.5.5.5,0,0,1,.5,0V4.633A.5.5,0,0,1,0,5.133Z" transform="translate(56.955 113.442)" fill="#063964"/><line y1="4.633" transform="translate(60.257 115.9)" fill="#175f95"/><path d="M0,5.133a.5.5,0,0,1-.5-.5V0A.5.5,0,0,1,0-.5.5.5,0,0,1,.5,0V4.633A.5.5,0,0,1,0,5.133Z" transform="translate(60.257 115.9)" fill="#063964"/><path d="M55.649,118.127l-3.3-2.458,4.609-2.227,3.3,2.458Z" fill="#1e8da4"/><path d="M55.649,118.627a.5.5,0,0,1-.3-.1l-3.3-2.458a.5.5,0,0,1,.081-.851l4.609-2.227a.5.5,0,0,1,.516.049l3.3,2.458a.5.5,0,0,1-.081.851l-4.608,2.227A.5.5,0,0,1,55.649,118.627Zm-2.343-2.867,2.4,1.785,3.593-1.736-2.4-1.785Z" fill="#063964"/><path d="M55.649,118.127l-3.3-2.458v-9.524l3.3,2.458Z" fill="#175f95"/><path d="M55.649,118.627a.5.5,0,0,1-.3-.1l-3.3-2.458a.5.5,0,0,1-.2-.4v-9.524a.5.5,0,0,1,.8-.4l3.3,2.458a.5.5,0,0,1,.2.4v9.524a.5.5,0,0,1-.5.5Zm-2.8-3.209,2.3,1.714v-8.277l-2.3-1.714Z" fill="#063964"/><line y1="4.633" transform="translate(85.048 113.433)" fill="#175f95"/><path d="M0,5.133a.5.5,0,0,1-.5-.5V0A.5.5,0,0,1,0-.5.5.5,0,0,1,.5,0V4.633A.5.5,0,0,1,0,5.133Z" transform="translate(85.048 113.433)" fill="#063964"/><line y1="4.633" transform="translate(81.746 115.891)" fill="#175f95"/><path d="M0,5.133a.5.5,0,0,1-.5-.5V0A.5.5,0,0,1,0-.5.5.5,0,0,1,.5,0V4.633A.5.5,0,0,1,0,5.133Z" transform="translate(81.746 115.891)" fill="#063964"/><line y1="4.633" transform="translate(80.44 111.206)" fill="#175f95"/><path d="M0,5.133a.5.5,0,0,1-.5-.5V0A.5.5,0,0,1,0-.5.5.5,0,0,1,.5,0V4.633A.5.5,0,0,1,0,5.133Z" transform="translate(80.44 111.206)" fill="#063964"/><line y1="4.633" transform="translate(77.137 113.664)" fill="#175f95"/><path d="M0,5.133a.5.5,0,0,1-.5-.5V0A.5.5,0,0,1,0-.5.5.5,0,0,1,.5,0V4.633A.5.5,0,0,1,0,5.133Z" transform="translate(77.137 113.664)" fill="#063964"/><path d="M81.746,115.891l3.3-2.458-4.609-2.227-3.3,2.458Z" fill="#1e8da4"/><path d="M81.746,116.391a.5.5,0,0,1-.218-.05l-4.608-2.227a.5.5,0,0,1-.081-.851l3.3-2.458a.5.5,0,0,1,.516-.049l4.609,2.227a.5.5,0,0,1,.081.851l-3.3,2.458A.5.5,0,0,1,81.746,116.391ZM78.1,113.573l3.593,1.736,2.4-1.785L80.5,111.788Z" fill="#063964"/><path d="M81.746,115.891l3.3-2.458v-9.524l-3.3,2.458Z" fill="#175f95"/><path d="M81.746,116.391a.5.5,0,0,1-.5-.5v-9.524a.5.5,0,0,1,.2-.4l3.3-2.458a.5.5,0,0,1,.8.4v9.524a.5.5,0,0,1-.2.4l-3.3,2.458A.5.5,0,0,1,81.746,116.391Zm.5-9.773V114.9l2.3-1.714V104.9Z" fill="#063964"/></g></g></g></svg>