<svg xmlns="http://www.w3.org/2000/svg" xmlns:xlink="http://www.w3.org/1999/xlink" width="108" height="109" viewBox="0 0 108 109">
  <defs>
    <clipPath id="clip-path">
      <rect id="長方形_1096" data-name="長方形 1096" width="108" height="108" transform="translate(52.638 59.191)" fill="none"/>
    </clipPath>
    <clipPath id="clip-path-4">
      <rect id="長方形_1099" data-name="長方形 1099" width="14.166" height="7.152" transform="translate(68.61 109.475)" fill="none"/>
    </clipPath>
    <clipPath id="clip-path-5">
      <rect id="長方形_1100" data-name="長方形 1100" width="76.607" height="43.429" transform="translate(64.514 121.901)" fill="none"/>
    </clipPath>
    <clipPath id="clip-path-6">
      <rect id="長方形_1102" data-name="長方形 1102" width="11.474" height="5.793" transform="translate(87.106 93.742)" fill="none"/>
    </clipPath>
    <clipPath id="clip-path-7">
      <rect id="長方形_1103" data-name="長方形 1103" width="14.166" height="7.151" transform="translate(93.834 96.057)" fill="none"/>
    </clipPath>
    <clipPath id="clip-path-8">
      <path id="パス_24820" data-name="パス 24820" d="M121.572,63.259C106.119,65.2,95.851,91.918,97.787,107.37A28.193,28.193,0,0,0,140.35,128l2.61-1.784c7.65-5.9,10.674-15.494,10.785-25.853.211-19.486-15.125-37.239-29.927-37.239a18.154,18.154,0,0,0-2.246.139" fill="none"/>
    </clipPath>
    <clipPath id="clip-path-9">
      <path id="パス_24833" data-name="パス 24833" d="M123.45,94.812l18.761,11.746-.269-22.877L123.181,71.935Z" fill="none"/>
    </clipPath>
    <clipPath id="clip-path-12">
      <rect id="長方形_1105" data-name="長方形 1105" width="9.918" height="8.874" transform="translate(107.052 100.974)" fill="none"/>
    </clipPath>
    <clipPath id="clip-path-13">
      <rect id="長方形_1106" data-name="長方形 1106" width="1.783" height="2.208" transform="translate(108.399 104.14)" fill="none"/>
    </clipPath>
    <clipPath id="clip-path-14">
      <rect id="長方形_1107" data-name="長方形 1107" width="1.495" height="1.303" transform="translate(111.334 102.025)" fill="none"/>
    </clipPath>
  </defs>
  <g id="グループ_833" data-name="グループ 833" transform="translate(-52.638 -58.191)">
    <g id="グループ_834" data-name="グループ 834">
      <path id="パス_24643" data-name="パス 24643" d="M94,174.826h72.12V130.514Z" transform="translate(-5.477 -7.634)" fill="#748f9a"/>
      <path id="パス_24645" data-name="パス 24645" d="M145.327,59.191,52.638,110.625v36.831l108-59.438V59.191Z" fill="#d9c09e"/>
      <g id="グループ_796" data-name="グループ 796">
        <g id="グループ_795" data-name="グループ 795" clip-path="url(#clip-path)">
          <path id="パス_24646" data-name="パス 24646" d="M34.2,157.6,1.031,139.262,250.964.572l34.2,18.911Z" fill="none" stroke="#093b68" stroke-miterlimit="10" stroke-width="1"/>
        </g>
      </g>
      <path id="パス_24647" data-name="パス 24647" d="M52.638,149.546v17.645H88.546l72.092-39.676V90.107Z" fill="#748f9a"/>
      <path id="パス_24651" data-name="パス 24651" d="M52.638,147.456v2.09l108-59.439V88.018Z" fill="#d8d8d9"/>
      <g id="グループ_814" data-name="グループ 814">
        <g id="グループ_813" data-name="グループ 813" clip-path="url(#clip-path)">
          <path id="パス_24652" data-name="パス 24652" d="M287.067,20.527,36.1,158.649,34.2,157.6,285.167,19.483Z" fill="none" stroke="#063964" stroke-linecap="round" stroke-linejoin="round" stroke-width="1"/>
          <path id="パス_24653" data-name="パス 24653" d="M142.559,84.671l-.01,8.308a.885.885,0,0,0,.934.757.818.818,0,0,0,.937-.693l.01-8.307" fill="#d4e1e9"/>
          <path id="パス_24654" data-name="パス 24654" d="M142.559,84.671l-.01,8.308a.885.885,0,0,0,.934.757.818.818,0,0,0,.937-.693l.01-8.307" fill="none" stroke="#063964" stroke-linecap="round" stroke-linejoin="round" stroke-width="1"/>
          <path id="パス_24655" data-name="パス 24655" d="M144.43,84.735a.819.819,0,0,1-.936.693.886.886,0,0,1-.935-.758.818.818,0,0,1,.936-.692.886.886,0,0,1,.935.757" fill="#d4e1e9"/>
          <path id="パス_24656" data-name="パス 24656" d="M144.43,84.735a.819.819,0,0,1-.936.693.886.886,0,0,1-.935-.758.818.818,0,0,1,.936-.692A.886.886,0,0,1,144.43,84.735Z" fill="none" stroke="#063964" stroke-linecap="round" stroke-linejoin="round" stroke-width="1"/>
          <path id="パス_24657" data-name="パス 24657" d="M101.2,108.09l-.01,8.308a.885.885,0,0,0,.934.757.818.818,0,0,0,.937-.693l.01-8.307" fill="#d4e1e9"/>
          <path id="パス_24658" data-name="パス 24658" d="M101.2,108.09l-.01,8.308a.885.885,0,0,0,.934.757.818.818,0,0,0,.937-.693l.01-8.307" fill="none" stroke="#063964" stroke-linecap="round" stroke-linejoin="round" stroke-width="1"/>
          <path id="パス_24659" data-name="パス 24659" d="M103.072,108.155a.819.819,0,0,1-.936.693.886.886,0,0,1-.935-.758.818.818,0,0,1,.936-.692.885.885,0,0,1,.935.757" fill="#d4e1e9"/>
          <path id="パス_24660" data-name="パス 24660" d="M103.072,108.155a.819.819,0,0,1-.936.693.886.886,0,0,1-.935-.758.818.818,0,0,1,.936-.692A.885.885,0,0,1,103.072,108.155Z" fill="none" stroke="#063964" stroke-linecap="round" stroke-linejoin="round" stroke-width="1"/>
          <path id="パス_24661" data-name="パス 24661" d="M55.742,132.924l-.01,8.308a.885.885,0,0,0,.934.757.818.818,0,0,0,.937-.693l.01-8.307" fill="#d4e1e9"/>
          <path id="パス_24662" data-name="パス 24662" d="M55.742,132.924l-.01,8.308a.885.885,0,0,0,.934.757.818.818,0,0,0,.937-.693l.01-8.307" fill="none" stroke="#063964" stroke-linecap="round" stroke-linejoin="round" stroke-width="1"/>
          <path id="パス_24663" data-name="パス 24663" d="M57.613,132.988a.819.819,0,0,1-.936.693.885.885,0,0,1-.935-.757.819.819,0,0,1,.936-.693.886.886,0,0,1,.935.757" fill="#d4e1e9"/>
          <path id="パス_24664" data-name="パス 24664" d="M57.613,132.988a.819.819,0,0,1-.936.693.885.885,0,0,1-.935-.757.819.819,0,0,1,.936-.693A.886.886,0,0,1,57.613,132.988Z" fill="none" stroke="#063964" stroke-linecap="round" stroke-linejoin="round" stroke-width="1"/>
          <path id="パス_24665" data-name="パス 24665" d="M240.795,37.148,33.546,152.266l0-4.349L240.8,32.8Z" fill="#d4e1e9"/>
          <path id="パス_24666" data-name="パス 24666" d="M240.795,37.148,33.546,152.266l0-4.349L240.8,32.8Z" fill="none" stroke="#063964" stroke-linecap="round" stroke-linejoin="round" stroke-width="1"/>
          <g id="グループ_803" data-name="グループ 803" opacity="0.3">
            <g id="グループ_802" data-name="グループ 802">
              <g id="グループ_801" data-name="グループ 801" clip-path="url(#clip-path-4)">
                <path id="パス_24667" data-name="パス 24667" d="M68.61,113.051c0,1.975,3.171,3.576,7.083,3.576s7.083-1.6,7.083-3.576-3.171-3.576-7.083-3.576-7.083,1.6-7.083,3.576" fill="#190e0e"/>
              </g>
            </g>
          </g>
          <path id="パス_24668" data-name="パス 24668" d="M75.436,108.444c.061-.612.436-3.563.436-3.563l-2.162.262a16.8,16.8,0,0,1,.158,3.5c-.151.623-1.417,4.065-1.417,4.065l1.614.484a38.854,38.854,0,0,0,1.371-4.743" fill="#f7d7c5"/>
          <path id="パス_24669" data-name="パス 24669" d="M75.436,108.444c.061-.612.436-3.563.436-3.563l-2.162.262a16.8,16.8,0,0,1,.158,3.5c-.151.623-1.417,4.065-1.417,4.065l1.614.484A38.854,38.854,0,0,0,75.436,108.444Z" fill="none" stroke="#063964" stroke-linecap="round" stroke-linejoin="round" stroke-width="1"/>
          <path id="パス_24670" data-name="パス 24670" d="M79.59,110.79a1.979,1.979,0,0,0,1.072-.123c.653-.2.873.291.679.573-.6.868-1.775,1.846-2.19,1.81s-.688-1.257-.688-1.257Z" fill="#fff"/>
          <path id="パス_24671" data-name="パス 24671" d="M79.59,110.79a1.979,1.979,0,0,0,1.072-.123c.653-.2.873.291.679.573-.6.868-1.775,1.846-2.19,1.81s-.688-1.257-.688-1.257Z" fill="none" stroke="#0c2d4f" stroke-linecap="round" stroke-linejoin="round" stroke-width="1"/>
          <path id="パス_24672" data-name="パス 24672" d="M72.64,112.287s-.88,1.282-.461,1.6c.2.155,1.85,1.448,2.674,1.175s.41-.893-.055-1-.733-.876-.733-.876Z" fill="#fff"/>
          <path id="パス_24673" data-name="パス 24673" d="M72.64,112.287s-.88,1.282-.461,1.6c.2.155,1.85,1.448,2.674,1.175s.41-.893-.055-1-.733-.876-.733-.876Z" fill="none" stroke="#0c2d4f" stroke-linecap="round" stroke-linejoin="round" stroke-width="1"/>
          <path id="パス_24674" data-name="パス 24674" d="M76.009,106.277l1.8-.426,1.785,4.94-1.126,1Z" fill="#f7d7c5"/>
          <path id="パス_24675" data-name="パス 24675" d="M76.009,106.277l1.8-.426,1.785,4.94-1.126,1Z" fill="none" stroke="#063964" stroke-linecap="round" stroke-linejoin="round" stroke-width="1"/>
          <path id="パス_24676" data-name="パス 24676" d="M73.806,100.665l-1.132,4.773a5.989,5.989,0,0,0,2.2,1.3,4.971,4.971,0,0,0,4.138-.951l-1.657-4.744Z" fill="#fff"/>
          <path id="パス_24677" data-name="パス 24677" d="M73.806,100.665l-1.132,4.773a5.989,5.989,0,0,0,2.2,1.3,4.971,4.971,0,0,0,4.138-.951l-1.657-4.744Z" fill="none" stroke="#0c2d4f" stroke-linecap="round" stroke-linejoin="round" stroke-width="1"/>
          <path id="パス_24678" data-name="パス 24678" d="M80.319,104.448l-4.816,1.36-.522,3.225,1.472.916,4.739-1.558Z" fill="#bb6a5a"/>
          <path id="パス_24679" data-name="パス 24679" d="M80.319,104.448l-4.816,1.36-.522,3.225,1.472.916,4.739-1.558Z" fill="none" stroke="#063964" stroke-linecap="round" stroke-linejoin="round" stroke-width="1"/>
          <line id="線_15451" data-name="線 15451" x2="0.295" y2="2.318" transform="translate(76.274 106.597)" fill="#ca543e"/>
          <line id="線_15452" data-name="線 15452" x2="0.295" y2="2.318" transform="translate(76.274 106.597)" fill="none" stroke="#0a2e50" stroke-linecap="round" stroke-linejoin="round" stroke-width="1"/>
          <path id="パス_24680" data-name="パス 24680" d="M78.781,104.89s-.1-1.312-.954-1.168c-1.208.2-.987,1.716-.987,1.716" fill="none" stroke="#0a2e50" stroke-linecap="round" stroke-linejoin="round" stroke-width="1"/>
          <path id="パス_24681" data-name="パス 24681" d="M76.969,102.113a2.274,2.274,0,0,0,.162,1.584c.411.7,1.109.122,1.312-.29.282-.574-.283-1.764-.283-1.764Z" fill="#f7d7c5"/>
          <path id="パス_24682" data-name="パス 24682" d="M76.969,102.113a2.274,2.274,0,0,0,.162,1.584c.411.7,1.109.122,1.312-.29.282-.574-.283-1.764-.283-1.764Z" fill="none" stroke="#063964" stroke-linecap="round" stroke-linejoin="round" stroke-width="1"/>
          <path id="パス_24683" data-name="パス 24683" d="M76.605,101.376l.055,1.009a2.037,2.037,0,0,0,1.862-.422s-.733-5.91-1.371-7.034a2.114,2.114,0,0,0-1.864-1.112c-1.034-.29-1.608-.455-1.608-.455-.823,1.206-.105,2.5.031,4.487a16.419,16.419,0,0,1-.293,3.355,5.66,5.66,0,0,0,1.618.368,3.325,3.325,0,0,0,1.57-.2" fill="#e5a92a"/>
          <path id="パス_24684" data-name="パス 24684" d="M76.605,101.376l.055,1.009a2.037,2.037,0,0,0,1.862-.422s-.733-5.91-1.371-7.034a2.114,2.114,0,0,0-1.864-1.112c-1.034-.29-1.608-.455-1.608-.455-.823,1.206-.105,2.5.031,4.487a16.419,16.419,0,0,1-.293,3.355,5.66,5.66,0,0,0,1.618.368A3.325,3.325,0,0,0,76.605,101.376Z" fill="none" stroke="#093b68" stroke-linecap="round" stroke-linejoin="round" stroke-width="1"/>
          <line id="線_15453" data-name="線 15453" x2="0.797" y2="4.301" transform="translate(75.808 97.075)" fill="#fff"/>
          <line id="線_15454" data-name="線 15454" x2="0.797" y2="4.301" transform="translate(75.808 97.075)" fill="none" stroke="#0a2e50" stroke-linecap="round" stroke-linejoin="round" stroke-width="1"/>
          <path id="パス_24685" data-name="パス 24685" d="M75.94,93.169c2.227-.671,1.647-3.111,1.495-3.783a2.318,2.318,0,0,0-1.1-1.22,1.946,1.946,0,0,0-2.441.549c-.884,1.312-.607,3.623-.607,3.9s.964.915.964.915.085.414,1.472.29l-.293-.427Z" fill="#f7d7c5"/>
          <path id="パス_24686" data-name="パス 24686" d="M75.94,93.169c2.227-.671,1.647-3.111,1.495-3.783a2.318,2.318,0,0,0-1.1-1.22,1.946,1.946,0,0,0-2.441.549c-.884,1.312-.607,3.623-.607,3.9s.964.915.964.915.085.414,1.472.29l-.293-.427Z" fill="none" stroke="#063964" stroke-linecap="round" stroke-linejoin="round" stroke-width="1"/>
          <path id="パス_24687" data-name="パス 24687" d="M76.821,90.538a.286.286,0,1,0,.286-.286.286.286,0,0,0-.286.286" fill="#0d2e53"/>
          <path id="パス_24688" data-name="パス 24688" d="M75.368,90.881a.286.286,0,1,0,.286-.286.286.286,0,0,0-.286.286" fill="#0d2e53"/>
          <path id="パス_24689" data-name="パス 24689" d="M76.776,91.872s-.214.526-.836.124" fill="none" stroke="#0a2e50" stroke-linecap="round" stroke-linejoin="round" stroke-width="0.84"/>
          <path id="パス_24690" data-name="パス 24690" d="M75.8,87.357c.992.255,1.453.87,1.31,1.584-.286,1.422-2.448.812-2.965,1.606-1.342-.057-.907,1.962.185,1.752a2.548,2.548,0,0,1-.522,2.029c-.589.627-2.174-.108-1.754-1.07.724-1.657-.376-3.075.194-4.459A3.158,3.158,0,0,1,75.8,87.357" fill="#0d2e53"/>
          <path id="パス_24691" data-name="パス 24691" d="M75.8,87.357c.992.255,1.453.87,1.31,1.584-.286,1.422-2.448.812-2.965,1.606-1.342-.057-.907,1.962.185,1.752a2.548,2.548,0,0,1-.522,2.029c-.589.627-2.174-.108-1.754-1.07.724-1.657-.376-3.075.194-4.459A3.158,3.158,0,0,1,75.8,87.357Z" fill="none" stroke="#0a2e50" stroke-linecap="round" stroke-linejoin="round" stroke-width="1"/>
          <g id="グループ_806" data-name="グループ 806" opacity="0.3">
            <g id="グループ_805" data-name="グループ 805">
              <g id="グループ_804" data-name="グループ 804" clip-path="url(#clip-path-5)">
                <path id="パス_24692" data-name="パス 24692" d="M86.747,165.04l53.011-28.264a2.7,2.7,0,0,0-.276-4.829l-18.665-9.7a2.883,2.883,0,0,0-2.623-.056l-52.317,27.9a2.7,2.7,0,0,0,.189,4.782l17.971,10.069a2.892,2.892,0,0,0,2.71.1" fill="#190e0e"/>
              </g>
            </g>
          </g>
          <path id="パス_24693" data-name="パス 24693" d="M74.944,120.838s-2.895-1.438-3.4-.378-.664,4.321.166,4.9,3.234-4.517,3.234-4.517" fill="#fff7ed"/>
          <path id="パス_24694" data-name="パス 24694" d="M74.944,120.838s-2.895-1.438-3.4-.378-.664,4.321.166,4.9S74.944,120.838,74.944,120.838Z" fill="none" stroke="#063964" stroke-linecap="round" stroke-linejoin="round" stroke-width="1"/>
          <rect id="長方形_1101" data-name="長方形 1101" width="6.118" height="7.262" transform="matrix(0.047, -0.999, 0.999, 0.047, 97.343, 147.911)" fill="#0e2f54"/>
          <path id="パス_24695" data-name="パス 24695" d="M127.981,139.24l-9.659,1.352.471-7.677,9.475.214Z" fill="#0e2f54"/>
          <path id="パス_24696" data-name="パス 24696" d="M138.724,123.846s-.292-8.843-1.1-11.428c-.619-1.983-1.709-5.065-3.454-5.867s-14.594-8.244-18.506-7.611a65.978,65.978,0,0,0-16.839,5.2c-4.572,1.753-10.493,5.345-16.475,9.447-6.566,4.5-17.737,19.383-17.737,19.383a4.316,4.316,0,0,0-1.246,2.367,56.393,56.393,0,0,0,.14,10.874s.222,1.34,3.777,3.666c3.536,2.313,10.031,6.673,14.024,8.578,2.975,1.419,3.722,1.371,4.5,1.054,6.951-2.829,7.866-2.727,8.622-4.472.8-1.852-.275-6.979,5.554-9.519,0,0,4.161-1.235,5.229,3.945,4.573-2.5,13.923-6.933,18.518-9.489a3.411,3.411,0,0,0,1.64-2.231c.674-2.895,2.068-6.767,4.541-8.068,2.036-1.071,4.266-.7,5.69,3.927,0,0,3.948-3.7,4.369-4.728s.032-4.747.032-4.747Z" fill="#fff7ed"/>
          <path id="パス_24697" data-name="パス 24697" d="M138.724,123.846s-.292-8.843-1.1-11.428c-.619-1.983-1.709-5.065-3.454-5.867s-14.594-8.244-18.506-7.611a65.978,65.978,0,0,0-16.839,5.2c-4.572,1.753-10.493,5.345-16.475,9.447-6.566,4.5-17.737,19.383-17.737,19.383a4.316,4.316,0,0,0-1.246,2.367,56.393,56.393,0,0,0,.14,10.874s.222,1.34,3.777,3.666c3.536,2.313,10.031,6.673,14.024,8.578,2.975,1.419,3.722,1.371,4.5,1.054,6.951-2.829,7.866-2.727,8.622-4.472.8-1.852-.275-6.979,5.554-9.519,0,0,4.161-1.235,5.229,3.945,4.573-2.5,13.923-6.933,18.518-9.489a3.411,3.411,0,0,0,1.64-2.231c.674-2.895,2.068-6.767,4.541-8.068,2.036-1.071,4.266-.7,5.69,3.927,0,0,3.948-3.7,4.369-4.728s.032-4.747.032-4.747Z" fill="none" stroke="#063964" stroke-linecap="round" stroke-linejoin="round" stroke-width="1"/>
          <path id="パス_24698" data-name="パス 24698" d="M79.757,116.935s3.008,6.805,19.443,7.884c0,0-1.011,2.843-5.519,10.745-2.653,4.206-4.376,3.117-6.5,2.563s-14.388-7.807-15-10.464c-.446-1.929.123-2.767,7.573-10.728" fill="#175f95"/>
          <path id="パス_24699" data-name="パス 24699" d="M79.757,116.935s3.008,6.805,19.443,7.884c0,0-1.011,2.843-5.519,10.745-2.653,4.206-4.376,3.117-6.5,2.563s-14.388-7.807-15-10.464C71.738,125.734,72.307,124.9,79.757,116.935Z" fill="none" stroke="#063964" stroke-linecap="round" stroke-linejoin="round" stroke-width="1"/>
          <path id="パス_24700" data-name="パス 24700" d="M138.134,116.817c-1.2,5.349-38.4,23.219-39.9,24.031s-1.96.852-1.142-1.062c0,0,5.152-11.176,8.491-14.283s30.79-15.776,30.79-15.776,2.266,4.821,1.756,7.09" fill="#175f95"/>
          <path id="パス_24701" data-name="パス 24701" d="M138.134,116.817c-1.2,5.349-38.4,23.219-39.9,24.031s-1.96.852-1.142-1.062c0,0,5.152-11.176,8.491-14.283s30.79-15.776,30.79-15.776S138.644,114.548,138.134,116.817Z" fill="none" stroke="#063964" stroke-linecap="round" stroke-linejoin="round" stroke-width="1"/>
          <path id="パス_24702" data-name="パス 24702" d="M138.134,116.817c-1.2,5.349-38.4,23.219-39.9,24.031s-1.96.852-1.142-1.062c0,0,5.152-11.176,8.491-14.283s30.79-15.776,30.79-15.776,2.266,4.821,1.756,7.09" fill="#175f95"/>
          <path id="パス_24703" data-name="パス 24703" d="M138.134,116.817c-1.2,5.349-38.4,23.219-39.9,24.031s-1.96.852-1.142-1.062c0,0,5.152-11.176,8.491-14.283s30.79-15.776,30.79-15.776S138.644,114.548,138.134,116.817Z" fill="none" stroke="#063964" stroke-linecap="round" stroke-linejoin="round" stroke-width="1"/>
          <path id="パス_24704" data-name="パス 24704" d="M79.757,116.935s3.063,6.8,19.443,7.884c0,0-.65,1.537-5.05,9.917-2.647,5.244-4.827,4.315-6.964,3.391-2.017-.872-14.549-7.772-15-10.464C71.846,125.657,72.272,124.972,79.757,116.935Z" fill="none" stroke="#063964" stroke-linecap="round" stroke-linejoin="round" stroke-width="1"/>
          <path id="パス_24705" data-name="パス 24705" d="M102.733,153.729c-1.316,3.036-3.986,4.688-5.962,3.69s-2.512-4.267-1.2-7.3,3.986-4.688,5.963-3.69,2.511,4.267,1.195,7.3" fill="#0e2f54"/>
          <path id="パス_24706" data-name="パス 24706" d="M102.733,153.729c-1.316,3.036-3.986,4.688-5.962,3.69s-2.512-4.267-1.2-7.3,3.986-4.688,5.963-3.69S104.049,150.693,102.733,153.729Z" fill="none" stroke="#063964" stroke-linecap="round" stroke-linejoin="round" stroke-width="1"/>
          <path id="パス_24707" data-name="パス 24707" d="M100.684,152.694c-.548,1.263-1.677,1.942-2.522,1.515s-1.086-1.8-.538-3.06,1.677-1.941,2.522-1.515,1.086,1.8.538,3.06" fill="#60a9bb"/>
          <path id="パス_24708" data-name="パス 24708" d="M100.684,152.694c-.548,1.263-1.677,1.942-2.522,1.515s-1.086-1.8-.538-3.06,1.677-1.941,2.522-1.515S101.232,151.431,100.684,152.694Z" fill="none" stroke="#4b4c70" stroke-linecap="round" stroke-linejoin="round" stroke-width="1"/>
          <path id="パス_24709" data-name="パス 24709" d="M133.9,137.214c-1.382,3.187-4.185,4.922-6.26,3.874s-2.638-4.48-1.256-7.668,4.185-4.922,6.261-3.874,2.637,4.481,1.255,7.668" fill="#0e2f54"/>
          <path id="パス_24710" data-name="パス 24710" d="M133.9,137.214c-1.382,3.187-4.185,4.922-6.26,3.874s-2.638-4.48-1.256-7.668,4.185-4.922,6.261-3.874S135.286,134.027,133.9,137.214Z" fill="none" stroke="#063964" stroke-linecap="round" stroke-linejoin="round" stroke-width="1"/>
          <path id="パス_24711" data-name="パス 24711" d="M131.752,136.128c-.575,1.327-1.761,2.039-2.648,1.591s-1.14-1.886-.565-3.213,1.761-2.039,2.648-1.591,1.14,1.887.565,3.213" fill="#60a9bb"/>
          <path id="パス_24712" data-name="パス 24712" d="M131.752,136.128c-.575,1.327-1.761,2.039-2.648,1.591s-1.14-1.886-.565-3.213,1.761-2.039,2.648-1.591S132.327,134.8,131.752,136.128Z" fill="none" stroke="#4b4c70" stroke-linecap="round" stroke-linejoin="round" stroke-width="1"/>
          <path id="パス_24713" data-name="パス 24713" d="M63.368,135.341s19.183,12.135,21.489,12.774S93.29,140.1,93.29,140.1" fill="none" stroke="#063964" stroke-linecap="round" stroke-linejoin="round" stroke-width="1"/>
          <path id="パス_24714" data-name="パス 24714" d="M63.368,135.341l4.381,2.778s-.831,2.727-.379,3.623,10.725,7.391,11.824,7.711,2.358-2.865,2.358-2.865,3.2,1.981,4.074,1.74,4.133-1.313,4.133-1.313-.49,3.512-2,4.78-4.155,3.263-6.03,2.277S65.66,144.144,64.547,142.92s-1.179-7.579-1.179-7.579" fill="#fff"/>
          <path id="パス_24715" data-name="パス 24715" d="M63.368,135.341l4.381,2.778s-.831,2.727-.379,3.623,10.725,7.391,11.824,7.711,2.358-2.865,2.358-2.865,3.2,1.981,4.074,1.74,4.133-1.313,4.133-1.313-.49,3.512-2,4.78-4.155,3.263-6.03,2.277S65.66,144.144,64.547,142.92,63.368,135.341,63.368,135.341Z" fill="none" stroke="#063964" stroke-linecap="round" stroke-linejoin="round" stroke-width="1"/>
          <path id="パス_24716" data-name="パス 24716" d="M89.758,147.015s-3.223,1.059-4.116,1.308l-.763,5.456a15.052,15.052,0,0,0,2.88-1.984c1.51-1.268,2-4.78,2-4.78" fill="#f5ac61"/>
          <path id="パス_24717" data-name="パス 24717" d="M63.368,135.341l4.381,2.778s-.831,2.727-.379,3.623,10.725,7.391,11.824,7.711,2.358-2.865,2.358-2.865,3.2,1.981,4.074,1.74,4.133-1.313,4.133-1.313-.49,3.512-2,4.78-4.155,3.263-6.03,2.277S65.66,144.144,64.547,142.92,63.368,135.341,63.368,135.341Z" fill="none" stroke="#063964" stroke-linecap="round" stroke-linejoin="round" stroke-width="1"/>
          <path id="パス_24718" data-name="パス 24718" d="M115.665,98.94a65.994,65.994,0,0,0-16.84,5.2c-4.571,1.754-10.493,5.345-16.474,9.448a24.977,24.977,0,0,0-2.238,1.766c-.14.624-.238,1.2-.3,1.685.456.853,4.1,6.676,19.02,7.748l3.43-2.171s20.291-11.406,32.163-15.906a2.779,2.779,0,0,0-.253-.163c-1.745-.8-14.6-8.244-18.506-7.611" fill="#dfcd5e"/>
          <path id="パス_24719" data-name="パス 24719" d="M115.665,98.94a65.994,65.994,0,0,0-16.84,5.2c-4.571,1.754-10.493,5.345-16.474,9.448a24.977,24.977,0,0,0-2.238,1.766c-.14.624-.238,1.2-.3,1.685.456.853,4.1,6.676,19.02,7.748l3.43-2.171s20.291-11.406,32.163-15.906a2.779,2.779,0,0,0-.253-.163C132.426,105.749,119.576,98.307,115.665,98.94Z" fill="none" stroke="#093b68" stroke-linecap="round" stroke-linejoin="round" stroke-width="1"/>
          <path id="パス_24720" data-name="パス 24720" d="M137.337,120.9a25.442,25.442,0,0,0-.166,4.071l1.553-1.121-.03-.007s-.067-2-.222-4.368a3.664,3.664,0,0,0-1.135,1.425" fill="#cc7341"/>
          <path id="パス_24721" data-name="パス 24721" d="M137.337,120.9a25.442,25.442,0,0,0-.166,4.071l1.553-1.121-.03-.007s-.067-2-.222-4.368A3.664,3.664,0,0,0,137.337,120.9Z" fill="none" stroke="#063964" stroke-linecap="round" stroke-linejoin="round" stroke-width="1"/>
          <path id="パス_24722" data-name="パス 24722" d="M93.681,135.564c4.508-7.9,5.519-10.745,5.519-10.745a44.242,44.242,0,0,1-9.931-1.675l-1.341,3.741-7.145,3.324L78.691,133.4a49.377,49.377,0,0,0,8.495,4.725c2.119.554,3.842,1.643,6.5-2.563" fill="#003f6f"/>
          <path id="パス_24723" data-name="パス 24723" d="M133.96,113.425a7.027,7.027,0,0,0-2.134-1.571c-7.948,3.744-23.756,11.338-26.238,13.649-3.339,3.107-8.491,14.283-8.491,14.283-.818,1.914-.353,1.873,1.142,1.062.675-.367,8.64-4.218,17.278-8.82l1.326-3.979,3.176,1.542a147.493,147.493,0,0,0,13.421-8.143c.542-2.882,1.138-6.889.52-8.023" fill="#003f6f"/>
          <path id="パス_24724" data-name="パス 24724" d="M116.915,122.938a109.07,109.07,0,0,0-9.633,5.926" fill="none" stroke="#80a7c5" stroke-linecap="round" stroke-linejoin="round" stroke-width="3.15"/>
          <path id="パス_24725" data-name="パス 24725" d="M122.136,116.785s.092,10.132-2.6,12.889c0,0,5.523-3.219,6.1-3.606s.4-11.232.4-11.232Z" fill="#0e2f54"/>
          <path id="パス_24726" data-name="パス 24726" d="M124.072,115.668s.249,13.544-1.745,22.6l-15.953,7.976" fill="none" stroke="#063964" stroke-linecap="round" stroke-linejoin="round" stroke-width="1"/>
          <path id="パス_24727" data-name="パス 24727" d="M85.891,137.814c2.119.554,3.928,2.336,7.789-2.25.046-.055-2.4-.042-2.361-.1-7.8-1.252-8.489-3.361-8.436-4.485.064-1.358.107-5.644-3.684-6.125-1.941-.247-3.928-.7-6.432.309a17.362,17.362,0,0,0-.584,2.5c-.365,2.7,11.589,9.6,13.708,10.151" fill="#0e2f54"/>
          <path id="パス_24728" data-name="パス 24728" d="M80.146,120.733s-1.743.368-4.926,6.3" fill="none" stroke="#80a7c5" stroke-linecap="round" stroke-linejoin="round" stroke-width="3.15"/>
          <path id="パス_24729" data-name="パス 24729" d="M79.777,116.706s3.008,6.805,19.443,7.884c0,0-1.011,2.843-5.519,10.745-2.653,4.206-4.376,3.117-6.495,2.563s-14.388-7.807-15-10.464C71.758,125.5,72.327,124.667,79.777,116.706Z" fill="none" stroke="#063964" stroke-linecap="round" stroke-linejoin="round" stroke-width="1"/>
          <path id="パス_24730" data-name="パス 24730" d="M138.154,116.588c-1.2,5.349-38.4,23.219-39.9,24.031s-1.96.852-1.142-1.062c0,0,5.152-11.176,8.491-14.283S136.4,109.5,136.4,109.5,138.664,114.319,138.154,116.588Z" fill="none" stroke="#063964" stroke-linecap="round" stroke-linejoin="round" stroke-width="1"/>
          <path id="パス_24731" data-name="パス 24731" d="M97.1,142.068a1.186,1.186,0,0,1-1.3-1.727c.961-1.624,2.272-3.615,2.879-3.522a3,3,0,0,1,2.591,3.05c.01,1.213-2.281,1.867-4.169,2.2" fill="#fff7ed"/>
          <path id="パス_24732" data-name="パス 24732" d="M97.1,142.068a1.186,1.186,0,0,1-1.3-1.727c.961-1.624,2.272-3.615,2.879-3.522a3,3,0,0,1,2.591,3.05C101.282,141.082,98.991,141.736,97.1,142.068Z" fill="none" stroke="#063964" stroke-linecap="round" stroke-linejoin="round" stroke-width="1"/>
          <g id="グループ_809" data-name="グループ 809" opacity="0.3">
            <g id="グループ_808" data-name="グループ 808">
              <g id="グループ_807" data-name="グループ 807" clip-path="url(#clip-path-6)">
                <path id="パス_24733" data-name="パス 24733" d="M87.106,96.638c0,1.6,2.569,2.9,5.737,2.9s5.737-1.3,5.737-2.9-2.568-2.9-5.737-2.9c-2.566,0-5.737,1.6-5.737,2.9" fill="#190e0e"/>
              </g>
            </g>
          </g>
          <path id="パス_24734" data-name="パス 24734" d="M94.368,95.264a.891.891,0,0,0,.837-.337c.313-.311.64.1.6.406s-.611.722-.681,1.033a.8.8,0,0,1-.812.512c-.316-.038-.474-.886-.474-.886Z" fill="#fff"/>
          <path id="パス_24735" data-name="パス 24735" d="M94.368,95.264a.891.891,0,0,0,.837-.337c.313-.311.64.1.6.406s-.611.722-.681,1.033a.8.8,0,0,1-.812.512c-.316-.038-.474-.886-.474-.886Z" fill="none" stroke="#0c2d4f" stroke-linecap="round" stroke-linejoin="round" stroke-width="1"/>
          <path id="パス_24736" data-name="パス 24736" d="M91.15,95.487s-.992.8-.924,1.159c.084.441.918,1.052,1.493,1.176s.427-.371.236-.609-.11-.832-.11-.832Z" fill="#fff"/>
          <path id="パス_24737" data-name="パス 24737" d="M91.15,95.487s-.992.8-.924,1.159c.084.441.918,1.052,1.493,1.176s.427-.371.236-.609-.11-.832-.11-.832Z" fill="none" stroke="#0c2d4f" stroke-linecap="round" stroke-linejoin="round" stroke-width="1"/>
          <path id="パス_24738" data-name="パス 24738" d="M92.953,89.655l.927,3.462.953,1.662a1.159,1.159,0,0,1-1.272,1.079,8.687,8.687,0,0,1-1.3-2.207A11.519,11.519,0,0,1,90.932,91a10.675,10.675,0,0,1,.023-1.505Z" fill="#927f76"/>
          <path id="パス_24739" data-name="パス 24739" d="M92.953,89.655l.927,3.462.953,1.662a1.159,1.159,0,0,1-1.272,1.079,8.687,8.687,0,0,1-1.3-2.207A11.519,11.519,0,0,1,90.932,91a10.675,10.675,0,0,1,.023-1.505Z" fill="none" stroke="#093b68" stroke-linecap="round" stroke-linejoin="round" stroke-width="1"/>
          <path id="パス_24740" data-name="パス 24740" d="M93.916,89.49s.071,2.82-.036,3.626a13.781,13.781,0,0,1-1.8,3.46,12.614,12.614,0,0,1-1.269-.846,22.436,22.436,0,0,0,1.2-3.3c.047-.658-.141-2.609-.141-2.609l2.052-.053" fill="#927f76"/>
          <path id="パス_24741" data-name="パス 24741" d="M93.916,89.49s.071,2.82-.036,3.626a13.781,13.781,0,0,1-1.8,3.46,12.614,12.614,0,0,1-1.269-.846,22.436,22.436,0,0,0,1.2-3.3c.047-.658-.141-2.609-.141-2.609l2.052-.053" fill="none" stroke="#093b68" stroke-linecap="round" stroke-linejoin="round" stroke-width="1"/>
          <path id="パス_24742" data-name="パス 24742" d="M93.34,81.927c1.136.1,1.686,1.791,1.193,2.951a1.772,1.772,0,0,1-1.463.881c-.088.437-.365.406-.365.406l-.975-.353-.348-.871s-1.874-3.367,1.958-3.014" fill="#f7d7c5"/>
          <path id="パス_24743" data-name="パス 24743" d="M93.34,81.927c1.136.1,1.686,1.791,1.193,2.951a1.772,1.772,0,0,1-1.463.881c-.088.437-.365.406-.365.406l-.975-.353-.348-.871S89.508,81.574,93.34,81.927Z" fill="none" stroke="#063964" stroke-linecap="round" stroke-linejoin="round" stroke-width="1"/>
          <path id="パス_24744" data-name="パス 24744" d="M93.763,83.717a.26.26,0,1,0,.239-.28.26.26,0,0,0-.239.28" fill="#0c2e52"/>
          <path id="パス_24745" data-name="パス 24745" d="M93.4,83.238l-.47,1.011-.447,1.01-1.2-.07s-1.078-.886-.643-1.538,2.758-.413,2.758-.413" fill="#0c2d4f"/>
          <path id="パス_24746" data-name="パス 24746" d="M93.4,83.238l-.47,1.011-.447,1.01-1.2-.07s-1.078-.886-.643-1.538S93.4,83.238,93.4,83.238Z" fill="none" stroke="#0c2d4f" stroke-linecap="round" stroke-linejoin="round" stroke-width="1"/>
          <path id="パス_24747" data-name="パス 24747" d="M94.835,81.348c.23.9-1.193,2.009-1.984,2.442a7.024,7.024,0,0,1-2.154.778,1.965,1.965,0,0,1-1.194-.11c-.843-.413-.291-1.339-.088-1.638A5.1,5.1,0,0,1,91.208,81.2c1.576-.731,3.4-.753,3.627.146" fill="#fed84c"/>
          <path id="パス_24748" data-name="パス 24748" d="M94.835,81.348c.23.9-1.193,2.009-1.984,2.442a7.024,7.024,0,0,1-2.154.778,1.965,1.965,0,0,1-1.194-.11c-.843-.413-.291-1.339-.088-1.638A5.1,5.1,0,0,1,91.208,81.2C92.784,80.471,94.6,80.449,94.835,81.348Z" fill="none" stroke="#093b68" stroke-linecap="round" stroke-linejoin="round" stroke-width="1"/>
          <path id="パス_24749" data-name="パス 24749" d="M90.231,83.223a3.87,3.87,0,0,0,3.375-1.914A1.6,1.6,0,0,0,91.681,80.3a2.08,2.08,0,0,0-1.525.947,1.765,1.765,0,0,0,.075,1.975" fill="#fed84c"/>
          <path id="パス_24750" data-name="パス 24750" d="M90.231,83.223a3.87,3.87,0,0,0,3.375-1.914A1.6,1.6,0,0,0,91.681,80.3a2.08,2.08,0,0,0-1.525.947A1.765,1.765,0,0,0,90.231,83.223Z" fill="none" stroke="#093b68" stroke-linecap="round" stroke-linejoin="round" stroke-width="1"/>
          <path id="パス_24751" data-name="パス 24751" d="M95.748,84.27s.894-1.33,1.375-.544-.939,1.482-.939,1.482Z" fill="#f7d7c5"/>
          <path id="パス_24752" data-name="パス 24752" d="M95.748,84.27s.894-1.33,1.375-.544-.939,1.482-.939,1.482Z" fill="none" stroke="#063964" stroke-linecap="round" stroke-linejoin="round" stroke-width="1"/>
          <line id="線_15455" data-name="線 15455" x1="0.259" y2="0.302" transform="translate(94.01 87.896)" fill="#fff"/>
          <line id="線_15456" data-name="線 15456" x1="0.259" y2="0.302" transform="translate(94.01 87.896)" fill="none" stroke="#0c2d4f" stroke-linecap="round" stroke-linejoin="round" stroke-width="1"/>
          <path id="パス_24753" data-name="パス 24753" d="M93.34,86.153,95.5,84.375s.98.395.851,1.091L94.269,87.9a13.6,13.6,0,0,1-.024,2.19,5.131,5.131,0,0,1-3.855.083l.188-3.961a6.646,6.646,0,0,1,2.762-.055" fill="#dca32f"/>
          <path id="パス_24754" data-name="パス 24754" d="M93.34,86.153,95.5,84.375s.98.395.851,1.091L94.269,87.9a13.6,13.6,0,0,1-.024,2.19,5.131,5.131,0,0,1-3.855.083l.188-3.961A6.646,6.646,0,0,1,93.34,86.153Z" fill="none" stroke="#063964" stroke-linecap="round" stroke-linejoin="round" stroke-width="1"/>
          <path id="パス_24755" data-name="パス 24755" d="M91.526,91.456l1.7-.849s.341-4.4-.587-4.454a2.028,2.028,0,0,0-2,1.069Z" fill="#003f6f"/>
          <path id="パス_24756" data-name="パス 24756" d="M91.526,91.456l1.7-.849s.341-4.4-.587-4.454a2.028,2.028,0,0,0-2,1.069Z" fill="none" stroke="#063964" stroke-linecap="round" stroke-linejoin="round" stroke-width="1"/>
          <path id="パス_24757" data-name="パス 24757" d="M92.643,86.153s-.965-.07-1.049,1.538c-.055,1.041-.069,2.881-.069,3.765L88.6,90.537s-.474-3.514.842-4.549c1-.784,3.2.165,3.2.165" fill="#175f95"/>
          <path id="パス_24758" data-name="パス 24758" d="M92.643,86.153s-.965-.07-1.049,1.538c-.055,1.041-.069,2.881-.069,3.765L88.6,90.537s-.474-3.514.842-4.549C90.444,85.2,92.643,86.153,92.643,86.153Z" fill="none" stroke="#063964" stroke-linecap="round" stroke-linejoin="round" stroke-width="1"/>
          <g id="グループ_812" data-name="グループ 812" opacity="0.3">
            <g id="グループ_811" data-name="グループ 811">
              <g id="グループ_810" data-name="グループ 810" clip-path="url(#clip-path-7)">
                <path id="パス_24759" data-name="パス 24759" d="M93.834,99.632c0,1.975,3.171,3.576,7.083,3.576s7.083-1.6,7.083-3.576-3.171-3.576-7.083-3.576-7.083,1.6-7.083,3.576" fill="#190e0e"/>
              </g>
            </g>
          </g>
          <path id="パス_24760" data-name="パス 24760" d="M97.956,76.7a39.6,39.6,0,0,0-1.081,5,27.393,27.393,0,0,0,.967,4.266l1.82-.284Z" fill="#f4d151"/>
          <path id="パス_24761" data-name="パス 24761" d="M97.956,76.7a39.6,39.6,0,0,0-1.081,5,27.393,27.393,0,0,0,.967,4.266l1.82-.284Z" fill="none" stroke="#063964" stroke-linecap="round" stroke-linejoin="round" stroke-width="1"/>
          <path id="パス_24762" data-name="パス 24762" d="M96.974,95.786s-.752,1.067-.923,1.408.069.487.306.825.752.774.989,1.112,1.531,1.171,2.139.9-.618-1.087-.618-1.9V96.427s-1.116-.979-1.893-.641" fill="#fff"/>
          <path id="パス_24763" data-name="パス 24763" d="M96.974,95.786s-.752,1.067-.923,1.408.069.487.306.825.752.774.989,1.112,1.531,1.171,2.139.9-.618-1.087-.618-1.9V96.427S97.751,95.448,96.974,95.786Z" fill="none" stroke="#063964" stroke-linecap="round" stroke-linejoin="round" stroke-width="1"/>
          <path id="パス_24764" data-name="パス 24764" d="M102.925,98.752a1.948,1.948,0,0,1,1.132-.589c.808-.017,1.173.287,1.08.968-.066.486-2.623,1.432-3.372,1.342a.677.677,0,0,1-.352-.119c-.188-.156-.322-1.694-.157-1.695l1.669.093" fill="#fff"/>
          <path id="パス_24765" data-name="パス 24765" d="M102.925,98.752a1.948,1.948,0,0,1,1.132-.589c.808-.017,1.173.287,1.08.968-.066.486-2.623,1.432-3.372,1.342a.677.677,0,0,1-.352-.119c-.188-.156-.322-1.694-.157-1.695Z" fill="none" stroke="#063964" stroke-linecap="round" stroke-linejoin="round" stroke-width="1"/>
          <path id="パス_24766" data-name="パス 24766" d="M103.781,83.935s-.248,6.761-.248,8.012.083,6.527.083,6.527a2.423,2.423,0,0,1-2.645-.043s-.235-3.235-.341-5.176l-1.536,4.109a4.709,4.709,0,0,0-2.659-1.322,58.907,58.907,0,0,0,1.977-5.688,52.4,52.4,0,0,0-.341-5.688" fill="#087c5b"/>
          <path id="パス_24767" data-name="パス 24767" d="M103.781,83.935s-.248,6.761-.248,8.012.083,6.527.083,6.527a2.423,2.423,0,0,1-2.645-.043s-.235-3.235-.341-5.176l-1.536,4.109a4.709,4.709,0,0,0-2.659-1.322,58.907,58.907,0,0,0,1.977-5.688,52.4,52.4,0,0,0-.341-5.688" fill="none" stroke="#093b68" stroke-linecap="round" stroke-linejoin="round" stroke-width="1"/>
          <path id="パス_24768" data-name="パス 24768" d="M105.351,85.406s.171,1.536.512,1.763,2.047-.17,1.877-.853a6.582,6.582,0,0,0-1.365-1.877Z" fill="#f7d7c5"/>
          <path id="パス_24769" data-name="パス 24769" d="M105.351,85.406s.171,1.536.512,1.763,2.047-.17,1.877-.853a6.582,6.582,0,0,0-1.365-1.877Z" fill="none" stroke="#063964" stroke-linecap="round" stroke-linejoin="round" stroke-width="1"/>
          <path id="パス_24770" data-name="パス 24770" d="M100.654,92.982c-.014-.264-.027-.5-.036-.693-.1-1.992-.272-4.651-.272-4.651" fill="#fff"/>
          <path id="パス_24771" data-name="パス 24771" d="M100.654,92.982c-.014-.264-.027-.5-.036-.693-.1-1.992-.272-4.651-.272-4.651" fill="none" stroke="#0c2d4f" stroke-linecap="round" stroke-linejoin="round" stroke-width="1"/>
          <path id="パス_24772" data-name="パス 24772" d="M102.142,67.8c.8.335,1.138,2.233,1.137,3.759,0,1.107-1.333,1.072-1.44,1.6a3.693,3.693,0,0,0,.263,1.491l-2.232.01-.206-2.439s-1.384-6.045,2.478-4.421" fill="#f7d7c5"/>
          <path id="パス_24773" data-name="パス 24773" d="M102.142,67.8c.8.335,1.138,2.233,1.137,3.759,0,1.107-1.333,1.072-1.44,1.6a3.693,3.693,0,0,0,.263,1.491l-2.232.01-.206-2.439S98.28,66.173,102.142,67.8Z" fill="none" stroke="#063964" stroke-linecap="round" stroke-linejoin="round" stroke-width="1"/>
          <path id="パス_24774" data-name="パス 24774" d="M103.815,82.562l1.081,2.73a1.85,1.85,0,0,0,1.934-.91l-1.479-3.64s-1.166-4.664-1.707-5.119a11.152,11.152,0,0,1-1.783-1.706,5.477,5.477,0,0,1-2.275-.228c-1.936,1.852-1.828,2.676-1.678,4.863.1,1.491.071,5.842.071,5.842a4.016,4.016,0,0,0,1.237.9,4.6,4.6,0,0,0,4.65,0Z" fill="#fed84c"/>
          <path id="パス_24775" data-name="パス 24775" d="M103.815,82.562l1.081,2.73a1.85,1.85,0,0,0,1.934-.91l-1.479-3.64s-1.166-4.664-1.707-5.119a11.152,11.152,0,0,1-1.783-1.706,5.477,5.477,0,0,1-2.275-.228c-1.936,1.852-1.828,2.676-1.678,4.863.1,1.491.071,5.842.071,5.842a4.016,4.016,0,0,0,1.237.9,4.6,4.6,0,0,0,4.65,0Z" fill="none" stroke="#093b68" stroke-linecap="round" stroke-linejoin="round" stroke-width="1"/>
          <path id="パス_24776" data-name="パス 24776" d="M102.564,78.467l.817,2.984.434,1.111" fill="#fff"/>
          <path id="パス_24777" data-name="パス 24777" d="M102.564,78.467l.817,2.984.434,1.111" fill="none" stroke="#0c2d4f" stroke-linecap="round" stroke-linejoin="round" stroke-width="1"/>
          <path id="パス_24778" data-name="パス 24778" d="M102.976,67.94l-.887,1.675c-1.216-.127-.235,1.515-.235,1.515a9.641,9.641,0,0,0-1.152,1.514l-.874.128a23.139,23.139,0,0,1-1.408-2.1,2.416,2.416,0,0,1,1.82-3.636,3.273,3.273,0,0,1,2.736.9" fill="#0c2d4f"/>
          <path id="パス_24779" data-name="パス 24779" d="M102.976,67.94l-.887,1.675c-1.216-.127-.235,1.515-.235,1.515a9.641,9.641,0,0,0-1.152,1.514l-.874.128a23.139,23.139,0,0,1-1.408-2.1,2.416,2.416,0,0,1,1.82-3.636A3.273,3.273,0,0,1,102.976,67.94Z" fill="none" stroke="#0c2d4f" stroke-linecap="round" stroke-linejoin="round" stroke-width="1"/>
          <path id="パス_24780" data-name="パス 24780" d="M100.239,67.04l1.636-.6-.134.805,1.307-.314-.384.618,1.173.107-.832.938Z" fill="#0c2d4f"/>
          <path id="パス_24781" data-name="パス 24781" d="M100.239,67.04l1.636-.6-.134.805,1.307-.314-.384.618,1.173.107-.832.938Z" fill="none" stroke="#0c2d4f" stroke-linecap="round" stroke-linejoin="round" stroke-width="1"/>
          <path id="パス_24782" data-name="パス 24782" d="M58.422,123.989c0,1.04,1.414,1.883,3.157,1.883s3.158-.843,3.158-1.883-1.414-1.883-3.158-1.883-3.157.843-3.157,1.883" fill="#16639f"/>
          <path id="パス_24783" data-name="パス 24783" d="M58.422,123.989c0,1.04,1.414,1.883,3.157,1.883s3.158-.843,3.158-1.883-1.414-1.883-3.158-1.883S58.422,122.949,58.422,123.989Z" fill="none" stroke="#093b68" stroke-linecap="round" stroke-linejoin="round" stroke-width="1"/>
          <path id="パス_24784" data-name="パス 24784" d="M59.862,123.435c0,.042.138.858,1.546.852,1.584-.007,1.546-.81,1.546-.852s-.692-1.226-1.546-1.226-1.546,1.184-1.546,1.226" fill="#175f95"/>
          <path id="パス_24785" data-name="パス 24785" d="M59.862,123.435c0,.042.138.858,1.546.852,1.584-.007,1.546-.81,1.546-.852s-.692-1.226-1.546-1.226S59.862,123.393,59.862,123.435Z" fill="none" stroke="#063964" stroke-linecap="round" stroke-linejoin="round" stroke-width="1"/>
          <path id="パス_24786" data-name="パス 24786" d="M62.954,123.435l-1-35.286H60.889l-1,35.286" fill="#16639f"/>
          <path id="パス_24787" data-name="パス 24787" d="M62.954,123.435l-1-35.286H60.889l-1,35.286" fill="none" stroke="#093b68" stroke-linecap="round" stroke-linejoin="round" stroke-width="1"/>
          <path id="パス_24788" data-name="パス 24788" d="M60.437,96.369a1.023,1.023,0,1,0,1.009-.864.945.945,0,0,0-1.009.864" fill="#16639f"/>
          <path id="パス_24789" data-name="パス 24789" d="M60.437,96.369a1.023,1.023,0,1,0,1.009-.864A.945.945,0,0,0,60.437,96.369Z" fill="none" stroke="#093b68" stroke-linecap="round" stroke-linejoin="round" stroke-width="1"/>
          <path id="パス_24790" data-name="パス 24790" d="M60.889,96.01V88.15h1.063v7.86s-.4.665-1.063,0" fill="#175f95"/>
          <path id="パス_24791" data-name="パス 24791" d="M60.889,96.01V88.15h1.063v7.86S61.553,96.675,60.889,96.01Z" fill="none" stroke="#063964" stroke-linecap="round" stroke-linejoin="round" stroke-width="1"/>
          <path id="パス_24792" data-name="パス 24792" d="M60.234,94.416a1.228,1.228,0,1,0,1.212-1.036,1.134,1.134,0,0,0-1.212,1.036" fill="#16639f"/>
          <path id="パス_24793" data-name="パス 24793" d="M60.234,94.416a1.228,1.228,0,1,0,1.212-1.036A1.134,1.134,0,0,0,60.234,94.416Z" fill="none" stroke="#093b68" stroke-linecap="round" stroke-linejoin="round" stroke-width="1"/>
          <path id="パス_24794" data-name="パス 24794" d="M60.889,94.057V86.2h1.063v7.859s-.4.665-1.063,0" fill="#175f95"/>
          <path id="パス_24795" data-name="パス 24795" d="M60.889,94.057V86.2h1.063v7.859S61.553,94.722,60.889,94.057Z" fill="none" stroke="#063964" stroke-linecap="round" stroke-linejoin="round" stroke-width="1"/>
          <path id="パス_24796" data-name="パス 24796" d="M61.435,77.549l3.639,2.946-3.639,2.3Z" fill="#16639f"/>
          <path id="パス_24797" data-name="パス 24797" d="M61.435,77.549l3.639,2.946-3.639,2.3Z" fill="none" stroke="#093b68" stroke-linecap="round" stroke-linejoin="round" stroke-width="1"/>
          <path id="パス_24798" data-name="パス 24798" d="M61.435,77.549l-3.614,3.344,3.614,1.9Z" fill="#003f6f"/>
          <path id="パス_24799" data-name="パス 24799" d="M61.435,77.549l-3.614,3.344,3.614,1.9Z" fill="none" stroke="#063964" stroke-linecap="round" stroke-linejoin="round" stroke-width="1"/>
          <path id="パス_24800" data-name="パス 24800" d="M61.406,88.377l2.273-2.066,1.03-5.4-3.275,2.066Z" fill="#fed84c"/>
          <path id="パス_24801" data-name="パス 24801" d="M61.406,88.377l2.273-2.066,1.03-5.4-3.275,2.066Z" fill="none" stroke="#093b68" stroke-linecap="round" stroke-linejoin="round" stroke-width="1"/>
          <path id="パス_24802" data-name="パス 24802" d="M61.406,88.377l-2.251-1.708-.974-5.4,3.253,1.708Z" fill="#fed84c"/>
          <path id="パス_24803" data-name="パス 24803" d="M61.406,88.377l-2.251-1.708-.974-5.4,3.253,1.708Z" fill="none" stroke="#093b68" stroke-linecap="round" stroke-linejoin="round" stroke-width="1"/>
          <path id="パス_24804" data-name="パス 24804" d="M60.549,78.435a.886.886,0,1,0,.886-.886.886.886,0,0,0-.886.886" fill="#16639f"/>
          <circle id="楕円形_49" data-name="楕円形 49" cx="0.886" cy="0.886" r="0.886" transform="translate(60.549 77.549)" fill="none" stroke="#093b68" stroke-linecap="round" stroke-linejoin="round" stroke-width="1"/>
          <path id="パス_24805" data-name="パス 24805" d="M60.9,77.9V74.883h1V77.9s-.36.609-1,0" fill="#175f95"/>
          <path id="パス_24806" data-name="パス 24806" d="M60.9,77.9V74.883h1V77.9S61.532,78.511,60.9,77.9Z" fill="none" stroke="#063964" stroke-linecap="round" stroke-linejoin="round" stroke-width="1"/>
          <path id="パス_24807" data-name="パス 24807" d="M60.119,76.074c0,.459.564.831,1.26.831s1.26-.372,1.26-.831l-1.3-2.493Z" fill="#16639f"/>
          <path id="パス_24808" data-name="パス 24808" d="M60.119,76.074c0,.459.564.831,1.26.831s1.26-.372,1.26-.831l-1.3-2.493Z" fill="none" stroke="#093b68" stroke-linecap="round" stroke-linejoin="round" stroke-width="1"/>
          <path id="パス_24809" data-name="パス 24809" d="M94.409,127.543l7.7-7.369a28.2,28.2,0,1,1,1.9,2.525Z" fill="#fff"/>
          <path id="パス_24810" data-name="パス 24810" d="M94.409,127.543l7.7-7.369a28.2,28.2,0,1,1,1.9,2.525Z" fill="none" stroke="#063964" stroke-linecap="round" stroke-linejoin="round" stroke-width="1"/>
        </g>
      </g>
      <g id="グループ_816" data-name="グループ 816">
        <g id="グループ_815" data-name="グループ 815" clip-path="url(#clip-path-8)">
          <path id="パス_24811" data-name="パス 24811" d="M121.734,65.147a4.863,4.863,0,0,1,3.448-1.347l20.155,12.478a2.559,2.559,0,0,1,1.184,1.907v57.744c0,.654-2.237,1.924-2.972,1.879Z" fill="#cadde7"/>
          <path id="パス_24812" data-name="パス 24812" d="M121.734,65.147a4.863,4.863,0,0,1,3.448-1.347l20.155,12.478a2.559,2.559,0,0,1,1.184,1.907v57.744c0,.654-2.237,1.924-2.972,1.879Z" fill="none" stroke="#093b68" stroke-linecap="round" stroke-linejoin="round" stroke-width="1"/>
          <path id="パス_24813" data-name="パス 24813" d="M143.549,137.8l-.992-3.3.253-54.438,3.711-1.871v57.734c0,.654-2.236,1.924-2.972,1.879" fill="#acadae"/>
          <path id="パス_24814" data-name="パス 24814" d="M122.832,125.16l20.155,12.478c.654.4,1.184.193,1.184-.461V79.433a2.559,2.559,0,0,0-1.184-1.907L122.832,65.048c-.654-.4-1.184-.193-1.184.461v57.744a2.559,2.559,0,0,0,1.184,1.907" fill="#009cb9"/>
          <path id="パス_24815" data-name="パス 24815" d="M122.832,125.16l20.155,12.478c.654.4,1.184.193,1.184-.461V79.433a2.559,2.559,0,0,0-1.184-1.907L122.832,65.048c-.654-.4-1.184-.193-1.184.461v57.744A2.559,2.559,0,0,0,122.832,125.16Z" fill="none" stroke="#093b68" stroke-linecap="round" stroke-linejoin="round" stroke-width="1"/>
          <path id="パス_24816" data-name="パス 24816" d="M121.648,120.637l22.523,13.924V81.778L121.648,67.853Z" fill="#fff"/>
          <path id="パス_24817" data-name="パス 24817" d="M121.648,120.637l22.523,13.924V81.778L121.648,67.853Z" fill="none" stroke="#093b68" stroke-linecap="round" stroke-linejoin="round" stroke-width="1"/>
          <path id="パス_24818" data-name="パス 24818" d="M125.182,63.8l20.155,12.478a2.559,2.559,0,0,1,1.184,1.907v57.744c0,.654-2.236,1.924-2.972,1.879" fill="none" stroke="#093b68" stroke-linecap="round" stroke-linejoin="round" stroke-width="1"/>
          <path id="パス_24819" data-name="パス 24819" d="M142.212,106.654,123.386,94.868l-.27-22.973,18.825,11.786Z" fill="#ececec"/>
        </g>
      </g>
      <g id="グループ_818" data-name="グループ 818">
        <g id="グループ_817" data-name="グループ 817" clip-path="url(#clip-path-9)">
          <path id="パス_24821" data-name="パス 24821" d="M141.836,85.708l-4.762,6.533-.319,9.569-3.712.34" fill="none" stroke="#fff" stroke-linecap="round" stroke-linejoin="round" stroke-width="1"/>
          <path id="パス_24822" data-name="パス 24822" d="M136.129,78.075l-4.98,10.076,1.2,6.2L132,101.623" fill="none" stroke="#fff" stroke-linecap="round" stroke-linejoin="round" stroke-width="1"/>
          <path id="パス_24823" data-name="パス 24823" d="M127.124,98.571a3.912,3.912,0,0,0,.917-2.851c-.192-1.643-.473-3.468-.473-3.468l.492-2.229-.734-3.631,1.588-4.588,5.9-4.93" fill="none" stroke="#fff" stroke-linecap="round" stroke-linejoin="round" stroke-width="1"/>
          <line id="線_15457" data-name="線 15457" y1="1.117" x2="6.727" transform="translate(122.187 81.804)" fill="none" stroke="#fff" stroke-linecap="round" stroke-linejoin="round" stroke-width="1"/>
          <path id="パス_24824" data-name="パス 24824" d="M125.692,87.018s7.011,8.322,8.054,8.848,6.71,4.708,6.71,4.708" fill="none" stroke="#fff" stroke-linecap="round" stroke-linejoin="round" stroke-width="1"/>
          <path id="パス_24825" data-name="パス 24825" d="M139.522,80.009s-3.2,3.835-3.6,5.8-.6,7.36-1.014,9.261-3.777,5.881-3.777,5.881" fill="none" stroke="#88d1f5" stroke-linecap="round" stroke-linejoin="round" stroke-width="1"/>
          <path id="パス_24826" data-name="パス 24826" d="M142.483,89.284l-2.706,5.03a31.116,31.116,0,0,1,.679,6.26,57.823,57.823,0,0,1-1.132,6.65" fill="none" stroke="#f8b547" stroke-linecap="round" stroke-linejoin="round" stroke-width="1"/>
          <path id="パス_24827" data-name="パス 24827" d="M141.538,82.413s-2.864,6.263-3.853,6.658S122.8,91.236,122.8,91.236" fill="none" stroke="#f8b547" stroke-linecap="round" stroke-linejoin="round" stroke-width="1"/>
          <path id="パス_24828" data-name="パス 24828" d="M143.391,93.024l-1.254,3.592-1.262-.791.993,3.6L140.79,107l3.224,2.208Z" fill="#88d1f5"/>
          <path id="パス_24829" data-name="パス 24829" d="M121.808,76.4s11.418,4.675,16.708,13.568" fill="none" stroke="#fff" stroke-linecap="round" stroke-linejoin="round" stroke-width="1"/>
          <path id="パス_24830" data-name="パス 24830" d="M127.537,78.6,123.4,76.006l-.042-3.515L127.5,75.08Z" fill="#89c56d"/>
          <path id="パス_24831" data-name="パス 24831" d="M122.3,77.726s7.073,9.883,7.986,10.391,8.726,3.5,8.726,3.5l3.789-4.8" fill="none" stroke="#ef8eb8" stroke-linecap="round" stroke-linejoin="round" stroke-width="1"/>
          <path id="パス_24832" data-name="パス 24832" d="M136.1,105.144s2.413-4.262,2.327-7.868a18.652,18.652,0,0,1,.581-5.662" fill="none" stroke="#ef8eb8" stroke-linecap="round" stroke-linejoin="round" stroke-width="1"/>
        </g>
      </g>
      <g id="グループ_820" data-name="グループ 820">
        <g id="グループ_819" data-name="グループ 819" clip-path="url(#clip-path-8)">
          <path id="パス_24834" data-name="パス 24834" d="M134.565,88.355c0,.371-.2.543-.449.385a1.248,1.248,0,0,1-.465-.957c0-.371.2-.543.449-.385a1.249,1.249,0,0,1,.465.957" fill="#f26058"/>
          <path id="パス_24835" data-name="パス 24835" d="M138.245,87.139c0,.371-.2.543-.449.385a1.248,1.248,0,0,1-.465-.957c0-.371.2-.543.449-.385a1.249,1.249,0,0,1,.465.957" fill="#f26058"/>
          <path id="パス_24836" data-name="パス 24836" d="M138.107,97.706c0,.371-.2.543-.449.385a1.248,1.248,0,0,1-.465-.957c0-.371.2-.543.449-.385a1.249,1.249,0,0,1,.465.957" fill="#f26058"/>
          <path id="パス_24837" data-name="パス 24837" d="M131.915,95.158c0,.371-.2.543-.449.385a1.248,1.248,0,0,1-.465-.957c0-.371.2-.543.449-.385a1.249,1.249,0,0,1,.465.957" fill="#f26058"/>
          <path id="パス_24838" data-name="パス 24838" d="M129.306,85.431c0,.371-.2.543-.449.385a1.248,1.248,0,0,1-.465-.957c0-.371.2-.543.449-.385a1.249,1.249,0,0,1,.465.957" fill="#f26058"/>
          <path id="パス_24839" data-name="パス 24839" d="M129.719,80.4l-.566-.354-.01-.895.565.354Z" fill="#4276b7"/>
          <path id="パス_24840" data-name="パス 24840" d="M132.866,89.036l-.566-.354-.01-.895.565.354Z" fill="#4276b7"/>
          <path id="パス_24841" data-name="パス 24841" d="M137.868,95.026l-.566-.354-.01-.895.565.354Z" fill="#4276b7"/>
          <path id="パス_24842" data-name="パス 24842" d="M127.212,93.171l-.566-.354-.01-.895.565.354Z" fill="#4276b7"/>
          <path id="パス_24843" data-name="パス 24843" d="M139.64,101.354l-.566-.354-.01-.895.565.354Z" fill="#4276b7"/>
          <line id="線_15458" data-name="線 15458" x2="16.192" y2="10.138" transform="translate(124.509 103.975)" fill="none" stroke="#093b68" stroke-linecap="round" stroke-linejoin="round" stroke-width="1"/>
          <line id="線_15459" data-name="線 15459" x2="16.192" y2="10.138" transform="translate(124.554 107.809)" fill="none" stroke="#093b68" stroke-linecap="round" stroke-linejoin="round" stroke-width="1"/>
          <line id="線_15460" data-name="線 15460" x2="16.192" y2="10.138" transform="translate(124.681 113.863)" fill="none" stroke="#093b68" stroke-linecap="round" stroke-linejoin="round" stroke-width="1"/>
          <line id="線_15461" data-name="線 15461" x2="16.192" y2="10.138" transform="translate(124.681 116.64)" fill="none" stroke="#093b68" stroke-linecap="round" stroke-linejoin="round" stroke-width="1"/>
          <line id="線_15462" data-name="線 15462" x2="16.192" y2="10.138" transform="translate(124.681 119.417)" fill="none" stroke="#093b68" stroke-linecap="round" stroke-linejoin="round" stroke-width="1"/>
          <path id="パス_24844" data-name="パス 24844" d="M134.11,107.423c-.026-2.223,1.18-3.257,2.695-2.309s2.763,3.519,2.789,5.743" fill="none" stroke="#c4d175" stroke-miterlimit="10" stroke-width="1"/>
          <line id="線_15463" data-name="線 15463" x2="2.568" y2="1.608" transform="translate(135.664 107.317)" fill="none" stroke="#093b68" stroke-linecap="round" stroke-linejoin="round" stroke-width="1"/>
          <line id="線_15464" data-name="線 15464" x2="6.747" y2="4.224" transform="translate(124.4 100.757)" fill="none" stroke="#093b68" stroke-linecap="round" stroke-linejoin="round" stroke-width="1"/>
          <line id="線_15465" data-name="線 15465" x2="11.361" y2="7.113" transform="translate(126.716 72.478)" fill="none" stroke="#093b68" stroke-linecap="round" stroke-linejoin="round" stroke-width="1"/>
        </g>
      </g>
      <g id="グループ_831" data-name="グループ 831">
        <g id="グループ_830" data-name="グループ 830" clip-path="url(#clip-path)">
          <path id="パス_24846" data-name="パス 24846" d="M130.328,132.29a28.182,28.182,0,0,1-26.32-9.591l-9.6,4.845,7.7-7.369a28.195,28.195,0,0,1,18.656-43.464" fill="none" stroke="#063964" stroke-linecap="round" stroke-linejoin="round" stroke-width="1"/>
          <path id="パス_24847" data-name="パス 24847" d="M124.037,106.394a2.3,2.3,0,0,0-.962-2.1l-7.616,3.338L112.2,111.3l-.063.119-4.51-2.346-5.093-3.755a1.988,1.988,0,0,0-.976,1.993l8.645,7.519c-.065,1,.005,2.029.532,2.3a2.394,2.394,0,0,0,2.068.047l-.036-4.341Z" fill="#fff7f3"/>
          <path id="パス_24848" data-name="パス 24848" d="M111.376,111.854l-8.746-5.3a.725.725,0,0,1-.1-1.234l10.964-6.443a.707.707,0,0,1,.724.027l8.746,5.3a.725.725,0,0,1,.1,1.234L112.1,111.882a.705.705,0,0,1-.723-.028" fill="#ece9e7"/>
          <path id="パス_24849" data-name="パス 24849" d="M123.892,110.656l-11.034,6.493a.408.408,0,0,1-.579-.369v-4.144a.321.321,0,0,1,.156-.281l11.032-6.492a.407.407,0,0,1,.58.368v4.144a.322.322,0,0,1-.155.281" fill="#cecaba"/>
          <path id="パス_24850" data-name="パス 24850" d="M101.833,111.774l8.83,5.331a.458.458,0,0,0,.73-.369v-3.913a.588.588,0,0,0-.285-.491L102.277,107a.458.458,0,0,0-.729.369v3.914a.584.584,0,0,0,.285.49" fill="#e0dbd0"/>
          <path id="パス_24851" data-name="パス 24851" d="M111.805,117.6a2.535,2.535,0,0,1-1.168-.284l0,0a.152.152,0,0,1-.075-.028l-8.831-5.332a.791.791,0,0,1-.384-.666V107.37a.24.24,0,0,1,.006-.048,2.181,2.181,0,0,1,1.09-2.188L113.39,98.7a.912.912,0,0,1,.935.03l8.746,5.3a.371.371,0,0,1,.089.077.07.07,0,0,1,.027.014,2.518,2.518,0,0,1,1.056,2.051.308.308,0,0,1,.009.062v4.144a.523.523,0,0,1-.256.459l-11.033,6.492a.228.228,0,0,1-.046.019l-.023.015a2.552,2.552,0,0,1-1.089.237m-.966-.644a2.168,2.168,0,0,0,1.82.061.189.189,0,0,1,.067-.045c.011,0,.033-.008.052-.013l11.008-6.477a.116.116,0,0,0,.054-.1v-4.117a.187.187,0,0,1-.009-.042.1.1,0,0,1,0-.024,2.1,2.1,0,0,0-.827-1.7.178.178,0,0,1-.079-.039.515.515,0,0,1-.061-.063l-8.752-5.311a.5.5,0,0,0-.513-.027L102.635,105.5a1.773,1.773,0,0,0-.879,1.76.184.184,0,0,1,.011.083.415.415,0,0,1-.02.077l.007,3.868a.375.375,0,0,0,.186.312l8.83,5.331c-.018-.012.008-.006.041.01a.258.258,0,0,1,.028.015m1.916.016,0,0Zm11.281-10.774h0Z" fill="#053760"/>
          <path id="パス_24852" data-name="パス 24852" d="M111.805,117.6a2.535,2.535,0,0,1-1.168-.284l0,0a.152.152,0,0,1-.075-.028l-8.831-5.332a.791.791,0,0,1-.384-.666V107.37a.24.24,0,0,1,.006-.048,2.181,2.181,0,0,1,1.09-2.188L113.39,98.7a.912.912,0,0,1,.935.03l8.746,5.3a.371.371,0,0,1,.089.077.07.07,0,0,1,.027.014,2.518,2.518,0,0,1,1.056,2.051.308.308,0,0,1,.009.062v4.144a.523.523,0,0,1-.256.459l-11.033,6.492a.228.228,0,0,1-.046.019l-.023.015A2.552,2.552,0,0,1,111.805,117.6Zm-.966-.644a2.168,2.168,0,0,0,1.82.061.189.189,0,0,1,.067-.045c.011,0,.033-.008.052-.013l11.008-6.477a.116.116,0,0,0,.054-.1v-4.117a.187.187,0,0,1-.009-.042.1.1,0,0,1,0-.024,2.1,2.1,0,0,0-.827-1.7.178.178,0,0,1-.079-.039.515.515,0,0,1-.061-.063l-8.752-5.311a.5.5,0,0,0-.513-.027L102.635,105.5a1.773,1.773,0,0,0-.879,1.76.184.184,0,0,1,.011.083.415.415,0,0,1-.02.077l.007,3.868a.375.375,0,0,0,.186.312l8.83,5.331c-.018-.012.008-.006.041.01A.258.258,0,0,1,110.839,116.953Zm1.916.016,0,0Zm11.281-10.774h0Z" fill="none" stroke="#153a64" stroke-miterlimit="10" stroke-width="0.5"/>
          <g id="グループ_823" data-name="グループ 823" opacity="0.3">
            <g id="グループ_822" data-name="グループ 822">
              <g id="グループ_821" data-name="グループ 821" clip-path="url(#clip-path-12)">
                <path id="パス_24853" data-name="パス 24853" d="M116.607,107.737a.094.094,0,0,0,.061-.041,1.931,1.931,0,0,0-.51-2.6,2.322,2.322,0,0,0-1.133-.476,2.977,2.977,0,0,0-3.294,2.061c-.167-.022-.375-.057-.6-.108l.284-2.19a2.567,2.567,0,0,0,2.122-.611,1.5,1.5,0,0,0-.2-2.351,2.018,2.018,0,0,0-2.681.123,2.363,2.363,0,0,0-.566,1.534,3.082,3.082,0,0,0-2.458.8,1.658,1.658,0,0,0,.194,2.662c.033.028.068.056.1.083a4.908,4.908,0,0,0,1.677.848l-.024.22a.207.207,0,0,0,.074.175l1,.786a.135.135,0,0,0,.132.021.127.127,0,0,0,.079-.1l.1-.793c.277.038.5.058.66.069a2.272,2.272,0,0,0,.879,1.365,3.474,3.474,0,0,0,.99.534c.137.047.336.094.358.1a.186.186,0,0,0,.141-.031l.959-.718a.074.074,0,0,0,.03-.076.071.071,0,0,0-.062-.052,2.733,2.733,0,0,1-1.341-.54,1.979,1.979,0,0,1-.475-.523,17.272,17.272,0,0,0,3.5-.168m-1.838-2.073a1.154,1.154,0,0,1,.557.231.972.972,0,0,1,.387.87,12.917,12.917,0,0,1-2.8.094,1.336,1.336,0,0,1,.163-.394,1.7,1.7,0,0,1,1.69-.8m-3.842,1.913-.021,0a.116.116,0,0,0-.085.021.1.1,0,0,0-.045.07l-.1.743-.877-.687a.074.074,0,0,1-.011-.024l.033-.293a.086.086,0,0,0-.067-.093l-.014,0a4.7,4.7,0,0,1-1.669-.831c-.033-.025-.066-.052-.1-.079a1.5,1.5,0,0,1-.191-2.4,2.937,2.937,0,0,1,2.37-.727h.019a.113.113,0,0,0,.116-.094l0-.017a2.3,2.3,0,0,1,.518-1.5,1.79,1.79,0,0,1,2.38-.1,1.328,1.328,0,0,1,.191,2.082c-.421.427-.931.563-2.019.54h-.03a.121.121,0,0,0-.078.025.106.106,0,0,0-.04.067l-.307,2.361a.088.088,0,0,0,.071.1l.015,0a6.887,6.887,0,0,0,.683.127,2.377,2.377,0,0,0-.07.78c-.17-.013-.4-.035-.68-.075" fill="#180d0d"/>
              </g>
            </g>
          </g>
          <g id="グループ_826" data-name="グループ 826" opacity="0.3">
            <g id="グループ_825" data-name="グループ 825">
              <g id="グループ_824" data-name="グループ 824" clip-path="url(#clip-path-13)">
                <path id="パス_24854" data-name="パス 24854" d="M110.181,104.238a.083.083,0,0,0-.024-.069.106.106,0,0,0-.073-.029h-.02a1.823,1.823,0,0,0-1.4.4.77.77,0,0,0,.066,1.218l.059.047a3.07,3.07,0,0,0,.992.526l.024.008a.125.125,0,0,0,.1-.013.1.1,0,0,0,.051-.076Zm-1.243,1.424-.057-.045a.59.59,0,0,1-.061-.952,1.53,1.53,0,0,1,1.139-.333l-.2,1.788a2.917,2.917,0,0,1-.82-.458" fill="#180d0d"/>
              </g>
            </g>
          </g>
          <g id="グループ_829" data-name="グループ 829" opacity="0.3">
            <g id="グループ_828" data-name="グループ 828">
              <g id="グループ_827" data-name="グループ 827" clip-path="url(#clip-path-14)">
                <path id="パス_24855" data-name="パス 24855" d="M111.335,103.23a.086.086,0,0,0,.032.076.115.115,0,0,0,.062.021h.019c.681.014.956-.051,1.179-.276a.563.563,0,0,0-.016-.877.722.722,0,0,0-.978.1c-.175.177-.239.379-.3.941Zm1.13-.908a.391.391,0,0,1,.009.609c-.142.143-.32.212-.918.207.05-.451.1-.616.23-.746a.49.49,0,0,1,.679-.07" fill="#180d0d"/>
              </g>
            </g>
          </g>
        </g>
      </g>
    </g>
  </g>
</svg>
