<svg xmlns="http://www.w3.org/2000/svg" xmlns:xlink="http://www.w3.org/1999/xlink" width="80" height="80" viewBox="0 0 80 80">
  <defs>
    <clipPath id="clip-path">
      <rect id="長方形_1235" data-name="長方形 1235" width="80" height="80" rx="4" transform="translate(239 1314)" fill="#063b79" stroke="#707070" stroke-width="1"/>
    </clipPath>
    <clipPath id="clip-path-2">
      <rect id="長方形_1234" data-name="長方形 1234" width="86.807" height="91.522" fill="none"/>
    </clipPath>
    <clipPath id="clip-path-3">
      <rect id="長方形_1227" data-name="長方形 1227" width="79" height="79" fill="none"/>
    </clipPath>
    <clipPath id="clip-path-4">
      <rect id="長方形_1226" data-name="長方形 1226" width="25.187" height="12.716" fill="none"/>
    </clipPath>
    <clipPath id="clip-path-5">
      <path id="パス_74621" data-name="パス 74621" d="M54.025,26.839A24.358,24.358,0,0,0,35.367,42.373L25.095,39.417,34.551,45a24.356,24.356,0,1,0,19.474-18.16" transform="translate(-25.095 -26.479)" fill="none"/>
    </clipPath>
  </defs>
  <g id="マスクグループ_46" data-name="マスクグループ 46" transform="translate(-239 -1314)" clip-path="url(#clip-path)">
    <rect id="長方形_1224" data-name="長方形 1224" width="89" height="86" transform="translate(237 1310)" fill="#fff"/>
    <g id="グループ_33694" data-name="グループ 33694" transform="translate(239 1314)">
      <g id="グループ_33693" data-name="グループ 33693" clip-path="url(#clip-path-2)">
        <rect id="長方形_1225" data-name="長方形 1225" width="79" height="79" fill="#fff"/>
        <g id="グループ_33688" data-name="グループ 33688">
          <g id="グループ_33687" data-name="グループ 33687" clip-path="url(#clip-path-3)">
            <path id="パス_74559" data-name="パス 74559" d="M13.627,53.214a1.426,1.426,0,0,1,.483.29c-.107-.065-.218-.121-.325-.187-.054-.032-.1-.07-.158-.1" transform="translate(-3.634 -14.19)" fill="#0e2f54"/>
            <path id="パス_74560" data-name="パス 74560" d="M22.075,30.428,23.4,40.622s2.733,1.33,4.358.59a6.176,6.176,0,0,0,2.512-3.029l-2.364-1.4-1.4.886s-1.33-7.313-4.432-7.239" transform="translate(-5.887 -8.114)" fill="#84c5df"/>
            <path id="パス_74561" data-name="パス 74561" d="M22.075,30.428,23.4,40.622s2.733,1.33,4.358.59a6.176,6.176,0,0,0,2.512-3.029l-2.364-1.4-1.4.886S25.178,30.354,22.075,30.428Z" transform="translate(-5.887 -8.114)" fill="none" stroke="#063964" stroke-linecap="round" stroke-linejoin="round" stroke-width="1"/>
            <g id="グループ_33686" data-name="グループ 33686" transform="translate(3.23 55.816)" opacity="0.3">
              <g id="グループ_33685" data-name="グループ 33685">
                <g id="グループ_33684" data-name="グループ 33684" clip-path="url(#clip-path-4)">
                  <path id="パス_74562" data-name="パス 74562" d="M29.591,82.47c0,3.511-5.639,6.358-12.594,6.358S4.4,85.981,4.4,82.47,10.043,76.112,17,76.112s12.594,2.847,12.594,6.358" transform="translate(-4.404 -76.112)" fill="#190e0e"/>
                </g>
              </g>
            </g>
            <path id="パス_74563" data-name="パス 74563" d="M19.87,85.8c-1.515.467-5.632-.67-6.181-1.6s.133-2.067.13-2.781a10.925,10.925,0,0,0,3.378.469c.254.192.634.846.95,1.091,1.25.969,3.238,2.358,1.723,2.826" transform="translate(-3.593 -21.709)" fill="#f3f4f4"/>
            <path id="パス_74564" data-name="パス 74564" d="M19.87,85.8c-1.515.467-5.632-.67-6.181-1.6s.133-2.067.13-2.781a10.925,10.925,0,0,0,3.378.469c.254.192.634.846.95,1.091C19.4,83.939,21.386,85.328,19.87,85.8Z" transform="translate(-3.593 -21.709)" fill="none" stroke="#082d4e" stroke-linecap="round" stroke-linejoin="round" stroke-width="1"/>
            <path id="パス_74565" data-name="パス 74565" d="M27.57,83.673c-1.389.765-5.18-1.174-5.515-2.078a18.842,18.842,0,0,1,0-2.158l3.249-.664L25.5,81c1.062.662,2.976,2.174,2.066,2.675" transform="translate(-5.871 -21.006)" fill="#f3f4f4"/>
            <path id="パス_74566" data-name="パス 74566" d="M27.57,83.673c-1.389.765-5.18-1.174-5.515-2.078a18.842,18.842,0,0,1,0-2.158l3.249-.664L25.5,81C26.566,81.66,28.48,83.172,27.57,83.673Z" transform="translate(-5.871 -21.006)" fill="none" stroke="#082d4e" stroke-linecap="round" stroke-linejoin="round" stroke-width="1"/>
            <path id="パス_74567" data-name="パス 74567" d="M13.428,49.815c-.428,1.779-.361,23.17-.361,23.17a5.892,5.892,0,0,0,4.9.654l.652-17.478.3,16.61a6.031,6.031,0,0,0,3.855-.535l-.02-22.3Z" transform="translate(-3.484 -13.284)" fill="#175f95"/>
            <path id="パス_74568" data-name="パス 74568" d="M13.428,49.815c-.428,1.779-.361,23.17-.361,23.17a5.892,5.892,0,0,0,4.9.654l.652-17.478.3,16.61a6.031,6.031,0,0,0,3.855-.535l-.02-22.3Z" transform="translate(-3.484 -13.284)" fill="none" stroke="#063964" stroke-linecap="round" stroke-linejoin="round" stroke-width="1"/>
            <path id="パス_74569" data-name="パス 74569" d="M12.139,43.119a2.576,2.576,0,0,1-1.451-1.036c-1.779-2.673-.5-9.259.694-10.707.795-.964,5.768-2.064,5.768-2.064a18.256,18.256,0,0,1,2.837,1.63c1.783,1.3,1.871,3.938,1.847,6.057-.038,3.277.588,8.573.588,8.573-3.622,1.1-10.319.378-10.319.378Z" transform="translate(-2.615 -7.816)" fill="#84c5df"/>
            <path id="パス_74570" data-name="パス 74570" d="M12.139,43.119a2.576,2.576,0,0,1-1.451-1.036c-1.779-2.673-.5-9.259.694-10.707.795-.964,5.768-2.064,5.768-2.064a18.256,18.256,0,0,1,2.837,1.63c1.783,1.3,1.871,3.938,1.847,6.057-.038,3.277.588,8.573.588,8.573-3.622,1.1-10.319.378-10.319.378Z" transform="translate(-2.615 -7.816)" fill="none" stroke="#063964" stroke-linecap="round" stroke-linejoin="round" stroke-width="1"/>
            <path id="パス_74571" data-name="パス 74571" d="M22.977,17.755s1.138,6.131-.961,7.281a3.008,3.008,0,0,1-2.124.506v1.415S18.364,28.284,16.4,26.3a11.877,11.877,0,0,1-.258-2.709s-1.564-.909-1.418-2.292c.26-2.472.743-4.491,1.928-5.712,1-1.026,5.361-1.322,6.322,2.167" transform="translate(-3.924 -3.974)" fill="#f7d7c5"/>
            <path id="パス_74572" data-name="パス 74572" d="M22.977,17.755s1.138,6.131-.961,7.281a3.008,3.008,0,0,1-2.124.506v1.415S18.364,28.284,16.4,26.3a11.877,11.877,0,0,1-.258-2.709s-1.564-.909-1.418-2.292c.26-2.472.743-4.491,1.928-5.712C17.65,14.562,22.016,14.265,22.977,17.755Z" transform="translate(-3.924 -3.974)" fill="none" stroke="#063964" stroke-linecap="round" stroke-linejoin="round" stroke-width="1"/>
            <path id="パス_74573" data-name="パス 74573" d="M20.856,22.682a.5.5,0,1,1-.57-.438.508.508,0,0,1,.57.438" transform="translate(-5.294 -5.93)" fill="#0c2d51"/>
            <path id="パス_74574" data-name="パス 74574" d="M24.341,22.682a.5.5,0,1,1-.57-.438.508.508,0,0,1,.57.438" transform="translate(-6.223 -5.93)" fill="#0c2d51"/>
            <path id="パス_74575" data-name="パス 74575" d="M16.519,19.866l.505-2.124s4.476.43,7.1-.835a17.286,17.286,0,0,1-1.623-1.068c.557-.535,1.217-1.3.971-1.727-.305-.534-2.018.062-2.707.327a3.887,3.887,0,0,0-.52-.229l.483-1.236a5.309,5.309,0,0,0-1.777.939,4.684,4.684,0,0,0-3.749,1.3,5.963,5.963,0,0,0-.455,6.422,1.627,1.627,0,0,1,1.767-1.774" transform="translate(-3.739 -3.46)" fill="#0c2d51"/>
            <path id="パス_74576" data-name="パス 74576" d="M16.519,19.866l.505-2.124s4.476.43,7.1-.835a17.286,17.286,0,0,1-1.623-1.068c.557-.535,1.217-1.3.971-1.727-.305-.534-2.018.062-2.707.327a3.887,3.887,0,0,0-.52-.229l.483-1.236a5.309,5.309,0,0,0-1.777.939,4.684,4.684,0,0,0-3.749,1.3,5.963,5.963,0,0,0-.455,6.422A1.627,1.627,0,0,1,16.519,19.866Z" transform="translate(-3.739 -3.46)" fill="none" stroke="#082d4e" stroke-linecap="round" stroke-linejoin="round" stroke-width="1"/>
            <path id="パス_74577" data-name="パス 74577" d="M16.728,38.749l2.089,1.063s3.153-1.253,2.839-2.466c-.18-.7,1.631-1.555-.114-1.973-1.035-.247-3.218,1.253-3.868,2.01Z" transform="translate(-4.461 -9.425)" fill="#f7d7c5"/>
            <path id="パス_74578" data-name="パス 74578" d="M16.728,38.749l2.089,1.063s3.153-1.253,2.839-2.466c-.18-.7,1.631-1.555-.114-1.973-1.035-.247-3.218,1.253-3.868,2.01Z" transform="translate(-4.461 -9.425)" fill="none" stroke="#063964" stroke-linecap="round" stroke-linejoin="round" stroke-width="1"/>
            <path id="パス_74579" data-name="パス 74579" d="M13.026,45.709a2.869,2.869,0,0,0,2.867-.892,12.462,12.462,0,0,0,2.766-4.125L15.9,38.99l-2.82,2.789" transform="translate(-3.474 -10.397)" fill="#84c5df"/>
            <path id="パス_74580" data-name="パス 74580" d="M13.026,45.709a2.869,2.869,0,0,0,2.867-.892,12.462,12.462,0,0,0,2.766-4.125L15.9,38.99l-2.82,2.789" transform="translate(-3.474 -10.397)" fill="none" stroke="#063964" stroke-linecap="round" stroke-linejoin="round" stroke-width="1"/>
            <path id="パス_74581" data-name="パス 74581" d="M28.32,35.6l3.25-1.255,2.068-5.836-3.25,1.255Z" transform="translate(-7.552 -7.604)" fill="#398c97"/>
            <path id="パス_74582" data-name="パス 74582" d="M28.32,35.6l3.25-1.255,2.068-5.836-3.25,1.255Z" transform="translate(-7.552 -7.604)" fill="none" stroke="#063964" stroke-linecap="round" stroke-linejoin="round" stroke-width="1"/>
            <path id="パス_74583" data-name="パス 74583" d="M32.913,36.778s-.37-2.068-.738-1.921-.444.739-.444.739-1.625-.813-2.068-.3,0,1.847.37,2.29a6.643,6.643,0,0,0,1.4,1.033c.222.149.887.075,1.478-1.846" transform="translate(-7.86 -9.293)" fill="#f7d7c5"/>
            <path id="パス_74584" data-name="パス 74584" d="M32.913,36.778s-.37-2.068-.738-1.921-.444.739-.444.739-1.625-.813-2.068-.3,0,1.847.37,2.29a6.643,6.643,0,0,0,1.4,1.033C31.657,38.772,32.322,38.7,32.913,36.778Z" transform="translate(-7.86 -9.293)" fill="none" stroke="#063964" stroke-linecap="round" stroke-linejoin="round" stroke-width="1"/>
            <line id="線_15579" data-name="線 15579" x1="1.625" y2="0.147" transform="translate(15.819 19.211)" fill="none" stroke="#082d4e" stroke-linecap="round" stroke-linejoin="round" stroke-width="0.84"/>
          </g>
        </g>
        <g id="グループ_33690" data-name="グループ 33690" transform="translate(18.403 19.418)">
          <g id="グループ_33689" data-name="グループ 33689" clip-path="url(#clip-path-5)">
            <path id="パス_74585" data-name="パス 74585" d="M87.08,77.657s-.7-8.832-1.2-11.442-2.811-6.122-3.212-8.13.494-6.291-.4-7.627-2.81-.2-3.613,1.706-1.3,16.16-1.3,16.16S56.831,54.935,56.53,54.734a36.65,36.65,0,0,0-6.545-.367A2.19,2.19,0,0,0,48.593,58.1c1.773,1.5,12.3,2.81,12.3,2.81s-10.4-.986-10.916-1c-1.4-.025-2.652,1.244-1.7,3.341.987,2.163,13.806,4.918,13.806,4.918s-9.971-2.116-11.717-2.316a2.053,2.053,0,0,0-1.082,3.911c3.007,1.68,10.13,2.689,10.13,2.689s-8.158-1.083-9.368-1.144a1.561,1.561,0,0,0-1.351,2.572c1.672,2.681,10.947,5.487,15.247,6.593,4.522,1.163,9.79,5.911,9.79,5.911l16.561,18.067,8.933-9.334Z" transform="translate(-31.187 -32.718)" fill="#f7d7c5"/>
            <path id="パス_74586" data-name="パス 74586" d="M87.08,77.657s-.7-8.832-1.2-11.442-2.811-6.122-3.212-8.13.494-6.291-.4-7.627-2.81-.2-3.613,1.706-1.3,16.16-1.3,16.16S56.831,54.935,56.53,54.734a36.65,36.65,0,0,0-6.545-.367A2.19,2.19,0,0,0,48.593,58.1c1.773,1.5,12.3,2.81,12.3,2.81s-10.4-.986-10.916-1c-1.4-.025-2.652,1.244-1.7,3.341.987,2.163,13.806,4.918,13.806,4.918s-9.971-2.116-11.717-2.316a2.053,2.053,0,0,0-1.082,3.911c3.007,1.68,10.13,2.689,10.13,2.689s-8.158-1.083-9.368-1.144a1.561,1.561,0,0,0-1.351,2.572c1.672,2.681,10.947,5.487,15.247,6.593,4.522,1.163,9.79,5.911,9.79,5.911l16.561,18.067,8.933-9.334Z" transform="translate(-31.187 -32.718)" fill="none" stroke="#063964" stroke-linecap="round" stroke-linejoin="round" stroke-width="1"/>
            <path id="パス_74587" data-name="パス 74587" d="M73.492,86.628H56.705a5.458,5.458,0,0,1-5.457-5.458V39.291a5.458,5.458,0,0,1,5.457-5.457H73.492a5.458,5.458,0,0,1,5.458,5.457V81.169a5.458,5.458,0,0,1-5.458,5.458" transform="translate(-32.069 -28.44)" fill="#fff"/>
            <path id="長方形_1228" data-name="長方形 1228" d="M7.443,0H20.26A7.442,7.442,0,0,1,27.7,7.442v37.91a7.442,7.442,0,0,1-7.442,7.442H7.442A7.442,7.442,0,0,1,0,45.352V7.443A7.443,7.443,0,0,1,7.443,0Z" transform="translate(19.179 5.394)" fill="none" stroke="#073358" stroke-linecap="round" stroke-linejoin="round" stroke-width="1"/>
            <path id="パス_74588" data-name="パス 74588" d="M76.75,86.628h-23.3a2.2,2.2,0,0,1-2.2-2.2V36.034a2.2,2.2,0,0,1,2.2-2.2h23.3a2.2,2.2,0,0,1,2.2,2.2V84.428a2.2,2.2,0,0,1-2.2,2.2M54.081,35.386A1.413,1.413,0,0,0,52.668,36.8V83.662a1.413,1.413,0,0,0,1.413,1.413H76.117a1.412,1.412,0,0,0,1.413-1.413V36.8a1.413,1.413,0,0,0-1.413-1.413H72.14v.788a1.376,1.376,0,0,1-1.376,1.376H59.515a1.376,1.376,0,0,1-1.376-1.376v-.788Z" transform="translate(-32.069 -28.44)" fill="#0a396f"/>
            <path id="パス_74589" data-name="パス 74589" d="M76.75,86.628h-23.3a2.2,2.2,0,0,1-2.2-2.2V36.034a2.2,2.2,0,0,1,2.2-2.2h23.3a2.2,2.2,0,0,1,2.2,2.2V84.428A2.2,2.2,0,0,1,76.75,86.628ZM54.081,35.386A1.413,1.413,0,0,0,52.668,36.8V83.662a1.413,1.413,0,0,0,1.413,1.413H76.117a1.412,1.412,0,0,0,1.413-1.413V36.8a1.413,1.413,0,0,0-1.413-1.413H72.14v.788a1.376,1.376,0,0,1-1.376,1.376H59.515a1.376,1.376,0,0,1-1.376-1.376v-.788Z" transform="translate(-32.069 -28.44)" fill="none" stroke="#073358" stroke-linecap="round" stroke-linejoin="round" stroke-width="1"/>
            <path id="パス_74590" data-name="パス 74590" d="M63.95,77.393H59.472a1.826,1.826,0,0,1-1.826-1.825V74.5a1.826,1.826,0,0,1,1.826-1.826H63.95A1.826,1.826,0,0,1,65.776,74.5v1.066a1.825,1.825,0,0,1-1.825,1.825" transform="translate(-33.775 -38.798)" fill="#073358"/>
            <path id="長方形_1229" data-name="長方形 1229" d="M2.358,0H5.771A2.359,2.359,0,0,1,8.13,2.359v0A2.359,2.359,0,0,1,5.771,4.718H2.358A2.358,2.358,0,0,1,0,2.36v0A2.358,2.358,0,0,1,2.358,0Z" transform="translate(23.871 33.877)" fill="none" stroke="#063964" stroke-linecap="round" stroke-linejoin="round" stroke-width="1"/>
            <path id="パス_74591" data-name="パス 74591" d="M77.842,77.393H73.364a1.826,1.826,0,0,1-1.826-1.825V74.5a1.826,1.826,0,0,1,1.826-1.826h4.478A1.826,1.826,0,0,1,79.668,74.5v1.066a1.825,1.825,0,0,1-1.825,1.825" transform="translate(-37.48 -38.798)" fill="#fff"/>
            <path id="長方形_1230" data-name="長方形 1230" d="M2.358,0H5.771A2.359,2.359,0,0,1,8.13,2.359v0A2.359,2.359,0,0,1,5.771,4.718H2.359A2.359,2.359,0,0,1,0,2.359v0A2.358,2.358,0,0,1,2.358,0Z" transform="translate(34.059 33.877)" fill="none" stroke="#063964" stroke-linecap="round" stroke-linejoin="round" stroke-width="1"/>
            <path id="パス_74592" data-name="パス 74592" d="M60.669,76.4c0-.021,0-.034-.01-.083a3.982,3.982,0,0,1-.057-.672,3.716,3.716,0,0,1,.04-.56c.01-.064.01-.064.056-.3a1.149,1.149,0,0,0,.023-.156v-.008l.285.029a3.383,3.383,0,0,0-.169,1.061c0,.076,0,.076,0,.109v.034a.341.341,0,0,1,0,.044h0c.01-.023.01-.023.025-.061,0-.015.015-.038.026-.072l.04-.1a.565.565,0,0,0,.025-.065l.175.078a1.767,1.767,0,0,0-.209.647.4.4,0,0,0,0,.057Zm.477-1.385a1.506,1.506,0,0,0,.383.034c.074,0,.12,0,.194,0,0-.125,0-.23,0-.317a.573.573,0,0,0-.007-.1l.265-.006a1.98,1.98,0,0,0-.015.31v.1a2.346,2.346,0,0,0,.286-.051l.046-.017.017,0,.008.239a.281.281,0,0,0-.061.01c-.072.015-.182.034-.294.046V75.3c0,.118,0,.122.021.477a1.719,1.719,0,0,1,.332.192.352.352,0,0,0,.059.036l-.1.256a.8.8,0,0,0-.158-.136l-.133-.087v.029a.358.358,0,0,1-.017.119.4.4,0,0,1-.4.2c-.277,0-.446-.131-.446-.347s.18-.348.435-.348a.5.5,0,0,1,.188.029c-.007-.053-.009-.156-.017-.45-.085,0-.136,0-.191,0-.078,0-.162,0-.262-.01-.03,0-.053,0-.064,0a.292.292,0,0,0-.035,0,.1.1,0,0,0-.021,0,.033.033,0,0,0-.012,0Zm.429.886c-.135,0-.219.053-.219.139s.076.131.194.131a.207.207,0,0,0,.171-.066.175.175,0,0,0,.027-.114v-.057a.434.434,0,0,0-.173-.034" transform="translate(-34.563 -39.317)" fill="#fff"/>
            <path id="パス_74593" data-name="パス 74593" d="M63.788,74.825a2.387,2.387,0,0,0-.017.321,4.046,4.046,0,0,0,.04.567c.036.219.1.355.172.355.032,0,.061-.032.087-.091a1.58,1.58,0,0,0,.112-.383,1.038,1.038,0,0,0,.211.192c-.11.412-.232.584-.412.584-.142,0-.255-.1-.34-.307a3.181,3.181,0,0,1-.133-1.1.982.982,0,0,0-.009-.136Zm1,.1a2.1,2.1,0,0,1,.475,1.137l-.262.1a2.18,2.18,0,0,0-.135-.611,1.863,1.863,0,0,0-.3-.52Z" transform="translate(-35.336 -39.371)" fill="#fff"/>
            <path id="パス_74594" data-name="パス 74594" d="M73.377,74.894a2.387,2.387,0,0,0-.017.321,3.927,3.927,0,0,0,.04.567c.035.219.1.355.171.355.032,0,.061-.032.087-.091a1.58,1.58,0,0,0,.112-.383,1.039,1.039,0,0,0,.211.192c-.11.412-.232.584-.412.584-.142,0-.255-.1-.34-.307a3.181,3.181,0,0,1-.133-1.1.982.982,0,0,0-.009-.136Zm1,.1a2.1,2.1,0,0,1,.475,1.137l-.262.1a2.181,2.181,0,0,0-.135-.611,1.863,1.863,0,0,0-.3-.52Z" transform="translate(-37.893 -39.389)" fill="#073358"/>
            <path id="パス_74595" data-name="パス 74595" d="M76.259,74.894a2.389,2.389,0,0,0-.017.321,3.926,3.926,0,0,0,.04.567c.035.219.1.355.171.355.032,0,.061-.032.087-.091a1.58,1.58,0,0,0,.112-.383,1.039,1.039,0,0,0,.211.192c-.11.412-.232.584-.412.584-.142,0-.255-.1-.34-.307a3.181,3.181,0,0,1-.133-1.1.984.984,0,0,0-.009-.136Zm1,.1a2.1,2.1,0,0,1,.475,1.137l-.262.1a2.18,2.18,0,0,0-.135-.611,1.863,1.863,0,0,0-.3-.52Z" transform="translate(-38.661 -39.389)" fill="#073358"/>
            <path id="パス_74596" data-name="パス 74596" d="M78.946,75.2a.857.857,0,0,0,.125.007,7.151,7.151,0,0,0,.75-.047.515.515,0,0,0,.169-.034l.142.182a1.5,1.5,0,0,0-.179.158c-.114.11-.3.273-.362.323a.328.328,0,0,1,.13-.025.19.19,0,0,1,.175.089.341.341,0,0,1,.046.194c.015.166.043.2.182.2a1.108,1.108,0,0,0,.416-.081l.032.263a1.582,1.582,0,0,0-.186.025,1.853,1.853,0,0,1-.3.026.4.4,0,0,1-.3-.081c-.059-.055-.076-.106-.087-.272a.343.343,0,0,0-.021-.136.1.1,0,0,0-.089-.044c-.1,0-.194.059-.365.224-.108.1-.222.226-.3.315l-.194-.22a4.379,4.379,0,0,0,.49-.423c.048-.044.087-.08.245-.232l.247-.234c-.12.018-.175.027-.274.036l-.213.017-.11.01c-.078.007-.093.009-.163.017Zm.262-.547a3.012,3.012,0,0,0,.841.118l-.04.237a3.894,3.894,0,0,1-.877-.125Z" transform="translate(-39.4 -39.326)" fill="#073358"/>
            <rect id="長方形_1231" data-name="長方形 1231" width="24.862" height="7.242" transform="translate(20.621 14.774)" fill="#bad5e0"/>
            <rect id="長方形_1232" data-name="長方形 1232" width="24.862" height="7.242" transform="translate(20.621 14.774)" fill="none" stroke="#063964" stroke-linecap="round" stroke-linejoin="round" stroke-width="1"/>
            <path id="パス_74597" data-name="パス 74597" d="M60.043,51.4h-.667a2.251,2.251,0,0,0-.26.012v-.246a2.023,2.023,0,0,0,.265.012h.662V51.07h-.6c-.1,0-.172,0-.236.008.005-.059.008-.118.008-.188V50.7c0-.078,0-.13-.008-.2.073.006.132.009.239.009h.595v-.107h-.772a2.618,2.618,0,0,0-.329.017v-.279a2.5,2.5,0,0,0,.346.018h.755a1.084,1.084,0,0,0-.017-.192h.341a.814.814,0,0,0-.02.192h.792a2.54,2.54,0,0,0,.346-.018v.279a2.618,2.618,0,0,0-.329-.017h-.809v.107h.637c.107,0,.169,0,.237-.009a1.849,1.849,0,0,0-.009.2v.186a1.7,1.7,0,0,0,.009.188c-.062-.006-.135-.008-.225-.008h-.648v.107h.631c.166,0,.223,0,.3-.009a2,2,0,0,0-.008.257v.1a1.649,1.649,0,0,0,.245-.014v.268a1.627,1.627,0,0,0-.245-.014v.164a2.174,2.174,0,0,0,.014.3H60.97v-.11h-.623v.158c0,.254-.07.307-.414.307-.067,0-.18-.006-.271-.012a.8.8,0,0,0-.087-.279,3.226,3.226,0,0,0,.358.026c.087,0,.11-.015.11-.065v-.135h-.662a1.957,1.957,0,0,0-.279.014v-.262a2.133,2.133,0,0,0,.268.011h.673v-.121h-.809a2.053,2.053,0,0,0-.309.014V51.51a1.975,1.975,0,0,0,.3.014h.814Zm-.527-.549h.527v-.115h-.527Zm.832,0h.566v-.115h-.566Zm.623.549h-.623v.124h.623Zm-.623.485h.623v-.121h-.623Z" transform="translate(-34.116 -32.743)" fill="#073358"/>
            <path id="パス_74598" data-name="パス 74598" d="M63.977,52.031c0,.092,0,.149.006.211a1.8,1.8,0,0,0,.54-.422,2.46,2.46,0,0,1-.285-.677,1.278,1.278,0,0,1-.132.166.972.972,0,0,0-.18-.265,1.743,1.743,0,0,0,.367-.693,1.677,1.677,0,0,0,.084-.4L64.71,50c-.017.051-.028.09-.045.158-.023.087-.043.158-.079.271h.558a1.767,1.767,0,0,0,.279-.018v.3a1.968,1.968,0,0,0-.214-.011,2.284,2.284,0,0,1-.309,1.1,1.9,1.9,0,0,0,.574.462,1.1,1.1,0,0,0-.183.313,2.539,2.539,0,0,1-.584-.51,2.4,2.4,0,0,1-.653.516,1.022,1.022,0,0,0-.166-.285l-.107,0h-.535v.216h-.312a1.887,1.887,0,0,0,.017-.318v-.817c0-.084,0-.155-.009-.22a1.567,1.567,0,0,0,.229.012h.163v-.465h-.253a1.675,1.675,0,0,0-.26.014v-.3a1.807,1.807,0,0,0,.26.017h.253v-.147a1.759,1.759,0,0,0-.017-.318h.338a1.775,1.775,0,0,0-.017.318v.147h.206a1.7,1.7,0,0,0,.256-.017v.3c-.051-.006-.155-.011-.256-.011h-.206v.465h.119a1.687,1.687,0,0,0,.231-.012c-.006.068-.009.13-.009.223Zm-.733,0h.439v-.581h-.439ZM64.479,50.7c-.017.04-.023.051-.043.09a2.129,2.129,0,0,0,.271.747,2.021,2.021,0,0,0,.206-.837Z" transform="translate(-35.155 -32.737)" fill="#073358"/>
            <path id="パス_74599" data-name="パス 74599" d="M67.8,51.79c-.161.363-.341.529-.572.529-.321,0-.552-.327-.552-.78a1.208,1.208,0,0,1,.31-.82,1.262,1.262,0,0,1,.969-.395,1.016,1.016,0,0,1,1.116,1.045,1.085,1.085,0,0,1-.685,1.051,1.828,1.828,0,0,1-.442.118.916.916,0,0,0-.172-.329,1.508,1.508,0,0,0,.56-.155.79.79,0,0,0,.392-.7.7.7,0,0,0-.347-.626.611.611,0,0,0-.285-.084,4.063,4.063,0,0,1-.293,1.15m-.414-1.009a.945.945,0,0,0-.383.761c0,.23.1.414.222.414.093,0,.188-.118.29-.36a3.715,3.715,0,0,0,.234-.953.721.721,0,0,0-.364.138" transform="translate(-36.183 -32.838)" fill="#073358"/>
            <path id="パス_74600" data-name="パス 74600" d="M71.168,51.483c-.177.149-.257.267-.257.389,0,.183.206.262.682.262a2.908,2.908,0,0,0,.885-.121l.031.386c-.048,0-.065.006-.124.012a4.556,4.556,0,0,1-.761.065,2,2,0,0,1-.7-.093.486.486,0,0,1-.361-.47.8.8,0,0,1,.364-.615Zm-.428-1.158a3.712,3.712,0,0,0,.846.07,3.543,3.543,0,0,0,.744-.053l.012.318a4.875,4.875,0,0,0-.753.465l-.245-.2c.147-.092.285-.175.414-.25a3.015,3.015,0,0,1-.422.022,4.444,4.444,0,0,1-.516-.034l-.1-.008Zm1.412.566a1.4,1.4,0,0,1,.257.355l-.206.121A1.744,1.744,0,0,0,71.945,51Zm.352.3a1.873,1.873,0,0,0-.251-.35l.2-.109a1.514,1.514,0,0,1,.257.338Z" transform="translate(-37.219 -32.838)" fill="#073358"/>
            <path id="パス_74601" data-name="パス 74601" d="M73.941,51.06a1.217,1.217,0,0,0,.226.015h.211a1.233,1.233,0,0,0,.214-.015,2.733,2.733,0,0,0-.012.307v.6a.4.4,0,0,0,.13.147,1.127,1.127,0,0,0,.654.121,8.794,8.794,0,0,0,1.206-.056,1.316,1.316,0,0,0-.084.332c-.237.011-.645.017-.981.017a1.709,1.709,0,0,1-.822-.107.608.608,0,0,1-.248-.2,2.826,2.826,0,0,1-.33.271c-.031.026-.056.043-.081.065l-.138-.321a1.7,1.7,0,0,0,.4-.274V51.35H74.13a1.074,1.074,0,0,0-.189.014Zm.231-1.048a3.5,3.5,0,0,1,.491.507l-.237.228a2.85,2.85,0,0,0-.479-.527Zm.727.437a1.049,1.049,0,0,0-.231.014v-.279a2.362,2.362,0,0,0,.318.014h.425a1.541,1.541,0,0,0-.017-.211h.315a1.513,1.513,0,0,0-.017.211h.465c.135,0,.24-.006.321-.014v.279a1.685,1.685,0,0,0-.285-.014h-.5v.135h.437a2.036,2.036,0,0,0,.234-.011,1.539,1.539,0,0,0-.012.217v.58a1.367,1.367,0,0,0,.012.205c-.079-.005-.142-.008-.234-.008h-.437V51.7h.516a2.161,2.161,0,0,0,.282-.011v.274a1.684,1.684,0,0,0-.282-.015h-.516a1.565,1.565,0,0,0,.017.237h-.315a1.431,1.431,0,0,0,.02-.237h-.448a2.475,2.475,0,0,0-.279.012v-.271a1.973,1.973,0,0,0,.279.011h.448v-.135h-.4c-.084,0-.164,0-.234.008a1.444,1.444,0,0,0,.012-.205v-.6a1.432,1.432,0,0,0-.012-.2,1.918,1.918,0,0,0,.231.011h.4v-.135Zm.169.518h.347V50.81h-.347Zm0,.372h.347v-.164h-.347Zm.626-.372h.375V50.81h-.375Zm0,.372h.375v-.164h-.375Z" transform="translate(-38.105 -32.748)" fill="#073358"/>
            <path id="パス_74602" data-name="パス 74602" d="M78.226,51.6a3.817,3.817,0,0,1-.109.84l-.252-.1a2.718,2.718,0,0,0,.116-.8Zm.555-.09c-.008-.04-.02-.082-.031-.13-.07.011-.1.014-.166.02v.887a1.732,1.732,0,0,0,.017.3h-.3a1.662,1.662,0,0,0,.017-.3v-.865c-.051,0-.1.008-.124.008l-.115.011c-.1.006-.127.009-.172.015l-.032-.293a.444.444,0,0,0,.113.009l.116,0c.051-.067.067-.09.121-.169a2.726,2.726,0,0,0-.353-.459l.147-.242c.048.054.073.084.1.115a1.7,1.7,0,0,0,.2-.462l.279.107a.761.761,0,0,0-.059.1,4.543,4.543,0,0,1-.251.462,1.34,1.34,0,0,1,.1.136,2.843,2.843,0,0,0,.268-.5l.268.132c-.009.012-.059.09-.147.231s-.251.37-.378.532c.155-.008.194-.011.287-.022a1.351,1.351,0,0,0-.079-.186l.211-.076a2.391,2.391,0,0,1,.155.381,1.818,1.818,0,0,0,.5-.254,2.114,2.114,0,0,1-.228-.273,1.767,1.767,0,0,1-.251.231.656.656,0,0,0-.191-.217,1.473,1.473,0,0,0,.411-.406,1.33,1.33,0,0,0,.188-.364l.3.1-.043.073a.72.72,0,0,0-.048.079h.349a1.271,1.271,0,0,0,.246-.015l.149.175a1.052,1.052,0,0,0-.065.1,2.551,2.551,0,0,1-.372.5,2.079,2.079,0,0,0,.628.256,1.017,1.017,0,0,0-.135.3c-.051-.017-.062-.023-.1-.034a1.1,1.1,0,0,0-.006.155v.62a1.909,1.909,0,0,0,.014.285h-.309v-.133H79.4v.133h-.3a1.719,1.719,0,0,0,.015-.279v-.623a1.088,1.088,0,0,0-.006-.152c-.031.011-.048.02-.1.037a1.25,1.25,0,0,0-.051-.119Zm.09.04a4.715,4.715,0,0,1,.107.664l-.231.067a3.849,3.849,0,0,0-.093-.684Zm1.22-.056c.056,0,.076,0,.132,0a1.945,1.945,0,0,1-.529-.293,2.325,2.325,0,0,1-.5.293c.048,0,.073,0,.13,0Zm-.691.684h.606v-.417H79.4Zm.026-1.673a1.241,1.241,0,0,0,.259.315,1.436,1.436,0,0,0,.26-.335h-.5Z" transform="translate(-39.167 -32.737)" fill="#073358"/>
            <path id="パス_74603" data-name="パス 74603" d="M57.2,61.96c0-.091,0-.144.006-.249a1.087,1.087,0,0,1-.163.169.4.4,0,0,0-.074-.15,1.307,1.307,0,0,0,.421-.547l.144.089a3.128,3.128,0,0,1-.182.281v.841a1.5,1.5,0,0,0,.012.245h-.177a1.8,1.8,0,0,0,.013-.247Zm.318-1.17a1.2,1.2,0,0,0-.078.106,2.013,2.013,0,0,1-.355.376.423.423,0,0,0-.093-.131,1.2,1.2,0,0,0,.383-.439Zm.364.163c-.129.023-.169.029-.292.044a.405.405,0,0,0-.053-.129,3.118,3.118,0,0,0,.493-.078.825.825,0,0,0,.211-.07l.093.12a1.763,1.763,0,0,1-.318.087V61.1h.232a.7.7,0,0,0,.142-.011v.146a.968.968,0,0,0-.148-.009h-.227v.121h.229a1.1,1.1,0,0,0,.125-.007,1.085,1.085,0,0,0-.009.161v.336a1.461,1.461,0,0,0,.007.15c-.045,0-.1-.007-.148-.007h-.2v.133h.178a1.383,1.383,0,0,0,.173-.009v.137a1.483,1.483,0,0,0-.173-.008h-.178v.154c.119-.012.186-.023.364-.053l0,.122a1.742,1.742,0,0,0,.174.013c.044,0,.059-.011.059-.043v-.985H58.55a.688.688,0,0,0-.148.011v-.163a.734.734,0,0,0,.148.01h.241a.961.961,0,0,0,.171-.01v.163a.957.957,0,0,0-.171-.011h-.029v.993c0,.144-.047.178-.235.178-.043,0-.1,0-.173-.007a.467.467,0,0,0-.021-.139,6.578,6.578,0,0,1-.742.084,1.078,1.078,0,0,0-.111.012l-.023-.15c.023,0,.067,0,.106,0s.169-.006.317-.018v-.167h-.192a1.106,1.106,0,0,0-.169.01V62.1a.97.97,0,0,0,.169.011h.192v-.133h-.192c-.051,0-.108,0-.155.007,0-.043.007-.1.007-.153v-.342a1.5,1.5,0,0,0-.007-.152,1.155,1.155,0,0,0,.133.007h.213v-.121h-.235a.988.988,0,0,0-.139.009v-.146a.969.969,0,0,0,.169.011h.2Zm-.209.65h.209v-.142h-.209Zm0,.26h.209v-.146h-.209Zm.344-.26h.213v-.142h-.213Zm0,.26h.213v-.146h-.213ZM58.937,61a1.1,1.1,0,0,0-.163-.009h-.226a.6.6,0,0,0-.131.011V60.84a.855.855,0,0,0,.158.01h.2a1.038,1.038,0,0,0,.161-.008Z" transform="translate(-33.594 -35.605)" fill="#073358"/>
            <path id="パス_74604" data-name="パス 74604" d="M60.206,60.936a1.46,1.46,0,0,0-.19.009V60.82a1.249,1.249,0,0,0,.19.01h.222a.963.963,0,0,0-.01-.112h.154a.678.678,0,0,0-.011.112h.216a1.074,1.074,0,0,0,.18-.01v.125a1.65,1.65,0,0,0-.183-.009h-.212v.083h.188c.074,0,.117,0,.154,0a1.539,1.539,0,0,0,0,.161v.15c0,.092,0,.135,0,.166-.036,0-.082,0-.158,0h-.184v.085h.213a1.288,1.288,0,0,0,.184-.009v.093a1.056,1.056,0,0,0,.309-.081.671.671,0,0,1-.194-.224,1.025,1.025,0,0,0-.108.009v-.129a1.279,1.279,0,0,0,.167.008h.416a.893.893,0,0,0,.152-.008l.081.087a.28.28,0,0,0-.032.036,1.075,1.075,0,0,1-.232.226,1.521,1.521,0,0,0,.418.1.515.515,0,0,0-.065.142,1.726,1.726,0,0,1-.475-.167,1.326,1.326,0,0,1-.4.127.473.473,0,0,0-.051-.1c-.046,0-.091-.006-.172-.006h-.213a.825.825,0,0,0,.009.114h-.15a.951.951,0,0,0,.009-.114h-.22a1.461,1.461,0,0,0-.2.01v-.125a1.775,1.775,0,0,0,.2.009h.22v-.085h-.169a1.445,1.445,0,0,0-.166,0c0-.044.006-.087.006-.144v-.182c0-.059,0-.1-.006-.152.046,0,.087,0,.171,0h.165v-.083Zm.854,1.1h.463a1.6,1.6,0,0,0,.228-.011v.129c-.078,0-.119-.007-.228-.007h-.463v.1h.6a1.607,1.607,0,0,0,.237-.011v.142a1.615,1.615,0,0,0-.237-.012h-.6v.112c0,.139-.038.169-.229.169-.046,0-.074,0-.215-.006a.478.478,0,0,0-.04-.142,2,2,0,0,0,.264.017c.055,0,.067-.013.067-.062v-.089h-.655a1.645,1.645,0,0,0-.237.012v-.139a1.96,1.96,0,0,0,.237.009h.655v-.1H60.38c-.106,0-.163,0-.23.007v-.129a1.673,1.673,0,0,0,.23.011h.528v-.1c-.188,0-.19,0-.29,0-.084,0-.091,0-.364,0a.415.415,0,0,0-.037-.11c.167.007.3.009.448.009a3.238,3.238,0,0,0,.87-.072l.108.116a3.585,3.585,0,0,1-.583.053Zm-.833-.833h.2v-.093h-.2Zm0,.188h.2v-.1h-.2Zm.332-.188h.213v-.093H60.56Zm0,.188h.212v-.1h-.212Zm.687-.5a.337.337,0,0,1-.065.209.389.389,0,0,1-.165.122.3.3,0,0,0-.093-.108.254.254,0,0,0,.194-.283.326.326,0,0,0-.006-.065,1.188,1.188,0,0,0,.15.007h.2a1.088,1.088,0,0,0,.142-.007.992.992,0,0,0-.007.144V61c0,.036.007.04.065.04.111,0,.111,0,.117-.173a.294.294,0,0,0,.127.048c-.009.136-.019.178-.055.208a.308.308,0,0,1-.194.038c-.167,0-.194-.017-.194-.112V60.89Zm-.034.463a.508.508,0,0,0,.175.165.691.691,0,0,0,.194-.165Z" transform="translate(-34.406 -35.609)" fill="#073358"/>
            <path id="パス_74605" data-name="パス 74605" d="M63.567,61.054a.939.939,0,0,0,.1-.281l.2.029a.492.492,0,0,0-.051.108,1.4,1.4,0,0,1-.063.142c.015,0,.015,0,.133-.008a2.83,2.83,0,0,0,.57-.074l.013.169-.163.021c-.146.019-.417.038-.623.045a1.614,1.614,0,0,1-.172.268.6.6,0,0,1-.067.078c-.012.009-.021.015-.021.017l0,0,0,.007a.224.224,0,0,1,.029-.021.473.473,0,0,1,.072-.053.543.543,0,0,1,.291-.087.262.262,0,0,1,.285.23c.165-.064.252-.1.355-.131a.618.618,0,0,0,.148-.061l.076.173a3.263,3.263,0,0,0-.56.18c0,.07,0,.076,0,.122,0,.023,0,.067,0,.11v.087a.557.557,0,0,0,0,.087l-.173,0c.006-.043.012-.167.012-.281v-.066a1.335,1.335,0,0,0-.254.139.254.254,0,0,0-.125.2c0,.133.121.188.419.188a1.781,1.781,0,0,0,.575-.084l.019.194a.563.563,0,0,0-.087.01,3.511,3.511,0,0,1-.526.04.875.875,0,0,1-.433-.083.281.281,0,0,1-.144-.253.439.439,0,0,1,.224-.342,1.659,1.659,0,0,1,.31-.169c-.012-.1-.061-.15-.156-.15a.77.77,0,0,0-.458.221.744.744,0,0,0-.169.18l-.139-.139a2.1,2.1,0,0,0,.463-.583l.019-.034h-.038c-.042,0-.252,0-.3-.006a.358.358,0,0,0-.043,0,.2.2,0,0,0-.045,0l0-.174a2.659,2.659,0,0,0,.455.026Z" transform="translate(-35.206 -35.624)" fill="#073358"/>
            <path id="パス_74606" data-name="パス 74606" d="M66.521,61.263a1.778,1.778,0,0,1-.228.163.659.659,0,0,0-.1-.129l.057-.032c-.04,0-.068,0-.106,0h-.07a1.247,1.247,0,0,0,.241.41.518.518,0,0,0-.084.133,1.78,1.78,0,0,1-.176-.346c.007.076.011.218.011.323V62.4a1.769,1.769,0,0,0,.012.249h-.175a1.935,1.935,0,0,0,.012-.249v-.551c0-.091,0-.192.011-.317-.011.038-.019.067-.026.087a1.87,1.87,0,0,1-.211.518.5.5,0,0,0-.1-.15,1.993,1.993,0,0,0,.3-.72h-.106a.92.92,0,0,0-.144.008v-.163a.823.823,0,0,0,.144.009h.125v-.19a1.332,1.332,0,0,0-.01-.218h.173a1.441,1.441,0,0,0-.01.216v.192h.076a.7.7,0,0,0,.129-.009v.146a1.356,1.356,0,0,0,.5-.518h.172a1.077,1.077,0,0,0,.241.277,1.47,1.47,0,0,0,.414.26.587.587,0,0,0-.089.148,2.194,2.194,0,0,1-.266-.167v.12c-.055,0-.1-.006-.184-.006h-.12v.093c0,.032,0,.036,0,.076h.294c.087,0,.137,0,.19-.006,0,.056-.007.1-.007.154v.222a1.057,1.057,0,0,0,.007.158,1.7,1.7,0,0,0-.205-.009h-.243a.939.939,0,0,0,.6.421.648.648,0,0,0-.089.156,1.089,1.089,0,0,1-.626-.513.856.856,0,0,1-.593.513.422.422,0,0,0-.1-.146.974.974,0,0,0,.353-.154.54.54,0,0,0,.208-.277h-.2a1.643,1.643,0,0,0-.193.009,1.219,1.219,0,0,0,.007-.131v-.264a1.232,1.232,0,0,0-.007-.139,1.45,1.45,0,0,0,.184.006H66.8v-.169h-.091c-.087,0-.12,0-.184.006Zm-.029.406v.256h.275a2.139,2.139,0,0,0,.025-.256Zm.568-.439a1.411,1.411,0,0,0,.148,0,1.465,1.465,0,0,1-.345-.359,1.488,1.488,0,0,1-.3.359,1.393,1.393,0,0,0,.144,0Zm-.125.439a1.8,1.8,0,0,1-.023.256h.356v-.256Z" transform="translate(-35.896 -35.606)" fill="#073358"/>
            <path id="パス_74607" data-name="パス 74607" d="M68.938,61.147a1.4,1.4,0,0,1-.193.3.477.477,0,0,0-.127-.111,1.088,1.088,0,0,0,.277-.516.57.57,0,0,0,.021-.12l.171.03c-.01.029-.017.051-.036.114s-.029.1-.051.156h.364a1.057,1.057,0,0,0,.207-.012v.169a1.712,1.712,0,0,0-.207-.01h-.121c0,.232-.006.268-.015.376H69.4a1.3,1.3,0,0,0,.2-.012v.173a1.341,1.341,0,0,0-.2-.012h-.18c0,.036-.008.07-.015.106a1.289,1.289,0,0,0,.4.472.636.636,0,0,0-.1.154,1.644,1.644,0,0,1-.346-.433,1.148,1.148,0,0,1-.419.59.393.393,0,0,0-.125-.133.929.929,0,0,0,.374-.433,1.263,1.263,0,0,0,.08-.321h-.188a1.33,1.33,0,0,0-.226.012v-.173a1.326,1.326,0,0,0,.23.012h.2c.009-.135.009-.135.011-.376Zm.881,1.416H69.65a2.046,2.046,0,0,0,.012-.241v-1.2c0-.082,0-.147-.01-.221a1.2,1.2,0,0,0,.188.01h.429a1.249,1.249,0,0,0,.19-.01,1.685,1.685,0,0,0-.01.221V62.3a2.1,2.1,0,0,0,.012.258h-.173v-.148h-.469Zm0-.3h.467v-1.2h-.467Z" transform="translate(-36.699 -35.605)" fill="#073358"/>
            <path id="パス_74608" data-name="パス 74608" d="M72.092,60.859a1.769,1.769,0,0,0-.023.262c-.008.155-.021.666-.021.807a.6.6,0,0,0,.059.342.357.357,0,0,0,.309.125.588.588,0,0,0,.543-.367,1.185,1.185,0,0,0,.1-.339.662.662,0,0,0,.18.121,1.321,1.321,0,0,1-.239.5.76.76,0,0,1-.6.264.627.627,0,0,1-.353-.091.445.445,0,0,1-.156-.226,1.083,1.083,0,0,1-.029-.279c0-.128,0-.194.017-.858,0-.061,0-.109,0-.142a1.061,1.061,0,0,0-.007-.118Z" transform="translate(-37.567 -35.646)" fill="#073358"/>
            <path id="パス_74609" data-name="パス 74609" d="M75.731,62.495a1.586,1.586,0,0,0-.431-.3c-.047-.023-.047-.023-.122-.055a.526.526,0,0,1,0,.055.455.455,0,0,1-.051.218c-.055.1-.2.15-.4.15-.266,0-.433-.117-.433-.3,0-.208.2-.332.522-.332a1.206,1.206,0,0,1,.186.013c0-.051,0-.051-.01-.268l-.239,0a3.472,3.472,0,0,1-.363-.017c-.026,0-.043,0-.055,0h-.019l0-.164a2.649,2.649,0,0,0,.488.034c.049,0,.112,0,.184,0,0-.209,0-.23,0-.264-.072,0-.107,0-.147,0-.127,0-.359-.011-.51-.021a.352.352,0,0,0-.043,0,.165.165,0,0,0-.029,0l0-.172a2.735,2.735,0,0,0,.549.043c.04,0,.114,0,.177,0a1.675,1.675,0,0,0-.01-.291h.19a2.143,2.143,0,0,0-.015.285,2.87,2.87,0,0,0,.623-.084l.009.171a1.22,1.22,0,0,0-.153.019c-.182.025-.287.036-.48.046,0,.114,0,.146,0,.263a2.7,2.7,0,0,0,.579-.083l.009.172c-.036,0-.043,0-.2.027-.083.012-.271.029-.381.036.006.216.006.216.01.3a1.9,1.9,0,0,1,.587.307c.036.023.045.032.074.048Zm-.93-.42a.427.427,0,0,0-.294.089.131.131,0,0,0-.034.089c0,.1.1.154.271.154a.3.3,0,0,0,.224-.065.246.246,0,0,0,.043-.173c0-.017,0-.072,0-.072a.828.828,0,0,0-.207-.021" transform="translate(-38.205 -35.634)" fill="#073358"/>
            <path id="パス_74610" data-name="パス 74610" d="M77.333,60.859a1.769,1.769,0,0,0-.023.262c-.008.155-.021.666-.021.807a.6.6,0,0,0,.059.342.357.357,0,0,0,.309.125.588.588,0,0,0,.543-.367,1.184,1.184,0,0,0,.1-.339.662.662,0,0,0,.18.121,1.321,1.321,0,0,1-.239.5.76.76,0,0,1-.6.264.627.627,0,0,1-.353-.091.445.445,0,0,1-.156-.226,1.083,1.083,0,0,1-.029-.279c0-.128,0-.194.017-.858,0-.061,0-.109,0-.142a1.061,1.061,0,0,0-.007-.118Z" transform="translate(-38.964 -35.646)" fill="#073358"/>
            <path id="パス_74611" data-name="パス 74611" d="M79.4,61.145a1.548,1.548,0,0,0,.271.019c.034,0,.059,0,.117,0a2.554,2.554,0,0,0,.046-.355v-.028l.2.021c-.012.051-.012.051-.038.2-.012.072-.017.1-.027.15a1.8,1.8,0,0,0,.376-.069l.008.173-.061.01a3.046,3.046,0,0,1-.353.048c-.03.159-.085.389-.144.584a5.879,5.879,0,0,1-.241.661l-.186-.078a4.214,4.214,0,0,0,.392-1.158l-.176,0-.131,0H79.4Zm.977.784a.493.493,0,0,0-.089.12.294.294,0,0,0-.028.114c0,.116.127.182.356.182a1.533,1.533,0,0,0,.469-.076l.017.188-.1.017a2.233,2.233,0,0,1-.381.036c-.353,0-.539-.111-.539-.327a.51.51,0,0,1,.146-.321Zm.642-.34a1.812,1.812,0,0,0-.254-.017,1.962,1.962,0,0,0-.535.07l-.017-.169a2.494,2.494,0,0,1,.579-.07c.04,0,.07,0,.224.007Z" transform="translate(-39.566 -35.626)" fill="#073358"/>
            <path id="パス_74612" data-name="パス 74612" d="M82.79,62.752a.329.329,0,1,1-.328-.328.327.327,0,0,1,.328.328m-.52,0a.191.191,0,1,0,.192-.192.193.193,0,0,0-.192.192" transform="translate(-40.305 -36.064)" fill="#073358"/>
            <path id="パス_74613" data-name="パス 74613" d="M62.7,66.8h-.5a1.752,1.752,0,0,0-.2.009v-.148a1.269,1.269,0,0,0,.2.01h.5v-.118h-.45a1.448,1.448,0,0,0-.173.008,1.088,1.088,0,0,0,.008-.144v-.106a1.176,1.176,0,0,0-.008-.146,1.309,1.309,0,0,0,.175.009H62.7v-.12h-.609a1.837,1.837,0,0,0-.241.012v-.158a1.723,1.723,0,0,0,.248.012h.6a.846.846,0,0,0-.012-.18h.177a.665.665,0,0,0-.015.18h.632a1.7,1.7,0,0,0,.247-.012v.158a1.826,1.826,0,0,0-.238-.012H62.85v.12h.486a1.274,1.274,0,0,0,.173-.009,1.137,1.137,0,0,0-.008.146v.106a1.087,1.087,0,0,0,.008.144,1.394,1.394,0,0,0-.169-.008H62.85v.118h.465a2.088,2.088,0,0,0,.232-.008,1.732,1.732,0,0,0-.006.183v.083a1.131,1.131,0,0,0,.213-.013v.153a1.192,1.192,0,0,0-.213-.011V67.2a1.088,1.088,0,0,0,.012.216h-.165v-.085H62.85v.159c0,.156-.046.19-.266.19-.044,0-.107,0-.2-.009a.393.393,0,0,0-.044-.154,1.986,1.986,0,0,0,.268.021c.074,0,.093-.011.093-.055v-.153h-.512a1.387,1.387,0,0,0-.207.011v-.15a1.581,1.581,0,0,0,.2.009H62.7v-.138h-.632a1.478,1.478,0,0,0-.23.011v-.153a1.129,1.129,0,0,0,.228.013H62.7Zm-.461-.368H62.7V66.3H62.24Zm.61,0h.5V66.3h-.5Zm.539.368H62.85v.129h.539Zm-.539.4h.539v-.137H62.85Z" transform="translate(-34.893 -36.949)" fill="#073358"/>
            <path id="パス_74614" data-name="パス 74614" d="M65.437,66.685c.067,0,.12,0,.163-.006a1.458,1.458,0,0,0-.006.15v.463c0,.074,0,.122.006.169l-.064,0-.089,0h-.427v.167h-.169a1.3,1.3,0,0,0,.012-.208v-.587c0-.055,0-.106-.006-.15.042,0,.095.006.16.006h.144v-.41h-.218a1.262,1.262,0,0,0-.186.012v-.169a1.307,1.307,0,0,0,.186.012h.218v-.173a1.013,1.013,0,0,0-.013-.211h.182a1.081,1.081,0,0,0-.012.211v.173h.192a1.167,1.167,0,0,0,.184-.01v.165a1.3,1.3,0,0,0-.184-.011h-.192v.41Zm-.417.63h.419v-.488h-.419ZM66.68,66.27a1.077,1.077,0,0,0-.186-.01,1.765,1.765,0,0,1-.256.843,1.619,1.619,0,0,0,.486.414.471.471,0,0,0-.1.158,1.947,1.947,0,0,1-.48-.433,1.753,1.753,0,0,1-.532.433.5.5,0,0,0-.1-.153,1.421,1.421,0,0,0,.539-.417,1.759,1.759,0,0,1-.241-.572,1.429,1.429,0,0,1-.131.181.421.421,0,0,0-.1-.128,1.386,1.386,0,0,0,.279-.529,1.483,1.483,0,0,0,.072-.329l.18.029a.831.831,0,0,0-.036.125c-.04.144-.045.163-.067.23h.48a1.256,1.256,0,0,0,.2-.012Zm-.737-.01a.9.9,0,0,1-.038.084,1.752,1.752,0,0,0,.237.617,1.537,1.537,0,0,0,.139-.353,1.645,1.645,0,0,0,.053-.348Z" transform="translate(-35.672 -36.946)" fill="#073358"/>
            <path id="パス_74615" data-name="パス 74615" d="M67.782,66.191l.076,0c.029,0,.058,0,.122-.007.3-.021.875-.055,1.223-.07a1.5,1.5,0,0,0,.247-.021l.015.188H69.44a1.006,1.006,0,0,0-.538.181.672.672,0,0,0-.334.537.39.39,0,0,0,.316.383,1,1,0,0,0,.317.055l-.029.2a.489.489,0,0,0-.067-.012,1.159,1.159,0,0,1-.466-.156.529.529,0,0,1-.252-.457.848.848,0,0,1,.567-.744c-.136.021-.238.032-.466.047a5.824,5.824,0,0,0-.694.067Zm1.483.617a1.473,1.473,0,0,0-.187-.293l.117-.057a1.334,1.334,0,0,1,.192.29Zm.211-.1a1.431,1.431,0,0,0-.185-.29l.115-.057a1.441,1.441,0,0,1,.191.284Z" transform="translate(-36.478 -37.043)" fill="#073358"/>
            <path id="パス_74616" data-name="パス 74616" d="M71.576,65.956a1.052,1.052,0,0,0-.01-.122h.19a1.772,1.772,0,0,0-.01.276c.4,0,.556-.007.626-.015v.177a3.62,3.62,0,0,0-.389-.01h-.235v.406a.611.611,0,0,1,.054.262.666.666,0,0,1-.29.558,1.366,1.366,0,0,1-.348.171.542.542,0,0,0-.109-.163.772.772,0,0,0,.527-.342.474.474,0,0,0,.062-.213.324.324,0,0,1-.057.093.365.365,0,0,1-.626-.235.365.365,0,0,1,.391-.359.32.32,0,0,1,.235.085v-.015c0-.019,0-.129,0-.246-.362.007-.854.034-.985.055l-.007-.182c.043,0,.059,0,.092,0,.056,0,.07,0,.388-.012.18-.007.273-.009.51-.015Zm-.444.832a.2.2,0,0,0,.207.2.223.223,0,0,0,.235-.232.141.141,0,0,0-.043-.112.237.237,0,0,0-.166-.062.215.215,0,0,0-.232.205" transform="translate(-37.227 -36.974)" fill="#073358"/>
            <path id="パス_74617" data-name="パス 74617" d="M73.428,66.366c.076,0,.287-.026.465-.053a2.99,2.99,0,0,0,.059-.444v-.028l.2.021a1.428,1.428,0,0,0-.038.2c-.011.057-.034.19-.045.241.051,0,.083-.006.129-.006a.4.4,0,0,1,.3.1.448.448,0,0,1,.1.351,1.415,1.415,0,0,1-.147.739.237.237,0,0,1-.216.1.851.851,0,0,1-.319-.078.546.546,0,0,0,0-.072.6.6,0,0,0-.01-.118.829.829,0,0,0,.311.1c.051,0,.09-.032.118-.1a1.658,1.658,0,0,0,.084-.577c0-.216-.059-.283-.247-.283a1.243,1.243,0,0,0-.144.009,3.942,3.942,0,0,1-.31.883c-.03.059-.074.148-.138.266l-.173-.1a2.073,2.073,0,0,0,.22-.386,3.354,3.354,0,0,0,.224-.649,2.994,2.994,0,0,0-.41.074Zm1.416-.2a1.952,1.952,0,0,1,.439.769l-.166.089a1.758,1.758,0,0,0-.425-.782Z" transform="translate(-37.98 -36.976)" fill="#073358"/>
            <path id="パス_74618" data-name="パス 74618" d="M76.824,67.157a.945.945,0,0,0,.006-.133.375.375,0,0,1,.081-.262A.578.578,0,0,1,77.1,66.6a.813.813,0,0,0,.142-.114.241.241,0,0,0,.067-.161c0-.15-.129-.252-.321-.252a.342.342,0,0,0-.37.3l-.213-.029a.532.532,0,0,1,.172-.3.613.613,0,0,1,.419-.133.584.584,0,0,1,.375.114.363.363,0,0,1,.146.285.4.4,0,0,1-.048.205.57.57,0,0,1-.194.188c-.136.1-.163.116-.193.158a.3.3,0,0,0-.052.188.723.723,0,0,0,.008.11Zm.221.417h-.232V67.35h.232Z" transform="translate(-38.777 -36.993)" fill="#073358"/>
            <path id="パス_74619" data-name="パス 74619" d="M90.97,82.515s-3.91-2.679-1.805-10.846" transform="translate(-42.014 -38.529)" fill="#f7d7c5"/>
            <path id="パス_74620" data-name="パス 74620" d="M90.97,82.515s-3.91-2.679-1.805-10.846" transform="translate(-42.014 -38.529)" fill="none" stroke="#063964" stroke-linecap="round" stroke-linejoin="round" stroke-width="1"/>
          </g>
        </g>
        <g id="グループ_33692" data-name="グループ 33692">
          <g id="グループ_33691" data-name="グループ 33691" clip-path="url(#clip-path-3)">
            <path id="パス_74622" data-name="パス 74622" d="M34.713,32.265l5.326,5.848A24.421,24.421,0,1,0,41.6,35.865Z" transform="translate(-9.257 -7.054)" fill="none" stroke="#063964" stroke-linecap="round" stroke-linejoin="round" stroke-width="1"/>
          </g>
        </g>
      </g>
    </g>
  </g>
</svg>
