<svg height="108" viewBox="0 0 108 108" width="108" xmlns="http://www.w3.org/2000/svg" xmlns:xlink="http://www.w3.org/1999/xlink"><clipPath id="a"><path d="m0 0h108v108h-108z"/></clipPath><clipPath id="b"><path d="m49.253 45.801h53.182v34.451h-53.182z"/></clipPath><clipPath id="c"><path d="m7.134 67.95h52.433v35.273h-52.433z"/></clipPath><clipPath id="d"><path d="m34.935 32.09h14.835v12.149h-14.835z"/></clipPath><clipPath id="e"><path d="m0 0h108v108h-108z"/></clipPath><g clip-path="url(#e)"><path d="m0 0h108v108h-108z" fill="#fff"/><g clip-path="url(#a)"><g clip-path="url(#a)"><g clip-path="url(#b)" opacity=".3"><path d="m99.346 60.734c1.743-1.414 3.732-3.807 2.889-6.232s-16.823-8.584-16.823-8.584a1.138 1.138 0 0 0 -1.174.1l-34.519 25.242a1.138 1.138 0 0 0 .168 1.938 35.956 35.956 0 0 0 5.962 4.231 23.639 23.639 0 0 0 12.651 2.728 33.27 33.27 0 0 0 7.128-3c1.96-1.118 14.76-10.17 14.76-10.17s7.212-4.835 8.955-6.249" fill="#190e0e"/></g></g><path d="m82.2 66.187-4.836.938-.752-3.945 4.837-.938z" fill="#0e2f54"/><path d="m94.785 57.144-4.717 1.966-.868-4.973 4.837-.938z" fill="#0e2f54"/><g clip-path="url(#a)"><path d="m94.587 50.736c.857-.564 2.329-.645 2.82-.027a20.156 20.156 0 0 0 3.538-5.536 30.543 30.543 0 0 0 -.994-3.01s.884-2.09.008-3.042-15.342-5.221-15.891-5.089a22.817 22.817 0 0 0 -3.082 2.077 15.4 15.4 0 0 0 -7.046 2.044 50.74 50.74 0 0 0 -11.748 9.466 53.239 53.239 0 0 0 -7.122 12.348s-5.433 6.539-2.132 12.565c.95 1.736 10.623 6.075 16.126 4.551 5.232-1.449 7.229-3.634 7.473-4.944s-1.255-4.409 2.2-6.959c1.18-.872 1.94-.41 2.419.325 3.073-2.716 7.687-6.8 11.085-9.858a5.147 5.147 0 0 1 2.348-4.911" fill="#dca32f"/><path d="m84.1 33.529a82.064 82.064 0 0 1 8.106 2.217c1.432.443 3.5 1.1 5.211 1.713 2.523.905 2.783 1.188 2.908 1.323.923 1 .385 2.777.159 3.386a29.436 29.436 0 0 1 .944 2.883.5.5 0 0 1 -.038.348c-.11.217-.215.432-.327.659a18.759 18.759 0 0 1 -3.29 4.991.5.5 0 0 1 -.759-.028 1.063 1.063 0 0 0 -.808-.242 2.577 2.577 0 0 0 -1.345.375 4.66 4.66 0 0 0 -2.124 4.464.5.5 0 0 1 -.165.4c-3.364 3.024-7.887 7.031-11.088 9.861a.5.5 0 0 1 -.75-.1c-.373-.573-.7-.572-.813-.573a1.591 1.591 0 0 0 -.89.377c-2.388 1.763-2.181 3.793-2.031 5.275a5.1 5.1 0 0 1 .028 1.373 4.924 4.924 0 0 1 -2.057 2.728 17.338 17.338 0 0 1 -5.771 2.606 10.38 10.38 0 0 1 -2.755.337 25.2 25.2 0 0 1 -8.7-1.914c-2.057-.821-4.665-2.155-5.245-3.216a9.185 9.185 0 0 1 -1.121-4.761 12.509 12.509 0 0 1 .922-4.205 16.941 16.941 0 0 1 2.336-4.1c.621-1.452 1.623-3.651 2.915-6a40.537 40.537 0 0 1 4.256-6.406 42.008 42.008 0 0 1 6.135-5.674 47.966 47.966 0 0 1 5.743-3.9 15.813 15.813 0 0 1 7.119-2.1 17.168 17.168 0 0 1 3.148-2.072.64.64 0 0 1 .147-.025zm15.493 5.934c-.328-.3-2.837-1.266-7.712-2.772-3.82-1.18-7.156-2.09-7.74-2.159a24.13 24.13 0 0 0 -2.852 1.972.5.5 0 0 1 -.283.1 14.976 14.976 0 0 0 -6.8 1.965l-.033.019a50.517 50.517 0 0 0 -11.6 9.347c-3.379 4.041-6.053 9.894-7.046 12.223a.5.5 0 0 1 -.075.123 16.017 16.017 0 0 0 -2.231 3.919 11.49 11.49 0 0 0 -.843 3.858 8.2 8.2 0 0 0 1 4.234c.3.544 2.059 1.7 4.739 2.767a23.876 23.876 0 0 0 8.326 1.841 9.388 9.388 0 0 0 2.488-.3c5.216-1.445 6.926-3.542 7.115-4.554a4.614 4.614 0 0 0 -.04-1.088 8.1 8.1 0 0 1 .088-2.891 5.792 5.792 0 0 1 2.345-3.29 2.536 2.536 0 0 1 1.484-.572 1.782 1.782 0 0 1 1.294.578c3.112-2.751 7.308-6.471 10.513-9.35a6.206 6.206 0 0 1 .485-2.7 5.573 5.573 0 0 1 2.1-2.419 3.577 3.577 0 0 1 1.9-.54 2.419 2.419 0 0 1 1.14.25 17.886 17.886 0 0 0 2.82-4.412c.081-.164.163-.332.247-.5-.182-.68-.474-1.549-.931-2.78a.5.5 0 0 1 .008-.369c.187-.463.624-1.916.096-2.5z" fill="#063964"/><path d="m97.407 50.709a6.6 6.6 0 0 1 1.019 2.09s1.272-.951 2.272-4.081a5.088 5.088 0 0 0 .247-3.546 20.2 20.2 0 0 1 -3.538 5.537" fill="#cb5d46"/><path d="m98.426 53.3a.5.5 0 0 1 -.483-.371 6.129 6.129 0 0 0 -.928-1.908.5.5 0 0 1 .024-.65 17.717 17.717 0 0 0 3.129-4.756c.108-.219.219-.445.331-.667a.5.5 0 0 1 .931.1 5.382 5.382 0 0 1 -.2 3.639l-.058.181c-1.037 3.245-2.392 4.286-2.449 4.329a.5.5 0 0 1 -.297.103zm-.378-2.554a6.751 6.751 0 0 1 .575 1.107 10.75 10.75 0 0 0 1.6-3.286l.059-.183a6.616 6.616 0 0 0 .366-1.487 17.591 17.591 0 0 1 -2.6 3.848z" fill="#063964"/><path d="m81.879 67.537 10.762-9.322a13.724 13.724 0 0 1 -.4-2.567c-3.4 3.054-8.012 7.141-11.085 9.858a5.952 5.952 0 0 1 .725 2.031" fill="#cb5d46"/><path d="m81.879 68.037a.5.5 0 0 1 -.494-.425 5.475 5.475 0 0 0 -.649-1.832.5.5 0 0 1 .088-.648c4.758-4.207 8.487-7.523 11.082-9.855a.5.5 0 0 1 .833.343 13.36 13.36 0 0 0 .385 2.463.5.5 0 0 1 -.155.511l-10.763 9.321a.5.5 0 0 1 -.327.122zm-.089-2.426a6.02 6.02 0 0 1 .389 1l9.9-8.578c-.068-.293-.168-.774-.245-1.357-2.485 2.235-5.858 5.234-10.044 8.935z" fill="#063964"/><path d="m58.423 53.424s-2.131-.456-2.3.3.227 2.863.864 3.1 1.437-3.4 1.437-3.4" fill="#dca32f"/><path d="m57.182 52.788a7.346 7.346 0 0 1 1.346.147.5.5 0 0 1 .384.6c-.008.036-.2.883-.466 1.745-.462 1.479-.855 2.055-1.4 2.055a.671.671 0 0 1 -.233-.042c-.462-.169-.815-.742-1.048-1.7a5.066 5.066 0 0 1 -.131-1.973c.085-.382.422-.832 1.548-.832zm.632 1.044a5.245 5.245 0 0 0 -.632-.044 1.323 1.323 0 0 0 -.579.085 4.224 4.224 0 0 0 .116 1.4 3.5 3.5 0 0 0 .313.9 12.4 12.4 0 0 0 .781-2.342z" fill="#063964"/><path d="m64.491 45.305s2.921 6.706 14.861 3.784a121.007 121.007 0 0 0 -5.259 11.032c-1.1 3.106-3.454 2.4-4.937 2.382s-11.328-2.5-11.5-4.284.506-5.421 6.838-12.914" fill="#175f95"/><path d="m64.491 44.8a.5.5 0 0 1 .458.3 6.388 6.388 0 0 0 1.8 2.11 11.191 11.191 0 0 0 7.025 2.113 23.185 23.185 0 0 0 5.458-.723.5.5 0 0 1 .557.727c-.029.052-2.913 5.308-5.23 10.969a3.672 3.672 0 0 1 -3.792 2.783c-.334 0-.649-.023-.954-.045-.238-.017-.463-.033-.662-.035a34.976 34.976 0 0 1 -6.388-1.5 26.352 26.352 0 0 1 -3.67-1.414c-1.262-.629-1.877-1.207-1.937-1.818-.3-3 2.043-7.475 6.954-13.286a.5.5 0 0 1 .381-.181zm9.284 5.521a12.333 12.333 0 0 1 -7.7-2.371 8.135 8.135 0 0 1 -1.66-1.783 37.74 37.74 0 0 0 -5.33 7.937 8.281 8.281 0 0 0 -.936 4.06s.071.365 1.388 1.021a25.762 25.762 0 0 0 3.526 1.356 35.259 35.259 0 0 0 6.098 1.459c.23 0 .47.02.724.038.288.021.585.042.883.042a2.689 2.689 0 0 0 2.854-2.129l.008-.022c1.748-4.274 3.818-8.32 4.764-10.114a23.012 23.012 0 0 1 -4.619.511z" fill="#063964"/><path d="m69.156 62.5c1.432.249 3.335 1.47 4.937-2.382 1.688-4.056 2.7-5.96 4.217-8.976a11.937 11.937 0 0 0 -2.017.112 2.785 2.785 0 0 0 -1.023.309 2.586 2.586 0 0 0 -.856 1.014 12.045 12.045 0 0 0 -1.239 3.3c-.114.538-.305 1.2-.88 1.32a.933.933 0 0 1 -1.031-.9 3.179 3.179 0 0 1 .462-1.454c.369-.784 1.02-1.317 1.162-2.156a1.656 1.656 0 0 0 -.2-1.361 2.173 2.173 0 0 0 -1.623-.5c-1.021-.031-2.432-.356-3.452-.387a3.019 3.019 0 0 0 -1.561.229 2.764 2.764 0 0 0 -.957 1.08l-1.765 2.9a4.606 4.606 0 0 1 -.86 1.131 4.978 4.978 0 0 1 -1.026.629c-1.3.657-1.494-2.193-3.373-.917a12.606 12.606 0 0 0 -.417 2.722c.175 1.785 10.042 4.03 11.5 4.283" fill="#003f6f"/><path d="m81.407 50.36s-5.214 10.268-5.459 11.62.055 1.252.916.5 11.6-9.361 13.227-12.075-.032-5.927-.032-5.927-.287-.786-2.482.4a16.566 16.566 0 0 0 -6.17 5.489" fill="#175f95"/><path d="m89.477 43.718a1.066 1.066 0 0 1 1.035.546c.156.31 1.711 3.556.007 6.395-1.26 2.1-7.235 7.163-12.3 11.34-.522.43-.9.741-1.026.853-.509.447-.827.674-1.155.674a.629.629 0 0 1 -.491-.228c-.238-.285-.214-.732-.092-1.407.251-1.384 4.968-10.7 5.505-11.757a.5.5 0 0 1 .04-.071 17 17 0 0 1 6.335-5.632 4.824 4.824 0 0 1 2.142-.713zm.154 1.019a.487.487 0 0 0 -.154-.019 3.866 3.866 0 0 0 -1.663.593 16.089 16.089 0 0 0 -5.98 5.313c-2.083 4.1-5.224 10.509-5.394 11.445q-.013.071-.023.133l.117-.1c.139-.122.5-.421 1.05-.873 2.658-2.192 10.746-8.863 12.079-11.084 1.384-2.308.13-5.072-.032-5.408z" fill="#063964"/><path d="m69.156 62.5c1.483.016 3.474 1.443 5.464-3.422.018-.045-1.021.087-1 .043-5.338.446-7.886-1.366-8.024-2.09-.167-.878-.7-3.1-3.273-2.8a12.6 12.6 0 0 0 -4.668 2.295 11.145 11.145 0 0 0 0 1.69c.175 1.785 10.02 4.268 11.5 4.283" fill="#0e2f54"/><path d="m64.491 44.8a.5.5 0 0 1 .458.3 6.388 6.388 0 0 0 1.8 2.11 11.191 11.191 0 0 0 7.025 2.113 23.185 23.185 0 0 0 5.458-.723.5.5 0 0 1 .563.715c-.024.047-2.434 4.723-4.753 10.394l-.009.02c-1.085 2.348-2.468 3.442-4.352 3.442a8.728 8.728 0 0 1 -1.43-.15l-.174-.021a62.043 62.043 0 0 1 -6.3-1.577c-4.852-1.487-5.552-2.466-5.62-3.152-.281-2.868 2.057-7.336 6.951-13.281a.5.5 0 0 1 .383-.19zm9.284 5.521a12.333 12.333 0 0 1 -7.7-2.371 8.141 8.141 0 0 1 -1.655-1.775c-3.133 3.878-6.575 8.909-6.273 11.99 0 .008.135.828 4.918 2.294a62.083 62.083 0 0 0 6.168 1.546l.178.029a7.824 7.824 0 0 0 1.268.137c1.876 0 2.824-1.522 3.44-2.852 1.717-4.2 3.483-7.852 4.308-9.513a23.05 23.05 0 0 1 -4.652.52z" fill="#063964"/><path d="m59.449 58.393a1 1 0 0 1 -.971-1.241c1.1-4.41 4.65-8.823 4.8-9.009a1 1 0 0 1 1.553 1.26c-.034.042-3.426 4.258-4.413 8.231a1 1 0 0 1 -.969.759z" fill="#80a7c5"/><path d="m89.752 53.611-1.59 1.549s.416.584.921.177c.6-.486 1.1-.893.669-1.726" fill="#dca32f"/><path d="m89.752 53.111a.5.5 0 0 1 .445.272c.617 1.2-.2 1.862-.8 2.344a1.085 1.085 0 0 1 -.681.255 1.277 1.277 0 0 1 -.96-.531.5.5 0 0 1 .058-.648l1.59-1.549a.5.5 0 0 1 .348-.143z" fill="#063964"/><path d="m73.94 38.154s12.182 3.311 15.67 2.921a52.676 52.676 0 0 0 5.334-1.014c.9-.212-13.958-3.952-13.958-3.952s-5.082.982-7.046 2.045" fill="#003f6f"/><path d="m88.952 41.607c-4.166 0-14.7-2.849-15.142-2.97a.5.5 0 0 1 -.07-.94 30.168 30.168 0 0 1 7.178-2.083.5.5 0 0 1 .191.01c.035.009 3.543.892 7.006 1.814 2.036.542 3.659.99 4.825 1.334.7.206 1.239.376 1.61.507.5.177.938.33.934.759a.53.53 0 0 1 -.425.51 53.871 53.871 0 0 1 -5.393 1.024 6.516 6.516 0 0 1 -.714.035zm-13.425-3.553c3.093.8 10.287 2.553 13.424 2.553a5.527 5.527 0 0 0 .6-.029c1-.112 2.421-.378 3.738-.659-2.645-.806-8.426-2.317-12.331-3.3a30.412 30.412 0 0 0 -5.431 1.435z" fill="#063964"/><path d="m83.45 52.808a1.069 1.069 0 0 0 0-.662 1.334 1.334 0 0 0 -.843-.616 9.614 9.614 0 0 0 -1.583-.4c-1.21 2.4-4.867 9.726-5.072 10.854-.245 1.352.056 1.251.917.5.436-.383 3.41-2.783 6.449-5.411a3.118 3.118 0 0 1 -.645-.831c-.486-1.084.5-2.259.782-3.426" fill="#003f6f"/><path d="m89.477 43.718a1.066 1.066 0 0 1 1.035.546c.156.31 1.711 3.556.007 6.395-1.26 2.1-7.235 7.163-12.3 11.34-.522.43-.9.741-1.026.853-.509.447-.827.674-1.155.674a.629.629 0 0 1 -.491-.228c-.238-.285-.214-.732-.092-1.407.251-1.384 4.968-10.7 5.505-11.757a.5.5 0 0 1 .04-.071 17 17 0 0 1 6.335-5.632 4.824 4.824 0 0 1 2.142-.713zm.154 1.019a.487.487 0 0 0 -.154-.019 3.866 3.866 0 0 0 -1.663.593 16.089 16.089 0 0 0 -5.98 5.313c-2.083 4.1-5.224 10.509-5.394 11.445q-.013.071-.023.133l.117-.1c.139-.122.5-.421 1.05-.873 2.658-2.192 10.746-8.863 12.079-11.084 1.384-2.308.13-5.072-.032-5.408z" fill="#063964"/><path d="m83.191 51.242a1 1 0 0 1 -.724-1.69 30.521 30.521 0 0 1 5.933-4.329 1 1 0 0 1 .977 1.745 29.065 29.065 0 0 0 -5.467 3.964 1 1 0 0 1 -.719.31z" fill="#80a7c5"/><path d="m76.3 63.435a.784.784 0 0 1 -1.124-.894c.384-1.19.942-2.669 1.357-2.706a2 2 0 0 1 2.178 1.533c.193.772-1.217 1.554-2.411 2.067" fill="#dca32f"/><path d="m75.942 64.011a1.322 1.322 0 0 1 -1.07-.534 1.2 1.2 0 0 1 -.17-1.089 17.5 17.5 0 0 1 .688-1.84c.377-.824.7-1.175 1.1-1.211.074-.007.151-.01.229-.01a2.46 2.46 0 0 1 2.479 1.92c.226.9-.657 1.771-2.7 2.648a1.406 1.406 0 0 1 -.556.116zm.721-3.683a7.705 7.705 0 0 0 -1.009 2.367.2.2 0 0 0 .026.194.324.324 0 0 0 .261.123.412.412 0 0 0 .163-.035c1.839-.79 2.157-1.352 2.123-1.486a1.491 1.491 0 0 0 -1.509-1.162z" fill="#063964"/><path d="m64.334 72.262a12.375 12.375 0 0 0 3.245.1 14.364 14.364 0 0 0 2.562-1.109.649.649 0 0 1 .315.722c-.093.528-.558 1.217-.6 1.661s-3.2 1.645-6.187.419z" fill="#fff"/><path d="m70.141 70.757a.5.5 0 0 1 .214.048 1.156 1.156 0 0 1 .593 1.259 4.211 4.211 0 0 1 -.346.961 2.913 2.913 0 0 0 -.246.659c-.014.148-.055.6-1.335 1.02a8.292 8.292 0 0 1 -2.54.39 7.867 7.867 0 0 1 -3-.573.5.5 0 0 1 -.279-.636l.663-1.8a.5.5 0 0 1 .543-.321 18.484 18.484 0 0 0 2.242.185 3.254 3.254 0 0 0 .8-.07 13.91 13.91 0 0 0 2.45-1.059.5.5 0 0 1 .241-.063zm-.761 2.7a4 4 0 0 1 .311-.842 3.882 3.882 0 0 0 .267-.694 12.894 12.894 0 0 1 -2.25.93 4.216 4.216 0 0 1 -1.059.1 17.515 17.515 0 0 1 -1.985-.142l-.351.952a7 7 0 0 0 2.167.332 5.945 5.945 0 0 0 2.9-.638z" fill="#063964"/><path d="m66.285 75.1c-3.392 0-12.971-3.959-13.07-4-1.874-.783-1.757-2.1-1.752-2.152l.994.105a.131.131 0 0 0 0-.016c0 .027-.01.659 1.141 1.14 2.109.88 10.478 4.125 12.9 3.914 4.336-.376 5.3-1.824 5.62-2.3a.5.5 0 0 1 .832.555 4.712 4.712 0 0 1 -1.794 1.586 12.032 12.032 0 0 1 -4.572 1.154c-.089.007-.191.014-.299.014z" fill="#063964"/><path d="m54.72 71.135-.432-1.829s-2.307-1.194-2.313-2.447c0 0-.266 2.765.673 3.268s2.072 1.008 2.072 1.008" fill="#fff"/><path d="m54.72 71.635a.5.5 0 0 1 -.2-.043c-.047-.021-1.159-.518-2.1-1.024-.559-.3-.871-1.029-.952-2.23a10.455 10.455 0 0 1 .017-1.527.5.5 0 0 1 1 .045c0 .718 1.378 1.661 2.043 2.005a.5.5 0 0 1 .257.329l.432 1.829a.5.5 0 0 1 -.487.615zm-2.22-2.965c.086.636.253.945.386 1.016.366.2.765.394 1.112.56l-.144-.609a7.832 7.832 0 0 1 -1.354-.967z" fill="#063964"/><path d="m61.177 76.479-4.277-1.551-.462-1.966 4.273 1.551z" fill="#fff"/><path d="m61.177 76.979a.5.5 0 0 1 -.17-.03l-4.275-1.549a.5.5 0 0 1 -.316-.356l-.462-1.966a.5.5 0 0 1 .657-.584l4.273 1.551a.5.5 0 0 1 .316.355l.463 1.966a.5.5 0 0 1 -.487.615zm-3.849-2.429 3.15 1.143-.189-.8-3.15-1.143z" fill="#063964"/><path d="m70.932 64.013s-4.508 4.065-5.752 6.312" fill="#fff"/><path d="m65.18 70.825a.5.5 0 0 1 -.437-.742c1.27-2.294 5.668-6.273 5.855-6.441a.5.5 0 0 1 .67.743c-.044.04-4.46 4.035-5.649 6.183a.5.5 0 0 1 -.439.257z" fill="#063964"/><path d="m56.607 60.654s-1.772 4.616-1.816 7.2" fill="#fff"/><path d="m54.791 68.35h-.009a.5.5 0 0 1 -.491-.508c.045-2.638 1.775-7.175 1.849-7.367a.5.5 0 0 1 .934.358c-.017.045-1.741 4.564-1.783 7.025a.5.5 0 0 1 -.5.492z" fill="#063964"/><path d="m81.81 69.978c-.4 2.147-1.907 3.626-3.364 3.305s-2.313-2.322-1.912-4.469 1.907-3.626 3.364-3.305 2.313 2.322 1.912 4.469" fill="#0e2f54"/><path d="m78.848 73.827a2.371 2.371 0 0 1 -.509-.055 2.93 2.93 0 0 1 -2-1.841 5.626 5.626 0 0 1 -.291-3.208c.407-2.177 1.859-3.757 3.454-3.757a2.37 2.37 0 0 1 .509.055 2.932 2.932 0 0 1 2 1.842 5.625 5.625 0 0 1 .289 3.207c-.405 2.177-1.858 3.757-3.452 3.757zm.649-7.862c-1.1 0-2.158 1.264-2.471 2.941-.345 1.849.354 3.63 1.528 3.889a1.37 1.37 0 0 0 .294.032c1.1 0 2.158-1.264 2.471-2.941.345-1.849-.355-3.63-1.528-3.889a1.368 1.368 0 0 0 -.291-.032z" fill="#063964"/><path d="m80.3 69.644c-.167.893-.807 1.506-1.43 1.369s-.992-.973-.826-1.867.807-1.506 1.43-1.368.993.973.826 1.866" fill="#60a9bb"/><path d="m79.046 71.532a1.321 1.321 0 0 1 -.283-.031 2.268 2.268 0 0 1 .534-4.243 1.321 1.321 0 0 1 .285.031 2.268 2.268 0 0 1 -.536 4.242zm.251-3.274c-.278 0-.648.374-.761.979-.121.653.134 1.218.443 1.287a.318.318 0 0 0 .068.007c.279 0 .649-.375.763-.98.122-.653-.133-1.218-.442-1.286a.316.316 0 0 0 -.068-.006z" fill="#4b4c70"/><path d="m98.141 55.191c-.421 2.254-2 3.808-3.532 3.47s-2.429-2.438-2.009-4.692 2-3.808 3.532-3.47 2.429 2.438 2.008 4.692" fill="#0e2f54"/><path d="m95.032 59.207a2.463 2.463 0 0 1 -.53-.058 3.052 3.052 0 0 1 -2.087-1.919 5.88 5.88 0 0 1 -.3-3.353c.425-2.274 1.939-3.924 3.6-3.924a2.463 2.463 0 0 1 .53.058 3.052 3.052 0 0 1 2.087 1.919 5.88 5.88 0 0 1 .3 3.353c-.424 2.274-1.939 3.924-3.6 3.924zm.679-8.254c-1.162 0-2.287 1.336-2.618 3.108-.365 1.955.379 3.838 1.624 4.112a1.462 1.462 0 0 0 .315.034c1.162 0 2.287-1.336 2.618-3.108.365-1.955-.379-3.838-1.624-4.112a1.462 1.462 0 0 0 -.316-.034z" fill="#063964"/><path d="m96.555 54.842c-.175.938-.847 1.582-1.5 1.437s-1.042-1.021-.867-1.959.847-1.582 1.5-1.438 1.042 1.022.867 1.96" fill="#60a9bb"/><path d="m95.24 56.8a1.361 1.361 0 0 1 -.294-.032 2.358 2.358 0 0 1 .557-4.405 1.362 1.362 0 0 1 .292.032 2.358 2.358 0 0 1 -.555 4.405zm.263-3.438c-.3 0-.7.4-.825 1.05-.134.72.147 1.3.483 1.379a.361.361 0 0 0 .078.009c.3 0 .7-.4.824-1.049.134-.72-.147-1.306-.484-1.38a.353.353 0 0 0 -.079-.009z" fill="#4b4c70"/><g clip-path="url(#c)" opacity=".3"><path d="m58.014 81.912c1.675-1.5 1.967-3.7 1.011-6.085s-17.208-7.783-17.208-7.783a1.14 1.14 0 0 0 -1.168.157l-32.889 25.406c-.663.536-.928 3.015-.146 3.357a35.957 35.957 0 0 0 6.155 3.946 23.633 23.633 0 0 0 12.767 2.13 33.253 33.253 0 0 0 6.979-3.34c1.906-1.208 14.867-10.07 14.867-10.07s7.957-6.227 9.632-7.722" fill="#190e0e"/></g><path d="m16.7 71.419s-1.948-.976-2.3-.285-.5 2.827.058 3.213 2.242-2.928 2.242-2.928" fill="#a0d2da"/><path d="m14.939 70.387a5.506 5.506 0 0 1 1.985.585.5.5 0 0 1 .222.674c-.016.031-.391.767-.853 1.515-.879 1.425-1.329 1.717-1.735 1.717a.675.675 0 0 1 -.387-.12c-.4-.281-.6-.924-.586-1.911a5.074 5.074 0 0 1 .368-1.941 1.017 1.017 0 0 1 .986-.519zm1.069 1.273a3.384 3.384 0 0 0 -1.069-.273.51.51 0 0 0 -.113.01 4.231 4.231 0 0 0 -.239 1.384 3.507 3.507 0 0 0 .077.948 12.35 12.35 0 0 0 1.344-2.069z" fill="#063964"/><path d="m36.513 89.738-4.917-.3.263-4.007 4.916.305z" fill="#0e2f54"/><path d="m50.967 84.142-5.059.72.4-5.032 4.917.305z" fill="#0e2f54"/><path d="m33.154 60.286a51.9 51.9 0 0 0 -11.349 6.46 53.214 53.214 0 0 0 -9.992 10.166s-9.287 5.116-5.213 11.628c1.05 1.679 8.76 8.546 14.469 8.451 5.428-.09 7.91-1.7 8.475-2.911s-.109-4.583 3.873-6.185c1.361-.548 2.1 2.141 2.374 2.972 3.657-1.858 9.148-4.658 13.2-6.761.37-1.87 1.386-5.237 3.392-6.216 2.786-1.361 3.508 1.056 3.829 1.778 2.5-1.608 3.776-3.031 3.721-5.569 0 0 .027-6.142-.4-6.745s-1.323-4.109-2.498-4.654-9.809-5.571-12.469-5.2a59.159 59.159 0 0 0 -11.412 2.786" fill="#a0d2da"/><path d="m44.872 56.98c2.537 0 8.343 3.116 11.132 4.614.583.313 1.044.56 1.241.652.917.426 1.545 1.922 2.214 3.687a8.811 8.811 0 0 0 .474 1.131c.125.175.359.5.458 3.875.045 1.549.041 3.048.041 3.157.059 2.833-1.468 4.394-3.95 5.993a.5.5 0 0 1 -.728-.217c-.026-.059-.055-.128-.086-.2-.337-.815-.779-1.685-1.77-1.685a3.037 3.037 0 0 0 -1.3.358c-1.598.775-2.658 3.535-3.118 5.855a.5.5 0 0 1 -.26.347c-4.537 2.353-10.747 5.513-13.207 6.763a.5.5 0 0 1 -.7-.287c-.023-.067-.048-.147-.077-.235a10.13 10.13 0 0 0 -.656-1.663c-.281-.52-.569-.806-.81-.806a.453.453 0 0 0 -.17.037c-2.756 1.109-3.065 3.125-3.29 4.6a5.1 5.1 0 0 1 -.316 1.335 4.925 4.925 0 0 1 -2.676 2.125 17.339 17.339 0 0 1 -6.244 1.074h-.126c-1.773 0-4.81-.64-9.206-3.69a24.941 24.941 0 0 1 -5.569-5 6.473 6.473 0 0 1 -.9-5.219 10.59 10.59 0 0 1 3.579-5.169 18.077 18.077 0 0 1 2.627-1.891c.966-1.25 2.48-3.115 4.308-5.052a40.515 40.515 0 0 1 5.727-5.135 51.831 51.831 0 0 1 11.469-6.523 60.359 60.359 0 0 1 11.517-2.811 2.727 2.727 0 0 1 .372-.02zm14.237 10.649a7.451 7.451 0 0 1 -.585-1.342c-.377-.995-1.079-2.846-1.7-3.135-.223-.1-.671-.344-1.292-.677-2.506-1.345-8.374-4.494-10.66-4.495a1.728 1.728 0 0 0 -.237.015 59.138 59.138 0 0 0 -11.3 2.759h-.01a50.838 50.838 0 0 0 -11.224 6.4c-4.285 3.064-8.341 8.059-9.887 10.065a.5.5 0 0 1 -.155.133c-.048.027-4.833 2.706-5.814 6.491a5.51 5.51 0 0 0 .78 4.434 24.2 24.2 0 0 0 5.291 4.705c4.184 2.9 7.005 3.512 8.636 3.512h.11c5.412-.09 7.594-1.691 8.03-2.623a4.62 4.62 0 0 0 .234-1.063 8.1 8.1 0 0 1 .81-2.777 5.792 5.792 0 0 1 3.1-2.6 1.452 1.452 0 0 1 .543-.109c1.271 0 1.934 1.7 2.312 2.835 2.686-1.366 8.25-4.2 12.467-6.385a16.391 16.391 0 0 1 1.07-3.317 5.921 5.921 0 0 1 2.544-3.014 4.008 4.008 0 0 1 1.735-.459 2.838 2.838 0 0 1 2.538 1.938 8.485 8.485 0 0 0 2.186-1.978 4.462 4.462 0 0 0 .811-2.832s0-.009 0-.013a38.414 38.414 0 0 0 -.333-6.468z" fill="#063964"/><path d="m24.612 65.082s1.145 7.224 13.437 7.391a120.984 120.984 0 0 0 -7.859 9.36c-1.846 2.73-3.945 1.454-5.377 1.067s-10.338-5.262-10.061-7.033 1.85-5.12 9.86-10.785" fill="#175f95"/><path d="m24.612 64.582a.5.5 0 0 1 .494.42 6.994 6.994 0 0 0 2.02 3.41 10.944 10.944 0 0 0 3.868 2.388 20.931 20.931 0 0 0 7.062 1.173.5.5 0 0 1 .357.843c-.041.044-4.152 4.407-7.815 9.307a3.734 3.734 0 0 1 -3.16 1.914 6.613 6.613 0 0 1 -2.124-.454c-.226-.076-.439-.148-.632-.2a34.961 34.961 0 0 1 -5.806-3.057 26.362 26.362 0 0 1 -3.2-2.29c-1.064-.925-1.515-1.639-1.42-2.246.469-2.984 3.855-6.724 10.065-11.116a.5.5 0 0 1 .291-.092zm12.327 8.356a20.8 20.8 0 0 1 -6.354-1.223 11.861 11.861 0 0 1 -4.218-2.647 8.545 8.545 0 0 1 -2.045-3.168 37.74 37.74 0 0 0 -7.151 6.346 8.289 8.289 0 0 0 -1.925 3.7s-.023.37 1.088 1.337a25.775 25.775 0 0 0 3.074 2.2 35.241 35.241 0 0 0 5.536 2.938c.222.06.45.137.691.218a5.755 5.755 0 0 0 1.8.4 2.706 2.706 0 0 0 2.338-1.484l.014-.019c2.767-3.702 5.786-7.098 7.152-8.598z" fill="#063964"/><path d="m39.718 74.219s-7.624 8.632-8.2 9.879-.26 1.226.763.71 13.575-6.152 15.833-8.371 1.375-6.578-1.046-5.983a16.551 16.551 0 0 0 -7.35 3.765" fill="#175f95"/><path d="m47.506 69.9a2.288 2.288 0 0 1 2.1 1.6 4.82 4.82 0 0 1 .226 2.661 4.9 4.9 0 0 1 -1.366 2.634c-1.746 1.715-8.8 5.118-14.747 7.891-.615.287-1.059.494-1.211.57a2.726 2.726 0 0 1 -1.1.386.655.655 0 0 1 -.568-.3c-.218-.341-.083-.792.224-1.456.59-1.277 7.494-9.111 8.279-10a.5.5 0 0 1 .06-.058 16.977 16.977 0 0 1 7.546-3.862 2.339 2.339 0 0 1 .557-.066zm-15.59 14.531.14-.069c.165-.083.592-.282 1.239-.584 3.122-1.455 12.622-5.883 14.469-7.7a4.058 4.058 0 0 0 .916-4.2 1.372 1.372 0 0 0 -1.173-.978 1.393 1.393 0 0 0 -.319.041 16.068 16.068 0 0 0 -7.122 3.642c-3.046 3.449-7.694 8.863-8.093 9.726z" fill="#063964"/><path d="m24.813 82.9c1.431.387 3 2.268 6.148-1.943.029-.038-1.742.372-1.714.333-5.279-.908-7.322-2.393-7.273-3.13.058-.89.135-3.7-2.432-4.06a8.034 8.034 0 0 0 -4.366.132 11.175 11.175 0 0 0 -.424 1.636c-.278 1.771 8.63 6.645 10.061 7.032" fill="#0e2f54"/><path d="m24.612 64.582a.5.5 0 0 1 .494.42 6.994 6.994 0 0 0 2.02 3.41 10.944 10.944 0 0 0 3.868 2.388 20.931 20.931 0 0 0 7.062 1.173.5.5 0 0 1 .366.834c-.035.039-3.541 3.961-7.21 8.87l-.014.018c-1.313 1.6-2.628 2.381-4.023 2.381a5.879 5.879 0 0 1 -2.4-.645l-.162-.071a62.113 62.113 0 0 1 -5.7-3.108c-4.324-2.657-4.756-3.78-4.65-4.461.447-2.846 3.831-6.585 10.06-11.112a.5.5 0 0 1 .289-.097zm12.362 8.358a20.828 20.828 0 0 1 -6.389-1.225 11.861 11.861 0 0 1 -4.218-2.647 8.551 8.551 0 0 1 -2.042-3.156c-4.006 2.968-8.6 6.975-9.08 10.032 0 .008-.077.835 4.185 3.454a62.161 62.161 0 0 0 5.583 3.044l.165.073a5 5 0 0 0 2 .56c1.073 0 2.134-.656 3.242-2.006 2.713-3.632 5.339-6.728 6.554-8.129z" fill="#063964"/><path d="m16.7 77.019a1.5 1.5 0 0 1 -1.32-2.219c2.22-4.091 6.854-7.536 7.05-7.681a1.5 1.5 0 0 1 1.781 2.414c-.043.032-4.3 3.2-6.195 6.7a1.5 1.5 0 0 1 -1.316.786z" fill="#80a7c5"/><path d="m39.5 79.013a1.5 1.5 0 0 1 -.97-2.645 41.721 41.721 0 0 1 6.6-4.346 1.5 1.5 0 1 1 1.389 2.659 39.315 39.315 0 0 0 -6.049 3.976 1.494 1.494 0 0 1 -.97.356z" fill="#80a7c5"/><path d="m31.5 85.6a.784.784 0 0 1 -.864-1.147c.67-1.056 1.582-2.348 1.992-2.28a2 2 0 0 1 1.724 2.03c-.006.8-1.568 1.2-2.852 1.4" fill="#a0d2da"/><path d="m31.352 86.107a1.343 1.343 0 0 1 -1.182-.686 1.2 1.2 0 0 1 .041-1.24c1.472-2.32 2-2.515 2.382-2.515a.7.7 0 0 1 .114.009 2.481 2.481 0 0 1 2.142 2.525c-.007.933-1.079 1.55-3.276 1.887a1.454 1.454 0 0 1 -.221.02zm1.273-3.428a7.727 7.727 0 0 0 -1.569 2.038.2.2 0 0 0 -.009.223.342.342 0 0 0 .306.168.452.452 0 0 0 .069-.005c1.979-.3 2.427-.768 2.428-.907a1.5 1.5 0 0 0 -1.225-1.517z" fill="#063964"/><path d="m13.583 94.428-3.972-2.807.053-2.362 3.977 2.512z" fill="#0e2f54"/><path d="m35.187 93.31c-.926 1.977-2.756 3.032-4.085 2.355s-1.657-2.828-.73-4.805 2.755-3.032 4.085-2.356 1.657 2.829.73 4.806" fill="#0e2f54"/><path d="m31.972 96.37a2.393 2.393 0 0 1 -1.1-.259 2.93 2.93 0 0 1 -1.472-2.286 5.622 5.622 0 0 1 .523-3.178 4.488 4.488 0 0 1 3.664-2.847 2.4 2.4 0 0 1 1.1.259 2.932 2.932 0 0 1 1.479 2.286 5.622 5.622 0 0 1 -.523 3.178 4.488 4.488 0 0 1 -3.671 2.847zm1.615-7.57a3.555 3.555 0 0 0 -2.763 2.273c-.8 1.7-.568 3.6.5 4.147a1.4 1.4 0 0 0 .643.151 3.555 3.555 0 0 0 2.767-2.271c.8-1.7.568-3.6-.5-4.148a1.4 1.4 0 0 0 -.647-.152z" fill="#063964"/><path d="m33.809 92.609c-.386.823-1.159 1.256-1.727.966a1.523 1.523 0 0 1 -.332-2.013c.386-.823 1.159-1.256 1.728-.967a1.525 1.525 0 0 1 .331 2.014" fill="#60a9bb"/><path d="m32.463 94.165a1.325 1.325 0 0 1 -.608-.145 1.986 1.986 0 0 1 -.558-2.67 2.129 2.129 0 0 1 1.8-1.345 1.328 1.328 0 0 1 .607.144 1.986 1.986 0 0 1 .557 2.672 2.127 2.127 0 0 1 -1.798 1.344zm.634-3.16a1.192 1.192 0 0 0 -.895.769c-.281.6-.176 1.212.106 1.355a.331.331 0 0 0 .155.036 1.191 1.191 0 0 0 .893-.768c.282-.6.177-1.212-.105-1.356a.332.332 0 0 0 -.151-.036z" fill="#4b4c70"/><path d="m55.007 82.878c-.973 2.076-2.893 3.184-4.29 2.473s-1.739-2.969-.766-5.046 2.893-3.183 4.289-2.473 1.74 2.97.767 5.046" fill="#0e2f54"/><path d="m51.631 86.066a2.49 2.49 0 0 1 -1.141-.27 3.052 3.052 0 0 1 -1.539-2.381 5.884 5.884 0 0 1 .547-3.323 4.689 4.689 0 0 1 3.829-2.976 2.489 2.489 0 0 1 1.14.269 3.054 3.054 0 0 1 1.54 2.382 5.879 5.879 0 0 1 -.547 3.322 4.689 4.689 0 0 1 -3.829 2.977zm1.7-7.949a3.759 3.759 0 0 0 -2.923 2.4c-.844 1.8-.6 3.81.54 4.388a1.5 1.5 0 0 0 .687.161 3.759 3.759 0 0 0 2.923-2.4c.844-1.8.6-3.81-.541-4.388a1.5 1.5 0 0 0 -.69-.161z" fill="#063964"/><path d="m53.559 82.142c-.4.864-1.217 1.318-1.814 1.015a1.6 1.6 0 0 1 -.348-2.115c.4-.864 1.217-1.318 1.814-1.015a1.6 1.6 0 0 1 .348 2.115" fill="#60a9bb"/><path d="m52.144 83.751a1.369 1.369 0 0 1 -.626-.148 2.064 2.064 0 0 1 -.575-2.773 2.21 2.21 0 0 1 1.868-1.4 1.369 1.369 0 0 1 .626.148 2.062 2.062 0 0 1 .574 2.773 2.209 2.209 0 0 1 -1.867 1.4zm.667-3.318a1.275 1.275 0 0 0 -.962.821c-.31.664-.185 1.3.122 1.457a.373.373 0 0 0 .172.04 1.275 1.275 0 0 0 .962-.821c.311-.664.185-1.3-.122-1.457a.373.373 0 0 0 -.171-.04z" fill="#4b4c70"/><path d="m35.539 85.714a.5.5 0 0 1 -.214-.952c3.012-1.422 12-6.216 12.606-6.538a6.029 6.029 0 0 0 2.539-4.963 3.081 3.081 0 0 1 .5-1.822c.878-.992 6.639-3.8 7.293-4.113a.5.5 0 1 1 .436.9c-2.4 1.162-6.418 3.242-6.98 3.875a2.881 2.881 0 0 0 -.252 1.246 6.976 6.976 0 0 1 -2.974 5.7.5.5 0 0 1 -.059.037c-.1.051-9.557 5.1-12.681 6.577a.5.5 0 0 1 -.214.053z" fill="#063964"/><path d="m39.258 72a.5.5 0 0 1 -.22-.949c.629-.308 15.444-7.547 18.068-8.308a.5.5 0 0 1 .279.96c-2.542.737-17.754 8.171-17.908 8.246a.5.5 0 0 1 -.219.051z" fill="#063964"/><path d="m6.636 81.823a8.205 8.205 0 0 0 1.5 3.5c.963 1.159 7.639 6.334 12.159 6.948 2.613.356 3.563-.147 6.02-1.645.363-.222.236.5-.137 1.728s-3.135 2.573-5.832 2.045c-5.416-1.061-12.225-6.158-13.426-7.768a4.828 4.828 0 0 1 -.288-4.8" fill="#fff"/><g fill="#063964"><path d="m6.636 81.223a.6.6 0 0 1 .593.508 7.639 7.639 0 0 0 1.372 3.2 27.764 27.764 0 0 0 4.609 3.557 19.779 19.779 0 0 0 7.169 3.18 9.97 9.97 0 0 0 1.337.1c1.493 0 2.394-.511 4.29-1.667a.807.807 0 0 1 .423-.128.678.678 0 0 1 .549.277c.256.345.206.854-.223 2.266s-2.794 2.589-5.169 2.589a7.057 7.057 0 0 1 -1.353-.129c-5.512-1.08-12.457-6.209-13.792-8-1.078-1.445-1.2-3.2-.368-5.376a.6.6 0 0 1 .563-.377zm15.081 11.752a11.138 11.138 0 0 1 -1.5-.115c-2.553-.347-5.573-2.018-7.657-3.36a28.089 28.089 0 0 1 -4.882-3.8 6.809 6.809 0 0 1 -.946-1.551 3.334 3.334 0 0 0 .668 2.118c1.118 1.5 7.772 6.5 13.06 7.538a5.855 5.855 0 0 0 1.122.107c2.1 0 3.81-1.046 4.021-1.738.06-.2.109-.369.15-.516a7.32 7.32 0 0 1 -4.036 1.317z"/><path d="m0 .661a.5.5 0 0 1 -.422-.232.5.5 0 0 1 .153-.69l.253-.161a.5.5 0 0 1 .69.153.5.5 0 0 1 -.153.69l-.253.162a.5.5 0 0 1 -.268.078z" transform="translate(12.768 54.872)"/><path d="m0 37.474a.5.5 0 0 1 -.422-.231.5.5 0 0 1 .153-.69l.5-.321a.5.5 0 1 1 .538.843l-.5.321a.5.5 0 0 1 -.269.078zm2.177-1.389a.5.5 0 0 1 -.269-.922l.5-.321a.5.5 0 1 1 .538.843l-.5.321a.5.5 0 0 1 -.268.079zm2.178-1.385a.5.5 0 0 1 -.269-.922l.5-.321a.5.5 0 0 1 .538.843l-.5.321a.5.5 0 0 1 -.269.079zm2.177-1.389a.5.5 0 0 1 -.269-.922l.5-.321a.5.5 0 0 1 .538.843l-.5.321a.5.5 0 0 1 -.268.074zm2.178-1.395a.5.5 0 0 1 -.269-.922l.5-.321a.5.5 0 0 1 .538.843l-.5.321a.5.5 0 0 1 -.269.079zm2.177-1.389a.5.5 0 0 1 -.269-.922l.5-.321a.5.5 0 1 1 .538.843l-.5.321a.5.5 0 0 1 -.268.079zm2.177-1.389a.5.5 0 0 1 -.269-.922l.5-.321a.5.5 0 0 1 .538.843l-.5.321a.5.5 0 0 1 -.268.078zm2.177-1.389a.5.5 0 0 1 -.269-.922l.5-.321a.5.5 0 1 1 .538.843l-.5.321a.5.5 0 0 1 -.267.078zm2.177-1.389a.5.5 0 0 1 -.269-.922l.5-.321a.5.5 0 0 1 .538.843l-.5.321a.5.5 0 0 1 -.267.077zm2.182-1.391a.5.5 0 0 1 -.269-.922l.5-.321a.5.5 0 1 1 .538.843l-.5.321a.5.5 0 0 1 -.269.079zm2.177-1.389a.5.5 0 0 1 -.269-.922l.5-.321a.5.5 0 1 1 .538.843l-.5.321a.5.5 0 0 1 -.271.078zm2.177-1.389a.5.5 0 0 1 -.269-.922l.5-.321a.5.5 0 1 1 .538.843l-.5.321a.5.5 0 0 1 -.271.078zm2.176-1.391a.5.5 0 0 1 -.269-.922l.5-.321a.5.5 0 0 1 .538.843l-.5.321a.5.5 0 0 1 -.269.079zm2.177-1.389a.5.5 0 0 1 -.269-.922l.5-.321a.5.5 0 0 1 .538.843l-.5.321a.5.5 0 0 1 -.269.079zm2.177-1.389a.5.5 0 0 1 -.269-.922l.5-.321a.5.5 0 1 1 .538.843l-.5.321a.5.5 0 0 1 -.268.078zm2.177-1.389a.5.5 0 0 1 -.269-.922l.5-.321a.5.5 0 1 1 .538.843l-.5.321a.5.5 0 0 1 -.268.078zm2.177-1.389a.5.5 0 0 1 -.269-.922l.5-.321a.5.5 0 1 1 .538.843l-.5.321a.5.5 0 0 1 -.267.078zm2.177-1.389a.5.5 0 0 1 -.269-.922l.5-.321a.5.5 0 1 1 .538.843l-.5.321a.5.5 0 0 1 -.267.077zm2.177-1.389a.5.5 0 0 1 -.269-.922l.5-.321a.5.5 0 1 1 .538.843l-.5.321a.5.5 0 0 1 -.267.077zm2.177-1.389a.5.5 0 0 1 -.269-.922l.5-.321a.5.5 0 1 1 .538.843l-.5.321a.5.5 0 0 1 -.266.076zm2.177-1.389a.5.5 0 0 1 -.269-.922l.5-.321a.5.5 0 0 1 .538.843l-.5.321a.5.5 0 0 1 -.266.076zm2.181-1.388a.5.5 0 0 1 -.269-.922l.5-.321a.5.5 0 1 1 .542.843l-.5.321a.5.5 0 0 1 -.273.079zm2.173-1.394a.5.5 0 0 1 -.269-.922l.5-.321a.5.5 0 1 1 .538.843l-.5.321a.5.5 0 0 1 -.269.079zm2.177-1.389a.5.5 0 0 1 -.269-.922l.5-.321a.5.5 0 1 1 .538.843l-.5.321a.5.5 0 0 1 -.264.078zm2.177-1.389a.5.5 0 0 1 -.269-.922l.5-.321a.5.5 0 1 1 .538.843l-.5.321a.5.5 0 0 1 -.264.078zm2.177-1.389a.5.5 0 0 1 -.269-.922l.5-.321a.5.5 0 1 1 .538.843l-.5.321a.5.5 0 0 1 -.263.077zm2.177-1.389a.5.5 0 0 1 -.269-.922l.5-.321a.5.5 0 0 1 .538.843l-.5.321a.5.5 0 0 1 -.263.077z" transform="translate(14.696 16.829)"/><path d="m0 .661a.5.5 0 0 1 -.422-.232.5.5 0 0 1 .153-.69l.253-.161a.5.5 0 0 1 .69.153.5.5 0 0 1 -.153.69l-.253.162a.5.5 0 0 1 -.268.078z" transform="translate(73.475 16.134)"/><path d="m11.838 52.316-3.827 5.92 3.827 1.016z"/><path d="m74.8 11.9 3.05 1.764-3.05 5.173z"/><path d="m37.736 23.326-6.769-4.826 4.106-2.544 6.807 4.764z"/><path d="m37.764 28.469-6.764-4.828 4.1-2.541 6.807 4.764z"/></g><path d="m49.951 17.044-6.808-4.764c-.754-.528-1.469-.588-1.949-.164l-8.83 4.684c-.317.282 3.7-1.684 3.7-1.03v11.764a5.324 5.324 0 0 0 .477 2.067l4.8 10.166a7.054 7.054 0 0 0 2.209 2.907l2.509 5.94c.855.6 1.666.667 2.21.186l8.276-5.2a1.839 1.839 0 0 0 .477-1.4v-11.761a5.483 5.483 0 0 0 -.493-2.135l-4.636-8.7a6.24 6.24 0 0 0 -1.948-2.564" fill="#c7b8b1"/><path d="m41.95 11.336a2.639 2.639 0 0 1 1.48.534l6.808 4.764a6.714 6.714 0 0 1 2.111 2.755l4.627 8.679q.009.017.017.034a6 6 0 0 1 .535 2.336v11.762a2.288 2.288 0 0 1 -.646 1.775.5.5 0 0 1 -.065.049l-8.244 5.176a1.766 1.766 0 0 1 -1.155.414 2.925 2.925 0 0 1 -1.64-.594.5.5 0 0 1 -.174-.215l-2.454-5.805a7.668 7.668 0 0 1 -2.258-3.023l-4.8-10.16-.006-.013a5.843 5.843 0 0 1 -.519-2.267v-11.361a19.682 19.682 0 0 0 -2.234.815c-.714.293-.827.336-.975.336a.505.505 0 0 1 -.479-.327.514.514 0 0 1 .153-.576.5.5 0 0 1 .1-.068l8.78-4.656a1.617 1.617 0 0 1 1.038-.364zm14.135 17.186-4.627-8.679q-.009-.017-.017-.035a5.8 5.8 0 0 0 -1.777-2.355l-6.808-4.763a1.668 1.668 0 0 0 -.907-.354.614.614 0 0 0 -.425.155.5.5 0 0 1 -.1.067l-5.111 2.712a.609.609 0 0 1 .253.5v11.764a4.824 4.824 0 0 0 .434 1.86l4.8 10.159.006.013a6.615 6.615 0 0 0 2.037 2.7.5.5 0 0 1 .174.215l2.451 5.8a1.835 1.835 0 0 0 .95.336.759.759 0 0 0 .526-.192.5.5 0 0 1 .065-.049l8.236-5.171a1.465 1.465 0 0 0 .283-1v-11.766a4.977 4.977 0 0 0 -.443-1.917z" fill="#063964"/><path d="m32.039 22.656-.744-.521a.933.933 0 0 1 -.343-.687v-2.576c0-.247.154-.34.343-.207l.744.52a.936.936 0 0 1 .343.688v2.576c0 .247-.154.34-.343.207" fill="#5e8e94"/><path d="m32.2 23.217a.784.784 0 0 1 -.45-.152l-.743-.52a1.427 1.427 0 0 1 -.556-1.1v-2.573a.7.7 0 0 1 .681-.768.784.784 0 0 1 .45.152l.743.519a1.433 1.433 0 0 1 .557 1.1v2.576a.7.7 0 0 1 -.682.766zm-.749-3.832v2.063a.47.47 0 0 0 .129.277l.3.21v-2.062a.472.472 0 0 0 -.131-.279z" fill="#063964"/><path d="m32.039 27.814-.744-.521a.933.933 0 0 1 -.343-.687v-2.576c0-.247.154-.34.343-.207l.744.52a.936.936 0 0 1 .343.688v2.576c0 .247-.154.34-.343.207" fill="#5e8e94"/><path d="m32.2 28.375a.784.784 0 0 1 -.45-.152l-.743-.52a1.427 1.427 0 0 1 -.556-1.1v-2.573a.7.7 0 0 1 .681-.768.784.784 0 0 1 .45.152l.743.519a1.433 1.433 0 0 1 .557 1.1v2.576a.7.7 0 0 1 -.682.766zm-.749-3.832v2.063a.47.47 0 0 0 .129.277l.3.21v-2.062a.472.472 0 0 0 -.131-.279z" fill="#063964"/><path d="m45.756 19.521-6.807-4.764c-.754-.528-1.469-.588-1.949-.164l-4.636 2.207a1.9 1.9 0 0 0 -.492 1.446v11.765a5.306 5.306 0 0 0 .477 2.067l4.8 10.166a7.064 7.064 0 0 0 2.21 2.907l6.7 3.463c.856.6 1.666.667 2.21.186l4.081-2.719a1.835 1.835 0 0 0 .477-1.4v-11.765a5.5 5.5 0 0 0 -.492-2.135l-4.636-8.7a6.233 6.233 0 0 0 -1.949-2.564" fill="#395d61"/><path d="m37.756 13.813a2.639 2.639 0 0 1 1.48.534l6.807 4.764a6.708 6.708 0 0 1 2.112 2.755l4.627 8.679q.009.017.017.035a6.018 6.018 0 0 1 .534 2.335v11.766a2.285 2.285 0 0 1 -.647 1.775.5.5 0 0 1 -.053.041l-4.055 2.7a1.766 1.766 0 0 1 -1.16.419 2.908 2.908 0 0 1 -1.612-.574l-6.674-3.442a.5.5 0 0 1 -.057-.034 7.54 7.54 0 0 1 -2.375-3.115l-4.8-10.16-.006-.013a5.826 5.826 0 0 1 -.519-2.268v-11.764a2.349 2.349 0 0 1 .661-1.821.5.5 0 0 1 .116-.077l4.578-2.18a1.618 1.618 0 0 1 1.026-.355zm14.135 17.187-4.627-8.68q-.009-.017-.017-.035a5.789 5.789 0 0 0 -1.778-2.355l-6.807-4.764a1.669 1.669 0 0 0 -.907-.354.614.614 0 0 0 -.425.155.5.5 0 0 1 -.116.077l-4.562 2.172a1.573 1.573 0 0 0 -.281 1.03v11.765a4.807 4.807 0 0 0 .432 1.86l4.797 10.159.006.013a6.665 6.665 0 0 0 2.012 2.679l6.672 3.447a.5.5 0 0 1 .057.035 1.958 1.958 0 0 0 1.067.413.759.759 0 0 0 .525-.192.5.5 0 0 1 .061-.041l4.048-2.7a1.453 1.453 0 0 0 .287-1.006v-11.762a4.992 4.992 0 0 0 -.444-1.916z" fill="#063964"/><path d="m51.55 37.884c0 6.627-4.118 9.118-9.2 5.563s-9.2-11.809-9.2-18.437 4.118-9.118 9.2-5.563 9.2 11.81 9.2 18.437" fill="#cacbcb"/><path d="m46.694 45.567a8.208 8.208 0 0 1 -4.628-1.71 22.2 22.2 0 0 1 -6.666-8.257 24.5 24.5 0 0 1 -2.744-10.59 9.813 9.813 0 0 1 1.434-5.594 4.623 4.623 0 0 1 3.922-2.089 8.208 8.208 0 0 1 4.628 1.71 22.2 22.2 0 0 1 6.66 8.253 24.5 24.5 0 0 1 2.75 10.594 9.813 9.813 0 0 1 -1.434 5.594 4.623 4.623 0 0 1 -3.922 2.089zm-8.682-27.24a3.661 3.661 0 0 0 -3.1 1.661 8.847 8.847 0 0 0 -1.255 5.022c0 6.473 4.03 14.56 8.984 18.027a7.351 7.351 0 0 0 4.054 1.53 3.661 3.661 0 0 0 3.1-1.661 8.847 8.847 0 0 0 1.255-5.022c0-6.473-4.03-14.56-8.984-18.027a7.351 7.351 0 0 0 -4.054-1.53z" fill="#063964"/><path d="m51.09 37.562c0 6.3-3.912 8.662-8.737 5.285s-8.737-11.219-8.737-17.515 3.912-8.662 8.737-5.285 8.737 11.219 8.737 17.515" fill="#5e8e94"/><path d="m7.188-.5c2.116 0 4.078 1.537 5.526 4.329a22.256 22.256 0 0 1 2.161 10.029 22.256 22.256 0 0 1 -2.161 10.029c-1.448 2.791-3.41 4.329-5.526 4.329s-4.078-1.537-5.526-4.329a22.256 22.256 0 0 1 -2.162-10.03 22.256 22.256 0 0 1 2.161-10.028c1.448-2.792 3.411-4.329 5.527-4.329zm0 27.715c1.724 0 3.371-1.346 4.639-3.789a21.249 21.249 0 0 0 2.049-9.568 21.249 21.249 0 0 0 -2.049-9.568c-1.268-2.444-2.915-3.79-4.639-3.79s-3.372 1.346-4.639 3.789a21.249 21.249 0 0 0 -2.049 9.568 21.249 21.249 0 0 0 2.049 9.568c1.267 2.444 2.915 3.79 4.639 3.79z" fill="#063964" transform="matrix(.90786531 -.41926195 .41926195 .90786531 30.018 21.88)"/><path d="m50.653 37.257c0 5.981-3.716 8.229-8.3 5.021s-8.3-10.658-8.3-16.639 3.716-8.23 8.3-5.021 8.3 10.658 8.3 16.639" fill="#79aec0"/><path d="m46.271 44.24a7.455 7.455 0 0 1 -4.2-1.552 20.082 20.082 0 0 1 -6.03-7.466 22.156 22.156 0 0 1 -2.484-9.582 8.906 8.906 0 0 1 1.3-5.077 4.219 4.219 0 0 1 3.579-1.906 7.455 7.455 0 0 1 4.2 1.553 20.076 20.076 0 0 1 6.03 7.466 22.158 22.158 0 0 1 2.484 9.583 8.9 8.9 0 0 1 -1.3 5.077 4.219 4.219 0 0 1 -3.579 1.904zm-7.836-24.584a3.256 3.256 0 0 0 -2.759 1.478 7.94 7.94 0 0 0 -1.123 4.506c0 5.827 3.628 13.108 8.087 16.229a6.587 6.587 0 0 0 3.631 1.371 3.257 3.257 0 0 0 2.759-1.478 7.938 7.938 0 0 0 1.123-4.505c0-5.828-3.628-13.109-8.087-16.229a6.587 6.587 0 0 0 -3.631-1.372z" fill="#063964"/><path d="m47.852 39.543-11.047-7.732a3.192 3.192 0 0 1 -1.17-2.345v-5.348c0-.891.558-1.228 1.241-.751l10.989 7.691a3.294 3.294 0 0 1 1.206 2.418v5.33c0 .874-.549 1.206-1.219.737" fill="#6ea2bb"/><path d="m48.424 40.256a1.5 1.5 0 0 1 -.859-.3l-11.047-7.735a3.688 3.688 0 0 1 -1.383-2.755v-5.348c0-1.014.582-1.468 1.158-1.468a1.522 1.522 0 0 1 .869.307l10.989 7.691a3.788 3.788 0 0 1 1.419 2.828v5.33c.001 1.002-.57 1.45-1.146 1.45zm-12.131-16.606c-.089 0-.158.205-.158.468v5.348a2.708 2.708 0 0 0 .956 1.935l11.047 7.732a.541.541 0 0 0 .286.123c.081 0 .147-.2.147-.45v-5.33a2.813 2.813 0 0 0 -.993-2.008l-10.989-7.691a.562.562 0 0 0 -.296-.127z" fill="#063964"/><path d="m47.632 38.965-10.573-7.4a2.906 2.906 0 0 1 -1.068-2.142v-4.856c0-.77.478-1.059 1.068-.646l10.573 7.4a2.907 2.907 0 0 1 1.068 2.142v4.856c0 .77-.479 1.059-1.069.646" fill="#cacbcb"/><path d="m48.137 39.653a1.382 1.382 0 0 1 -.791-.279l-10.573-7.4a3.419 3.419 0 0 1 -1.281-2.552v-4.855c0-.922.534-1.334 1.064-1.334a1.381 1.381 0 0 1 .791.279l10.573 7.4a3.419 3.419 0 0 1 1.28 2.551v4.856c0 .922-.534 1.334-1.063 1.334zm-11.578-15.42a.6.6 0 0 0 -.068.334v4.856a2.426 2.426 0 0 0 .855 1.732l10.573 7.4a.484.484 0 0 0 .214.1.593.593 0 0 0 .069-.334v-4.858a2.426 2.426 0 0 0 -.856-1.732l-10.573-7.4a.486.486 0 0 0 -.214-.098z" fill="#063964"/><path d="m1.513 2.06a1 1 0 0 1 -.573-.181l-1.514-1.06a1 1 0 0 1 -.245-1.393 1 1 0 0 1 1.393-.245l1.514 1.06a1 1 0 0 1 -.575 1.819z" fill="#fff" transform="translate(38.34 33.866)"/><path d="m1.513 2.06a1 1 0 0 1 -.573-.181l-1.514-1.06a1 1 0 0 1 -.245-1.393 1 1 0 0 1 1.393-.245l1.514 1.06a1 1 0 0 1 -.575 1.819z" fill="#fff" transform="translate(40.527 35.396)"/><path d="m1.513 2.06a1 1 0 0 1 -.573-.181l-1.514-1.06a1 1 0 0 1 -.245-1.393 1 1 0 0 1 1.393-.245l1.514 1.06a1 1 0 0 1 -.575 1.819z" fill="#fff" transform="translate(42.714 36.927)"/><path d="m1.513 2.06a1 1 0 0 1 -.573-.181l-1.514-1.06a1 1 0 0 1 -.245-1.393 1 1 0 0 1 1.393-.245l1.514 1.06a1 1 0 0 1 -.575 1.819z" fill="#fff" transform="translate(44.901 38.457)"/><g clip-path="url(#d)" opacity=".76"><path d="m42.353 42.277c2.888 2.021 5.431 1.875 6.918-.005l-13.836-9.683c1.487 3.961 4.03 7.667 6.918 9.688" fill="#221714"/><path d="m46.269 44.238a7.452 7.452 0 0 1 -4.2-1.551c-2.866-2.006-5.52-5.715-7.1-9.922a.5.5 0 0 1 .755-.585l13.836 9.683a.5.5 0 0 1 .105.72 4.2 4.2 0 0 1 -3.396 1.655zm-9.715-10.256a19.709 19.709 0 0 0 6.086 7.885 6.584 6.584 0 0 0 3.629 1.371 3.152 3.152 0 0 0 2.251-.881z" fill="#063964"/></g><path d="m45.756 19.521-6.807-4.764 4.144-2.608 6.807 4.764z" fill="#c6c8cc"/><path d="m52.341 30.781-4.636-8.7 3.877-2.7 4.9 8.79z" fill="#5e8e94"/><path d="m52.847 45.3.086-12.756 2.935-1.633c.3-.168.621.066.62.452l-.044 10.945a1.418 1.418 0 0 1 -.633 1.2z" fill="#3c6065"/><path d="m37.756 13.813a2.639 2.639 0 0 1 1.48.534l6.807 4.764a6.708 6.708 0 0 1 2.112 2.755l4.627 8.679q.009.017.017.035a6.018 6.018 0 0 1 .534 2.335v11.766a2.285 2.285 0 0 1 -.647 1.775.5.5 0 0 1 -.053.041l-4.055 2.7a1.766 1.766 0 0 1 -1.16.419 2.908 2.908 0 0 1 -1.612-.574l-6.674-3.442a.5.5 0 0 1 -.057-.034 7.54 7.54 0 0 1 -2.375-3.115l-4.8-10.16-.006-.013a5.826 5.826 0 0 1 -.519-2.268v-11.764a2.349 2.349 0 0 1 .661-1.821.5.5 0 0 1 .116-.077l4.578-2.18a1.618 1.618 0 0 1 1.026-.355zm14.135 17.187-4.627-8.68q-.009-.017-.017-.035a5.789 5.789 0 0 0 -1.778-2.355l-6.807-4.764a1.669 1.669 0 0 0 -.907-.354.614.614 0 0 0 -.425.155.5.5 0 0 1 -.116.077l-4.562 2.172a1.573 1.573 0 0 0 -.281 1.03v11.765a4.807 4.807 0 0 0 .432 1.86l4.797 10.159.006.013a6.665 6.665 0 0 0 2.012 2.679l6.672 3.447a.5.5 0 0 1 .057.035 1.958 1.958 0 0 0 1.067.413.759.759 0 0 0 .525-.192.5.5 0 0 1 .061-.041l4.048-2.7a1.453 1.453 0 0 0 .287-1.006v-11.762a4.992 4.992 0 0 0 -.444-1.916z" fill="#063964"/><path d="m48.276 49.3a.5.5 0 0 1 -.266-.924l8.235-5.171a1.466 1.466 0 0 0 .283-1v-11.766a4.977 4.977 0 0 0 -.443-1.917l-4.627-8.68q-.009-.017-.017-.034a5.8 5.8 0 0 0 -1.777-2.354l-6.807-4.764c-.261-.183-.914-.568-1.332-.2a.5.5 0 0 1 -.1.067l-8.825 4.684a.5.5 0 1 1 -.469-.883l8.781-4.658a2.028 2.028 0 0 1 2.519.171l6.807 4.764a6.717 6.717 0 0 1 2.111 2.754l4.627 8.68q.009.017.017.034a6 6 0 0 1 .535 2.336v11.761a2.289 2.289 0 0 1 -.646 1.775.5.5 0 0 1 -.065.049l-8.275 5.2a.5.5 0 0 1 -.266.076z" fill="#063964"/><path d="m53.146 28.768c-.156.118-.424-.05-.6-.375l-2.524-4.712c-.174-.326-.189-.685-.033-.8l.515-1.188 5.43 4.515-.655 1.112z" fill="#063964"/><path d="m55.739 25.444-2.524-4.712c-.174-.326-.442-.493-.6-.375l-1.928 1.31c-.156.118-.141.478.034.8l2.524 4.712c.174.325.442.493.6.375l1.927-1.31c.156-.119.141-.478-.033-.8" fill="#5e8e94"/><path d="m53.73 28.1a1.121 1.121 0 0 1 -.924-.677l-2.524-4.712a1.12 1.12 0 0 1 .105-1.439l.021-.015 1.921-1.305a.686.686 0 0 1 .4-.129 1.12 1.12 0 0 1 .924.677l2.524 4.711a1.124 1.124 0 0 1 -.1 1.438l-.022.016-1.92 1.305a.685.685 0 0 1 -.405.13zm-2.646-6.1a.709.709 0 0 0 .079.232l2.524 4.712a.711.711 0 0 0 .049.08l1.64-1.115a.712.712 0 0 0 -.079-.233l-2.524-4.711a.716.716 0 0 0 -.049-.08z" fill="#063964"/></g></g></g></svg>