<svg height="42" viewBox="0 0 42 42" width="42" xmlns="http://www.w3.org/2000/svg" xmlns:xlink="http://www.w3.org/1999/xlink"><clipPath id="a"><circle cx="194" cy="234" r="21"/></clipPath><clipPath id="b"><path d="m0 0h72.344v79.917h-72.344z"/></clipPath><clipPath id="c"><path d="m0 0h34.461v14.376h-34.461z"/></clipPath><clipPath id="d"><path d="m0 0h25.331v12.788h-25.331z"/></clipPath><g clip-path="url(#a)" transform="translate(-173 -213)"><circle cx="21" cy="21" fill="#52a399" r="21" transform="translate(173 213)"/><g clip-path="url(#b)" transform="matrix(.996 .087 -.087 .996 155.443972 183.087424)"><g clip-path="url(#b)"><g clip-path="url(#c)" opacity=".3" transform="translate(34.202 54.396)"><path d="m88.551 86.879c.831 2.809-6.18 7.359-15.659 10.165s-17.837 2.8-18.668-.006 6.18-7.36 15.659-10.165 17.837-2.8 18.668.006" fill="#1b0c0d" transform="translate(-54.157 -84.771)"/></g><g clip-path="url(#d)" opacity=".3" transform="translate(13.646 67.129)"><path d="m46.993 112.96c0 3.531-5.671 6.394-12.665 6.394s-12.665-2.863-12.665-6.394 5.671-6.394 12.665-6.394 12.665 2.863 12.665 6.394" fill="#1b0c0d" transform="translate(-21.663 -106.566)"/></g></g><g fill="#083a64"><path d="m0 4.747a.747.747 0 0 1 -.48-.174.75.75 0 0 1 -.1-1.056l3.328-4a.75.75 0 0 1 1.056-.1.75.75 0 0 1 .096 1.063l-3.328 4a.748.748 0 0 1 -.572.267z" transform="translate(30.041 38.413)"/><path d="m0 7.213a.747.747 0 0 1 -.32-.072.75.75 0 0 1 -.359-1l1.779-3.78a.75.75 0 1 1 1.362.639l-1.784 3.783a.75.75 0 0 1 -.678.43z" transform="matrix(.82903757 .5591929 -.5591929 .82903757 36.193 38.764)"/><path d="m0 4.382a.756.756 0 0 1 -.114-.009.75.75 0 0 1 -.629-.854l.554-3.632a.75.75 0 0 1 .854-.628.75.75 0 0 1 .629.854l-.553 3.632a.75.75 0 0 1 -.741.637z" transform="translate(27.815 37.413)"/></g><g clip-path="url(#b)"><path d="m55.5 41.57a.684.684 0 1 0 .738-.626.684.684 0 0 0 -.738.626" fill="#083a64" transform="translate(-20.537 -15.152)"/><path d="m44.242 39.441a.684.684 0 1 0 .738-.626.684.684 0 0 0 -.738.626" fill="#083a64" transform="translate(-16.372 -14.364)"/><path d="m31.283 45.021a.684.684 0 1 0 .738-.626.685.685 0 0 0 -.738.626" fill="#083a64" transform="translate(-11.576 -16.429)"/><path d="m72.963 65.646.837 2.774-.743 1.208s.767.672 1.41.545 1.163-1.054 1.249-1.206c.171-.3-.978-3.484-.978-3.484z" fill="#f6d6c4" transform="translate(-27.002 -24.234)"/><path d="m74.743 64.973a.51.51 0 0 1 .479.337c0 .008.294.814.559 1.647.558 1.748.514 2.031.383 2.262a2.75 2.75 0 0 1 -1.593 1.454 1.385 1.385 0 0 1 -.268.026 2.772 2.772 0 0 1 -1.577-.687.51.51 0 0 1 -.1-.651l.622-1.012-.775-2.555a.51.51 0 0 1 .441-.656l1.78-.163zm.482 3.833a20.877 20.877 0 0 0 -.83-2.779l-.763.07.66 2.175a.51.51 0 0 1 -.054.415l-.492.8a1.24 1.24 0 0 0 .556.191.364.364 0 0 0 .07-.006c.181-.035.507-.285.854-.866z" fill="#083a64" transform="translate(-27.002 -24.234)"/><path d="m80.022 73.772s-.811.853-.434 1.676 2.274 5.352 2.274 5.352l.816-.674z" fill="#c6d5de" transform="translate(-29.417 -27.301)"/><path d="m80.022 73.262a.51.51 0 0 1 .471.313l2.655 6.357a.51.51 0 0 1 -.146.59l-.816.674a.51.51 0 0 1 -.8-.2c-.019-.045-1.9-4.533-2.267-5.34a2.131 2.131 0 0 1 .528-2.239.51.51 0 0 1 .375-.155zm1.108 4.487-1.13-2.702a.579.579 0 0 0 .05.188c.169.365.622 1.428 1.08 2.514z" fill="#083a64" transform="translate(-29.417 -27.301)"/><path d="m77.21 75.056-2.931-.7 2.468-1.191 2.931.7z" fill="#596064" transform="translate(-27.489 -27.076)"/><path d="m77.21 75.566a.51.51 0 0 1 -.119-.014l-2.931-.7a.51.51 0 0 1 -.1-.955l2.465-1.197a.51.51 0 0 1 .34-.037l2.931.7a.51.51 0 0 1 .1.955l-2.468 1.191a.51.51 0 0 1 -.218.057zm-1.42-1.374 1.362.325 1.015-.49-1.362-.327z" fill="#083a64" transform="translate(-27.489 -27.076)"/><path d="m70.911 71.167a22.077 22.077 0 0 1 -2.938 1.586c-.253-.055-.561.5.093 1.076s2.833.263 2.833.263l2.033-1.248s1.075.2 1.33-.151.655-1.767-.315-2.377c0 0-1.323 1.278-2.018 1.161a3.174 3.174 0 0 1 -1.019-.31" fill="#a4977d" transform="translate(-25.045 -26.022)"/><path d="m73.948 69.806a.509.509 0 0 1 .271.078 1.8 1.8 0 0 1 .815 1.218 2.727 2.727 0 0 1 -.359 1.891 1.288 1.288 0 0 1 -1.116.417 4.278 4.278 0 0 1 -.518-.035l-1.876 1.151a.51.51 0 0 1 -.194.07 10.39 10.39 0 0 1 -1.322.09 2.921 2.921 0 0 1 -1.92-.474 1.376 1.376 0 0 1 -.5-1.442.773.773 0 0 1 .726-.53 28.51 28.51 0 0 0 2.691-1.508.49.49 0 0 1 .525 0 2.941 2.941 0 0 0 .844.246h.011a3.839 3.839 0 0 0 1.569-1.025.51.51 0 0 1 .353-.147zm-.075 2.55a1.818 1.818 0 0 0 .159-1.062.916.916 0 0 0 -.1-.28 3.645 3.645 0 0 1 -1.909.98 1.083 1.083 0 0 1 -.18-.015 4.592 4.592 0 0 1 -.9-.237 16.936 16.936 0 0 1 -2.732 1.48.805.805 0 0 0 .187.223c.042.037.3.221 1.247.221a9.521 9.521 0 0 0 1.076-.067l1.94-1.191a.51.51 0 0 1 .359-.067 3.433 3.433 0 0 0 .534.048 1.078 1.078 0 0 0 .319-.033z" fill="#083a64" transform="translate(-25.045 -26.022)"/><path d="m77.216 53.582s-7.455-.886-8.561.093 1.863 7.982 1.863 7.982l3.374-.619-.98-3.543 5.665.632 2.574-1.727-.733-3.2z" fill="#c7b269" transform="translate(-25.316 -19.69)"/><path d="m80.418 52.695a.51.51 0 0 1 .5.4l.733 3.193a.51.51 0 0 1 -.213.538l-2.577 1.724a.51.51 0 0 1 -.341.083l-4.92-.548.779 2.817a.51.51 0 0 1 -.4.638l-3.374.619a.51.51 0 0 1 -.562-.3c-.008-.018-.758-1.793-1.362-3.666-1.161-3.6-.807-4.509-.369-4.9.31-.274.966-.589 3.309-.589s5.132.311 5.589.364l3.143-.37a.514.514 0 0 1 .065-.003zm-3.2 1.4a.511.511 0 0 1 -.06 0c-.031 0-3.092-.364-5.529-.364-2.149 0-2.57.277-2.633.332-.014.017-.405.532.691 3.9.42 1.291.9 2.522 1.147 3.12l2.42-.444-.832-3.006a.51.51 0 0 1 .548-.643l5.479.612 2.127-1.429-.552-2.405-2.748.323a.51.51 0 0 1 -.06.001z" fill="#083a64" transform="translate(-25.316 -19.69)"/><path d="m97.716 59.808c-3.014-.533-6.213 3.3-7.145 8.57s.756 9.967 3.769 10.5 6.212-3.3 7.145-8.569-.756-9.968-3.769-10.5m-3.075 17.375c-2.178-.386-3.228-4.734-2.555-8.539s3.143-7.471 5.32-7.086 3.239 4.677 2.566 8.481-3.153 7.529-5.33 7.143" fill="#043861" transform="translate(-33.423 -22.115)"/><path d="m97.151 59.419a3.656 3.656 0 0 1 .624.055c1.583.28 2.87 1.593 3.625 3.7a14.365 14.365 0 0 1 .42 7.2c-.9 5.074-3.871 8.9-6.914 8.9a3.592 3.592 0 0 1 -.625-.055c-1.583-.28-2.87-1.593-3.625-3.7a14.359 14.359 0 0 1 -.42-7.2c.898-5.074 3.871-8.9 6.915-8.9zm-2.245 19.17a5.054 5.054 0 0 0 3.757-2.325 14.043 14.043 0 0 0 2.488-6.013 13.68 13.68 0 0 0 -.39-6.851c-.669-1.864-1.771-3.02-3.1-3.256a2.914 2.914 0 0 0 -.506-.044 5.054 5.054 0 0 0 -3.757 2.325 14.04 14.04 0 0 0 -2.488 6.014 13.675 13.675 0 0 0 .39 6.851c.669 1.864 1.771 3.02 3.1 3.256a2.91 2.91 0 0 0 .506.042zm2.18-17.4a2.181 2.181 0 0 1 .379.033c1.162.206 2.092 1.342 2.62 3.2a13.142 13.142 0 0 1 .221 5.675 13.521 13.521 0 0 1 -2.015 5.076c-1.042 1.532-2.226 2.376-3.334 2.376a2.156 2.156 0 0 1 -.375-.033c-1.161-.206-2.089-1.353-2.615-3.23a13.317 13.317 0 0 1 -.216-5.7c.632-3.571 2.926-7.394 5.335-7.394zm-2.129 15.68c1.811 0 4.042-3.284 4.68-6.89a12.44 12.44 0 0 0 -.206-5.371c-.446-1.571-1.206-2.561-2.084-2.717a1.5 1.5 0 0 0 -.26-.023c-.864 0-1.871.748-2.764 2.052a12.784 12.784 0 0 0 -1.7 10.182c.444 1.589 1.2 2.589 2.078 2.744a1.476 1.476 0 0 0 .255.026z" fill="#043861" transform="translate(-33.423 -22.115)"/><path d="m94.8 72.8c-2.557-2.716-7.926-1.885-7.926-1.885l-.047-1.9s5.369-.831 7.926 1.885" fill="#ffdd02" transform="translate(-32.133 -25.495)"/><path d="m94.8 73.307a.509.509 0 0 1 -.371-.16c-2.34-2.486-7.425-1.738-7.477-1.73a.51.51 0 0 1 -.588-.491l-.047-1.9a.51.51 0 0 1 .432-.517c.23-.036 5.665-.839 8.375 2.039a.51.51 0 1 1 -.743.7c-1.937-2.058-5.739-1.9-7.033-1.781l.022.878c1.506-.138 5.574-.26 7.8 2.106a.51.51 0 0 1 -.371.86z" fill="#083a64" transform="translate(-32.133 -25.495)"/><path d="m67.128 62.261s5.524-2.062 7.929 1.446 3.7 3.119 3.7 3.119a1.033 1.033 0 0 1 -.431 1.795s-1.3.389-3.7-3.119-7.7-1.058-7.7-1.058" fill="#ffdd02" transform="translate(-24.769 -22.819)"/><path d="m78.2 69.146c-.589 0-1.964-.395-3.994-3.355a4.233 4.233 0 0 0 -4.276-1.626 9.994 9.994 0 0 0 -2.786.742.51.51 0 1 1 -.429-.926 10.933 10.933 0 0 1 3.106-.831 5.243 5.243 0 0 1 5.226 2.063c1.886 2.75 2.968 2.905 3.15 2.91.167-.076.4-.208.431-.374a.624.624 0 0 0 -.114-.4c-.642-.053-1.971-.57-3.878-3.35-2.155-3.143-7.279-1.276-7.331-1.257a.51.51 0 0 1 -.357-.956 11.674 11.674 0 0 1 3.218-.624 5.733 5.733 0 0 1 5.311 2.26c2 2.916 3.1 2.914 3.173 2.91a.51.51 0 0 1 .482.147 1.816 1.816 0 0 1 .493 1.486 1.638 1.638 0 0 1 -1.1 1.13l-.049.017a.977.977 0 0 1 -.276.034z" fill="#083a64" transform="translate(-24.769 -22.819)"/><path d="m0 0h1.248v4.859h-1.248z" fill="#c6d5de" transform="matrix(1 -.025 .025 1 41.675 37.029)"/><path d="m0-.51h1.248a.51.51 0 0 1 .51.51v4.859a.51.51 0 0 1 -.51.51h-1.248a.51.51 0 0 1 -.51-.51v-4.859a.51.51 0 0 1 .51-.51zm.738 1.02h-.228v3.839h.228z" fill="#083a64" transform="matrix(1 -.025 .025 1 41.675 37.029)"/><path d="m0 0h1.159v4.147h-1.159z" fill="#575d61" transform="matrix(.596 -.803 .803 .596 35.319 33.69)"/><path d="m0-.51h1.159a.51.51 0 0 1 .51.51v4.147a.51.51 0 0 1 -.51.51h-1.159a.51.51 0 0 1 -.51-.51v-4.147a.51.51 0 0 1 .51-.51zm.649 1.02h-.139v3.127h.139z" fill="#083a64" transform="matrix(.596 -.803 .803 .596 35.319 33.69)"/><path d="m62 51.836s-.581 1.754-.578 1.887.119 1.2-.145 1.342-1.107-1.489-1.107-1.489-1.192.476-1.186.743-.189 1.387-.323 1.39a1.875 1.875 0 0 1 -.926-1.359 11.175 11.175 0 0 1 .046-1.74c.12-.583 3.928-1.7 3.928-1.7z" fill="#f6d6c4" transform="translate(-21.362 -18.84)"/><path d="m61.71 50.4a.51.51 0 0 1 .487.358l.29.929a.51.51 0 0 1 0 .312c-.233.7-.5 1.539-.549 1.755v.033c.051.735.061 1.475-.42 1.731a.588.588 0 0 1 -.275.068c-.347 0-.63-.259-1.081-.991-.077-.125-.15-.249-.213-.361a3.65 3.65 0 0 0 -.46.255 6.845 6.845 0 0 1 -.112.73c-.086.418-.2.991-.7 1h-.013c-.1 0-.326 0-.771-.466a2.112 2.112 0 0 1 -.664-1.427c.01-.216 0-.429 0-.635a4.864 4.864 0 0 1 .06-1.184c.084-.408.492-.775 2.334-1.447.971-.354 1.91-.631 1.95-.643a.51.51 0 0 1 .137-.017zm-.245 1.435-.091-.29a14.088 14.088 0 0 0 -3.107 1.251 4.365 4.365 0 0 0 -.025.864c.008.227.016.461 0 .718a.787.787 0 0 0 .172.418 3.276 3.276 0 0 0 .057-.461c-.011-.428.41-.7.867-.938.315-.161.626-.286.639-.291a.51.51 0 0 1 .642.239c.095.183.2.367.3.538v-.024c0-.057-.007-.1-.007-.12a8.342 8.342 0 0 1 .553-1.907z" fill="#083a64" transform="translate(-21.362 -18.84)"/><path d="m60.912 55.144a5.381 5.381 0 0 0 3.028 1.62c1.608.094 7.463-1.211 7.463-1.211l.338 1.062s-5.938 1.53-8.037 1.4a7.135 7.135 0 0 1 -3.977-2.132z" fill="#ffdd02" transform="translate(-22.103 -20.408)"/><path d="m60.911 54.634a.51.51 0 0 1 .373.162 4.9 4.9 0 0 0 2.685 1.458h.153a58.523 58.523 0 0 0 7.169-1.2.51.51 0 0 1 .6.343l.338 1.062a.51.51 0 0 1 -.359.649 47.952 47.952 0 0 1 -7.9 1.427c-.106 0-.206 0-.3-.008a7.58 7.58 0 0 1 -4.319-2.292.51.51 0 0 1 .1-.781l1.186-.743a.509.509 0 0 1 .274-.077zm3.211 2.644c-.076 0-.147 0-.212-.006a5.456 5.456 0 0 1 -3.065-1.485l-.287.18a5.92 5.92 0 0 0 3.176 1.542c.072 0 .151.007.237.007a42.7 42.7 0 0 0 7.118-1.264l-.032-.1a51.065 51.065 0 0 1 -6.935 1.126z" fill="#083a64" transform="translate(-22.103 -20.408)"/><path d="m62.388 65.431s.006 11.06-2.016 14.054c0 0-.292.81.108.756s3.114-.3 3.119-14.483" fill="#ffdd02" transform="translate(-22.305 -24.215)"/><path d="m60.445 80.753a.655.655 0 0 1 -.52-.243 1.279 1.279 0 0 1 -.032-1.2.51.51 0 0 1 .057-.113c.777-1.151 1.358-3.882 1.68-7.9.247-3.084.249-5.842.249-5.87a.51.51 0 0 1 .51-.51.51.51 0 0 1 .51.51c0 .436-.016 10.258-1.822 13.854a4.893 4.893 0 0 0 .655-1.219c.618-1.588 1.356-5.013 1.359-12.308a.51.51 0 0 1 .51-.51.51.51 0 0 1 .51.51c0 5.984-.483 10.249-1.428 12.677-.552 1.417-1.266 2.194-2.123 2.309h-.01a.785.785 0 0 1 -.105.013z" fill="#083a64" transform="translate(-22.305 -24.215)"/><path d="m61.056 73.029c-3.014-.533-6.213 3.3-7.145 8.57s.756 9.967 3.769 10.5 6.212-3.3 7.145-8.569-.756-9.968-3.769-10.5m-3.075 17.375c-2.178-.386-3.228-4.734-2.555-8.539s3.143-7.471 5.32-7.086 3.239 4.677 2.566 8.481-3.153 7.529-5.33 7.143" fill="#043861" transform="translate(-19.856 -27.008)"/><path d="m60.491 72.64a3.712 3.712 0 0 1 .624.055c1.583.28 2.87 1.593 3.625 3.7a14.365 14.365 0 0 1 .42 7.2c-.9 5.074-3.871 8.9-6.914 8.9a3.592 3.592 0 0 1 -.625-.055c-1.583-.28-2.87-1.593-3.625-3.7a14.359 14.359 0 0 1 -.42-7.2c.898-5.074 3.871-8.9 6.915-8.9zm-2.245 19.17a5.054 5.054 0 0 0 3.754-2.325 14.043 14.043 0 0 0 2.488-6.013 13.68 13.68 0 0 0 -.39-6.851c-.669-1.864-1.771-3.02-3.1-3.256a2.914 2.914 0 0 0 -.506-.044 5.054 5.054 0 0 0 -3.757 2.325 14.04 14.04 0 0 0 -2.488 6.014 13.675 13.675 0 0 0 .39 6.851c.669 1.864 1.771 3.02 3.1 3.256a2.91 2.91 0 0 0 .509.042zm2.18-17.4a2.181 2.181 0 0 1 .379.033c1.162.206 2.092 1.342 2.62 3.2a13.142 13.142 0 0 1 .221 5.675 13.521 13.521 0 0 1 -2.016 5.082c-1.042 1.532-2.226 2.376-3.334 2.376a2.157 2.157 0 0 1 -.375-.033c-1.161-.205-2.089-1.353-2.615-3.23a13.317 13.317 0 0 1 -.216-5.7c.633-3.577 2.927-7.4 5.336-7.4zm-2.126 15.683c1.811 0 4.042-3.284 4.68-6.89a12.44 12.44 0 0 0 -.206-5.371c-.446-1.571-1.206-2.561-2.084-2.717a1.5 1.5 0 0 0 -.26-.023c-.864 0-1.871.748-2.764 2.052a12.784 12.784 0 0 0 -1.7 10.182c.444 1.589 1.2 2.589 2.078 2.744a1.475 1.475 0 0 0 .256.023z" fill="#043861" transform="translate(-19.856 -27.008)"/><path d="m64.787 67.008 2.077.467c-.011 3.689-.736 11.194-3.084 12.893 0 0-.292.809.108.755s4.226-.417 4.232-14.6l-1.212-.323-3.274-.769" fill="#ffdd02" transform="translate(-23.549 -24.215)"/><path d="m63.852 81.635a.655.655 0 0 1 -.52-.243 1.278 1.278 0 0 1 -.032-1.2.51.51 0 0 1 .181-.24c.9-.654 1.69-2.565 2.216-5.381a42.674 42.674 0 0 0 .653-6.692l-1.675-.376a.51.51 0 1 1 .224-1l2.077.467a.51.51 0 0 1 .4.5 43.656 43.656 0 0 1 -.674 7.285 12.373 12.373 0 0 1 -2.028 5.457 4.51 4.51 0 0 0 1.06-1.393c1.5-2.841 1.854-7.966 1.877-11.911l-.784-.211-.034-.007-3.274-.769a.51.51 0 0 1 .233-.993l3.225.757a.5.5 0 0 1 .066.013l1.212.327a.51.51 0 0 1 .377.493c0 5.973-.674 10.272-2 12.777a3.855 3.855 0 0 1 -2.665 2.326h-.012a.786.786 0 0 1 -.103.014z" fill="#083a64" transform="translate(-23.549 -24.215)"/><path d="m84.385 83.03a.51.51 0 0 1 -.295-.927l10.177-7.184-.306-2.105-9.315 2.144a.51.51 0 0 1 -.229-.994l9.855-2.264a.51.51 0 0 1 .619.424l.43 2.963a.51.51 0 0 1 -.211.49l-10.432 7.36a.508.508 0 0 1 -.293.093z" fill="#083a64" transform="translate(-31.229 -26.717)"/><path d="m99.685 71.3c-.721-.128-1.486.791-1.709 2.05s.181 2.384.9 2.512 1.487-.791 1.71-2.05-.181-2.384-.9-2.512" fill="#90b7cc" transform="translate(-36.236 -26.383)"/><path d="m99.549 70.78a1.29 1.29 0 0 1 .224.02 1.644 1.644 0 0 1 1.2 1.161 3.867 3.867 0 0 1 .119 1.942c-.255 1.439-1.128 2.483-2.077 2.483a1.29 1.29 0 0 1 -.224-.02 1.643 1.643 0 0 1 -1.2-1.162 3.868 3.868 0 0 1 -.119-1.942c.256-1.437 1.128-2.482 2.077-2.482zm-.537 4.586c.32 0 .885-.584 1.073-1.641.192-1.086-.161-1.863-.489-1.921a.267.267 0 0 0 -.046 0c-.319 0-.884.584-1.071 1.641-.192 1.086.161 1.863.488 1.921a.266.266 0 0 0 .045 0z" fill="#083a64" transform="translate(-36.236 -26.383)"/><path d="m84.979 71.96-1.579-.286 1.873-11.594 1.58.285z" fill="#ffdd02" transform="translate(-30.864 -22.235)"/><path d="m84.979 72.47a.509.509 0 0 1 -.091-.008l-1.579-.285a.51.51 0 0 1 -.413-.583l1.874-11.594a.51.51 0 0 1 .594-.421l1.58.285a.51.51 0 0 1 .413.583l-1.875 11.594a.51.51 0 0 1 -.5.429zm-1-1.208.575.1 1.711-10.587-.576-.1z" fill="#083a64" transform="translate(-30.864 -22.235)"/><path d="m81.352 84.279c-1.184-.21-1.755-2.574-1.389-4.643s1.708-4.062 2.893-3.852 1.761 2.542 1.395 4.611-1.715 4.093-2.9 3.883" fill="#7d9eb0" transform="translate(-29.552 -28.04)"/><path d="m81.523 84.8a1.5 1.5 0 0 1 -.261-.023c-.761-.135-1.357-.841-1.678-1.989a7.578 7.578 0 0 1 -.124-3.245c.365-2.062 1.7-4.288 3.221-4.288a1.513 1.513 0 0 1 .263.023c.761.134 1.357.834 1.68 1.971a7.483 7.483 0 0 1 .128 3.231c-.368 2.081-1.707 4.32-3.229 4.32zm1.158-8.525c-.728 0-1.878 1.537-2.216 3.446-.352 1.99.252 3.923.976 4.052a.469.469 0 0 0 .083.007c.728 0 1.883-1.551 2.224-3.477a6.524 6.524 0 0 0 -.1-2.775c-.2-.719-.532-1.184-.877-1.245a.491.491 0 0 0 -.09-.004z" fill="#083a64" transform="translate(-29.552 -28.04)"/><path d="m87.492 57.417s-.365-.288-1.73-.2-1.669-.136-2.132.35-3.061 1.266-2.866 1.914.455 1.594 1.759 1.384 4.075-1.112 4.913-.9 1.561-1.822.056-2.558" fill="#4b5155" transform="translate(-29.885 -21.17)"/><path d="m86.274 56.694a2.813 2.813 0 0 1 1.475.282 2 2 0 0 1 1.071 2.29 1.417 1.417 0 0 1 -1.258 1.234 1.008 1.008 0 0 1 -.254-.033.843.843 0 0 0 -.2-.017 15.466 15.466 0 0 0 -2.77.533c-.655.162-1.273.314-1.733.389a2.727 2.727 0 0 1 -.432.037c-1.366 0-1.706-1.137-1.888-1.749l-.009-.029c-.191-.635.476-1.065.7-1.206a11.6 11.6 0 0 1 1.275-.664 6.2 6.2 0 0 0 1.014-.541 1.558 1.558 0 0 1 1.31-.485h.4c.182 0 .432 0 .752-.025.192-.01.373-.016.547-.016zm.933 1.146a2.318 2.318 0 0 0 -.933-.126c-.148 0-.309.006-.477.017-.355.024-.639.027-.822.027h-.4c-.383 0-.433.023-.571.168a4.8 4.8 0 0 1 -1.318.76 7.313 7.313 0 0 0 -1.393.772c.195.634.361.934.884.934a1.707 1.707 0 0 0 .27-.023c.419-.068 1.018-.216 1.652-.372a15.45 15.45 0 0 1 3.014-.563 1.824 1.824 0 0 1 .453.049.743.743 0 0 0 .285-.557.982.982 0 0 0 -.579-1.049.51.51 0 0 1 -.065-.037z" fill="#083a64" transform="translate(-29.885 -21.17)"/><path d="m83.605 81.236s-.811.853-.434 1.676 2.273 5.355 2.273 5.355l.816-.674z" fill="#c6d5de" transform="translate(-30.743 -30.064)"/><path d="m83.605 80.726a.51.51 0 0 1 .471.313l2.655 6.361a.51.51 0 0 1 -.146.59l-.816.674a.51.51 0 0 1 -.8-.2c-.019-.045-1.9-4.533-2.267-5.34a2.132 2.132 0 0 1 .528-2.239.51.51 0 0 1 .375-.159zm1.11 4.492-1.131-2.707a.578.578 0 0 0 .05.188c.166.365.622 1.431 1.082 2.519z" fill="#083a64" transform="translate(-30.743 -30.064)"/><path d="m88.494 92.334-2.931-.7 2.468-1.191 2.931.7z" fill="#596064" transform="translate(-31.665 -33.471)"/><path d="m88.494 92.844a.51.51 0 0 1 -.119-.014l-2.931-.7a.51.51 0 0 1 -.1-.955l2.468-1.191a.51.51 0 0 1 .34-.037l2.931.7a.51.51 0 0 1 .1.955l-2.468 1.191a.51.51 0 0 1 -.221.051zm-1.42-1.374 1.362.325 1.015-.49-1.362-.325z" fill="#083a64" transform="translate(-31.665 -33.471)"/><path d="m85.658 76.646a19.9 19.9 0 0 1 .871 2.743 22.277 22.277 0 0 1 -.429 2.511s.988.288 1.122.284a3.213 3.213 0 0 0 1.417-2.22 6.518 6.518 0 0 0 -.1-2.406l-1.783-1.739z" fill="#f6d6c4" transform="translate(-31.7 -28.058)"/><path d="m86.752 75.306a.509.509 0 0 1 .356.145l1.783 1.739a.51.51 0 0 1 .135.229 7.012 7.012 0 0 1 .117 2.614 3.852 3.852 0 0 1 -.838 1.862c-.15.184-.669.787-1.072.8h-.015a5.553 5.553 0 0 1 -1.262-.3.51.51 0 0 1 -.356-.6 20.354 20.354 0 0 0 .417-2.386 18.4 18.4 0 0 0 -.837-2.575.51.51 0 0 1 .168-.588l1.094-.83a.509.509 0 0 1 .31-.11zm1.32 2.51-1.362-1.328-.441.334a13.92 13.92 0 0 1 .769 2.554 15.152 15.152 0 0 1 -.34 2.16c.168.046.322.086.428.111a2.93 2.93 0 0 0 1.007-1.757 6.248 6.248 0 0 0 -.061-2.074z" fill="#083a64" transform="translate(-31.7 -28.058)"/><path d="m85.853 81.43a24.973 24.973 0 0 1 -1.542 3.448c-.265.125-.157.837.825.9s2.723-1.718 2.723-1.718l.963-2.522s1.1-.563 1.089-1.053-.631-2.036-1.921-1.915c0 0-.306 2.059-1.01 2.433a3.611 3.611 0 0 1 -1.127.424" fill="#a4977d" transform="translate(-31.156 -29.076)"/><path d="m88.132 78.056c1.544 0 2.272 1.753 2.288 2.419.016.641-.726 1.162-1.19 1.424l-.9 2.344a.51.51 0 0 1 -.111.174c-.305.313-1.886 1.873-3.034 1.873h-.087a1.386 1.386 0 0 1 -1.409-1 .789.789 0 0 1 .3-.808 31.427 31.427 0 0 0 1.388-3.23.492.492 0 0 1 .413-.323 3.38 3.38 0 0 0 .95-.368 4.106 4.106 0 0 0 .745-2.058.51.51 0 0 1 .457-.433c.064-.011.128-.014.19-.014zm1.268 2.416a1.826 1.826 0 0 0 -.992-1.352c-.041.193-.1.428-.168.673a2.609 2.609 0 0 1 -1.02 1.664 5.09 5.09 0 0 1 -.989.41c-.123.313-.344.874-.578 1.436a9.7 9.7 0 0 1 -.894 1.852.817.817 0 0 0 .412.115h.02a5.291 5.291 0 0 0 2.231-1.492l.925-2.421a.51.51 0 0 1 .244-.272 2.442 2.442 0 0 0 .809-.613z" fill="#083a64" transform="translate(-31.156 -29.076)"/><path d="m86.664 50.378s1.776 2.1 1.929 3.461-2.707 3.516-2.707 3.516l-2.7 3.873 2.2 5a2.76 2.76 0 0 1 -3.108 1.742s-3.278-5.212-3.133-6.643c.122-1.217 2.386-5.521 3.226-6.481.147-.169.234-.265.234-.265l.124-2.2z" fill="#c7b269" transform="translate(-29.288 -18.644)"/><path d="m86.664 49.868a.51.51 0 0 1 .389.18c.192.227 1.882 2.258 2.047 3.734.083.736-.388 1.613-1.439 2.683a14.818 14.818 0 0 1 -1.4 1.245l-2.489 3.573 2.089 4.737a.51.51 0 0 1 .011.386 3.334 3.334 0 0 1 -2.963 2.14 3.541 3.541 0 0 1 -.728-.079.51.51 0 0 1 -.326-.227c-.008-.013-.838-1.334-1.64-2.813-1.505-2.78-1.62-3.7-1.575-4.151.135-1.355 2.451-5.74 3.35-6.766l.118-.135.114-2.026a.51.51 0 0 1 .278-.426l3.934-2a.509.509 0 0 1 .23-.055zm-1.831 16.356-2.113-4.791a.51.51 0 0 1 .048-.5l2.7-3.873a.51.51 0 0 1 .112-.116c1.06-.8 2.589-2.32 2.507-3.051a7.7 7.7 0 0 0 -1.559-2.876l-3.306 1.683-.108 1.91a.51.51 0 0 1 -.129.312s-.086.1-.229.26a22.94 22.94 0 0 0 -3.1 6.2c-.017.173.037.942 1.456 3.564.608 1.123 1.232 2.151 1.487 2.564a2.377 2.377 0 0 0 .31.021 2.225 2.225 0 0 0 1.924-1.307z" fill="#083a64" transform="translate(-29.288 -18.644)"/><path d="m70.532 30.3c1.282.263 4.005 1.274 4.981 3.016s2.587 5.623 2.587 5.623l3.24 4.749s-6.045 5.621-8.833 1.179a29.863 29.863 0 0 0 -1.682-4.52c-.559-.772-2.022-2.4-2.022-2.4a24.815 24.815 0 0 1 -1.822 3.676 31.033 31.033 0 0 1 -3.642 3.524l-2-1.667a35.915 35.915 0 0 0 3.972-4.222c.563-1.044.395-5.649 2.035-6.769s3.186-2.189 3.186-2.189" fill="#fff" transform="translate(-22.701 -11.212)"/><path d="m70.532 29.786a.51.51 0 0 1 .1.01c1.365.28 4.234 1.322 5.323 3.266.931 1.663 2.4 5.157 2.6 5.631l3.21 4.706a.51.51 0 0 1 -.074.661c-.133.123-3.287 3.024-6.239 3.024a3.809 3.809 0 0 1 -3.373-1.948.51.51 0 0 1 -.057-.125 27.091 27.091 0 0 0 -1.606-4.367c-.326-.45-.984-1.218-1.454-1.756a20.017 20.017 0 0 1 -1.56 3.022 30.79 30.79 0 0 1 -3.732 3.622.51.51 0 0 1 -.654 0l-2-1.667a.51.51 0 0 1 -.021-.765 31.881 31.881 0 0 0 3.871-4.091 8.6 8.6 0 0 0 .372-1.907c.253-1.863.567-4.182 1.825-5.041 1.62-1.106 3.166-2.176 3.181-2.187a.51.51 0 0 1 .288-.088zm10.135 13.814-2.984-4.374a.51.51 0 0 1 -.05-.091c-.016-.039-1.617-3.877-2.566-5.573-.8-1.419-3.049-2.389-4.429-2.719-.458.316-1.706 1.178-3 2.063-.883.6-1.176 2.761-1.389 4.336a7.887 7.887 0 0 1 -.484 2.254 28.491 28.491 0 0 1 -3.652 3.956l1.231 1.024a26.466 26.466 0 0 0 3.228-3.151 24.483 24.483 0 0 0 1.766-3.573.51.51 0 0 1 .853-.15c.06.067 1.488 1.66 2.055 2.445a27.108 27.108 0 0 1 1.737 4.6 2.8 2.8 0 0 0 2.473 1.414c2.044.004 4.366-1.761 5.211-2.461z" fill="#083a64" transform="translate(-22.701 -11.212)"/><path d="m66.434 30.38.334 2.421s1.23-.971 1.084-2.1-.891-1.153-.891-1.153l-.535.562z" fill="#102f54" transform="translate(-24.583 -10.934)"/><path d="m66.962 29.034h.014c.409.011 1.223.36 1.382 1.6a3.251 3.251 0 0 1 -1.274 2.566.51.51 0 0 1 -.821-.33l-.335-2.421a.51.51 0 0 1 0-.057l-.007-.274a.51.51 0 0 1 .14-.364l.535-.562a.51.51 0 0 1 .366-.158zm.159 2.59a1.39 1.39 0 0 0 .226-.861.986.986 0 0 0 -.251-.619l-.153.161v.034z" fill="#102f54" transform="translate(-24.583 -10.934)"/><path d="m64.9 22.065c-.064 1.024.137 4.176 2.35 5.4a3.663 3.663 0 0 0 2.657.258l1.007 1.313s1.019.5 2.127-1.111l-1.075-1.054s2.2-2.207 1.73-4.1a6.318 6.318 0 0 0 -3.446-4.611c-1.208-.609-5.071-.549-5.351 3.9" fill="#f6d6c4" transform="translate(-24.015 -6.619)"/><path d="m68.863 17.377a3.751 3.751 0 0 1 1.619.328 6.8 6.8 0 0 1 3.711 4.943c.416 1.662-.871 3.439-1.518 4.2l.725.711a.51.51 0 0 1 .063.653 2.663 2.663 0 0 1 -2.153 1.4 1.472 1.472 0 0 1 -.618-.124.51.51 0 0 1 -.181-.148l-.811-1.04a4.511 4.511 0 0 1 -.832.077 3.815 3.815 0 0 1 -1.868-.466 5 5 0 0 1 -2.27-3.075 8.617 8.617 0 0 1 -.341-2.8c.219-3.436 2.455-4.659 4.474-4.659zm3.5 10.6-.753-.739a.51.51 0 0 1 0-.724c.555-.559 1.926-2.3 1.6-3.616a5.8 5.8 0 0 0 -3.18-4.279 2.759 2.759 0 0 0 -1.16-.219 3.443 3.443 0 0 0 -2.178.74 3.991 3.991 0 0 0 -1.282 2.96c0 .036-.2 3.655 2.087 4.921a2.808 2.808 0 0 0 1.375.335 3.248 3.248 0 0 0 .88-.116.513.513 0 0 1 .56.175l.905 1.18a.687.687 0 0 0 .092.006 1.455 1.455 0 0 0 1.054-.628z" fill="#083a64" transform="translate(-24.015 -6.619)"/><path d="m68.3 20.026a7.865 7.865 0 0 1 -4.346 3.83l.507 1.489s-5.78-2.416-1.114-7.843a4.659 4.659 0 0 1 3.442-1.29c2.917-.1 10.574 3.237 4.472 10.009 0 0-1.283-5.375-2.961-6.2" fill="#102f54" transform="translate(-22.77 -5.999)"/><path d="m66.92 15.7c2.1 0 5.615 1.374 6.764 3.954a4.611 4.611 0 0 1 .208 3.125 9.481 9.481 0 0 1 -2.252 3.784.51.51 0 0 1 -.875-.223c-.418-1.749-1.358-4.551-2.3-5.553a8.307 8.307 0 0 1 -3.865 3.381l.345 1.013a.51.51 0 0 1 -.679.635 5.623 5.623 0 0 1 -3.141-3.443c-.378-1.6.24-3.347 1.836-5.2a5.035 5.035 0 0 1 3.81-1.473zm4.58 9.445c1.485-1.9 1.905-3.6 1.25-5.076a5.535 5.535 0 0 0 -2.637-2.49 7.657 7.657 0 0 0 -3.195-.859h-.114a4.094 4.094 0 0 0 -3.073 1.113c-1.369 1.592-1.914 3.038-1.618 4.3a3.794 3.794 0 0 0 1.408 2.041l-.052-.153a.51.51 0 0 1 .331-.651 7.362 7.362 0 0 0 4.036-3.559.51.51 0 0 1 .686-.242c.83.406 1.6 1.612 2.365 3.688.259.7.467 1.372.613 1.888z" fill="#102f54" transform="translate(-22.77 -5.999)"/><path d="m72.528 27.554h-.028l-.82-.054a.34.34 0 0 1 -.264-.521l.377-.6a.34.34 0 0 1 .575.363l-.073.116.257.018a.34.34 0 0 1 -.023.679z" fill="#0c2d50" transform="translate(-26.536 -9.829)"/><path d="m67.33 29.757a.34.34 0 0 1 -.311-.477l.1-.236-.269-.022a.34.34 0 0 1 .054-.678l.746.06a.34.34 0 0 1 .284.476l-.3.673a.34.34 0 0 1 -.304.204z" fill="#0c2d50" transform="translate(-24.751 -10.615)"/><path d="m72 30.428c.191.175.488.918-.251 1.123-.636.176-1.477.181-1.393-.71.05-.537 1.294-.733 1.645-.413" fill="#fff" transform="translate(-26.036 -11.203)"/><path d="m71.443 29.933a1.015 1.015 0 0 1 1.1 1.282.907.907 0 0 1 -.7.663 2.707 2.707 0 0 1 -.708.105 1.127 1.127 0 0 1 -.878-.328 1.058 1.058 0 0 1 -.237-.846c.053-.569.772-.876 1.423-.876zm-.308 1.37a2.024 2.024 0 0 0 .526-.081c.189-.052.21-.132.218-.162a.518.518 0 0 0 -.106-.382.6.6 0 0 0 -.331-.065c-.417 0-.738.182-.745.259a.452.452 0 0 0 .062.325.521.521 0 0 0 .376.103z" fill="#0c2d50" transform="translate(-26.036 -11.203)"/><path d="m72.823 39.149s.079 1.226.234 2.07" fill="#fff" transform="translate(-26.95 -14.488)"/><path d="m73.057 41.729a.51.51 0 0 1 -.5-.418c-.159-.863-.238-2.078-.242-2.129a.51.51 0 0 1 1.018-.066c0 .012.079 1.207.227 2.011a.51.51 0 0 1 -.5.6z" fill="#083a64" transform="translate(-26.95 -14.488)"/><path d="m0 0h4.146v1.159h-4.146z" fill="#575d61" transform="matrix(1 -.025 .025 1 49.562 34.96)"/><path d="m0-.51h4.146a.51.51 0 0 1 .51.51v1.159a.51.51 0 0 1 -.51.51h-4.146a.51.51 0 0 1 -.51-.51v-1.159a.51.51 0 0 1 .51-.51zm3.636 1.02h-3.126v.139h3.126z" fill="#083a64" transform="matrix(1 -.025 .025 1 49.562 34.96)"/><path d="m77.241 52.316-2.314 2.02a4.838 4.838 0 0 0 .216 1.511 1.817 1.817 0 0 0 1.717.894 3.217 3.217 0 0 0 1.582-.931l-.742-1.01.9-1.539z" fill="#f6d6c4" transform="translate(-27.729 -19.361)"/><path d="m77.241 51.806a.509.509 0 0 1 .291.091l1.361.947a.51.51 0 0 1 .149.676l-.73 1.25.541.737a.51.51 0 0 1 -.042.653 3.608 3.608 0 0 1 -1.91 1.088c-.046 0-.1.006-.146.006a2.278 2.278 0 0 1 -2.093-1.235 5.339 5.339 0 0 1 -.246-1.7.51.51 0 0 1 .174-.37l2.314-2.02a.509.509 0 0 1 .337-.123zm.683 1.607-.648-.451-1.836 1.6a3.936 3.936 0 0 0 .183 1.109c.124.342.754.561 1.133.561h.061a2.062 2.062 0 0 0 .943-.49l-.468-.638a.51.51 0 0 1 -.029-.559z" fill="#083a64" transform="translate(-27.729 -19.361)"/><path d="m78.945 35.838s1.14 4.61.975 5.149-2.726 5.2-2.726 5.2 2.2.748 2.576 1.363c0 0 3.051-4.67 3.333-5.88s-1.724-6.583-1.724-6.583" fill="#fff" transform="translate(-28.568 -12.984)"/><path d="m79.77 48.057h-.009a.51.51 0 0 1 -.428-.246 6.828 6.828 0 0 0 -2.3-1.144.51.51 0 0 1 -.283-.729c1.2-2.187 2.534-4.683 2.679-5.082a35.93 35.93 0 0 0 -.976-4.9.51.51 0 0 1 .99-.245c0 .012.29 1.174.553 2.387.557 2.57.468 2.86.415 3.034-.147.48-1.748 3.433-2.48 4.771a8.958 8.958 0 0 1 1.74.859 33.641 33.641 0 0 0 2.939-5.216c.034-.146.081-.828-.746-3.478-.457-1.464-.954-2.8-.959-2.811a.51.51 0 0 1 .956-.357c.005.014.512 1.373.977 2.864.873 2.8.855 3.63.766 4.013-.294 1.262-3.085 5.558-3.4 6.044a.51.51 0 0 1 -.434.236z" fill="#083a64" transform="translate(-28.568 -12.984)"/><path d="m94.634.776a10.113 10.113 0 0 0 -8.189 18.067l-2.731 7.343 5.067-6.1a10.109 10.109 0 1 0 5.853-19.31" fill="#fff" transform="translate(-30.428 -.189)"/><path d="m92.327 0a10.683 10.683 0 0 1 2.423.28 10.623 10.623 0 0 1 4.144 18.7 10.6 10.6 0 0 1 -8.971 1.988 9.716 9.716 0 0 1 -.978-.287l-4.838 5.829a.51.51 0 0 1 -.87-.5l2.6-6.985a10.624 10.624 0 0 1 6.49-19.025zm.018 20.23a9.645 9.645 0 0 0 5.92-2.05 9.6 9.6 0 0 0 2.227-12.625 9.539 9.539 0 0 0 -5.974-4.282 9.661 9.661 0 0 0 -2.19-.253 9.642 9.642 0 0 0 -5.919 2.05 9.6 9.6 0 0 0 -3.033 11 9.609 9.609 0 0 0 3.368 4.356.51.51 0 0 1 .181.592l-1.685 4.53 3.15-3.8a.51.51 0 0 1 .571-.152 9.27 9.27 0 0 0 3.385.625z" fill="#063860" transform="translate(-30.428 -.189)"/><path d="m66.708 95.87a17.828 17.828 0 0 1 .565 1.835c.115.494.092 1.614 1.28 1.614a1.708 1.708 0 0 0 1.787-1.819 15.056 15.056 0 0 0 -.6-4.5c-.367-.842-2.041-.472-2.041-.472z" fill="#7d5350" transform="translate(-24.687 -34.213)"/><path d="m68.553 99.819c-1.439 0-1.641-1.248-1.727-1.781-.014-.084-.026-.163-.039-.219a17.39 17.39 0 0 0 -.547-1.774.5.5 0 0 1 -.011-.317l.992-3.342a.5.5 0 0 1 .371-.346 4.633 4.633 0 0 1 .9-.093c1.1 0 1.536.464 1.706.853a15.34 15.34 0 0 1 .641 4.7 2.183 2.183 0 0 1 -.877 1.88 2.485 2.485 0 0 1 -1.409.439zm-1.319-3.965a17.508 17.508 0 0 1 .526 1.737c.021.089.036.185.053.287.114.706.237.941.74.941a1.487 1.487 0 0 0 .826-.253 1.216 1.216 0 0 0 .461-1.066 14.674 14.674 0 0 0 -.558-4.3c-.069-.158-.364-.253-.79-.253a3.5 3.5 0 0 0 -.4.025z" fill="#002d51" transform="translate(-24.687 -34.213)"/><path d="m45.383 109.372a3.136 3.136 0 0 1 -.442 2.031 1.438 1.438 0 0 0 -.334 1.74 1.551 1.551 0 0 0 1.829.406 19.37 19.37 0 0 0 3.667-4.311c.133-.432-2.5-2.367-2.5-2.367z" fill="#7d5350" transform="translate(-16.445 -39.551)"/><path d="m47.6 106.372a.5.5 0 0 1 .3.1c.027.02.679.5 1.325 1.041 1.15.963 1.492 1.437 1.357 1.876a11.811 11.811 0 0 1 -1.783 2.48 15.033 15.033 0 0 1 -2.119 2.121 1.73 1.73 0 0 1 -.847.219 2.291 2.291 0 0 1 -1.577-.708 1.9 1.9 0 0 1 .316-2.43 2.628 2.628 0 0 0 .316-1.643.5.5 0 0 1 .123-.384l2.219-2.5a.5.5 0 0 1 .37-.172zm1.965 2.841a13.325 13.325 0 0 0 -1.9-1.665l-1.774 2a3.258 3.258 0 0 1 -.584 2.191 1.165 1.165 0 0 0 -.346 1.058 1.306 1.306 0 0 0 .865.41.731.731 0 0 0 .363-.094 13.774 13.774 0 0 0 1.845-1.9 15.124 15.124 0 0 0 1.534-2z" fill="#002d51" transform="translate(-16.445 -39.551)"/><path d="m47.771 84.009-4.394-7.269-8.546 1.684s-1.918 10.753-1.431 11.94c1.557 3.81 7.339 7.854 7.339 7.854s2.119.326 3.195-2.442a57.372 57.372 0 0 1 -5.442-6.022l1.326-6.629a12.008 12.008 0 0 0 4.9 4.36c3.944.944 9.785 2.98 9.785 2.98 1.307-.394 2.058-2.147 1.17-3.888z" fill="#d4b696" transform="translate(-12.331 -28.4)"/><path d="m43.377 76.24a.5.5 0 0 1 .428.241l4.3 7.11 7.718 2.51a.5.5 0 0 1 .291.248 3.613 3.613 0 0 1 .182 3.055 2.664 2.664 0 0 1 -1.654 1.539.5.5 0 0 1 -.309-.007c-.058-.02-5.863-2.039-9.736-2.965a11.864 11.864 0 0 1 -4.516-3.61l-1.057 5.287a60.739 60.739 0 0 0 5.26 5.771.5.5 0 0 1 .117.539 4.431 4.431 0 0 1 -1.822 2.317 3.264 3.264 0 0 1 -1.63.456 1.991 1.991 0 0 1 -.285-.018.5.5 0 0 1 -.211-.084c-.241-.169-5.922-4.173-7.516-8.075-.106-.26-.355-.868.5-6.677.415-2.812.9-5.513.9-5.54a.5.5 0 0 1 .4-.4l8.546-1.684a.5.5 0 0 1 .094-.013zm11.929 10.746-7.69-2.5a.5.5 0 0 1 -.273-.217l-4.213-6.969-7.866 1.55c-.14.8-.506 2.934-.832 5.138-.777 5.252-.612 6.078-.571 6.19 1.366 3.345 6.254 6.977 7.052 7.554h.032a2.667 2.667 0 0 0 2.394-1.832 52.627 52.627 0 0 1 -5.267-5.866.5.5 0 0 1 -.072-.377l1.326-6.629a.5.5 0 0 1 .915-.166 11.687 11.687 0 0 0 4.587 4.138c3.55.849 8.679 2.6 9.666 2.936a1.708 1.708 0 0 0 .881-.923 2.567 2.567 0 0 0 -.069-2.027z" fill="#002d51" transform="translate(-12.331 -28.4)"/><path d="m18.293 60.814a24.547 24.547 0 0 0 -3.444 1.823s-3.291 3.828-4.084 4.238-6.431 1.691-6.431 1.691c-.769 1.384.675 3.09.675 3.09s6.275-.861 6.886-1.1a43.127 43.127 0 0 0 4.367-2.622c3.758 3.659 7.521 8.007 7.521 8.007 2.125.692 4.314-.02 6.729-1.911a6.164 6.164 0 0 0 2.055-3.266s-1.447-1.6-3.608-3.8c-2.459-2.518-4.959-5.497-8.212-6.381z" fill="#d0edfb" transform="translate(-1.52 -22.42)"/><path d="m20.747 60.083a.5.5 0 0 1 .131.018c2.969.807 5.269 3.207 7.494 5.528.31.324.631.658.944.978 2.143 2.189 3.607 3.8 3.621 3.818a.5.5 0 0 1 .119.437 6.638 6.638 0 0 1 -2.236 3.558 8.944 8.944 0 0 1 -5.42 2.28 5.723 5.723 0 0 1 -1.773-.284.5.5 0 0 1 -.223-.148c-.037-.042-3.6-4.153-7.2-7.694a36.666 36.666 0 0 1 -4.121 2.446c-.635.254-5.945.991-7 1.136a.5.5 0 0 1 -.45-.172c-.074-.084-1.663-1.994-.733-3.661a.5.5 0 0 1 .326-.245c2.156-.49 5.776-1.37 6.312-1.647a36.413 36.413 0 0 0 3.934-4.12.5.5 0 0 1 .1-.091 24.791 24.791 0 0 1 3.528-1.867.5.5 0 0 1 .147-.037l2.454-.231zm11.266 10.817c-.454-.5-1.719-1.861-3.412-3.59-.316-.323-.639-.66-.951-.985-2.108-2.2-4.286-4.472-6.949-5.231l-2.284.215a24.221 24.221 0 0 0 -3.237 1.712c-.654.759-3.372 3.881-4.187 4.3a62.894 62.894 0 0 1 -6.308 1.679 2.636 2.636 0 0 0 .548 2.122c2.919-.4 6.106-.892 6.477-1.034a43.212 43.212 0 0 0 4.273-2.572.5.5 0 0 1 .627.057c3.4 3.312 6.848 7.233 7.456 7.93a4.711 4.711 0 0 0 1.334.197 8.015 8.015 0 0 0 4.8-2.063 5.661 5.661 0 0 0 1.813-2.737z" fill="#013a67" transform="translate(-1.52 -22.42)"/><path d="m18.8 57.478a4.114 4.114 0 0 1 -2.791.089c-1.607-.774-2.841-5.991-2.612-7.113.8-3.914 5.483-5.346 8.01-2.911 3.324 3.206.73 7.8.73 7.8l.121 1.7c-.086.994-1.653 2.037-2.634 1.291z" fill="#f6cfbb" transform="translate(-4.949 -17.152)"/><g fill="#002d51"><path d="m20.4 59.084a1.756 1.756 0 0 1 -1.073-.355.5.5 0 0 1 -.057-.051l-.6-.626a5.539 5.539 0 0 1 -1.535.241 3.053 3.053 0 0 1 -1.333-.275c-1.062-.512-1.813-2.31-2.255-3.728a10.929 10.929 0 0 1 -.63-3.936 5.592 5.592 0 0 1 5.462-4.509 4.842 4.842 0 0 1 3.385 1.338 6.11 6.11 0 0 1 1.759 5.536 9.344 9.344 0 0 1 -.867 2.73l.104 1.551a.5.5 0 0 1 0 .079 2.468 2.468 0 0 1 -2.36 2.005zm-.441-1.132a.759.759 0 0 0 .441.132 1.527 1.527 0 0 0 1.362-1.055l-.118-1.65a.5.5 0 0 1 .056-.279 8.273 8.273 0 0 0 .827-2.556 5.078 5.078 0 0 0 -1.464-4.644 3.847 3.847 0 0 0 -2.691-1.057 4.592 4.592 0 0 0 -4.482 3.708 10.314 10.314 0 0 0 .605 3.438c.518 1.662 1.183 2.859 1.734 3.125a2.071 2.071 0 0 0 .9.176 4.7 4.7 0 0 0 1.493-.281.5.5 0 0 1 .542.118z" transform="translate(-4.949 -17.152)"/><path d="m13.1 45.659c-.158.129-5.752 1.555-.654 4.476 0 0 .072-1.077 1.736-1.005a5.824 5.824 0 0 0 4.108-1.543s.771-.33 1.233 2.6c0 0 .827-1.037 1.558-.105.758.965-.7 2.948-.7 2.948l.564 1.318s1.946-1.57 1.377-5.237c-.643-4.136-2.976-4.9-2.976-4.9a7.882 7.882 0 0 0 -6.246 1.448" transform="translate(-3.814 -16.313)"/><path d="m17.816 43.579a7.957 7.957 0 0 1 1.641.155l.042.012c.107.035 2.634.9 3.316 5.294.607 3.907-1.469 5.632-1.557 5.7a.5.5 0 0 1 -.774-.192l-.564-1.318a.5.5 0 0 1 .057-.493c.5-.677 1.064-1.891.709-2.343-.1-.131-.2-.2-.287-.2a.839.839 0 0 0 -.489.308.5.5 0 0 1 -.883-.236 5.038 5.038 0 0 0 -.635-2.1 6.339 6.339 0 0 1 -3.984 1.47c-.083 0-.168 0-.251-.005h-.134c-.939 0-1.065.44-1.082.548a.476.476 0 0 1 -.25.409.5.5 0 0 1 -.5-.014c-1.685-.974-2.465-1.912-2.38-2.874.125-1.424 2.134-2.147 2.891-2.419l.131-.048a7.9 7.9 0 0 1 4.983-1.654zm1.39 1.121a7.352 7.352 0 0 0 -1.389-.123 6.9 6.9 0 0 0 -4.4 1.467 1.167 1.167 0 0 1 -.375.173 7.956 7.956 0 0 0 -1.4.627c-.362.219-.8.559-.834.939-.023.266.143.811 1.4 1.622a2.085 2.085 0 0 1 1.818-.781h.176s.139 0 .208 0a5.337 5.337 0 0 0 3.522-1.4.5.5 0 0 1 .16-.109.69.69 0 0 1 .268-.051c.88 0 1.3 1.277 1.511 2.236a1.284 1.284 0 0 1 1.6.466c.812 1.034-.11 2.679-.525 3.313l.144.336a5.73 5.73 0 0 0 .736-4.234 6.911 6.911 0 0 0 -1.551-3.68 3.15 3.15 0 0 0 -1.069-.801z" transform="translate(-3.814 -16.313)"/><path d="m15.2 57.538a.5.5 0 0 1 -.347-.86l.039-.037-.211-.1a.5.5 0 0 1 .442-.9l.849.419a.5.5 0 0 1 .125.809l-.552.531a.5.5 0 0 1 -.345.138z" transform="translate(-5.514 -20.757)"/><path d="m20.285 56.5a.5.5 0 0 1 -.138-.019l-1.023-.292a.5.5 0 0 1 -.169-.876l.939-.729a.5.5 0 1 1 .613.79l-.16.124.074.021a.5.5 0 0 1 -.137.981z" transform="translate(-7.128 -20.348)"/><path d="m17.6 59.93c.021-.238.726-.075.726-.075s.648-.447.775-.351a2.184 2.184 0 0 1 .588 1.535c-.047.54-.969.683-1.4.455a2.831 2.831 0 0 1 -.69-1.564" transform="translate(-6.513 -22.016)"/><path d="m19.05 58.991a.578.578 0 0 1 .351.114 2.662 2.662 0 0 1 .785 1.978 1.265 1.265 0 0 1 -1.405 1.017 1.569 1.569 0 0 1 -.725-.163c-.1-.052-.392-.209-.71-1.019a3.041 3.041 0 0 1 -.243-1.03c.009-.1.087-.586.785-.586a2.342 2.342 0 0 1 .33.027 1.754 1.754 0 0 1 .832-.338zm.141 1.995a1.832 1.832 0 0 0 -.266-.914c-.1.054-.214.126-.315.2a.5.5 0 0 1 -.4.075h-.015a2.483 2.483 0 0 0 .345.722.788.788 0 0 0 .648-.075z" transform="translate(-6.513 -22.016)"/></g><path d="m3.56 72.359a2.6 2.6 0 0 1 -.031-.694c.059-.4.857-.527 1.051-.153.42.809.965 1.955.689 2.7a1.6 1.6 0 0 1 -2.367 1 8.778 8.778 0 0 1 -2.386-2.7c-.143-.436.749-2.412 1.655-1.512.464.462 1.39 1.355 1.39 1.355" fill="#f6cfbb" transform="translate(-.185 -26.19)"/><path d="m1.683 70.27a1.178 1.178 0 0 1 .841.379c.169.169.4.4.63.619a1.159 1.159 0 0 1 .973-.479.973.973 0 0 1 .9.493c.565 1.089 1.042 2.218.714 3.106a2.1 2.1 0 0 1 -1.968 1.545 2.553 2.553 0 0 1 -1.079-.261 8.981 8.981 0 0 1 -2.65-3 2.378 2.378 0 0 1 .5-1.705 1.445 1.445 0 0 1 1.139-.697zm1.877 2.589a.5.5 0 0 1 -.347-.14c-.009-.009-.934-.9-1.4-1.361a.257.257 0 0 0 -.135-.088c-.03 0-.11.032-.222.151a1.958 1.958 0 0 0 -.456.966 6.878 6.878 0 0 0 .919 1.248 5.837 5.837 0 0 0 1.194 1.132 1.57 1.57 0 0 0 .656.167 1.16 1.16 0 0 0 1.03-.891c.213-.576-.38-1.752-.638-2.251h-.034a.323.323 0 0 0 -.11.02 2.341 2.341 0 0 0 .035.46.5.5 0 0 1 -.492.59z" fill="#002d51" transform="translate(-.185 -26.19)"/><path d="m23.625 66.791a2.927 2.927 0 0 1 -2.124-1.12.5.5 0 0 1 .8-.6 1.8 1.8 0 0 0 1.609.693 2.191 2.191 0 0 0 1.724-1.583.5.5 0 0 1 .982.188 3.181 3.181 0 0 1 -2.488 2.371 2.286 2.286 0 0 1 -.503.051z" fill="#013a67" transform="translate(-8.105 -23.785)"/><path d="m28.058 66.768-1.758 4.907-3.228 4.081 2.088 2.465 4.9-4.151 2.229-5" fill="#d0edfb" transform="translate(-8.537 -24.709)"/><path d="m25.156 78.721a.5.5 0 0 1 -.382-.177l-2.088-2.465a.5.5 0 0 1 -.011-.633l3.178-4.017 1.735-4.829a.5.5 0 1 1 .941.338l-1.763 4.906a.5.5 0 0 1 -.078.141l-2.974 3.76 1.5 1.771 4.433-3.754 2.182-4.892a.5.5 0 0 1 .913.407l-2.229 5a.5.5 0 0 1 -.134.178l-4.9 4.151a.5.5 0 0 1 -.323.115z" fill="#013a67" transform="translate(-8.537 -24.709)"/><path d="m26.027 77.747c.074-.588-1.974-1.753-2.876-.695a11.879 11.879 0 0 0 -.712 1.721l-.639-.41c-.235-.193-.84.456-.6 1.163a13.187 13.187 0 0 0 .768 1.8 2.723 2.723 0 0 0 2.578.775c.575-.242 1.23-2.34 1.484-4.357" fill="#f6cfbb" transform="translate(-7.825 -28.357)"/><path d="m24.151 76.125a3.005 3.005 0 0 1 2.08.907.98.98 0 0 1 .292.778 16.253 16.253 0 0 1 -.643 2.939c-.461 1.391-.873 1.7-1.143 1.816a1.887 1.887 0 0 1 -.737.135 3.329 3.329 0 0 1 -2.456-1.1 13.306 13.306 0 0 1 -.822-1.915 1.556 1.556 0 0 1 .213-1.4.98.98 0 0 1 .764-.457.65.65 0 0 1 .386.124l.092.059a5.73 5.73 0 0 1 .591-1.284 1.752 1.752 0 0 1 1.383-.602zm1.372 1.62a1.992 1.992 0 0 0 -1.372-.62.765.765 0 0 0 -.614.246 12.351 12.351 0 0 0 -.625 1.565.5.5 0 0 1 -.743.258l-.445-.286a.555.555 0 0 0 -.052.46 13.2 13.2 0 0 0 .714 1.69 2.426 2.426 0 0 0 1.614.642.921.921 0 0 0 .337-.052 3.241 3.241 0 0 0 .621-1.3 15.412 15.412 0 0 0 .565-2.604z" fill="#002d51" transform="translate(-7.825 -28.357)"/></g></g></g></svg>