<svg height="42" viewBox="0 0 42 42" width="42" xmlns="http://www.w3.org/2000/svg" xmlns:xlink="http://www.w3.org/1999/xlink"><clipPath id="a"><circle cx="194" cy="234" r="21"/></clipPath><clipPath id="b"><path d="m0 0h87.61v87.511h-87.61z"/></clipPath><clipPath id="c"><path d="m0 241.169h101.923v-80.79l-101.923-6.721z" transform="translate(0 -153.658)"/></clipPath><clipPath id="d"><path d="m0 0h48.32v30.21h-48.32z"/></clipPath><g clip-path="url(#a)" transform="translate(-173 -213)"><path d="m21 0a21 21 0 1 1 -21 21 21 21 0 0 1 21-21z" fill="#52a399" transform="translate(173 213)"/><g clip-path="url(#b)" transform="translate(137 181.867)"><g clip-path="url(#c)" transform="translate(-4.892)"><path d="m24.34 312.564s30.46-14.215 30.526-14.176c0 0 50.782 29.4 50.63 29.483l-29.11 16.856c-.07.04-52.205-32.08-52.046-32.163" fill="#798790" transform="translate(-17.724 -259.051)"/><path d="m54.866 297.848a.542.542 0 0 1 .27.072c.127.074 12.8 7.412 25.317 14.677 7.349 4.267 13.205 7.674 17.405 10.127 2.494 1.457 4.425 2.589 5.738 3.365.707.418 1.249.741 1.612.96.192.116.334.2.433.266a.645.645 0 0 1 .4.557.541.541 0 0 1 -.271.468l-29.113 16.854a.541.541 0 0 1 -.271.073c-.163 0-.163 0-.885-.437-.38-.23-.942-.572-1.669-1.016-1.408-.86-3.4-2.079-5.91-3.623-5.007-3.076-11.522-7.088-17.873-11.007-4.987-3.077-12.134-7.492-17.859-11.047-2.548-1.582-4.53-2.818-5.892-3.673-.726-.456-1.284-.809-1.659-1.049-.2-.125-.346-.223-.447-.291-.189-.126-.326-.218-.378-.431a.541.541 0 0 1 .276-.608l.021-.01c.076-.035 7.681-3.585 15.206-7.088 4.42-2.058 7.948-3.7 10.487-4.873 1.508-.7 2.679-1.239 3.48-1.607 1.437-.659 1.437-.659 1.582-.659zm49.585 30c-4.931-2.962-33.75-19.674-49.622-28.862-2.189.976-19.442 9.014-29.388 13.656 2.636 1.68 11.883 7.418 25.271 15.679 12.462 7.689 23.85 14.687 25.674 15.778z" fill="#053860" transform="translate(-17.724 -259.051)"/><path d="m54.868 297.721a.666.666 0 0 1 .335.091l50.63 29.483a.666.666 0 0 1 0 1.153l-29.111 16.852a.667.667 0 0 1 -.684-.01l-52.047-32.159a.667.667 0 0 1 .07-1.171l30.526-14.176a.666.666 0 0 1 .281-.063zm49.3 30.148-49.335-28.73-29.089 13.508 50.656 31.303z" fill="#053860" transform="translate(-17.726 -259.051)"/><g clip-path="url(#d)" opacity=".3" transform="translate(27.651 45.05)"><path d="m128.661 349.382-25.744-13.155a2.18 2.18 0 0 1 .239-3.977l16.115-11.055c.732-.362-2.454-2.075-1.764-1.742l31.369 14.034a2.172 2.172 0 0 1 -.164 3.939l-17.7 11.873a2.619 2.619 0 0 1 -2.347.084" fill="#1a0e0e" transform="translate(-101.736 -319.41)"/></g><path d="m139.6 180.87 50.63 27.942-2.949 1.736-50.63-27.942z" fill="#eeeeeb" transform="translate(-99.513 -173.474)"/><path d="m139.6 180.2a.666.666 0 0 1 .322.083l50.63 27.942a.666.666 0 0 1 .016 1.158l-2.949 1.736a.667.667 0 0 1 -.66.009l-50.63-27.942a.666.666 0 0 1 -.016-1.158l2.949-1.736a.666.666 0 0 1 .338-.092zm49.284 28.627-49.274-27.194-1.614.951 49.274 27.194z" fill="#053860" transform="translate(-99.513 -173.474)"/><path d="m136.656 217.464 50.63 29.483v-31.747l-50.63-27.942z" fill="#d9d9da" transform="translate(-99.513 -178.127)"/><path d="m187.285 247.613a.666.666 0 0 1 -.335-.091l-50.63-29.482a.667.667 0 0 1 -.331-.576v-30.2a.667.667 0 0 1 .989-.584l50.63 27.942a.667.667 0 0 1 .344.584v31.745a.667.667 0 0 1 -.667.667zm-49.963-30.533 49.3 28.707v-30.187l-49.3-27.206z" fill="#073a64" transform="translate(-99.513 -178.127)"/><path d="m136.656 262.893 50.63 29.076v10.055l-50.63-29.483z" fill="#a58983" transform="translate(-99.513 -233.203)"/><path d="m136.656 262.226a.666.666 0 0 1 .332.089l50.63 29.076a.666.666 0 0 1 .335.578v10.055a.667.667 0 0 1 -1 .576l-50.63-29.483a.667.667 0 0 1 -.331-.576v-9.647a.667.667 0 0 1 .667-.667zm49.963 30.128-49.3-28.31v8.113l49.3 28.707z" fill="#053860" transform="translate(-99.513 -233.203)"/><path d="m0 2.36a.664.664 0 0 1 -.475-.2.667.667 0 0 1 .007-.943l1.72-1.692a.666.666 0 0 1 .943.007.667.667 0 0 1 -.007.943l-1.72 1.693a.664.664 0 0 1 -.468.192z" fill="#073a64" transform="translate(73.442 49.796)"/><path d="m141.541 363.832c-3.866-2.45-13.787-7.372-19.471-10.258l-.485-5.427 20.963 11.734z" fill="#0c2e52" transform="translate(-88.54 -295.286)"/><path d="m176.841 389.356c-.675-2 .018-3.983 1.549-4.432s3.319.81 3.995 2.809-.018 3.983-1.549 4.432-3.319-.81-3.995-2.809" fill="#0f2f54" transform="translate(-128.589 -322.002)"/><path d="m180.2 392.756a4.4 4.4 0 0 1 -3.83-3.24 4.645 4.645 0 0 1 .156-3.6 2.868 2.868 0 0 1 1.726-1.468 2.771 2.771 0 0 1 .779-.111 4.4 4.4 0 0 1 3.83 3.24 4.646 4.646 0 0 1 -.156 3.6 2.868 2.868 0 0 1 -1.726 1.468 2.771 2.771 0 0 1 -.779.111zm-1.17-7.422a1.771 1.771 0 0 0 -.5.07 1.854 1.854 0 0 0 -1.12.97 3.7 3.7 0 0 0 -.1 2.822 3.458 3.458 0 0 0 2.883 2.56 1.77 1.77 0 0 0 .5-.07 1.854 1.854 0 0 0 1.12-.97 3.7 3.7 0 0 0 .1-2.822 3.458 3.458 0 0 0 -2.885-2.56z" fill="#073a64" transform="translate(-128.589 -322.002)"/><path d="m182.2 393.473c-.242-1.076.213-2.06 1.018-2.2s1.653.622 1.895 1.7-.213 2.06-1.018 2.2-1.653-.622-1.895-1.7" fill="#61aabd" transform="translate(-132.631 -326.68)"/><path d="m183.9 395.854a2.644 2.644 0 0 1 -2.354-2.234 2.827 2.827 0 0 1 .334-2.186 1.846 1.846 0 0 1 1.221-.816 1.8 1.8 0 0 1 .3-.026 2.644 2.644 0 0 1 2.354 2.235 2.827 2.827 0 0 1 -.334 2.186 1.845 1.845 0 0 1 -1.221.816 1.8 1.8 0 0 1 -.3.025zm-.5-3.929a.461.461 0 0 0 -.078.007.516.516 0 0 0 -.339.244 1.523 1.523 0 0 0 -.142 1.152c.166.738.676 1.194 1.054 1.194a.461.461 0 0 0 .078-.007.515.515 0 0 0 .339-.243 1.523 1.523 0 0 0 .142-1.152c-.159-.739-.669-1.195-1.047-1.195z" fill="#4c4d71" transform="translate(-132.631 -326.68)"/><path d="m125.439 365.719c-.52-1.818.274-3.576 1.774-3.925s3.137.84 3.657 2.659-.274 3.575-1.774 3.925-3.137-.841-3.657-2.659" fill="#0f2f54" transform="translate(-91.229 -305.179)"/><path d="m128.563 369.105a4.2 4.2 0 0 1 -3.765-3.2 4.25 4.25 0 0 1 .338-3.309 2.986 2.986 0 0 1 2.61-1.527 4.2 4.2 0 0 1 3.765 3.2 4.25 4.25 0 0 1 -.338 3.309 2.986 2.986 0 0 1 -2.61 1.527zm-.817-6.706a1.685 1.685 0 0 0 -.382.044 1.7 1.7 0 0 0 -1.079.826 3.152 3.152 0 0 0 2.278 4.5 1.683 1.683 0 0 0 .382-.044 1.7 1.7 0 0 0 1.079-.826 2.917 2.917 0 0 0 .205-2.266 2.859 2.859 0 0 0 -2.483-2.233z" fill="#073a64" transform="translate(-91.229 -305.179)"/><path d="m130.457 369.4a1.586 1.586 0 0 1 1.143-1.976 1.761 1.761 0 0 1 1.747 1.621 1.586 1.586 0 0 1 -1.143 1.976 1.761 1.761 0 0 1 -1.747-1.621" fill="#61aabd" transform="translate(-94.977 -309.319)"/><path d="m132.059 371.7a2.471 2.471 0 0 1 -2.259-2.186 2.6 2.6 0 0 1 .431-1.982 1.892 1.892 0 0 1 1.288-.766 1.867 1.867 0 0 1 .227-.014 2.471 2.471 0 0 1 2.254 2.186 2.6 2.6 0 0 1 -.431 1.983 1.891 1.891 0 0 1 -1.288.766 1.866 1.866 0 0 1 -.222.013zm-.314-3.615a.53.53 0 0 0 -.064 0 .558.558 0 0 0 -.382.24 1.287 1.287 0 0 0 -.185.964 1.174 1.174 0 0 0 .944 1.074.524.524 0 0 0 .064 0 .557.557 0 0 0 .382-.24 1.287 1.287 0 0 0 .185-.965 1.174 1.174 0 0 0 -.944-1.073z" fill="#4c4d71" transform="translate(-94.977 -309.319)"/><path d="m254.568 314.9c1.325-2.257 2.47 2.774 1.33 3.433" fill="#cf7460" transform="translate(-185.378 -270.653)"/><path d="m255.9 318.832a.5.5 0 0 1 -.251-.933c.086-.05.259-.425.208-1.214a3.108 3.108 0 0 0 -.6-1.856 1 1 0 0 0 -.258.322.5.5 0 1 1 -.862-.506c.457-.779.951-.871 1.284-.811.941.17 1.277 1.694 1.358 2.158.184 1.057.116 2.341-.63 2.772a.5.5 0 0 1 -.249.068z" fill="#073a64" transform="translate(-185.378 -270.653)"/><path d="m135.528 301.986a4.081 4.081 0 0 0 1.663.874 5.409 5.409 0 0 0 3.537-.2l14.16-8.826a2.164 2.164 0 0 0 .993-1.74c.14-3.213-.018-7.447-2.871-9.643-.8-2.614-3.506-9.468-6.892-11.211-12.165-6.261-17.432-8.4-18.849-8.215-3.042.388-10.21 4.651-12.968 7.1a4.068 4.068 0 0 0 -1.713 3.473c.26 4.144.8 10.341 1.127 14.446a7.824 7.824 0 0 0 1.8 3.542s1.141-2.977 3.468-2.375c2.149.555 2.57 3.379 2.71 4.745a1.721 1.721 0 0 0 .937 1.374c1.6.805 4.208 2.086 5.828 2.905a.973.973 0 0 0 1.28-.4 2.264 2.264 0 0 1 3.248-1.281c2.367 1.132 2.546 5.44 2.546 5.44" fill="#cf7460" transform="translate(-81.981 -233.29)"/><path d="m138.695 303.615a6.813 6.813 0 0 1 -1.636-.221 4.121 4.121 0 0 1 -1.7-.848c-.041-.033-.092-.073-.11-.085a.544.544 0 0 1 -.272-.452c0-.039-.2-3.991-2.234-4.966a2.246 2.246 0 0 0 -.955-.249c-1.066 0-1.521 1.175-1.539 1.225a.521.521 0 0 1 -.041.086 1.55 1.55 0 0 1 -1.329.774 1.481 1.481 0 0 1 -.674-.162c-.878-.444-2.055-1.028-3.192-1.593-.978-.485-1.9-.944-2.634-1.312a2.268 2.268 0 0 1 -1.236-1.812c-.255-2.5-1.029-3.94-2.3-4.268a1.9 1.9 0 0 0 -.473-.063c-1.511 0-2.337 2.083-2.345 2.1a.551.551 0 0 1 -.776.285 7.363 7.363 0 0 1 -1.075-1.383 6.028 6.028 0 0 1 -1.008-2.6c-.094-1.2-.207-2.571-.327-4.024-.289-3.511-.616-7.491-.8-10.43a4.57 4.57 0 0 1 1.9-3.919 41.546 41.546 0 0 1 6.472-4.386c1.691-.954 4.823-2.592 6.791-2.843a1.987 1.987 0 0 1 .25-.015c1.21 0 4.488.859 18.92 8.287 1.573.809 3.137 2.663 4.649 5.51a37.279 37.279 0 0 1 2.466 5.864 7.974 7.974 0 0 1 2.62 4.648 21.466 21.466 0 0 1 .325 5.344 2.725 2.725 0 0 1 -1.256 2.185l-14.155 8.823a.55.55 0 0 1 -.107.052 6.328 6.328 0 0 1 -2.219.448zm-2.635-1.919a3.017 3.017 0 0 0 1.263.63 5.659 5.659 0 0 0 1.373.189 5.233 5.233 0 0 0 1.792-.357l14.108-8.794.01-.006a1.621 1.621 0 0 0 .725-1.291c.14-3.215-.035-7.165-2.657-9.183a.55.55 0 0 1 -.19-.274 35.867 35.867 0 0 0 -2.437-5.835c-1.385-2.607-2.831-4.353-4.181-5.048-10.527-5.418-16.723-8.165-18.417-8.165a.9.9 0 0 0 -.111.006c-2.9.37-10.022 4.613-12.672 6.961a3.5 3.5 0 0 0 -1.529 3.027c.184 2.929.511 6.9.8 10.409.12 1.455.233 2.829.327 4.028a6.053 6.053 0 0 0 1.15 2.567 3.633 3.633 0 0 1 2.957-1.987 3 3 0 0 1 .748.1 3.712 3.712 0 0 1 2.479 2.391 10.232 10.232 0 0 1 .64 2.831 1.173 1.173 0 0 0 .637.938c.73.367 1.652.825 2.629 1.31 1.139.565 2.317 1.15 3.2 1.6a.391.391 0 0 0 .178.043.443.443 0 0 0 .361-.2 2.9 2.9 0 0 1 2.548-1.885 3.326 3.326 0 0 1 1.43.356c2.296 1.092 2.754 4.627 2.838 5.643z" fill="#073a64" transform="translate(-81.981 -233.29)"/><path d="m202.559 339.569c-.259-.46-.1-.959-.562-2.257-.03.307 8.458-1.865 8.35-3.173-.267-3.229 5.54-4.724 6.211-3.793a4.827 4.827 0 0 1 .423 1.48c-.253 2.368-13.046 8.2-14.422 7.743" fill="#0f2f54" transform="translate(-147.096 -282.125)"/><path d="m118.386 300.6c1.743.929 7.173 3.44 10.269 5.071 4.969 2.618 8.224 7.136 8.48 11.821v.08c.016.328-.166.734-.9.408-5.265-2.341-15.193-7.659-17.812-8.994a1.5 1.5 0 0 1 -.887-1.236l-.5-6.565c-.023-.55.759-.894 1.339-.585" fill="#195f97" transform="translate(-85.234 -260.575)"/><path d="m136.707 318.6a1.648 1.648 0 0 1 -.668-.163c-4.078-1.813-10.946-5.408-15.049-7.555-1.225-.641-2.192-1.147-2.787-1.45a1.994 1.994 0 0 1 -1.159-1.652l-.5-6.574a1.078 1.078 0 0 1 .308-.8 1.48 1.48 0 0 1 1.055-.428 1.515 1.515 0 0 1 .71.175c.766.408 2.246 1.122 3.961 1.95 2.146 1.036 4.578 2.21 6.307 3.12 5.13 2.7 8.481 7.391 8.746 12.236v.082a1.038 1.038 0 0 1 -.262.78.894.894 0 0 1 -.662.279zm-19.161-17.44.5 6.57a1.013 1.013 0 0 0 .615.812c.6.306 1.569.813 2.8 1.455 4.093 2.142 10.943 5.727 14.992 7.527a1.025 1.025 0 0 0 .195.068c0-.023 0-.046 0-.068-.246-4.5-3.393-8.87-8.214-11.409-1.713-.9-4.137-2.072-6.275-3.1-1.724-.832-3.213-1.551-4-1.968a.512.512 0 0 0 -.24-.058.483.483 0 0 0 -.333.12.088.088 0 0 0 -.04.048z" fill="#707070" transform="translate(-85.234 -260.575)"/><path d="m145.8 328.038c.466-3.167.575-5.595 2.331-5.906 3.328-.59 3.586 1.941 4.081 2.56.53.662 1.668-.085 1.876.013 1.352.639 5.134 8.5 3.478 8.715 0 0-3.156-.91-11.767-5.382" fill="#003f70" transform="translate(-106.172 -276.277)"/><path d="m200.336 300.629c-3.362 2.741-8.381 6.327-13.464 7.671a.473.473 0 0 0 -.239.752c1.723 2.308 4.338 6.02 4.663 9a.468.468 0 0 0 .515.434c4.161-.61 12.419-5.506 13.742-7.864a.5.5 0 0 0 .056-.3c-.273-2.76-3.194-7.872-4.638-9.638a.446.446 0 0 0 -.636-.053" fill="#195f97" transform="translate(-135.834 -260.604)"/><path d="m206.006 318.472c.565 1.086 1.914 1.76 2.862 2.385a.647.647 0 0 1 -.015 1.094c-1.551.952-9.729 6.191-12.547 6.793a.685.685 0 0 1 -.845-.414 29.4 29.4 0 0 0 -2.551-5.179c-.018-.031-.94-1.695 1.345-2.651 2.126-.89 3.11.144 3.493.787a.6.6 0 0 0 .727.244l2.216-.96a.553.553 0 0 0 .364-.664c-.18-.641-.92-2 .9-2.942 2.129-1.1 3.33.116 4.054 1.506" fill="#003f70" transform="translate(-140.333 -272.268)"/><path d="m197.21 337.329a1 1 0 0 1 -.95-.689 9.892 9.892 0 0 0 -2.117-3.438 1 1 0 0 1 1.508-1.314 11.71 11.71 0 0 1 2.509 4.129 1 1 0 0 1 -.95 1.312z" fill="#81a8c6" transform="translate(-141.925 -283.925)"/><path d="m117.911 299.98a1.515 1.515 0 0 1 .71.175c.766.408 2.246 1.122 3.961 1.95 2.146 1.036 4.578 2.21 6.306 3.12 5.13 2.7 8.481 7.391 8.746 12.236v.082a1.038 1.038 0 0 1 -.262.78.894.894 0 0 1 -.67.273 1.647 1.647 0 0 1 -.668-.163c-4.078-1.813-10.946-5.408-15.049-7.555-1.224-.641-2.192-1.147-2.787-1.45a1.994 1.994 0 0 1 -1.159-1.652l-.495-6.557c0-.005 0-.011 0-.016a1.077 1.077 0 0 1 .308-.8 1.48 1.48 0 0 1 1.059-.423zm18.729 17.608c0-.023 0-.046 0-.068-.246-4.5-3.393-8.87-8.214-11.409-1.713-.9-4.137-2.072-6.275-3.1-1.724-.832-3.213-1.551-4-1.968a.512.512 0 0 0 -.24-.058.483.483 0 0 0 -.333.12.088.088 0 0 0 -.031.056l.495 6.553v.017a1.013 1.013 0 0 0 .615.812c.6.306 1.569.813 2.8 1.455 4.093 2.142 10.943 5.727 14.992 7.528a1.025 1.025 0 0 0 .19.062z" fill="#073a64" transform="translate(-85.234 -260.575)"/><path d="m177.4 352.606c.048-.549.482-.743.859-.492 1.711 1.134 3.808 2.054 3.5 3.388-.136.589-1.789.772-2.894.644a1.612 1.612 0 0 1 -1.12-.818 6.6 6.6 0 0 1 -.346-2.722" fill="#cf7460" transform="translate(-129.169 -298.096)"/><path d="m179.576 356.685a6.7 6.7 0 0 1 -.77-.042 2.12 2.12 0 0 1 -1.509-1.091 7.033 7.033 0 0 1 -.4-2.989 1.063 1.063 0 0 1 1.025-1.056 1.1 1.1 0 0 1 .608.191c.322.213.665.423 1 .626 1.5.916 3.044 1.863 2.715 3.291-.223.966-1.945 1.07-2.669 1.07zm-1.641-4.177a.313.313 0 0 0 -.039.142 6.168 6.168 0 0 0 .3 2.455 1.122 1.122 0 0 0 .73.544 5.783 5.783 0 0 0 .655.036 3.186 3.186 0 0 0 1.7-.324c.131-.716-1.035-1.43-2.269-2.185-.339-.208-.69-.422-1.027-.646a.174.174 0 0 0 -.05-.022z" fill="#707070" transform="translate(-129.169 -298.096)"/><path d="m177.925 351.456a1.153 1.153 0 0 1 .636.2c.321.213.664.423 1 .625 1.512.925 3.075 1.882 2.738 3.345-.231 1-1.978 1.109-2.718 1.109a6.75 6.75 0 0 1 -.776-.043 2.143 2.143 0 0 1 -1.548-1.118 7.09 7.09 0 0 1 -.4-3.016 1.111 1.111 0 0 1 1.068-1.102zm3.305 3.879c.1-.679-1.094-1.409-2.248-2.116-.338-.207-.686-.42-1.022-.643a.4.4 0 0 0 -.014.078 6.109 6.109 0 0 0 .291 2.428 1.081 1.081 0 0 0 .691.517 5.731 5.731 0 0 0 .649.035 3.356 3.356 0 0 0 1.654-.299z" fill="#073a64" transform="translate(-129.169 -298.096)"/><path d="m133.347 315.31a1 1 0 0 1 -.484-.125 85.119 85.119 0 0 0 -8.885-4.007 1 1 0 1 1 .688-1.878 87.789 87.789 0 0 1 9.166 4.135 1 1 0 0 1 -.486 1.875z" fill="#81a8c6" transform="translate(-90.533 -267.681)"/><path d="m151.721 356.271a1.556 1.556 0 0 1 -.414-.058 7.789 7.789 0 0 1 -1.3-.564l-.122-.061a2.227 2.227 0 0 1 -1.288-1.175 1.847 1.847 0 0 1 .247-1.453.667.667 0 0 1 .87-.287l2.928 1.373a.667.667 0 0 1 .38.536 1.629 1.629 0 0 1 -.357 1.278 1.253 1.253 0 0 1 -.944.411z" fill="#073a64" transform="translate(-108.649 -299.021)"/><path d="m139.94 278.788a4.065 4.065 0 0 1 -1.909-.544c-4.372-2.347-10.591-4.865-15.588-6.888l-.206-.084a.5.5 0 0 1 .375-.927l.206.084c5.019 2.032 11.266 4.562 15.686 6.934a2.542 2.542 0 0 0 1.97.343 35.928 35.928 0 0 0 8.381-4.522.437.437 0 0 0 .233-.361.836.836 0 0 0 -.448-.6 79.668 79.668 0 0 0 -15.793-7.223.5.5 0 1 1 .307-.952 80.758 80.758 0 0 1 16.009 7.326 1.786 1.786 0 0 1 .924 1.426 1.409 1.409 0 0 1 -.671 1.211 36.785 36.785 0 0 1 -8.637 4.647 2.727 2.727 0 0 1 -.839.13z" fill="#073a64" transform="translate(-89.15 -234.392)"/><path d="m117.489 353.61s1.141-2.977 3.468-2.375c2.149.555 2.57 3.379 2.71 4.745a1.721 1.721 0 0 0 .937 1.374c1.6.805 4.208 2.086 5.828 2.905a.973.973 0 0 0 1.28-.4 2.264 2.264 0 0 1 3.248-1.281c2.367 1.132 2.546 5.44 2.546 5.44a14 14 0 0 0 1.663.874 4.2 4.2 0 0 0 3.714-.217l14.3-9a2.152 2.152 0 0 0 .829-1.561 23.434 23.434 0 0 0 -.065-2.9c-3.273 2.031-10.676 7.089-13.938 8.816-3.042 1.611-2.939 1.2-4.138.668-.992-.441-19.186-9.782-24.33-12.515.064.786.1 1.2.154 1.89a7.824 7.824 0 0 0 1.8 3.542" fill="#a45a4a" transform="translate(-84.135 -295.309)"/><path d="m115.538 347.678a.5.5 0 0 1 .235.058c5.021 2.668 23.3 12.056 24.3 12.5.164.073.3.143.426.2a1.423 1.423 0 0 0 .656.225 7.6 7.6 0 0 0 2.618-1.083c2.125-1.125 6-3.66 9.416-5.9 1.732-1.133 3.367-2.2 4.493-2.9a.5.5 0 0 1 .762.381 23.842 23.842 0 0 1 .066 2.968 2.659 2.659 0 0 1 -1.012 1.926.5.5 0 0 1 -.05.036l-14.3 9-.035.02a5.094 5.094 0 0 1 -2.366.609 4.325 4.325 0 0 1 -1.784-.38 13.956 13.956 0 0 1 -1.595-.83l-.112-.067a.5.5 0 0 1 -.25-.413c0-.04-.2-4.021-2.262-5.009a2.294 2.294 0 0 0 -.977-.253c-1.1 0-1.567 1.206-1.586 1.257a.529.529 0 0 1 -.037.079 1.5 1.5 0 0 1 -1.285.749 1.431 1.431 0 0 1 -.652-.156c-.877-.444-2.051-1.026-3.187-1.59-.98-.487-1.906-.946-2.64-1.315a2.218 2.218 0 0 1 -1.21-1.77c-.257-2.527-1.044-3.977-2.337-4.311a1.945 1.945 0 0 0 -.485-.064c-1.555 0-2.383 2.113-2.391 2.135a.5.5 0 0 1 -.706.26 7.082 7.082 0 0 1 -1.057-1.365 5.981 5.981 0 0 1 -1-2.576c-.038-.479-.066-.826-.1-1.258l-.052-.631a.5.5 0 0 1 .5-.541zm3.93 3.122c-1.305-.678-2.455-1.279-3.357-1.754.026.316.05.609.079.982a6.2 6.2 0 0 0 1.2 2.655 4.146 4.146 0 0 1 2.078-1.883zm37.419 4.466a1.661 1.661 0 0 0 .623-1.177c.014-.331.036-1.087-.008-2.012-1.047.666-2.376 1.535-3.766 2.445-3.436 2.249-7.33 4.8-9.5 5.944a7.571 7.571 0 0 1 -3.086 1.2 2.328 2.328 0 0 1 -1.1-.331c-.119-.06-.242-.121-.385-.185-.22-.1-1.271-.626-2.833-1.419a10.025 10.025 0 0 1 1.154 3.992 13.144 13.144 0 0 0 1.386.713 3.332 3.332 0 0 0 1.374.292 4.1 4.1 0 0 0 1.886-.486zm-23.735 2.586c-2.96-1.515-6.51-3.34-9.743-5.011q.062.131.12.271a10.185 10.185 0 0 1 .637 2.817 1.223 1.223 0 0 0 .664.978c.731.368 1.656.827 2.635 1.313 1.137.564 2.313 1.148 3.194 1.593a.44.44 0 0 0 .2.049.494.494 0 0 0 .405-.226 3.043 3.043 0 0 1 1.888-1.784z" fill="#073a64" transform="translate(-84.135 -295.309)"/><path d="m231.9 353.531-11.447 7.09-.424-4.068 11.447-7.09z" fill="#0f2f54" transform="translate(-160.23 -296.244)"/><path d="m231.481 348.913a.55.55 0 0 1 .547.493l.424 4.068a.55.55 0 0 1 -.257.525l-11.447 7.09a.55.55 0 0 1 -.837-.411l-.424-4.068a.55.55 0 0 1 .257-.525l11.447-7.085a.55.55 0 0 1 .29-.087zm-.159 4.332-.3-2.852-10.408 6.447.3 2.852z" fill="#073a64" transform="translate(-160.23 -296.244)"/><path d="m260.738 351.249c.049 1.083-.534 1.989-1.3 2.024s-1.432-.815-1.481-1.9.534-1.989 1.3-2.024 1.432.815 1.481 1.9" fill="#fff" transform="translate(-187.842 -296.162)"/><path d="m259.3 348.85a2.252 2.252 0 0 1 1.935 2.376 2.913 2.913 0 0 1 -.423 1.7 1.729 1.729 0 0 1 -1.355.848c-1.052.048-1.941-1.012-2-2.374a2.913 2.913 0 0 1 .423-1.7 1.729 1.729 0 0 1 1.355-.848zm.087 3.924h.023a.769.769 0 0 0 .56-.39 1.936 1.936 0 0 0 .265-1.112c-.039-.85-.515-1.421-.936-1.421h-.023a.769.769 0 0 0 -.56.39 1.936 1.936 0 0 0 -.265 1.112c.042.847.519 1.421.939 1.421z" fill="#073a64" transform="translate(-187.842 -296.162)"/><path d="m219.518 376.981c.049 1.083-.534 1.989-1.3 2.024s-1.432-.815-1.481-1.9.534-1.989 1.3-2.024 1.432.815 1.481 1.9" fill="#fff" transform="translate(-157.826 -314.9)"/><path d="m218.083 374.582a2.252 2.252 0 0 1 1.935 2.376 2.913 2.913 0 0 1 -.423 1.7 1.729 1.729 0 0 1 -1.355.848c-1.054.047-1.941-1.012-2-2.374a2.913 2.913 0 0 1 .423-1.7 1.729 1.729 0 0 1 1.355-.848zm.087 3.924h.023a.769.769 0 0 0 .56-.39 1.936 1.936 0 0 0 .265-1.112c-.039-.85-.515-1.421-.936-1.421h-.023a.769.769 0 0 0 -.56.39 1.936 1.936 0 0 0 -.265 1.112c.039.85.516 1.421.936 1.421z" fill="#073a64" transform="translate(-157.826 -314.9)"/><path d="m202.811 339.98a22.456 22.456 0 0 1 -.9-2.472c-.03.307 9.2-2.184 9.095-3.493-.267-3.23 4.818-4.627 5.489-3.7a4.816 4.816 0 0 1 .423 1.48c-.253 2.369-12.732 8.642-14.107 8.182" fill="#0f2f54" transform="translate(-147.033 -282.097)"/><path d="m203 340.5a1.073 1.073 0 0 1 -.344-.05.5.5 0 0 1 -.277-.229 8.274 8.274 0 0 1 -.543-1.4c-.106-.319-.225-.68-.378-1.111a.514.514 0 0 1 -.04-.255.5.5 0 0 1 .644-.43 31.732 31.732 0 0 0 4.367-1.168c2.895-.952 3.918-1.617 4.079-1.861a3.464 3.464 0 0 1 .974-2.616 6.162 6.162 0 0 1 4.137-1.849 1.493 1.493 0 0 1 1.287.491.5.5 0 0 1 .066.125c.043.121.085.236.125.346a3.325 3.325 0 0 1 .324 1.354c-.074.694-.768 1.518-2.185 2.591a37.5 37.5 0 0 1 -4.353 2.753c-2.983 1.648-6.64 3.309-7.883 3.309zm-.4-2.551c.068.2.129.385.186.558.14.424.246.743.349.984a31.164 31.164 0 0 0 7.263-3.174 36.51 36.51 0 0 0 4.233-2.674c1.648-1.249 1.784-1.8 1.794-1.9a3.918 3.918 0 0 0 -.269-.9l-.086-.237a1.116 1.116 0 0 0 -.452-.068 5.227 5.227 0 0 0 -3.4 1.526 2.452 2.452 0 0 0 -.709 1.912.971.971 0 0 1 -.3.742c-.714.775-2.985 1.62-4.764 2.192a39.764 39.764 0 0 1 -3.845 1.043z" fill="#073a64" transform="translate(-147.033 -282.097)"/><path d="m246.557 141.17-7.051 4.141v-1.469l7.051-4.141z" fill="#fff" transform="translate(-174.41 -143.495)"/><path d="m246.557 139.035a.667.667 0 0 1 .667.667v1.469a.667.667 0 0 1 -.329.575l-7.051 4.141a.666.666 0 0 1 -1-.575v-1.469a.667.667 0 0 1 .329-.575l7.051-4.141a.666.666 0 0 1 .333-.092z" fill="#053860" transform="translate(-174.41 -143.495)"/><path d="m244.995 60.933 6.72 65.754v24.267c0 .71.966 1.287 2.157 1.287s2.157-.576 2.157-1.287v-26.641l-6.743-63.825z" fill="#cccec7" transform="translate(-178.407 -85.811)"/><path d="m249.286 59.988a.5.5 0 0 1 .5.448l6.743 63.825a.5.5 0 0 1 0 .053v26.641c0 1-1.167 1.787-2.657 1.787s-2.657-.785-2.657-1.787v-24.243l-6.715-65.728a.5.5 0 0 1 .446-.548l4.291-.445zm6.242 64.351-6.687-63.3-3.3.342 6.669 65.257a.505.505 0 0 1 0 .051v24.267c0 .321.645.787 1.657.787s1.657-.466 1.657-.787z" fill="#053860" transform="translate(-178.407 -85.811)"/><path d="m253.954 146.423c.073.707 1.12 1.134 2.3 1.012s2.078-.761 2.005-1.468l-.087-.826c.073.707-.828 1.379-2.013 1.5s-2.224-.339-2.3-1.046z" fill="#cccec7" transform="translate(-184.867 -147.456)"/><path d="m255.858 148.122c-1.434 0-2.466-.655-2.567-1.631l-.087-.82v-.006a.666.666 0 0 1 1.326-.139c.017.159.476.468 1.255.468a3.032 3.032 0 0 0 .31-.016c.9-.094 1.44-.559 1.418-.77a.667.667 0 0 1 1.326-.139l.087.826c.113 1.09-1 2.036-2.6 2.2a4.581 4.581 0 0 1 -.468.027z" fill="#053860" transform="translate(-184.867 -147.456)"/><g fill="#073a64"><path d="m179.7 63.852a.664.664 0 0 1 -.3-.07c-10.629-5.306-20.056-10.3-28.018-14.852-6.376-3.643-11.835-7.011-16.224-10.009-6.425-4.388-8.677-6.7-9.246-7.345a120.022 120.022 0 0 1 -19.87-6.933 66.663 66.663 0 0 1 -18.806-12.287.666.666 0 1 1 .929-.956 65.351 65.351 0 0 0 18.435 12.031 118.887 118.887 0 0 0 19.853 6.907.666.666 0 0 1 .364.24c.016.02 1.842 2.307 9.316 7.391 4.371 2.973 9.8 6.311 16.123 9.922 7.9 4.5 17.23 9.45 27.744 14.7a.667.667 0 0 1 -.3 1.263z" transform="translate(-63.864 -50.413)"/><path d="m182.814 53.328a.664.664 0 0 1 -.276-.06c-7.443-3.4-14.819-7.156-21.924-11.169-5.684-3.211-11.209-6.592-16.421-10.049-8.129-5.393-12.978-9.311-13.779-9.968a114.921 114.921 0 0 1 -20.864-7.807c-8.135-3.965-14.95-8.506-19.711-13.131a.667.667 0 0 1 .929-.956c4.659 4.528 11.356 8.985 19.366 12.889a113.386 113.386 0 0 0 20.755 7.751.667.667 0 0 1 .262.134c.049.041 4.973 4.137 13.8 9.991 5.184 3.438 10.679 6.8 16.333 9.994 7.067 3.991 14.4 7.729 21.806 11.108a.667.667 0 0 1 -.277 1.273z" transform="translate(-65.76 -42.248)"/><path d="m269.642 305.442a.5.5 0 0 1 -.482-.635l.863-3.092-.816-3.971a.5.5 0 0 1 .625-.582l2.452.687a.5.5 0 0 1 -.27.963l-1.662-.465.676 3.286a.5.5 0 0 1 -.008.235l-.9 3.208a.5.5 0 0 1 -.478.366z" transform="translate(-196.354 -258.51)"/><path d="m274.079 302.788a.5.5 0 0 1 -.326-.121l-2.1-1.811a.5.5 0 0 1 -.073-.078l-2.133-2.833a.5.5 0 0 1 .8-.6l2.1 2.79 2.061 1.776a.5.5 0 0 1 -.327.879z" transform="translate(-196.502 -258.509)"/><path d="m0 3.9a.5.5 0 0 1 -.214-.048.5.5 0 0 1 -.238-.666l1.611-3.4a.5.5 0 0 1 .666-.238.5.5 0 0 1 .238.666l-1.611 3.403a.5.5 0 0 1 -.452.283z" transform="translate(74.183 39.821)"/><path d="m274.3 316.842a.5.5 0 0 1 -.468-.325l-1.36-3.65a.5.5 0 1 1 .937-.349l1.223 3.284a2.4 2.4 0 0 0 1.286-.646.5.5 0 1 1 .721.692 3.559 3.559 0 0 1 -2.335.994z" transform="translate(-198.754 -269.467)"/><path d="m0 1.739a.5.5 0 0 1 -.4-.2.5.5 0 0 1 .1-.703l1.684-1.236a.5.5 0 0 1 .7.106.5.5 0 0 1 -.106.7l-1.678 1.235a.5.5 0 0 1 -.3.098z" transform="translate(74.083 42.452)"/><path d="m278.161 294.123q-.06 0-.12 0a.5.5 0 0 1 -.459-.4l-.3-1.516a.5.5 0 0 1 .037-.306l.431-.929a.5.5 0 0 1 .907.421l-.363.782.175.9a2.266 2.266 0 0 0 .981-.784.5.5 0 0 1 .824.567 2.944 2.944 0 0 1 -2.113 1.265z" transform="translate(-202.279 -253.799)"/></g><path d="m1.393.298-1.393-.298" fill="#d9d9da" transform="translate(73.608 45.471)"/><path d="m1.394.8a.5.5 0 0 1 -.106-.013l-1.388-.298a.5.5 0 0 1 -.389-.589.5.5 0 0 1 .589-.389l1.4.299a.5.5 0 0 1 -.1.989z" fill="#073a64" transform="translate(73.608 45.471)"/><path d="m267.355 323.686 1.4.783 2.343.118s0 7.493-.055 8.7a3.637 3.637 0 0 1 -3.041-.055v-3.55z" fill="#f7ec7c" transform="translate(-194.689 -277.473)"/><path d="m267.355 323.186a.5.5 0 0 1 .245.064l1.293.726 2.226.112a.5.5 0 0 1 .475.5c0 .306 0 7.518-.055 8.719a.5.5 0 0 1 -.306.438 4.3 4.3 0 0 1 -1.669.341 3.937 3.937 0 0 1 -1.813-.423.5.5 0 0 1 -.253-.435v-3.523l-.64-5.966a.5.5 0 0 1 .5-.553zm3.238 1.876-1.868-.094a.5.5 0 0 1 -.22-.063l-.55-.309.539 5.029a.5.5 0 0 1 0 .053v3.222a3.177 3.177 0 0 0 1.066.184 3.251 3.251 0 0 0 .986-.155c.04-1.544.046-6.335.047-7.866z" fill="#073a64" transform="translate(-194.689 -277.473)"/><path d="m227.181 321.067a.331.331 0 0 1 -.14-.031l-2.1-.973a.333.333 0 0 1 -.094-.066l-4.423-4.379a.333.333 0 1 1 .469-.473l4.382 4.338 2.048.948a.333.333 0 0 1 -.14.635z" fill="#b6c6d5" transform="translate(-160.684 -271.426)"/><path d="m237.12 318.672a.333.333 0 0 1 -.326-.4l.619-2.914a.333.333 0 0 1 .075-.15l1.674-1.915a.333.333 0 0 1 .5.438l-1.617 1.849-.6 2.829a.333.333 0 0 1 -.325.263z" fill="#b6c6d5" transform="translate(-172.672 -270.064)"/><path d="m232.69 328.368a.333.333 0 0 1 -.315-.441l1.378-4.036-1.626-2.033-2.249-.1a.333.333 0 0 1 -.1-.645l2.665-1a.334.334 0 0 1 .144-.02l2.654.221a.333.333 0 0 1 .288.439l-.948 2.777 2.233.056a.333.333 0 1 1 -.017.666l-2.442-.061-1.355 3.952a.333.333 0 0 1 -.31.225zm-1.156-7.2.773.036a.333.333 0 0 1 .245.125l1.455 1.819.751-2.2-2.154-.179z" fill="#b6c6d5" transform="translate(-167.409 -275.1)"/><path d="m1.183 2.622a.333.333 0 0 1 -.3-.18l-1.183-2.289a.333.333 0 0 1 .147-.453.333.333 0 0 1 .453.147l1.179 2.289a.333.333 0 0 1 -.3.486z" fill="#b6c6d5" transform="translate(66.497 49.308)"/><path d="m237.127 307.581a.333.333 0 0 1 -.315-.224l-.847-2.445a.333.333 0 0 1 -.009-.186l.6-2.521a.333.333 0 1 1 .648.154l-.575 2.427.816 2.354a.333.333 0 0 1 -.315.442z" fill="#b6c6d5" transform="translate(-172.06 -261.887)"/><path d="m200.634 300.021a.934.934 0 0 1 .725.345c1.511 1.848 4.462 7.013 4.748 9.9a.988.988 0 0 1 -.117.593 8.872 8.872 0 0 1 -2.249 2.287 33.71 33.71 0 0 1 -3.741 2.493 26.192 26.192 0 0 1 -8.114 3.339.908.908 0 0 1 -.131.01 1.01 1.01 0 0 1 -.934-.79 30.856 30.856 0 0 0 -4.586-8.847 1 1 0 0 1 -.147-.925.954.954 0 0 1 .658-.609c3.913-1.035 8.38-3.584 13.275-7.576a.975.975 0 0 1 .613-.22zm4.479 10.363a.127.127 0 0 0 0-.014 16.1 16.1 0 0 0 -1.827-5.014 28.567 28.567 0 0 0 -2.664-4.314c-4.975 4.051-9.541 6.651-13.572 7.729a31.894 31.894 0 0 1 4.726 9.128.432.432 0 0 0 .033.079c4.101-.641 12.073-5.426 13.304-7.594z" fill="#073a64" transform="translate(-135.834 -260.604)"/></g></g></g></svg>