<svg id="コンポーネント_1_1" data-name="コンポーネント 1 – 1" xmlns="http://www.w3.org/2000/svg" xmlns:xlink="http://www.w3.org/1999/xlink" width="80" height="80" viewBox="0 0 80 80">
  <defs>
    <clipPath id="clip-path">
      <rect id="長方形_1241" data-name="長方形 1241" width="80" height="80" rx="4" transform="translate(239 1314)" fill="#fff" stroke="#707070" stroke-width="1"/>
    </clipPath>
    <clipPath id="clip-path-2">
      <rect id="長方形_1242" data-name="長方形 1242" width="77" height="77" fill="none"/>
    </clipPath>
    <clipPath id="clip-path-4">
      <rect id="長方形_1254" data-name="長方形 1254" width="29.804" height="38" fill="#fff" stroke="#707070" stroke-width="1"/>
    </clipPath>
    <clipPath id="clip-path-5">
      <rect id="長方形_1253" data-name="長方形 1253" width="29.577" height="41.068" fill="none"/>
    </clipPath>
  </defs>
  <g id="マスクグループ_47" data-name="マスクグループ 47" transform="translate(-239 -1314)" clip-path="url(#clip-path)">
    <g id="長方形_1246" data-name="長方形 1246" transform="translate(230 1290)" fill="#fff" stroke="#707070" stroke-width="1">
      <rect width="99" height="120" stroke="none"/>
      <rect x="0.5" y="0.5" width="98" height="119" fill="none"/>
    </g>
    <g id="グループ_33713" data-name="グループ 33713" transform="translate(240 1303)">
      <path id="パス_74623" data-name="パス 74623" d="M78.6,71.984l3.49-2.822-1.486-7.129-3.49,2.376Z" transform="translate(-22.135 -17.806)" fill="#1dacc1"/>
      <path id="パス_74624" data-name="パス 74624" d="M78.6,71.984l3.49-2.822-1.486-7.129-3.49,2.376Z" transform="translate(-22.135 -17.806)" fill="none" stroke="#073a64" stroke-linecap="round" stroke-linejoin="round" stroke-width="1"/>
      <g id="グループ_33708" data-name="グループ 33708">
        <g id="グループ_33707" data-name="グループ 33707" clip-path="url(#clip-path-2)">
          <path id="パス_74625" data-name="パス 74625" d="M78.283,69.923a10.853,10.853,0,0,0-.936-3.234c-.426-.935-2.1.717-2.257,1.7a9.579,9.579,0,0,0,.086,2.818l-.628,4.554a12.166,12.166,0,0,0,2.583-.12c-.038-.117-.1-2.038-.143-3.384a2.7,2.7,0,0,0,1.295-2.33" transform="translate(-21.398 -19.063)" fill="#f8d8c6"/>
          <path id="パス_74626" data-name="パス 74626" d="M78.283,69.923a10.853,10.853,0,0,0-.936-3.234c-.426-.935-2.1.717-2.257,1.7a9.579,9.579,0,0,0,.086,2.818l-.628,4.554a12.166,12.166,0,0,0,2.583-.12c-.038-.117-.1-2.038-.143-3.384A2.7,2.7,0,0,0,78.283,69.923Z" transform="translate(-21.398 -19.063)" fill="none" stroke="#073a64" stroke-linecap="round" stroke-linejoin="round" stroke-width="1"/>
          <path id="パス_74627" data-name="パス 74627" d="M90.6,76.853l-6.467-1.922a13.806,13.806,0,0,0-3.991,1.581,19.83,19.83,0,0,0-2.352,2.537l.261-2.684a6.135,6.135,0,0,1-4.53.163s-1.855,11.1.247,12.3a4.847,4.847,0,0,0,3.219.515l-.2,4.462H93.562c.65-12.531-2.965-16.952-2.965-16.952" transform="translate(-20.885 -21.508)" fill="#fff"/>
          <path id="パス_74628" data-name="パス 74628" d="M90.6,76.853l-6.467-1.922a13.806,13.806,0,0,0-3.991,1.581,19.83,19.83,0,0,0-2.352,2.537l.261-2.684a6.135,6.135,0,0,1-4.53.163s-1.855,11.1.247,12.3a4.847,4.847,0,0,0,3.219.515l-.2,4.462H93.562C94.212,81.274,90.6,76.853,90.6,76.853Z" transform="translate(-20.885 -21.508)" fill="none" stroke="#073a64" stroke-linecap="round" stroke-linejoin="round" stroke-width="1"/>
          <path id="パス_74629" data-name="パス 74629" d="M80.879,58.169s-.816,8.256,1.188,9.561a14.319,14.319,0,0,0,2.989,1.3L84,71.291,85.7,73.2s3.055-1.211,3.928-2.4L88.9,68.417l1.78-2.924c3.64-2.032.621-8.13-.869-9.849-1.253-1.445-7.387-2.063-8.931,2.525" transform="translate(-23.168 -15.668)" fill="#f8d8c6"/>
          <path id="パス_74630" data-name="パス 74630" d="M80.879,58.169s-.816,8.256,1.188,9.561a14.319,14.319,0,0,0,2.989,1.3L84,71.291,85.7,73.2s3.055-1.211,3.928-2.4L88.9,68.417l1.78-2.924c3.64-2.032.621-8.13-.869-9.849C88.557,54.2,82.423,53.581,80.879,58.169Z" transform="translate(-23.168 -15.668)" fill="none" stroke="#073a64" stroke-linecap="round" stroke-linejoin="round" stroke-width="1"/>
          <path id="パス_74631" data-name="パス 74631" d="M88.411,64.673a.673.673,0,1,0,.794-.543.679.679,0,0,0-.794.543" transform="translate(-25.373 -18.404)" fill="#0b2e51"/>
          <path id="パス_74632" data-name="パス 74632" d="M82.982,64.478a.673.673,0,1,0,.794-.543.679.679,0,0,0-.794.543" transform="translate(-23.815 -18.348)" fill="#0b2e51"/>
          <path id="パス_74633" data-name="パス 74633" d="M82.239,54.747c1.1-2.71,8.047-2.639,9.569.592,1.634.481,2.516,2.835,1.462,5.17,0,0-.487,3.8-2.795,4.681,1.333-.94,2.16-3.049,1.492-3.494a1.54,1.54,0,0,0-2.145.946l.028-1.921a29.928,29.928,0,0,1-2.831-3.565c-1.708,1.931-6.5,3.342-6.5,3.342s-1.3-4.386,1.719-5.753" transform="translate(-23.032 -15.158)" fill="#0b2e51"/>
          <path id="パス_74634" data-name="パス 74634" d="M82.239,54.747c1.1-2.71,8.047-2.639,9.569.592,1.634.481,2.516,2.835,1.462,5.17,0,0-.487,3.8-2.795,4.681,1.333-.94,2.16-3.049,1.492-3.494a1.54,1.54,0,0,0-2.145.946l.028-1.921a29.928,29.928,0,0,1-2.831-3.565c-1.708,1.931-6.5,3.342-6.5,3.342S79.219,56.113,82.239,54.747Z" transform="translate(-23.032 -15.158)" fill="none" stroke="#082e4e" stroke-linecap="round" stroke-linejoin="round" stroke-width="1"/>
          <path id="パス_74635" data-name="パス 74635" d="M85.06,69.368a2.073,2.073,0,0,0,2.3.111s-.334,1.529-1.34,1.421c-.587-.063-.963-1.532-.963-1.532" transform="translate(-24.415 -19.911)" fill="#0f2f54"/>
          <path id="パス_74636" data-name="パス 74636" d="M85.06,69.368a2.073,2.073,0,0,0,2.3.111s-.334,1.529-1.34,1.421C85.435,70.837,85.06,69.368,85.06,69.368Z" transform="translate(-24.415 -19.911)" fill="none" stroke="#0c2e52" stroke-linecap="round" stroke-linejoin="round" stroke-width="0.4"/>
          <path id="パス_74637" data-name="パス 74637" d="M85.884,79.026c-1.609-2.413-.387-4.12-1.036-4.348-.929-.325-3.7,1.069-3.482,3.172.107,1.035,3.4,1.98,3.4,1.98" transform="translate(-23.352 -21.422)" fill="#fff"/>
          <path id="パス_74638" data-name="パス 74638" d="M85.884,79.026c-1.609-2.413-.387-4.12-1.036-4.348-.929-.325-3.7,1.069-3.482,3.172.107,1.035,3.4,1.98,3.4,1.98" transform="translate(-23.352 -21.422)" fill="none" stroke="#073a64" stroke-linecap="round" stroke-linejoin="round" stroke-width="1"/>
          <path id="パス_74639" data-name="パス 74639" d="M87.708,78.539c3.665-1.922,3.745-5.6,4.433-5.6a3.153,3.153,0,0,1,2.692,2.377S96.2,76.789,95.939,77.8s-7.18,1.547-7.18,1.547" transform="translate(-25.175 -20.935)" fill="#fff"/>
          <path id="パス_74640" data-name="パス 74640" d="M87.708,78.539c3.665-1.922,3.745-5.6,4.433-5.6a3.153,3.153,0,0,1,2.692,2.377S96.2,76.789,95.939,77.8s-7.18,1.547-7.18,1.547" transform="translate(-25.175 -20.935)" fill="none" stroke="#073a64" stroke-linecap="round" stroke-linejoin="round" stroke-width="1"/>
          <path id="パス_74641" data-name="パス 74641" d="M95.817,87.457s.835,7.519.928,9.886" transform="translate(-27.503 -25.103)" fill="none" stroke="#073a64" stroke-linecap="round" stroke-linejoin="round" stroke-width="1"/>
          <line id="線_15580" data-name="線 15580" x1="0.463" y2="6.096" transform="translate(56.159 61.471)" fill="#a9b2b8"/>
          <line id="線_15581" data-name="線 15581" x1="0.463" y2="6.096" transform="translate(56.159 61.471)" fill="none" stroke="#073a64" stroke-linecap="round" stroke-linejoin="round" stroke-width="1"/>
        </g>
      </g>
      <g id="グループ_33712" data-name="グループ 33712">
        <g id="グループ_33711" data-name="グループ 33711" clip-path="url(#clip-path-2)">
          <path id="パス_74676" data-name="パス 74676" d="M51.9,57.374a23.894,23.894,0,1,1-1.151-3.956l5.8.312Z" transform="translate(-1.31 -10.951)" fill="none" stroke="#073a64" stroke-linecap="round" stroke-linejoin="round" stroke-width="1"/>
        </g>
      </g>
    </g>
  </g>
  <g id="マスクグループ_49" data-name="マスクグループ 49" transform="translate(12.5 22)" clip-path="url(#clip-path-4)">
    <g id="グループ_33717" data-name="グループ 33717" transform="translate(0.114 0)">
      <g id="グループ_33716" data-name="グループ 33716" clip-path="url(#clip-path-5)">
        <path id="パス_74708" data-name="パス 74708" d="M31.926,51.668s-1.309-9.658-2.649-11.892c-1.688-2.813-8.315-6.257-8.315-6.257h-3.05s-5.794,3.216-7.482,6.03c-1.34,2.234-2.422,12.119-2.422,12.119" transform="translate(-3.105 -12.997)" fill="#fff"/>
        <path id="パス_74709" data-name="パス 74709" d="M31.926,51.668s-1.309-9.658-2.649-11.892c-1.688-2.813-8.315-6.257-8.315-6.257h-3.05s-5.794,3.216-7.482,6.03c-1.34,2.234-2.422,12.119-2.422,12.119" transform="translate(-3.105 -12.997)" fill="none" stroke="#073a64" stroke-linecap="round" stroke-linejoin="round" stroke-width="1"/>
        <path id="パス_74710" data-name="パス 74710" d="M29.01,38l-2.589,4.9-2.827-3.438-2.418,3.092-2.251-4.961" transform="translate(-7.338 -14.577)" fill="#fff"/>
        <path id="パス_74711" data-name="パス 74711" d="M29.01,38l-2.589,4.9-2.827-3.438-2.418,3.092-2.251-4.961" transform="translate(-7.338 -14.577)" fill="none" stroke="#073a64" stroke-linecap="round" stroke-linejoin="round" stroke-width="1"/>
        <path id="パス_74712" data-name="パス 74712" d="M13.914,2.8A4.4,4.4,0,0,0,9.4,1.973,4.377,4.377,0,0,0,6.352,6.811c.291,3.447,1.572,4.859-.261,7.378-1.2,1.654-.931,4.989,1.217,6.132,2.428,1.291-.727,4.215-.727,4.215s6.461-.449,5.815-5.1a11.149,11.149,0,0,1,.62-6.13s1.236-6.885.9-10.506" transform="translate(-2.086 -0.669)" fill="#0f2f54"/>
        <path id="パス_74713" data-name="パス 74713" d="M13.914,2.8A4.4,4.4,0,0,0,9.4,1.973,4.377,4.377,0,0,0,6.352,6.811c.291,3.447,1.572,4.859-.261,7.378-1.2,1.654-.931,4.989,1.217,6.132,2.428,1.291-.727,4.215-.727,4.215s6.461-.449,5.815-5.1a11.149,11.149,0,0,1,.62-6.13S14.252,6.422,13.914,2.8Z" transform="translate(-2.086 -0.669)" fill="none" stroke="#073a64" stroke-linecap="round" stroke-linejoin="round" stroke-width="1"/>
        <path id="パス_74714" data-name="パス 74714" d="M13.664,21.222A2.4,2.4,0,0,1,11.613,23.9,2.4,2.4,0,0,1,9.3,21.447a2.4,2.4,0,0,1,2.051-2.679,2.4,2.4,0,0,1,2.316,2.453" transform="translate(-3.603 -7.276)" fill="#f8d8c6"/>
        <path id="パス_74715" data-name="パス 74715" d="M13.664,21.222A2.4,2.4,0,0,1,11.613,23.9,2.4,2.4,0,0,1,9.3,21.447a2.4,2.4,0,0,1,2.051-2.679A2.4,2.4,0,0,1,13.664,21.222Z" transform="translate(-3.603 -7.276)" fill="none" stroke="#073a64" stroke-linecap="round" stroke-linejoin="round" stroke-width="1"/>
        <path id="パス_74716" data-name="パス 74716" d="M39.571,18.163a2.6,2.6,0,0,1-2.219,2.9,2.6,2.6,0,0,1-2.505-2.654,2.6,2.6,0,0,1,2.219-2.9,2.6,2.6,0,0,1,2.505,2.654" transform="translate(-13.51 -6.013)" fill="#f8d8c6"/>
        <path id="パス_74717" data-name="パス 74717" d="M39.571,18.163a2.6,2.6,0,0,1-2.219,2.9,2.6,2.6,0,0,1-2.505-2.654,2.6,2.6,0,0,1,2.219-2.9A2.6,2.6,0,0,1,39.571,18.163Z" transform="translate(-13.51 -6.013)" fill="none" stroke="#073a64" stroke-linecap="round" stroke-linejoin="round" stroke-width="1"/>
        <path id="パス_74718" data-name="パス 74718" d="M28.4,14.075c-.069-1.339.091-3.388-.542-4.781-1.512-3.334-4.949-5.677-8.057-5.517-3.784.2-7.083,4.671-7.7,8.718a10.9,10.9,0,0,0,.351,2.657c.658,3.553,2.613,5.494,6.276,6.345l.034,1.884,2.174,2.966L23.524,23.2l-.339-2.12c2.936-1.338,5.4-3.5,5.219-7.01" transform="translate(-4.688 -1.462)" fill="#f8d8c6"/>
        <path id="パス_74719" data-name="パス 74719" d="M28.4,14.075c-.069-1.339.091-3.388-.542-4.781-1.512-3.334-4.949-5.677-8.057-5.517-3.784.2-7.083,4.671-7.7,8.718a10.9,10.9,0,0,0,.351,2.657c.658,3.553,2.613,5.494,6.276,6.345l.034,1.884,2.174,2.966L23.524,23.2l-.339-2.12C26.122,19.747,28.586,17.58,28.4,14.075Z" transform="translate(-4.688 -1.462)" fill="none" stroke="#073a64" stroke-linecap="round" stroke-linejoin="round" stroke-width="1"/>
        <path id="パス_74720" data-name="パス 74720" d="M20.911,18.733a.98.98,0,1,1-1.028-.93.98.98,0,0,1,1.028.93" transform="translate(-7.348 -6.903)" fill="#0f2f54"/>
        <path id="パス_74721" data-name="パス 74721" d="M30.707,17.449a.98.98,0,1,1-1.029-.93.981.981,0,0,1,1.029.93" transform="translate(-11.147 -6.405)" fill="#0f2f54"/>
        <path id="パス_74722" data-name="パス 74722" d="M23.42,4.421c-.152,1.5-2.772,3.742-4.623,4.484a3.775,3.775,0,0,1-2.938-.1,6.68,6.68,0,0,1-4.346,2.809S7.9,3.127,17.871.982c0,0,4.655-1.125,7.743,1.289,3.367,2.633,2.917,8.952,2.917,8.952-2.73-.51-5.111-6.8-5.111-6.8" transform="translate(-4.216 -0.279)" fill="#0f2f54"/>
        <path id="パス_74723" data-name="パス 74723" d="M23.42,4.421c-.152,1.5-2.772,3.742-4.623,4.484a3.775,3.775,0,0,1-2.938-.1,6.68,6.68,0,0,1-4.346,2.809S7.9,3.127,17.871.982c0,0,4.655-1.125,7.743,1.289,3.367,2.633,2.917,8.952,2.917,8.952C25.8,10.713,23.42,4.421,23.42,4.421Z" transform="translate(-4.216 -0.279)" fill="none" stroke="#073a64" stroke-linecap="round" stroke-linejoin="round" stroke-width="1"/>
        <path id="パス_74724" data-name="パス 74724" d="M23.121,25.206a4.582,4.582,0,0,0,3.675-.483s-.264,2.128-1.438,2.29-2.237-1.807-2.237-1.807" transform="translate(-8.965 -9.586)" fill="#0f2f54"/>
        <path id="パス_74725" data-name="パス 74725" d="M23.121,25.206a4.582,4.582,0,0,0,3.675-.483s-.264,2.128-1.438,2.29S23.121,25.206,23.121,25.206Z" transform="translate(-8.965 -9.586)" fill="none" stroke="#0c2e52" stroke-linecap="round" stroke-linejoin="round" stroke-width="0.96"/>
        <path id="パス_74726" data-name="パス 74726" d="M35.678,22.959a6.77,6.77,0,0,1-2.057,3.475,6.745,6.745,0,0,1-3.68,1.009" transform="translate(-11.61 -8.902)" fill="none" stroke="#0f2f54" stroke-linecap="round" stroke-linejoin="round" stroke-width="0.96"/>
        <rect id="長方形_1251" data-name="長方形 1251" width="0.832" height="1.283" transform="translate(17.248 18.948) rotate(-87.374)" fill="#0f2f54"/>
        <rect id="長方形_1252" data-name="長方形 1252" width="0.832" height="1.283" transform="translate(17.248 18.948) rotate(-87.374)" fill="none" stroke="#0f2f54" stroke-linecap="round" stroke-linejoin="round" stroke-width="0.96"/>
        <path id="パス_74727" data-name="パス 74727" d="M8.3,37.794c.5-1.241.887-3.345.021-3.94-.5-.342-1.521.093-2.068.974,0,0-1.321-.826-2.179-1.354a2.821,2.821,0,0,0-3.236.595,2.091,2.091,0,0,0,.387,1.989A12.66,12.66,0,0,0,5.488,39.49l.165,2.772,2.917-.869Z" transform="translate(-0.279 -12.874)" fill="#f8d8c6"/>
        <path id="パス_74728" data-name="パス 74728" d="M8.3,37.794c.5-1.241.887-3.345.021-3.94-.5-.342-1.521.093-2.068.974,0,0-1.321-.826-2.179-1.354a2.821,2.821,0,0,0-3.236.595,2.091,2.091,0,0,0,.387,1.989A12.66,12.66,0,0,0,5.488,39.49l.165,2.772,2.917-.869Z" transform="translate(-0.279 -12.874)" fill="none" stroke="#073a64" stroke-linecap="round" stroke-linejoin="round" stroke-width="1"/>
        <path id="パス_74729" data-name="パス 74729" d="M10.787,58.021l.441-13.164S8,46.222,6.511,45.6l-1.5,9.733" transform="translate(-1.945 -17.393)" fill="#fff"/>
        <path id="パス_74730" data-name="パス 74730" d="M10.787,58.021l.441-13.164S8,46.222,6.511,45.6l-1.5,9.733" transform="translate(-1.945 -17.393)" fill="none" stroke="#073a64" stroke-linecap="round" stroke-linejoin="round" stroke-width="1"/>
        <path id="パス_74731" data-name="パス 74731" d="M35.7,41.889a3.49,3.49,0,0,1,1.293-2.606,3.6,3.6,0,0,1,2.968-.7,6.281,6.281,0,0,1-1.913,2.565,7.776,7.776,0,0,1-2.348.745" transform="translate(-13.841 -14.93)" fill="#073a64"/>
        <path id="パス_74732" data-name="パス 74732" d="M35.7,41.889a3.49,3.49,0,0,1,1.293-2.606,3.6,3.6,0,0,1,2.968-.7,6.281,6.281,0,0,1-1.913,2.565A7.776,7.776,0,0,1,35.7,41.889Z" transform="translate(-13.841 -14.93)" fill="none" stroke="#073a64" stroke-linecap="round" stroke-linejoin="round" stroke-width="1"/>
        <path id="パス_74733" data-name="パス 74733" d="M36.424,27.722s-2.783-1.323-4.06.456c-.756,1.053,1.049,1.327,1.14,1.916s-1.414,3.056.867,3.969l1,3.13,2.565-1.448-.771-2.575s.631-4.533-.737-5.449" transform="translate(-12.477 -10.566)" fill="#f8d8c6"/>
        <path id="パス_74734" data-name="パス 74734" d="M36.424,27.722s-2.783-1.323-4.06.456c-.756,1.053,1.049,1.327,1.14,1.916s-1.414,3.056.867,3.969l1,3.13,2.565-1.448-.771-2.575S37.792,28.639,36.424,27.722Z" transform="translate(-12.477 -10.566)" fill="none" stroke="#073a64" stroke-linecap="round" stroke-linejoin="round" stroke-width="1"/>
        <path id="パス_74735" data-name="パス 74735" d="M37.724,53.648c-1.361-.628-1.531-9.683-1.531-9.683l-.5-2.028a19.946,19.946,0,0,0,4.261-3.31s4.179,9.671,2.706,15.021" transform="translate(-13.841 -14.977)" fill="#fff"/>
        <path id="パス_74736" data-name="パス 74736" d="M37.724,53.648c-1.361-.628-1.531-9.683-1.531-9.683l-.5-2.028a19.946,19.946,0,0,0,4.261-3.31s4.179,9.671,2.706,15.021" transform="translate(-13.841 -14.977)" fill="none" stroke="#073a64" stroke-linecap="round" stroke-linejoin="round" stroke-width="1"/>
        <path id="パス_74737" data-name="パス 74737" d="M38.412,15.778c-.431.053-1.054.276-1.083,1.806S37.91,20.4,38.877,20.2s1.116-1.271.947-2.537-.98-1.934-1.411-1.88" transform="translate(-14.474 -6.117)" fill="#0f2f54"/>
        <path id="パス_74738" data-name="パス 74738" d="M38.412,15.778c-.431.053-1.054.276-1.083,1.806S37.91,20.4,38.877,20.2s1.116-1.271.947-2.537S38.843,15.725,38.412,15.778Z" transform="translate(-14.474 -6.117)" fill="none" stroke="#0f2f54" stroke-linecap="round" stroke-linejoin="round" stroke-width="1"/>
      </g>
    </g>
  </g>
</svg>
