<svg xmlns="http://www.w3.org/2000/svg" xmlns:xlink="http://www.w3.org/1999/xlink" width="80" height="80" viewBox="0 0 80 80">
  <defs>
    <clipPath id="clip-path">
      <rect id="長方形_1223" data-name="長方形 1223" width="80" height="80" rx="4" transform="translate(239 1314)" fill="#063b79" stroke="#707070" stroke-width="1"/>
    </clipPath>
    <clipPath id="clip-path-2">
      <rect id="長方形_1222" data-name="長方形 1222" width="179.713" height="111.494" fill="none"/>
    </clipPath>
    <clipPath id="clip-path-3">
      <rect id="長方形_1221" data-name="長方形 1221" width="80" height="80" fill="none"/>
    </clipPath>
    <clipPath id="clip-path-4">
      <rect id="長方形_1219" data-name="長方形 1219" width="171.579" height="96.609" fill="none"/>
    </clipPath>
    <clipPath id="clip-path-5">
      <rect id="長方形_1220" data-name="長方形 1220" width="34.219" height="17.276" fill="none"/>
    </clipPath>
  </defs>
  <g id="マスクグループ_45" data-name="マスクグループ 45" transform="translate(-239 -1314)" clip-path="url(#clip-path)">
    <g id="グループ_33682" data-name="グループ 33682" transform="translate(139 1302.148)">
      <g id="グループ_33681" data-name="グループ 33681" clip-path="url(#clip-path-2)">
        <rect id="長方形_1218" data-name="長方形 1218" width="80" height="80" transform="translate(99.713 11.524)" fill="#fff"/>
        <g id="グループ_33680" data-name="グループ 33680" transform="translate(99.713 11.524)">
          <g id="グループ_33679" data-name="グループ 33679" transform="translate(-10 -5)" clip-path="url(#clip-path-3)">
            <path id="パス_74499" data-name="パス 74499" d="M151.333,73.473S44.607,121.156,42.317,122.015s-5.8.844-7.536-.341S14.19,108.1,14.19,108.1s-3.264-2.024-3.264-5.007v-15L151.333,44.334Z" transform="translate(-102.545 -23.018)" fill="#eceae2"/>
            <path id="パス_74500" data-name="パス 74500" d="M151.333,73.473S44.607,121.156,42.317,122.015s-5.8.844-7.536-.341S14.19,108.1,14.19,108.1s-3.264-2.024-3.264-5.007v-15L151.333,44.334Z" transform="translate(-102.545 -23.018)" fill="none" stroke="#053760" stroke-linecap="round" stroke-linejoin="round" stroke-width="1"/>
            <path id="パス_74501" data-name="パス 74501" d="M167.488,24.527,144.647,9.3c-4-2.664-10.749-2.538-15.144-.6L8.882,61.967A14.057,14.057,0,0,0,6.761,86.524L29.6,101.752a14.058,14.058,0,0,0,13.474,1.164L163.7,49.649a14.184,14.184,0,0,0,8.353-9.673v-8.9Z" transform="translate(-99.842 -13.408)" fill="#eceae2"/>
            <path id="パス_74502" data-name="パス 74502" d="M167.488,24.527,144.647,9.3c-4-2.664-10.749-2.538-15.144-.6L8.882,61.967A14.057,14.057,0,0,0,6.761,86.524L29.6,101.752a14.058,14.058,0,0,0,13.474,1.164L163.7,49.649a14.184,14.184,0,0,0,8.353-9.673v-8.9Z" transform="translate(-99.842 -13.408)" fill="none" stroke="#053760" stroke-linecap="round" stroke-linejoin="round" stroke-width="1"/>
            <g id="グループ_33675" data-name="グループ 33675" transform="translate(-99.342 -11.524)" opacity="0.8">
              <g id="グループ_33674" data-name="グループ 33674" transform="translate(0)">
                <g id="グループ_33673" data-name="グループ 33673" clip-path="url(#clip-path-4)">
                  <path id="パス_74503" data-name="パス 74503" d="M163.7,42.145,43.077,95.412A14.058,14.058,0,0,1,29.6,94.248L6.761,79.021A14.058,14.058,0,0,1,8.881,54.464L129.5,1.2a14.059,14.059,0,0,1,13.474,1.164l22.841,15.228A14.057,14.057,0,0,1,163.7,42.145" transform="translate(-0.5 0)" fill="#84c7e9"/>
                </g>
              </g>
            </g>
            <path id="パス_74504" data-name="パス 74504" d="M208.137,51.877l7.364-3.268L206.932,42.8l-7.21,3.256Z" transform="translate(-151.492 -22.62)" fill="#fff"/>
            <path id="パス_74505" data-name="パス 74505" d="M208.137,51.877l7.364-3.268L206.932,42.8l-7.21,3.256Z" transform="translate(-151.492 -22.62)" fill="none" stroke="#0a2d4c" stroke-linecap="round" stroke-linejoin="round" stroke-width="1"/>
            <path id="パス_74506" data-name="パス 74506" d="M165.133,70.81l6.242-2.77-7.264-4.923L158,65.875Z" transform="translate(-140.676 -27.887)" fill="#fff"/>
            <path id="パス_74507" data-name="パス 74507" d="M165.133,70.81l6.242-2.77-7.264-4.923L158,65.875Z" transform="translate(-140.676 -27.887)" fill="none" stroke="#0a2d4c" stroke-linecap="round" stroke-linejoin="round" stroke-width="1"/>
            <path id="パス_74508" data-name="パス 74508" d="M169.694,66.658l6.242-2.77-7.264-4.923-6.112,2.759Z" transform="translate(-141.858 -26.811)" fill="#fff"/>
            <path id="パス_74509" data-name="パス 74509" d="M169.694,66.658l6.242-2.77-7.264-4.923-6.112,2.759Z" transform="translate(-141.858 -26.811)" fill="none" stroke="#0a2d4c" stroke-linecap="round" stroke-linejoin="round" stroke-width="1"/>
            <path id="パス_74510" data-name="パス 74510" d="M199.867,23.171c0,.8-.979,1.457-2.185,1.457s-2.186-.653-2.186-1.457.979-1.457,2.186-1.457,2.185.653,2.185,1.457" transform="translate(-150.397 -17.153)" fill="#fff"/>
            <path id="パス_74511" data-name="パス 74511" d="M202.255,41.715c0,.8-.979,1.457-2.185,1.457s-2.186-.653-2.186-1.457.979-1.457,2.186-1.457,2.185.653,2.185,1.457" transform="translate(-151.016 -21.961)" fill="#fff"/>
            <path id="パス_74512" data-name="パス 74512" d="M28.9,77.793l79.765-34.61a4.757,4.757,0,0,1,4.893.637l10.994,8.795a5.1,5.1,0,0,0,5.155.722l26.555-11.111" transform="translate(-107.204 -22.471)" fill="none" stroke="#fff" stroke-linecap="round" stroke-linejoin="round" stroke-width="1"/>
            <path id="パス_74513" data-name="パス 74513" d="M180.618,57.2l10.214-4.476,6.885,4.595L187.5,61.79Z" transform="translate(-146.539 -25.192)" fill="#7592a0"/>
            <path id="パス_74514" data-name="パス 74514" d="M180.618,57.2l10.214-4.476,6.885,4.595L187.5,61.79Z" transform="translate(-146.539 -25.192)" fill="none" stroke="#093b68" stroke-linecap="round" stroke-linejoin="round" stroke-width="1"/>
            <path id="パス_74515" data-name="パス 74515" d="M187.648,40.95l-10.214,4.476,2.359,8.718,10.213-4.476Z" transform="translate(-145.714 -22.14)" fill="#7592a0"/>
            <path id="パス_74516" data-name="パス 74516" d="M187.648,40.95l-10.214,4.476,2.359,8.718,10.213-4.476Z" transform="translate(-145.714 -22.14)" fill="none" stroke="#093b68" stroke-linecap="round" stroke-linejoin="round" stroke-width="1"/>
            <path id="パス_74517" data-name="パス 74517" d="M179.769,46.957l7.523-3.3,1.59,5.881-7.523,3.3Z" transform="translate(-146.319 -22.843)" fill="#1695ae"/>
            <path id="パス_74518" data-name="パス 74518" d="M179.769,46.957l7.523-3.3,1.59,5.881-7.523,3.3Z" transform="translate(-146.319 -22.843)" fill="none" stroke="#093b68" stroke-linecap="round" stroke-linejoin="round" stroke-width="1"/>
            <line id="線_15574" data-name="線 15574" y1="0.939" x2="2.174" transform="translate(42.961 32.45)" fill="#0a2d4c"/>
            <line id="線_15575" data-name="線 15575" y1="0.939" x2="2.174" transform="translate(42.961 32.45)" fill="none" stroke="#0a2d4c" stroke-linecap="round" stroke-linejoin="round" stroke-width="1"/>
            <line id="線_15576" data-name="線 15576" x1="6.964" y2="3.052" transform="translate(37.328 29.374)" fill="none" stroke="#0a2d4c" stroke-linecap="round" stroke-width="1" stroke-dasharray="0.432 1.726"/>
            <line id="線_15577" data-name="線 15577" x1="6.964" y2="3.052" transform="translate(38.6 30.276)" fill="none" stroke="#0a2d4c" stroke-linecap="round" stroke-width="1" stroke-dasharray="0.432 1.726"/>
            <line id="線_15578" data-name="線 15578" y1="6.088" x2="13.893" transform="translate(33.392 6.017)" fill="none" stroke="#fff" stroke-linecap="round" stroke-linejoin="round" stroke-width="1"/>
            <g id="グループ_33678" data-name="グループ 33678" transform="translate(40.126 59.343)" opacity="0.3">
              <g id="グループ_33677" data-name="グループ 33677">
                <g id="グループ_33676" data-name="グループ 33676" clip-path="url(#clip-path-5)">
                  <path id="パス_74519" data-name="パス 74519" d="M223,104.308c0,4.77-7.66,8.638-17.11,8.638s-17.11-3.867-17.11-8.638,7.661-8.638,17.11-8.638S223,99.537,223,104.308" transform="translate(-188.782 -95.67)" fill="#1a0f0f"/>
                </g>
              </g>
            </g>
            <path id="パス_74520" data-name="パス 74520" d="M199.722,96.162c-1.186,0-1.357,1.795.007,2.907,2.106,1.716,4.528,2.15,5.5,1.325.858-.727-.129-3-.129-3a36.727,36.727,0,0,0-5.38-1.233" transform="translate(-151.245 -36.455)" fill="#d55f48"/>
            <path id="パス_74521" data-name="パス 74521" d="M199.722,96.162c-1.186,0-1.357,1.795.007,2.907,2.106,1.716,4.528,2.15,5.5,1.325.858-.727-.129-3-.129-3A36.727,36.727,0,0,0,199.722,96.162Z" transform="translate(-151.245 -36.455)" fill="none" stroke="#093b68" stroke-linecap="round" stroke-linejoin="round" stroke-width="1"/>
            <path id="パス_74522" data-name="パス 74522" d="M207.245,94.221a4.5,4.5,0,0,0,5.281-.577V85.117l-5.618,1.347Z" transform="translate(-153.356 -33.591)" fill="#f2ecc7"/>
            <path id="パス_74523" data-name="パス 74523" d="M207.245,94.221a4.5,4.5,0,0,0,5.281-.577V85.117l-5.618,1.347Z" transform="translate(-153.356 -33.591)" fill="none" stroke="#093b68" stroke-linecap="round" stroke-linejoin="round" stroke-width="1"/>
            <path id="パス_74524" data-name="パス 74524" d="M198.4,85.115l2.236,9.251s1.379,2.4,4.634.476l-.693-7.884Z" transform="translate(-151.149 -33.591)" fill="#f2ecc7"/>
            <path id="パス_74525" data-name="パス 74525" d="M198.4,85.115l2.236,9.251s1.379,2.4,4.634.476l-.693-7.884Z" transform="translate(-151.149 -33.591)" fill="none" stroke="#093b68" stroke-linecap="round" stroke-linejoin="round" stroke-width="1"/>
            <path id="パス_74526" data-name="パス 74526" d="M219.028,79.874,202.235,85.9a1.851,1.851,0,0,1-1.8-.311l-5.912-4.854a1.851,1.851,0,0,1,.376-3.1l15.459-7.386a1.849,1.849,0,0,1,2,.264l7.246,6.21a1.851,1.851,0,0,1-.579,3.147" transform="translate(-149.969 -29.69)" fill="#a09e9f"/>
            <path id="パス_74527" data-name="パス 74527" d="M219.028,79.874,202.235,85.9a1.851,1.851,0,0,1-1.8-.311l-5.912-4.854a1.851,1.851,0,0,1,.376-3.1l15.459-7.386a1.849,1.849,0,0,1,2,.264l7.246,6.21A1.851,1.851,0,0,1,219.028,79.874Z" transform="translate(-149.969 -29.69)" fill="none" stroke="#093b68" stroke-linecap="round" stroke-linejoin="round" stroke-width="1"/>
            <path id="パス_74528" data-name="パス 74528" d="M212.3,73.043s1.69,4.976-.107,6.3a11.8,11.8,0,0,1-5.418,2.511c-2.133.419-7.031-4.809-7.031-4.809l-1.7.286s0-2.736,1.969-3.87a7.226,7.226,0,0,1,4.041-.729Z" transform="translate(-151.058 -30.371)" fill="#f2ecc7"/>
            <path id="パス_74529" data-name="パス 74529" d="M212.3,73.043s1.69,4.976-.107,6.3a11.8,11.8,0,0,1-5.418,2.511c-2.133.419-7.031-4.809-7.031-4.809l-1.7.286s0-2.736,1.969-3.87a7.226,7.226,0,0,1,4.041-.729Z" transform="translate(-151.058 -30.371)" fill="none" stroke="#093b68" stroke-linecap="round" stroke-linejoin="round" stroke-width="1"/>
            <path id="パス_74530" data-name="パス 74530" d="M195.206,60.284s-4.021-2.3-4.247-3.887c-.264-1.846,1.719-.736,2.564-.841,1.283-.161,3.2,2.984,3.2,2.984Z" transform="translate(-149.214 -25.866)" fill="#fbdac8"/>
            <path id="パス_74531" data-name="パス 74531" d="M195.206,60.284s-4.021-2.3-4.247-3.887c-.264-1.846,1.719-.736,2.564-.841,1.283-.161,3.2,2.984,3.2,2.984Z" transform="translate(-149.214 -25.866)" fill="none" stroke="#093b68" stroke-linecap="round" stroke-linejoin="round" stroke-width="1"/>
            <path id="パス_74532" data-name="パス 74532" d="M208.184,32.273a2.426,2.426,0,0,0-2.331,1.5c-.706,2.154,2.293,3.773,2.293,3.773Z" transform="translate(-153.054 -19.891)" fill="#0c2e50"/>
            <path id="パス_74533" data-name="パス 74533" d="M208.184,32.273a2.426,2.426,0,0,0-2.331,1.5c-.706,2.154,2.293,3.773,2.293,3.773Z" transform="translate(-153.054 -19.891)" fill="none" stroke="#0c2e50" stroke-linecap="round" stroke-linejoin="round" stroke-width="1"/>
            <path id="パス_74534" data-name="パス 74534" d="M208.3,33.254c-1.5.63-2.138,4.2-2.137,7.062,0,2.079,2.506,2.013,2.705,3.006a6.926,6.926,0,0,1-.494,2.8l4.195.018.387-4.581s2.6-11.356-4.656-8.306" transform="translate(-153.161 -20.01)" fill="#fbdac8"/>
            <path id="パス_74535" data-name="パス 74535" d="M208.3,33.254c-1.5.63-2.138,4.2-2.137,7.062,0,2.079,2.506,2.013,2.705,3.006a6.926,6.926,0,0,1-.494,2.8l4.195.018.387-4.581S215.552,30.2,208.3,33.254Z" transform="translate(-153.161 -20.01)" fill="none" stroke="#093b68" stroke-linecap="round" stroke-linejoin="round" stroke-width="1"/>
            <path id="パス_74536" data-name="パス 74536" d="M201.306,62.837c-2.019-.736-6.337-4.352-6.337-4.352l2.8-2.362,3.932,1.339s.771-6.128,2.128-7.264a9.747,9.747,0,0,1,2.094-1.389c3.419.053,4.274-.427,4.274-.427,3.637,3.479,3.313,6.056,3.032,10.164a72.713,72.713,0,0,0,.709,9.53,6.84,6.84,0,0,1-11.184-.8l.2-4.4a2.905,2.905,0,0,1-1.644-.046" transform="translate(-150.26 -24.067)" fill="#f2ecc7"/>
            <path id="パス_74537" data-name="パス 74537" d="M201.306,62.837c-2.019-.736-6.337-4.352-6.337-4.352l2.8-2.362,3.932,1.339s.771-6.128,2.128-7.264a9.747,9.747,0,0,1,2.094-1.389c3.419.053,4.274-.427,4.274-.427,3.637,3.479,3.313,6.056,3.032,10.164a72.713,72.713,0,0,0,.709,9.53,6.84,6.84,0,0,1-11.184-.8l.2-4.4A2.905,2.905,0,0,1,201.306,62.837Z" transform="translate(-150.26 -24.067)" fill="none" stroke="#093b68" stroke-linecap="round" stroke-linejoin="round" stroke-width="1"/>
            <path id="パス_74538" data-name="パス 74538" d="M207.9,39.086a.591.591,0,1,1-.591-.591.591.591,0,0,1,.591.591" transform="translate(-153.306 -21.504)" fill="#0d2e53"/>
            <path id="パス_74539" data-name="パス 74539" d="M206.16,42.858a1.979,1.979,0,0,0,1.756-.32" transform="translate(-153.161 -22.552)" fill="none" stroke="#0c2e50" stroke-linecap="round" stroke-linejoin="round" stroke-width="1"/>
            <path id="パス_74540" data-name="パス 74540" d="M212.071,31.5c2.916.419,4.91,3,3.239,7.892a18.384,18.384,0,0,0,.444,7.85,7.437,7.437,0,0,1-3.721-2.955,9.614,9.614,0,0,0-.261,2.553c-3.655-1.032-1.789-7.493-1.789-7.493,1.749-.881,1.051-2.74-.752-2.679,0,0-.08-2.719-2.3-3.477a6.153,6.153,0,0,1,5.141-1.691" transform="translate(-153.361 -19.673)" fill="#0c2e50"/>
            <path id="パス_74541" data-name="パス 74541" d="M212.071,31.5c2.916.419,4.91,3,3.239,7.892a18.384,18.384,0,0,0,.444,7.85,7.437,7.437,0,0,1-3.721-2.955,9.614,9.614,0,0,0-.261,2.553c-3.655-1.032-1.789-7.493-1.789-7.493,1.749-.881,1.051-2.74-.752-2.679,0,0-.08-2.719-2.3-3.477A6.153,6.153,0,0,1,212.071,31.5Z" transform="translate(-153.361 -19.673)" fill="none" stroke="#0c2e50" stroke-linecap="round" stroke-linejoin="round" stroke-width="1"/>
            <path id="パス_74542" data-name="パス 74542" d="M208.9,60.341s-.221,5.2-3.151,5.642" transform="translate(-153.054 -27.168)" fill="none" stroke="#0c2e50" stroke-linecap="round" stroke-linejoin="round" stroke-width="1"/>
            <path id="パス_74543" data-name="パス 74543" d="M203.773,111.1a2.519,2.519,0,1,1-2.519-2.519,2.518,2.518,0,0,1,2.519,2.519" transform="translate(-151.237 -39.675)" fill="#004174"/>
            <circle id="楕円形_59" data-name="楕円形 59" cx="2.519" cy="2.519" r="2.519" transform="translate(47.499 68.909)" fill="none" stroke="#093b68" stroke-linecap="round" stroke-linejoin="round" stroke-width="1"/>
            <path id="パス_74544" data-name="パス 74544" d="M223.288,95.01c-.624-.937-8.2-3.079-11.453-3.964V73.736h-3.022V91.509l-10.048,5.61-.016,3.661s10.132-5.567,12.624-5.132,11.81,2.511,12.033,2.906.678-2.349-.118-3.544" transform="translate(-151.24 -30.64)" fill="#d9effc"/>
            <path id="パス_74545" data-name="パス 74545" d="M223.288,95.01c-.624-.937-8.2-3.079-11.453-3.964V73.736h-3.022V91.509l-10.048,5.61-.016,3.661s10.132-5.567,12.624-5.132,11.81,2.511,12.033,2.906S224.084,96.2,223.288,95.01Z" transform="translate(-151.24 -30.64)" fill="none" stroke="#093b68" stroke-linecap="round" stroke-linejoin="round" stroke-width="1"/>
            <path id="パス_74546" data-name="パス 74546" d="M228.454,107.225a2.519,2.519,0,1,0,2.519,2.519,2.518,2.518,0,0,0-2.519-2.519" transform="translate(-158.288 -39.323)" fill="#004174"/>
            <circle id="楕円形_60" data-name="楕円形 60" cx="2.519" cy="2.519" r="2.519" transform="translate(67.647 67.902)" fill="none" stroke="#093b68" stroke-linecap="round" stroke-linejoin="round" stroke-width="1"/>
            <path id="パス_74547" data-name="パス 74547" d="M203.421,77.361c1.133-.378,5.95-3.589,6.327-8.5s-1.51-24.177,4.156-24.554S225.048,39.4,225.048,39.4s.944-.189,1.295,1.941c1.273,7.742.782,28.28-.729,30.169s-16.244,7.177-19.644,7.177-2.55-1.322-2.55-1.322" transform="translate(-152.427 -21.737)" fill="#a09e9f"/>
            <path id="パス_74548" data-name="パス 74548" d="M203.421,77.361c1.133-.378,5.95-3.589,6.327-8.5s-1.51-24.177,4.156-24.554S225.048,39.4,225.048,39.4s.944-.189,1.295,1.941c1.273,7.742.782,28.28-.729,30.169s-16.244,7.177-19.644,7.177S203.421,77.361,203.421,77.361Z" transform="translate(-152.427 -21.737)" fill="none" stroke="#093b68" stroke-linecap="round" stroke-linejoin="round" stroke-width="1"/>
            <path id="パス_74549" data-name="パス 74549" d="M177.9,36.4c.221-3.316-3.921-6.347-10.039-7.062l-2.593,6.847,5.847,6,.232.023c3.133-.933,5.526-2.582,6.309-4.65A4.005,4.005,0,0,0,177.9,36.4" transform="translate(-142.559 -19.131)" fill="#b13b29"/>
            <path id="パス_74550" data-name="パス 74550" d="M177.9,36.4c.221-3.316-3.921-6.347-10.039-7.062l-2.593,6.847,5.847,6,.232.023c3.133-.933,5.526-2.582,6.309-4.65A4.005,4.005,0,0,0,177.9,36.4" transform="translate(-142.559 -19.131)" fill="none" stroke="#093b68" stroke-linecap="round" stroke-linejoin="round" stroke-width="1"/>
            <path id="パス_74551" data-name="パス 74551" d="M167.8,44.584l-5.795-6-9.313,4.571a16.966,16.966,0,0,0,6.77,2.141,21.939,21.939,0,0,0,8.425-.624Z" transform="translate(-139.3 -21.527)" fill="#fed84c"/>
            <path id="パス_74552" data-name="パス 74552" d="M167.8,44.584l-5.795-6-9.313,4.571a16.966,16.966,0,0,0,6.77,2.141,21.939,21.939,0,0,0,8.425-.624l-.087-.09" transform="translate(-139.3 -21.527)" fill="none" stroke="#093b68" stroke-linecap="round" stroke-linejoin="round" stroke-width="1"/>
            <path id="パス_74553" data-name="パス 74553" d="M153.487,30.465c-2.427.971-4.239,2.414-4.9,4.159-.024.064-.04.127-.061.191l12.4,1.32,2.593-6.847a21.117,21.117,0,0,0-10.032,1.178" transform="translate(-138.22 -19.077)" fill="#d9d9da"/>
            <path id="パス_74554" data-name="パス 74554" d="M153.487,30.465c-2.427.971-4.239,2.414-4.9,4.159-.024.064-.04.127-.061.191l12.4,1.32,2.593-6.847a21.117,21.117,0,0,0-10.032,1.178" transform="translate(-138.22 -19.077)" fill="none" stroke="#093b68" stroke-linecap="round" stroke-linejoin="round" stroke-width="1"/>
            <path id="パス_74555" data-name="パス 74555" d="M148.368,39.278a6.363,6.363,0,0,0,3.181,3.864l9.335-4.557Z" transform="translate(-138.178 -21.527)" fill="#e8a197"/>
            <path id="パス_74556" data-name="パス 74556" d="M148.368,39.278a6.363,6.363,0,0,0,3.181,3.864l9.335-4.557Z" transform="translate(-138.178 -21.527)" fill="none" stroke="#093b68" stroke-linecap="round" stroke-linejoin="round" stroke-width="1"/>
            <path id="パス_74557" data-name="パス 74557" d="M148.457,36.8a3.846,3.846,0,0,0-.117,2.013l12.516-.693Z" transform="translate(-138.15 -21.065)" fill="#9c9f40"/>
            <path id="パス_74558" data-name="パス 74558" d="M148.457,36.8a3.846,3.846,0,0,0-.117,2.013l12.516-.693Z" transform="translate(-138.15 -21.065)" fill="none" stroke="#093b68" stroke-linecap="round" stroke-linejoin="round" stroke-width="1"/>
          </g>
        </g>
      </g>
    </g>
  </g>
</svg>
