<svg height="108" viewBox="0 0 108 108" width="108" xmlns="http://www.w3.org/2000/svg" xmlns:xlink="http://www.w3.org/1999/xlink"><clipPath id="a"><path d="m41.453 12.886h108v108h-108z"/></clipPath><clipPath id="b"><path d="m69.301 47.976h66.155v35.809h-66.155z"/></clipPath><clipPath id="c"><path d="m83.769 39.42h31.469v27.199h-31.469z"/></clipPath><clipPath id="d"><path d="m102.919 47.729h26.968v19.184h-26.968z"/></clipPath><clipPath id="e"><path d="m84.72 40.572h20.329v16.531h-20.329z"/></clipPath><clipPath id="f"><path d="m109.425 54.678h16.279v8.813h-16.279z"/></clipPath><clipPath id="g"><path d="m108.423 60.956a28.35 28.35 0 0 0 -21.71 17.972l-11.937-3.4 10.986 6.438a28.4 28.4 0 1 0 22.661-21.007"/></clipPath><clipPath id="h"><path d="m59.326 94.894h13.974v7.055h-13.974z"/></clipPath><clipPath id="i"><path d="m0 0h108v108h-108z"/></clipPath><g clip-path="url(#i)"><path d="m0 0h108v108h-108z" fill="#fff"/><g transform="translate(-41.453 -12.886)"><path d="m41.453 88.595v32.291h17.152l90.848-52.572v-42.672z" fill="#576b74"/><g clip-path="url(#a)"><path d="m157.031 20.646v43.86l-110.042 63.679-37.4-21.6.745-.434zm-1 43.284v-41.544l-144.45 84.2 35.407 20.444z" fill="#063964"/></g><path d="m134.708 12.886-93.255 52.928v22.507l108-62.7v-12.735z" fill="#d5bc9b"/><g clip-path="url(#a)"><path d="m20.4 101.045a.5.5 0 0 1 -.25-.067l-19.9-11.489a.5.5 0 0 1 0-.868l156.035-88.556a.5.5 0 0 1 .747.435v21.016a.5.5 0 0 1 -.249.432l-136.135 79.029a.5.5 0 0 1 -.248.068zm-18.894-11.985 18.894 10.907 135.632-78.739v-19.869z" fill="#063964"/></g><path d="m41.453 88.595v2.005l108-62.932v-2.026z" fill="#d8d8d9"/><g clip-path="url(#a)"><path d="m156.531 21.016a.5.5 0 0 1 .5.5v2.032a.5.5 0 0 1 -.248.432l-144.219 84.037a.5.5 0 0 1 -.5 0l-1.727-1a.5.5 0 0 1 0-.865l145.942-85.068a.5.5 0 0 1 .252-.068zm-.5 2.245v-.874l-144.45 84.2.729.421z" fill="#063964"/></g><path d="m57.982 120.886h78.567l12.9-7.451v-45.147z" fill="#726356"/><g clip-path="url(#a)"><path d="m156.569 63.62 34.741 26.224-95.224 54.983-40.286-23.263zm32.931 26.112-33.006-24.916-98.694 56.75 38.285 22.107z" fill="#063964"/></g><path d="m54.266 120.886h4.334l90.848-52.572v-2.714z" fill="#bfbdbf"/><g clip-path="url(#a)"><path d="m156.531 60.99a.5.5 0 0 1 .5.5v2.728a.5.5 0 0 1 -.25.433l-109.542 63.39a.5.5 0 0 1 -.5 0l-2.156-1.241a.5.5 0 0 1 0-.865l111.7-64.874a.5.5 0 0 1 .248-.071zm-.5 2.94v-1.572l-110.2 64 1.157.669z" fill="#063964"/><path d="m79.02 134.4a4.848 4.848 0 0 1 2.029-1.875c1.367-.6 3.382.219 3.343 1.709a5.665 5.665 0 0 1 7.161-1.978c-.521-2.308 2.705-4.388 4.592-2.961-.022-1.449.015-3.06 1.015-4.109s3.276-.722 3.346.726a3.507 3.507 0 0 1 5.758.076 4.131 4.131 0 0 1 5.189-.422 2.837 2.837 0 0 1 3.238-2.179 6.412 6.412 0 0 1 5.882-6.979 6.875 6.875 0 0 1 2.156-6.035 1.483 1.483 0 0 1 1.189 1.386c.362-1.883 3.611-2.107 4.228-.292a4.708 4.708 0 0 1 2.224-1.685 1.868 1.868 0 0 1 2.3 1.091 9.907 9.907 0 0 1 2.843-3.974c1.346-.95 3.444-1.052 4.479.23a2.118 2.118 0 0 1 3.18-1.985c-.554-1.672-1-3.527-.34-5.16s2.883-2.7 4.259-1.6a2.223 2.223 0 0 1 4.062-1.67 4.338 4.338 0 0 1 5.7-2.747 5.486 5.486 0 0 1 7.2-4.623c.857-2.49 3.811-3.859 6.407-3.42a9.146 9.146 0 0 1 6.085 4.632c1.323 2.277 8.443 11.4 8.443 11.4l-83.055 47.957z" fill="#346c61"/><path d="m101.926 150.406a.5.5 0 0 1 -.28-.086l-22.906-15.51a.5.5 0 0 1 -.136-.691 5.248 5.248 0 0 1 2.246-2.057 2.99 2.99 0 0 1 1.188-.239 3.163 3.163 0 0 1 2.238.887 2.292 2.292 0 0 1 .329.425 6.322 6.322 0 0 1 4.564-1.947 5.86 5.86 0 0 1 1.843.293 3.164 3.164 0 0 1 .707-1.671 3.944 3.944 0 0 1 2.992-1.489 2.97 2.97 0 0 1 .937.149 5.2 5.2 0 0 1 1.153-3.634 2.663 2.663 0 0 1 1.933-.77 2.365 2.365 0 0 1 1.932.862 4.13 4.13 0 0 1 5.692.314 4.635 4.635 0 0 1 2.78-.9 4.58 4.58 0 0 1 2.033.469 3.393 3.393 0 0 1 2.977-1.974 6.988 6.988 0 0 1 5.874-6.886 7.394 7.394 0 0 1 2.372-5.951.5.5 0 0 1 .421-.121 1.947 1.947 0 0 1 1.164.705 2.913 2.913 0 0 1 2.152-.866 2.7 2.7 0 0 1 2.1.9 4.447 4.447 0 0 1 2.008-1.319 2.556 2.556 0 0 1 .663-.086 2.5 2.5 0 0 1 1.715.643 8.944 8.944 0 0 1 2.609-3.365 4.563 4.563 0 0 1 2.573-.814 3.513 3.513 0 0 1 1.782.452 2.466 2.466 0 0 1 .432-.76 2.881 2.881 0 0 1 2.159-1.05q.115 0 .227.011a7.049 7.049 0 0 1 -.031-4.532 3.886 3.886 0 0 1 3.4-2.362 2.7 2.7 0 0 1 .79.115 2.848 2.848 0 0 1 .289-.912 2.716 2.716 0 0 1 1.369-1.288 2.582 2.582 0 0 1 .987-.191 2.878 2.878 0 0 1 1.773.62 4.973 4.973 0 0 1 4.358-2.621 4.333 4.333 0 0 1 1.084.135 5.577 5.577 0 0 1 1.881-3.2 6.242 6.242 0 0 1 4.033-1.571 5.067 5.067 0 0 1 1.424.2 6.265 6.265 0 0 1 5.712-3.373 6.4 6.4 0 0 1 1.064.088 8.211 8.211 0 0 1 3.747 1.728 11.257 11.257 0 0 1 2.691 3.134c1.291 2.222 8.334 11.249 8.4 11.339a.5.5 0 0 1 -.144.741l-83.055 47.957a.5.5 0 0 1 -.245.069zm-22.2-16.138 22.224 15.048 82.284-47.516c-1.47-1.891-6.958-8.986-8.128-11a10.249 10.249 0 0 0 -2.444-2.865 7.224 7.224 0 0 0 -3.292-1.525 5.394 5.394 0 0 0 -.9-.074 5.842 5.842 0 0 0 -3.038.858 4.427 4.427 0 0 0 -1.916 2.306.5.5 0 0 1 -.662.3 4 4 0 0 0 -1.52-.291 5.229 5.229 0 0 0 -3.375 1.324 4.456 4.456 0 0 0 -1.612 3.148.5.5 0 0 1 -.7.437 3.222 3.222 0 0 0 -1.311-.268 4.036 4.036 0 0 0 -2.314.758 3.492 3.492 0 0 0 -1.386 1.927.5.5 0 0 1 -.911.133 1.794 1.794 0 0 0 -1.52-.816 1.587 1.587 0 0 0 -.607.116 1.8 1.8 0 0 0 -1.021 1.994.5.5 0 0 1 -.8.507 1.572 1.572 0 0 0 -1.009-.341 2.877 2.877 0 0 0 -2.474 1.736c-.6 1.493-.161 3.272.351 4.816a.5.5 0 0 1 -.777.556 1.127 1.127 0 0 0 -.7-.224 1.884 1.884 0 0 0 -1.387.686 1.264 1.264 0 0 0 -.3 1.029.5.5 0 0 1 -.88.41 2.25 2.25 0 0 0 -1.8-.767 3.54 3.54 0 0 0 -2 .631 9.539 9.539 0 0 0 -2.682 3.785.5.5 0 0 1 -.933-.093 1.284 1.284 0 0 0 -1.285-.786 1.556 1.556 0 0 0 -.4.051 4.266 4.266 0 0 0 -1.971 1.524.5.5 0 0 1 -.856-.161 1.54 1.54 0 0 0 -1.541-.908 1.647 1.647 0 0 0 -1.723 1.134.5.5 0 0 1 -.991-.084 1 1 0 0 0 -.558-.833 6.416 6.416 0 0 0 -1.793 5.4.5.5 0 0 1 -.477.575 5.914 5.914 0 0 0 -5.4 6.412.5.5 0 0 1 -.6.557 1.916 1.916 0 0 0 -.389-.039 2.353 2.353 0 0 0 -2.255 1.819.5.5 0 0 1 -.786.314 3.459 3.459 0 0 0 -2.024-.628 3.543 3.543 0 0 0 -2.516 1 .5.5 0 0 1 -.791-.107 2.784 2.784 0 0 0 -2.476-1.288 2.738 2.738 0 0 0 -2.417 1.224.5.5 0 0 1 -.929-.232c-.029-.594-.681-.865-1.275-.865a1.687 1.687 0 0 0 -1.209.46c-.848.89-.9 2.343-.877 3.756a.5.5 0 0 1 -.8.406 1.838 1.838 0 0 0 -1.136-.367 2.964 2.964 0 0 0 -2.211 1.113 2.01 2.01 0 0 0 -.456 1.706.5.5 0 0 1 -.718.554 4.7 4.7 0 0 0 -2.156-.507 5.165 5.165 0 0 0 -4.35 2.3.5.5 0 0 1 -.925-.276 1.088 1.088 0 0 0 -.334-.808 2.178 2.178 0 0 0 -1.521-.585 1.984 1.984 0 0 0 -.788.155 3.9 3.9 0 0 0 -1.529 1.289z" fill="#063964"/><path d="m18.8 58.918a.92.92 0 0 1 .517-.4.911.911 0 0 1 .718-1.27 1.164 1.164 0 0 1 .78-1.356.451.451 0 0 1 .781-.353c-.182-.2.213-.394.658-.522a1.8 1.8 0 0 1 1.186-.777.864.864 0 0 1 .7.1 1.061 1.061 0 0 1 1.325-.565.681.681 0 0 1 1.018-.339.72.72 0 0 1 .819-.66 2.39 2.39 0 0 1 2.49-.412 1.615 1.615 0 0 1 2.162.009 1.757 1.757 0 0 1 2.307-1.112c-.147-.168.094-.4.3-.484l.678-.3c.547-.239 1.235-.462 1.693-.079a.635.635 0 0 1 1.068-.059.877.877 0 0 1 1.419.176.9.9 0 0 1 .822-.855 2.643 2.643 0 0 1 1.268.244.9.9 0 0 1 .972-.476c.388.039.751.21 1.137.265.859.122 1.885-.294 2.518.3a.485.485 0 0 1 .8-.356 1.5 1.5 0 0 1 2.314-.429.883.883 0 0 1 .748-.724 2.589 2.589 0 0 1 1.1.112.8.8 0 0 1 1.29-.165.647.647 0 0 1 .755-.491 1.871 1.871 0 0 1 .871.479.666.666 0 0 1 .667-.573 1.936 1.936 0 0 1 .918.277l.208-.391a1.213 1.213 0 0 0 1.138.021.861.861 0 0 1 .588.485.488.488 0 0 1 .878.079c1.013-.534 2.551 1.017 1.719 1.907a1.988 1.988 0 0 1 -.8.443c-5.1 1.88-10.267 3.778-15.678 4.262a19.569 19.569 0 0 0 -2.488.295 13.546 13.546 0 0 1 -1.562.339c-.537.053-1.079-.017-1.619-.017a19.953 19.953 0 0 0 -3.552.561c-1.04.19-2.094.281-3.147.372a65.2 65.2 0 0 1 -6.608.333 1.144 1.144 0 0 1 .126.264 2.865 2.865 0 0 1 .012 1.267 1.019 1.019 0 0 1 .35.946c-.031.352-.156.69-.19 1.041-.054.564.128 1.139.024 1.7a3.091 3.091 0 0 1 -1.443 1.785 1.246 1.246 0 0 1 .239.793 1.06 1.06 0 0 1 -.665.7 1.494 1.494 0 0 1 -1.3.087.726.726 0 0 1 -.235-1.119c-.078.065-.206 0-.24-.1a.474.474 0 0 1 .025-.3c-.164.037-.293-.175-.247-.336a.741.741 0 0 1 .33-.364.607.607 0 0 1 -.719-.975.786.786 0 0 1 -.966-.813.946.946 0 0 1 -.524-.565c-.042-.126-.056-.259-.094-.386-.1-.349-.359-.769-.1-1.024-.224.013-.353-.291-.261-.495" fill="#419548"/><path d="m22.328 66a1.556 1.556 0 0 1 -.726-.17 1.306 1.306 0 0 1 -.677-1 1.165 1.165 0 0 1 .015-.373.665.665 0 0 1 -.054-.114.756.756 0 0 1 -.04-.178.772.772 0 0 1 -.058-.068.806.806 0 0 1 -.162-.45 1.073 1.073 0 0 1 -.382-.321 1.09 1.09 0 0 1 -.205-.711 1.363 1.363 0 0 1 -.451-.338 1.261 1.261 0 0 1 -.293-.591 1.455 1.455 0 0 1 -.513-.7 2.259 2.259 0 0 1 -.067-.265c-.011-.051-.02-.1-.032-.137-.018-.062-.044-.132-.072-.206a1.838 1.838 0 0 1 -.157-.765q-.019-.025-.037-.052a.9.9 0 0 1 -.07-.845 1.1 1.1 0 0 1 .391-.454 1.467 1.467 0 0 1 .775-1.379 1.714 1.714 0 0 1 .856-1.344.963.963 0 0 1 .505-.563.949.949 0 0 1 .457-.08 1.933 1.933 0 0 1 .614-.308 2.313 2.313 0 0 1 1.4-.841 1.694 1.694 0 0 1 .6-.017 1.607 1.607 0 0 1 1.171-.519q.053 0 .106 0a1.224 1.224 0 0 1 .9-.394h.055a1.234 1.234 0 0 1 .957-.554 2.914 2.914 0 0 1 1.755-.585 2.808 2.808 0 0 1 .813.118 2.115 2.115 0 0 1 1.167-.346 2.15 2.15 0 0 1 .88.187 2.337 2.337 0 0 1 1.9-1.005 2.11 2.11 0 0 1 .261.016 1.25 1.25 0 0 1 .451-.332l.677-.3a3.3 3.3 0 0 1 1.275-.328 1.561 1.561 0 0 1 .52.084 1.17 1.17 0 0 1 .655-.2 1.156 1.156 0 0 1 .518.119 1.37 1.37 0 0 1 .624-.145 1.46 1.46 0 0 1 .594.124 1.583 1.583 0 0 1 .941-.512 1.915 1.915 0 0 1 .272-.019 2.855 2.855 0 0 1 .877.16 1.492 1.492 0 0 1 1.041-.384c.058 0 .115 0 .172.009a3.788 3.788 0 0 1 .695.154 3.462 3.462 0 0 0 .463.113 2.176 2.176 0 0 0 .306.019c.167 0 .341-.012.525-.026s.387-.028.582-.028a2.379 2.379 0 0 1 .835.13 1.062 1.062 0 0 1 .707-.277q.046 0 .091 0a2.047 2.047 0 0 1 1.547-.69 1.959 1.959 0 0 1 .757.148 1.505 1.505 0 0 1 .859-.487 1.974 1.974 0 0 1 .37-.034 3.026 3.026 0 0 1 .624.074 1.354 1.354 0 0 1 1.337-.3 1.244 1.244 0 0 1 .985-.292 1.714 1.714 0 0 1 .639.237 1.3 1.3 0 0 1 .809-.336h.063a1.871 1.871 0 0 1 .654.13.5.5 0 0 1 .676-.178.7.7 0 0 0 .344.087.684.684 0 0 0 .316-.075.5.5 0 0 1 .342-.045 1.35 1.35 0 0 1 .565.283 1.046 1.046 0 0 1 .324-.05 1.025 1.025 0 0 1 .661.232 1.522 1.522 0 0 1 .258-.022 2.183 2.183 0 0 1 1.866 1.309 1.393 1.393 0 0 1 -.234 1.568 2.42 2.42 0 0 1 -.989.571c-5.062 1.867-10.3 3.8-15.806 4.291l-.485.041a14.382 14.382 0 0 0 -1.94.245c-.158.035-.316.076-.483.118a7.547 7.547 0 0 1 -1.137.23c-.152.015-.313.022-.493.022-.207 0-.412-.01-.611-.019s-.381-.018-.565-.018a11.987 11.987 0 0 0 -2.484.351c-.319.068-.648.138-.976.2-1.062.194-2.145.288-3.191.378-2.024.175-4 .332-5.968.339a3.537 3.537 0 0 1 -.019.84 1.611 1.611 0 0 1 .319 1.177 4.343 4.343 0 0 1 -.106.6 3.666 3.666 0 0 0 -.084.448 3.711 3.711 0 0 0 .023.675 3.753 3.753 0 0 1 -.006 1.064 3.185 3.185 0 0 1 -1.3 1.846 1.34 1.34 0 0 1 .1.724 1.472 1.472 0 0 1 -.946 1.066 2.431 2.431 0 0 1 -1.018.243zm-.445-2.144a.5.5 0 0 1 .041.79.171.171 0 0 0 0 .107.311.311 0 0 0 .136.189.561.561 0 0 0 .265.058 1.437 1.437 0 0 0 .59-.154c.217-.1.368-.23.384-.327a1.006 1.006 0 0 0 -.18-.462.5.5 0 0 1 .147-.658 2.709 2.709 0 0 0 1.238-1.468 2.966 2.966 0 0 0 -.007-.787 3.516 3.516 0 0 1 .081-1.439 3.54 3.54 0 0 0 .085-.462.568.568 0 0 0 -.133-.488.5.5 0 0 1 -.215-.483 2.492 2.492 0 0 0 .007-1.045.653.653 0 0 0 -.072-.149.5.5 0 0 1 .43-.768h.547c1.968 0 3.966-.159 6.011-.335 1.026-.089 2.084-.18 3.1-.366.314-.057.636-.126.948-.192a12.92 12.92 0 0 1 2.694-.377c.208 0 .413.01.612.019s.38.018.564.018c.147 0 .276-.006.394-.017a6.693 6.693 0 0 0 .987-.2c.167-.043.341-.088.516-.126a15.355 15.355 0 0 1 2.074-.265l.477-.04c5.377-.481 10.548-2.388 15.549-4.233a1.622 1.622 0 0 0 .6-.316.4.4 0 0 0 .047-.487 1.182 1.182 0 0 0 -.949-.688.458.458 0 0 0 -.219.052.5.5 0 0 1 -.693-.247.5.5 0 0 1 -.876-.073.358.358 0 0 0 -.124-.146 1.744 1.744 0 0 1 -.906.056v.009a.5.5 0 0 1 -.664.213 1.685 1.685 0 0 0 -.653-.226h-.016a.262.262 0 0 0 -.189.09.5.5 0 0 1 -.816.371 1.545 1.545 0 0 0 -.625-.371h-.027a.251.251 0 0 0 -.161.056.5.5 0 0 1 -.892.249.237.237 0 0 0 -.18-.066.284.284 0 0 0 -.256.122.5.5 0 0 1 -.581.287 3.1 3.1 0 0 0 -.709-.122.957.957 0 0 0 -.181.016c-.171.033-.335.162-.343.269a.5.5 0 0 1 -.853.316.845.845 0 0 0 -.608-.228.975.975 0 0 0 -.894.506.5.5 0 0 1 -.754.2.5.5 0 0 1 -.84.319.953.953 0 0 0 -.693-.193c-.16 0-.33.012-.511.025s-.394.028-.6.028a3.158 3.158 0 0 1 -.446-.029 4.263 4.263 0 0 1 -.6-.143 3 3 0 0 0 -.515-.119c-.023 0-.048 0-.072 0-.2 0-.353.077-.378.148a.5.5 0 0 1 -.645.3 2.811 2.811 0 0 0 -.894-.227.91.91 0 0 0 -.129.009c-.2.029-.4.194-.394.326a.5.5 0 0 1 -.956.236.358.358 0 0 0 -.327-.163.3.3 0 0 0 -.24.093.5.5 0 0 1 -.823-.049.152.152 0 0 0 -.078-.017.158.158 0 0 0 -.1.031.5.5 0 0 1 -.774.172.429.429 0 0 0 -.3-.09 2.459 2.459 0 0 0 -.874.244l-.677.3a.5.5 0 0 1 -.7.484 1.011 1.011 0 0 0 -.411-.083 1.269 1.269 0 0 0 -1.21.865.5.5 0 0 1 -.832.232 1.117 1.117 0 0 0 -1.468-.006.5.5 0 0 1 -.544.1 1.8 1.8 0 0 0 -.706-.142 1.88 1.88 0 0 0 -1.25.465.5.5 0 0 1 -.43.12h-.018a.234.234 0 0 0 -.207.183.5.5 0 0 1 -.8.385.1.1 0 0 0 -.058-.014.2.2 0 0 0 -.175.091.5.5 0 0 1 -.666.329.439.439 0 0 0 -.163-.03.569.569 0 0 0 -.514.318.5.5 0 0 1 -.774.2.235.235 0 0 0 -.124-.023.922.922 0 0 0 -.171.018 1.3 1.3 0 0 0 -.856.551.5.5 0 0 1 -.286.216 2.476 2.476 0 0 0 -.3.1.5.5 0 0 1 -.78.348.5.5 0 0 1 -.361.423.667.667 0 0 0 -.432.751.5.5 0 0 1 -.457.623.419.419 0 0 0 -.3.537.5.5 0 0 1 -.245.694c-.053.022-.095.042-.128.06a.5.5 0 0 1 .064.695 2.063 2.063 0 0 0 .1.3c.033.088.066.178.094.272.023.076.038.151.052.217a1.467 1.467 0 0 0 .036.151.444.444 0 0 0 .243.262.5.5 0 0 1 .3.528.22.22 0 0 0 .065.161.281.281 0 0 0 .255.109.5.5 0 0 1 .471.861.138.138 0 0 0 -.018.144.131.131 0 0 0 .1.038.093.093 0 0 0 .047-.01.5.5 0 0 1 .583.811.5.5 0 0 1 .092.284z" fill="#063964"/><path d="m29.745 71.791 38.217-7.43v-9.042l-38.217 7.43z" fill="#81362c"/><path d="m29.745 72.291a.5.5 0 0 1 -.5-.5v-9.042a.5.5 0 0 1 .4-.491l38.217-7.43a.5.5 0 0 1 .6.491v9.042a.5.5 0 0 1 -.4.491l-38.222 7.43a.5.5 0 0 1 -.095.009zm.5-9.13v8.023l37.217-7.236v-8.023z" fill="#063964"/><path d="m60.607 49.343 7.355 5.975-38.217 7.43-7.355-5.975z" fill="#cb5d46"/><path d="m60.607 48.843a.5.5 0 0 1 .315.112l7.355 5.975a.5.5 0 0 1 -.22.879l-38.217 7.43a.5.5 0 0 1 -.411-.1l-7.355-5.975a.5.5 0 0 1 .22-.879l38.217-7.43a.5.5 0 0 1 .096-.012zm6.209 6.188-6.343-5.153-36.938 7.182 6.343 5.153z" fill="#063964"/><path d="m130.456 34.483-30.522 11.305.766-8.6 30.522-11.305z" fill="#81362c"/><path d="m131.222 25.381a.5.5 0 0 1 .5.544l-.766 8.6a.5.5 0 0 1 -.324.425l-30.525 11.307a.5.5 0 0 1 -.672-.513l.766-8.6a.5.5 0 0 1 .324-.425l30.522-11.305a.5.5 0 0 1 .175-.033zm-1.236 8.743.668-7.5-29.484 10.921-.668 7.5z" fill="#063964"/><path d="m99.934 45.789-6.4-5.737.767-8.6 6.4 5.737z" fill="#cb5d46"/><path d="m99.934 46.289a.5.5 0 0 1 -.334-.128l-6.4-5.737a.5.5 0 0 1 -.164-.417l.767-8.6a.5.5 0 0 1 .832-.328l6.4 5.737a.5.5 0 0 1 .164.417l-.766 8.6a.5.5 0 0 1 -.5.456zm-5.879-6.442 5.469 4.9.655-7.358-5.468-4.9z" fill="#063964"/><path d="m95.879 27.406a2.865 2.865 0 0 1 1.048-.211c.395.019.819.193 1.168.018.279-.14.438-.473.716-.612.478-.238 1.073.185 1.6.087a4.941 4.941 0 0 0 .845-.4.625.625 0 0 1 .828.276 3.27 3.27 0 0 1 .416-1.364.922.922 0 0 1 1.176-.367 2.9 2.9 0 0 1 3.883-1.047 1.435 1.435 0 0 1 1.117-.417l2.272-.155a1.424 1.424 0 0 1 1.673-1.062.785.785 0 0 1 1.32-.408c.418-1.031 1.8-.822 2.788-1.18.786-.285 1.631-1 2.354-.465-.027-.766.852-1.048 1.545-1.115a2.351 2.351 0 0 1 1.94.406 3.369 3.369 0 0 1 .756-1.3 1.05 1.05 0 0 1 1.348-.115 1.307 1.307 0 0 1 2.185.1h2.079a2.612 2.612 0 0 1 1.7.41c.6.487.829 1.439 1.492 1.816.181.1.379.153.558.261a2.338 2.338 0 0 1 .638.7 2.994 2.994 0 0 1 .617 1.318c.053.486-.238 1.025-.684 1.007.494.663-.207 1.769-.929 1.466.173.444-.169.88-.508 1.143a5.493 5.493 0 0 1 -2.786 1.118 1.509 1.509 0 0 1 -1.989.826 6.9 6.9 0 0 1 -5.268 1.949 1.782 1.782 0 0 1 -1.918.588c-.11.613-.75.862-1.3 1.014l-2.261.623c-.861.965-2.241 1.1-3.509 1.181a1.613 1.613 0 0 1 -.811-.088 1.242 1.242 0 0 1 -1.432.69 27.956 27.956 0 0 1 -4.96 2.369c-.719.259-1.447.489-2.174.718l-.762.24c-.49.155-.979.31-1.479.432a8.356 8.356 0 0 1 -2.954.227 1.624 1.624 0 0 1 -.648-.185 6.735 6.735 0 0 1 -.551-.454 9.191 9.191 0 0 0 -.991-.5 1.038 1.038 0 0 1 -.582-.924 2.876 2.876 0 0 1 -2.811-2.263c-.1-.438.148-1.076.514-.858a2.463 2.463 0 0 1 -.488-.999c-.053-.373.136-.8.473-.832a1.472 1.472 0 0 1 -.026-1.648c.322-.434.929-.513 1.284-.856.535-.517.715-.895 1.488-1.154" fill="#419548"/><g fill="#063964"><path d="m125.686 16.936a1.889 1.889 0 0 1 1.423.642h1.827a3.1 3.1 0 0 1 2.016.521 3.655 3.655 0 0 1 .78.986 2.233 2.233 0 0 0 .646.785 1.914 1.914 0 0 0 .21.1 2.531 2.531 0 0 1 .36.172 2.774 2.774 0 0 1 .791.844 3.425 3.425 0 0 1 .7 1.549 1.574 1.574 0 0 1 -.364 1.191 1.188 1.188 0 0 1 -.17.157 1.537 1.537 0 0 1 -.153.933 1.413 1.413 0 0 1 -.907.765 1.859 1.859 0 0 1 -.717 1.018 5.988 5.988 0 0 1 -2.764 1.185 2.031 2.031 0 0 1 -1.735.987 1.932 1.932 0 0 1 -.458-.055 7.452 7.452 0 0 1 -4.939 1.9c-.08 0-.161 0-.241 0a2.3 2.3 0 0 1 -1.6.657q-.107 0-.213-.01a2.422 2.422 0 0 1 -1.481.926l-.721.2-1.405.387a5.607 5.607 0 0 1 -3.749 1.224c-.1.007-.207.013-.317.013a2.13 2.13 0 0 1 -.3-.02 1.745 1.745 0 0 1 -1.353.65 1.669 1.669 0 0 1 -.209-.013 28.524 28.524 0 0 1 -4.884 2.312c-.744.268-1.514.511-2.194.725l-.774.244c-.485.153-.987.312-1.5.437a9.584 9.584 0 0 1 -2.252.289 7.507 7.507 0 0 1 -.879-.051 2.093 2.093 0 0 1 -.844-.251 2.489 2.489 0 0 1 -.412-.325c-.065-.06-.127-.116-.185-.16a2.369 2.369 0 0 0 -.473-.243 4.324 4.324 0 0 1 -.466-.223 1.76 1.76 0 0 1 -.762-.863 3.448 3.448 0 0 1 -2.87-2.647 1.512 1.512 0 0 1 .246-1.2l.009-.012a2.114 2.114 0 0 1 -.237-.691 1.375 1.375 0 0 1 .257-1.024q.028-.036.059-.069a1.947 1.947 0 0 1 .224-1.755 2.284 2.284 0 0 1 .9-.657 1.824 1.824 0 0 0 .44-.262c.12-.116.223-.227.322-.333a2.917 2.917 0 0 1 1.355-.935 3.35 3.35 0 0 1 1.232-.236 3.659 3.659 0 0 1 .428.053 2.341 2.341 0 0 0 .351.042.32.32 0 0 0 .141-.024 1.053 1.053 0 0 0 .216-.2 1.767 1.767 0 0 1 .5-.413 1.249 1.249 0 0 1 .563-.127 2.806 2.806 0 0 1 .652.1 2.08 2.08 0 0 0 .437.075.438.438 0 0 0 .079-.007 1.276 1.276 0 0 0 .347-.165 2.892 2.892 0 0 1 .406-.21 1.321 1.321 0 0 1 .659-.074 2.573 2.573 0 0 1 .358-.826 1.531 1.531 0 0 1 1.224-.679 1.264 1.264 0 0 1 .154.009 3.408 3.408 0 0 1 4-1.059 2.31 2.31 0 0 1 1.172-.318l.243-.017 1.706-.117a1.945 1.945 0 0 1 1.707-1.121 1.292 1.292 0 0 1 1.1-.6 1.273 1.273 0 0 1 .371.054 3.02 3.02 0 0 1 1.881-.777 5.188 5.188 0 0 0 .9-.2 5.772 5.772 0 0 0 .554-.25 3.211 3.211 0 0 1 1.387-.44 1.513 1.513 0 0 1 .242.019 2.223 2.223 0 0 1 1.839-.937c.194-.019.425-.038.661-.038a2.755 2.755 0 0 1 1.1.2 2.845 2.845 0 0 1 .651-.93 1.688 1.688 0 0 1 1.114-.439 1.43 1.43 0 0 1 .444.069 1.7 1.7 0 0 1 1.144-.417zm7.593 6.156c.014 0 .036-.019.053-.037a.58.58 0 0 0 .114-.416 2.63 2.63 0 0 0 -.532-1.089 2.014 2.014 0 0 0 -.487-.557 1.7 1.7 0 0 0 -.22-.1 2.735 2.735 0 0 1 -.324-.151 3.009 3.009 0 0 1 -1-1.129 2.894 2.894 0 0 0 -.556-.732 2.192 2.192 0 0 0 -1.389-.3h-2.359l-.146-.24a.872.872 0 0 0 -.744-.4.664.664 0 0 0 -.583.3l-.293.5-.451-.363a.4.4 0 0 0 -.255-.086.688.688 0 0 0 -.445.182 3 3 0 0 0 -.627 1.114l-.276.693-.536-.519a1.32 1.32 0 0 0 -.979-.3c-.194 0-.394.017-.565.033s-1.11.131-1.093.6l.037 1.04-.835-.621a.451.451 0 0 0 -.286-.1 2.568 2.568 0 0 0 -.945.337 6.583 6.583 0 0 1 -.654.293 5.988 5.988 0 0 1 -1.085.248c-.761.124-1.237.222-1.41.65l-.291.717-.534-.559a.236.236 0 0 0 -.178-.072.28.28 0 0 0 -.287.211l-.084.538-.529-.129a.77.77 0 0 0 -.183-.022.952.952 0 0 0 -.887.72l-.089.353-.363.024-2.028.138-.243.017c-.314.021-.63.056-.751.218l-.262.35-.382-.212a2.4 2.4 0 0 0 -3.207.86l-.248.43-.432-.245a.231.231 0 0 0 -.117-.031.545.545 0 0 0 -.4.247 2.914 2.914 0 0 0 -.334 1.15l-.3 1.9-.661-1.793a.21.21 0 0 0 -.078-.013.293.293 0 0 0 -.1.018 2.087 2.087 0 0 0 -.264.141 2.038 2.038 0 0 1 -.671.287 1.441 1.441 0 0 1 -.264.024 2.867 2.867 0 0 1 -.67-.1 2.034 2.034 0 0 0 -.419-.073.247.247 0 0 0 -.116.021 1.052 1.052 0 0 0 -.214.2 1.775 1.775 0 0 1 -.5.414 1.284 1.284 0 0 1 -.589.13 3.142 3.142 0 0 1 -.514-.055 2.884 2.884 0 0 0 -.313-.041h-.052a2.692 2.692 0 0 0 -.812.187 1.963 1.963 0 0 0 -.941.668c-.1.111-.22.237-.36.372a2.6 2.6 0 0 1 -.7.441 1.442 1.442 0 0 0 -.533.353.981.981 0 0 0 .032 1.06l.5.7-.828.086a.393.393 0 0 0 -.054.267 2.108 2.108 0 0 0 .4.792l1.314 1.895-1.755-1.045a.527.527 0 0 0 0 .183 2.406 2.406 0 0 0 2.153 1.88c.043 0 .086 0 .128-.005l.611-.052-.072.609c-.014.123.136.317.337.433a3.519 3.519 0 0 0 .36.169 3.2 3.2 0 0 1 .678.362c.1.074.186.154.262.224a1.7 1.7 0 0 0 .246.2 1.167 1.167 0 0 0 .453.119 6.5 6.5 0 0 0 .76.044 8.586 8.586 0 0 0 2.016-.26c.479-.117.943-.264 1.434-.419l.775-.244c.67-.211 1.43-.451 2.155-.712a27.52 27.52 0 0 0 4.871-2.326l.183-.111.206.056a.661.661 0 0 0 .172.023.756.756 0 0 0 .674-.438l.211-.46.458.216a.724.724 0 0 0 .313.052c.079 0 .164-.005.251-.011 1.266-.082 2.461-.221 3.169-1.015l.1-.11.142-.039 1.541-.425.72-.2c.6-.167.895-.358.942-.62l.1-.557.541.168a1.283 1.283 0 0 0 1.377-.421l.163-.206.262.018c.139.009.28.014.42.014a6.439 6.439 0 0 0 4.465-1.822l.243-.238.31.139a.922.922 0 0 0 .379.08 1.017 1.017 0 0 0 .942-.633l.112-.282.3-.031a4.983 4.983 0 0 0 2.532-1.016c.21-.163.409-.41.348-.566l-.428-1.1 1.088.456a.144.144 0 0 0 .056.013.4.4 0 0 0 .28-.245.463.463 0 0 0 0-.473l-.626-.841 1.047.042z"/><path d="m97.311 30.419a.5.5 0 0 1 -.446-.725 1.353 1.353 0 0 1 1.028-.717 1.413 1.413 0 0 1 .755.1 1.688 1.688 0 0 1 1.774-.192 2.1 2.1 0 0 1 2.047-.212.5.5 0 1 1 -.405.914 1.1 1.1 0 0 0 -1.23.262.5.5 0 0 1 -.714.029.633.633 0 0 0 -.522-.155.606.606 0 0 0 -.445.27.5.5 0 0 1 -.792.077.372.372 0 0 0 -.328-.1.355.355 0 0 0 -.274.177.5.5 0 0 1 -.448.272z"/><path d="m108.764 26.917a.5.5 0 0 1 -.482-.634 1.5 1.5 0 0 1 1.5-1.075 1.621 1.621 0 0 1 1.247-.7 2.584 2.584 0 0 1 1.186.249 1.814 1.814 0 0 1 1.8-.376.5.5 0 0 1 -.332.943.817.817 0 0 0 -.929.324.5.5 0 0 1 -.651.168 2.1 2.1 0 0 0 -1.015-.31.579.579 0 0 0 -.535.384.5.5 0 0 1 -.7.344.415.415 0 0 0 -.347.014.482.482 0 0 0 -.266.3.5.5 0 0 1 -.476.369z"/><path d="m116.765 26.011a.5.5 0 0 1 -.5-.567 1.369 1.369 0 0 1 .814-1.034 2.818 2.818 0 0 1 1-.2l.668-.043.669-.043a.5.5 0 0 1 .065 1l-.67.043-.668.043a2 2 0 0 0 -.654.111.386.386 0 0 0 -.234.256.5.5 0 0 1 -.49.434z"/><path d="m118.33 22.657a.5.5 0 0 1 -.31-.892 1.931 1.931 0 0 1 2.059-.2.5.5 0 0 1 -.449.893.94.94 0 0 0 -.989.095.5.5 0 0 1 -.311.104z"/><path d="m121.559 22.13a.5.5 0 0 1 -.369-.837 2.066 2.066 0 0 1 1.55-.679.5.5 0 1 1 -.014 1 1.079 1.079 0 0 0 -.8.353.5.5 0 0 1 -.367.163z"/><path d="m125.567 21.023a.5.5 0 0 1 -.251-.933 2.925 2.925 0 0 1 2.464-.2.5.5 0 0 1 -.35.937 1.915 1.915 0 0 0 -1.614.129.5.5 0 0 1 -.249.067z"/><path d="m123.136 24.912a.5.5 0 0 1 -.469-.672 1.281 1.281 0 0 1 .815-.774 1.3 1.3 0 0 1 .622-.049 1.312 1.312 0 0 1 .7-.362 1.272 1.272 0 0 1 1.195.4.5.5 0 0 1 -.75.661.293.293 0 0 0 -.267-.075.287.287 0 0 0 -.219.159.5.5 0 0 1 -.743.238.266.266 0 0 0 -.228-.019.292.292 0 0 0 -.187.168.5.5 0 0 1 -.469.325z"/><path d="m99.791 35.779a1.285 1.285 0 0 1 -.19-.014 2.625 2.625 0 0 1 -1.406-.857.5.5 0 0 1 .7-.709 1.834 1.834 0 0 0 .849.577.368.368 0 0 0 .28-.09.2.2 0 0 0 .049-.064.727.727 0 0 1 .03-.222.5.5 0 0 1 .968.033h.032a2.225 2.225 0 0 0 .738-.018.442.442 0 0 0 .312-.26.5.5 0 0 1 .917-.112.142.142 0 0 0 .13.043.589.589 0 0 0 .312-.213l.028-.032a1.016 1.016 0 0 1 .406-.318 1 1 0 0 1 .409-.057h.061a.133.133 0 0 0 .062-.053.2.2 0 0 0 .039-.153.5.5 0 0 1 .973-.232 1.2 1.2 0 0 1 -.211.985 1.089 1.089 0 0 1 -.805.452c-.055 0-.1 0-.143 0h-.008l-.021.025-.034.039a1.535 1.535 0 0 1 -.914.545 1.161 1.161 0 0 1 -.594-.064 1.535 1.535 0 0 1 -.645.366 3.037 3.037 0 0 1 -1.088.052 1.324 1.324 0 0 1 -.281-.054l-.047.045a1.366 1.366 0 0 1 -.908.36z"/><path d="m109.052 31.873a2.862 2.862 0 0 1 -.422-.039.5.5 0 0 1 .145-.989 1.225 1.225 0 0 0 .379.018.5.5 0 0 1 .83-.546.868.868 0 0 1 .175.721 1 1 0 0 1 -.492.69 1.248 1.248 0 0 1 -.615.145z"/><path d="m106.728 27.918a.5.5 0 0 1 -.472-.666 1.28 1.28 0 0 1 .8-.784 1.251 1.251 0 0 1 1.09.12.5.5 0 1 1 -.542.841.262.262 0 0 0 -.224-.015.291.291 0 0 0 -.184.169.5.5 0 0 1 -.468.335z"/></g><g clip-path="url(#b)" opacity=".3"><path d="m88.02 83.615 45.787-13.745c3.934-2.623-.208-6.322-1.748-7.65l-14.371-13.6a2.635 2.635 0 0 0 -2.711-.445l-43.808 17.8c-1.572.476-2.545 3-1.3 4.072l14.431 12.779a3.944 3.944 0 0 0 3.722.789" fill="#190e0e"/></g><path d="m105.389 73.634-5.51 1.611-3.01-3.784.666-3.151 5.949.179z" fill="#0c2e51"/><path d="m92.859 72.018a4.607 4.607 0 0 0 1.152 6.19 4.125 4.125 0 0 0 5.82-1.52 4.607 4.607 0 0 0 -1.152-6.19 4.126 4.126 0 0 0 -5.82 1.52" fill="#0e2f54"/><path d="m96.539 69.346a4.332 4.332 0 0 1 2.418.737 5.117 5.117 0 0 1 1.3 6.864 4.82 4.82 0 0 1 -4.108 2.414 4.332 4.332 0 0 1 -2.418-.737 5.117 5.117 0 0 1 -1.3-6.864 4.82 4.82 0 0 1 4.108-2.414zm-.388 9.015a3.829 3.829 0 0 0 3.249-1.932 4.109 4.109 0 0 0 -1-5.516 3.336 3.336 0 0 0 -1.861-.568 3.829 3.829 0 0 0 -3.253 1.931 4.109 4.109 0 0 0 1 5.516 3.335 3.335 0 0 0 1.865.569z" fill="#063964"/><path d="m94.9 73.343a2.442 2.442 0 0 0 .564 3.286 2.188 2.188 0 0 0 3.07-.851 2.442 2.442 0 0 0 -.564-3.286 2.188 2.188 0 0 0 -3.07.851" fill="#60a9bb"/><path d="m96.882 71.66a2.459 2.459 0 0 1 1.371.416 2.949 2.949 0 0 1 .714 3.961 2.867 2.867 0 0 1 -2.4 1.424 2.456 2.456 0 0 1 -1.371-.416 2.948 2.948 0 0 1 -.714-3.961 2.864 2.864 0 0 1 2.4-1.424zm-.32 4.8a1.863 1.863 0 0 0 1.55-.942 1.942 1.942 0 0 0 -.414-2.611 1.462 1.462 0 0 0 -.815-.247 1.861 1.861 0 0 0 -1.549.942 1.941 1.941 0 0 0 .414 2.612 1.46 1.46 0 0 0 .814.247z" fill="#4b4c70"/><path d="m130.48 64.805-5.51 1.611-3.01-3.784.666-3.151 5.949.179z" fill="#0c2e51"/><path d="m90.263 48.793s.2-1.1-1.913-.534-3.336 5.153-3.336 5.153l1.7.168 2.643-2.534z" fill="#a0d2da"/><path d="m89.379 47.6a1.415 1.415 0 0 1 1.144.44 1.067 1.067 0 0 1 .232.845.5.5 0 0 1 -.028.1l-.9 2.253a.5.5 0 0 1 -.118.175l-2.643 2.534a.5.5 0 0 1 -.4.137l-1.7-.168a.5.5 0 0 1 -.434-.627 16.413 16.413 0 0 1 .907-2.446c.822-1.754 1.758-2.784 2.782-3.061a4.564 4.564 0 0 1 1.158-.182zm.385 1.1a.044.044 0 0 0 -.009-.017.59.59 0 0 0 -.376-.081 3.6 3.6 0 0 0 -.9.146c-1.3.352-2.35 2.807-2.814 4.232l.87.086 2.4-2.3z" fill="#063964"/><path d="m122.012 65.467c-1.279 2.519-1.132 4.95.329 5.431s3.681-1.172 4.96-3.69 1.132-4.951-.329-5.431-3.681 1.171-4.96 3.69" fill="#0e2f54"/><path d="m126.432 61.194a2.222 2.222 0 0 1 .7.108 2.1 2.1 0 0 1 1.288 1.251 6.205 6.205 0 0 1 -.669 4.881c-1.21 2.383-3.211 4.047-4.866 4.047a2.223 2.223 0 0 1 -.7-.108 2.1 2.1 0 0 1 -1.288-1.252 6.206 6.206 0 0 1 .67-4.88c1.209-2.383 3.21-4.047 4.865-4.047zm-3.551 9.287c1.252 0 2.961-1.5 3.974-3.5a5.408 5.408 0 0 0 .637-4.047 1.113 1.113 0 0 0 -.676-.683 1.226 1.226 0 0 0 -.384-.058c-1.253 0-2.961 1.5-3.974 3.5a5.409 5.409 0 0 0 -.637 4.046 1.114 1.114 0 0 0 .677.684 1.226 1.226 0 0 0 .383.058z" fill="#063964"/><path d="m128.112 65.837c4.634-1.566 7.363-5.881 8.457-10.827 1.4-6.308-3.891-12.7-6.753-15.195s-3.1-3.118-8.346-4.657c-3.943-1.158-8.236.078-19.1 4.762 1.035 1.92 2.907 4.717 4.515 5.8.295.2-20.465 5.854-20.843 5.956-1.838.5-6.824 5.767-8.381 7.054-3.19 2.636-5.473 7.954-4.475 9.843 2.331 4.414 7.161 9.527 12.379 9.1a60.036 60.036 0 0 0 8.117-.98c4.446-7.179 10.545-7.811 7.557-1.567 11.019-3.07 14.512-4.043 20.469-6.574 1.825-6.914 9.741-9.912 6.4-2.711" fill="#a0d2da"/><path d="m84.95 78.194a11.336 11.336 0 0 1 -7.236-3.094 22.046 22.046 0 0 1 -4.971-6.3c-.555-1.051-.318-2.9.652-5.078a15.173 15.173 0 0 1 3.946-5.383c.431-.356 1.155-1.048 1.993-1.849 2.812-2.689 5.248-4.943 6.576-5.3 2.971-.8 16.6-4.543 19.979-5.623a22.057 22.057 0 0 1 -3.961-5.408.5.5 0 0 1 .242-.7c4.594-1.981 7.592-3.163 10.023-3.953a21.146 21.146 0 0 1 6.421-1.256 10.478 10.478 0 0 1 3 .427c4.739 1.391 5.526 2.091 7.629 3.962.268.238.572.508.9.8a24.834 24.834 0 0 1 5.081 6.3 16.9 16.9 0 0 1 1.767 4.477 11.187 11.187 0 0 1 .065 4.9 18 18 0 0 1 -2.987 6.87 11.86 11.86 0 0 1 -5.8 4.323.5.5 0 0 1 -.614-.684c1.049-2.265.75-3.036.633-3.219a.514.514 0 0 0 -.494-.219 5.036 5.036 0 0 0 -2.932 1.731 10.893 10.893 0 0 0 -2.675 4.756.5.5 0 0 1 -.288.333c-5.986 2.543-9.649 3.564-20.523 6.594h-.007a.5.5 0 0 1 -.585-.7c.71-1.484.929-2.7.585-3.243a.747.747 0 0 0 -.725-.325 5.34 5.34 0 0 0 -2.9 1.361 16.619 16.619 0 0 0 -3.643 4.253.5.5 0 0 1 -.338.229 54.946 54.946 0 0 1 -6.917.893c-.391.027-.8.056-1.247.093-.21.023-.431.032-.649.032zm18.124-38.033a17.133 17.133 0 0 0 4.089 5.139.508.508 0 0 1 .218.5c-.052.312-.32.412-.557.5-.158.058-.379.133-.678.228-.539.172-1.326.409-2.342.706-1.711.5-4.093 1.176-7.082 2.01-5.01 1.4-10.215 2.817-10.55 2.907-1.19.321-4.292 3.287-6.146 5.059-.852.815-1.588 1.518-2.047 1.9a14.351 14.351 0 0 0 -3.67 5.02c-.807 1.81-1.074 3.461-.682 4.2a21.327 21.327 0 0 0 4.739 6.007 10.367 10.367 0 0 0 6.585 2.852c.191 0 .384-.008.573-.023.457-.037.864-.066 1.258-.094a53.23 53.23 0 0 0 6.594-.842 17.45 17.45 0 0 1 3.753-4.32 6.186 6.186 0 0 1 3.519-1.578 1.772 1.772 0 0 1 1.571.792c.452.718.411 1.823-.111 3.231 10.2-2.842 13.572-3.807 19.183-6.179a11.908 11.908 0 0 1 2.86-4.96 5.806 5.806 0 0 1 3.648-2.033 1.519 1.519 0 0 1 1.337.68c.42.657.382 1.685-.109 3.064a11.07 11.07 0 0 0 4.24-3.54 17.252 17.252 0 0 0 2.815-6.492 10.2 10.2 0 0 0 -.064-4.467 15.907 15.907 0 0 0 -1.665-4.211 23.773 23.773 0 0 0 -4.864-6.032c-.337-.293-.642-.565-.912-.8-2.037-1.811-2.723-2.422-7.247-3.75a9.492 9.492 0 0 0 -2.714-.386c-3.047.003-7.002 1.251-15.542 4.912z" fill="#063964"/><path d="m103.419 66.413a76.562 76.562 0 0 1 13.74-16.607 30.46 30.46 0 0 0 7.432-1.577c4.57 1.386 6.283 6.342 3.335 9.163-1.174 1.123-7.575 6.686-24.507 9.021" fill="#fff"/><path d="m103.419 67.044a.631.631 0 0 1 -.537-.962 77.274 77.274 0 0 1 13.845-16.736.631.631 0 0 1 .417-.171 30.066 30.066 0 0 0 7.224-1.536.631.631 0 0 1 .406-.014 7.258 7.258 0 0 1 5.086 5.068 5.274 5.274 0 0 1 -1.5 5.154c-1.651 1.58-8.324 6.91-24.857 9.19a.632.632 0 0 1 -.084.007zm14-16.617a76.088 76.088 0 0 0 -12.742 15.166 60.809 60.809 0 0 0 16.634-4.715 23.588 23.588 0 0 0 6.177-3.941 4.04 4.04 0 0 0 1.143-3.949 5.957 5.957 0 0 0 -4.028-4.091 32.477 32.477 0 0 1 -7.183 1.53z" fill="#063964"/><path d="m131.813 45.582c-1.876-5.446-6.016-8.731-12.531-10.787a51.611 51.611 0 0 1 7.113 2.553 22.238 22.238 0 0 1 9.539 11.1c-.518-.531-.5-2.16-4.121-2.861" fill="#175f95"/><path d="m135.934 48.943a.5.5 0 0 1 -.358-.151 2.443 2.443 0 0 1 -.382-.583c-.344-.649-.863-1.629-3.476-2.136a.5.5 0 0 1 -.378-.328 14.272 14.272 0 0 0 -4.376-6.446 22.332 22.332 0 0 0 -7.819-4.023h-.014a.5.5 0 0 1 .3-.954c.312.1.636.2.98.3a45.554 45.554 0 0 1 6.189 2.274l.045.023a22.823 22.823 0 0 1 6.365 5.481 21.232 21.232 0 0 1 3.39 5.87.5.5 0 0 1 -.469.673zm-3.744-3.794a8.238 8.238 0 0 1 1.932.648 21.992 21.992 0 0 0 -5.583-6.408 15.258 15.258 0 0 1 3.651 5.76z" fill="#063964"/><path d="m136.6 55.253c-.589.022-2.192 1.464-2.747 2.051s-.964 1.91-.578 2.283 1.53-.73 2.177-1.484a6.471 6.471 0 0 0 1.148-2.85" fill="#ddb04b"/><path d="m136.6 54.753a.5.5 0 0 1 .5.461 6.69 6.69 0 0 1 -1.267 3.215c-.556.647-1.6 1.734-2.356 1.734a.77.77 0 0 1 -.549-.217c-.693-.67-.049-2.337.563-2.985a15.564 15.564 0 0 1 1.411-1.284c1-.8 1.422-.914 1.681-.923zm-2.982 4.347a6.375 6.375 0 0 0 1.453-1.327 5.41 5.41 0 0 0 .8-1.588 13.956 13.956 0 0 0 -1.656 1.459 2.584 2.584 0 0 0 -.597 1.456z" fill="#0c2d4f"/><path d="m75.692 64.157s.754 5.04 7.673 7.921" fill="#0e2f54"/><path d="m83.365 72.078c.767.6 3.567.964 5.1.765 1.45-.188 2.254-.277 2.534-1.134s-.14-1.79-1.518-1.971-6.739 1.858-6.119 2.34" fill="#fff"/><path d="m87.5 73.527c-1.275 0-3.631-.258-4.524-.952a.744.744 0 0 1 -.251-.839c.077-.223.256-.746 2.877-1.724a13.277 13.277 0 0 1 3.684-.916 2.145 2.145 0 0 1 .277.017 2.42 2.42 0 0 1 1.851 1.05 2.029 2.029 0 0 1 .183 1.742 1.847 1.847 0 0 1 -1.181 1.2 8.318 8.318 0 0 1 -1.792.35l-.078.01a8.258 8.258 0 0 1 -1.046.062zm-3.04-1.651a12.045 12.045 0 0 0 3.042.392 7.01 7.01 0 0 0 .885-.049l.078-.01c1.448-.187 1.8-.274 1.938-.695a.81.81 0 0 0 -.052-.679 1.265 1.265 0 0 0 -.949-.472.887.887 0 0 0 -.113-.006 11.5 11.5 0 0 0 -3.037.761 15.76 15.76 0 0 0 -1.792.758z" fill="#0c2d4f"/><path d="m75.574 60.715c-.268.817-.4 3.373.118 3.442s1.558-2.52 1.826-3.337.553-1.81.029-1.879-1.7.957-1.973 1.774" fill="#fff"/><path d="m77.494 58.308a1.037 1.037 0 0 1 .135.009.918.918 0 0 1 .67.425c.31.492.167 1.207-.183 2.275a19.54 19.54 0 0 1 -.834 2.048c-.6 1.241-1.035 1.724-1.57 1.724a.794.794 0 0 1 -.1-.007.851.851 0 0 1 -.609-.41 3.25 3.25 0 0 1 -.289-1.943 7.848 7.848 0 0 1 .264-1.91 3.594 3.594 0 0 1 2.516-2.211zm-1.528 4.575a16.738 16.738 0 0 0 .953-2.259 8.845 8.845 0 0 0 .252-.886 2.875 2.875 0 0 0 -1 1.173 7.513 7.513 0 0 0 -.205 1.972z" fill="#0c2d4f"/><path d="m123.391 65.844c-.556 1.144-.451 2.241.233 2.449s1.691-.551 2.247-1.695.451-2.241-.234-2.449-1.69.551-2.246 1.695" fill="#60a9bb"/><path d="m125.4 63.614a1.322 1.322 0 0 1 .386.056 1.266 1.266 0 0 1 .79.727 3.025 3.025 0 0 1 -.252 2.419 3.212 3.212 0 0 1 -2.457 2.011 1.323 1.323 0 0 1 -.385-.056 1.266 1.266 0 0 1 -.791-.728 3.023 3.023 0 0 1 .253-2.418 3.211 3.211 0 0 1 2.456-2.011zm-1.533 4.213c.411 0 1.123-.554 1.558-1.448a2.124 2.124 0 0 0 .236-1.581c-.061-.139-.137-.162-.165-.171a.325.325 0 0 0 -.095-.013c-.41 0-1.121.554-1.556 1.448a2.121 2.121 0 0 0 -.236 1.581c.061.139.137.162.165.171a.325.325 0 0 0 .09.013z" fill="#4b4c70"/><path d="m104.589 49.176s-3.217-3.277-3.561-3.225a3.938 3.938 0 0 0 -2.028 3.086s-6.87 3.638-8.376 6.238 5.08 5.947 5.08 5.947l3.323-2.388s4.039-5.246 5.566-9.658" fill="#0e2f54"/><path d="m116.376 53.915s-6.49-6.278-6.834-6.226-4.11 3.417-4.258 5.242c0 0-7.675.132-9.18 2.733s8.393 7.2 8.393 7.2l3.323-2.389s7.029-2.146 8.556-6.558" fill="#0e2f54"/><path d="m111.474 54.695s-3.217-3.277-3.562-3.225a3.938 3.938 0 0 0 -2.031 3.086s-6.871 3.638-8.381 6.238 5.08 5.947 5.08 5.947l3.323-2.388s4.039-5.246 5.566-9.658" fill="#0e2f54"/><path d="m96.768 57.71a2.943 2.943 0 0 0 2.009 3.949 3.7 3.7 0 0 0 4.141-2.56 2.941 2.941 0 0 0 -2.009-3.949 3.7 3.7 0 0 0 -4.141 2.56m1.107.25a2.366 2.366 0 0 1 2.65-1.639 1.884 1.884 0 0 1 1.286 2.528 2.363 2.363 0 0 1 -2.65 1.638 1.883 1.883 0 0 1 -1.286-2.527" fill="#175f95"/><path d="m100.24 54.576a3.536 3.536 0 0 1 .779.086 3.229 3.229 0 0 1 2.125 1.57 3.762 3.762 0 0 1 .249 3.023 4.433 4.433 0 0 1 -1.544 2.148 4.053 4.053 0 0 1 -2.4.831 3.542 3.542 0 0 1 -.778-.086 3.232 3.232 0 0 1 -2.126-1.572 3.76 3.76 0 0 1 -.248-3.021 4.439 4.439 0 0 1 1.544-2.147 4.05 4.05 0 0 1 2.399-.832zm-.8 6.657a3.294 3.294 0 0 0 3-2.289 2.762 2.762 0 0 0 -.168-2.218 2.241 2.241 0 0 0 -1.476-1.088 2.536 2.536 0 0 0 -.559-.062 3.3 3.3 0 0 0 -3 2.29 2.76 2.76 0 0 0 .168 2.216 2.243 2.243 0 0 0 1.476 1.09 2.541 2.541 0 0 0 .564.061zm.653-5.459a2.445 2.445 0 0 1 .537.059 2.248 2.248 0 0 1 1.478 1.093 2.588 2.588 0 0 1 .178 2.074 2.907 2.907 0 0 1 -2.7 2.03 2.444 2.444 0 0 1 -.539-.06 2.245 2.245 0 0 1 -1.477-1.092 2.586 2.586 0 0 1 -.17-2.078 2.91 2.91 0 0 1 2.7-2.026zm-.509 4.261a1.923 1.923 0 0 0 1.746-1.341 1.588 1.588 0 0 0 -.093-1.274 1.259 1.259 0 0 0 -.828-.611 1.443 1.443 0 0 0 -.317-.035 1.926 1.926 0 0 0 -1.748 1.342 1.586 1.586 0 0 0 .093 1.274 1.256 1.256 0 0 0 .828.61 1.444 1.444 0 0 0 .324.034z" fill="#063964"/><path d="m84.269 53.641a25.081 25.081 0 0 1 4.005-3.971c-.445 1-.533 1.851.255 2.1l3.707 3.808a29.508 29.508 0 0 0 5.187.3c3.957.019 3.162 6.481 3.162 6.481s1.1.348 2.766.769c-.774 1.039-1.5 2.043-2.169 2.992-9.252-.842-14.918-6.788-16.913-12.478" fill="#003f6f"/><path d="m88.274 49.17a.5.5 0 0 1 .457.7c-.371.836-.3 1.165-.258 1.268.014.031.046.1.207.154a.5.5 0 0 1 .207.128l3.6 3.693a35.322 35.322 0 0 0 4.943.261 3.126 3.126 0 0 1 2.435 1.069c1.389 1.578 1.335 4.467 1.259 5.551.457.136 1.292.376 2.354.644a.5.5 0 0 1 .278.783c-.773 1.038-1.5 2.041-2.161 2.981a.5.5 0 0 1 -.454.21 22.147 22.147 0 0 1 -6.41-1.54 19.924 19.924 0 0 1 -5.039-2.991 19 19 0 0 1 -5.892-8.275.5.5 0 0 1 .065-.457 25.185 25.185 0 0 1 4.09-4.063.5.5 0 0 1 .319-.116zm-.024 3.03a1.258 1.258 0 0 1 -.688-.651 1.445 1.445 0 0 1 -.12-.5 21.049 21.049 0 0 0 -2.611 2.674 18.037 18.037 0 0 0 5.49 7.587 18.925 18.925 0 0 0 4.786 2.841 21.063 21.063 0 0 0 5.834 1.442c.491-.694 1.015-1.42 1.567-2.168-1.248-.331-2.035-.578-2.073-.59a.5.5 0 0 1 -.346-.538c0-.036.42-3.6-.979-5.191a2.138 2.138 0 0 0 -1.689-.729 29.69 29.69 0 0 1 -5.294-.309.5.5 0 0 1 -.248-.139z" fill="#063964"/><path d="m112.927 54.007c-.472 4.522-3.215 10.424-3.215 10.424l-.958 1.076c-1.652.335-3.423.642-5.335.906a73.065 73.065 0 0 1 9.508-12.406" fill="#0e2f54"/><path d="m118.452 49.685a32.436 32.436 0 0 0 6.138-1.456c4.571 1.386 6.284 6.342 3.335 9.163a18.535 18.535 0 0 1 -3.125 2.324 34 34 0 0 0 1.268-5.585c-.021-.825-4.179-2.884-7.616-4.446" fill="#0c2e51"/><path d="m109.712 64.43s2.743-5.9 3.215-10.424c1.294-1.366 2.693-2.755 4.232-4.2.344-.008 4.438-.744 4.935-.81 3.437 1.563 3.954 4.311 3.974 5.135a33.868 33.868 0 0 1 -1.267 5.585c-2.909 1.788-7.959 4.151-16.047 5.792z" fill="#175f95"/><path d="m108.754 66.007a.5.5 0 0 1 -.373-.832l.908-1.021c.3-.656 2.71-6.066 3.141-10.2a.5.5 0 0 1 .134-.292c1.31-1.382 2.7-2.763 4.253-4.222a.5.5 0 0 1 .331-.135c.22-.012 1.971-.313 3.129-.512.867-.149 1.553-.267 1.752-.294a.5.5 0 0 1 .273.041c4.06 1.846 4.258 5.2 4.267 5.578a29.968 29.968 0 0 1 -1.286 5.733.5.5 0 0 1 -.219.291c-5.154 3.166-11.664 4.932-16.211 5.858a.5.5 0 0 1 -.099.007zm4.652-11.779c-.522 4.525-3.128 10.172-3.24 10.413a.5.5 0 0 1 -.033.061 49.386 49.386 0 0 0 14.241-5.311 26.163 26.163 0 0 0 1.2-5.248 4.615 4.615 0 0 0 -.64-2.056 6.381 6.381 0 0 0 -2.908-2.575c-.3.047-.92.154-1.574.267-1.721.3-2.657.454-3.067.506-1.449 1.359-2.752 2.652-3.979 3.943z" fill="#063964"/><path d="m4.972 5.492-4.972-5.492" fill="#fff" transform="translate(114.298 54.269)"/><path d="m4.972 6.123a.629.629 0 0 1 -.472-.208l-4.968-5.492a.631.631 0 0 1 .045-.891.631.631 0 0 1 .891.044l4.972 5.493a.631.631 0 0 1 -.468 1.054z" fill="#063964" transform="translate(114.298 54.269)"/><path d="m3.35 3.553-3.35-3.553" fill="#fff" transform="translate(111.606 60.302)"/><path d="m3.35 4.184a.629.629 0 0 1 -.459-.2l-3.35-3.551a.631.631 0 0 1 .026-.892.631.631 0 0 1 .892.026l3.35 3.553a.631.631 0 0 1 -.459 1.064z" fill="#063964" transform="translate(111.606 60.302)"/><path d="m75.282 69.111 2.751 3.534.515-1.573-2.748-3.534z" fill="#fff"/><path d="m75.8 66.908a.63.63 0 0 1 .5.243l2.751 3.534a.63.63 0 0 1 .1.583l-.515 1.573a.63.63 0 0 1 -1.1.191l-2.751-3.532a.63.63 0 0 1 -.1-.583l.515-1.573a.63.63 0 0 1 .6-.434zm2.048 4.287-1.821-2.335-.042.129 1.815 2.335z" fill="#0c2d4f"/><g clip-path="url(#c)" opacity=".25"><path d="m84.269 53.641c.191-.266.425-.55.686-.846.058-.066.128-.136.19-.2.222-.243.458-.492.719-.75l.177-.171c.295-.287.608-.58.943-.882l.093-.083a95.842 95.842 0 0 1 10.245-7.685l.2-.129q.561-.369 1.1-.712l.515-.329.46-.289q.359-.224.7-.43l.26-.159c.291-.176.563-.337.826-.49l.23-.133c.267-.153.522-.3.752-.422l.015-.008v.01c.078.2.172.419.282.64.061.124.138.254.209.382.056.1.106.2.168.308.113.189.241.384.372.579.032.048.058.093.091.141q.246.359.529.725l.012.016a21.317 21.317 0 0 0 2.84 2.987l.008.008c.278.241.564.478.857.708l.015.012q.429.337.88.653l.037.027c.284.2.575.389.869.572l.088.058c.275.169.556.328.838.481.05.028.1.059.15.085.258.138.521.261.784.383.076.035.151.077.228.111.251.111.5.206.758.3.09.034.179.075.269.106.255.09.512.161.768.233.091.025.18.058.271.081a10.609 10.609 0 0 0 1.042.208 142.025 142.025 0 0 0 -10.72 12.5l-.667.888c-.774 1.039-1.5 2.043-2.169 2.992a22.134 22.134 0 0 1 -4.749-.955c-.084-.027-.165-.057-.248-.085a19.3 19.3 0 0 1 -8.432-5.565q-.46-.512-.868-1.053a17.806 17.806 0 0 1 -2.623-4.818z" fill="#0e73b5"/><path d="m101.182 66.619h-.046a22.726 22.726 0 0 1 -4.856-.977c-.055-.018-.108-.036-.162-.055l-.093-.032a19.917 19.917 0 0 1 -8.648-5.709c-.308-.35-.605-.715-.884-1.083a18.194 18.194 0 0 1 -2.7-4.954.5.5 0 0 1 .066-.457c.187-.26.421-.55.717-.885.042-.048.086-.094.129-.139l.069-.073c.253-.277.494-.528.735-.766l.093-.09.085-.082c.3-.294.625-.6.959-.9l.006-.006.085-.076a98.724 98.724 0 0 1 10.309-7.735l.1-.065.1-.066c.364-.24.735-.48 1.1-.714l.513-.328.462-.291c.23-.144.466-.289.7-.433l.261-.16c.279-.169.552-.331.834-.495l.107-.062.122-.07c.311-.178.553-.314.762-.427l.019-.01a.5.5 0 0 1 .7.256v.01.008c.073.192.161.392.262.595.039.079.086.162.136.251l.062.111.057.107c.035.066.068.128.1.19.114.19.244.387.356.554l.049.076c.013.02.025.04.039.061.155.226.328.462.513.7v.005l.01.013a20.886 20.886 0 0 0 2.771 2.913l.02.018c.275.238.553.468.825.681l.019.015c.265.208.546.417.855.634l.007.005.033.024c.259.181.534.363.842.554l.059.039.03.02c.238.146.5.3.811.465h.006l.063.037c.023.013.046.027.069.039h.009c.24.128.486.244.759.37.039.018.079.038.118.058s.071.036.1.049c.243.108.491.2.731.29l.127.051c.047.019.091.037.129.051.227.08.454.144.693.211l.047.013c.044.012.091.027.137.042s.085.027.121.036c.335.084.669.151.992.2a.5.5 0 0 1 .289.84 141.8 141.8 0 0 0 -10.683 12.46l-.252.335-.414.551c-.773 1.037-1.5 2.04-2.16 2.98a.5.5 0 0 1 -.381.222zm-16.351-12.894a17.3 17.3 0 0 0 2.46 4.432c.264.349.546.695.838 1.027a18.917 18.917 0 0 0 8.215 5.416l.106.037.137.047a21.649 21.649 0 0 0 4.355.905c.62-.878 1.3-1.806 2.009-2.765l.415-.553.253-.336a141.65 141.65 0 0 1 10.126-11.885l-.17-.041c-.066-.017-.126-.036-.179-.053-.034-.011-.068-.022-.1-.031l-.05-.014c-.244-.069-.5-.14-.752-.23-.063-.022-.126-.048-.181-.07l-.1-.039c-.24-.09-.514-.192-.784-.311-.054-.024-.1-.049-.148-.071l-.087-.043c-.287-.133-.545-.254-.807-.394-.043-.022-.082-.045-.116-.065l-.043-.025c-.324-.176-.605-.337-.858-.493h-.006l-.056-.037-.033-.021c-.322-.2-.613-.392-.888-.585l-.008-.006-.034-.025c-.323-.227-.617-.445-.9-.666l-.018-.015c-.286-.224-.58-.468-.872-.721l-.021-.02a21.889 21.889 0 0 1 -2.895-3.047v-.006l-.01-.014c-.2-.254-.379-.5-.543-.745-.022-.032-.042-.063-.062-.1l-.033-.052c-.119-.177-.258-.388-.385-.6-.049-.084-.089-.159-.128-.232l-.05-.094-.056-.1c-.055-.1-.112-.2-.162-.3q-.041-.082-.08-.164l-.274.156-.127.073-.1.059c-.277.161-.545.32-.819.486l-.256.157c-.234.143-.468.287-.695.429l-.457.287-.508.325c-.361.232-.728.47-1.091.709l-.1.063-.1.067a93.685 93.685 0 0 0 -10.193 7.648l-.095.085c-.324.292-.635.583-.926.866l-.092.089-.083.08c-.228.225-.457.464-.7.731l-.082.087c-.038.039-.073.076-.1.109-.197.221-.362.419-.501.599z" fill="#063964"/></g><path d="m101.182 66.619h-.046a22.726 22.726 0 0 1 -4.856-.977c-.055-.018-.108-.036-.162-.055l-.093-.032a19.917 19.917 0 0 1 -8.648-5.709c-.308-.35-.605-.715-.884-1.083a18.194 18.194 0 0 1 -2.7-4.954.5.5 0 0 1 .066-.457c.187-.26.421-.55.717-.885.042-.048.086-.094.129-.139l.069-.073c.253-.277.494-.528.735-.766l.093-.09.085-.082c.3-.294.625-.6.959-.9l.006-.006.085-.076a98.724 98.724 0 0 1 10.309-7.735l.1-.065.1-.066c.364-.24.735-.48 1.1-.714l.513-.328.462-.291c.23-.144.466-.289.7-.433l.261-.16c.279-.169.552-.331.834-.495l.107-.062.122-.07c.311-.178.553-.314.762-.427l.019-.01a.5.5 0 0 1 .7.256v.01.008c.073.192.161.392.262.595.039.079.086.162.136.251l.062.111.057.107c.035.066.068.128.1.19.114.19.244.387.356.554l.049.076c.013.02.025.04.039.061.155.226.328.462.513.7v.005l.01.013a20.886 20.886 0 0 0 2.771 2.913l.02.018c.275.238.553.468.825.681l.019.015c.265.208.546.417.855.634l.007.005.033.024c.259.181.534.363.842.554l.059.039.03.02c.238.146.5.3.811.465h.006l.063.037c.023.013.046.027.069.039h.009c.24.128.486.244.759.37.039.018.079.038.118.058s.071.036.1.049c.243.108.491.2.731.29l.127.051c.047.019.091.037.129.051.227.08.454.144.693.211l.047.013c.044.012.091.027.137.042s.085.027.121.036c.335.084.669.151.992.2a.5.5 0 0 1 .289.84 141.8 141.8 0 0 0 -10.683 12.46l-.252.335-.414.551c-.773 1.037-1.5 2.04-2.16 2.98a.5.5 0 0 1 -.381.222zm-16.351-12.894a17.3 17.3 0 0 0 2.46 4.432c.264.349.546.695.838 1.027a18.917 18.917 0 0 0 8.215 5.416l.106.037.137.047a21.649 21.649 0 0 0 4.355.905c.62-.878 1.3-1.806 2.009-2.765l.415-.553.253-.336a141.65 141.65 0 0 1 10.126-11.885l-.17-.041c-.066-.017-.126-.036-.179-.053-.034-.011-.068-.022-.1-.031l-.05-.014c-.244-.069-.5-.14-.752-.23-.063-.022-.126-.048-.181-.07l-.1-.039c-.24-.09-.514-.192-.784-.311-.054-.024-.1-.049-.148-.071l-.087-.043c-.287-.133-.545-.254-.807-.394-.043-.022-.082-.045-.116-.065l-.043-.025c-.324-.176-.605-.337-.858-.493h-.006l-.056-.037-.033-.021c-.322-.2-.613-.392-.888-.585l-.008-.006-.034-.025c-.323-.227-.617-.445-.9-.666l-.018-.015c-.286-.224-.58-.468-.872-.721l-.021-.02a21.889 21.889 0 0 1 -2.895-3.047v-.006l-.01-.014c-.2-.254-.379-.5-.543-.745-.022-.032-.042-.063-.062-.1l-.033-.052c-.119-.177-.258-.388-.385-.6-.049-.084-.089-.159-.128-.232l-.05-.094-.056-.1c-.055-.1-.112-.2-.162-.3q-.041-.082-.08-.164l-.274.156-.127.073-.1.059c-.277.161-.545.32-.819.486l-.256.157c-.234.143-.468.287-.695.429l-.457.287-.508.325c-.361.232-.728.47-1.091.709l-.1.063-.1.067a93.685 93.685 0 0 0 -10.193 7.648l-.095.085c-.324.292-.635.583-.926.866l-.092.089-.083.08c-.228.225-.457.464-.7.731l-.082.087c-.038.039-.073.076-.1.109-.197.221-.362.419-.501.599z" fill="#063964"/><path d="m101.182 66.75h-.058a22.858 22.858 0 0 1 -4.884-.982c-.056-.018-.111-.037-.165-.056l-.092-.032a20.048 20.048 0 0 1 -8.7-5.746c-.31-.353-.609-.72-.89-1.091a18.325 18.325 0 0 1 -2.715-4.99.631.631 0 0 1 .083-.577c.189-.264.427-.557.725-.9.044-.05.089-.1.133-.143l.067-.071c.254-.278.5-.531.739-.77l.095-.091.084-.081c.3-.3.627-.6.963-.9l.008-.007.083-.074a98.858 98.858 0 0 1 10.322-7.745l.1-.065.1-.067c.364-.24.735-.48 1.1-.714l.514-.328.463-.291c.231-.144.467-.29.7-.433l.261-.16c.28-.17.554-.332.836-.5l.145-.084.086-.05c.314-.18.557-.316.767-.43l.015-.008a.631.631 0 0 1 .883.322v.01.01c.071.188.158.384.257.583.037.076.084.158.133.245l.063.112.056.1c.034.065.066.125.1.184.112.187.241.382.352.548.019.028.035.054.051.079s.023.037.036.056c.154.224.325.459.509.7v.007l.009.013a20.754 20.754 0 0 0 2.752 2.893l.022.02c.273.236.548.463.818.675l.013.011c.265.209.544.415.85.631l.009.006.032.023c.256.18.53.359.835.55l.012.008.037.025.039.026c.235.145.5.3.8.462h.007l.066.038c.021.012.041.025.063.036l.011.006c.237.127.481.241.752.367.04.018.081.039.122.06s.068.034.1.046c.24.106.486.2.724.287l.131.052c.045.019.087.036.122.048.224.079.449.142.686.209l.047.013c.045.012.093.028.141.043s.081.026.113.034c.331.083.66.149.979.2a.631.631 0 0 1 .364 1.061 141.673 141.673 0 0 0 -10.642 12.457l-.251.334-.413.551c-.772 1.036-1.5 2.038-2.158 2.977a.631.631 0 0 1 -.517.268zm-16.2-13a17.193 17.193 0 0 0 2.416 4.33c.263.347.543.69.832 1.02a18.786 18.786 0 0 0 8.158 5.383l.107.037.133.046a21.5 21.5 0 0 0 4.252.891c.609-.86 1.269-1.768 1.967-2.7l.416-.554.253-.336a141.5 141.5 0 0 1 9.984-11.741c-.051-.014-.1-.029-.139-.042l-.1-.03-.051-.014c-.246-.069-.5-.141-.76-.232-.066-.023-.13-.049-.187-.073l-.095-.038c-.241-.09-.517-.193-.79-.314-.057-.025-.108-.051-.154-.074l-.083-.041c-.289-.134-.548-.256-.812-.4-.046-.024-.086-.047-.122-.068l-.041-.024c-.326-.177-.608-.339-.863-.5h-.007l-.068-.045-.023-.015c-.324-.2-.615-.394-.89-.586l-.01-.007-.033-.024c-.325-.228-.62-.448-.9-.67l-.013-.01c-.29-.228-.586-.472-.878-.726l-.024-.022a22.022 22.022 0 0 1 -2.91-3.064l-.006-.007-.01-.013c-.2-.256-.381-.508-.547-.75-.023-.034-.044-.066-.065-.1l-.031-.049c-.119-.178-.26-.39-.389-.605-.051-.087-.092-.164-.131-.238l-.048-.09-.056-.1c-.056-.1-.114-.2-.165-.306l-.019-.039-.154.088-.085.049-.141.082c-.277.161-.544.319-.817.485l-.255.156c-.235.143-.467.287-.694.428l-.456.286-.508.324c-.361.231-.727.47-1.09.708l-.1.063-.1.067a93.544 93.544 0 0 0 -10.18 7.63l-.1.085c-.322.29-.632.58-.921.862l-.093.09-.082.079c-.226.223-.454.461-.7.725l-.084.089c-.037.038-.071.075-.1.105-.164.197-.313.374-.441.537z" fill="#063964"/><g clip-path="url(#d)" opacity=".46"><path d="m106.229 65.979c-.127.022-.259.042-.388.064-.32.053-.639.106-.967.157-.476.073-.96.145-1.455.213.418-.679.841-1.338 1.266-1.988.129-.2.26-.392.39-.586q.473-.709.957-1.4c.135-.194.271-.39.408-.582.438-.613.882-1.221 1.34-1.821.048-.064.1-.127.149-.191q.628-.818 1.289-1.624c.167-.205.34-.41.51-.614q.518-.619 1.058-1.237c.178-.2.356-.411.539-.615.518-.58 1.048-1.161 1.6-1.747q.956-1.01 1.993-2.04c.011-.01.02-.021.031-.031q1.056-1.049 2.207-2.13c.313-.008 3.722-.616 4.71-.776l.2-.05c.179-.044.357-.089.531-.135.124-.033.245-.066.365-.1q.3-.083.575-.167c.094-.029.19-.057.28-.086.272-.087.533-.175.766-.263 3.713 1.126 5.54 4.609 4.513 7.389a4.694 4.694 0 0 1 -1.178 1.774c-.045.043-.1.094-.16.149l-.036.033c-.056.051-.119.107-.188.167l-.034.03c-1.743 1.512-7.4 5.631-20 7.979l-.076.014q-.592.109-1.205.215" fill="#175f95"/><path d="m103.419 66.913a.5.5 0 0 1 -.426-.762c.374-.608.779-1.243 1.273-2 .119-.181.24-.362.357-.537l.036-.054c.315-.473.639-.948.963-1.41l.038-.055c.121-.175.247-.355.373-.531.5-.7.932-1.286 1.35-1.834.027-.036.058-.075.088-.114l.061-.078c.4-.52.825-1.055 1.3-1.636.124-.153.253-.307.378-.456l.136-.162c.332-.4.691-.817 1.066-1.246l.059-.068c.157-.181.319-.368.484-.552.573-.641 1.1-1.216 1.611-1.757l.019-.019c.637-.673 1.305-1.356 1.986-2.032l.007-.007.029-.029c.694-.689 1.438-1.407 2.212-2.135a.5.5 0 0 1 .33-.136c.22-.012 1.975-.314 3.136-.514.627-.108 1.17-.2 1.49-.253l.18-.044c.195-.048.366-.091.525-.133.121-.032.239-.064.357-.1.184-.051.374-.107.567-.165l.1-.031.169-.052c.3-.1.541-.179.743-.255a.5.5 0 0 1 .322-.011 7.4 7.4 0 0 1 4.525 3.679 5.471 5.471 0 0 1 .312 4.362 5.182 5.182 0 0 1 -1.3 1.962c-.047.045-.1.1-.168.156l-.036.033q-.09.082-.2.176l-.008.007-.029.025c-1.911 1.657-7.7 5.755-20.228 8.09l-.045.008h-.027-.007c-.434.08-.83.151-1.212.216l-.21.035-.178.029-.046.008c-.3.05-.613.1-.928.151-.564.086-1.028.154-1.464.214a.5.5 0 0 1 -.07.017zm9.853-12.543c-.5.528-1.014 1.09-1.574 1.717-.16.179-.32.362-.474.54l-.06.07c-.371.424-.724.838-1.052 1.23l-.136.163c-.123.147-.249.3-.37.446-.468.574-.887 1.1-1.28 1.613l-.07.09c-.025.032-.051.064-.075.1-.414.542-.837 1.117-1.333 1.812-.122.171-.246.349-.366.521l-.039.056c-.32.457-.64.925-.951 1.393l-.037.055c-.116.173-.235.351-.351.528-.25.382-.477.733-.688 1.065l.383-.058c.31-.048.619-.1.918-.149l.043-.007.185-.03.2-.033c.377-.065.768-.134 1.2-.213l.045-.008h.027.006c4.1-.763 14.22-3.058 19.762-7.865l.007-.006.028-.025c.065-.056.124-.109.177-.157l.035-.032c.057-.052.11-.1.152-.142a4.191 4.191 0 0 0 1.054-1.585 4.483 4.483 0 0 0 -.269-3.571 6.365 6.365 0 0 0 -3.762-3.117c-.181.065-.387.135-.626.211l-.185.057-.1.03c-.2.061-.4.118-.588.171q-.181.051-.371.1c-.166.044-.342.089-.54.137l-.211.052-.033.006c-.312.051-.861.145-1.5.254-1.7.292-2.655.453-3.073.507-.725.683-1.422 1.358-2.075 2.005l-.007.006-.029.029c-.678.673-1.343 1.354-1.977 2.024z" fill="#063964"/></g><path d="m103.419 66.913a.5.5 0 0 1 -.426-.762c.374-.608.779-1.243 1.273-2 .119-.181.24-.362.357-.537l.036-.054c.315-.473.639-.948.963-1.41l.038-.055c.121-.175.247-.355.373-.531.5-.7.932-1.286 1.35-1.834.027-.036.058-.075.088-.114l.061-.078c.4-.52.825-1.055 1.3-1.636.124-.153.253-.307.378-.456l.136-.162c.332-.4.691-.817 1.066-1.246l.059-.068c.157-.181.319-.368.484-.552.573-.641 1.1-1.216 1.611-1.757l.019-.019c.637-.673 1.305-1.356 1.986-2.032l.007-.007.029-.029c.694-.689 1.438-1.407 2.212-2.135a.5.5 0 0 1 .33-.136c.22-.012 1.975-.314 3.136-.514.627-.108 1.17-.2 1.49-.253l.18-.044c.195-.048.366-.091.525-.133.121-.032.239-.064.357-.1.184-.051.374-.107.567-.165l.1-.031.169-.052c.3-.1.541-.179.743-.255a.5.5 0 0 1 .322-.011 7.4 7.4 0 0 1 4.525 3.679 5.471 5.471 0 0 1 .312 4.362 5.182 5.182 0 0 1 -1.3 1.962c-.047.045-.1.1-.168.156l-.036.033q-.09.082-.2.176l-.008.007-.029.025c-1.911 1.657-7.7 5.755-20.228 8.09l-.045.008h-.027-.007c-.434.08-.83.151-1.212.216l-.21.035-.178.029-.046.008c-.3.05-.613.1-.928.151-.564.086-1.028.154-1.464.214a.5.5 0 0 1 -.07.017zm9.853-12.543c-.5.528-1.014 1.09-1.574 1.717-.16.179-.32.362-.474.54l-.06.07c-.371.424-.724.838-1.052 1.23l-.136.163c-.123.147-.249.3-.37.446-.468.574-.887 1.1-1.28 1.613l-.07.09c-.025.032-.051.064-.075.1-.414.542-.837 1.117-1.333 1.812-.122.171-.246.349-.366.521l-.039.056c-.32.457-.64.925-.951 1.393l-.037.055c-.116.173-.235.351-.351.528-.25.382-.477.733-.688 1.065l.383-.058c.31-.048.619-.1.918-.149l.043-.007.185-.03.2-.033c.377-.065.768-.134 1.2-.213l.045-.008h.027.006c4.1-.763 14.22-3.058 19.762-7.865l.007-.006.028-.025c.065-.056.124-.109.177-.157l.035-.032c.057-.052.11-.1.152-.142a4.191 4.191 0 0 0 1.054-1.585 4.483 4.483 0 0 0 -.269-3.571 6.365 6.365 0 0 0 -3.762-3.117c-.181.065-.387.135-.626.211l-.185.057-.1.03c-.2.061-.4.118-.588.171q-.181.051-.371.1c-.166.044-.342.089-.54.137l-.211.052-.033.006c-.312.051-.861.145-1.5.254-1.7.292-2.655.453-3.073.507-.725.683-1.422 1.358-2.075 2.005l-.007.006-.029.029c-.678.673-1.343 1.354-1.977 2.024z" fill="#063964"/><g clip-path="url(#e)" opacity=".43"><path d="m87.871 57.1a3.15 3.15 0 0 1 -2.1-5.5 89.685 89.685 0 0 1 14.6-10.634 3.15 3.15 0 0 1 3.055 5.51 84.962 84.962 0 0 0 -13.462 9.829 3.138 3.138 0 0 1 -2.093.795z" fill="#fff"/></g><g clip-path="url(#f)" opacity=".45"><path d="m111.524 63.492a2.1 2.1 0 0 1 -.554-4.126 74.351 74.351 0 0 0 11.7-4.467 2.1 2.1 0 0 1 1.874 3.759 77.3 77.3 0 0 1 -12.46 4.759 2.1 2.1 0 0 1 -.56.075z" fill="#fff"/></g><path d="m63.077 85.578a.777.777 0 0 1 .268.161c-.06-.036-.121-.067-.18-.1-.03-.018-.058-.039-.088-.057" fill="#0e2f54"/><path d="m115.284 51.62c-.59.59-1.9 1.937-2.449 2.515-.555.585-1.084 1.166-1.6 1.746-.183.205-.361.411-.54.615q-.54.618-1.057 1.237c-.171.2-.343.41-.51.614q-.659.809-1.289 1.625c-.049.064-.1.127-.149.191-.458.6-.9 1.207-1.34 1.82-.137.193-.272.388-.409.582q-.482.691-.956 1.4c-.129.2-.261.39-.39.587-.319.486-.634.986-.947 1.487l-1.153.829s-.561-.288-1.311-.751q.964-1.368 2.077-2.863l.666-.888c2.474-3.262 6.913-8.463 10.813-12.632" fill="#a0d2da"/><path d="m102.493 67.37a.5.5 0 0 1 -.228-.055c-.024-.012-.587-.3-1.345-.77a.5.5 0 0 1 -.146-.714c.63-.893 1.331-1.86 2.084-2.873l.445-.593.223-.3c2.543-3.353 7-8.564 10.848-12.674a.5.5 0 1 1 .73.683c-3.824 4.088-8.257 9.266-10.78 12.593l-.221.294-.444.592c-.625.841-1.215 1.65-1.757 2.412.222.13.412.236.553.314l.82-.59c.285-.455.589-.938.9-1.413.077-.117.155-.234.233-.351l.158-.237c.327-.488.65-.962.963-1.411l.181-.258q.115-.164.23-.327c.506-.708.935-1.291 1.351-1.834.027-.035.057-.074.088-.113l.061-.078c.407-.528.843-1.078 1.3-1.637.174-.213.35-.424.515-.619.342-.41.7-.829 1.064-1.245l.171-.2c.123-.141.247-.283.373-.424.593-.664 1.1-1.217 1.595-1.739l.018-.019c.566-.6 1.875-1.941 2.458-2.525a.5.5 0 1 1 .707.707c-.573.573-1.852 1.886-2.422 2.487l-.017.019c-.493.519-1 1.071-1.592 1.735-.123.138-.245.277-.365.415l-.172.2c-.358.409-.711.823-1.049 1.228-.163.194-.337.4-.507.61-.449.551-.88 1.094-1.28 1.613l-.07.09c-.025.032-.051.064-.075.1-.412.538-.834 1.113-1.333 1.811l-.225.321-.182.259c-.307.441-.627.91-.949 1.391l-.159.239c-.076.114-.153.229-.228.344-.326.5-.645 1-.941 1.478a.5.5 0 0 1 -.132.141l-1.153.829a.5.5 0 0 1 -.297.094z" fill="#063964"/><path d="m101.665 66.425s2.843-2.87 3.623-3 2.611 1.139 1.7 2.592-5.3 1.262-5.3 1.262-.609-.189-.022-.851" fill="#a0d2da"/><path d="m102.183 67.784c-.315 0-.51-.008-.518-.009a.5.5 0 0 1 -.127-.022.911.911 0 0 1 -.6-.6 1.132 1.132 0 0 1 .351-1.061l.019-.02c.029-.03.729-.735 1.538-1.47 1.529-1.388 2.062-1.624 2.356-1.674a1.217 1.217 0 0 1 .2-.017 2.651 2.651 0 0 1 2.074 1.344 1.919 1.919 0 0 1 -.07 2.023 3.624 3.624 0 0 1 -2.567 1.293 15.628 15.628 0 0 1 -2.656.213zm-.167-1h.167c2.267 0 3.986-.407 4.381-1.036a.923.923 0 0 0 .042-1.008 1.7 1.7 0 0 0 -1.2-.828.219.219 0 0 0 -.036 0 17.756 17.756 0 0 0 -3.342 2.852z" fill="#063964"/><path d="m83.745 82.072c0 1.129-1.534 2.044-3.426 2.044s-3.426-.915-3.426-2.044 1.534-2.044 3.426-2.044 3.426.915 3.426 2.044" fill="#175f95"/><path d="m3.426-.5c2.2 0 3.926 1.117 3.926 2.544s-1.724 2.544-3.926 2.544-3.926-1.117-3.926-2.544 1.725-2.544 3.926-2.544zm0 4.088c1.559 0 2.926-.722 2.926-1.544s-1.367-1.544-2.926-1.544-2.926.722-2.926 1.544 1.367 1.544 2.926 1.544z" fill="#063964" transform="translate(76.893 80.028)"/><path d="m82.182 81.471c0 .046-.15.931-1.677.924-1.719-.007-1.678-.878-1.678-.924s.751-1.33 1.678-1.33 1.677 1.284 1.677 1.33" fill="#175f95"/><path d="m80.523 82.9h-.023a2.493 2.493 0 0 1 -1.815-.573 1.215 1.215 0 0 1 -.361-.854c0-.123.031-.226.216-.5a4.229 4.229 0 0 1 .409-.517 1.9 1.9 0 0 1 3.1 0 4.234 4.234 0 0 1 .409.517c.185.277.216.379.216.505a1.314 1.314 0 0 1 -.41.833 2.386 2.386 0 0 1 -1.741.589zm-1.172-1.34c.078.135.364.337 1.156.34h.016c.733 0 1.009-.233 1.109-.379-.209-.31-.691-.875-1.127-.875-.456-.005-.961.611-1.154.909z" fill="#063964"/><path d="m78.827 81.471.281-9.886 5.756-28.311 1.136.2-4.128 28.048.283 9.949" fill="#175f95"/><path d="m82.155 81.971a.5.5 0 0 1 -.5-.486l-.283-9.949a.5.5 0 0 1 .005-.087l4.057-27.567-.178-.031-5.65 27.791-.28 9.843a.5.5 0 1 1 -1-.028l.281-9.886a.5.5 0 0 1 .01-.085l5.756-28.311a.5.5 0 0 1 .577-.393l1.136.2a.5.5 0 0 1 .408.565l-4.122 28 .282 9.905a.5.5 0 0 1 -.486.514z" fill="#063964"/><path d="m84.935 52.342a1.11 1.11 0 1 1 -.917-1.114 1.026 1.026 0 0 1 .917 1.114" fill="#175f95"/><path d="m83.915 53.595a1.787 1.787 0 0 1 -.309-.027 1.688 1.688 0 0 1 -1.015-.58 1.38 1.38 0 0 1 -.307-1.113 1.487 1.487 0 0 1 1.516-1.167 1.787 1.787 0 0 1 .309.027 1.689 1.689 0 0 1 1.015.58 1.379 1.379 0 0 1 .308 1.114 1.487 1.487 0 0 1 -1.517 1.166zm-.12-1.886a.5.5 0 0 0 -.527.339.386.386 0 0 0 .095.3.7.7 0 0 0 .417.23.783.783 0 0 0 .136.012.5.5 0 0 0 .527-.339.386.386 0 0 0 -.095-.3.7.7 0 0 0 -.416-.231.783.783 0 0 0 -.132-.012z" fill="#063964"/><path d="m84.52 51.874 1.48-8.4-1.137-.2-1.481 8.4s.3.785 1.137.2" fill="#175f95"/><path d="m83.953 52.591a1.141 1.141 0 0 1 -1.037-.738.5.5 0 0 1 -.026-.266l1.481-8.4a.5.5 0 0 1 .579-.406l1.137.2a.5.5 0 0 1 .406.579l-1.481 8.4a.5.5 0 0 1 -.206.323 1.5 1.5 0 0 1 -.853.308zm-.044-1.019a.071.071 0 0 0 .044.019.305.305 0 0 0 .115-.031l1.354-7.68-.152-.027z" fill="#063964"/><path d="m85.519 50.294a1.332 1.332 0 1 1 -1.1-1.337 1.232 1.232 0 0 1 1.1 1.337" fill="#175f95"/><path d="m84.295 51.7a2.045 2.045 0 0 1 -.353-.031 1.925 1.925 0 0 1 -1.159-.661 1.536 1.536 0 0 1 -.347-1.255 1.685 1.685 0 0 1 1.717-1.317 2.045 2.045 0 0 1 .353.031 1.732 1.732 0 0 1 1.506 1.916 1.685 1.685 0 0 1 -1.717 1.317zm-.143-2.264a.7.7 0 0 0 -.732.49.562.562 0 0 0 .135.446.926.926 0 0 0 .559.311 1.042 1.042 0 0 0 .18.016.7.7 0 0 0 .732-.49c.059-.333-.259-.68-.7-.758a1.04 1.04 0 0 0 -.174-.017z" fill="#063964"/><path d="m84.887 49.787 1.481-8.4-1.137-.2-1.481 8.4s.3.785 1.137.2" fill="#175f95"/><path d="m84.32 50.5a1.141 1.141 0 0 1 -1.037-.738.5.5 0 0 1 -.026-.266l1.481-8.4a.5.5 0 0 1 .579-.406l1.137.2a.5.5 0 0 1 .406.579l-1.481 8.4a.5.5 0 0 1 -.206.323 1.5 1.5 0 0 1 -.853.308zm-.044-1.019a.071.071 0 0 0 .044.019.305.305 0 0 0 .115-.031l1.354-7.68-.152-.027z" fill="#063964"/><path d="m87.414 32.043-4.443 2.463 3.456 3.138z" fill="#175f95"/><path d="m87.414 31.543a.5.5 0 0 1 .492.587l-.987 5.6a.5.5 0 0 1 -.829.283l-3.456-3.138a.5.5 0 0 1 .094-.807l4.443-2.463a.5.5 0 0 1 .243-.062zm-1.322 5.121.648-3.676-2.917 1.612z" fill="#063964"/><path d="m87.414 32.043 3.232 4.257-4.219 1.346z" fill="#003f6f"/><path d="m87.414 31.543a.5.5 0 0 1 .4.2l3.23 4.257a.5.5 0 0 1 -.246.779l-4.219 1.341a.5.5 0 0 1 -.644-.563l.987-5.6a.5.5 0 0 1 .492-.413zm2.406 4.494-2.112-2.78-.645 3.66z" fill="#063964"/><path d="m85.4 43.62-2.04-2.636-.083-5.966 3.11 2.825z" fill="#f4d151"/><path d="m85.4 44.12a.5.5 0 0 1 -.4-.194l-2.04-2.636a.5.5 0 0 1 -.1-.3l-.083-5.966a.5.5 0 0 1 .836-.377l3.11 2.825a.5.5 0 0 1 .157.454l-.98 5.774a.5.5 0 0 1 -.493.416zm-1.542-3.31 1.241 1.6.749-4.385-2.048-1.863z" fill="#063964"/><path d="m85.4 43.62 2.727-1.4 2.058-5.588-3.8 1.212z" fill="#f4d151"/><path d="m85.4 44.12a.5.5 0 0 1 -.493-.584l.987-5.777a.5.5 0 0 1 .341-.392l3.8-1.212a.5.5 0 0 1 .621.649l-2.056 5.587a.5.5 0 0 1 -.241.272l-2.727 1.4a.5.5 0 0 1 -.232.057zm1.429-5.893-.767 4.491 1.664-.855 1.637-4.445z" fill="#063964"/><path d="m88.193 33.157a.961.961 0 1 1 -.78-1.114.962.962 0 0 1 .78 1.114" fill="#175f95"/><path d="m87.247 34.452a1.473 1.473 0 0 1 -.254-.022 1.462 1.462 0 0 1 .253-2.9 1.462 1.462 0 0 1 0 2.923zm0-1.923a.462.462 0 0 0 -.079.916.47.47 0 0 0 .081.007.462.462 0 0 0 .079-.916.467.467 0 0 0 -.083-.008z" fill="#063964"/><path d="m87.924 32.522.569-3.226-1.066-.188-.568 3.226s.269.719 1.065.188" fill="#175f95"/><path d="m87.39 33.217a1.089 1.089 0 0 1 -1-.708.5.5 0 0 1 -.024-.262l.568-3.226a.5.5 0 0 1 .579-.406l1.066.188a.5.5 0 0 1 .406.579l-.569 3.226a.5.5 0 0 1 -.215.329 1.473 1.473 0 0 1 -.811.28zm0-1a.208.208 0 0 0 .086-.019l.44-2.5-.081-.014z" fill="#063964"/><path d="m89.1 30.715c-.086.49-.759.782-1.5.65s-1.277-.634-1.19-1.125l1.86-2.418z" fill="#175f95"/><path d="m87.949 31.9a2.541 2.541 0 0 1 -.443-.039 2.112 2.112 0 0 1 -1.377-.8 1.189 1.189 0 0 1 -.218-.9.5.5 0 0 1 .1-.218l1.86-2.418a.5.5 0 0 1 .877.167l.833 2.893a.5.5 0 0 1 .012.225 1.537 1.537 0 0 1 -1.644 1.09zm-1.042-1.491a.366.366 0 0 0 .041.075 1.153 1.153 0 0 0 .732.392 1.541 1.541 0 0 0 .269.024.846.846 0 0 0 .621-.2l-.513-1.783z" fill="#063964"/><path d="m74.769 75.562 10.993 6.427a28.384 28.384 0 1 0 .948-3.035z" fill="#fff"/><path d="m113.307 60.034a28.878 28.878 0 1 1 -28.12 22.2l-10.67-6.24a.5.5 0 0 1 .389-.913l11.5 3.267a28.907 28.907 0 0 1 26.9-18.314zm-.067 56.75a28.147 28.147 0 0 0 4.819-.419 27.873 27.873 0 0 0 -4.751-55.331 28.144 28.144 0 0 0 -4.818.418 27.852 27.852 0 0 0 -21.312 17.678.5.5 0 0 1 -.6.305l-8.153-2.315 7.589 4.437a.5.5 0 0 1 .232.554 27.875 27.875 0 0 0 26.993 34.673z" fill="#063964"/></g><g clip-path="url(#g)"><path d="m139.774 112.789s-.817-10.27-1.4-13.3-3.268-7.119-3.735-9.453.574-7.315-.467-8.869-3.267-.234-4.2 1.984-1.517 18.789-1.517 18.789-23.851-15.568-24.2-15.8a42.628 42.628 0 0 0 -7.611-.427 2.546 2.546 0 0 0 -1.619 4.341c2.062 1.742 14.3 3.268 14.3 3.268s-12.1-1.147-12.692-1.158c-1.628-.03-3.085 1.446-1.972 3.884 1.148 2.516 16.053 5.718 16.053 5.718s-11.6-2.461-13.625-2.692c-2.819-.322-3.585 3.246-1.258 4.547 3.5 1.953 11.778 3.127 11.778 3.127s-9.486-1.259-10.893-1.331c-1.528-.077-2.593 1.351-1.57 2.991 1.943 3.117 12.728 6.38 17.728 7.666 5.258 1.353 11.383 6.873 11.383 6.873l19.255 21.006 10.388-10.853z" fill="#f7d7c5"/><path d="m143.508 144.448h-.008a.5.5 0 0 1 -.363-.162l-19.237-20.986c-.36-.32-6.213-5.473-11.156-6.745a99.089 99.089 0 0 1 -10.065-3.164c-4.376-1.677-7.055-3.266-7.963-4.722a2.528 2.528 0 0 1 -.21-2.6 2.325 2.325 0 0 1 2.086-1.156h.143c.2.01.565.044 1.037.095a14.6 14.6 0 0 1 -2.191-.955 3.066 3.066 0 0 1 -1.535-3.469 2.689 2.689 0 0 1 2.686-2.035 3.608 3.608 0 0 1 .408.024c.219.025.543.075.949.143q-.332-.13-.636-.257c-1.895-.8-2.928-1.5-3.253-2.208a3.442 3.442 0 0 1 0-3.351 2.8 2.8 0 0 1 2.441-1.242c.112 0 .589.04 1.3.1a9.243 9.243 0 0 1 -3.236-1.33 2.915 2.915 0 0 1 -.787-3.085 3.015 3.015 0 0 1 2.681-2.136c.267-.026.653-.039 1.146-.039 1.063 0 2.6.061 4.02.16 2.445.171 2.649.306 2.77.387.309.206 19.423 12.682 23.457 15.315.142-3.7.675-16.068 1.523-18.081.724-1.719 2.181-2.966 3.465-2.966a1.907 1.907 0 0 1 1.613.9c.7 1.04.6 3.106.494 5.293a18.242 18.242 0 0 0 .048 3.756 20.74 20.74 0 0 0 1.611 3.982 25.056 25.056 0 0 1 2.124 5.474c.552 2.873 1.294 11.952 1.4 13.224l14.044 20.2a.5.5 0 0 1 -.049.631l-10.387 10.853a.5.5 0 0 1 -.37.152zm-46.914-38.539a1.341 1.341 0 0 0 -1.212.641 1.547 1.547 0 0 0 .184 1.589c.543.871 2.28 2.327 7.472 4.317a98.039 98.039 0 0 0 9.956 3.129 25.15 25.15 0 0 1 7.828 4.02 44.877 44.877 0 0 1 3.766 2.966q.018.016.034.034l18.894 20.613 9.735-10.172-13.888-19.97a.5.5 0 0 1 -.088-.246c-.008-.1-.821-10.277-1.393-13.249a24.432 24.432 0 0 0 -2.045-5.234 21.176 21.176 0 0 1 -1.689-4.215 18.4 18.4 0 0 1 -.066-4c.088-1.839.187-3.923-.326-4.689a.9.9 0 0 0 -.782-.454c-.87 0-1.987 1.034-2.543 2.354-.737 1.749-1.317 14.029-1.478 18.613a.5.5 0 0 1 -.773.4c-.957-.624-23.056-15.049-24.166-15.778a48.612 48.612 0 0 0 -6.275-.405c-.461 0-.815.011-1.051.034a2.021 2.021 0 0 0 -1.822 1.439 1.908 1.908 0 0 0 .478 2.022c.443.374 2.03 1.155 7.684 2.176 3.266.59 6.322.974 6.353.977a.5.5 0 0 1 -.109.994c-4.855-.46-12.231-1.148-12.654-1.156h-.038a1.8 1.8 0 0 0 -1.542.784 2.5 2.5 0 0 0 .074 2.393c.187.41 1.354 1.574 8.136 3.528 3.809 1.1 7.53 1.9 7.567 1.908a.5.5 0 0 1 -.209.978c-.116-.025-11.595-2.459-13.578-2.684a2.6 2.6 0 0 0 -.294-.017 1.674 1.674 0 0 0 -1.718 1.287 2.077 2.077 0 0 0 1.055 2.344c3.375 1.885 11.522 3.057 11.6 3.068a.5.5 0 0 1 -.136.991c-.095-.013-9.482-1.257-10.853-1.327z" fill="#063964"/><path d="m121.852 128.193h-17.325a7.442 7.442 0 0 1 -7.442-7.443v-46.5a7.442 7.442 0 0 1 7.442-7.442h17.325a7.443 7.443 0 0 1 7.443 7.442v46.5a7.443 7.443 0 0 1 -7.443 7.443" fill="#fff"/><path d="m7.443-.5h17.325a7.951 7.951 0 0 1 7.942 7.942v46.5a7.951 7.951 0 0 1 -7.942 7.942h-17.326a7.951 7.951 0 0 1 -7.942-7.941v-46.5a7.952 7.952 0 0 1 7.943-7.943zm17.325 61.385a6.95 6.95 0 0 0 6.942-6.942v-46.501a6.95 6.95 0 0 0 -6.942-6.942h-17.325a6.951 6.951 0 0 0 -6.943 6.943v46.5a6.95 6.95 0 0 0 6.942 6.942z" fill="#073358" transform="translate(97.085 66.808)"/><path d="m126.295 128.193h-26.21a3 3 0 0 1 -3-3v-55.385a3 3 0 0 1 3-3h26.21a3 3 0 0 1 3 3v55.385a3 3 0 0 1 -3 3m-25.916-59.58a1.644 1.644 0 0 0 -1.643 1.643v54.489a1.643 1.643 0 0 0 1.643 1.643h25.621a1.642 1.642 0 0 0 1.643-1.643v-54.489a1.643 1.643 0 0 0 -1.643-1.643h-4.624v.917a1.6 1.6 0 0 1 -1.6 1.6h-13.076a1.6 1.6 0 0 1 -1.6-1.6v-.917z" fill="#0a396f"/><path d="m126.3 128.693h-26.21a3.5 3.5 0 0 1 -3.5-3.5v-55.385a3.5 3.5 0 0 1 3.5-3.5h26.21a3.5 3.5 0 0 1 3.5 3.5v55.385a3.5 3.5 0 0 1 -3.5 3.5zm-26.21-61.385a2.5 2.5 0 0 0 -2.5 2.5v55.385a2.5 2.5 0 0 0 2.5 2.5h26.21a2.5 2.5 0 0 0 2.5-2.5v-55.385a2.5 2.5 0 0 0 -2.5-2.5zm25.91 59.58h-25.621a2.145 2.145 0 0 1 -2.143-2.143v-54.489a2.145 2.145 0 0 1 2.143-2.143h4.721a.5.5 0 0 1 .5.5v.917a1.1 1.1 0 0 0 1.1 1.1h13.08a1.1 1.1 0 0 0 1.1-1.1v-.917a.5.5 0 0 1 .5-.5h4.62a2.145 2.145 0 0 1 2.143 2.143v54.489a2.145 2.145 0 0 1 -2.143 2.143zm-25.621-57.775a1.144 1.144 0 0 0 -1.143 1.143v54.489a1.144 1.144 0 0 0 1.143 1.143h25.621a1.144 1.144 0 0 0 1.143-1.143v-54.489a1.144 1.144 0 0 0 -1.143-1.143h-4.124v.417a2.1 2.1 0 0 1 -2.1 2.1h-13.076a2.1 2.1 0 0 1 -2.1-2.1v-.417z" fill="#073358"/><path d="m109.5 105.412h-4.47a2.49 2.49 0 0 1 -2.49-2.489v-.507a2.49 2.49 0 0 1 2.49-2.489h4.47a2.488 2.488 0 0 1 2.488 2.489v.507a2.488 2.488 0 0 1 -2.488 2.489" fill="#073358"/><path d="m2.489-.5h4.474a2.993 2.993 0 0 1 2.99 2.99v.51a2.992 2.992 0 0 1 -2.989 2.985h-4.475a2.992 2.992 0 0 1 -2.989-2.985v-.511a2.992 2.992 0 0 1 2.989-2.989zm4.475 5.485a1.991 1.991 0 0 0 1.989-1.985v-.51a1.992 1.992 0 0 0 -1.99-1.99h-4.474a1.991 1.991 0 0 0 -1.989 1.989v.511a1.991 1.991 0 0 0 1.989 1.985z" fill="#063964" transform="translate(102.54 99.927)"/><path d="m121.35 105.412h-4.474a2.49 2.49 0 0 1 -2.49-2.489v-.507a2.49 2.49 0 0 1 2.49-2.489h4.474a2.489 2.489 0 0 1 2.489 2.489v.507a2.489 2.489 0 0 1 -2.489 2.489" fill="#fff"/><path d="m2.489-.5h4.474a2.993 2.993 0 0 1 2.99 2.99v.505a2.993 2.993 0 0 1 -2.99 2.99h-4.474a2.992 2.992 0 0 1 -2.989-2.985v-.511a2.992 2.992 0 0 1 2.989-2.989zm4.474 5.485a1.992 1.992 0 0 0 1.99-1.99v-.505a1.992 1.992 0 0 0 -1.99-1.99h-4.474a1.991 1.991 0 0 0 -1.989 1.989v.511a1.991 1.991 0 0 0 1.989 1.985z" fill="#063964" transform="translate(114.386 99.927)"/><path d="m105.139 103.658c0-.025 0-.04-.012-.1a4.625 4.625 0 0 1 -.066-.781 4.4 4.4 0 0 1 .046-.652c.012-.073.012-.073.067-.351a1.342 1.342 0 0 0 .027-.182v-.01l.331.035a3.931 3.931 0 0 0 -.2 1.233v.128.039a.517.517 0 0 1 0 .052c.012-.027.012-.027.03-.071 0-.017.017-.045.029-.084l.047-.11a.532.532 0 0 0 .029-.077l.2.091a2.049 2.049 0 0 0 -.243.752.466.466 0 0 0 0 .066zm.555-1.61a1.748 1.748 0 0 0 .445.04h.226c0-.145 0-.268 0-.369a.666.666 0 0 0 -.008-.118l.308-.007a2.283 2.283 0 0 0 -.018.361v.113a2.447 2.447 0 0 0 .332-.059l.054-.019h.02l.01.277a.488.488 0 0 0 -.072.013c-.083.017-.211.039-.341.054v.054c0 .137 0 .142.024.555a1.933 1.933 0 0 1 .386.224.424.424 0 0 0 .069.041l-.118.3a.983.983 0 0 0 -.184-.158l-.155-.1v.034a.415.415 0 0 1 -.02.138c-.056.145-.228.23-.467.23-.322 0-.518-.152-.518-.4s.209-.406.506-.406a.575.575 0 0 1 .219.035c-.008-.062-.01-.182-.02-.524-.1 0-.157 0-.221 0-.091 0-.189 0-.305-.012-.034 0-.061 0-.074 0h-.041a.094.094 0 0 0 -.025 0 .034.034 0 0 0 -.014 0zm.5 1.03c-.157 0-.255.061-.255.162s.088.152.226.152a.242.242 0 0 0 .2-.076.205.205 0 0 0 .031-.132v-.067a.516.516 0 0 0 -.2-.039" fill="#fff"/><path d="m107.867 101.76a2.736 2.736 0 0 0 -.02.374 4.589 4.589 0 0 0 .047.658c.041.256.12.413.2.413.037 0 .071-.037.1-.105a1.868 1.868 0 0 0 .13-.445 1.212 1.212 0 0 0 .245.223c-.127.48-.27.679-.479.679-.164 0-.3-.121-.395-.357a3.7 3.7 0 0 1 -.155-1.282 1.358 1.358 0 0 0 -.01-.158zm1.162.111a2.451 2.451 0 0 1 .553 1.322l-.305.115a2.5 2.5 0 0 0 -.157-.71 2.175 2.175 0 0 0 -.349-.6z" fill="#fff"/><path d="m116.044 101.819a2.736 2.736 0 0 0 -.02.374 4.589 4.589 0 0 0 .047.658c.041.256.12.413.2.413.037 0 .071-.037.1-.105a1.868 1.868 0 0 0 .13-.445 1.212 1.212 0 0 0 .245.223c-.127.48-.27.679-.479.679-.164 0-.3-.121-.395-.357a3.7 3.7 0 0 1 -.155-1.282 1.361 1.361 0 0 0 -.01-.158zm1.162.111a2.451 2.451 0 0 1 .553 1.322l-.305.115a2.5 2.5 0 0 0 -.157-.71 2.175 2.175 0 0 0 -.349-.6z" fill="#073358"/><path d="m118.5 101.819a2.736 2.736 0 0 0 -.02.374 4.589 4.589 0 0 0 .047.658c.041.256.12.413.2.413.037 0 .071-.037.1-.105a1.868 1.868 0 0 0 .13-.445 1.212 1.212 0 0 0 .245.223c-.127.48-.27.679-.479.679-.164 0-.3-.121-.395-.357a3.7 3.7 0 0 1 -.155-1.282 1.361 1.361 0 0 0 -.01-.158zm1.162.111a2.451 2.451 0 0 1 .553 1.322l-.305.115a2.5 2.5 0 0 0 -.157-.71 2.175 2.175 0 0 0 -.349-.6z" fill="#073358"/><path d="m120.766 102.251a.963.963 0 0 0 .145.008 8.568 8.568 0 0 0 .873-.054.611.611 0 0 0 .2-.04l.165.212a1.633 1.633 0 0 0 -.209.184c-.133.128-.344.317-.42.376a.379.379 0 0 1 .15-.03.221.221 0 0 1 .2.1.4.4 0 0 1 .054.226c.017.194.049.228.211.228a1.316 1.316 0 0 0 .484-.093l.037.3c-.042 0-.057 0-.216.03a2.171 2.171 0 0 1 -.344.029.47.47 0 0 1 -.344-.093c-.069-.064-.089-.123-.1-.317a.418.418 0 0 0 -.024-.157.116.116 0 0 0 -.1-.052c-.115 0-.226.069-.425.261-.125.12-.258.263-.346.366l-.226-.256a4.72 4.72 0 0 0 .57-.491c.056-.052.1-.094.285-.27.066-.064.162-.155.287-.273-.14.022-.2.032-.319.042l-.248.019-.128.013c-.091.007-.108.009-.189.019zm.305-.636a3.549 3.549 0 0 0 .978.138l-.047.275a4.587 4.587 0 0 1 -1.019-.145z" fill="#073358"/><path d="m0 0h28.909v8.42h-28.909z" fill="#bad5e0" transform="translate(98.76 77.715)"/><path d="m0-.5h28.909a.5.5 0 0 1 .5.5v8.42a.5.5 0 0 1 -.5.5h-28.909a.5.5 0 0 1 -.5-.5v-8.42a.5.5 0 0 1 .5-.5zm28.409 1h-27.909v7.42h27.909z" fill="#063964" transform="translate(98.76 77.715)"/><g fill="#073358"><path d="m104.931 82.229h-.776a2.7 2.7 0 0 0 -.3.013v-.285a2.429 2.429 0 0 0 .308.013h.77v-.125h-.694c-.118 0-.2 0-.275.01.006-.069.009-.137.009-.219v-.216c0-.092 0-.151-.009-.23.085.007.153.01.278.01h.691v-.125h-.9a3.183 3.183 0 0 0 -.384.02v-.324a3.051 3.051 0 0 0 .4.02h.878a1.2 1.2 0 0 0 -.019-.223h.4a.98.98 0 0 0 -.023.223h.921a3.083 3.083 0 0 0 .4-.02v.329a3.183 3.183 0 0 0 -.384-.02h-.94v.12h.741c.124 0 .2 0 .275-.01a2.11 2.11 0 0 0 -.01.23v.216a1.944 1.944 0 0 0 .01.219c-.073-.006-.157-.01-.262-.01h-.754v.125h.734c.193 0 .259 0 .35-.01a2.421 2.421 0 0 0 -.009.3v.115a1.813 1.813 0 0 0 .285-.017v.312a1.908 1.908 0 0 0 -.285-.017v.19a2.488 2.488 0 0 0 .016.354h-.367v-.128h-.724v.184c0 .295-.082.357-.481.357-.079 0-.21-.007-.315-.013a.93.93 0 0 0 -.1-.325 3.666 3.666 0 0 0 .417.03c.1 0 .127-.016.127-.075v-.158h-.77a2.231 2.231 0 0 0 -.324.017v-.305a2.355 2.355 0 0 0 .311.013h.783v-.141h-.94a2.328 2.328 0 0 0 -.36.017v-.312a2.238 2.238 0 0 0 .354.017h.946zm-.612-.639h.613v-.134h-.613zm.966 0h.659v-.134h-.659zm.724.639h-.724v.144h.724zm-.724.563h.724v-.141h-.724z"/><path d="m108.3 82.969c0 .108 0 .174.006.246a2.08 2.08 0 0 0 .629-.492 2.825 2.825 0 0 1 -.33-.786 1.455 1.455 0 0 1 -.155.193 1.1 1.1 0 0 0 -.209-.307 2.024 2.024 0 0 0 .426-.807 1.879 1.879 0 0 0 .1-.468l.387.059c-.02.059-.033.1-.053.184-.026.1-.049.183-.092.314h.649a2.158 2.158 0 0 0 .325-.02v.354a2.047 2.047 0 0 0 -.249-.013 2.657 2.657 0 0 1 -.361 1.284 2.223 2.223 0 0 0 .668.538 1.267 1.267 0 0 0 -.212.363 2.935 2.935 0 0 1 -.679-.593 2.787 2.787 0 0 1 -.76.6 1.183 1.183 0 0 0 -.193-.331h-.124-.623v.252h-.364a2.112 2.112 0 0 0 .02-.37v-.95c0-.1 0-.181-.01-.256a1.876 1.876 0 0 0 .266.013h.19v-.54h-.295a2.013 2.013 0 0 0 -.3.016v-.352a2.049 2.049 0 0 0 .3.02h.295v-.171a2.046 2.046 0 0 0 -.02-.37h.393a2.081 2.081 0 0 0 -.02.37v.171h.24a1.958 1.958 0 0 0 .3-.02v.351c-.059-.007-.18-.013-.3-.013h-.24v.54h.138a2.015 2.015 0 0 0 .269-.013c-.007.079-.01.151-.01.259zm-.852 0h.511v-.675h-.511zm1.435-1.54c-.02.046-.026.059-.049.1a2.476 2.476 0 0 0 .314.868 2.345 2.345 0 0 0 .24-.973z"/><path d="m111.546 82.573c-.187.423-.4.616-.665.616-.374 0-.642-.38-.642-.908a1.4 1.4 0 0 1 .36-.953 1.472 1.472 0 0 1 1.127-.459 1.181 1.181 0 0 1 1.3 1.216 1.261 1.261 0 0 1 -.8 1.222 2.151 2.151 0 0 1 -.514.137 1.055 1.055 0 0 0 -.2-.383 1.747 1.747 0 0 0 .652-.18.917.917 0 0 0 .455-.819.811.811 0 0 0 -.4-.727.71.71 0 0 0 -.331-.1 4.754 4.754 0 0 1 -.34 1.337m-.482-1.173a1.1 1.1 0 0 0 -.445.885c0 .268.114.481.259.481.108 0 .219-.137.337-.419a4.368 4.368 0 0 0 .272-1.107.826.826 0 0 0 -.423.16"/><path d="m114.258 82.216c-.206.173-.3.311-.3.452 0 .213.239.3.793.3a3.377 3.377 0 0 0 1.029-.14l.036.448c-.056 0-.076.007-.145.013a5.284 5.284 0 0 1 -.884.076 2.347 2.347 0 0 1 -.819-.108.566.566 0 0 1 -.419-.547.927.927 0 0 1 .422-.715zm-.5-1.347a4.294 4.294 0 0 0 .983.082 4.058 4.058 0 0 0 .865-.062l.013.37a5.675 5.675 0 0 0 -.875.541l-.285-.226c.171-.109.331-.2.482-.292a3.44 3.44 0 0 1 -.491.026 5.138 5.138 0 0 1 -.6-.039c-.066-.007-.075-.007-.121-.01zm1.642.659a1.6 1.6 0 0 1 .3.412l-.24.141a2 2 0 0 0 -.3-.422zm.409.347a2.25 2.25 0 0 0 -.291-.406l.229-.128a1.781 1.781 0 0 1 .3.393z"/><path d="m116.452 81.829a1.481 1.481 0 0 0 .262.016h.246a1.5 1.5 0 0 0 .249-.016 3.263 3.263 0 0 0 -.013.357v.7a.441.441 0 0 0 .151.17 1.3 1.3 0 0 0 .759.141 10.168 10.168 0 0 0 1.4-.065 1.6 1.6 0 0 0 -.1.386c-.275.013-.75.02-1.14.02a2 2 0 0 1 -.956-.124.727.727 0 0 1 -.289-.236 3.152 3.152 0 0 1 -.383.314c-.036.03-.065.049-.1.076l-.16-.374a1.955 1.955 0 0 0 .465-.318v-.711h-.18a1.225 1.225 0 0 0 -.22.017zm.269-1.219a4.135 4.135 0 0 1 .57.59l-.275.265a3.279 3.279 0 0 0 -.557-.612zm.845.508a1.273 1.273 0 0 0 -.269.016v-.324a2.7 2.7 0 0 0 .371.017h.494a1.711 1.711 0 0 0 -.019-.246h.366a1.675 1.675 0 0 0 -.019.246h.54a3.58 3.58 0 0 0 .374-.017v.324a2.044 2.044 0 0 0 -.331-.016h-.583v.157h.51a2.233 2.233 0 0 0 .272-.013 1.827 1.827 0 0 0 -.014.253v.674a1.617 1.617 0 0 0 .014.239c-.092-.006-.164-.009-.272-.009h-.508v.157h.6a2.563 2.563 0 0 0 .328-.013v.318a1.93 1.93 0 0 0 -.328-.017h-.6a1.79 1.79 0 0 0 .019.275h-.366a1.645 1.645 0 0 0 .022-.275h-.52a2.95 2.95 0 0 0 -.325.013v-.314a2.317 2.317 0 0 0 .325.013h.52v-.157h-.467c-.1 0-.19 0-.272.009a1.711 1.711 0 0 0 .013-.239v-.689a1.732 1.732 0 0 0 -.013-.233 2.111 2.111 0 0 0 .269.013h.468v-.157zm.2.6h.4v-.183h-.4zm0 .432h.4v-.19h-.4zm.728-.432h.436v-.183h-.436zm0 .432h.436v-.19h-.436z"/><path d="m120.2 82.464a4.47 4.47 0 0 1 -.127.977l-.292-.115a3.177 3.177 0 0 0 .134-.93zm.646-.1c-.01-.046-.023-.1-.036-.151-.082.013-.112.016-.194.023v1.032a2.022 2.022 0 0 0 .02.347h-.354a1.924 1.924 0 0 0 .02-.347v-1.01c-.059 0-.115.01-.144.01-.069.006-.118.01-.135.013-.118.007-.147.01-.2.016l-.036-.34a.577.577 0 0 0 .131.009h.134c.059-.078.079-.1.141-.2a3.115 3.115 0 0 0 -.41-.534l.171-.282c.055.062.085.1.114.134a1.943 1.943 0 0 0 .23-.537l.324.124a.959.959 0 0 0 -.069.122 5.506 5.506 0 0 1 -.291.537 1.673 1.673 0 0 1 .117.157 3.353 3.353 0 0 0 .312-.58l.311.154c-.01.013-.069.105-.17.269-.092.147-.292.429-.439.619.18-.01.226-.013.334-.026a1.633 1.633 0 0 0 -.092-.216l.246-.089a2.815 2.815 0 0 1 .18.442 2.134 2.134 0 0 0 .586-.294 2.558 2.558 0 0 1 -.265-.318 2 2 0 0 1 -.292.269.776.776 0 0 0 -.222-.253 1.729 1.729 0 0 0 .478-.471 1.515 1.515 0 0 0 .219-.423l.348.121-.049.085a.791.791 0 0 0 -.056.092h.406a1.544 1.544 0 0 0 .285-.016l.174.2a1.311 1.311 0 0 0 -.076.118 2.864 2.864 0 0 1 -.432.586 2.419 2.419 0 0 0 .73.3 1.187 1.187 0 0 0 -.157.354c-.059-.02-.072-.026-.117-.039a1.232 1.232 0 0 0 -.007.18v.721a2.2 2.2 0 0 0 .016.331h-.36v-.154h-.705v.154h-.353a2.113 2.113 0 0 0 .016-.325v-.724a1.452 1.452 0 0 0 -.006-.177c-.036.013-.056.023-.115.043a1.183 1.183 0 0 0 -.059-.138zm.1.046a5.556 5.556 0 0 1 .124.773l-.268.078a4.556 4.556 0 0 0 -.109-.8zm1.418-.066h.154a2.273 2.273 0 0 1 -.616-.341 2.679 2.679 0 0 1 -.586.341h.151zm-.8.8h.705v-.485h-.705zm.03-1.946a1.464 1.464 0 0 0 .3.367 1.694 1.694 0 0 0 .3-.39h-.587z"/><path d="m102.227 91.181c0-.105 0-.167.007-.29a1.189 1.189 0 0 1 -.189.2.464.464 0 0 0 -.085-.174 1.518 1.518 0 0 0 .488-.637l.167.1a3.262 3.262 0 0 1 -.211.327v.978a1.723 1.723 0 0 0 .015.285h-.207a2.141 2.141 0 0 0 .015-.287zm.371-1.361c-.017.02-.017.02-.091.123a2.314 2.314 0 0 1 -.412.437.482.482 0 0 0 -.109-.152 1.393 1.393 0 0 0 .445-.511zm.423.189c-.15.027-.2.035-.339.052a.479.479 0 0 0 -.062-.15 3.5 3.5 0 0 0 .573-.091.944.944 0 0 0 .246-.081l.108.14a2.142 2.142 0 0 1 -.369.1v.2h.27a.835.835 0 0 0 .165-.012v.169a1.207 1.207 0 0 0 -.172-.01h-.263v.14h.266a1.3 1.3 0 0 0 .144-.007 1.4 1.4 0 0 0 -.009.187v.39c0 .069 0 .126.007.175-.052 0-.118-.008-.172-.008h-.236v.155h.206a1.549 1.549 0 0 0 .2-.01v.16a1.666 1.666 0 0 0 -.2-.01h-.206v.18c.138-.015.216-.027.423-.062v.143c.059.007.155.015.2.015s.069-.013.069-.05v-1.145h-.07a.818.818 0 0 0 -.172.013v-.192a.889.889 0 0 0 .172.012h.28a1.154 1.154 0 0 0 .2-.012v.189a1.134 1.134 0 0 0 -.2-.013h-.034v1.155c0 .167-.054.207-.273.207-.049 0-.113 0-.2-.008a.545.545 0 0 0 -.025-.162 7.349 7.349 0 0 1 -.862.1 1.115 1.115 0 0 0 -.131.015l-.027-.174h.123s.2-.008.369-.022v-.187h-.22a1.194 1.194 0 0 0 -.2.013v-.165a1.15 1.15 0 0 0 .2.012h.224v-.16h-.224c-.059 0-.125 0-.179.008.005-.049.007-.113.007-.177v-.4c0-.069 0-.128-.007-.177a1.385 1.385 0 0 0 .155.007h.248v-.14h-.273a1.259 1.259 0 0 0 -.162.01v-.169a1.155 1.155 0 0 0 .2.012h.238zm-.243.757h.243v-.166h-.243zm0 .3h.243v-.166h-.243zm.4-.3h.248v-.166h-.248zm0 .3h.248v-.166h-.248zm1.074-1a1.384 1.384 0 0 0 -.189-.01h-.263a.791.791 0 0 0 -.153.012v-.189a.95.95 0 0 0 .185.012h.233a1.205 1.205 0 0 0 .187-.009z"/><path d="m104.784 89.985a1.636 1.636 0 0 0 -.221.01v-.145a1.379 1.379 0 0 0 .221.012h.258a1.155 1.155 0 0 0 -.012-.13h.179a.771.771 0 0 0 -.013.13h.251a1.188 1.188 0 0 0 .209-.012v.15a1.854 1.854 0 0 0 -.213-.01h-.243v.1h.219c.086 0 .136 0 .18-.005a1.526 1.526 0 0 0 -.005.187v.174a1.7 1.7 0 0 0 .005.194c-.042 0-.1 0-.185 0h-.214v.1h.249a1.67 1.67 0 0 0 .214-.009v.108a1.239 1.239 0 0 0 .358-.094.769.769 0 0 1 -.226-.26 1.088 1.088 0 0 0 -.125.01v-.15a1.437 1.437 0 0 0 .194.01h.484a1.016 1.016 0 0 0 .177-.01l.093.1a.324.324 0 0 0 -.036.041 1.226 1.226 0 0 1 -.271.263 1.722 1.722 0 0 0 .487.118.587.587 0 0 0 -.076.165 2 2 0 0 1 -.553-.194 1.56 1.56 0 0 1 -.462.147.547.547 0 0 0 -.059-.115 1.971 1.971 0 0 0 -.2-.008h-.248a1.207 1.207 0 0 0 .01.133h-.174c.007-.054.007-.076.01-.133h-.256a1.585 1.585 0 0 0 -.228.013v-.145a2.245 2.245 0 0 0 .228.009h.256v-.1h-.2a1.734 1.734 0 0 0 -.194 0 1.651 1.651 0 0 0 .007-.167v-.211c0-.069 0-.118-.007-.177.054 0 .1.005.2.005h.192v-.1zm.993 1.28h.538a1.913 1.913 0 0 0 .265-.012v.15c-.091 0-.138-.008-.265-.008h-.538v.118h.695a1.928 1.928 0 0 0 .275-.012v.164a1.869 1.869 0 0 0 -.275-.014h-.695v.13c0 .162-.045.2-.266.2-.054 0-.086 0-.25-.007a.569.569 0 0 0 -.047-.164 2.327 2.327 0 0 0 .307.019c.064 0 .078-.015.078-.071v-.1h-.761a1.9 1.9 0 0 0 -.275.014v-.172a2.218 2.218 0 0 0 .275.01h.761v-.118h-.614c-.123 0-.189 0-.267.008v-.15a2.006 2.006 0 0 0 .267.012h.614v-.113c-.218 0-.221 0-.336 0-.1 0-.106 0-.423 0a.441.441 0 0 0 -.044-.128c.194.008.349.01.521.01a3.778 3.778 0 0 0 1.012-.083l.125.135a4.217 4.217 0 0 1 -.677.061zm-.968-.968h.236v-.108h-.236zm0 .219h.236v-.116h-.236zm.385-.219h.248v-.108h-.248zm0 .219h.246v-.116h-.24zm.8-.585a.386.386 0 0 1 -.076.243.453.453 0 0 1 -.192.143.331.331 0 0 0 -.108-.126.3.3 0 0 0 .226-.329.327.327 0 0 0 -.007-.076 1.443 1.443 0 0 0 .174.007h.234a1.3 1.3 0 0 0 .164-.007 1.4 1.4 0 0 0 -.007.167v.108c0 .042.007.047.076.047.128 0 .128 0 .135-.2a.338.338 0 0 0 .148.057c-.01.157-.022.206-.064.241a.355.355 0 0 1 -.226.044c-.194 0-.226-.02-.226-.13v-.187zm-.039.538a.591.591 0 0 0 .2.192.808.808 0 0 0 .226-.192z"/><path d="m107.76 90.105a1.094 1.094 0 0 0 .111-.327l.231.035a.506.506 0 0 0 -.06.125 1.424 1.424 0 0 1 -.073.165 1.4 1.4 0 0 1 .155-.01 3.258 3.258 0 0 0 .663-.086l.015.2c-.047 0-.047 0-.189.025-.17.022-.485.044-.725.052a2 2 0 0 1 -.2.312.768.768 0 0 1 -.079.09.08.08 0 0 0 -.024.02v.007a.249.249 0 0 1 .034-.024.605.605 0 0 1 .083-.062.639.639 0 0 1 .339-.1.3.3 0 0 1 .332.268c.192-.074.292-.111.413-.153a.71.71 0 0 0 .172-.071l.089.2a3.868 3.868 0 0 0 -.651.209v.143.127.1a.828.828 0 0 0 0 .1h-.2a3.168 3.168 0 0 0 .015-.326v-.076a1.477 1.477 0 0 0 -.295.162.292.292 0 0 0 -.145.231c0 .154.14.218.486.218a2.071 2.071 0 0 0 .669-.1l.022.226a.735.735 0 0 0 -.1.012 4.079 4.079 0 0 1 -.612.047 1.024 1.024 0 0 1 -.5-.1.329.329 0 0 1 -.167-.295.511.511 0 0 1 .261-.4 1.9 1.9 0 0 1 .361-.2c-.015-.121-.071-.175-.182-.175a.9.9 0 0 0 -.533.258.878.878 0 0 0 -.2.209l-.16-.141a2.455 2.455 0 0 0 .538-.678l.023-.039h-.045l-.344-.007a.344.344 0 0 0 -.049 0 .236.236 0 0 0 -.052 0l.005-.2a3.192 3.192 0 0 0 .529.029z"/><path d="m110.395 90.368a2.025 2.025 0 0 1 -.266.189.83.83 0 0 0 -.113-.15l.067-.036c-.047 0-.079-.005-.123-.005h-.081a1.425 1.425 0 0 0 .28.476.613.613 0 0 0 -.1.155 2.053 2.053 0 0 1 -.2-.4c.007.089.012.253.012.376v.715a2.08 2.08 0 0 0 .015.29h-.2a2.345 2.345 0 0 0 .014-.29v-.641c0-.106 0-.224.013-.369-.013.044-.022.079-.03.1a2.145 2.145 0 0 1 -.246.6.567.567 0 0 0 -.11-.174 2.352 2.352 0 0 0 .349-.838h-.123a.925.925 0 0 0 -.167.01v-.19a.925.925 0 0 0 .167.01h.145v-.221a1.591 1.591 0 0 0 -.012-.253h.2a1.589 1.589 0 0 0 -.012.251v.227h.088a.79.79 0 0 0 .15-.01v.17a1.579 1.579 0 0 0 .58-.6h.2a1.26 1.26 0 0 0 .28.322 1.7 1.7 0 0 0 .482.3.648.648 0 0 0 -.1.172 2.477 2.477 0 0 1 -.31-.194v.14c-.064-.005-.118-.007-.214-.007h-.14v.107.088h.342c.1 0 .16 0 .221-.007 0 .066-.007.12-.007.179v.258a1.331 1.331 0 0 0 .007.184 2.166 2.166 0 0 0 -.238-.009h-.282a1.09 1.09 0 0 0 .7.489.749.749 0 0 0 -.1.181 1.258 1.258 0 0 1 -.727-.6 1 1 0 0 1 -.691.6.483.483 0 0 0 -.113-.169 1.132 1.132 0 0 0 .411-.18.616.616 0 0 0 .24-.321h-.233a2.081 2.081 0 0 0 -.224.009 1.424 1.424 0 0 0 .008-.152v-.31a1.454 1.454 0 0 0 -.008-.162 1.643 1.643 0 0 0 .214.007h.317v-.2h-.106c-.1 0-.14 0-.213.007zm-.035.472v.3h.32a2.587 2.587 0 0 0 .029-.3zm.661-.511a1.673 1.673 0 0 0 .172-.005 1.7 1.7 0 0 1 -.4-.418 1.727 1.727 0 0 1 -.352.418 1.659 1.659 0 0 0 .167.005zm-.145.511a2.1 2.1 0 0 1 -.027.3h.415v-.3z"/><path d="m112.27 90.235a1.636 1.636 0 0 1 -.224.352.6.6 0 0 0 -.147-.131 1.261 1.261 0 0 0 .322-.6.626.626 0 0 0 .024-.14l.2.034c-.012.035-.019.059-.041.133s-.035.113-.06.182h.423a1.217 1.217 0 0 0 .241-.015v.2a1.865 1.865 0 0 0 -.241-.013h-.14c0 .271-.007.312-.017.438h.194a1.425 1.425 0 0 0 .231-.015v.2a1.61 1.61 0 0 0 -.233-.014h-.209c-.005.042-.01.081-.017.122a1.489 1.489 0 0 0 .464.549.7.7 0 0 0 -.115.179 1.911 1.911 0 0 1 -.4-.5 1.335 1.335 0 0 1 -.487.686.456.456 0 0 0 -.145-.155 1.086 1.086 0 0 0 .435-.5 1.476 1.476 0 0 0 .093-.373h-.221a1.551 1.551 0 0 0 -.263.014v-.2a1.526 1.526 0 0 0 .268.015h.23c.01-.158.01-.158.013-.438zm1.024 1.647h-.2a2.244 2.244 0 0 0 .015-.281v-1.39c0-.1 0-.172-.013-.258a1.339 1.339 0 0 0 .219.012h.5a1.388 1.388 0 0 0 .221-.012 1.854 1.854 0 0 0 -.012.258v1.371a2.731 2.731 0 0 0 .014.3h-.2v-.173h-.546zm0-.344h.543v-1.4h-.537z"/><path d="m114.929 89.852a1.965 1.965 0 0 0 -.027.305c-.01.179-.024.774-.024.938a.7.7 0 0 0 .068.4.412.412 0 0 0 .359.145.684.684 0 0 0 .631-.427 1.36 1.36 0 0 0 .121-.393.781.781 0 0 0 .209.14 1.529 1.529 0 0 1 -.278.577.885.885 0 0 1 -.7.307.73.73 0 0 1 -.41-.105.52.52 0 0 1 -.182-.263 1.265 1.265 0 0 1 -.034-.325c0-.15 0-.226.019-1 0-.072 0-.128 0-.165a1.259 1.259 0 0 0 -.008-.137z"/><path d="m118.417 91.769a1.824 1.824 0 0 0 -.5-.354 1.537 1.537 0 0 0 -.143-.064.518.518 0 0 1 0 .064.526.526 0 0 1 -.059.253c-.064.113-.229.175-.462.175-.31 0-.5-.135-.5-.352 0-.241.229-.386.607-.386a1.436 1.436 0 0 1 .216.015c0-.059 0-.059-.012-.312-.13 0-.216.005-.278.005a4.141 4.141 0 0 1 -.422-.02c-.03 0-.049 0-.064 0h-.022v-.192a3.05 3.05 0 0 0 .568.04h.214c0-.243 0-.268 0-.307-.084 0-.126 0-.172 0-.148 0-.418-.012-.593-.025-.022 0-.039 0-.049 0a.246.246 0 0 0 -.034 0v-.2a3.166 3.166 0 0 0 .639.05h.207a1.836 1.836 0 0 0 -.013-.339h.222a2.386 2.386 0 0 0 -.018.331 3.218 3.218 0 0 0 .725-.1l.01.2a1.648 1.648 0 0 0 -.177.022 5.468 5.468 0 0 1 -.558.054v.305a3.112 3.112 0 0 0 .673-.1l.01.2c-.041 0-.049.005-.238.032-.1.015-.314.034-.442.042.007.25.007.25.012.351a2.214 2.214 0 0 1 .683.356c.042.027.052.037.086.057zm-1.081-.489a.5.5 0 0 0 -.342.1.153.153 0 0 0 -.039.1c0 .113.118.18.315.18a.353.353 0 0 0 .26-.076.289.289 0 0 0 .049-.2c0-.02 0-.084 0-.084a1 1 0 0 0 -.241-.024"/><path d="m119.4 89.852a1.965 1.965 0 0 0 -.027.305c-.01.179-.024.774-.024.938a.7.7 0 0 0 .068.4.412.412 0 0 0 .359.145.684.684 0 0 0 .631-.427 1.36 1.36 0 0 0 .121-.393.781.781 0 0 0 .209.14 1.529 1.529 0 0 1 -.278.577.885.885 0 0 1 -.7.307.73.73 0 0 1 -.41-.105.52.52 0 0 1 -.182-.263 1.265 1.265 0 0 1 -.034-.325c0-.15 0-.226.019-1 0-.072 0-.128 0-.165a1.259 1.259 0 0 0 -.008-.137z"/><path d="m121.1 90.208a1.738 1.738 0 0 0 .314.022h.135a2.841 2.841 0 0 0 .054-.413v-.032l.232.025a2.17 2.17 0 0 0 -.045.233c-.015.083-.019.111-.032.174a2.01 2.01 0 0 0 .438-.081l.009.2a.633.633 0 0 0 -.071.012 3.582 3.582 0 0 1 -.41.057c-.035.184-.1.452-.167.678a7.105 7.105 0 0 1 -.28.769l-.217-.091a4.886 4.886 0 0 0 .455-1.347c-.032 0-.123 0-.2 0h-.152-.063zm1.135.912a.569.569 0 0 0 -.1.14.327.327 0 0 0 -.032.132c0 .136.147.212.413.212a1.762 1.762 0 0 0 .545-.089l.02.219-.113.019a2.574 2.574 0 0 1 -.443.042c-.41 0-.626-.13-.626-.38a.594.594 0 0 1 .169-.374zm.747-.4a2.041 2.041 0 0 0 -.3-.02 2.278 2.278 0 0 0 -.622.082l-.019-.2a2.917 2.917 0 0 1 .673-.081c.047 0 .081 0 .261.007z"/><path d="m124.183 91.567a.379.379 0 0 1 -.38.383.382.382 0 1 1 0-.764.379.379 0 0 1 .38.381m-.6 0a.223.223 0 1 0 .445 0 .222.222 0 0 0 -.221-.224.225.225 0 0 0 -.224.224"/><path d="m107.117 95.245h-.584a2.2 2.2 0 0 0 -.231.01v-.172a1.376 1.376 0 0 0 .236.013h.579v-.138h-.523a1.451 1.451 0 0 0 -.2.01 1.246 1.246 0 0 0 .009-.167v-.123a1.342 1.342 0 0 0 -.009-.17 1.475 1.475 0 0 0 .2.01h.521v-.14h-.707a2.141 2.141 0 0 0 -.28.015v-.184a2.056 2.056 0 0 0 .287.014h.7a.987.987 0 0 0 -.014-.209h.206a.76.76 0 0 0 -.017.209h.735a2.066 2.066 0 0 0 .287-.014v.184a2.161 2.161 0 0 0 -.278-.015h-.744v.14h.565a1.426 1.426 0 0 0 .2-.01 1.294 1.294 0 0 0 -.009.17v.122a1.248 1.248 0 0 0 .009.167 1.4 1.4 0 0 0 -.2-.01h-.57v.143h.54a2.358 2.358 0 0 0 .271-.01 1.969 1.969 0 0 0 -.008.214v.095a1.335 1.335 0 0 0 .248-.015v.178a1.391 1.391 0 0 0 -.248-.013v.16a1.3 1.3 0 0 0 .015.25h-.192v-.1h-.626v.185c0 .181-.054.221-.31.221-.051 0-.125 0-.233-.01a.453.453 0 0 0 -.052-.18 2.163 2.163 0 0 0 .312.025c.086 0 .108-.012.108-.064v-.177h-.594a1.644 1.644 0 0 0 -.241.013v-.175a1.969 1.969 0 0 0 .236.01h.6v-.16h-.734a1.737 1.737 0 0 0 -.268.013v-.18a1.3 1.3 0 0 0 .265.015h.737zm-.535-.427h.536v-.157h-.536zm.71 0h.578v-.157h-.578zm.626.427h-.627v.15h.627zm-.626.46h.627v-.16h-.627z"/><path d="m109.395 95.115c.078 0 .139 0 .189-.007a1.732 1.732 0 0 0 -.007.174v.538c0 .086 0 .142.007.2a.738.738 0 0 1 -.074 0h-.1-.5v.194h-.2a1.521 1.521 0 0 0 .015-.241v-.683c0-.064 0-.123-.008-.174.049 0 .111.007.187.007h.167v-.477h-.253a1.371 1.371 0 0 0 -.216.015v-.2a1.426 1.426 0 0 0 .216.015h.253v-.2a1.263 1.263 0 0 0 -.014-.246h.211a1.244 1.244 0 0 0 -.015.246v.2h.224a1.274 1.274 0 0 0 .213-.012v.191a1.611 1.611 0 0 0 -.213-.012h-.224v.477zm-.485.732h.487v-.568h-.487zm1.929-1.214a1.29 1.29 0 0 0 -.216-.012 2.037 2.037 0 0 1 -.3.98 1.863 1.863 0 0 0 .565.482.566.566 0 0 0 -.121.184 2.244 2.244 0 0 1 -.557-.5 2.02 2.02 0 0 1 -.619.5.577.577 0 0 0 -.118-.177 1.658 1.658 0 0 0 .626-.484 2.056 2.056 0 0 1 -.28-.665 1.763 1.763 0 0 1 -.152.211.478.478 0 0 0 -.121-.15 1.6 1.6 0 0 0 .325-.614 1.718 1.718 0 0 0 .083-.384l.209.035a.887.887 0 0 0 -.042.145c-.046.167-.051.189-.078.267h.558a1.518 1.518 0 0 0 .235-.014zm-.857-.012a.865.865 0 0 1 -.045.1 2.052 2.052 0 0 0 .276.718 1.76 1.76 0 0 0 .162-.411 1.89 1.89 0 0 0 .061-.4z"/><path d="m111.183 94.427h.088c.034 0 .066 0 .142-.007.344-.025 1.018-.064 1.423-.081a1.742 1.742 0 0 0 .287-.025l.018.219h-.03a1.17 1.17 0 0 0 -.626.211.785.785 0 0 0 -.389.624.454.454 0 0 0 .369.445 1.156 1.156 0 0 0 .369.064l-.035.238a.549.549 0 0 0 -.079-.014 1.363 1.363 0 0 1 -.543-.182.615.615 0 0 1 -.292-.531.984.984 0 0 1 .659-.865 5.193 5.193 0 0 1 -.541.054 6.859 6.859 0 0 0 -.808.079zm1.724.717a1.6 1.6 0 0 0 -.218-.341l.137-.066a1.572 1.572 0 0 1 .224.336zm.246-.12a1.6 1.6 0 0 0 -.216-.337l.135-.066a1.67 1.67 0 0 1 .221.329z"/><path d="m114.725 94.236a1.324 1.324 0 0 0 -.012-.143h.221a2.053 2.053 0 0 0 -.013.322c.46 0 .647-.007.728-.017v.202c-.094-.009-.182-.012-.452-.012h-.273v.471a.718.718 0 0 1 .062.305.772.772 0 0 1 -.337.649 1.612 1.612 0 0 1 -.4.2.627.627 0 0 0 -.126-.189.9.9 0 0 0 .612-.4.552.552 0 0 0 .071-.249.366.366 0 0 1 -.066.108.424.424 0 0 1 -.727-.272.423.423 0 0 1 .454-.418.37.37 0 0 1 .273.1v-.017c0-.022 0-.15 0-.285-.42.007-.993.04-1.145.064l-.008-.211h.106c.067 0 .081 0 .452-.015l.592-.017zm-.516.968a.226.226 0 0 0 .241.233.259.259 0 0 0 .272-.27.162.162 0 0 0 -.049-.13.274.274 0 0 0 -.194-.071.25.25 0 0 0 -.27.238"/><path d="m116 94.71c.088 0 .334-.03.54-.061a3.508 3.508 0 0 0 .069-.517v-.032l.231.024a1.681 1.681 0 0 0 -.044.229c-.013.066-.04.221-.052.28.059-.005.1-.008.15-.008a.472.472 0 0 1 .354.111.524.524 0 0 1 .118.408 1.653 1.653 0 0 1 -.172.86.277.277 0 0 1 -.251.113.991.991 0 0 1 -.371-.091.545.545 0 0 0 .005-.084.712.712 0 0 0 -.012-.137.964.964 0 0 0 .361.11.153.153 0 0 0 .138-.11 1.938 1.938 0 0 0 .1-.671c0-.251-.069-.329-.288-.329a1.363 1.363 0 0 0 -.167.01 4.558 4.558 0 0 1 -.361 1.027c-.034.068-.086.172-.159.309l-.2-.115a2.412 2.412 0 0 0 .255-.45 3.879 3.879 0 0 0 .261-.754 3.523 3.523 0 0 0 -.477.086zm1.646-.231a2.275 2.275 0 0 1 .511.894l-.194.1a2.048 2.048 0 0 0 -.494-.91z"/><path d="m119.023 95.609a.944.944 0 0 0 .008-.155.436.436 0 0 1 .093-.3c.049-.067.066-.082.219-.185a.924.924 0 0 0 .164-.132.276.276 0 0 0 .079-.187c0-.175-.15-.292-.373-.292a.4.4 0 0 0 -.43.343l-.249-.034a.625.625 0 0 1 .2-.351.717.717 0 0 1 .487-.155.678.678 0 0 1 .437.133.422.422 0 0 1 .17.331.458.458 0 0 1 -.057.239.651.651 0 0 1 -.226.218c-.157.111-.189.135-.223.185a.341.341 0 0 0 -.062.218.963.963 0 0 0 .01.128zm.258.484h-.27v-.26h.27z"/></g><path d="m131.708 111.68s-4.546-3.115-2.1-12.611" fill="#f7d7c5"/><path d="m131.709 112.18a.5.5 0 0 1 -.283-.088 6.964 6.964 0 0 1 -2.145-2.962 11.958 11.958 0 0 1 -.875-4.059 20.615 20.615 0 0 1 .72-6.127.5.5 0 1 1 .968.25c-.671 2.606-1.2 6.365.078 9.474a6.191 6.191 0 0 0 1.822 2.6.5.5 0 0 1 -.284.911z" fill="#063964"/></g><g clip-path="url(#a)"><path d="m113.356 60.3a28.876 28.876 0 1 1 -28.079 22.025l-10.632-6.3a.5.5 0 0 1 .395-.91l11.482 3.338a28.907 28.907 0 0 1 26.834-18.153zm-.068 56.75a28.16 28.16 0 0 0 4.65-.389 27.873 27.873 0 0 0 -4.582-55.36 28.162 28.162 0 0 0 -4.65.389 27.852 27.852 0 0 0 -21.419 17.545.5.5 0 0 1 -.607.3l-8.134-2.364 7.562 4.483a.5.5 0 0 1 .229.555 27.876 27.876 0 0 0 26.951 34.839z" fill="#063964"/><path d="m66.515 76.307.738 5.655a3.625 3.625 0 0 0 2.418.328 3.429 3.429 0 0 0 1.393-1.68l-1.311-.779-.779.492s-.738-4.057-2.459-4.016" fill="#84c5df"/><path d="m66.541 75.807c.932 0 1.712.782 2.32 2.325a12.023 12.023 0 0 1 .444 1.391l.181-.114a.5.5 0 0 1 .522-.007l1.311.779a.5.5 0 0 1 .211.61 3.823 3.823 0 0 1 -1.652 1.954 2.07 2.07 0 0 1 -.861.169 5.273 5.273 0 0 1 -1.983-.5.5.5 0 0 1 -.277-.385l-.738-5.655a.5.5 0 0 1 .484-.565zm2.433 5.016a.5.5 0 0 1 -.492-.41 11.732 11.732 0 0 0 -.556-1.926 4.194 4.194 0 0 0 -.8-1.376l.588 4.506a3.86 3.86 0 0 0 1.306.3 1.09 1.09 0 0 0 .447-.079 2.4 2.4 0 0 0 .951-1.029l-.654-.389-.52.328a.5.5 0 0 1 -.27.075z" fill="#063964"/><g clip-path="url(#h)" opacity=".3"><path d="m73.3 98.421c0 1.948-3.128 3.527-6.987 3.527s-6.987-1.579-6.987-3.527 3.129-3.527 6.987-3.527 6.987 1.579 6.987 3.527" fill="#190e0e"/></g><path d="m66.564 99.482c-.841.259-3.124-.372-3.43-.89s.074-1.147.073-1.543a6.069 6.069 0 0 0 1.874.26c.141.106.352.469.527.605.694.538 1.8 1.309.956 1.568" fill="#f3f4f4"/><path d="m66.064 100.042a6.718 6.718 0 0 1 -1.9-.336 2.6 2.6 0 0 1 -1.457-.86 1.863 1.863 0 0 1 -.064-1.472 1.823 1.823 0 0 0 .068-.324.5.5 0 0 1 .64-.481 6.82 6.82 0 0 0 1.479.257 1.228 1.228 0 0 0 .18-.011.5.5 0 0 1 .376.095 1.9 1.9 0 0 1 .336.373 2.124 2.124 0 0 0 .2.237l.161.124c.715.548 1.39 1.065 1.279 1.681a.828.828 0 0 1 -.645.636 2.23 2.23 0 0 1 -.653.081zm-2.5-1.712a5.108 5.108 0 0 0 2.5.712h.134c-.208-.2-.54-.456-.729-.6l-.166-.128a2.258 2.258 0 0 1 -.379-.421l-.048-.062a5.936 5.936 0 0 1 -1.277-.163.976.976 0 0 0 -.039.662z" fill="#082d4e"/><path d="m69.572 98.695c-.771.424-2.874-.652-3.06-1.153a10.584 10.584 0 0 1 0-1.2l1.8-.369.112 1.235c.589.367 1.651 1.206 1.146 1.484" fill="#f3f4f4"/><path d="m69.117 99.292a4.544 4.544 0 0 1 -1.82-.52c-.4-.2-1.086-.6-1.254-1.055a4.084 4.084 0 0 1 -.032-1.391.5.5 0 0 1 .4-.469l1.8-.369a.5.5 0 0 1 .6.445l.09.994a6.324 6.324 0 0 1 .686.538 1.468 1.468 0 0 1 .616 1.05.722.722 0 0 1 -.391.62 1.431 1.431 0 0 1 -.695.157zm-2.122-1.915a4.165 4.165 0 0 0 2.01.91 5.01 5.01 0 0 0 -.843-.652.5.5 0 0 1 -.234-.379l-.062-.678-.866.178c-.009.258-.011.5-.005.621z" fill="#082d4e"/><path d="m63.051 84.195c-.237.987-.2 12.854-.2 12.854a3.271 3.271 0 0 0 2.721.364l.362-9.7.163 9.216a3.346 3.346 0 0 0 2.139-.3l-.011-12.373z" fill="#175f95"/><path d="m63.051 83.695h.006l5.174.066a.5.5 0 0 1 .494.5l.011 12.373a.5.5 0 0 1 -.239.427 3.345 3.345 0 0 1 -1.717.43 4.391 4.391 0 0 1 -.708-.056.5.5 0 0 1 -.309.441 3.059 3.059 0 0 1 -1.1.181 4.121 4.121 0 0 1 -2.064-.574.5.5 0 0 1 -.252-.432c0-1.221-.03-11.956.214-12.972a.5.5 0 0 1 .49-.384zm4.675 1.06-4.233-.055c-.122 1.694-.153 7.922-.143 12.046a3.045 3.045 0 0 0 1.316.31 2.569 2.569 0 0 0 .42-.034l.348-9.326a.5.5 0 0 1 1 .01l.155 8.779c.059 0 .123.005.19.005a2.627 2.627 0 0 0 .956-.164z" fill="#063964"/><path d="m62.817 83.513a1.427 1.427 0 0 1 -.805-.575c-.987-1.483-.278-5.137.385-5.94.441-.535 3.2-1.145 3.2-1.145a10.047 10.047 0 0 1 1.574.9c.99.722 1.039 2.185 1.025 3.361-.021 1.818.327 4.756.327 4.756a19.016 19.016 0 0 1 -5.725.21z" fill="#84c5df"/><path d="m65.4 85.714c-1.414 0-2.6-.127-2.655-.132a.5.5 0 0 1 -.446-.5l.016-1.228a1.867 1.867 0 0 1 -.717-.635 5.841 5.841 0 0 1 -.506-3.558 6.782 6.782 0 0 1 .922-2.977c.173-.21.559-.507 2.009-.934.752-.222 1.439-.374 1.467-.38a.5.5 0 0 1 .312.032 10.48 10.48 0 0 1 1.665.957c1.264.922 1.242 2.775 1.23 3.771-.02 1.765.32 4.662.324 4.691a.5.5 0 0 1 -.351.537 11.742 11.742 0 0 1 -3.27.356zm-2.1-1.086c.467.037 1.246.086 2.1.086a12.812 12.812 0 0 0 2.579-.216 43.538 43.538 0 0 1 -.282-4.386c.013-1.129-.038-2.381-.82-2.951a9.244 9.244 0 0 0 -1.337-.782 9.455 9.455 0 0 0 -2.758.94c-.526.637-1.2 4.068-.353 5.343a.935.935 0 0 0 .528.372.5.5 0 0 1 .361.487z" fill="#063964"/><path d="m68.1 71.573s.63 3.4-.534 4.04a1.667 1.667 0 0 1 -1.178.28v.786s-.848.736-1.936-.365a6.575 6.575 0 0 1 -.143-1.5s-.868-.5-.787-1.271a5.336 5.336 0 0 1 1.078-3.172 2.345 2.345 0 0 1 3.509 1.2" fill="#f7d7c5"/><path d="m65.863 69.49a2.69 2.69 0 0 1 2.723 1.95q.006.021.01.042a12.324 12.324 0 0 1 .178 1.865c.019 1.454-.3 2.339-.963 2.7a2.922 2.922 0 0 1 -.918.334v.293a.5.5 0 0 1 -.172.378 1.67 1.67 0 0 1 -1.047.363 2.215 2.215 0 0 1 -1.573-.754.5.5 0 0 1 -.131-.235 6.96 6.96 0 0 1 -.157-1.358 1.847 1.847 0 0 1 -.784-1.585 5.841 5.841 0 0 1 1.207-3.465 2.35 2.35 0 0 1 1.627-.528zm1.753 2.2a1.708 1.708 0 0 0 -1.753-1.2 1.528 1.528 0 0 0 -.91.229 4.833 4.833 0 0 0 -.93 2.873c-.039.369.417.714.541.787a.5.5 0 0 1 .248.442 6.344 6.344 0 0 0 .1 1.24 1.168 1.168 0 0 0 .759.359.709.709 0 0 0 .219-.035v-.492a.5.5 0 0 1 .2-.425.457.457 0 0 1 .435-.058.486.486 0 0 0 .053 0 1.615 1.615 0 0 0 .75-.238c.551-.299.521-2.209.288-3.486z" fill="#063964"/><g fill="#0c2d51"><path d="m66.167 73.221a.279.279 0 1 1 -.316-.243.281.281 0 0 1 .316.243"/><path d="m67.585 73.221a.279.279 0 1 1 -.316-.243.281.281 0 0 1 .316.243"/><path d="m64.624 73.03.281-1.178a9.26 9.26 0 0 0 3.941-.463 9.681 9.681 0 0 1 -.9-.592c.309-.3.675-.72.539-.959-.169-.3-1.12.034-1.5.182a2.169 2.169 0 0 0 -.289-.127l.268-.686a2.935 2.935 0 0 0 -.986.521 2.6 2.6 0 0 0 -2.08.723 3.308 3.308 0 0 0 -.252 3.563.9.9 0 0 1 .98-.984"/></g><path d="m63.644 74.514a.5.5 0 0 1 -.44-.263 3.818 3.818 0 0 1 .289-4.1 2.983 2.983 0 0 1 2.339-.933c.638-.425.913-.515 1.12-.515h.045a.5.5 0 0 1 .448.63 2.866 2.866 0 0 1 .726-.119.788.788 0 0 1 .747.371 1.015 1.015 0 0 1 -.217 1.123c.221.143.39.24.393.241a.5.5 0 0 1 -.031.885 7.848 7.848 0 0 1 -3.172.551c-.23 0-.433-.006-.6-.013l-.183.768a.485.485 0 0 1 -.522.383h-.006c-.436 0-.436.34-.436.485a.5.5 0 0 1 -.5.5zm2.139-4.292a2.086 2.086 0 0 0 -1.484.525 2.723 2.723 0 0 0 -.539 2.013 1.437 1.437 0 0 1 .46-.191l.2-.833a.5.5 0 0 1 .534-.382s.392.037.938.037a9.283 9.283 0 0 0 1.8-.158l-.049-.037a.5.5 0 0 1 -.045-.76c.054-.052.1-.1.142-.143a5.772 5.772 0 0 0 -.576.192.5.5 0 0 1 -.423-.029 1.755 1.755 0 0 0 -.224-.1.5.5 0 0 1 -.258-.221.5.5 0 0 1 -.316.086c-.053.002-.107.001-.16.001z" fill="#082d4e"/><path d="m64.339 80.2 1.159.59s1.749-.695 1.575-1.368c-.1-.388.9-.863-.064-1.1-.574-.137-1.785.7-2.146 1.116z" fill="#f7d7c5"/><path d="m65.5 81.286a.5.5 0 0 1 -.227-.054l-1.159-.59a.5.5 0 0 1 -.184-.73l.524-.757a.5.5 0 0 1 .032-.041 4.224 4.224 0 0 1 2.387-1.305 1.1 1.1 0 0 1 .255.029.99.99 0 0 1 .766.549.934.934 0 0 1 -.23.88c-.026.036-.062.085-.085.122.073.482-.25.95-.962 1.392a6.627 6.627 0 0 1 -.932.471.5.5 0 0 1 -.185.034zm-.422-1.276.441.224a2.748 2.748 0 0 0 1.064-.724.9.9 0 0 1 .17-.688 3.874 3.874 0 0 0 -1.493.925z" fill="#063964"/><path d="m62.833 83.518a1.594 1.594 0 0 0 1.591-.495 6.916 6.916 0 0 0 1.535-2.289l-1.529-.944-1.565 1.548" fill="#84c5df"/><path d="m63.229 84.072a1.975 1.975 0 0 1 -.529-.072.5.5 0 1 1 .268-.963 1.1 1.1 0 0 0 1.087-.35 8.434 8.434 0 0 0 1.273-1.755l-.825-.509-1.285 1.271a.5.5 0 0 1 -.7-.711l1.565-1.548a.5.5 0 0 1 .614-.07l1.529.944a.5.5 0 0 1 .216.569 7.263 7.263 0 0 1 -1.644 2.482 2.123 2.123 0 0 1 -1.569.712z" fill="#063964"/><path d="m69.055 79.463 1.8-.7 1.148-3.237-1.8.7z" fill="#398c97"/><path d="m69.055 79.963a.5.5 0 0 1 -.471-.667l1.147-3.238a.5.5 0 0 1 .291-.3l1.8-.7a.5.5 0 0 1 .651.634l-1.143 3.241a.5.5 0 0 1 -.291.3l-1.8.7a.5.5 0 0 1 -.184.03zm1.545-3.355-.707 2 .574-.222.708-2z" fill="#063964"/><path d="m71.432 79.176s-.205-1.147-.41-1.066-.246.41-.246.41-.9-.451-1.147-.164 0 1.025.205 1.271a3.7 3.7 0 0 0 .778.574c.123.082.492.041.82-1.025" fill="#f7d7c5"/><path d="m70.71 80.728a.673.673 0 0 1 -.375-.111l-.087-.054a3.275 3.275 0 0 1 -.8-.616c-.308-.37-.659-1.382-.2-1.916a.816.816 0 0 1 .65-.27 2.082 2.082 0 0 1 .622.117.784.784 0 0 1 .315-.231.558.558 0 0 1 .207-.04c.506 0 .666.588.751.9.077.285.128.566.13.578a.5.5 0 0 1 -.014.235c-.286.935-.69 1.408-1.199 1.408zm-.682-1.951a1.3 1.3 0 0 0 .19.53 2.3 2.3 0 0 0 .466.351 2.164 2.164 0 0 0 .233-.513c-.009-.044-.018-.088-.028-.132a.513.513 0 0 1 -.336-.046 2.6 2.6 0 0 0 -.525-.19z" fill="#063964"/><path d="m0 .5a.42.42 0 0 1 -.418-.38.42.42 0 0 1 .38-.456l.9-.082a.42.42 0 0 1 .456.38.42.42 0 0 1 -.378.456l-.902.082z" fill="#082d4e" transform="translate(66.309 74.586)"/></g></g></g></svg>