<svg height="108" viewBox="0 0 108 108" width="108" xmlns="http://www.w3.org/2000/svg" xmlns:xlink="http://www.w3.org/1999/xlink"><clipPath id="a"><path d="m41.96 13.245h107.999v108h-107.999z"/></clipPath><clipPath id="b"><path d="m93.785 75.594h67.307v34.499h-67.307z"/></clipPath><clipPath id="c"><path d="m69.479 83.833h60.02v32.236h-60.02z"/></clipPath><clipPath id="d"><path d="m100.223 85.795h10.361v4.285h-10.361z"/></clipPath><clipPath id="e"><path d="m80.113 84.104h3.336v4.805h-3.336z"/></clipPath><clipPath id="f"><path d="m50.523 102.56h14.416v7.278h-14.416z"/></clipPath><clipPath id="g"><path d="m60.592 46.789c0 9.284 5.887 17.424 14.73 22.007l-11.922 12.116 18.98-9.4a37.186 37.186 0 0 0 9.49 1.219c17.274 0 31.277-11.613 31.277-25.937s-14-25.937-31.277-25.937-31.278 11.607-31.278 25.932"/></clipPath><clipPath id="h"><path d="m0 0h108v108h-108z"/></clipPath><g clip-path="url(#h)"><path d="m0 0h108v108h-108z" fill="#fff"/><g transform="translate(-41.959 -13.245)"><path d="m41.96 88.954v32.291h17.151l90.848-52.572v-42.673z" fill="#576b74"/><g clip-path="url(#a)"><path d="m157.538 21v43.865l-110.043 63.679-37.4-21.6.745-.434zm-1 43.284v-41.539l-144.45 84.2 35.406 20.445z" fill="#063964"/></g><path d="m135.214 13.245-93.254 52.926v22.509l108-62.7v-12.735z" fill="#7a8992"/><g clip-path="url(#a)"><path d="m20.9 101.482-20.9-12.071 157.538-89.411v22.163zm-18.888-12.063 18.888 10.907 135.638-78.739v-19.869z" fill="#063964"/><path d="m101.12 44.056v8.4a.993.993 0 0 0 1.917 0v-8.4" fill="#d4e1e9"/><path d="m102.078 53.688a1.345 1.345 0 0 1 -1.458-1.233v-8.4a.5.5 0 1 1 1 0v8.4c0 .082.174.233.458.233s.459-.151.459-.233v-8.4a.5.5 0 1 1 1 0v8.4a1.346 1.346 0 0 1 -1.459 1.233z" fill="#063964"/><path d="m103.037 44.056a.994.994 0 1 1 -.958-.732.868.868 0 0 1 .958.732" fill="#d4e1e9"/><path d="m102.079 42.824a1.25 1.25 0 1 1 -1.459 1.232 1.345 1.345 0 0 1 1.459-1.232zm0 1.465c.284 0 .458-.151.458-.233s-.174-.232-.458-.232-.459.15-.459.232.174.233.459.233z" fill="#063964"/><path d="m70.222 61.89v8.4a.993.993 0 0 0 1.917 0v-8.4" fill="#d4e1e9"/><path d="m71.18 71.522a1.345 1.345 0 0 1 -1.458-1.233v-8.4a.5.5 0 0 1 1 0v8.4c0 .082.174.233.458.233s.459-.151.459-.233v-8.4a.5.5 0 0 1 1 0v8.4a1.346 1.346 0 0 1 -1.459 1.233z" fill="#063964"/><path d="m72.139 61.89a.993.993 0 1 1 -.958-.733.868.868 0 0 1 .958.733" fill="#d4e1e9"/><path d="m71.181 60.657a1.251 1.251 0 1 1 -1.459 1.233 1.345 1.345 0 0 1 1.459-1.233zm0 1.466c.284 0 .458-.151.458-.233s-.174-.233-.458-.233-.459.151-.459.233.178.233.459.233z" fill="#063964"/><path d="m157.038 23.907-144.219 84.037-1.727-1 145.946-85.069z" fill="#d8d8d9"/><path d="m157.038 21.375a.5.5 0 0 1 .5.5v2.032a.5.5 0 0 1 -.248.432l-144.22 84.037a.5.5 0 0 1 -.5 0l-1.727-1a.5.5 0 0 1 0-.865l145.943-85.068a.5.5 0 0 1 .252-.068zm-.5 2.245v-.874l-144.45 84.2.729.421z" fill="#063964"/><path d="m119.628 40.229-108.615 63.286-.05-4.368 108.665-63.315z" fill="#d4e1e9"/><path d="m119.628 35.332a.5.5 0 0 1 .5.5v4.4a.5.5 0 0 1 -.248.432l-108.616 63.283a.5.5 0 0 1 -.752-.426l-.05-4.368a.5.5 0 0 1 .248-.438l108.666-63.315a.5.5 0 0 1 .252-.068zm-.5 4.61v-3.242l-107.662 62.733.037 3.218z" fill="#063964"/><path d="m157.038 64.577 33.875 25.57-94.32 54.462-39.286-22.685z" fill="#726356"/><path d="m157.075 63.979 34.741 26.221-95.223 54.986-40.288-23.263zm32.934 26.113-33.009-24.917-98.692 56.75 38.285 22.107z" fill="#063964"/><path d="m157.038 61.849v2.728l-109.543 63.391-2.155-1.245z" fill="#bfbdbf"/><path d="m157.038 61.349a.5.5 0 0 1 .5.5v2.728a.5.5 0 0 1 -.25.433l-109.543 63.39a.5.5 0 0 1 -.5 0l-2.155-1.245a.5.5 0 0 1 0-.865l111.7-64.874a.5.5 0 0 1 .248-.067zm-.5 2.94v-1.572l-110.2 64 1.157.669z" fill="#063964"/><g clip-path="url(#b)" opacity=".49"><path d="m161.092 92.844c0 9.527-15.067 17.25-33.653 17.25s-33.654-7.723-33.654-17.25 15.067-17.25 33.654-17.25 33.653 7.723 33.653 17.25" fill="#faf6c5"/></g><path d="m132.757 90.888c0 1.5-2.039 2.717-4.555 2.717s-4.554-1.217-4.554-2.717 2.039-2.717 4.554-2.717 4.555 1.217 4.555 2.717" fill="#175f95"/><path d="m128.2 87.671c2.835 0 5.055 1.413 5.055 3.217s-2.22 3.217-5.055 3.217-5.054-1.413-5.054-3.217 2.222-3.217 5.054-3.217zm0 5.434c2.426 0 4.055-1.146 4.055-2.217s-1.629-2.217-4.055-2.217-4.054 1.146-4.054 2.217 1.631 2.217 4.054 2.217z" fill="#063964"/><path d="m130.68 90.089c0 .061-.2 1.237-2.23 1.229-2.285-.01-2.23-1.168-2.23-1.229s1-1.768 2.23-1.768 2.23 1.707 2.23 1.768" fill="#175f95"/><path d="m128.471 91.818h-.023a3.164 3.164 0 0 1 -2.3-.713 1.441 1.441 0 0 1 -.432-1.018c0-.114.018-.217.26-.578a5.463 5.463 0 0 1 .527-.667 2.36 2.36 0 0 1 3.886 0 5.454 5.454 0 0 1 .527.667c.242.361.26.464.26.58.004.365-.456 1.729-2.705 1.729zm-1.739-1.634a.5.5 0 0 0 .133.22 2.2 2.2 0 0 0 1.587.414h.018c1.2 0 1.568-.456 1.673-.674-.257-.413-.992-1.323-1.694-1.323-.723 0-1.485.973-1.717 1.363z" fill="#063964"/><path d="m126.22 90.089.373-13.142 7.652-37.638 1.511.266-5.487 37.287.375 13.227" fill="#175f95"/><path d="m126.22 90.589h-.014a.5.5 0 0 1 -.486-.514l.373-13.142a.5.5 0 0 1 .01-.085l7.652-37.638a.5.5 0 0 1 .577-.393l1.511.266a.5.5 0 0 1 .408.565l-5.481 37.244.374 13.183a.5.5 0 1 1 -1 .028l-.375-13.227a.5.5 0 0 1 .005-.087l5.416-36.806-.553-.1-7.545 37.117-.372 13.1a.5.5 0 0 1 -.5.489z" fill="#063964"/><path d="m134.34 51.365a1.475 1.475 0 1 1 -1.219-1.481 1.366 1.366 0 0 1 1.219 1.481" fill="#175f95"/><path d="m132.983 52.866a2.213 2.213 0 0 1 -.381-.033 1.865 1.865 0 0 1 -1.625-2.06 1.814 1.814 0 0 1 1.85-1.414 2.213 2.213 0 0 1 .381.033 2.082 2.082 0 0 1 1.252.713 1.647 1.647 0 0 1 .373 1.347 1.814 1.814 0 0 1 -1.85 1.414zm-.156-2.508a.824.824 0 0 0 -.865.588.874.874 0 0 0 .814.9 1.208 1.208 0 0 0 .208.018.824.824 0 0 0 .865-.588.663.663 0 0 0 -.161-.537 1.082 1.082 0 0 0 -.653-.364 1.209 1.209 0 0 0 -.209-.017z" fill="#063964"/><path d="m133.788 50.742 1.969-11.166-1.511-.267-1.969 11.167s.4 1.044 1.511.266" fill="#175f95"/><path d="m133.034 51.53a1.35 1.35 0 0 1 -1.224-.875.5.5 0 0 1 -.026-.266l1.969-11.167a.5.5 0 0 1 .579-.406l1.511.267a.5.5 0 0 1 .405.579l-1.968 11.167a.5.5 0 0 1 -.206.323 1.835 1.835 0 0 1 -1.04.378zm-.234-1.14a.3.3 0 0 0 .234.14.679.679 0 0 0 .3-.094l1.844-10.454-.526-.093z" fill="#063964"/><path d="m135.116 48.642a1.77 1.77 0 1 1 -1.463-1.777 1.636 1.636 0 0 1 1.463 1.777" fill="#175f95"/><path d="m133.49 50.342a2.551 2.551 0 0 1 -.443-.039 2.4 2.4 0 0 1 -1.441-.82 1.879 1.879 0 0 1 -.428-1.535 2.077 2.077 0 0 1 2.121-1.614 2.553 2.553 0 0 1 .44.039 2.138 2.138 0 0 1 1.869 2.356 2.074 2.074 0 0 1 -2.118 1.613zm-.19-3.008a1.086 1.086 0 0 0 -1.136.788.9.9 0 0 0 .215.725 1.4 1.4 0 0 0 .842.471 1.55 1.55 0 0 0 .269.024 1.084 1.084 0 0 0 1.134-.787 1.147 1.147 0 0 0 -1.057-1.2 1.549 1.549 0 0 0 -.267-.021z" fill="#063964"/><path d="m134.277 47.968 1.969-11.168-1.535-.654-1.945 11.554s.4 1.044 1.511.266" fill="#175f95"/><path d="m133.523 48.756a1.35 1.35 0 0 1 -1.224-.875.5.5 0 0 1 -.026-.262l1.945-11.554a.5.5 0 0 1 .689-.377l1.535.654a.5.5 0 0 1 .3.547l-1.969 11.166a.5.5 0 0 1 -.206.323 1.835 1.835 0 0 1 -1.044.378zm-.236-1.141a.3.3 0 0 0 .236.141.679.679 0 0 0 .3-.094l1.861-10.556-.586-.25z" fill="#063964"/><path d="m137.635 24.379-5.907 3.274 4.594 4.172z" fill="#175f95"/><path d="m137.635 23.879a.5.5 0 0 1 .492.587l-1.313 7.446a.5.5 0 0 1 -.829.283l-4.594-4.172a.5.5 0 0 1 .094-.807l5.907-3.274a.5.5 0 0 1 .243-.063zm-1.648 6.966.974-5.521-4.38 2.428z" fill="#063964"/><path d="m137.635 24.379 4.3 5.656-5.61 1.79z" fill="#003f6f"/><path d="m137.635 23.879a.5.5 0 0 1 .4.2l4.3 5.656a.5.5 0 0 1 -.246.779l-5.61 1.79a.5.5 0 0 1 -.644-.563l1.313-7.446a.5.5 0 0 1 .492-.413zm3.471 5.895-3.177-4.182-.971 5.505z" fill="#063964"/><path d="m134.964 39.769-2.712-3.5-.11-7.931 4.135 3.755z" fill="#f4d151"/><path d="m134.964 40.269a.5.5 0 0 1 -.4-.194l-2.712-3.5a.5.5 0 0 1 -.1-.3l-.11-7.931a.5.5 0 0 1 .836-.377l4.135 3.755a.5.5 0 0 1 .157.454l-1.313 7.68a.5.5 0 0 1 -.493.416zm-2.214-4.178 1.913 2.472 1.075-6.288-3.08-2.8z" fill="#063964"/><path d="m134.964 39.769 3.626-1.862 2.736-7.429-5.049 1.611z" fill="#f4d151"/><path d="m134.964 40.269a.5.5 0 0 1 -.493-.584l1.313-7.685a.5.5 0 0 1 .341-.392l5.049-1.608a.5.5 0 0 1 .621.649l-2.736 7.429a.5.5 0 0 1 -.241.272l-3.626 1.862a.5.5 0 0 1 -.228.057zm1.755-7.8-1.093 6.394 2.563-1.316 2.315-6.286z" fill="#063964"/><path d="m138.672 25.859a1.278 1.278 0 1 1 -1.037-1.48 1.279 1.279 0 0 1 1.037 1.48" fill="#175f95"/><path d="m137.415 27.415a1.792 1.792 0 0 1 -.309-.027 1.778 1.778 0 0 1 .305-3.529 1.791 1.791 0 0 1 .311.027 1.778 1.778 0 0 1 -.308 3.529zm0-2.556a.778.778 0 0 0 -.132 1.544.787.787 0 0 0 .135.012.778.778 0 0 0 .134-1.544.79.79 0 0 0 -.141-.012z" fill="#063964"/><path d="m138.314 25.016.756-4.289-1.416-.249-.756 4.288s.358.956 1.416.25" fill="#175f95"/><path d="m137.6 25.776a1.282 1.282 0 0 1 -1.174-.834.5.5 0 0 1 -.024-.262l.756-4.288a.5.5 0 0 1 .579-.406l1.416.249a.5.5 0 0 1 .406.579l-.756 4.289a.5.5 0 0 1 -.215.329 1.8 1.8 0 0 1 -.988.344zm-.183-1.1a.238.238 0 0 0 .183.1.606.606 0 0 0 .258-.074l.629-3.569-.431-.076z" fill="#063964"/><path d="m139.873 22.613c-.115.652-1.01 1.039-2 .865s-1.7-.844-1.583-1.5l2.474-3.215z" fill="#175f95"/><path d="m138.345 24.02a3.219 3.219 0 0 1 -.557-.049c-1.279-.226-2.153-1.138-1.989-2.075a.5.5 0 0 1 .1-.219l2.474-3.215a.5.5 0 0 1 .877.167l1.107 3.846a.5.5 0 0 1 .012.225 1.888 1.888 0 0 1 -2.024 1.32zm-1.562-1.856c.04.314.507.7 1.179.822a2.215 2.215 0 0 0 .383.034 1.134 1.134 0 0 0 1.007-.41l-.793-2.754z" fill="#063964"/><g clip-path="url(#c)" opacity=".3"><path d="m88.294 115.855 39.684-17.4a2.512 2.512 0 0 0 .309-4.455l-15.893-9.78a2.587 2.587 0 0 0 -2.385-.171l-39.009 17.091a2.512 2.512 0 0 0 -.382 4.412l15.217 10.086a2.586 2.586 0 0 0 2.459.217" fill="#190e0e"/></g><path d="m109.092 95.191 9.908-5.282 8.05 2.113-14.731 8.78c-.608-1.867-1.16-4.184-3.226-5.611" fill="#0c2e51"/><path d="m90.507 102.771 10.648-3.491c1.737 2.694 1.914 3.4 1.987 5.362l-10.577 2.822z" fill="#0c2e51"/><path d="m95.975 103.038c-.862 1.029-2.451 4-.54 6.164 1.311 1.482 3.679 1.127 5.289-.8s1.852-4.681.54-6.163-3.679-1.127-5.289.794" fill="#0e2f54"/><path d="m99.209 100.828a3.2 3.2 0 0 1 2.429 1.085 4.324 4.324 0 0 1 .949 3.292 6.421 6.421 0 0 1 -1.481 3.524 4.848 4.848 0 0 1 -3.617 1.889 3.2 3.2 0 0 1 -2.429-1.084c-2.182-2.467-.356-5.757.531-6.816a4.849 4.849 0 0 1 3.618-1.89zm-1.719 8.789a3.862 3.862 0 0 0 2.851-1.531 5.412 5.412 0 0 0 1.251-2.969 3.343 3.343 0 0 0 -.7-2.542 2.181 2.181 0 0 0 -1.68-.747 3.863 3.863 0 0 0 -2.851 1.531 6.357 6.357 0 0 0 -1.206 2.45 3.26 3.26 0 0 0 .657 3.061 2.181 2.181 0 0 0 1.678.747z" fill="#063964"/><path d="m97.508 104.195a2.746 2.746 0 0 0 -.773 3.331 1.874 1.874 0 0 0 2.92.122 2.747 2.747 0 0 0 .773-3.332 1.875 1.875 0 0 0 -2.92-.121" fill="#60a9bb"/><path d="m99.052 103.064a2.075 2.075 0 0 1 1.8.988 3.221 3.221 0 0 1 -.869 3.973 2.89 2.89 0 0 1 -1.872.753 2.075 2.075 0 0 1 -1.8-.989 3.218 3.218 0 0 1 .87-3.972 2.893 2.893 0 0 1 1.871-.753zm-.941 4.714a1.9 1.9 0 0 0 1.216-.508 2.273 2.273 0 0 0 .673-2.69 1.08 1.08 0 0 0 -.951-.516 1.9 1.9 0 0 0 -1.216.508 2.27 2.27 0 0 0 -.676 2.689 1.08 1.08 0 0 0 .954.518z" fill="#4b4c70"/><path d="m120.146 93.8c-.585.978-1.518 3.685.375 5.249 1.3 1.073 3.239.464 4.332-1.362s.924-4.175-.376-5.248-3.239-.464-4.331 1.361" fill="#0e2f54"/><path d="m123.014 91.407a2.766 2.766 0 0 1 1.781.645 3.766 3.766 0 0 1 1.265 2.692 5.525 5.525 0 0 1 -.779 3.2 3.987 3.987 0 0 1 -3.3 2.135 2.769 2.769 0 0 1 -1.781-.644c-2.2-1.819-1.1-4.869-.486-5.891a3.985 3.985 0 0 1 3.3-2.137zm-1.03 7.67a3.05 3.05 0 0 0 2.44-1.648 4.516 4.516 0 0 0 .639-2.613 2.784 2.784 0 0 0 -.9-1.992 1.754 1.754 0 0 0 -1.145-.416 3.048 3.048 0 0 0 -2.439 1.648 5.309 5.309 0 0 0 -.672 2.183 2.714 2.714 0 0 0 .936 2.424 1.756 1.756 0 0 0 1.141.414z" fill="#063964"/><path d="m121.8 94.812a1.9 1.9 0 0 0 -.164 2.362 1.3 1.3 0 0 0 2.009-.229 1.9 1.9 0 0 0 .163-2.362 1.3 1.3 0 0 0 -2.008.229" fill="#60a9bb"/><path d="m122.973 93.7a1.581 1.581 0 0 1 1.211.555 2.384 2.384 0 0 1 -.158 3.011 2.072 2.072 0 0 1 -1.559.79 1.579 1.579 0 0 1 -1.211-.555 2.383 2.383 0 0 1 .16-3.011 2.068 2.068 0 0 1 1.557-.79zm-.506 3.356a1.083 1.083 0 0 0 .793-.433 1.413 1.413 0 0 0 .168-1.713.579.579 0 0 0 -.455-.21 1.08 1.08 0 0 0 -.792.432 1.412 1.412 0 0 0 -.169 1.714.578.578 0 0 0 .455.21z" fill="#4b4c70"/><path d="m128.87 87.241c.308-4.388-11.523-8.586-16.109-8.359a17.309 17.309 0 0 1 -3.782-.359c3.257 1.995 9.759 5.337 10.131 5.789.537.652-.365.664-.735.475s-5.62-3.178-5.62-3.178c-1.247-1.35-9.56-4.771-12.2-5.836a23.72 23.72 0 0 0 -5.955.727c-1.521.341-9.344 1.925-12 4.64-.148.151-.285.3-.425.444 2.279 1.487 9.541 5.737 12.658 6.464 0 0-2.271 5.967-3.965 6.905-1.524.847-11.19-4.953-13.593-6.833-1.459 1.509-4.194 3.663-4.809 5.7a10.821 10.821 0 0 0 -.712 3.356c-.1.6.573 1.221.573 1.221s1.613 2.207 11.824 8.37c3.286 1.984 4.737 2.1 4.737 2.1 1.106.441 4.572-.834 4.7-1.321.977-3.614 8-9.866 9.2-3.608a.632.632 0 0 0 .9.5c2.759-1.4 4.48-1.99 7.138-3.349 1.072-.549 7.6-3.546 8.664-4.089a1.89 1.89 0 0 0 .967-1.373c.752-3.965 4.439-5.627 5.185-2.3a.685.685 0 0 0 1.12.366c1.812-1.6 1.689-.509 2.1-6.449" fill="#f4d561"/><path d="m100.092 75.266c.159 0 .32 0 .476.008a.5.5 0 0 1 .171.036c1.382.557 4.083 1.664 6.644 2.819q.6.269 1.109.509a.5.5 0 0 1 .617-.6 17.188 17.188 0 0 0 3.329.349c.112 0 .213 0 .3-.006.126-.006.26-.009.4-.009a25.083 25.083 0 0 1 7.773 1.7c1.858.688 5.258 2.147 7.158 4.185a4.05 4.05 0 0 1 1.306 3.012l-.032.464c-.323 4.624-.335 4.8-1.569 5.772-.192.151-.41.322-.672.552a1.184 1.184 0 0 1 -1.938-.631c-.142-.633-.475-1.388-1.252-1.387a2.441 2.441 0 0 0 -1.673.938 5.728 5.728 0 0 0 -1.281 2.736 2.4 2.4 0 0 1 -1.232 1.726c-.529.269-2.315 1.1-4.205 1.984-1.925.9-3.916 1.827-4.457 2.1-1.341.686-2.467 1.186-3.555 1.669s-2.216.984-3.584 1.68a1.092 1.092 0 0 1 -.5.122 1.164 1.164 0 0 1 -1.115-.969 3.5 3.5 0 0 0 -.791-1.8 1.506 1.506 0 0 0 -1.133-.461c-2.229 0-5.662 3.519-6.306 5.9-.043.159-.157.583-1.868 1.2a8.792 8.792 0 0 1 -2.712.58 2.23 2.23 0 0 1 -.725-.1 14.569 14.569 0 0 1 -4.876-2.161c-9.547-5.762-11.654-8.113-11.936-8.46a2.1 2.1 0 0 1 -.7-1.609 9.442 9.442 0 0 1 .542-2.842c.06-.189.122-.385.189-.609.512-1.7 2.325-3.414 3.781-4.792.422-.4.82-.776 1.147-1.114a.5.5 0 0 1 .667-.046c2.373 1.855 10.738 6.811 12.875 6.811a.45.45 0 0 0 .173-.022c1.035-.573 2.632-3.869 3.539-6.132-3.343-1.03-9.914-4.848-12.263-6.38a.5.5 0 0 1 -.09-.762l.012-.013c.134-.141.272-.288.419-.437 1.122-1.146 3.208-2.223 6.2-3.2 2.371-.773 4.723-1.289 5.728-1.509l.318-.07a25.8 25.8 0 0 1 5.592-.731zm.356 1c-.117 0-.237 0-.356 0a24.859 24.859 0 0 0 -5.379.722l-.323.071c-5.991 1.312-9.836 2.8-11.429 4.431 2.8 1.767 9.188 5.417 11.99 6.07a.5.5 0 0 1 .354.665c-.023.062-.584 1.531-1.365 3.141-1.1 2.261-2.02 3.578-2.826 4.024a1.328 1.328 0 0 1 -.657.146c-1.431 0-4.535-1.558-6.887-2.865a68.949 68.949 0 0 1 -6.249-3.89c-.267.264-.561.541-.867.831-1.37 1.3-3.075 2.909-3.511 4.355-.069.23-.135.438-.193.621a8.45 8.45 0 0 0 -.5 2.616.5.5 0 0 1 -.006.057c-.037.226.228.594.419.772a.43.43 0 0 1 .063.07c.061.077 1.913 2.344 11.68 8.239 3.1 1.87 4.509 2.029 4.523 2.03a.469.469 0 0 1 .14.034 1.173 1.173 0 0 0 .42.056 8.45 8.45 0 0 0 3.637-1.121 10.7 10.7 0 0 1 2.81-4.225 7.1 7.1 0 0 1 4.439-2.339 2.492 2.492 0 0 1 1.847.761 4.442 4.442 0 0 1 1.058 2.309c.019.1.084.159.133.159a.1.1 0 0 0 .046-.013c1.392-.708 2.53-1.214 3.631-1.7 1.126-.5 2.189-.972 3.506-1.646.557-.285 2.556-1.218 4.49-2.12 1.8-.84 3.661-1.708 4.175-1.969a1.413 1.413 0 0 0 .7-1.021 6.737 6.737 0 0 1 1.519-3.217 3.413 3.413 0 0 1 2.417-1.27c.523 0 1.788.211 2.228 2.168a.186.186 0 0 0 .184.146.175.175 0 0 0 .118-.046c.282-.249.522-.437.715-.588.507-.4.66-.518.791-1.03a30.389 30.389 0 0 0 .4-4.025l.032-.465a3.117 3.117 0 0 0 -1.039-2.261 18.558 18.558 0 0 0 -6.774-3.93 24.061 24.061 0 0 0 -7.425-1.643c-.12 0-.237 0-.347.008a13.407 13.407 0 0 1 -1.4-.032c1.186.672 2.494 1.39 3.7 2.054 3.268 1.794 4.185 2.318 4.409 2.59a.862.862 0 0 1 .215.955.877.877 0 0 1 -.848.443 1.648 1.648 0 0 1 -.715-.161c-.376-.192-5.425-3.066-5.64-3.189a.5.5 0 0 1 -.12-.1c-.929-1.009-6.758-3.586-11.933-5.674z" fill="#063964"/><path d="m118.375 84.786c.37.189 1.272.177.735-.475-.372-.452-6.091-3.754-9.348-5.75-1.979-.533-3.5-1.575-5.2-2.077a15.179 15.179 0 0 0 -4.013-.712c2.643 1.066 10.956 4.487 12.2 5.836 0 0 5.251 2.989 5.621 3.178" fill="#0c2e51"/><path d="m90.872 94.953c1.694-.939 3.965-6.906 3.965-6.906-3.117-.727-10.379-4.976-12.658-6.464a22.657 22.657 0 0 0 -4.079 5.509 4.892 4.892 0 0 1 -.82 1.028c2.4 1.878 12.069 7.68 13.6 6.833" fill="#175f95"/><path d="m90.458 95.537c-1.432 0-4.535-1.558-6.887-2.865a63.044 63.044 0 0 1 -6.6-4.158.5.5 0 0 1 -.052-.741 4.455 4.455 0 0 0 .734-.908 23.187 23.187 0 0 1 4.168-5.627.5.5 0 0 1 .635-.073c2.441 1.594 9.5 5.7 12.5 6.4a.5.5 0 0 1 .354.665c-.023.062-.584 1.531-1.365 3.141-1.1 2.261-2.02 3.578-2.825 4.024a1.328 1.328 0 0 1 -.662.142zm-12.44-7.485c2.823 2.049 10.418 6.485 12.44 6.485a.448.448 0 0 0 .172-.022c1.035-.574 2.632-3.87 3.539-6.133-3.193-.984-9.317-4.5-11.912-6.154a21.342 21.342 0 0 0 -3.716 5.091 3.759 3.759 0 0 1 -.524.733z" fill="#063964"/><path d="m2.275 0-2.275.652" fill="#fff" transform="translate(105.988 94.046)"/><path d="m0 1.152a.5.5 0 0 1 -.481-.362.5.5 0 0 1 .343-.619l2.275-.652a.5.5 0 0 1 .618.343.5.5 0 0 1 -.343.618l-2.274.653a.5.5 0 0 1 -.138.019z" fill="#063964" transform="translate(105.988 94.046)"/><path d="m97.066 88.215s-2.446 6.015-2.466 6.639 22.98-7.323 22.98-7.323.631-.537.275-.839-5.144-3.836-7.074-3.7-13.713 5.227-13.713 5.227" fill="#175f95"/><path d="m110.887 82.484c.932 0 2.4.612 4.361 1.817a33.555 33.555 0 0 1 2.926 2.009.787.787 0 0 1 .286.606 1.486 1.486 0 0 1 -.56 1 .5.5 0 0 1 -.161.092c-.053.018-5.391 1.861-10.854 3.681-11.124 3.7-11.9 3.7-12.2 3.7a.6.6 0 0 1 -.447-.172.525.525 0 0 1 -.146-.382c.005-.153.017-.474 1.276-3.716.609-1.567 1.223-3.078 1.229-3.093a.5.5 0 0 1 .265-.271c1.214-.525 11.919-5.134 13.878-5.267.052-.002.098-.004.147-.004zm6.523 4.5c-.366-.281-1.439-1.06-2.685-1.826-2.363-1.452-3.419-1.669-3.838-1.669h-.075c-1.484.1-9.968 3.643-13.361 5.106-.893 2.2-1.811 4.575-2.184 5.689 1.057-.254 3.872-1.072 11.3-3.547 5.043-1.68 9.98-3.38 10.743-3.643a1.194 1.194 0 0 0 .101-.114z" fill="#063964"/><path d="m80.744 86.028c1.174.058 10.978 5.32 10.978 5.32l.921 1.408a39.01 39.01 0 0 0 2.193-4.709c-3.117-.727-10.379-4.976-12.658-6.464a22.683 22.683 0 0 0 -4.084 5.509 4.826 4.826 0 0 1 -.82 1.027c.257.2.61.453 1.013.73.641-1.179 1.692-2.859 2.457-2.821" fill="#175f95"/><path d="m82.178 81.083a.5.5 0 0 1 .273.081c2.441 1.594 9.5 5.7 12.5 6.4a.5.5 0 0 1 .354.665 39.036 39.036 0 0 1 -2.227 4.78.5.5 0 0 1 -.852.024l-.851-1.3c-4.715-2.528-9.962-5.15-10.655-5.2-.167 0-.85.46-1.992 2.56a.5.5 0 0 1 -.722.173c-.451-.31-.79-.555-1.038-.748a.5.5 0 0 1 -.051-.742 4.4 4.4 0 0 0 .733-.905 23.215 23.215 0 0 1 4.168-5.628.5.5 0 0 1 .36-.16zm11.987 7.3c-3.194-.985-9.315-4.5-11.909-6.153a21.363 21.363 0 0 0 -3.717 5.091 3.7 3.7 0 0 1 -.521.731l.1.073c1.335-2.314 2.117-2.6 2.6-2.6h.05c.251.012.84.042 6.131 2.736 2.573 1.31 5.034 2.63 5.058 2.643a.5.5 0 0 1 .182.167l.465.711c.68-1.287 1.266-2.673 1.561-3.401z" fill="#063964"/><path d="m94.6 94.855c-.008.233 3.183-.726 7.188-2.019l-5.713-2.136a36.416 36.416 0 0 0 -1.475 4.155" fill="#175f95"/><path d="m94.692 95.39a.6.6 0 0 1 -.447-.171.518.518 0 0 1 -.146-.381c.006-.156.019-.518 1.511-4.32a.5.5 0 0 1 .641-.286l5.711 2.135a.5.5 0 0 1 -.021.944c-5.706 1.843-6.872 2.079-7.249 2.079zm1.669-4.048c-.611 1.569-.927 2.449-1.091 2.94.675-.162 2.078-.556 4.99-1.483z" fill="#063964"/><path d="m107.733 83.893c-.894.324-1.9.71-2.929 1.116a2.1 2.1 0 0 1 1.15.569 7.034 7.034 0 0 1 .958 3.117l2.541 1.6c2.6-.874 4.937-1.673 6.432-2.185-2.257-1.269-5.382-2.959-8.152-4.221" fill="#175f95"/><path d="m107.733 83.393a.5.5 0 0 1 .207.045c2.825 1.287 6.013 3.016 8.19 4.24a.5.5 0 0 1 -.083.909c-2.353.806-4.458 1.521-6.435 2.186a.5.5 0 0 1 -.426-.051l-2.541-1.6a.5.5 0 0 1 -.232-.4 6.565 6.565 0 0 0 -.87-2.859c0-.007-.132-.18-.865-.37a.5.5 0 0 1 -.058-.949c1.129-.446 2.119-.823 2.942-1.121a.5.5 0 0 1 .171-.03zm6.929 4.607c-2.02-1.118-4.6-2.492-6.95-3.571-.48.176-1.014.377-1.6.6a1.2 1.2 0 0 1 .249.259 7.178 7.178 0 0 1 1.024 3.112l2.13 1.345c1.61-.536 3.303-1.111 5.147-1.745z" fill="#063964"/><path d="m90.872 94.953a6.187 6.187 0 0 0 1.772-2.2l-.922-1.408s-9.8-5.261-10.977-5.32c-.765-.038-1.816 1.642-2.458 2.821 3.374 2.318 11.22 6.86 12.585 6.1" fill="#0e2f54"/><path d="m105.954 85.578a2.1 2.1 0 0 0 -1.15-.569c-3.726 1.471-7.738 3.206-7.738 3.206s-.465 1.144-.991 2.485l5.711 2.135c2.434-.786 5.166-1.695 7.667-2.536l-2.541-1.605a7.031 7.031 0 0 0 -.958-3.116" fill="#0e2f54"/><path d="m117.579 87.531s.63-.537.274-.839-5.143-3.836-7.073-3.7a16.081 16.081 0 0 0 -3.047.9c2.77 1.261 5.895 2.951 8.152 4.22l1.694-.582" fill="#0e2f54"/><path d="m90.458 95.537c-1.432 0-4.535-1.558-6.887-2.865a63.044 63.044 0 0 1 -6.6-4.158.5.5 0 0 1 -.052-.741 4.455 4.455 0 0 0 .734-.908 23.187 23.187 0 0 1 4.168-5.627.5.5 0 0 1 .635-.073c2.441 1.594 9.5 5.7 12.5 6.4a.5.5 0 0 1 .354.665c-.023.062-.584 1.531-1.365 3.141-1.1 2.261-2.02 3.578-2.825 4.024a1.328 1.328 0 0 1 -.662.142zm-12.44-7.485c2.823 2.049 10.418 6.485 12.44 6.485a.448.448 0 0 0 .172-.022c1.035-.574 2.632-3.87 3.539-6.133-3.193-.984-9.317-4.5-11.912-6.154a21.342 21.342 0 0 0 -3.716 5.091 3.759 3.759 0 0 1 -.524.733z" fill="#063964"/><path d="m110.887 82.484c.932 0 2.4.612 4.361 1.817a33.555 33.555 0 0 1 2.926 2.009.787.787 0 0 1 .286.606 1.486 1.486 0 0 1 -.56 1 .5.5 0 0 1 -.161.092c-.053.018-5.391 1.861-10.854 3.681-11.124 3.7-11.9 3.7-12.2 3.7a.6.6 0 0 1 -.447-.172.525.525 0 0 1 -.146-.382c.005-.153.017-.474 1.276-3.716.609-1.567 1.223-3.078 1.229-3.093a.5.5 0 0 1 .265-.271c1.214-.525 11.919-5.134 13.878-5.267.052-.002.098-.004.147-.004zm6.523 4.5c-.366-.281-1.439-1.06-2.685-1.826-2.363-1.452-3.419-1.669-3.838-1.669h-.075c-1.484.1-9.968 3.643-13.361 5.106-.893 2.2-1.811 4.575-2.184 5.689 1.057-.254 3.872-1.072 11.3-3.547 5.043-1.68 9.98-3.38 10.743-3.643a1.194 1.194 0 0 0 .101-.114z" fill="#063964"/><g clip-path="url(#d)" opacity=".69"><path d="m100.723 90.08a.5.5 0 0 1 -.174-.969c5.3-1.967 9.341-3.279 9.381-3.292a.5.5 0 0 1 .308.951c-.04.013-4.063 1.319-9.341 3.278a.5.5 0 0 1 -.174.032z" fill="#cfd7eb"/></g><g clip-path="url(#e)" opacity=".52"><path d="m80.613 88.908a.5.5 0 0 1 -.462-.692 15.351 15.351 0 0 1 2.432-3.953.5.5 0 0 1 .732.682 14.55 14.55 0 0 0 -2.24 3.655.5.5 0 0 1 -.462.308z" fill="#cfd7eb"/></g><path d="m91.205 102.088a.64.64 0 0 1 .25.055.017.017 0 0 0 0-.014.326.326 0 0 1 .041.023c.01 0 .017.014.026.019a.221.221 0 0 1 .03.025.58.58 0 0 1 .107.09.2.2 0 0 0 -.041-.106s.285-.155-1.074-.152l-.027.031c.28.022.51.031.691.029" fill="#811e20"/><path d="m74.818 98.856-.091.124c.182.136.369.273.556.411l.06-.145c-.178-.131-.352-.261-.525-.39" fill="#811e20"/><path d="m85.525 105.7a20.315 20.315 0 0 1 -4.384-2.389c-.011.05-.021.1-.031.15a19.464 19.464 0 0 0 4.2 2.271 8.2 8.2 0 0 0 3.087.3 8.643 8.643 0 0 1 -2.872-.335" fill="#811e20"/><path d="m91.455 102.143c.012.005.027 0 .038.008a.4.4 0 0 0 -.041-.022.017.017 0 0 1 0 .014" fill="#811e20"/><path d="m91.52 102.171c.011.006.018.018.029.025-.011-.011-.02-.017-.029-.025" fill="#811e20"/><path d="m90.47 102.61a.5.5 0 0 1 -.067 0c-.588-.079-1.411-.221-2.447-.422a.5.5 0 0 1 .19-.982h.006a22.99 22.99 0 0 0 2.4.357.5.5 0 0 1 .346.816l-.055.064a.5.5 0 0 1 -.373.167z" fill="#063964"/><path d="m82.106 101.171a.478.478 0 0 1 .294-.171c.53-.111 4.421 2.112 4.421 2.112a3.021 3.021 0 0 1 -.189.579 4.547 4.547 0 0 0 1.309.511c.616-.007 1.684-1.1 2.533-2.091-.506-.067-1.268-.193-2.419-.416a22.6 22.6 0 0 1 -5.6-2.785 14.533 14.533 0 0 0 -.741 2.033l.391.23" fill="#cb5d46"/><path d="m82.456 98.408a.5.5 0 0 1 .262.074c3.277 2.013 4.761 2.59 5.43 2.72 1.025.2 1.829.337 2.389.411a.5.5 0 0 1 .315.82c-1.725 2.021-2.486 2.262-2.908 2.266h-.009a3.912 3.912 0 0 1 -1.527-.563.5.5 0 0 1 -.234-.655c.02-.044.038-.089.054-.132a25.713 25.713 0 0 0 -3.746-1.849.5.5 0 0 1 -.63.1l-.276-.162-.114-.067a.5.5 0 0 1 -.226-.572 15.105 15.105 0 0 1 .764-2.099.5.5 0 0 1 .453-.288zm7.029 4.055c-.439-.074-.95-.168-1.528-.28a19.971 19.971 0 0 1 -5.27-2.55q-.158.4-.311.862h.067c.177 0 .548 0 2.671 1.115 1.006.527 1.943 1.061 1.952 1.067a.5.5 0 0 1 .242.532c0 .017-.021.1-.056.225a3.25 3.25 0 0 0 .689.267c.059-.007.466-.088 1.544-1.238z" fill="#063964"/><path d="m75.311 97.976a9.2 9.2 0 0 1 -2.761-1.776 11.518 11.518 0 0 1 .329-1.515c.062-.205.091.209.183.02 1.311.877 2.974 2.171 2.974 2.171a2.734 2.734 0 0 1 -.218.613l.067-.091.226.14a15.265 15.265 0 0 1 1.174-2.015c-1.454-1-2.793-1.943-3.822-2.681a4.744 4.744 0 0 0 -.82 1.51 11.256 11.256 0 0 0 -.443 2.256c.753.585 1.866 1.456 2.848 2.187l.527-.974a.566.566 0 0 1 -.264.152" fill="#cb5d46"/><path d="m75.048 99.3a.5.5 0 0 1 -.3-.1c-.854-.636-1.785-1.36-2.534-1.942l-.323-.251a.5.5 0 0 1 -.19-.448 11.8 11.8 0 0 1 .461-2.347 5.163 5.163 0 0 1 .9-1.671.5.5 0 0 1 .688-.1c.871.625 2.239 1.6 3.813 2.675a.5.5 0 0 1 .126.7 14.726 14.726 0 0 0 -1.134 1.948.5.5 0 0 1 -.531.272l-.014.028-.527.974a.5.5 0 0 1 -.44.262zm-1.956-3.3a13.106 13.106 0 0 0 2.146 1.46.208.208 0 0 0 .136-.192 1.816 1.816 0 0 0 .086-.2c-.448-.343-1.383-1.05-2.253-1.654-.04.177-.078.37-.115.581zm.137-1.758a.5.5 0 0 1 .112.056c1.081.723 2.375 1.708 2.834 2.061q.209-.368.42-.7c-1.186-.818-2.236-1.559-3.014-2.114a4 4 0 0 0 -.362.685z" fill="#063964"/><path d="m73.062 94.708c-.093.189-.121-.226-.183-.021a11.7 11.7 0 0 0 -.33 1.516 9.2 9.2 0 0 0 2.762 1.773.566.566 0 0 0 .264-.152l.243-.332a2.752 2.752 0 0 0 .218-.613s-1.663-1.294-2.974-2.171" fill="#ddb04b"/><g fill="#811e20"><path d="m91.661 102.4a.687.687 0 0 0 -.005-.119.539.539 0 0 0 -.107-.089.521.521 0 0 1 .112.208"/><path d="m91.52 102.171c-.011-.006-.017-.015-.027-.02z"/><path d="m91.455 102.143a.619.619 0 0 0 -.25-.055c-.181 0-.411-.007-.691-.029l-.043.05c.867.117.977.063.984.034"/><path d="m91.043 104.233a5.27 5.27 0 0 0 .618-1.829.528.528 0 0 0 -.112-.208c-.011-.007-.018-.019-.03-.025s-.018-.015-.026-.02-.027 0-.038-.008c-.008.028-.118.083-.985-.034-.849.995-1.916 2.084-2.532 2.091a4.542 4.542 0 0 1 -1.31-.512.905.905 0 0 1 -.541.568c-.529.111-4.162-2-4.134-2.249.021-.189-.037-.6.153-.836l-.391-.231c-.193.659-.387 1.449-.575 2.371a20.377 20.377 0 0 0 4.384 2.39 8.639 8.639 0 0 0 2.872.334 3.143 3.143 0 0 0 2.647-1.8"/><path d="m76.11 97.541-.226-.14-.066.091a1.22 1.22 0 0 1 -.244.332l-.756 1.032.525.39c.229-.556.484-1.134.767-1.705"/><path d="m75.818 97.492-.243.332a1.2 1.2 0 0 0 .243-.332"/></g><path d="m82.4 101a.478.478 0 0 0 -.291.173c-.189.241-.132.648-.152.836-.028.252 3.6 2.36 4.134 2.249.249-.052.424-.31.54-.568a2.987 2.987 0 0 0 .19-.578s-3.894-2.225-4.421-2.112" fill="#ddb04b"/><path d="m75.343 99.246c-.02.048-.041.1-.06.145 1.889 1.393 3.986 2.879 5.826 4.071.011-.051.021-.1.031-.151-1.847-1.2-3.931-2.686-5.8-4.065" fill="#811e20"/><path d="m75.343 99.246c1.866 1.379 3.95 2.861 5.8 4.065.188-.922.382-1.712.575-2.37-2.469-1.459-4.879-2.949-5.6-3.4-.282.571-.538 1.149-.767 1.705" fill="#811e20"/><path d="m87.674 106.578a9.81 9.81 0 0 1 -2.494-.363 18.944 18.944 0 0 1 -4.343-2.333c-2.077-1.346-4.328-2.966-5.851-4.088l-.546-.4c-.092-.061-.638-.424-1.214-.886-1.207-.967-1.442-1.478-1.514-1.778a.5.5 0 0 1 -.011-.17 11.8 11.8 0 0 1 .462-2.347 5.141 5.141 0 0 1 .9-1.671.5.5 0 0 1 .688-.1c.863.62 2.225 1.587 3.813 2.675a.5.5 0 0 1 .126.7 13.923 13.923 0 0 0 -.928 1.545c1.091.674 2.834 1.743 4.661 2.829a13.566 13.566 0 0 1 .577-1.491.5.5 0 0 1 .715-.215c3.278 2.014 4.762 2.591 5.43 2.72.99.192 2.221.337 2.393.357.058 0 .252.019 1.134.125a.5.5 0 0 1 .287.136.674.674 0 0 1 .187.38 1.13 1.13 0 0 1 .012.215 5.866 5.866 0 0 1 -.665 2.031 3.661 3.661 0 0 1 -3.037 2.086 6.32 6.32 0 0 1 -.782.043zm-14.966-10.02a8.335 8.335 0 0 0 2.293 2l.024.017.555.41c1.512 1.114 3.745 2.722 5.8 4.054a17.567 17.567 0 0 0 4.056 2.206 7.748 7.748 0 0 0 2.9.29 2.641 2.641 0 0 0 2.256-1.518 7.492 7.492 0 0 0 .536-1.4c-.287-.033-.535-.061-.61-.067h-.028c-.041 0-1.447-.164-2.531-.375a19.923 19.923 0 0 1 -5.27-2.549c-.168.423-.333.907-.492 1.447a.5.5 0 0 1 -.734.289c-2.267-1.34-4.49-2.708-5.614-3.4a.5.5 0 0 1 -.185-.647 17.251 17.251 0 0 1 .931-1.662c-1.194-.823-2.241-1.562-3.015-2.115a3.7 3.7 0 0 0 -.457.956 10.577 10.577 0 0 0 -.415 2.064z" fill="#063964"/><path d="m72.2 95.957 3.727 2.572-.227 1.125s-3.32-2.586-3.523-2.806.022-.891.022-.891" fill="#811e20"/><path d="m100.828 95.893a37.149 37.149 0 0 1 3.606 3.532 3.484 3.484 0 0 0 3.361 1.02c.357-.153 10.545-4.647 10.545-4.647s.712-5.647.106-6.643" fill="#f4d561"/><path d="m107.051 101.037a3.747 3.747 0 0 1 -3.019-1.314 37.017 37.017 0 0 0 -3.532-3.453.5.5 0 0 1 .656-.755 36.781 36.781 0 0 1 3.68 3.612 3.03 3.03 0 0 0 2.766.857c.37-.159 8.686-3.827 10.276-4.528.056-.485.171-1.537.244-2.643.184-2.77-.053-3.316-.1-3.4a.5.5 0 1 1 .854-.52c.215.353.437 1.125.246 3.988-.1 1.533-.281 2.963-.283 2.977a.5.5 0 0 1 -.294.395c-.416.184-10.195 4.5-10.55 4.649a2.7 2.7 0 0 1 -.944.135z" fill="#063964"/><path d="m120.208 90.07a.5.5 0 0 1 -.24-.939 2.973 2.973 0 0 0 1.284-1.512.5.5 0 1 1 .953.3 3.944 3.944 0 0 1 -1.758 2.088.5.5 0 0 1 -.239.063z" fill="#063964"/><path d="m119.644 89.7-1.394-.78.235-1.863 1.393.779c.462.237.87.464.805.978a1.02 1.02 0 0 1 -1.039.886" fill="#fff"/><path d="m119.69 90.2h-.07a.5.5 0 0 1 -.22-.063l-1.394-.78a.5.5 0 0 1 -.252-.5l.235-1.863a.5.5 0 0 1 .74-.374l1.385.775c.444.228 1.175.609 1.065 1.482a1.529 1.529 0 0 1 -1.489 1.323zm-.9-1.553.977.546a.527.527 0 0 0 .422-.443c.016-.127-.03-.21-.537-.471l-.016-.008-.746-.417z" fill="#063964"/><path d="m79.527 134.755a4.848 4.848 0 0 1 2.029-1.875c1.367-.6 3.382.219 3.343 1.709a5.665 5.665 0 0 1 7.161-1.978c-.521-2.308 2.705-4.388 4.592-2.961-.022-1.449.015-3.06 1.015-4.109s3.276-.722 3.346.726a3.507 3.507 0 0 1 5.758.076 4.131 4.131 0 0 1 5.189-.422 2.837 2.837 0 0 1 3.238-2.179 6.412 6.412 0 0 1 5.882-6.979 6.875 6.875 0 0 1 2.156-6.035 1.483 1.483 0 0 1 1.189 1.386c.362-1.883 3.611-2.107 4.228-.292a4.708 4.708 0 0 1 2.224-1.685 1.868 1.868 0 0 1 2.3 1.091 9.906 9.906 0 0 1 2.843-3.974c1.346-.95 3.444-1.052 4.479.23a2.118 2.118 0 0 1 3.18-1.985c-.554-1.672-1-3.527-.34-5.16s2.883-2.7 4.259-1.6a2.223 2.223 0 0 1 4.062-1.67 4.338 4.338 0 0 1 5.7-2.747 5.486 5.486 0 0 1 7.195-4.623c.857-2.49 3.811-3.859 6.407-3.42a9.146 9.146 0 0 1 6.085 4.632c1.323 2.277 8.591 11.415 8.591 11.415l-83.054 47.957z" fill="#346c61"/><path d="m103.167 150.406a.5.5 0 0 1 -.27-.079l-23.64-15.151a.5.5 0 0 1 -.147-.7 5.247 5.247 0 0 1 2.246-2.057 2.99 2.99 0 0 1 1.188-.239 3.163 3.163 0 0 1 2.238.887 2.292 2.292 0 0 1 .329.425 6.322 6.322 0 0 1 4.564-1.947 5.86 5.86 0 0 1 1.843.293 3.163 3.163 0 0 1 .707-1.671 3.944 3.944 0 0 1 2.992-1.489 2.97 2.97 0 0 1 .937.149 5.2 5.2 0 0 1 1.153-3.635 2.663 2.663 0 0 1 1.933-.77 2.365 2.365 0 0 1 1.932.862 4.13 4.13 0 0 1 5.692.314 4.635 4.635 0 0 1 2.78-.9 4.58 4.58 0 0 1 2.033.469 3.393 3.393 0 0 1 2.977-1.974 6.988 6.988 0 0 1 5.874-6.885 7.393 7.393 0 0 1 2.376-5.951.5.5 0 0 1 .421-.121 1.948 1.948 0 0 1 1.164.705 2.913 2.913 0 0 1 2.152-.866 2.7 2.7 0 0 1 2.1.9 4.447 4.447 0 0 1 2.008-1.319 2.556 2.556 0 0 1 .663-.086 2.5 2.5 0 0 1 1.715.643 8.944 8.944 0 0 1 2.609-3.365 4.563 4.563 0 0 1 2.573-.814 3.513 3.513 0 0 1 1.782.452 2.466 2.466 0 0 1 .432-.76 2.881 2.881 0 0 1 2.159-1.05q.115 0 .227.011a7.05 7.05 0 0 1 -.031-4.532 3.886 3.886 0 0 1 3.4-2.362 2.7 2.7 0 0 1 .79.115 2.848 2.848 0 0 1 .289-.912 2.716 2.716 0 0 1 1.369-1.288 2.582 2.582 0 0 1 .987-.191 2.878 2.878 0 0 1 1.773.62 4.973 4.973 0 0 1 4.358-2.621 4.332 4.332 0 0 1 1.084.135 5.577 5.577 0 0 1 1.881-3.2 6.242 6.242 0 0 1 4.033-1.571 5.068 5.068 0 0 1 1.424.2 6.265 6.265 0 0 1 5.714-3.38 6.4 6.4 0 0 1 1.064.088 8.211 8.211 0 0 1 3.747 1.728 11.257 11.257 0 0 1 2.687 3.146c1.282 2.207 9.038 10.867 9.116 10.954a.5.5 0 0 1 -.122.767l-83.054 47.957a.5.5 0 0 1 -.251.066zm-22.929-15.789 22.943 14.7 82.258-47.5c-1.651-1.854-7.654-8.642-8.826-10.66a10.248 10.248 0 0 0 -2.444-2.865 7.224 7.224 0 0 0 -3.292-1.525 5.4 5.4 0 0 0 -.9-.074 5.842 5.842 0 0 0 -3.038.858 4.427 4.427 0 0 0 -1.916 2.306.5.5 0 0 1 -.662.3 4 4 0 0 0 -1.52-.291 5.23 5.23 0 0 0 -3.371 1.334 4.456 4.456 0 0 0 -1.612 3.148.5.5 0 0 1 -.7.437 3.222 3.222 0 0 0 -1.311-.268 4.037 4.037 0 0 0 -2.314.758 3.492 3.492 0 0 0 -1.386 1.927.5.5 0 0 1 -.911.133 1.794 1.794 0 0 0 -1.52-.816 1.587 1.587 0 0 0 -.607.116 1.8 1.8 0 0 0 -1.021 1.994.5.5 0 0 1 -.8.507 1.572 1.572 0 0 0 -1.009-.341 2.877 2.877 0 0 0 -2.474 1.736c-.6 1.493-.161 3.272.351 4.816a.5.5 0 0 1 -.777.556 1.126 1.126 0 0 0 -.7-.224 1.884 1.884 0 0 0 -1.387.686 1.264 1.264 0 0 0 -.3 1.029.5.5 0 0 1 -.88.41 2.25 2.25 0 0 0 -1.8-.767 3.54 3.54 0 0 0 -2 .631 9.539 9.539 0 0 0 -2.682 3.785.5.5 0 0 1 -.933-.093 1.284 1.284 0 0 0 -1.285-.786 1.555 1.555 0 0 0 -.4.051 4.266 4.266 0 0 0 -1.971 1.524.5.5 0 0 1 -.856-.161 1.54 1.54 0 0 0 -1.541-.908 1.647 1.647 0 0 0 -1.723 1.134.5.5 0 0 1 -.991-.084 1 1 0 0 0 -.558-.833 6.416 6.416 0 0 0 -1.793 5.4.5.5 0 0 1 -.477.575 5.914 5.914 0 0 0 -5.4 6.412.5.5 0 0 1 -.6.557 1.916 1.916 0 0 0 -.389-.039 2.353 2.353 0 0 0 -2.255 1.819.5.5 0 0 1 -.786.314 3.459 3.459 0 0 0 -2.024-.628 3.543 3.543 0 0 0 -2.516 1 .5.5 0 0 1 -.791-.107 2.784 2.784 0 0 0 -2.476-1.288 2.738 2.738 0 0 0 -2.417 1.224.5.5 0 0 1 -.929-.232c-.029-.594-.681-.865-1.275-.865a1.687 1.687 0 0 0 -1.209.46c-.848.89-.9 2.343-.877 3.756a.5.5 0 0 1 -.8.406 1.838 1.838 0 0 0 -1.136-.367 2.964 2.964 0 0 0 -2.222 1.106 2.01 2.01 0 0 0 -.456 1.706.5.5 0 0 1 -.718.554 4.7 4.7 0 0 0 -2.156-.507 5.165 5.165 0 0 0 -4.35 2.3.5.5 0 0 1 -.925-.276 1.088 1.088 0 0 0 -.334-.808 2.178 2.178 0 0 0 -1.521-.585 1.984 1.984 0 0 0 -.788.155 3.885 3.885 0 0 0 -1.514 1.278z" fill="#063964"/><path d="m60.68 92.741s1.015 2.311.789 2.649-1.353.113-1.635.17-.225-2.537-.225-2.537z" fill="#f7d7c5"/><path d="m60.68 92.241a.5.5 0 0 1 .458.3c.011.024.263.6.491 1.228.45 1.236.434 1.633.256 1.9a1.276 1.276 0 0 1 -1.121.414c-.172 0-.345-.01-.5-.019-.112-.007-.218-.013-.292-.013h-.049a.547.547 0 0 1 -.5-.16c-.181-.185-.285-.508-.316-1.683-.016-.606 0-1.173 0-1.2a.5.5 0 0 1 .373-.473l1.071-.282a.5.5 0 0 1 .129-.012zm.3 2.831a11.618 11.618 0 0 0 -.6-1.737l-.285.075a15.754 15.754 0 0 0 .061 1.646l.158.009c.146.008.3.017.44.017a2.172 2.172 0 0 0 .231-.01z" fill="#063964"/><path d="m59.046 84.285a1.6 1.6 0 0 1 1.3 1.353c.169 1.184.958 7.666.958 7.666l-1.748.395z" fill="#a8b0b6"/><path d="m59.046 83.785a.5.5 0 0 1 .074.006 2.094 2.094 0 0 1 1.718 1.776c.168 1.176.927 7.412.959 7.677a.5.5 0 0 1 -.386.548l-1.748.395a.5.5 0 0 1 -.609-.461l-.507-9.414a.5.5 0 0 1 .5-.527zm1.7 9.131c-.182-1.488-.761-6.223-.9-7.207a1.082 1.082 0 0 0 -.256-.575l.428 7.948z" fill="#063964"/><g clip-path="url(#f)" opacity=".3"><path d="m64.938 106.2c0 2.01-3.227 3.639-7.208 3.639s-7.208-1.629-7.208-3.639 3.227-3.639 7.208-3.639 7.208 1.629 7.208 3.639" fill="#190e0e"/></g><path d="m57.99 107.294c-.867.267-3.223-.383-3.538-.918s.076-1.184.074-1.592a6.243 6.243 0 0 0 1.934.268c.146.11.363.484.544.625.715.554 1.853 1.35.986 1.617" fill="#0c2d51"/><path d="m57.474 107.856a6.916 6.916 0 0 1 -1.959-.345 2.662 2.662 0 0 1 -1.494-.881 1.882 1.882 0 0 1 -.065-1.5 1.875 1.875 0 0 0 .07-.338.5.5 0 0 1 .64-.482 7.04 7.04 0 0 0 1.529.266 1.276 1.276 0 0 0 .189-.012.5.5 0 0 1 .377.095 1.951 1.951 0 0 1 .344.382 2.156 2.156 0 0 0 .207.248l.165.127c.734.562 1.427 1.094 1.315 1.719a.839.839 0 0 1 -.654.643 2.285 2.285 0 0 1 -.664.078zm-2.6-1.741a5.24 5.24 0 0 0 2.6.741c.068 0 .125 0 .174-.007a9.218 9.218 0 0 0 -.78-.646l-.17-.131a2.322 2.322 0 0 1 -.389-.432l-.054-.071a6.116 6.116 0 0 1 -1.337-.171c-.084.325-.131.553-.039.717z" fill="#082d4e"/><path d="m61.093 106.482c-.795.438-2.965-.672-3.157-1.189a10.8 10.8 0 0 1 0-1.236l1.86-.38.116 1.274c.608.379 1.7 1.244 1.182 1.531" fill="#0c2d51"/><path d="m60.623 107.082a4.672 4.672 0 0 1 -1.87-.535c-.407-.205-1.114-.618-1.286-1.08a4.2 4.2 0 0 1 -.032-1.431.5.5 0 0 1 .4-.469l1.86-.38a.5.5 0 0 1 .6.445l.094 1.033a6.52 6.52 0 0 1 .712.558 1.5 1.5 0 0 1 .63 1.071.729.729 0 0 1 -.4.627 1.461 1.461 0 0 1 -.708.161zm-2.2-1.953a4.238 4.238 0 0 0 2.13.951 5.081 5.081 0 0 0 -.9-.7.5.5 0 0 1 -.233-.379l-.065-.718-.926.189c-.015.272-.017.528-.011.657z" fill="#082d4e"/><path d="m54.366 91.523c-.245 1.018-.206 13.261-.206 13.261a4.144 4.144 0 0 0 3.236.258l-.042-9.172.155 8.791a6.07 6.07 0 0 0 2.729-.493l-.538-12.577z" fill="#4e8075"/><path d="m54.366 91.023h.006l5.338.068a.5.5 0 0 1 .493.479l.534 12.577a.5.5 0 0 1 -.239.448 5.632 5.632 0 0 1 -2.618.569.5.5 0 0 1 -.309.347 4.794 4.794 0 0 1 -1.548.25 4.193 4.193 0 0 1 -2.113-.542.5.5 0 0 1 -.252-.432c0-1.259-.032-12.333.22-13.38a.5.5 0 0 1 .488-.384zm4.859 1.062-4.417-.056c-.127 1.73-.159 8.184-.148 12.45a3.278 3.278 0 0 0 1.365.281 4.065 4.065 0 0 0 .87-.1l-.04-8.791a.5.5 0 0 1 1-.011l.146 8.3a5.534 5.534 0 0 0 1.725-.293z" fill="#063964"/><path d="m54.125 90.82a1.478 1.478 0 0 1 -.831-.593c-1.018-1.53-.286-5.3.4-6.128.455-.552 3.3-1.182 3.3-1.182a8.335 8.335 0 0 1 1.976.922c1.021.745.9 2.115.883 3.329-.022 1.875.407 7.462.407 7.462-2.073.631-6.624.423-6.624.423z" fill="#a8b0b6"/><path d="m55.348 95.586c-1 0-1.707-.032-1.737-.033a.5.5 0 0 1 -.474-.553l.447-3.856a1.916 1.916 0 0 1 -.707-.635 6.013 6.013 0 0 1 -.52-3.661 6.988 6.988 0 0 1 .947-3.062c.178-.216.573-.52 2.065-.959.776-.229 1.483-.386 1.513-.393a.5.5 0 0 1 .258.011 8.753 8.753 0 0 1 2.121 1c1.143.834 1.116 2.271 1.094 3.425 0 .105 0 .21-.005.313-.021 1.832.4 7.362.406 7.418a.5.5 0 0 1 -.353.517 20.485 20.485 0 0 1 -5.055.468zm-1.155-1.015c.3.008.7.015 1.155.015a22.079 22.079 0 0 0 4.38-.334c-.1-1.341-.4-5.493-.377-7.089 0-.106 0-.213.005-.321.02-1.065.04-2.071-.683-2.6a7.4 7.4 0 0 0 -1.706-.808 9.827 9.827 0 0 0 -2.892.983 6.255 6.255 0 0 0 -.724 2.538 4.95 4.95 0 0 0 .359 2.994.985.985 0 0 0 .554.39.5.5 0 0 1 .358.538z" fill="#063964"/><path d="m59.579 78.5s.651 3.509-.55 4.167a1.718 1.718 0 0 1 -1.215.29v.81s-.875.759-2-.376a6.8 6.8 0 0 1 -.148-1.551s-.9-.52-.812-1.311a5.505 5.505 0 0 1 1.1-3.269 2.418 2.418 0 0 1 3.619 1.24" fill="#f7d7c5"/><path d="m57.268 76.369a2.759 2.759 0 0 1 2.793 2q.006.021.01.042a12.688 12.688 0 0 1 .184 1.921c.019 1.473-.312 2.407-.985 2.775a2.977 2.977 0 0 1 -.955.346v.315a.5.5 0 0 1 -.172.378 1.706 1.706 0 0 1 -1.069.371 2.269 2.269 0 0 1 -1.611-.773.5.5 0 0 1 -.131-.235 7.183 7.183 0 0 1 -.162-1.405 1.893 1.893 0 0 1 -.809-1.626 6.016 6.016 0 0 1 1.239-3.564 2.407 2.407 0 0 1 1.668-.545zm1.823 2.245a1.776 1.776 0 0 0 -1.823-1.245 1.59 1.59 0 0 0 -.949.241 5 5 0 0 0 -.964 2.973c-.047.448.562.824.568.828a.5.5 0 0 1 .246.441 6.583 6.583 0 0 0 .107 1.288 1.223 1.223 0 0 0 .8.377.745.745 0 0 0 .242-.04v-.518a.5.5 0 0 1 .2-.424.458.458 0 0 1 .435-.058.5.5 0 0 0 .058 0 1.677 1.677 0 0 0 .781-.249c.569-.311.54-2.291.299-3.613z" fill="#063964"/><path d="m57.581 80.2a.289.289 0 1 1 -.326-.251.292.292 0 0 1 .326.251" fill="#0c2d51"/><path d="m59.043 80.2a.288.288 0 1 1 -.326-.251.291.291 0 0 1 .326.251" fill="#0c2d51"/><path d="m57.958 82.279a1.211 1.211 0 0 1 -.752-.279.4.4 0 0 1 .492-.631c.266.208.419.07.447.04a.4.4 0 0 1 .581.55 1.082 1.082 0 0 1 -.768.32z" fill="#082d4e"/><path d="m55.988 80 .289-1.216a9.54 9.54 0 0 0 4.067-.477 9.96 9.96 0 0 1 -.93-.611c.319-.306.7-.743.556-.989-.174-.305-1.155.035-1.549.187a2.228 2.228 0 0 0 -.3-.13l.276-.708a3.015 3.015 0 0 0 -1.017.538 2.68 2.68 0 0 0 -2.146.746 3.413 3.413 0 0 0 -.261 3.675.931.931 0 0 1 1.015-1.015" fill="#0c2d51"/><path d="m54.976 81.519a.5.5 0 0 1 -.44-.264 3.925 3.925 0 0 1 .3-4.208 3.068 3.068 0 0 1 2.4-.956c.732-.489.978-.532 1.151-.532h.044a.5.5 0 0 1 .441.657 3.012 3.012 0 0 1 .773-.13.8.8 0 0 1 .757.375 1.039 1.039 0 0 1 -.233 1.155c.235.153.418.257.421.259a.5.5 0 0 1 -.031.885 8.062 8.062 0 0 1 -3.261.567c-.245 0-.461-.006-.634-.014l-.191.805a.486.486 0 0 1 -.522.383h-.009c-.467 0-.467.362-.467.516a.5.5 0 0 1 -.5.5zm2.207-4.428a2.17 2.17 0 0 0 -1.543.549 2.824 2.824 0 0 0 -.555 2.112 1.465 1.465 0 0 1 .5-.211l.207-.869a.5.5 0 0 1 .534-.382s.408.038.975.038a9.492 9.492 0 0 0 1.893-.17l-.08-.059a.5.5 0 0 1 -.045-.76c.072-.069.133-.131.183-.187a5.871 5.871 0 0 0 -.65.212.5.5 0 0 1 -.422-.029 1.793 1.793 0 0 0 -.231-.1.5.5 0 0 1 -.268-.235l-.015.01a.5.5 0 0 1 -.317.087c-.054-.004-.11-.006-.166-.006z" fill="#082d4e"/><path d="m59.5 86.738h-1.469l.677-3.664h1.465z" fill="#1aabc0"/><path d="m59.5 87.238h-1.469a.5.5 0 0 1 -.492-.591l.677-3.664a.5.5 0 0 1 .492-.409h1.465a.5.5 0 0 1 .492.591l-.676 3.664a.5.5 0 0 1 -.489.409zm-.865-1h.449l.492-2.664h-.448z" fill="#063964"/><path d="m56.367 87.508 1.195.609s1.805-.718 1.625-1.412c-.1-.4.933-.89-.065-1.129-.592-.141-1.842.718-2.214 1.151z" fill="#f7d7c5"/><path d="m57.562 88.617a.5.5 0 0 1 -.227-.055l-1.195-.609a.5.5 0 0 1 -.184-.73l.541-.781a.5.5 0 0 1 .032-.041 4.336 4.336 0 0 1 2.451-1.341 1.117 1.117 0 0 1 .258.029 1.007 1.007 0 0 1 .78.556.937.937 0 0 1 -.236.894c-.028.039-.067.093-.091.131.078.492-.253.971-.984 1.426a6.824 6.824 0 0 1 -.959.486.5.5 0 0 1 -.186.035zm-.462-1.295.477.243a2.793 2.793 0 0 0 1.123-.765.938.938 0 0 1 .193-.733 3.921 3.921 0 0 0 -1.586.966z" fill="#063964"/><path d="m54.141 90.824a1.8 1.8 0 0 0 1.641-.511 16.566 16.566 0 0 0 2.061-2.027l-1.577-.974-2.092 1.263" fill="#a8b0b6"/><path d="m54.5 91.373a1.844 1.844 0 0 1 -.5-.068.5.5 0 0 1 .269-.963 1.3 1.3 0 0 0 1.18-.409 20.706 20.706 0 0 0 1.62-1.534l-.813-.5-1.824 1.101a.5.5 0 1 1 -.517-.856l2.092-1.263a.5.5 0 0 1 .521 0l1.577.974a.5.5 0 0 1 .13.734 16.943 16.943 0 0 1 -2.128 2.1 2.451 2.451 0 0 1 -1.607.684z" fill="#063964"/><path d="m91.87 20.852c-17.274 0-31.277 11.612-31.277 25.937 0 9.284 5.886 17.424 14.729 22.007l-11.922 12.116 18.98-9.4a37.192 37.192 0 0 0 9.49 1.219c17.274 0 31.277-11.612 31.277-25.937s-14-25.937-31.277-25.937" fill="#fff"/><path d="m91.87 20.3a37.238 37.238 0 0 1 12.358 2.069 32.723 32.723 0 0 1 10.112 5.655 26.728 26.728 0 0 1 6.843 8.419 22.519 22.519 0 0 1 0 20.7 26.729 26.729 0 0 1 -6.843 8.419 32.723 32.723 0 0 1 -10.112 5.655 37.237 37.237 0 0 1 -12.358 2.064 37.793 37.793 0 0 1 -9.429-1.181l-18.795 9.309a.555.555 0 0 1 -.646-.886l11.4-11.586a29.456 29.456 0 0 1 -10.222-9.068 23.139 23.139 0 0 1 -4.145-13.08 22.586 22.586 0 0 1 2.518-10.348 26.728 26.728 0 0 1 6.849-8.42 32.723 32.723 0 0 1 10.112-5.655 37.238 37.238 0 0 1 12.358-2.066zm0 51.874a36.13 36.13 0 0 0 11.991-2.007 31.617 31.617 0 0 0 9.771-5.462 25.626 25.626 0 0 0 6.563-8.069 21.409 21.409 0 0 0 0-19.688 25.626 25.626 0 0 0 -6.563-8.069 31.617 31.617 0 0 0 -9.771-5.462 36.824 36.824 0 0 0 -23.982 0 31.617 31.617 0 0 0 -9.771 5.462 25.626 25.626 0 0 0 -6.563 8.069 21.351 21.351 0 0 0 -1.366 16.382 22.978 22.978 0 0 0 2.92 5.913 28.533 28.533 0 0 0 10.478 9.057.555.555 0 0 1 .14.882l-9.608 9.768 16.025-7.94a.555.555 0 0 1 .388-.039 36.657 36.657 0 0 0 9.348 1.2z" fill="#0c2e51"/></g><g clip-path="url(#g)"><path d="m85.07 52.482c1.3 7.636-1.152 16.137-5.447 18.892s-8.9-1.422-10.239-9.282 1.116-16.36 5.447-18.892 8.94 1.645 10.239 9.281" fill="#4e8075"/><path d="m77.412 41.961a6.661 6.661 0 0 1 5.126 2.908 16.922 16.922 0 0 1 3.025 7.53 26.375 26.375 0 0 1 -.638 11.5c-1.065 3.7-2.852 6.5-5.032 7.9a5.462 5.462 0 0 1 -2.97.927 6.507 6.507 0 0 1 -5.038-2.931 17.541 17.541 0 0 1 -2.994-7.615 26.759 26.759 0 0 1 .609-11.67c1.068-3.7 2.871-6.452 5.078-7.741a5.576 5.576 0 0 1 2.834-.808zm-.489 29.761a4.481 4.481 0 0 0 2.43-.769c1.975-1.267 3.613-3.871 4.611-7.333a25.355 25.355 0 0 0 .613-11.054 15.934 15.934 0 0 0 -2.828-7.083 5.624 5.624 0 0 0 -4.337-2.522 4.592 4.592 0 0 0 -2.329.672 8.274 8.274 0 0 0 -2.7 2.753 16.746 16.746 0 0 0 -1.923 4.4 25.739 25.739 0 0 0 -.585 11.221 16.555 16.555 0 0 0 2.805 7.179 5.476 5.476 0 0 0 4.243 2.536z" fill="#063964"/><path d="m72.843 37.648s-.359 11.808 9.207 8.752c6.681-2.135-5.26-9.272-5.26-9.272z" fill="#0c2e51"/><path d="m76.79 36.627a.5.5 0 0 1 .257.071 37.212 37.212 0 0 1 3.824 2.681 16.959 16.959 0 0 1 2.6 2.51 3.887 3.887 0 0 1 1.1 2.769c-.116 1.007-.912 1.753-2.365 2.218a10.169 10.169 0 0 1 -3.066.529 5.684 5.684 0 0 1 -4.243-1.725 9.561 9.561 0 0 1 -2.3-5.093 15.848 15.848 0 0 1 -.251-2.954.5.5 0 0 1 .434-.481l3.947-.521a.5.5 0 0 1 .063-.004zm2.347 9.773a9.18 9.18 0 0 0 2.761-.482c1.045-.334 1.609-.8 1.676-1.38s-.276-1.918-3.323-4.379a37.106 37.106 0 0 0 -3.57-2.518l-3.334.44c.032 1.235.3 4.873 2.268 6.9a4.719 4.719 0 0 0 3.522 1.419z" fill="#0c2e51"/><path d="m89.378 38.236a2.412 2.412 0 0 1 -2.332 2.648 2.788 2.788 0 0 1 -2.321-2.938 2.412 2.412 0 0 1 2.331-2.646 2.788 2.788 0 0 1 2.322 2.938" fill="#e1e9ee"/><path d="m87.169 41.388c-.051 0-.1 0-.154 0a2.782 2.782 0 0 1 -2-1.109 3.751 3.751 0 0 1 -.785-2.329 2.926 2.926 0 0 1 2.709-3.151h.154a2.783 2.783 0 0 1 2.005 1.109 3.749 3.749 0 0 1 .786 2.329 2.928 2.928 0 0 1 -2.715 3.151zm-.235-5.594a1.95 1.95 0 0 0 -1.709 2.152 2.292 2.292 0 0 0 1.852 2.438h.091a1.952 1.952 0 0 0 1.709-2.153 2.292 2.292 0 0 0 -1.852-2.431z" fill="#073358"/><path d="m87.3 26.658-.063 8.532s.1 1.337.885 1.018c0 0 .48-.031.541-.457s-.583-9.29-.583-9.29-.6-.527-.78.2" fill="#e1e9ee"/><path d="m87.656 25.776a1.244 1.244 0 0 1 .75.31.5.5 0 0 1 .168.339c.195 2.682.641 8.965.579 9.4a1.048 1.048 0 0 1 -.92.876 1.068 1.068 0 0 1 -.343.059c-.765 0-1.1-.823-1.156-1.528q0-.021 0-.043l.063-8.532a.5.5 0 0 1 .015-.118.873.873 0 0 1 .844-.763zm.507 9.906c.015-.4-.185-3.475-.386-6.379l-.043 5.867a1.382 1.382 0 0 0 .179.582l.016-.006a.387.387 0 0 1 .152-.036.256.256 0 0 0 .082-.029z" fill="#073358"/><path d="m78.962 46.044c-.346.119-1.477.542-4.249 3.125a10.076 10.076 0 0 0 -3.158 7.716l4.779 1.336v10.707s9.046-2.071 14.06-4.463c0 0-.151-12.713-.239-15.778s-4.445-4.6-6-4.058-5.191 1.415-5.191 1.415" fill="#e09c92"/><path d="m84.9 44.023a6.917 6.917 0 0 1 3.582 1.168 4.383 4.383 0 0 1 2.172 3.482c.087 3.034.238 15.659.239 15.786v.32l-.288.138c-5.005 2.383-13.788 4.413-14.159 4.498l-.612.14v-10.955l-4.779-1.336v-.379a10.582 10.582 0 0 1 3.317-8.085 15.293 15.293 0 0 1 4.428-3.229l.045-.013c.036-.009 3.629-.879 5.145-1.4a2.809 2.809 0 0 1 .91-.135zm4.99 20.126c-.024-2-.156-12.694-.235-15.448-.068-2.38-3.177-3.678-4.755-3.678a1.858 1.858 0 0 0 -.584.079c-1.512.522-4.867 1.339-5.213 1.423a16.011 16.011 0 0 0 -4.05 3.011 9.1 9.1 0 0 0 -2.306 3.373 10.737 10.737 0 0 0 -.687 3.6l4.774 1.335v10.456a85.436 85.436 0 0 0 13.056-4.151z" fill="#073358"/><path d="m77.489 39.9a1.849 1.849 0 0 1 -1.789 2.03 2.136 2.136 0 0 1 -1.778-2.251 1.848 1.848 0 0 1 1.788-2.029 2.138 2.138 0 0 1 1.779 2.25" fill="#f7d7c5"/><path d="m75.8 42.433c-.041 0-.083 0-.124 0a2.248 2.248 0 0 1 -1.621-.895 2.992 2.992 0 0 1 -.626-1.856 2.356 2.356 0 0 1 2.193-2.531h.124a2.643 2.643 0 0 1 2.243 2.749 2.359 2.359 0 0 1 -2.189 2.533zm-.179-4.286a1.381 1.381 0 0 0 -1.193 1.532 1.641 1.641 0 0 0 1.309 1.752h.062a1.383 1.383 0 0 0 1.19-1.531 1.663 1.663 0 0 0 -1.31-1.751z" fill="#073358"/><path d="m88.312 38.071c.007-4.225-2.907-9.464-6.513-9.714s-6.536 4.585-6.543 8.81a8.329 8.329 0 0 0 4.189 7.418v2.8c0 .418 1.041.828 2.326.917s2.328-.177 2.329-.6v-2.8a7.1 7.1 0 0 0 4.212-6.836" fill="#f7d7c5"/><path d="m81.53 27.728c.1 0 .208 0 .311.011 1.881.13 3.69 1.428 5.093 3.654a13.056 13.056 0 0 1 2 6.679 8.675 8.675 0 0 1 -1.283 4.621 6.868 6.868 0 0 1 -2.93 2.626v2.385c0 .269-.125.759-.954 1.031a4.988 4.988 0 0 1 -1.507.2c-.174 0-.352-.006-.531-.019-.485-.034-2.906-.266-2.9-1.537v-2.429a8.222 8.222 0 0 1 -2.933-3.019 9.522 9.522 0 0 1 -1.256-4.766 11.806 11.806 0 0 1 1.939-6.3c1.353-2.022 3.113-3.137 4.951-3.137zm1.945 19.792v-2.615a.62.62 0 0 1 .4-.579 5.567 5.567 0 0 0 2.72-2.295 7.438 7.438 0 0 0 1.092-3.963 11.766 11.766 0 0 0 -1.806-6.016c-1.17-1.856-2.675-2.978-4.13-3.078-.075-.005-.151-.008-.226-.008-1.412 0-2.806.92-3.925 2.59a10.517 10.517 0 0 0 -1.729 5.611 8.281 8.281 0 0 0 1.09 4.145 6.9 6.9 0 0 0 2.764 2.722.62.62 0 0 1 .335.552v2.659a4.04 4.04 0 0 0 1.749.434c.15.01.3.016.445.016a3.382 3.382 0 0 0 1.221-.175z" fill="#073358"/><path d="m81.7 38.537a.5.5 0 0 1 -.527.5.572.572 0 0 1 -.523-.57.5.5 0 0 1 .527-.5.572.572 0 0 1 .523.57" fill="#0e2f54"/><path d="m85.978 38.125a.5.5 0 0 1 -.527.5.572.572 0 0 1 -.523-.57.5.5 0 0 1 .527-.5.572.572 0 0 1 .523.57" fill="#0e2f54"/><path d="m85.156 32.55s-4.7 4.837-9.787 6.049c-.463-1.211-2.526-.951-2.526-.951s-1.323-9.3 7.756-9.911c0 0 8.8-.085 7.713 8.082 0 0-.876 1.28-3.156-3.269" fill="#0c2e51"/><path d="m80.61 27.237a11.434 11.434 0 0 1 2.564.346 7.941 7.941 0 0 1 4.164 2.362 7.193 7.193 0 0 1 1.47 5.94.5.5 0 0 1 -.083.216.954.954 0 0 1 -.778.383c-.862 0-1.8-.991-2.925-3.106a30.656 30.656 0 0 1 -2.549 2.141 19.485 19.485 0 0 1 -6.987 3.566.5.5 0 0 1 -.583-.308c-.225-.589-1.194-.653-1.6-.653a3.669 3.669 0 0 0 -.4.02.5.5 0 0 1 -.557-.426c-.026-.181-.6-4.472 1.89-7.548a8.48 8.48 0 0 1 6.327-2.933h.044zm7.242 8.224a6.106 6.106 0 0 0 -1.267-4.861c-2.026-2.314-5.734-2.366-5.969-2.367a7.522 7.522 0 0 0 -5.6 2.558 9.552 9.552 0 0 0 -1.716 6.334 2.747 2.747 0 0 1 2.316.895c4.754-1.3 9.135-5.771 9.18-5.818a.5.5 0 0 1 .806.124c1.27 2.532 1.998 3.035 2.249 3.134z" fill="#0c2e51"/><path d="m91.017 63.878-2.317-13.762s-1.661-1.683-2.373-2.334-.591-1.737-.707-3.08 2.615-.444 2.615-.444a2.593 2.593 0 0 1 2.182 1.106 26.516 26.516 0 0 1 1.252 4.582s2.771 9.642 3.127 11.777-2.8 4.882-3.783 2.155" fill="#f7d7c5"/><path d="m92.329 65.519a1.884 1.884 0 0 1 -1.783-1.471.5.5 0 0 1 -.023-.087l-2.286-13.606c-.383-.386-1.655-1.666-2.244-2.2a3.535 3.535 0 0 1 -.818-2.623c-.013-.252-.027-.513-.05-.783a1.093 1.093 0 0 1 .268-.864 1.571 1.571 0 0 1 1.207-.417 6.593 6.593 0 0 1 1.719.3 3 3 0 0 1 2.544 1.373 25.891 25.891 0 0 1 1.3 4.7c.181.631 2.782 9.7 3.133 11.811a3.492 3.492 0 0 1 -.888 2.74 2.86 2.86 0 0 1 -2.079 1.127zm-.827-1.77c.194.511.472.77.827.77a1.95 1.95 0 0 0 1.313-.784 2.528 2.528 0 0 0 .665-1.93c-.347-2.082-3.087-11.625-3.114-11.721 0-.015-.008-.029-.011-.044a24.813 24.813 0 0 0 -1.2-4.444c-.434-.829-1.679-.838-1.732-.838a.5.5 0 0 1 -.163-.025 5.814 5.814 0 0 0 -1.482-.269c-.38 0-.469.092-.47.093a.186.186 0 0 0 -.009.1c.025.287.039.557.052.817.052 1 .1 1.576.494 1.937.713.652 2.323 2.283 2.391 2.352a.5.5 0 0 1 .137.268z" fill="#063964"/><path d="m86.746 44.693a.5.5 0 0 1 -.295-.9 3.557 3.557 0 0 0 1.049-3.333.5.5 0 0 1 .993-.12 4.512 4.512 0 0 1 -1.453 4.26.5.5 0 0 1 -.294.093z" fill="#073358"/><path d="m82.582 41.795a5.3 5.3 0 0 1 2.191-.106c.67.259-.038 1.013-.387 1.09a4.1 4.1 0 0 1 -1.4.166c-.467-.062-1.151-.763-.4-1.15" fill="#fff"/><path d="m84.115 41.128a2.3 2.3 0 0 1 .827.124.817.817 0 0 1 .574.835 1.483 1.483 0 0 1 -1.03 1.149l-.147.034a4.816 4.816 0 0 1 -1.1.16 2.478 2.478 0 0 1 -.326-.021 1.394 1.394 0 0 1 -1.127-1.023.945.945 0 0 1 .576-1.007.468.468 0 0 1 .105-.039 8.227 8.227 0 0 1 1.648-.212zm.418.975a1.78 1.78 0 0 0 -.418-.039 7.131 7.131 0 0 0 -1.363.172l-.026.018a.558.558 0 0 0 .317.227 1.542 1.542 0 0 0 .2.013 4 4 0 0 0 .882-.135l.153-.035a.746.746 0 0 0 .255-.224z" fill="#073358"/><path d="m86.873 43.97c.132.384-.343.858-1.062 1.059s-1.41.051-1.543-.331.343-.858 1.063-1.059 1.41-.052 1.542.331" fill="#175f95"/><path d="m85.961 43.049a1.343 1.343 0 0 1 1.385.758.97.97 0 0 1 -.073.771 2.126 2.126 0 0 1 -1.327.932 2.855 2.855 0 0 1 -.764.107 1.347 1.347 0 0 1 -1.386-.755.972.972 0 0 1 .073-.774 2.127 2.127 0 0 1 1.328-.931 2.842 2.842 0 0 1 .764-.108zm.418 1.081a.874.874 0 0 0 -.418-.081 1.869 1.869 0 0 0 -.5.071 1.276 1.276 0 0 0 -.7.416.88.88 0 0 0 .419.081 1.881 1.881 0 0 0 .5-.071 1.271 1.271 0 0 0 .698-.415z" fill="#073358"/><path d="m82.966 51.425-3.919-3.843c.153.385 1.423.644 2.837.577a3.931 3.931 0 0 0 2.34-.673z" fill="#fff"/><path d="m82.966 51.925a.5.5 0 0 1 -.35-.143l-3.66-3.589a.921.921 0 0 1 -.374-.426.5.5 0 0 1 .815-.542l.168.165a4.993 4.993 0 0 0 1.874.28c.139 0 .281 0 .421-.01a3.443 3.443 0 0 0 2.076-.583.5.5 0 0 1 .764.561l-1.258 3.939a.5.5 0 0 1 -.476.348zm-2.114-3.274 1.885 1.849.656-2.055a6.278 6.278 0 0 1 -1.486.214 9.731 9.731 0 0 1 -1.055-.008z" fill="#073358"/><path d="m153.51 72.518-44.71-25.668-60.156 34.887 42.964 25.691z" fill="#ebe3d3"/><path d="m108.8 46.35a.5.5 0 0 1 .249.066l44.709 25.668a.5.5 0 0 1 0 .869l-61.9 34.91a.5.5 0 0 1 -.5-.006l-42.971-25.691a.5.5 0 0 1 .006-.862l60.157-34.887a.5.5 0 0 1 .25-.067zm43.7 26.164-43.7-25.087-59.171 34.316 41.986 25.107z" fill="#073358"/><g fill="#f7d7c5"><path d="m83.867 39.519a.81.81 0 0 1 0 1.038"/><path d="m84.67 36.585s.605-.751 1.55.022"/><path d="m80.211 37.045a1.2 1.2 0 0 1 1.488-.32"/></g><path d="m80.211 37.545a.5.5 0 0 1 -.388-.815 1.674 1.674 0 0 1 2.122-.441.5.5 0 0 1 -.491.871.691.691 0 0 0 -.854.2.5.5 0 0 1 -.389.185z" fill="#073358"/><path d="m80.114 67.24a14.212 14.212 0 0 1 2.343.519 4.389 4.389 0 0 0 .843 1.05c.595.565 2.276-.146 2.276-.146s.149.892.672.916a2.088 2.088 0 0 0 1.153-.546s.224-4.57-.294-4.784-6.778.5-6.778.5" fill="#f7d7c5"/><path d="m86.281 70.08h-.057a1.157 1.157 0 0 1 -.97-.767c-.657.2-1.718.411-2.3-.14a5.41 5.41 0 0 1 -.828-.988 12.024 12.024 0 0 0 -2.026-.445.5.5 0 0 1 .036-1 13.952 13.952 0 0 1 2.47.54.5.5 0 0 1 .3.251 4.015 4.015 0 0 0 .742.915c.2.191 1.1.026 1.737-.244a.5.5 0 0 1 .688.378 1.053 1.053 0 0 0 .214.5 1.378 1.378 0 0 0 .628-.293c.014-.35.038-1.068.038-1.823a10.613 10.613 0 0 0 -.145-2.254c-.787-.032-3.756.236-6.418.541a.5.5 0 0 1 -.114-.993c.016 0 1.589-.182 3.205-.333 3.382-.317 3.646-.209 3.82-.137.419.173.634.674.651 2.931.009 1.17-.046 2.293-.048 2.34a.5.5 0 0 1 -.163.346 2.515 2.515 0 0 1 -1.46.675z" fill="#063964"/><path d="m71.555 56.885c-.253 6.568.912 7.133 2.82 8.135 1.8.945 6.958 3.4 6.958 3.4s.423-4.042 2.123-4.212-6.666-3.808-6.666-3.808-.084-4.986-.185-6.3" fill="#e09c92"/><path d="m81.333 68.922a.5.5 0 0 1 -.215-.049c-.052-.025-5.185-2.472-6.975-3.411l-.04-.021a4.546 4.546 0 0 1 -2.415-2.219c-.559-1.241-.755-3.2-.633-6.357a.5.5 0 1 1 1 .038c-.114 2.952.06 4.829.546 5.907a3.606 3.606 0 0 0 1.968 1.745l.039.021c1.4.737 4.91 2.421 6.329 3.1a12.082 12.082 0 0 1 .342-1.446 3.792 3.792 0 0 1 1.5-2.324 29.391 29.391 0 0 0 -3.018-1.6c-1.6-.769-3.155-1.443-3.17-1.45a.5.5 0 0 1 -.3-.45c0-.05-.085-4.986-.184-6.274a.5.5 0 1 1 1-.076c.087 1.138.16 4.881.181 6.013.575.254 1.9.847 3.208 1.48 1.02.494 1.83.917 2.409 1.257 1.145.672 1.332 1 1.275 1.36a.656.656 0 0 1 -.671.536c-.463.046-.925.705-1.267 1.807a11.721 11.721 0 0 0 -.408 1.96.5.5 0 0 1 -.5.448z" fill="#073358"/><path d="m0 0 .076 1.892" fill="#e09c92" transform="translate(76.79 60.404)"/><path d="m.076 2.392a.5.5 0 0 1 -.5-.48l-.076-1.892a.5.5 0 0 1 .48-.52.5.5 0 0 1 .52.48l.076 1.892a.5.5 0 0 1 -.48.52z" fill="#063964" transform="translate(76.79 60.404)"/><path d="m85.984 77.851c-.518.3-2.7-.36-2.7-.889l.032-17.019a1.987 1.987 0 0 1 .94-1.508l23.164-13.592c.518-.3 2.694.061 2.693.59" fill="#dae4ec"/><path d="m85.571 78.426a5.014 5.014 0 0 1 -2.122-.587c-.441-.253-.664-.548-.663-.877l.032-17.019a2.468 2.468 0 0 1 1.187-1.943l23.164-13.592a4.005 4.005 0 0 1 2.932.274.859.859 0 0 1 .515.748.5.5 0 0 1 -.98.138 2.7 2.7 0 0 0 -.936-.285 2.5 2.5 0 0 0 -1.027-.01l-23.162 13.593a1.506 1.506 0 0 0 -.693 1.078l-.032 16.92a2.791 2.791 0 0 0 .917.413 2.461 2.461 0 0 0 1.04.137.5.5 0 0 1 .494.869 1.332 1.332 0 0 1 -.666.143z" fill="#063964"/><path d="m104.329 72.217-7.386 4.334-4.46-3.215 7.386-4.336z" fill="#dae4ec"/><path d="m99.869 68.5a.5.5 0 0 1 .292.094l4.46 3.214a.5.5 0 0 1 -.039.837l-7.382 4.337a.5.5 0 0 1 -.545-.026l-4.46-3.215a.5.5 0 0 1 .039-.837l7.386-4.333a.5.5 0 0 1 .249-.071zm3.545 3.671-3.573-2.571-6.441 3.779 3.573 2.576z" fill="#063964"/><path d="m109.184 64.228-23.164 13.591c-.518.3-.938.122-.937-.407l.032-17.019a1.987 1.987 0 0 1 .94-1.508l23.164-13.591c.518-.3.937-.122.936.407l-.031 17.019a1.99 1.99 0 0 1 -.94 1.508" fill="#dae4ec"/><path d="m85.553 78.466a.945.945 0 0 1 -.676-.271 1.066 1.066 0 0 1 -.294-.784l.032-17.019a2.468 2.468 0 0 1 1.185-1.938l23.164-13.591a1.424 1.424 0 0 1 .72-.216.944.944 0 0 1 .676.271 1.066 1.066 0 0 1 .294.785l-.031 17.019a2.47 2.47 0 0 1 -1.187 1.938l-23.163 13.59a1.425 1.425 0 0 1 -.72.216zm24.1-32.816a.6.6 0 0 0 -.18.075l-23.165 13.591a1.506 1.506 0 0 0 -.693 1.078l-.032 17.019a.388.388 0 0 0 0 .05.6.6 0 0 0 .181-.075l23.167-13.588a1.508 1.508 0 0 0 .693-1.078l.031-17.019a.391.391 0 0 0 -.003-.053z" fill="#063964"/><path d="m104.349 72.372-7.261 4.266-1.088-11.37 4.715-2.771z" fill="#dae4ec"/><path d="m97.088 77.138a.5.5 0 0 1 -.5-.452l-1.088-11.371a.5.5 0 0 1 .244-.479l4.715-2.771a.5.5 0 0 1 .723.258l3.636 9.875a.5.5 0 0 1 -.216.6l-7.261 4.266a.5.5 0 0 1 -.253.074zm-.562-11.6.985 10.272 6.225-3.657-3.285-8.921z" fill="#063964"/><path d="m0 3.312 5.645-3.312" fill="#dae4ec" transform="translate(87.548 71.223)"/><path d="m0 3.812a.5.5 0 0 1 -.432-.247.5.5 0 0 1 .178-.684l5.646-3.312a.5.5 0 0 1 .684.178.5.5 0 0 1 -.176.684l-5.647 3.312a.5.5 0 0 1 -.253.069z" fill="#063964" transform="translate(87.548 71.223)"/><path d="m0 3.312 5.645-3.312" fill="#dae4ec" transform="translate(102.02 62.732)"/><path d="m0 3.812a.5.5 0 0 1 -.432-.247.5.5 0 0 1 .178-.684l5.646-3.312a.5.5 0 0 1 .684.178.5.5 0 0 1 -.176.684l-5.647 3.312a.5.5 0 0 1 -.253.069z" fill="#063964" transform="translate(102.02 62.732)"/></g><g clip-path="url(#a)"><path d="m63.4 81.466a.555.555 0 0 1 -.4-.944l11.4-11.586a29.445 29.445 0 0 1 -10.222-9.067 23.14 23.14 0 0 1 -4.146-13.08 22.585 22.585 0 0 1 2.524-10.349 26.73 26.73 0 0 1 6.844-8.419 32.723 32.723 0 0 1 10.112-5.655 37.932 37.932 0 0 1 24.716 0 32.723 32.723 0 0 1 10.112 5.655 26.73 26.73 0 0 1 6.843 8.419 22.518 22.518 0 0 1 0 20.7 26.728 26.728 0 0 1 -6.843 8.419 32.723 32.723 0 0 1 -10.112 5.655 37.237 37.237 0 0 1 -12.358 2.066 37.794 37.794 0 0 1 -9.429-1.18l-18.795 9.308a.553.553 0 0 1 -.246.058zm28.47-60.06a36.128 36.128 0 0 0 -11.991 2.007 31.618 31.618 0 0 0 -9.771 5.462 25.627 25.627 0 0 0 -6.563 8.069 21.349 21.349 0 0 0 -1.366 16.384 22.982 22.982 0 0 0 2.921 5.914 28.523 28.523 0 0 0 10.477 9.058.555.555 0 0 1 .14.882l-9.608 9.768 16.025-7.94a.555.555 0 0 1 .388-.039 36.657 36.657 0 0 0 9.348 1.2 36.13 36.13 0 0 0 11.991-2.007 31.617 31.617 0 0 0 9.771-5.462 25.626 25.626 0 0 0 6.563-8.069 21.408 21.408 0 0 0 0-19.687 25.628 25.628 0 0 0 -6.563-8.069 31.618 31.618 0 0 0 -9.771-5.462 36.128 36.128 0 0 0 -11.991-2.009z" fill="#0c2e51"/><path d="m122.977 40.632h-25.753a4 4 0 0 1 -4-4v-6.026a4 4 0 0 1 4-4h25.753a4 4 0 0 1 4 4v6.026a4 4 0 0 1 -4 4" fill="#dae4ec"/><path d="m4-.5h25.753a4.505 4.505 0 0 1 4.5 4.5v6.026a4.505 4.505 0 0 1 -4.5 4.5h-25.753a4.505 4.505 0 0 1 -4.5-4.5v-6.026a4.505 4.505 0 0 1 4.5-4.5zm25.753 14.026a3.5 3.5 0 0 0 3.5-3.5v-6.026a3.5 3.5 0 0 0 -3.5-3.5h-25.753a3.5 3.5 0 0 0 -3.5 3.5v6.026a3.5 3.5 0 0 0 3.5 3.5z" fill="#063964" transform="translate(93.224 26.606)"/><path d="m123.019 39.236h-25.719a2.654 2.654 0 0 1 -2.654-2.654v-5.925a2.654 2.654 0 0 1 2.654-2.657h25.723a2.654 2.654 0 0 1 2.654 2.654v5.925a2.654 2.654 0 0 1 -2.654 2.654" fill="#204c66"/><g fill="#fbebc7"><path d="m97.626 36.263a.365.365 0 0 1 -.378.295.5.5 0 0 1 -.172-.029.455.455 0 0 1 -.345-.435.49.49 0 0 1 .027-.162l1.717-4.906a.7.7 0 0 1 1.339 0l1.723 4.928a.372.372 0 0 1 .034.162.451.451 0 0 1 -.352.42.718.718 0 0 1 -.172.022.385.385 0 0 1 -.385-.295l-.437-1.34h-2.161zm2.327-2.224-.564-1.709a8.379 8.379 0 0 1 -.245-.913c-.073.324-.146.618-.238.913l-.577 1.709z"/><path d="m105.493 36.079c-.119.361-.3.479-.583.479s-.478-.118-.6-.486l-.756-2.357c-.205-.634-.457-1.717-.6-2.306.027.626.113 1.871.113 2.49l.006 2.261c0 .258-.152.4-.437.4a.372.372 0 0 1 -.425-.4v-5.075a.544.544 0 0 1 .6-.56.658.658 0 0 1 .736.523l.941 2.888a12.826 12.826 0 0 1 .425 1.657 13.99 13.99 0 0 1 .431-1.679l.914-2.858a.671.671 0 0 1 .756-.531.547.547 0 0 1 .6.56v5.075a.377.377 0 0 1 -.431.4c-.279 0-.431-.14-.431-.4l.007-2.254c0-.633.086-1.863.119-2.5-.153.6-.411 1.664-.61 2.291z"/><path d="m111.919 35.593c.219 0 .331.191.331.442s-.112.471-.331.471h-3.119c-.305 0-.464-.206-.464-.574a2.189 2.189 0 0 1 .292-.892 3.966 3.966 0 0 1 1.213-1.347l.4-.3c.637-.472.975-.73.975-1.275 0-.5-.358-.788-.895-.788a.964.964 0 0 0 -1 .869.382.382 0 0 1 -.391.309.581.581 0 0 1 -.159-.022.425.425 0 0 1 -.365-.419.731.731 0 0 1 .02-.155 1.9 1.9 0 0 1 .418-.833 1.808 1.808 0 0 1 1.5-.611 1.581 1.581 0 0 1 1.79 1.65 2.021 2.021 0 0 1 -1.134 1.803l-.392.265a2.819 2.819 0 0 0 -1.239 1.407z"/><path d="m114.078 32.809a.565.565 0 1 1 -1.127 0 .564.564 0 1 1 1.127 0m0 3.137a.564.564 0 1 1 -.564-.595.564.564 0 0 1 .564.595"/><path d="m118.793 33.537c0 2.011-.722 3.087-2.042 3.087-1.345 0-2.028-1.076-2.028-3.116 0-1.981.722-3.042 2.035-3.042 1.273 0 2.035.965 2.035 3.071m-3.161-.014c0 1.429.364 2.2 1.126 2.2s1.12-.751 1.12-2.21c0-1.392-.351-2.151-1.12-2.151-.749 0-1.126.745-1.126 2.159"/><path d="m123.439 33.537c0 2.011-.722 3.087-2.042 3.087-1.345 0-2.028-1.076-2.028-3.116 0-1.981.722-3.042 2.035-3.042 1.273 0 2.035.965 2.035 3.071m-3.162-.014c0 1.429.365 2.2 1.127 2.2s1.12-.751 1.12-2.21c0-1.392-.351-2.151-1.12-2.151-.749 0-1.127.745-1.127 2.159"/></g></g></g></g></svg>