<?xml version="1.0" encoding="utf-8"?>
<!-- Generator: Adobe Illustrator 25.4.8, SVG Export Plug-In . SVG Version: 6.00 Build 0)  -->
<svg version="1.1" id="レイヤー_1" xmlns="http://www.w3.org/2000/svg" xmlns:xlink="http://www.w3.org/1999/xlink" x="0px"
	 y="0px" width="80" height="30" viewBox="0 0 80 30" style="enable-background:new 0 0 80 30;" xml:space="preserve">
<style type="text/css">
	.st0{fill:#111111;}
	.st1{fill:#003A77;}
</style>
<rect x="30.8862858" y="8.7777777" class="st0" width="0.4436949" height="12.4444447"/>
<g>
	<path class="st1" d="M26.618042,12.9157181c0.042923-0.0530348,0.0587101-0.1242504,0.0422134-0.190589
		c-0.8153-3.2731781-3.8023739-4.7382903-6.4009972-4.7382903c-1.2175865,0-2.3715839,0.3066802-3.3372097,0.8868718
		c-3.5413246,2.127861-4.5894852,6.203248-2.6213274,10.0078735c-0.3947363,0.2335014-0.8967943,0.5097961-1.4763765,0.7832298
		l-3.9107494-5.2015934c2.358901-1.8516998,3.160634-3.1046724,3.160634-4.902894
		c0-2.7432718-2.2055626-4.7342992-5.2442513-4.7342992c-3.0380685,0-5.3290358,2.0596714-5.3290358,4.7908816
		c0,1.4096832,0.6650653,2.5617294,1.9757733,4.2654991C0.9784858,15.8889561,0,17.5496235,0,19.7550964
		c0,3.2465725,2.2528319,5.3211422,5.8793397,5.4139977c0.1280646,0.0032825,0.2553306,0.004879,0.3812666,0.004879h0.0001774
		c1.8139186,0,3.5748916-0.3379879,5.2370667-1.0049152l0.4020195,0.5174904
		c0.113431,0.1461563,0.3300934,0.2522259,0.5151834,0.2522259h3.7042875c0.1428738,0,0.261095-0.0659828,0.3167896-0.1772861
		c0.0547199-0.1104145,0.0361843-0.2442436-0.0493984-0.3582077l-1.4150038-1.8821182
		c0.6536245-0.3882618,1.155982-0.7187443,1.5144663-0.9673996c1.5254974,1.1568451,3.255352,1.4577503,4.6373196,1.4577503
		c1.3391781,0,2.4578781-0.2835331,3.160635-0.5213909c0.3803787-0.1286869,0.8911285-0.3634415,0.9494858-0.3904915
		c0.1114788-0.0518818,0.2105427-0.1826057,0.2304077-0.3039303l0.5191765-3.166132
		c0.0137463-0.0838108-0.0227928-0.1687717-0.0931225-0.216486c-0.0691757-0.0469151-0.1635399-0.0494881-0.2355537-0.0064735
		c-1.1975422,0.7192516-2.5475388,1.0994549-3.9038315,1.0994549c-0.7271461,0-1.4205036-0.10882-2.064373-0.3237972
		C24.3135929,15.6996975,26.3936634,13.1931314,26.618042,12.9157181z M18.5301247,11.5503788
		c0.4799747-0.2884998,1.0449123-0.4409533,1.6336174-0.4409533c1.0338268,0,1.9966145,0.4549656,2.5947208,1.2214003
		c-0.3653908,0.4236593-2.3996983,2.7076197-5.6303062,4.9248886c-0.2155991-0.3495159-0.3746147-0.7272358-0.4732342-1.1243763
		C16.1943703,14.277421,16.9129124,12.5221243,18.5301247,11.5503788z M14.4623976,22.1638412l-0.0500193,0.029089
		c-0.0699749,0.0406189-0.1191959,0.1092625-0.1351595,0.1886368c-0.0160522,0.0792866,0.0025721,0.1616783,0.0511723,0.2263298
		l1.3265829,1.7645206l-3.2363729,0.0001774c-0.0189791-0.0021286-0.0603962-0.0223484-0.0714817-0.0334339l-0.5340738-0.6874142
		c-0.0783997-0.1008377-0.2144461-0.1371117-0.3322229-0.0877132l-0.0363617,0.0150776
		c-1.6408901,0.6824474-3.3850126,1.0285053-5.1838546,1.0285053c-0.1211467,0-0.2436237-0.0015965-0.3668103-0.0046997
		c-3.2861266-0.0841656-5.3274393-1.9417191-5.3274393-4.8478203c0-2.0598488,0.9646505-3.6217194,3.4404423-5.5706196
		l0.0402637-0.031661c0.1225657-0.0964031,0.1441169-0.2738667,0.0481572-0.3967867L4.064002,13.7160311
		c-1.3242774-1.7027054-1.9967036-2.8042002-1.9967036-4.099122c0-2.4083891,2.0475211-4.2245255,4.7626796-4.2245255
		c2.7105465,0,4.6778946,1.7529025,4.6778946,4.167943c0,1.629982-0.7818661,2.7851324-3.0933208,4.5739536l-0.0639429,0.0471811
		c-0.060751,0.0447874-0.1011038,0.1121006-0.1120119,0.1868639c-0.0109978,0.0747633,0.0084248,0.1507683,0.053833,0.2111645
		l4.216898,5.6088438c0.0801735,0.1064243,0.2234917,0.1426086,0.3444614,0.0871792l0.0376034-0.0172939
		c0.6685791-0.3065796,1.239193-0.6179161,1.6848459-0.881073c0.4357424,0.7328434,0.9291534,1.3250866,1.4560108,1.8007927
		C15.6524572,21.4368057,15.1292915,21.7749805,14.4623976,22.1638412z"/>
	<path class="st1" d="M6.0427017,16.2233067c-0.0467381-0.0600414-0.1155596-0.0987968-0.1911211-0.1075783
		c-0.0759158-0.0086899-0.151566,0.0133038-0.2106318,0.0611954l-0.040885,0.0330791
		c-0.0000887,0.0000896-0.0002661,0.0001774-0.0003548,0.0001774c-1.4759321,1.1974545-2.0779407,2.1342583-2.0779407,3.2334461
		c0,1.4732723,1.0609648,2.4839516,2.6400402,2.5149918c0.0728121,0.0015087,0.1461568,0.0022182,0.2198558,0.0022182
		c1.1426458,0,2.202014-0.1823406,3.148839-0.542057l0.0650959-0.024744
		c0.0839872-0.0319271,0.1478415-0.1018124,0.1720533-0.1881943c0.0243006-0.0864697,0.0061197-0.1793251-0.0489559-0.2502747
		L6.0427017,16.2233067z M6.3816643,21.3944798c-0.0699744,0-0.1394162-0.0007095-0.2085924-0.0020409
		c-1.2860527-0.0252743-2.0849471-0.7720203-2.0849471-1.9488125c0-0.8646984,0.4915042-1.640358,1.6858549-2.6429653
		l3.2579236,4.1940174C8.2261801,21.2601185,7.3362932,21.3944798,6.3816643,21.3944798z"/>
	<path class="st1" d="M6.3724408,12.1014805c0.0558729,0.0707731,0.1387067,0.1077557,0.2224274,0.1077557
		c0.0605731,0,0.1215901-0.0193338,0.1731172-0.0592432l0.0406189-0.031395
		c1.4448919-1.1205635,1.8854008-1.724966,1.8854008-2.5866508c0-1.062561-0.7891383-1.8638501-1.8356471-1.8638501
		c-1.0808311,0-1.8356476,0.7664342-1.8356476,1.8638501c0,0.6772156,0.2833557,1.2209568,1.3181577,2.5295362L6.3724408,12.1014805
		z M6.8583579,8.2344532c0.7235985,0,1.2692914,0.5577536,1.2692914,1.2974939c0,0.5485296-0.227838,0.9989719-1.4849787,1.9969692
		c-0.8228397-1.0555553-1.0536041-1.5017405-1.0536041-1.9969692C5.5890665,8.743784,6.0873113,8.2344532,6.8583579,8.2344532z"/>
</g>
<g>
	<path d="M75.5016937,13.513361c0,0.8950377,0,4.2736015,0,4.4976158h-0.6485214c0-0.1690445,0-2.0911045,0-3.3873749
		c-0.153038,0.2640419-0.3217697,0.4461775-0.4859848,0.6174393V14.213172
		c0.4105759-0.6585503,0.7880096-1.4955521,0.9141006-2.2258339h0.7099152
		C75.9056091,12.4734745,75.7288361,13.0024929,75.5016937,13.513361z M80,15.4061728h-1.4390564
		c0.3572922,0.7132158,1.0492172,1.3099051,1.4035263,1.5238829l0.0145493,0.0084209v0.7803516l-0.0946198-0.0386639
		c-0.7965927-0.4713669-1.4241333-1.2260685-1.6500549-1.8187828c0,0.4136448,0,2.14921,0,2.14921h-0.683197
		c0,0,0-1.6472149,0-2.1175852c-0.2665024,0.6227942-0.9451065,1.3638716-1.7137451,1.8052282
		c-0.000618-0.0007687-0.000618-0.7910709-0.000618-0.7910709c0.377739-0.2121429,1.0961533-0.8971767,1.380722-1.5009909
		h-1.3089066v-0.6531096h1.6461487v-0.485611c-0.7071686,0-1.3354034,0-1.3354034,0v-2.115139h3.4561996v2.115139h-1.4412003
		v0.485611H80V15.4061728z M79.0006866,13.6718378v-0.92344h-2.106636v0.92344H79.0006866z"/>
	<path d="M69.8936157,15.4197979c-0.1832123,0.0804653-0.4124222,0.1692705-0.610321,0.2359533c0,0.8966436,0,1.6259298,0,1.736867
		c0,0.3766651-0.1365051,0.6188908-0.6582489,0.6188908c-0.1678085,0-0.5782394-0.0001488-0.5782394-0.0001488v-0.6145306
		c0,0,0.3202438,0,0.407135,0c0.1247101,0,0.1819839-0.013092,0.1819839-0.1561794c0-0.0428753,0-0.5966892,0-1.3401413
		c-0.1566467,0.0474606-0.4102783,0.1058025-0.5914841,0.1502838c0.0008392,0.0015278,0.0008392-0.6771536,0-0.6766205
		c0.1664276-0.0327692,0.4086609-0.0951643,0.5914841-0.1560221c0-0.4549112,0-1.4507723,0-1.4507723h-0.5914841V13.142436
		h0.5914841v-1.1377954h0.6473694v1.1377954h0.6214905v0.6249418h-0.6214905c0,0,0,0.8282757,0,1.2116041
		c0.1978989-0.0644646,0.4271088-0.1562567,0.610321-0.2302065C69.8952179,14.7531338,69.8952179,15.4191084,69.8936157,15.4197979z
		 M73.630928,18.0105915c0,0-0.7981873,0.0004539-0.7981873-0.0000782
		c-0.1574097-0.1949921-0.4872208-0.6994324-0.6198959-0.9056759h-0.9522934
		c-0.1455383,0.2446804-0.4512329,0.6989708-0.6216507,0.9078236H69.838562
		c0.1530457-0.1877251,0.501915-0.6777725,0.6440048-0.9078236h-0.4235153v-3.1046495h3.3723679v3.1046495h-0.4305573
		C73.1389694,17.3170547,73.4685516,17.7813797,73.630928,18.0105915z M72.7591705,16.6193848v-0.402998
		c-0.4807816,0-1.6711807,0-2.0284729,0v0.402998H72.7591705z M72.7591705,15.3514376c-0.4807816,0-1.6711807,0-2.0284729,0
		v0.3986311c0.3572922,0,1.5476913,0,2.0284729,0V15.3514376z M70.7306976,14.4852581v0.3999395
		c0.3572922,0,1.5476913,0,2.0284729,0v-0.3999395H70.7306976z M73.3575439,13.6695404h-3.1861038v-1.5281725h3.1861038V13.6695404z
		 M72.6851349,12.6422119h-1.8419724v0.5261021h1.8419724V12.6422119z"/>
	<path d="M56.916996,14.9069376c1.3465767-0.1888618,3.16605-1.043479,3.9699059-2.544549
		c0,0,0.8381538,0.0001564,0.8377686-0.0005331c-0.2769089,0.7557755-0.887989,1.4780216-1.6753883,2.0636101l-0.0006142,3.5861998
		h-0.7794342l-0.0006905-3.1002836c-0.751873,0.3946571-1.6022797,0.6713371-2.3510857,0.7540913L56.916996,14.9069376z"/>
	<path d="M35.5555573,14.9069376c1.346489-0.1888618,3.1660385-1.043479,3.9698944-2.544549
		c0,0,0.8381538,0.0001564,0.8376999-0.0005331c-0.2769127,0.7557755-0.8879967,1.4780216-1.6753883,2.0636101l-0.0005417,3.5861998
		h-0.7795067l-0.0006905-3.1002836c-0.7518005,0.3946571-1.6021996,0.6713371-2.3510132,0.7540913L35.5555573,14.9069376z"/>
	<rect x="40.0393867" y="14.6670876" width="4.2688928" height="0.7442127"/>
	<path d="M65.5859375,13.2822294h-3.0745583v-0.7614431h3.075016L65.5859375,13.2822294z M66.4140625,13.5606737
		c-0.2116013,2.0305433-1.2262268,3.3425093-3.744442,3.6777582v0.7726917
		c3.0642204-0.4204559,4.2807274-1.9588032,4.5565681-4.4497604L66.4140625,13.5606737z"/>
	<path d="M45.1429558,14.111352h5.0650558l-0.0002289,0.7613659h-1.9751854
		c-0.004673,0.1325188-0.0111008,0.275919-0.0208244,0.4145613c-0.1089439,1.5978336-1.3636513,2.5187492-2.752327,2.7232342
		v-0.7657318c0.5430183-0.1205788,1.7896118-0.4469376,1.953598-1.9638529
		c0.0108757-0.1009102,0.019371-0.2538662,0.02174-0.4082108h-2.2918282V14.111352z M49.3101425,12.5098419h-3.770771v0.7612867
		h3.7704659L49.3101425,12.5098419z M50.1681252,12.1470375h-0.5354385v0.8881454h0.5354385V12.1470375z M50.4891357,12.1470375
		v0.8881454h0.5355949v-0.8881454H50.4891357z"/>
	<path d="M55.6106911,13.4206524l0.9843025-0.0007687v0.7418451l-0.9836159-0.0007687v0.8328705
		c0,2.0502195-1.4594955,2.9015436-2.8337059,3.017293l0.0003815-0.7496529
		c0.5557365-0.0790062,2.0693588-0.2648106,2.0693588-2.4140902l0.0019112-0.6856518l-1.8464165-0.0007687l0.0006905,1.671792
		L52.23909,15.8303766l0.0001564-1.6686478l-0.9127235,0.0000782l0.0007668-0.7411547l0.9095802-0.0007687l0.0009956-1.1018982
		l0.7634354,0.0006895l-0.0009956,1.1019773l1.8490181-0.0007687L54.848259,12.312396l0.7630501-0.0004549L55.6106911,13.4206524z
		 M56.0921593,13.035183h0.53545v-0.8881454h-0.53545V13.035183z M56.9487686,12.1470375v0.8881454h0.5353699v-0.8881454H56.9487686
		z"/>
</g>
</svg>
