<svg xmlns="http://www.w3.org/2000/svg" width="17.719" height="17.808" viewBox="0 0 17.719 17.808">
  <g id="Group_644" data-name="Group 644" transform="translate(-315.14 -210.096)">
    <g id="_00_icon_btn_phone" data-name=" 00 icon btn phone">
      <path id="パス_96" data-name="パス 96" d="M330.445,223.5l-2.705-1.769a1.248,1.248,0,0,0-1.692.338c-.624.754-1.378,2-4.214-.832s-1.613-3.617-.859-4.241a1.249,1.249,0,0,0,.338-1.691l-1.769-2.706c-.234-.338-.546-.885-1.275-.781a3.551,3.551,0,0,0-2.627,3.512c0,2.342,1.847,5.2,4.371,7.727s5.384,4.345,7.7,4.345a3.77,3.77,0,0,0,3.511-2.6C331.3,224.283,330.783,223.736,330.445,223.5Z" fill="none" stroke="#003a77" stroke-linecap="round" stroke-linejoin="round" stroke-width="1"/>
    </g>
    <g id="Group_643" data-name="Group 643">
      <path id="Path_933" data-name="Path 933" d="M325.714,210.6a6.645,6.645,0,0,1,6.645,6.645" fill="none" stroke="#003a77" stroke-linecap="round" stroke-linejoin="round" stroke-width="1"/>
      <path id="Path_934" data-name="Path 934" d="M325.714,215.1a2.138,2.138,0,0,1,2.138,2.138" fill="none" stroke="#003a77" stroke-linecap="round" stroke-linejoin="round" stroke-width="1"/>
      <path id="Path_935" data-name="Path 935" d="M325.714,212.9a4.337,4.337,0,0,1,4.337,4.337" fill="none" stroke="#003a77" stroke-linecap="round" stroke-linejoin="round" stroke-width="1"/>
    </g>
  </g>
</svg>
