<svg xmlns="http://www.w3.org/2000/svg" width="39.316" height="30" viewBox="0 0 39.316 30">
  <g id="logo" transform="translate(-331.022 -63.135)">
    <path id="Path_948" data-name="Path 948" d="M370.266,75.062a.324.324,0,0,0,.062-.281A9.879,9.879,0,0,0,355.971,69.1c-5.221,3.137-6.766,9.146-3.865,14.755-.582.344-1.322.752-2.177,1.155l-5.766-7.669c3.478-2.73,4.66-4.577,4.66-7.229,0-4.044-3.252-6.98-7.732-6.98s-7.857,3.037-7.857,7.063c0,2.078.981,3.777,2.913,6.289-3.683,2.959-5.126,5.407-5.126,8.658,0,4.787,3.321,7.845,8.668,7.982q.284.007.562.007h0a20.632,20.632,0,0,0,7.721-1.482l.593.763a1.039,1.039,0,0,0,.76.372h5.461a.474.474,0,0,0,.394-.789L353.1,89.224c.964-.572,1.7-1.06,2.233-1.426a11.186,11.186,0,0,0,6.837,2.149,14.717,14.717,0,0,0,4.66-.769c.561-.19,1.314-.536,1.4-.576a.653.653,0,0,0,.34-.448l.765-4.668a.323.323,0,0,0-.137-.319.328.328,0,0,0-.347-.01,11.2,11.2,0,0,1-5.756,1.621,9.582,9.582,0,0,1-3.044-.477A60.766,60.766,0,0,0,370.266,75.062Zm-11.925-2.013a4.668,4.668,0,0,1,2.409-.65,4.84,4.84,0,0,1,3.826,1.8,45.721,45.721,0,0,1-8.3,7.261,10.885,10.885,0,0,1-.7-1.658S355.958,74.482,358.342,73.049Zm-6,15.648-.074.043a.418.418,0,0,0-.124.612l1.956,2.6h-4.772a.268.268,0,0,1-.105-.05l-.788-1.013a.416.416,0,0,0-.49-.129l-.054.022a19.8,19.8,0,0,1-7.643,1.516c-.179,0-.359,0-.541-.007-4.845-.124-7.855-2.863-7.855-7.148,0-3.037,1.422-5.34,5.072-8.213l.059-.047a.418.418,0,0,0,.071-.585l-.046-.059c-1.952-2.51-2.944-4.134-2.944-6.043,0-3.551,3.019-6.228,7.022-6.228s6.9,2.584,6.9,6.145c0,2.4-1.153,4.106-4.561,6.744l-.094.07a.418.418,0,0,0-.086.587l6.217,8.269a.417.417,0,0,0,.508.129l.055-.025a27.235,27.235,0,0,0,2.484-1.3,11.371,11.371,0,0,0,2.147,2.655C354.1,87.625,353.328,88.124,352.345,88.7Z" transform="translate(0 0)" fill="#003a77"/>
    <path id="Path_949" data-name="Path 949" d="M354.234,125.448a.429.429,0,0,0-.609-.07l-.062.05h0c-2.238,1.816-3.151,3.236-3.151,4.9a3.755,3.755,0,0,0,4,3.814c.11,0,.221,0,.333,0a13.408,13.408,0,0,0,4.775-.822l.1-.037a.43.43,0,0,0,.187-.665Zm.514,7.841q-.159,0-.316,0c-1.95-.038-3.161-1.171-3.161-2.955,0-1.311.745-2.487,2.556-4.008l4.94,6.36A12.826,12.826,0,0,1,354.748,133.289Z" transform="translate(-14.049 -45.696)" fill="#003a77"/>
    <path id="Path_950" data-name="Path 950" d="M360.722,85.5a.43.43,0,0,0,.6.074l.062-.048c2.191-1.7,2.859-2.616,2.859-3.922a2.744,2.744,0,0,0-2.783-2.826,2.684,2.684,0,0,0-2.784,2.826c0,1.027.43,1.851,2,3.836Zm.737-5.864a1.9,1.9,0,0,1,1.925,1.968c0,.832-.346,1.515-2.252,3.028-1.248-1.6-1.6-2.277-1.6-3.028A1.824,1.824,0,0,1,361.459,79.641Z" transform="translate(-20.282 -11.338)" fill="#003a77"/>
  </g>
</svg>
