<svg xmlns="http://www.w3.org/2000/svg" xmlns:xlink="http://www.w3.org/1999/xlink" width="24" height="24" viewBox="0 0 24 24">
  <defs>
    <clipPath id="clip-ios-info-circle">
      <rect width="24" height="24"/>
    </clipPath>
  </defs>
  <g id="ios-info-circle" clip-path="url(#clip-ios-info-circle)">
    <g id="_00_icon_info" data-name="00_icon_info" transform="translate(2 2)">
      <circle id="楕円形_2" data-name="楕円形 2" cx="10" cy="10" r="10" fill="#003a77"/>
      <g id="グループ_287" data-name="グループ 287" transform="translate(7.989 3.958)">
        <path id="パス_124" data-name="パス 124" d="M1715.4,1578a1.3,1.3,0,1,1-1.3,1.3A1.3,1.3,0,0,1,1715.4,1578Z" transform="translate(-1713.5 -1578)" fill="#fff"/>
        <rect id="長方形_90" data-name="長方形 90" width="2" height="8.5" rx="0.5" transform="translate(3.1 12.4) rotate(180)" fill="#fff"/>
        <path id="長方形_91" data-name="長方形 91" d="M.5,0H2A0,0,0,0,1,2,0V.5a.5.5,0,0,1-.5.5H0A0,0,0,0,1,0,1V.5A.5.5,0,0,1,.5,0Z" transform="translate(0.3 3.9)" fill="#fff"/>
        <path id="長方形_92" data-name="長方形 92" d="M0,0H4.2a0,0,0,0,1,0,0V.5a.5.5,0,0,1-.5.5H.5A.5.5,0,0,1,0,.5V0A0,0,0,0,1,0,0Z" transform="translate(0 11.4)" fill="#fff"/>
      </g>
    </g>
  </g>
</svg>
