<svg id="_00_icon_link_契約内容変更" data-name="00_icon_link_契約内容変更" xmlns="http://www.w3.org/2000/svg" width="38.764" height="38" viewBox="0 0 38.764 38">
  <path id="パス_241" data-name="パス 241" d="M165.691,1968h38v38h-38" transform="translate(-165.691 -1968)" fill="none"/>
  <g id="グループ_313" data-name="グループ 313" transform="translate(7.125 2.375)">
    <path id="パス_242" data-name="パス 242" d="M193.941,1982.96v-10.293a3.167,3.167,0,0,0-3.167-3.167H173.358a3.166,3.166,0,0,0-3.167,3.167v26.917a3.166,3.166,0,0,0,3.167,3.167h17.417a3.167,3.167,0,0,0,3.167-3.167v-2.633" transform="translate(-170.191 -1969.5)" fill="none" stroke="#003a77" stroke-linecap="round" stroke-linejoin="round" stroke-width="1.5"/>
    <line id="線_29" data-name="線 29" x2="7.703" transform="translate(5.541 23.75)" fill="none" stroke="#003a77" stroke-linecap="round" stroke-linejoin="round" stroke-width="1.5"/>
    <line id="線_30" data-name="線 30" x2="12" transform="translate(5.875 16.625)" fill="none" stroke="#003a77" stroke-linecap="round" stroke-linejoin="round" stroke-width="1.5"/>
    <line id="線_31" data-name="線 31" x2="12.667" transform="translate(5.541 9.5)" fill="none" stroke="#003a77" stroke-linecap="round" stroke-linejoin="round" stroke-width="1.5"/>
  </g>
  <g id="publish-script" transform="translate(23.923 15.121)">
    <g id="グループ_314" data-name="グループ 314">
      <path id="パス_243" data-name="パス 243" d="M184.159,1990.521l-3.359,1.12,1.12-3.359,10.732-10.732,2.239,2.239Z" transform="translate(-180.8 -1977.55)" fill="none" stroke="#003a77" stroke-linecap="round" stroke-linejoin="round" stroke-width="1.5"/>
    </g>
  </g>
</svg>
