<svg id="_00_icon_link_車の買い替え" data-name="00_icon_link_車の買い替え" xmlns="http://www.w3.org/2000/svg" width="38.262" height="38" viewBox="0 0 38.262 38">
  <g id="car" transform="translate(0 0)">
    <rect id="長方形_115" data-name="長方形 115" width="38" height="38" transform="translate(0 0)" fill="none"/>
    <g id="グループ_306" data-name="グループ 306" transform="translate(1.439 5.67)">
      <path id="パス_231" data-name="パス 231" d="M232.083,1990.083a1.584,1.584,0,0,1-1.583,1.583H203.583a1.584,1.584,0,0,1-1.583-1.583v-7.917a3.166,3.166,0,0,1,3.167-3.167h17.417" transform="translate(-202 -1967.917)" fill="none" stroke="#c6a465" stroke-linecap="round" stroke-linejoin="round" stroke-width="1.5"/>
      <path id="パス_232" data-name="パス 232" d="M221.417,1983.083H204l2.511-8.786a3.166,3.166,0,0,1,3.045-2.3h12.638a3.166,3.166,0,0,1,3.045,2.3l.928,3.244" transform="translate(-200.833 -1972)" fill="none" stroke="#c6a465" stroke-linecap="round" stroke-linejoin="round" stroke-width="1.5"/>
      <rect id="長方形_116" data-name="長方形 116" width="4.75" height="3.167" transform="translate(1.583 23.75)" stroke-width="1.5" stroke="#c6a465" stroke-linecap="round" stroke-linejoin="round" fill="none"/>
      <rect id="長方形_117" data-name="長方形 117" width="4.75" height="3.167" transform="translate(23.75 23.75)" stroke-width="1.5" stroke="#c6a465" stroke-linecap="round" stroke-linejoin="round" fill="none"/>
      <circle id="楕円形_72" data-name="楕円形 72" cx="0.792" cy="0.792" r="0.792" transform="translate(4.75 15.833)" stroke-width="1.5" stroke="#c6a465" stroke-linecap="round" stroke-linejoin="round" fill="none"/>
      <line id="線_28" data-name="線 28" x2="11.083" transform="translate(9.5 17.417)" fill="none" stroke="#c6a465" stroke-linecap="round" stroke-linejoin="round" stroke-width="1.5"/>
    </g>
  </g>
  <g id="switch-sync" transform="translate(25.115 12.619)">
    <g id="グループ_309" data-name="グループ 309">
      <g id="グループ_307" data-name="グループ 307">
        <path id="パス_233" data-name="パス 233" d="M221.325,1980.57h1.956a1.3,1.3,0,0,0,1.3-1.3v-1.956" transform="translate(-212.843 -1977.309)" fill="none" stroke="#c6a465" stroke-linecap="round" stroke-linejoin="round" stroke-width="1.5"/>
        <path id="パス_234" data-name="パス 234" d="M216.4,1983.506a6.2,6.2,0,0,1,11.4-3.365" transform="translate(-216.404 -1977.309)" fill="none" stroke="#c6a465" stroke-linecap="round" stroke-linejoin="round" stroke-width="1.5"/>
      </g>
      <g id="グループ_308" data-name="グループ 308" transform="translate(0.653 6.197)">
        <path id="パス_235" data-name="パス 235" d="M220.044,1982.608h-1.956a1.3,1.3,0,0,0-1.3,1.3v1.956" transform="translate(-216.783 -1979.671)" fill="none" stroke="#c6a465" stroke-linecap="round" stroke-linejoin="round" stroke-width="1.5"/>
        <path id="パス_236" data-name="パス 236" d="M228.384,1980.9a6.2,6.2,0,0,1-11.4,3.365" transform="translate(-216.64 -1980.904)" fill="none" stroke="#c6a465" stroke-linecap="round" stroke-linejoin="round" stroke-width="1.5"/>
      </g>
    </g>
  </g>
</svg>
