<svg xmlns="http://www.w3.org/2000/svg" width="38.764" height="38" viewBox="0 0 38.764 38">
  <g id="_00_icon_link_新規見積_" data-name="00_icon_link_新規見積 " transform="translate(0 0)">
    <g id="paste-pad" transform="translate(-520.514 -252.866)">
      <rect id="長方形_118" data-name="長方形 118" width="38" height="38" transform="translate(520.514 252.866)" fill="none"/>
      <g id="グループ_311" data-name="グループ 311">
        <path id="パス_237" data-name="パス 237" d="M551.149,267.042v-3.668a3.142,3.142,0,0,0-3.142-3.142h-3.142" fill="none" stroke="#003a77" stroke-linecap="round" stroke-linejoin="round" stroke-width="1.5"/>
        <path id="パス_238" data-name="パス 238" d="M533.868,260.232h-3.142a3.141,3.141,0,0,0-3.142,3.14v21.995a3.141,3.141,0,0,0,3.14,3.142h17.283a3.142,3.142,0,0,0,3.142-3.142" fill="none" stroke="#003a77" stroke-linecap="round" stroke-linejoin="round" stroke-width="1.5"/>
        <path id="パス_239" data-name="パス 239" d="M544.865,263.374h-11v-4.713h3.142v-.785a2.356,2.356,0,0,1,2.356-2.356h0a2.356,2.356,0,0,1,2.356,2.356v.785h3.142Z" fill="none" stroke="#003a77" stroke-linecap="round" stroke-linejoin="round" stroke-width="1.5"/>
      </g>
    </g>
    <g id="publish-script" transform="translate(-520.514 -252.866)">
      <g id="グループ_314" data-name="グループ 314">
        <path id="パス_243" data-name="パス 243" d="M547.8,280.958l-3.359,1.12,1.12-3.359,10.732-10.732,2.239,2.239Z" fill="none" stroke="#003a77" stroke-linecap="round" stroke-linejoin="round" stroke-width="1.5"/>
      </g>
    </g>
  </g>
</svg>
