<svg xmlns="http://www.w3.org/2000/svg" width="15.436" height="20.039" viewBox="0 0 15.436 20.039">
  <g id="_00_icon_btn_copy-06_アートボード_1" data-name="00_icon_btn_copy-06_アートボード 1" transform="translate(-291.655 -410.906)">
    <g id="グループ_298" data-name="グループ 298">
      <path id="長方形_112" data-name="長方形 112" d="M305.591,414.045a1,1,0,0,1,1,1v14.4a1,1,0,0,1-1,1h-9.7a1,1,0,0,1-1-1" fill="none" stroke-linecap="square" stroke-linejoin="round" stroke-width="1"/>
    </g>
    <path id="長方形_112-2" data-name="長方形 112-2" d="M295.455,411.406h7.4a.943.943,0,0,1,.7.3.912.912,0,0,1,.3.7v14.4a1,1,0,0,1-1,1h-9.7a1,1,0,0,1-1-1v-12.1Z" fill="none" stroke-linecap="round" stroke-linejoin="round" stroke-width="1"/>
    <line id="線_22" data-name="線 22" x2="3.1" transform="translate(294.955 424.259)" fill="none" stroke-linecap="round" stroke-linejoin="round" stroke-width="1"/>
    <line id="線_23" data-name="線 23" x2="6.3" transform="translate(294.905 420.859)" fill="none" stroke-linecap="round" stroke-linejoin="round" stroke-width="1"/>
    <line id="線_24" data-name="線 24" x2="6.2" transform="translate(294.955 417.559)" fill="none" stroke-linecap="round" stroke-linejoin="round" stroke-width="1"/>
    <path id="長方形_112-3" data-name="長方形 112-3" d="M295.655,411.406v2.4a1,1,0,0,1-1,1h-2.4" fill="none" stroke-linecap="round" stroke-linejoin="round" stroke-width="1"/>
  </g>
</svg>
