<svg id="_00_icon_statusbar_current" data-name="00_icon_statusbar_current" xmlns="http://www.w3.org/2000/svg" width="42.742" height="13.853" viewBox="0 0 42.742 13.853">
  <g id="パス_97" data-name="パス 97" transform="translate(-399.875 -588.261)" fill="none" stroke-miterlimit="10">
    <path d="M442.471,599.475a.1.1,0,0,1-.01-.043v-2.486a1.131,1.131,0,0,0-.158-.575l-.342-.576a1.117,1.117,0,0,0-.373-.382,21.442,21.442,0,0,0-7.762-2.551l-1.347-.216c-1.138-.6-6.23-3.194-8.967-3.794a40,40,0,0,0-7.7-.591c-1.854,0-3.468.066-4.325.116-3.308.192-4.406,1.633-6.885,2.843a.728.728,0,0,1-.3.075l-3.362.1a.088.088,0,0,0-.07.138l.143.21-.119.24a2.62,2.62,0,0,0-.278,1.175v.436a6.514,6.514,0,0,0,.042.739l.086.749a.274.274,0,0,1-.1.241l-.114.092a1.553,1.553,0,0,0-.551.958l-.024.153a5.2,5.2,0,0,0-.064.808v.8s-.252.9,1.861,1.228c.875.134,1.6.207,2.149.246q-.018-.18-.018-.366a3.835,3.835,0,1,1,7.642.446l21.775.125a2.933,2.933,0,1,1,5.723.033l3.508.021h0a.092.092,0,0,0,.082-.136Z" stroke="none"/>
    <path d="M 441.4609985351563 598.8635864257813 L 441.4609985351563 596.9459838867188 C 441.4609985351563 596.923828125 441.4544067382813 596.9005126953125 441.4431762695313 596.8815307617188 L 441.0996704101563 596.3030395507813 C 441.08984375 596.286376953125 441.0763244628906 596.2723999023438 441.0609741210938 596.2628784179688 C 440.43505859375 595.8746948242188 438.0520629882813 594.553466796875 433.6681518554688 593.8494873046875 C 433.4202880859375 593.809814453125 433.1923522949219 593.773193359375 432.9828796386719 593.739501953125 C 432.7380981445313 593.7001342773438 432.5186157226563 593.6648559570313 432.3221130371094 593.6336059570313 L 432.1578063964844 593.6075439453125 L 432.0108032226563 593.5296020507813 C 430.4073486328125 592.6800537109375 425.7163391113281 590.3590087890625 423.2976989746094 589.8287353515625 C 421.6047058105469 589.4573364257813 419.0144653320313 589.260986328125 415.8070068359375 589.260986328125 C 413.6668090820313 589.260986328125 412.0000915527344 589.3485107421875 411.5399169921875 589.3753051757813 C 409.452880859375 589.4964599609375 408.3858642578125 590.1536254882813 407.0350036621094 590.9856567382813 C 406.431396484375 591.357421875 405.8072204589844 591.7418823242188 405.0379638671875 592.1174926757813 C 404.8140869140625 592.2279052734375 404.5729370117188 592.2874755859375 404.3224182128906 592.2945556640625 L 401.8095092773438 592.3685302734375 L 401.7789306640625 592.4302368164063 C 401.6664428710938 592.654541015625 401.6069946289063 592.9058227539063 401.6069946289063 593.156982421875 L 401.6069946289063 593.593017578125 C 401.6069946289063 593.8016967773438 401.6189575195313 594.0121459960938 401.6424560546875 594.2178955078125 L 401.7284545898438 594.9669189453125 L 401.7287902832031 594.9698486328125 L 401.7291259765625 594.9727783203125 C 401.7754821777344 595.3987426757813 401.6061706542969 595.8168334960938 401.2761840820313 596.091064453125 L 401.2705993652344 596.095703125 L 401.2649536132813 596.1002807617188 L 401.1540222167969 596.1898193359375 C 401.0498352050781 596.2755737304688 400.9808044433594 596.3961791992188 400.9599304199219 596.5269165039063 L 400.9358520507813 596.680419921875 C 400.9014587402344 596.8991088867188 400.8840026855469 597.1187133789063 400.8840026855469 597.3330078125 L 400.8840026855469 598.0739135742188 C 400.9976501464844 598.146484375 401.2796325683594 598.2816772460938 401.8963928222656 598.3765258789063 C 402.2499084472656 598.4306640625 402.5954284667969 598.477294921875 402.9308471679688 598.5161743164063 C 403.2832336425781 596.1951293945313 405.2921142578125 594.4110107421875 407.7099914550781 594.4110107421875 C 410.190673828125 594.4110107421875 412.2410278320313 596.288330078125 412.5140991210938 598.6967163085938 L 432.2435302734375 598.8099365234375 C 432.3294067382813 597.9151000976563 432.7206115722656 597.0682373046875 433.3746032714844 596.4141235351563 C 434.1182556152344 595.6698608398438 435.1071166992188 595.260009765625 436.1589965820313 595.260009765625 C 437.2108764648438 595.260009765625 438.1997375488281 595.6698608398438 438.9426574707031 596.4133911132813 C 439.6094055175781 597.079345703125 440.0020751953125 597.943115234375 440.0778503417969 598.8553466796875 L 441.4609985351563 598.8635864257813 M 442.5239868164063 599.8699951171875 L 439.0159912109375 599.8489990234375 C 439.2319946289063 598.8980102539063 438.9769897460938 597.8610229492188 438.2359924316406 597.1209716796875 C 437.6625061035156 596.5469970703125 436.9107360839844 596.260009765625 436.1589965820313 596.260009765625 C 435.4072570800781 596.260009765625 434.655517578125 596.5469970703125 434.0820007324219 597.1209716796875 C 433.3500061035156 597.85302734375 433.0899963378906 598.8740234375 433.2929992675781 599.8159790039063 L 411.5180053710938 599.6909790039063 C 411.5350036621094 599.5449829101563 411.5450134277344 599.39599609375 411.5450134277344 599.2449951171875 C 411.5450134277344 597.1279907226563 409.8280029296875 595.4110107421875 407.7099914550781 595.4110107421875 C 405.5929870605469 595.4110107421875 403.8760070800781 597.1279907226563 403.8760070800781 599.2449951171875 C 403.8760070800781 599.3690185546875 403.8819885253906 599.4910278320313 403.8940124511719 599.6110229492188 C 403.3429870605469 599.572021484375 402.6199951171875 599.4990234375 401.7449951171875 599.364990234375 C 399.6319885253906 599.0399780273438 399.8840026855469 598.1370239257813 399.8840026855469 598.1370239257813 L 399.8840026855469 597.3330078125 C 399.8840026855469 597.06201171875 399.906005859375 596.7919921875 399.947998046875 596.5250244140625 L 399.9719848632813 596.3720092773438 C 400.0320129394531 595.9959716796875 400.2279968261719 595.655029296875 400.5230102539063 595.4140014648438 L 400.6369934082031 595.322021484375 C 400.7080078125 595.2630004882813 400.7449951171875 595.1729736328125 400.7349853515625 595.0809936523438 L 400.6489868164063 594.3319702148438 C 400.6210021972656 594.0869750976563 400.6069946289063 593.8400268554688 400.6069946289063 593.593017578125 L 400.6069946289063 593.156982421875 C 400.6069946289063 592.7490234375 400.7019958496094 592.3469848632813 400.885009765625 591.9819946289063 L 401.0039978027344 591.7420043945313 L 400.8609924316406 591.531982421875 C 400.8210144042969 591.4739990234375 400.8609924316406 591.39599609375 400.9309997558594 591.3939819335938 L 404.2929992675781 591.2949829101563 C 404.3989868164063 591.2919921875 404.5020141601563 591.2670288085938 404.5969848632813 591.219970703125 C 407.0759887695313 590.010009765625 408.1740112304688 588.5689697265625 411.4819946289063 588.3770141601563 C 412.3389892578125 588.3270263671875 413.9530029296875 588.260986328125 415.8070068359375 588.260986328125 C 418.3680114746094 588.260986328125 421.3880004882813 588.385986328125 423.5119934082031 588.8519897460938 C 426.2489929199219 589.4520263671875 431.3410034179688 592.0430297851563 432.47900390625 592.64599609375 C 432.843994140625 592.7039794921875 433.2879943847656 592.7760009765625 433.8259887695313 592.8619995117188 C 438.3529968261719 593.5889892578125 440.8429870605469 594.9509887695313 441.5880126953125 595.4130249023438 C 441.7409973144531 595.5079956054688 441.8689880371094 595.6389770507813 441.9609985351563 595.7949829101563 L 442.3030090332031 596.3709716796875 C 442.406005859375 596.5449829101563 442.4609985351563 596.7440185546875 442.4609985351563 596.9459838867188 L 442.4609985351563 599.4320068359375 C 442.4609985351563 599.447021484375 442.4649963378906 599.4619750976563 442.4710083007813 599.4749755859375 L 442.6059875488281 599.7340087890625 C 442.6390075683594 599.7960205078125 442.593994140625 599.8699951171875 442.5239868164063 599.8699951171875 Z" stroke="none" fill="#fff"/>
  </g>
  <path id="楕円形_29" data-name="楕円形 29" d="M2.927,0A2.927,2.927,0,1,1,0,2.927,2.927,2.927,0,0,1,2.927,0Z" transform="translate(4.901 8)" fill="#fff"/>
  <path id="楕円形_29-2" data-name="楕円形 29" d="M2.275,0A2.275,2.275,0,1,1,0,2.275,2.275,2.275,0,0,1,2.275,0Z" transform="translate(34.031 8.651)" fill="#fff"/>
  <path id="パス_98" data-name="パス 98" d="M432.218,593.107,409.555,592l1.681-3" transform="translate(-399.875 -588.261)" fill="none" stroke="#fff" stroke-miterlimit="10" stroke-width="1"/>
  <line id="線_20" data-name="線 20" x2="1.978" y2="3.669" transform="translate(18.884 0.507)" fill="none" stroke="#fff" stroke-miterlimit="10" stroke-width="1"/>
</svg>
