<svg id="_00_icon_link_保存した見積もり" data-name="00_icon_link_保存した見積もり" xmlns="http://www.w3.org/2000/svg" width="38" height="39.495" viewBox="0 0 38 39.495">
  <g id="グループ_677" data-name="グループ 677" transform="translate(-520.514 -251.37)">
    <g id="paste-pad">
      <rect id="長方形_118" data-name="長方形 118" width="38" height="38" transform="translate(520.514 252.866)" fill="none"/>
      <g id="グループ_311" data-name="グループ 311">
        <path id="パス_238" data-name="パス 238" d="M533.868,260.232h-3.142a3.141,3.141,0,0,0-3.142,3.14v21.995a3.141,3.141,0,0,0,3.14,3.142h17.283a3.142,3.142,0,0,0,3.142-3.142h0V263.374a3.142,3.142,0,0,0-3.142-3.142h-3.142" fill="none" stroke="#c1a063" stroke-linecap="round" stroke-linejoin="round" stroke-width="1.5"/>
        <path id="パス_239" data-name="パス 239" d="M544.865,263.374h-11v-4.713h3.142v-.785a2.356,2.356,0,0,1,2.356-2.356h0a2.356,2.356,0,0,1,2.356,2.356v.785h3.142Z" fill="none" stroke="#c1a063" stroke-linecap="round" stroke-linejoin="round" stroke-width="1.5"/>
      </g>
    </g>
  </g>
  <rect id="長方形_111" data-name="長方形 111" width="38" height="38" fill="none"/>
  <g id="グループ_298" data-name="グループ 298" transform="translate(-520.514 -251.37)">
    <line id="線_22" data-name="線 22" x2="6.343" transform="translate(533.2 282.078)" fill="none" stroke="#c6a465" stroke-linecap="round" stroke-linejoin="round" stroke-width="1.5"/>
    <line id="線_24" data-name="線 24" x2="12.686" transform="translate(533.2 275.38)" fill="none" stroke="#c6a465" stroke-linecap="round" stroke-linejoin="round" stroke-width="1.5"/>
    <line id="線_24-2" data-name="線 24" x2="12.686" transform="translate(533.2 268.682)" fill="none" stroke="#c6a465" stroke-linecap="round" stroke-linejoin="round" stroke-width="1.5"/>
  </g>
</svg>
