<svg id="_00_icon_link_安心事前登録" data-name="00_icon_link_安心事前登録" xmlns="http://www.w3.org/2000/svg" width="38" height="38" viewBox="0 0 38 38">
  <g id="paste-pad" transform="translate(0 0.297)">
    <rect id="長方形_118" data-name="長方形 118" width="38" height="38" transform="translate(0 -0.297)" fill="none"/>
    <g id="グループ_311" data-name="グループ 311" transform="translate(7.07 2.356)">
      <path id="パス_237" data-name="パス 237" d="M260.234,1979.31v-3.668a3.142,3.142,0,0,0-3.142-3.142H253.95" transform="translate(-236.669 -1967.787)" fill="none" stroke="#c6a465" stroke-linecap="round" stroke-linejoin="round" stroke-width="1.5"/>
      <path id="パス_238" data-name="パス 238" d="M249.234,1972.5h-3.142a3.141,3.141,0,0,0-3.142,3.142v21.993a3.141,3.141,0,0,0,3.142,3.142h17.281a3.142,3.142,0,0,0,3.142-3.142" transform="translate(-242.95 -1967.787)" fill="none" stroke="#c6a465" stroke-linecap="round" stroke-linejoin="round" stroke-width="1.5"/>
      <path id="パス_239" data-name="パス 239" d="M257.947,1977.355h-11v-4.713h3.142v-.785a2.356,2.356,0,0,1,2.356-2.356h0a2.357,2.357,0,0,1,2.356,2.356v.785h3.142Z" transform="translate(-240.666 -1969.5)" fill="none" stroke="#c6a465" stroke-linecap="round" stroke-linejoin="round" stroke-width="1.5"/>
    </g>
  </g>
  <g id="icon-2" transform="translate(22.734 17.397)">
    <g id="パス_177" data-name="パス 177">
      <path id="パス_240" data-name="パス 240" d="M256.074,1978.885a3.027,3.027,0,0,0-3.111,3.594c.589,4,6.287,8.4,6.287,8.4s5.7-4.4,6.287-8.4a3.064,3.064,0,0,0-3.246-3.591l-.061,0a3.49,3.49,0,0,0-2.98,1.992,3.547,3.547,0,0,0-3.177-1.994" transform="translate(-252.921 -1978.885)" fill="none" stroke="#c6a465" stroke-linecap="round" stroke-linejoin="round" stroke-width="1.5"/>
    </g>
  </g>
</svg>
