<svg id="_00_icon_link_お問い合わせFAQ" data-name="00_icon_link_お問い合わせFAQ" xmlns="http://www.w3.org/2000/svg" width="38" height="38" viewBox="0 0 38 38">
  <g id="message-report">
    <rect id="長方形_18" data-name="長方形 18" width="38" height="38" fill="none"/>
    <g id="グループ_28" data-name="グループ 28" transform="translate(3.958 7.125)">
      <path id="パス_20" data-name="パス 20" d="M225.417,1057.5h-23.75a3.166,3.166,0,0,0-3.167,3.167v23.75l6.333-6.333h20.583a3.166,3.166,0,0,0,3.167-3.167v-14.25A3.166,3.166,0,0,0,225.417,1057.5Z" transform="translate(-198.5 -1057.5)" fill="none" stroke="#003a77" stroke-linecap="round" stroke-linejoin="round" stroke-width="1.5"/>
      <g id="グループ_27" data-name="グループ 27" transform="translate(14.25 14.25)">
        <circle id="楕円形_25" data-name="楕円形 25" cx="0.792" cy="0.792" r="0.792" stroke-width="1.5" stroke="#003a77" stroke-linecap="round" stroke-linejoin="round" fill="none"/>
      </g>
    </g>
  </g>
  <g id="_" data-name="?" transform="translate(16.148 11.083)">
    <path id="パス_21" data-name="パス 21" d="M206.2,1062.939a4.075,4.075,0,0,1,.855-2.066,2.474,2.474,0,0,1,1.984-.873,2.54,2.54,0,0,1,2.494,2.733,3.738,3.738,0,0,1-.25,1.431,3.618,3.618,0,0,1-.95,1.286,4.106,4.106,0,0,0-.939,1.108,2.859,2.859,0,0,0-.271,1.359" transform="translate(-206.199 -1060)" fill="none" stroke="#003a77" stroke-linecap="round" stroke-width="1.5"/>
  </g>
</svg>
