<svg id="_00_icon_link_セコムサービス" data-name="00_icon_link_セコムサービス" xmlns="http://www.w3.org/2000/svg" width="38" height="38" viewBox="0 0 38 38">
  <rect id="_area" width="38" height="38" fill="none"/>
  <path id="パス_112" data-name="パス 112" d="M471.808,278.111V282.1a6.707,6.707,0,0,1-1.966,4.745l-1,.879a8.2,8.2,0,0,1-3.528.986,6.9,6.9,0,0,1-3.329-.986l-1-.879a6.712,6.712,0,0,1-1.965-4.745v-3.992" transform="translate(-446.41 -266.563)" fill="none" stroke="#c6a465" stroke-linecap="round" stroke-linejoin="round" stroke-width="1.5"/>
  <path id="パス_959" data-name="パス 959" d="M472.773,276.593c0,1.922-3.926,2.453-7.363,2.453s-7.364-.531-7.364-2.453" transform="translate(-446.41 -266.563)" fill="none" stroke="#c6a465" stroke-linecap="round" stroke-linejoin="round" stroke-width="1.5"/>
  <path id="パス_960" data-name="パス 960" d="M458.416,278.76a1.7,1.7,0,0,0-1.929,1.724c0,1.133.818,2.381,1.929,2.381" transform="translate(-446.41 -266.563)" fill="none" stroke="#c6a465" stroke-linecap="round" stroke-linejoin="round" stroke-width="1.5"/>
  <path id="パス_961" data-name="パス 961" d="M472.513,278.76a1.7,1.7,0,0,1,1.93,1.724c0,1.133-.819,2.381-1.93,2.381" transform="translate(-446.41 -266.563)" fill="none" stroke="#c6a465" stroke-linecap="round" stroke-linejoin="round" stroke-width="1.5"/>
  <path id="パス_962" data-name="パス 962" d="M467.624,270.631a13.6,13.6,0,0,1-2.146.168c-.667,0-1.652-.042-2.292-.1a6.58,6.58,0,0,1-3.358,5.438h11.163A6.628,6.628,0,0,1,467.624,270.631Z" transform="translate(-446.41 -266.563)" fill="none" stroke="#c6a465" stroke-linecap="round" stroke-linejoin="round" stroke-width="1.5"/>
  <path id="パス_963" data-name="パス 963" d="M470.618,276.134h2.5a8.708,8.708,0,0,0-3.383-7,7.463,7.463,0,0,0-1.894-1.051,6.973,6.973,0,0,0-4.87,0,7.439,7.439,0,0,0-2.059,1.164,8.741,8.741,0,0,0-3.219,6.884h2.7" transform="translate(-446.41 -266.563)" fill="none" stroke="#c6a465" stroke-linecap="round" stroke-linejoin="round" stroke-width="1.5"/>
  <g id="グループ_680" data-name="グループ 680" transform="translate(-446.41 -266.563)">
    <g id="グループ_679" data-name="グループ 679">
      <path id="パス_112-2" data-name="パス 112" d="M469.2,288v2.527l8.637,3.444a7.014,7.014,0,0,1,4.252,6.447v3.241" fill="none" stroke="#c6a465" stroke-linecap="round" stroke-linejoin="round" stroke-width="1.5"/>
      <path id="パス_112-3" data-name="パス 112" d="M448.733,303.663v-3.241a7.013,7.013,0,0,1,4.252-6.447l8.636-3.444V288" fill="none" stroke="#c6a465" stroke-linecap="round" stroke-linejoin="round" stroke-width="1.5"/>
    </g>
    <line id="線_32" data-name="線 32" x1="1.2" y1="2.67" transform="translate(454.945 293.777)" fill="none" stroke="#c6a465" stroke-linecap="round" stroke-linejoin="round" stroke-width="1.5"/>
    <path id="パス_964" data-name="パス 964" d="M473.367,292.577" fill="none" stroke="#c6a465" stroke-linecap="round" stroke-linejoin="round" stroke-width="1.5"/>
    <path id="パス_965" data-name="パス 965" d="M471.667,296.447" fill="none" stroke="#c6a465" stroke-linecap="round" stroke-linejoin="round" stroke-width="1.5"/>
    <line id="線_33" data-name="線 33" y1="2.67" x2="1.2" transform="translate(474.64 293.777)" fill="none" stroke="#c6a465" stroke-linecap="round" stroke-linejoin="round" stroke-width="1.5"/>
    <path id="パス_966" data-name="パス 966" d="M475.851,303.474v-3.9a3.179,3.179,0,0,0-3.314-3H471.6c-1.092,2.049-4.005,3.411-6.19,3.411s-5.1-1.362-6.189-3.411h-.938a3.192,3.192,0,0,0-3.314,3.1v3.8" fill="none" stroke="#c6a465" stroke-linecap="round" stroke-linejoin="round" stroke-width="1.5"/>
    <line id="線_34" data-name="線 34" y1="8.167" x2="3.931" transform="translate(466.985 291.634)" fill="none" stroke="#c6a465" stroke-linecap="round" stroke-linejoin="round" stroke-width="1.5"/>
    <line id="線_35" data-name="線 35" x2="3.866" y2="8.032" transform="translate(460.059 291.634)" fill="none" stroke="#c6a465" stroke-linecap="round" stroke-linejoin="round" stroke-width="1.5"/>
    <path id="パス_967" data-name="パス 967" d="M461.166,290.926l4.244,2.121,4.244-2.121" fill="none" stroke="#c6a465" stroke-linecap="round" stroke-linejoin="round" stroke-width="1.5"/>
    <path id="パス_968" data-name="パス 968" d="M466.266,299h-1.713l.374-2.683h.964Z" fill="#c6a465" stroke="#c6a465" stroke-linecap="round" stroke-linejoin="round" stroke-width="1.5"/>
    <path id="パス_969" data-name="パス 969" d="M465.41,293.784l-.694.5.265.815h.857l.265-.815Z" fill="#c6a465" stroke="#c6a465" stroke-linecap="round" stroke-linejoin="round" stroke-width="1.5"/>
  </g>
</svg>
