<svg id="_00_icon_link_事故の連絡" data-name="00_icon_link_事故の連絡" xmlns="http://www.w3.org/2000/svg" width="38" height="38" viewBox="0 0 38 38">
  <rect id="長方形_115" data-name="長方形 115" width="38" height="38" fill="none"/>
  <g id="グループ_306" data-name="グループ 306" transform="translate(-320.156 -270.276)">
    <path id="パス_231" data-name="パス 231" d="M347.808,290.6a1.341,1.341,0,0,1-1.132,1.521l-22.552,3.3A1.342,1.342,0,0,1,322.6,294.3l-.972-6.633a2.681,2.681,0,0,1,2.263-3.042h0" fill="none" stroke="#c6a465" stroke-linecap="round" stroke-linejoin="round" stroke-width="1.5"/>
    <path id="パス_232" data-name="パス 232" d="M336.9,282.718l-13,1.9,1.025-7.669a2.679,2.679,0,0,1,2.269-2.3l10.588-1.552a2.68,2.68,0,0,1,2.834,1.553l1.475,2.219" fill="none" stroke="#c6a465" stroke-linecap="round" stroke-linejoin="round" stroke-width="1.5"/>
    <rect id="長方形_116" data-name="長方形 116" width="4.022" height="2.682" transform="translate(324.124 295.431) rotate(-8.338)" stroke-width="1.5" stroke="#c6a465" stroke-linecap="round" stroke-linejoin="round" fill="none"/>
    <rect id="長方形_117" data-name="長方形 117" width="4.022" height="2.682" transform="translate(342.697 292.709) rotate(-8.338)" stroke-width="1.5" stroke="#c6a465" stroke-linecap="round" stroke-linejoin="round" fill="none"/>
    <circle id="楕円形_72" data-name="楕円形 72" cx="0.671" cy="0.671" r="0.671" transform="translate(325.896 288.304)" stroke-width="1.5" stroke="#c6a465" stroke-linecap="round" stroke-linejoin="round" fill="none"/>
    <line id="線_28" data-name="線 28" y1="1.248" x2="8.513" transform="translate(329.98 287.905)" fill="none" stroke="#c6a465" stroke-linecap="round" stroke-linejoin="round" stroke-width="1.5"/>
  </g>
  <path id="パス_928" data-name="パス 928" d="M344.5,276.565l1.9,2.7,2.552-2.1-.278,3.291,3.3.035-2.328,2.342,2.508,2.149-3.289.3.539,3.258-2.711-1.886L345.02,289.5l-.864-3.188-3.115,1.1,1.387-3-3.091-1.162,2.989-1.4-1.621-2.877,3.193.845Z" transform="translate(-320.156 -270.276)" fill="none" stroke="#c6a465" stroke-linecap="round" stroke-linejoin="round" stroke-width="1.5"/>
  <path id="パス_929" data-name="パス 929" d="M344.594,297.849l-9.451,2.114,19.976,3.162L330.8,307.079" transform="translate(-320.156 -270.276)" fill="none" stroke="#c6a465" stroke-linecap="round" stroke-linejoin="round" stroke-width="1.5"/>
</svg>
