<svg xmlns="http://www.w3.org/2000/svg" width="18" height="20" viewBox="0 0 18 20">
  <g id="icon" transform="translate(-225 -24)">
    <path id="パス_93" data-name="パス 93" d="M225.5,26.5h17m-1.5,0-1.246,15.4a1.635,1.635,0,0,1-1.6,1.6h-8.3a1.635,1.635,0,0,1-1.6-1.6L227,26.5" fill="none" stroke-linecap="round" stroke-linejoin="round" stroke-width="1"/>
    <path id="パス_94" data-name="パス 94" d="M234,30.385V39.5m-3.269-9.115.654,9.115m5.884-9.115-.654,9.115" fill="none" stroke-linecap="round" stroke-linejoin="round" stroke-width="1"/>
    <path id="長方形_47" data-name="長方形 47" d="M1,0H4A1,1,0,0,1,5,1V2A0,0,0,0,1,5,2H0A0,0,0,0,1,0,2V1A1,1,0,0,1,1,0Z" transform="translate(231.5 24.5)" fill="none" stroke-linecap="round" stroke-linejoin="round" stroke-width="1"/>
  </g>
</svg>
