<svg xmlns="http://www.w3.org/2000/svg" xmlns:xlink="http://www.w3.org/1999/xlink" width="24" height="24" viewBox="0 0 24 24">
  <defs>
    <clipPath id="clip-ios-pdf-document-icon">
      <rect width="24" height="24"/>
    </clipPath>
  </defs>
  <g id="ios-pdf-document-icon" clip-path="url(#clip-ios-pdf-document-icon)">
    <g id="_00_icon_link_pdf" data-name="00_icon_link_pdf" transform="translate(5 2)">
      <path id="icon_" d="M1723.691,1814.075v11.432a.79.79,0,0,1-.781.8h-13.252a.791.791,0,0,1-.781-.8V1807.1a.79.79,0,0,1,.781-.8h6.392" transform="translate(-1708.876 -1806.305)" fill="none" stroke-linecap="round" stroke-miterlimit="10" stroke-width="1"/>
      <path id="パス_55" data-name="パス 55" d="M1726.119,1827.97c-.041-.493-.324-1.141-1.683-1.224a10.981,10.981,0,0,0-2.292.218,10.48,10.48,0,0,1-1.377-1.872c1.129-3.316.414-4.259-.55-4.259-.756,0-1.135.815-1.05,1.716a8.553,8.553,0,0,0,.882,2.31,26.375,26.375,0,0,1-1.295,2.982,11.6,11.6,0,0,0-1.456.557c-1.806.858-1.951,2-1.576,2.487.713.921,2.233.126,3.759-2.658,1.044-.3,2.418-.706,2.542-.706a.186.186,0,0,1,.057.012,5.823,5.823,0,0,0,2.4,1.572A1.324,1.324,0,0,0,1726.119,1827.97Zm-8.443,1.779c-.441.536-1.155,1.05-1.407.878s-.294-.664.273-1.221a4.718,4.718,0,0,1,1.658-.9c.169-.064.211,0,.211.086A4.275,4.275,0,0,1,1717.676,1829.749Zm1.933-7.2c-.042-.536.062-1.051.5-1.114s.651.449.483,1.285a6.983,6.983,0,0,1-.336,1.458c-.084.064-.168-.151-.168-.151A4.5,4.5,0,0,1,1719.609,1822.548Zm.169,5.036c.23-.386.818-1.95.818-1.95.127.236,1.113,1.435,1.113,1.435S1720.2,1827.413,1719.778,1827.584Zm4.576.685a5.539,5.539,0,0,1-1.7-.858,4.955,4.955,0,0,1,1.68-.214c.651.043.883.322.883.6S1724.985,1828.355,1724.354,1828.27Z" transform="translate(-1713.081 -1815.452)" stroke="none"/>
      <path id="icon_2" data-name="icon_" d="M1735.8,1811.053v-4.1l4.618,4.712H1736.4C1735.967,1811.668,1735.8,1811.5,1735.8,1811.053Z" transform="translate(-1725.827 -1806.715)" stroke="none"/>
    </g>
  </g>
</svg>
