<?xml version="1.0" encoding="utf-8"?>
<!-- Generator: Adobe Illustrator 23.0.2, SVG Export Plug-In . SVG Version: 6.00 Build 0)  -->
<svg version="1.1" id="Layer_1" xmlns="http://www.w3.org/2000/svg" xmlns:xlink="http://www.w3.org/1999/xlink" x="0px" y="0px"
	 viewBox="0 0 24 24" style="enable-background:new 0 0 24 24;" xml:space="preserve">
  <g>
		<path d="M13.2,20.9C13.2,20.9,13.2,20.9,13.2,20.9c-0.3,0.1-0.5,0.2-0.8,0.2H2.9c-1.1,0-2-0.9-2-2V2.9c0-1.1,0.9-2,2-2h16.2
					c1.1,0,2,0.9,2,2v9.5c0,0.5-0.2,1-0.6,1.4l-6.8,6.8C13.6,20.7,13.4,20.8,13.2,20.9L13.2,20.9z M12.1,19.6v-5.5c0-1.1,0.9-2,2-2
					h5.5V2.9c0-0.3-0.2-0.5-0.5-0.5H2.9c-0.3,0-0.5,0.2-0.5,0.5v16.2c0,0.3,0.2,0.5,0.5,0.5H12.1z M18.6,13.6h-4.4
					c-0.3,0-0.5,0.2-0.5,0.5v4.4L18.6,13.6z M6.6,7.4C6.2,7.4,5.9,7,5.9,6.6s0.3-0.8,0.8-0.8h10c0.4,0,0.8,0.3,0.8,0.8
					S17,7.4,16.6,7.4H6.6z M6.6,11.1c-0.4,0-0.8-0.3-0.8-0.8s0.3-0.8,0.8-0.8H11c0.4,0,0.8,0.3,0.8,0.8s-0.3,0.8-0.8,0.8H6.6z"/>
	</g>
</svg>
