<svg xmlns="http://www.w3.org/2000/svg" width="26.332" height="17.54" viewBox="0 0 26.332 17.54">
  <g id="icon" transform="matrix(0.966, -0.259, 0.259, 0.966, -619.715, -562.767)">
    <g id="グループ_642" data-name="グループ 642" transform="translate(451.379 709.826)">
      <path id="パス_939" data-name="パス 939" d="M474.748,731.791a.666.666,0,0,1-.259-.052l-2.657-1.12a23.167,23.167,0,0,0-8.923-1.785h-.628a2.66,2.66,0,0,1-2.786-2.506v-.476a2.66,2.66,0,0,1,2.786-2.506h.628a23.16,23.16,0,0,0,8.923-1.785l2.657-1.12a.659.659,0,0,1,.622.057.579.579,0,0,1,.265.481V731.2a.579.579,0,0,1-.265.481A.655.655,0,0,1,474.748,731.791ZM462.281,723.9a2.1,2.1,0,0,0-2.227,1.947v.476a2.1,2.1,0,0,0,2.227,1.947h.628a23.92,23.92,0,0,1,4.684.463,23.216,23.216,0,0,1,4.456,1.366l2.657,1.12a.105.105,0,0,0,.083,0,.055.055,0,0,0,.027-.021V720.977a.052.052,0,0,0-.027-.022.1.1,0,0,0-.083,0l-2.657,1.12a23.242,23.242,0,0,1-4.456,1.366,23.93,23.93,0,0,1-4.684.463Z" transform="translate(-459.399 -720.29)" fill="#003a77"/>
      <path id="パス_940" data-name="パス 940" d="M470.51,727.648a.76.76,0,0,1-.3-.06l-2.657-1.12a23.066,23.066,0,0,0-8.885-1.777h-.628a2.756,2.756,0,0,1-2.882-2.6v-.476a2.756,2.756,0,0,1,2.882-2.6h.628a23.066,23.066,0,0,0,8.885-1.777l2.657-1.12a.755.755,0,0,1,.712.065.676.676,0,0,1,.308.561v10.224a.676.676,0,0,1-.308.561.75.75,0,0,1-.416.125h0ZM458.043,719.2a2.564,2.564,0,0,0-2.69,2.41v.476a2.564,2.564,0,0,0,2.69,2.41h.628a23.261,23.261,0,0,1,8.96,1.792l2.657,1.12a.568.568,0,0,0,.222.045h0a.558.558,0,0,0,.309-.093.483.483,0,0,0,.222-.4V716.738a.483.483,0,0,0-.222-.4.562.562,0,0,0-.531-.048l-2.657,1.12a23.259,23.259,0,0,1-8.96,1.792Zm12.465,7.887a.2.2,0,0,1-.078-.016l-2.657-1.12a23.125,23.125,0,0,0-4.438-1.36,23.832,23.832,0,0,0-4.665-.461h-.628a2.2,2.2,0,0,1-2.323-2.044v-.476a2.2,2.2,0,0,1,2.323-2.043h.628a23.822,23.822,0,0,0,4.665-.461,23.137,23.137,0,0,0,4.438-1.36l2.657-1.12a.2.2,0,0,1,.16,0,.137.137,0,0,1,.08.084l0,.012v10.253l-.005.015a.14.14,0,0,1-.078.078A.2.2,0,0,1,470.509,727.089Zm-12.465-7.328a2.008,2.008,0,0,0-2.131,1.851v.476a2.008,2.008,0,0,0,2.131,1.851h.628a24.02,24.02,0,0,1,4.7.465,23.32,23.32,0,0,1,4.475,1.372l2.634,1.11V716.814l-2.634,1.11a23.322,23.322,0,0,1-4.475,1.372,24.019,24.019,0,0,1-4.7.465Z" transform="translate(-455.161 -716.051)" fill="#003a77"/>
    </g>
    <g id="グループ_643" data-name="グループ 643" transform="translate(466.98 713.578)">
      <path id="パス_941" data-name="パス 941" d="M1161.551,893.105v-.559c.586,0,1.081-.319,1.081-.7V890.46c0-.378-.5-.7-1.081-.7V889.2a1.935,1.935,0,0,1,1.124.339,1.145,1.145,0,0,1,.517.917v1.389a1.145,1.145,0,0,1-.517.917A1.937,1.937,0,0,1,1161.551,893.105Z" transform="translate(-1161.455 -889.108)" fill="#003a77"/>
      <path id="パス_942" data-name="パス 942" d="M1157.313,888.964h-.1v-.752h.1c.525,0,.985-.281.985-.6v-1.389c0-.32-.46-.6-.985-.6h-.1v-.752h.1a2.033,2.033,0,0,1,1.18.357,1.239,1.239,0,0,1,.557.995v1.389a1.239,1.239,0,0,1-.557.995A2.033,2.033,0,0,1,1157.313,888.964Zm.1-.562v.367a1.816,1.816,0,0,0,.972-.319,1.05,1.05,0,0,0,.476-.838v-1.389a1.05,1.05,0,0,0-.476-.838,1.817,1.817,0,0,0-.972-.319v.367a1.483,1.483,0,0,1,.716.219.7.7,0,0,1,.365.571v1.389a.7.7,0,0,1-.365.571A1.484,1.484,0,0,1,1157.41,888.4Z" transform="translate(-1157.217 -884.87)" fill="#003a77"/>
    </g>
    <g id="グループ_644" data-name="グループ 644" transform="translate(456.988 712.934)">
      <rect id="長方形_108" data-name="長方形 108" width="0.559" height="5.189" transform="translate(0.096 0.096)" fill="#003a77"/>
      <path id="パス_943" data-name="パス 943" d="M708.331,861.284h-.752V855.9h.752Zm-.559-.193h.367v-5h-.367Z" transform="translate(-707.579 -855.902)" fill="#003a77"/>
    </g>
    <g id="グループ_645" data-name="グループ 645" transform="translate(454.07 717.837)">
      <path id="パス_944" data-name="パス 944" d="M582.1,1086.262h-.818a.716.716,0,0,1-.568-.276.641.641,0,0,1-.111-.562,7.247,7.247,0,0,0,.236-3.408l.539-.149a7.577,7.577,0,0,1-.236,3.7.082.082,0,0,0,.016.075.155.155,0,0,0,.124.056h.818a.143.143,0,0,0,.14-.087,11.993,11.993,0,0,0,.41-3.7l.557-.043a12.333,12.333,0,0,1-.43,3.9A.7.7,0,0,1,582.1,1086.262Z" transform="translate(-580.483 -1081.75)" fill="#003a77"/>
      <path id="パス_945" data-name="パス 945" d="M577.86,1081.145h-.818a.813.813,0,0,1-.645-.313.736.736,0,0,1-.128-.646,7.158,7.158,0,0,0,.236-3.357l-.026-.093.725-.2.026.093a7.661,7.661,0,0,1-.234,3.748.063.063,0,0,0,.045.016h.818a.063.063,0,0,0,.048-.018,11.919,11.919,0,0,0,.406-3.668l-.007-.1.749-.058.008.1a12.449,12.449,0,0,1-.433,3.931A.8.8,0,0,1,577.86,1081.145Zm-1.144-4.274a7.547,7.547,0,0,1-.26,3.366.546.546,0,0,0,.095.478.62.62,0,0,0,.492.238h.818a.6.6,0,0,0,.585-.424,12.369,12.369,0,0,0,.432-3.768l-.366.028a12.221,12.221,0,0,1-.419,3.64.237.237,0,0,1-.233.157h-.818a.251.251,0,0,1-.2-.093.179.179,0,0,1-.033-.159,7.676,7.676,0,0,0,.26-3.56Z" transform="translate(-576.243 -1076.536)" fill="#003a77"/>
    </g>
    <g id="グループ_649" data-name="グループ 649" transform="translate(470.176 710.054)">
      <g id="グループ_646" data-name="グループ 646" transform="translate(0 0)">
        <path id="パス_946" data-name="パス 946" d="M1305.635,733.667a.28.28,0,0,1-.131-.526l4.666-2.482a.28.28,0,1,1,.262.494l-4.666,2.482A.279.279,0,0,1,1305.635,733.667Z" transform="translate(-1305.259 -730.53)" fill="#003a77"/>
        <path id="パス_947" data-name="パス 947" d="M1301.4,729.531a.376.376,0,0,1-.177-.708l4.666-2.482a.376.376,0,1,1,.353.664l-4.666,2.482A.376.376,0,0,1,1301.4,729.531Zm4.665-3.041a.182.182,0,0,0-.086.021l-4.666,2.482a.183.183,0,0,0,.087.345.18.18,0,0,0,.085-.022l4.666-2.482a.183.183,0,0,0-.086-.345Z" transform="translate(-1301.026 -726.297)" fill="#003a77"/>
      </g>
      <g id="グループ_647" data-name="グループ 647" transform="translate(0 5.195)">
        <path id="パス_948" data-name="パス 948" d="M1309.745,964.968h-4.107a.28.28,0,0,1,0-.559h4.107a.28.28,0,1,1,0,.559Z" transform="translate(-1305.262 -964.313)" fill="#003a77"/>
        <path id="パス_949" data-name="パス 949" d="M1305.507,960.827H1301.4a.376.376,0,1,1,0-.752h4.107a.376.376,0,0,1,0,.752Zm-4.107-.559a.183.183,0,0,0,0,.367h4.107a.183.183,0,0,0,0-.367Z" transform="translate(-1301.024 -960.075)" fill="#003a77"/>
      </g>
      <g id="グループ_648" data-name="グループ 648" transform="translate(0 7.908)">
        <path id="パス_950" data-name="パス 950" d="M1310.3,1089.542a.277.277,0,0,1-.131-.033l-4.666-2.482a.28.28,0,0,1,.263-.494l4.666,2.482a.28.28,0,0,1-.131.526Z" transform="translate(-1305.259 -1086.404)" fill="#003a77"/>
        <path id="パス_951" data-name="パス 951" d="M1306.068,1085.4a.379.379,0,0,1-.176-.044l-4.666-2.482a.376.376,0,1,1,.353-.664l4.666,2.482a.376.376,0,0,1-.177.708Zm-4.665-3.041a.183.183,0,0,0-.087.345l4.666,2.482a.183.183,0,1,0,.172-.324l-4.666-2.482A.18.18,0,0,0,1301.4,1082.364Z" transform="translate(-1301.026 -1082.171)" fill="#003a77"/>
      </g>
    </g>
  </g>
</svg>
