<svg id="_00_img_License_green" data-name="00_img_License_green" xmlns="http://www.w3.org/2000/svg" width="114" height="72" viewBox="0 0 114 72">
  <g id="illust" transform="translate(-217 -212)">
    <g id="長方形_86" data-name="長方形 86" transform="translate(217 212)" fill="none" stroke="#ccc" stroke-width="1">
      <rect width="114" height="72" rx="8" stroke="none"/>
      <rect x="0.5" y="0.5" width="113" height="71" rx="7.5" fill="none"/>
    </g>
    <path id="パス_112" data-name="パス 112" d="M438.806,403.236v-.509a5.565,5.565,0,0,1,3.374-5.115l6.377-2.733v-1.393l-.861-.861a6.574,6.574,0,0,1-1.925-4.649v-6.359a4.159,4.159,0,0,1,2.063-3.6c1.109-.646,2.812.141,2.116-1.251-.727-1.453,5.184.605,6.293,1.251a4.157,4.157,0,0,1,2.064,3.6v6.359a6.574,6.574,0,0,1-1.926,4.649l-.86.861v1.393l6.377,2.733a5.565,5.565,0,0,1,3.374,5.115v.509" transform="translate(-146.575 -140.57)" fill="none" stroke="#fff" stroke-linecap="round" stroke-linejoin="round" stroke-width="1.393"/>
    <rect id="長方形_85" data-name="長方形 85" width="55" height="7" transform="translate(229 236)" fill="#4bcb64"/>
    <g id="グループ_275" data-name="グループ 275" transform="translate(-146.575 -140.57)">
      <path id="パス_113" data-name="パス 113" d="M380.809,363.966a2.746,2.746,0,1,1-2.747-2.746A2.743,2.743,0,0,1,380.809,363.966Zm-5.072,0a2.326,2.326,0,1,0,2.325-2.325A2.329,2.329,0,0,0,375.737,363.966Z" fill="#fff"/>
      <path id="パス_114" data-name="パス 114" d="M386.917,363.966a2.747,2.747,0,1,1-2.747-2.746A2.744,2.744,0,0,1,386.917,363.966Zm-5.072,0a2.325,2.325,0,1,0,2.325-2.325A2.329,2.329,0,0,0,381.845,363.966Z" fill="#fff"/>
      <path id="パス_115" data-name="パス 115" d="M399.131,363.966a2.747,2.747,0,1,1-2.746-2.746A2.743,2.743,0,0,1,399.131,363.966Zm-5.071,0a2.325,2.325,0,1,0,2.325-2.325A2.329,2.329,0,0,0,394.06,363.966Z" fill="#fff"/>
      <path id="パス_116" data-name="パス 116" d="M405.239,363.966a2.747,2.747,0,1,1-2.747-2.746A2.743,2.743,0,0,1,405.239,363.966Zm-5.072,0a2.325,2.325,0,1,0,2.325-2.325A2.329,2.329,0,0,0,400.167,363.966Z" fill="#fff"/>
    </g>
    <g id="グループ_276" data-name="グループ 276" transform="translate(-146.575 -140.57)">
      <path id="パス_117" data-name="パス 117" d="M452.2,363.787c0-1.056.411-1.567.975-1.567s.923.54.923,1.527c0,1.047-.367,1.587-.967,1.587C452.583,365.334,452.2,364.794,452.2,363.787Zm1.559-.024c0-.753-.181-1.273-.6-1.273-.359,0-.612.479-.612,1.273s.222,1.3.6,1.3C453.59,365.06,453.759,364.48,453.759,363.763Z" fill="#fff"/>
      <path id="パス_118" data-name="パス 118" d="M454.423,363.787c0-1.056.411-1.567.974-1.567s.923.54.923,1.527c0,1.047-.366,1.587-.966,1.587C454.806,365.334,454.423,364.794,454.423,363.787Zm1.558-.024c0-.753-.18-1.273-.6-1.273-.359,0-.612.479-.612,1.273s.221,1.3.6,1.3C455.812,365.06,455.981,364.48,455.981,363.763Z" fill="#fff"/>
      <path id="パス_119" data-name="パス 119" d="M457.585,363.787c0-1.056.411-1.567.975-1.567s.922.54.922,1.527c0,1.047-.366,1.587-.966,1.587C457.968,365.334,457.585,364.794,457.585,363.787Zm1.559-.024c0-.753-.181-1.273-.6-1.273-.359,0-.612.479-.612,1.273s.221,1.3.6,1.3C458.975,365.06,459.144,364.48,459.144,363.763Z" fill="#fff"/>
      <path id="パス_120" data-name="パス 120" d="M459.808,363.787c0-1.056.411-1.567.974-1.567s.923.54.923,1.527c0,1.047-.366,1.587-.967,1.587C460.19,365.334,459.808,364.794,459.808,363.787Zm1.558-.024c0-.753-.18-1.273-.6-1.273-.36,0-.613.479-.613,1.273s.222,1.3.6,1.3C461.2,365.06,461.366,364.48,461.366,363.763Z" fill="#fff"/>
      <path id="パス_121" data-name="パス 121" d="M462.97,363.787c0-1.056.411-1.567.974-1.567s.923.54.923,1.527c0,1.047-.366,1.587-.967,1.587C463.353,365.334,462.97,364.794,462.97,363.787Zm1.558-.024c0-.753-.18-1.273-.6-1.273-.36,0-.613.479-.613,1.273s.222,1.3.6,1.3C464.359,365.06,464.528,364.48,464.528,363.763Z" fill="#fff"/>
      <path id="パス_122" data-name="パス 122" d="M465.192,363.787c0-1.056.412-1.567.975-1.567s.923.54.923,1.527c0,1.047-.366,1.587-.967,1.587C465.575,365.334,465.192,364.794,465.192,363.787Zm1.559-.024c0-.753-.181-1.273-.6-1.273-.359,0-.612.479-.612,1.273s.222,1.3.6,1.3C466.582,365.06,466.751,364.48,466.751,363.763Z" fill="#fff"/>
    </g>
    <g id="グループ_277" data-name="グループ 277" transform="translate(-146.575 -140.57)">
      <path id="パス_123" data-name="パス 123" d="M375.214,407.181c0-1.332.518-1.977,1.229-1.977s1.164.681,1.164,1.926c0,1.321-.462,2-1.219,2C375.7,409.132,375.214,408.451,375.214,407.181Zm1.967-.031c0-.95-.229-1.606-.763-1.606-.452,0-.772.6-.772,1.606s.28,1.636.757,1.636C376.967,408.786,377.181,408.055,377.181,407.15Z" fill="#fff"/>
      <path id="パス_124" data-name="パス 124" d="M378.015,407.181c0-1.332.518-1.977,1.229-1.977s1.164.681,1.164,1.926c0,1.321-.463,2-1.22,2C378.5,409.132,378.015,408.451,378.015,407.181Zm1.966-.031c0-.95-.228-1.606-.762-1.606-.452,0-.773.6-.773,1.606s.281,1.636.758,1.636C379.768,408.786,379.981,408.055,379.981,407.15Z" fill="#fff"/>
      <path id="パス_125" data-name="パス 125" d="M382,407.181c0-1.332.519-1.977,1.229-1.977s1.165.681,1.165,1.926c0,1.321-.463,2-1.22,2C382.482,409.132,382,408.451,382,407.181Zm1.967-.031c0-.95-.229-1.606-.763-1.606-.452,0-.772.6-.772,1.606s.28,1.636.757,1.636C383.753,408.786,383.967,408.055,383.967,407.15Z" fill="#fff"/>
      <path id="パス_126" data-name="パス 126" d="M384.8,407.181c0-1.332.518-1.977,1.229-1.977s1.164.681,1.164,1.926c0,1.321-.463,2-1.219,2C385.283,409.132,384.8,408.451,384.8,407.181Zm1.967-.031c0-.95-.229-1.606-.763-1.606-.452,0-.773.6-.773,1.606s.281,1.636.758,1.636C386.554,408.786,386.768,408.055,386.768,407.15Z" fill="#fff"/>
      <path id="パス_127" data-name="パス 127" d="M388.786,407.181c0-1.332.519-1.977,1.23-1.977s1.164.681,1.164,1.926c0,1.321-.463,2-1.22,2C389.269,409.132,388.786,408.451,388.786,407.181Zm1.967-.031c0-.95-.229-1.606-.763-1.606-.452,0-.772.6-.772,1.606s.28,1.636.758,1.636C390.539,408.786,390.753,408.055,390.753,407.15Z" fill="#fff"/>
      <path id="パス_128" data-name="パス 128" d="M391.587,407.181c0-1.332.518-1.977,1.229-1.977s1.164.681,1.164,1.926c0,1.321-.462,2-1.219,2C392.069,409.132,391.587,408.451,391.587,407.181Zm1.967-.031c0-.95-.229-1.606-.763-1.606-.452,0-.772.6-.772,1.606s.28,1.636.757,1.636C393.34,408.786,393.554,408.055,393.554,407.15Z" fill="#fff"/>
    </g>
    <g id="グループ_278" data-name="グループ 278" transform="translate(-146.575 -140.57)">
      <path id="パス_129" data-name="パス 129" d="M375.214,413.066c0-1.331.518-1.976,1.229-1.976s1.164.681,1.164,1.926c0,1.32-.462,2-1.219,2C375.7,415.018,375.214,414.336,375.214,413.066Zm1.967-.03c0-.951-.229-1.606-.763-1.606-.452,0-.772.605-.772,1.606s.28,1.636.757,1.636C376.967,414.672,377.181,413.94,377.181,413.036Z" fill="#fff"/>
      <path id="パス_130" data-name="パス 130" d="M378.015,413.066c0-1.331.518-1.976,1.229-1.976s1.164.681,1.164,1.926c0,1.32-.463,2-1.22,2C378.5,415.018,378.015,414.336,378.015,413.066Zm1.966-.03c0-.951-.228-1.606-.762-1.606-.452,0-.773.605-.773,1.606s.281,1.636.758,1.636C379.768,414.672,379.981,413.94,379.981,413.036Z" fill="#fff"/>
      <path id="パス_131" data-name="パス 131" d="M382,413.066c0-1.331.519-1.976,1.229-1.976s1.165.681,1.165,1.926c0,1.32-.463,2-1.22,2C382.482,415.018,382,414.336,382,413.066Zm1.967-.03c0-.951-.229-1.606-.763-1.606-.452,0-.772.605-.772,1.606s.28,1.636.757,1.636C383.753,414.672,383.967,413.94,383.967,413.036Z" fill="#fff"/>
      <path id="パス_132" data-name="パス 132" d="M384.8,413.066c0-1.331.518-1.976,1.229-1.976s1.164.681,1.164,1.926c0,1.32-.463,2-1.219,2C385.283,415.018,384.8,414.336,384.8,413.066Zm1.967-.03c0-.951-.229-1.606-.763-1.606-.452,0-.773.605-.773,1.606s.281,1.636.758,1.636C386.554,414.672,386.768,413.94,386.768,413.036Z" fill="#fff"/>
      <path id="パス_133" data-name="パス 133" d="M388.786,413.066c0-1.331.519-1.976,1.23-1.976s1.164.681,1.164,1.926c0,1.32-.463,2-1.22,2C389.269,415.018,388.786,414.336,388.786,413.066Zm1.967-.03c0-.951-.229-1.606-.763-1.606-.452,0-.772.605-.772,1.606s.28,1.636.758,1.636C390.539,414.672,390.753,413.94,390.753,413.036Z" fill="#fff"/>
      <path id="パス_134" data-name="パス 134" d="M391.587,413.066c0-1.331.518-1.976,1.229-1.976s1.164.681,1.164,1.926c0,1.32-.462,2-1.219,2C392.069,415.018,391.587,414.336,391.587,413.066Zm1.967-.03c0-.951-.229-1.606-.763-1.606-.452,0-.772.605-.772,1.606s.28,1.636.757,1.636C393.34,414.672,393.554,413.94,393.554,413.036Z" fill="#fff"/>
    </g>
    <g id="グループ_279" data-name="グループ 279" transform="translate(-146.575 -140.57)">
      <path id="パス_135" data-name="パス 135" d="M406,411.024l.315.172-.528.712v.01l.848-.1v.351l-.843-.1v.015l.528.686-.325.188-.351-.788h-.01l-.376.793-.29-.188.524-.7v-.015l-.828.1v-.351l.818.092.005-.01-.519-.691.316-.183.36.772h.011Z" fill="#fff"/>
      <path id="パス_136" data-name="パス 136" d="M408.311,411.024l.315.172-.528.712v.01l.849-.1v.351l-.844-.1v.015l.528.686-.325.188-.35-.788h-.01l-.376.793-.29-.188.523-.7v-.015l-.828.1v-.351l.818.092.005-.01-.518-.691.315-.183.361.772h.01Z" fill="#fff"/>
      <path id="パス_137" data-name="パス 137" d="M410.624,411.024l.315.172-.528.712v.01l.848-.1v.351l-.843-.1v.015l.528.686-.325.188-.351-.788h-.01l-.376.793-.29-.188.524-.7v-.015l-.828.1v-.351l.818.092.005-.01-.519-.691.316-.183.36.772h.011Z" fill="#fff"/>
      <path id="パス_138" data-name="パス 138" d="M411.6,413.244h1.387v.325H411.6Z" fill="#fff"/>
      <path id="パス_139" data-name="パス 139" d="M413.333,413.244h1.387v.325h-1.387Z" fill="#fff"/>
      <path id="パス_140" data-name="パス 140" d="M416.4,411.024l.315.172-.528.712v.01l.849-.1v.351l-.844-.1v.015l.528.686-.325.188-.351-.788h-.009l-.376.793-.29-.188.523-.7v-.015l-.828.1v-.351l.818.092.005-.01-.518-.691.315-.183.36.772h.011Z" fill="#fff"/>
      <path id="パス_141" data-name="パス 141" d="M418.715,411.024l.316.172-.529.712v.01l.849-.1v.351l-.844-.1v.015l.529.686-.326.188-.35-.788h-.01l-.376.793-.29-.188.524-.7v-.015l-.829.1v-.351l.819.092.005-.01-.519-.691.316-.183.36.772h.011Z" fill="#fff"/>
      <path id="パス_142" data-name="パス 142" d="M419.692,413.244h1.387v.325h-1.387Z" fill="#fff"/>
      <path id="パス_143" data-name="パス 143" d="M421.425,413.244h1.387v.325h-1.387Z" fill="#fff"/>
      <path id="パス_144" data-name="パス 144" d="M423.159,413.244h1.387v.325h-1.387Z" fill="#fff"/>
    </g>
    <g id="___" data-name="***_***" transform="translate(-146.575 -140.57)">
      <path id="パス_145" data-name="パス 145" d="M406,405.462l.315.172-.528.712v.01l.848-.1v.351l-.843-.1v.015l.528.686-.325.188-.351-.788h-.01l-.376.793-.29-.188.524-.7v-.015l-.828.1v-.351l.818.092.005-.01-.519-.691.316-.183.36.772h.011Z" fill="#fff"/>
      <path id="パス_146" data-name="パス 146" d="M408.311,405.462l.315.172-.528.712v.01l.849-.1v.351l-.844-.1v.015l.528.686-.325.188-.35-.788h-.01l-.376.793-.29-.188.523-.7v-.015l-.828.1v-.351l.818.092.005-.01-.518-.691.315-.183.361.772h.01Z" fill="#fff"/>
      <path id="パス_147" data-name="パス 147" d="M410.624,405.462l.315.172-.528.712v.01l.848-.1v.351l-.843-.1v.015l.528.686-.325.188-.351-.788h-.01l-.376.793-.29-.188.524-.7v-.015l-.828.1v-.351l.818.092.005-.01-.519-.691.316-.183.36.772h.011Z" fill="#fff"/>
      <path id="パス_148" data-name="パス 148" d="M411.6,407.682h1.387v.325H411.6Z" fill="#fff"/>
      <path id="パス_149" data-name="パス 149" d="M413.333,407.682h1.387v.325h-1.387Z" fill="#fff"/>
      <path id="パス_150" data-name="パス 150" d="M416.4,405.462l.315.172-.528.712v.01l.849-.1v.351l-.844-.1v.015l.528.686-.325.188-.351-.788h-.009l-.376.793-.29-.188.523-.7v-.015l-.828.1v-.351l.818.092.005-.01-.518-.691.315-.183.36.772h.011Z" fill="#fff"/>
      <path id="パス_151" data-name="パス 151" d="M418.715,405.462l.316.172-.529.712v.01l.849-.1v.351l-.844-.1v.015l.529.686-.326.188-.35-.788h-.01l-.376.793-.29-.188.524-.7v-.015l-.829.1v-.351l.819.092.005-.01-.519-.691.316-.183.36.772h.011Z" fill="#fff"/>
      <path id="パス_152" data-name="パス 152" d="M419.692,407.682h1.387v.325h-1.387Z" fill="#fff"/>
      <path id="パス_153" data-name="パス 153" d="M421.425,407.682h1.387v.325h-1.387Z" fill="#fff"/>
      <path id="パス_154" data-name="パス 154" d="M423.158,407.682h1.387v.325h-1.387Z" fill="#fff"/>
    </g>
    <g id="_" data-name="****" transform="translate(-146.575 -140.57)">
      <path id="パス_155" data-name="パス 155" d="M378.573,391.988l.743.408-1.247,1.679v.024l2-.228v.827l-1.991-.228v.036l1.247,1.619-.767.444-.828-1.859h-.024l-.887,1.871-.684-.444,1.236-1.643v-.036l-1.956.24v-.827l1.932.215.011-.023-1.223-1.632.744-.431.851,1.823h.024Z" fill="#fff"/>
      <path id="パス_156" data-name="パス 156" d="M384.033,391.988l.743.408-1.247,1.679v.024l2-.228v.827l-1.991-.228v.036l1.247,1.619-.767.444-.828-1.859h-.024l-.887,1.871-.684-.444,1.235-1.643v-.036l-1.955.24v-.827l1.932.215.011-.023-1.223-1.632.744-.431.851,1.823h.024Z" fill="#fff"/>
      <path id="パス_157" data-name="パス 157" d="M389.493,391.988l.743.408-1.247,1.679v.024l2-.228v.827L389,394.47v.036l1.247,1.619-.768.444-.827-1.859h-.024l-.887,1.871-.684-.444,1.235-1.643v-.036l-1.955.24v-.827l1.932.215.011-.023-1.223-1.632L387.8,392l.851,1.823h.024Z" fill="#fff"/>
      <path id="パス_158" data-name="パス 158" d="M394.953,391.988l.743.408-1.247,1.679v.024l2-.228v.827l-1.991-.228v.036l1.247,1.619-.768.444-.827-1.859h-.024l-.887,1.871-.684-.444,1.235-1.643v-.036l-1.955.24v-.827l1.931.215.012-.023-1.223-1.632.744-.431.851,1.823h.024Z" fill="#fff"/>
      <path id="パス_159" data-name="パス 159" d="M400.413,391.988l.743.408-1.247,1.679v.024l2-.228v.827l-1.991-.228v.036l1.247,1.619-.768.444-.827-1.859h-.024l-.887,1.871-.684-.444,1.235-1.643v-.036l-1.955.24v-.827l1.931.215.012-.023-1.223-1.632.744-.431.851,1.823h.024Z" fill="#fff"/>
      <path id="パス_160" data-name="パス 160" d="M405.873,391.988l.743.408-1.247,1.679v.024l2-.228v.827l-1.991-.228v.036l1.247,1.619-.768.444-.827-1.859h-.024l-.887,1.871-.684-.444,1.235-1.643v-.036l-1.955.24v-.827l1.931.215.012-.023-1.223-1.632.744-.431.851,1.823h.024Z" fill="#fff"/>
      <path id="パス_161" data-name="パス 161" d="M411.333,391.988l.743.408-1.247,1.679v.024l2-.228v.827l-1.991-.228v.036l1.247,1.619-.768.444-.827-1.859h-.024l-.887,1.871-.684-.444,1.235-1.643v-.036l-1.955.24v-.827l1.931.215.012-.023-1.223-1.632.744-.431.851,1.823h.024Z" fill="#fff"/>
      <path id="パス_162" data-name="パス 162" d="M416.792,391.988l.744.408-1.247,1.679v.024l2-.228v.827l-1.991-.228v.036l1.247,1.619-.768.444-.827-1.859h-.024l-.887,1.871-.684-.444,1.235-1.643v-.036l-1.955.24v-.827l1.931.215.012-.023-1.223-1.632L415.1,392l.851,1.823h.024Z" fill="#fff"/>
    </g>
  </g>
</svg>
