<svg xmlns="http://www.w3.org/2000/svg" width="258.75" height="369.479" viewBox="0 0 258.75 369.479">
  <g id="グループ_627" data-name="グループ 627" transform="translate(-55.625 -2755.625)" opacity="0.3">
    <g id="car" transform="translate(-329.146 2710.76)">
      <path id="パス_1354" data-name="パス 1354" d="M452.052,374.464l-1.991,3.488s2.954,7.665,7.773,10.624,15.995,5.865,16.188,5.919l-3.726-3.806s-7.516-2.483-11.049-4.755S452.052,374.464,452.052,374.464Z" transform="translate(0.651 12.425)" fill="none" stroke="#000" stroke-miterlimit="10" stroke-width="1.012"/>
      <path id="パス_1355" data-name="パス 1355" d="M487.879,79.7c3.523-.172,20.164-.571,24.89-.571s21.368.4,24.891.571,2.059-1.722,1.5-3.557c-.259-.853-.921.371-1.558-.311a194.449,194.449,0,0,0-49.667,0c-.636.68-1.3-.542-1.558.311C485.82,77.979,484.356,79.874,487.879,79.7Z" transform="translate(2.121)" fill="none" stroke="#000" stroke-miterlimit="10" stroke-width="0.506"/>
      <path id="パス_1356" data-name="パス 1356" d="M478.972,80.362c-.588,1.087-3.351,9.576-3.351,9.576l-24.944,18.777s-1.892.661-1.892-.565v-3.539C455.012,91.569,476.067,81.3,478.972,80.362Z" transform="translate(0.598 0.253)" fill="none" stroke="#000" stroke-linejoin="bevel" stroke-width="1.012"/>
      <path id="パス_1357" data-name="パス 1357" d="M545.984,81.254c.588,1.087,2.959,8.647,2.959,8.647l24.943,18.777s1.892.661,1.892-.565v-3.539C569.134,91.376,545.984,81.254,545.984,81.254Z" transform="translate(4.62 0.29)" fill="none" stroke="#000" stroke-linejoin="round" stroke-width="1.012"/>
      <path id="パス_1358" data-name="パス 1358" d="M558.972,409.821c6.159-1.5,15.4-5.632,19.159-12.669s6.673-17.974,7.073-19.616,4.231-6.9,4.4-8.868.194-31.86.194-35.52-1.842-11.191-1.842-11.191v-52.2c0-10.8-.365-50.595-.694-69.021,4.073,1.066,8.123,2.122,8.123,2.122a4.908,4.908,0,0,0-1.2-3.943c-.7-.871-3.679-2.307-7.024-3.713-.23-12.549-.421-21.927-.421-21.927a117.286,117.286,0,0,0,1.214-17.543c.021-10.5-.77-23.749-1.214-25.909l-1.827-16.591s-3.723-9.661-7.151-15.243S562.1,79.994,546.13,76.075a5.336,5.336,0,0,1-4.019.176c-2.555-.711-17.276-2.011-27.221-2.011s-24.665,1.3-27.221,2.011a5.334,5.334,0,0,1-4.018-.176c-15.968,3.919-28.208,16.331-31.637,21.913s-7.151,15.243-7.151,15.243l-1.828,16.591c-.444,2.16-1.234,15.406-1.213,25.909a117.382,117.382,0,0,0,1.213,17.543s-.19,9.379-.419,21.927c-3.346,1.4-6.328,2.842-7.026,3.713a4.91,4.91,0,0,0-1.2,3.943s4.051-1.056,8.123-2.122c-.33,18.426-.694,58.225-.694,69.021v52.2s-1.842,7.53-1.842,11.191.023,33.549.195,35.52,4,7.226,4.4,8.868,3.307,12.578,7.072,19.616,13,11.167,19.161,12.669,30.776,4.017,44.081,4.017S552.812,411.321,558.972,409.821Z" transform="translate(0)" fill="none" stroke="#000" stroke-miterlimit="10" stroke-width="1.012"/>
      <path id="パス_1359" data-name="パス 1359" d="M569.73,356.4c.185-1.777,1.984-25.45,2-25.672l2.191-62.137-.6-74.9-.065-6.236h0l-.08-7.722-.036.013c-2.51,4.512-11.294,34.394-13.3,43.2-1.554,6.831-2.341,36.762-2.341,55.439v.006q0,3.586.036,7.29c.082,8.5,1.223,24.013,6.193,54.631l.124.765c.1.6.211,1.34.339,2.166.656,4.216,2.375,15.255,3.527,16.6C568.623,359.665,569.554,358.1,569.73,356.4Z" transform="translate(5.097 4.366)" fill="none" stroke="#000" stroke-miterlimit="10" stroke-width="1.012"/>
      <path id="パス_1360" data-name="パス 1360" d="M459.835,343.247c.128-.826.243-1.562.34-2.166l.124-.765c4.972-30.618,6.112-46.133,6.193-54.631q.036-3.7.036-7.29v-.006c0-18.677-.787-48.608-2.341-55.439-2-8.811-10.79-38.693-13.3-43.2l-.035-.013-.079,7.722h0l-.066,6.236-.6,74.9,2.191,62.137c.017.222,1.816,23.9,2,25.672.177,1.7,1.108,3.263,2.008,3.444C457.46,358.5,459.179,347.463,459.835,343.247Z" transform="translate(0.653 4.366)" fill="none" stroke="#000" stroke-miterlimit="10" stroke-width="1.012"/>
      <line id="線_57" data-name="線 57" x1="15.294" y2="2.955" transform="translate(563.08 277.853)" fill="none" stroke="#000" stroke-miterlimit="10" stroke-width="0.506"/>
      <line id="線_58" data-name="線 58" y1="6.437" x2="15.356" transform="translate(563.135 267.917)" fill="none" stroke="#000" stroke-miterlimit="10" stroke-width="0.506"/>
      <path id="パス_1361" data-name="パス 1361" d="M514.056,163.138c-37.961,0-57.663,10.347-57.663,10.347l-1.906,2.524,11.705,40.761s24.411-4.514,47.863-4.514,47.864,4.514,47.864,4.514l11.705-40.761-1.907-2.524S552.019,163.138,514.056,163.138Z" transform="translate(0.834 3.679)" fill="none" stroke="#000" stroke-miterlimit="10" stroke-width="1.012"/>
      <path id="パス_1362" data-name="パス 1362" d="M513.614,370.019c-35.278,0-48.445-7.2-48.445-7.2l4.34-36a300.217,300.217,0,0,0,88.21,0l4.342,36S548.893,370.019,513.614,370.019Z" transform="translate(1.276 10.453)" fill="none" stroke="#000" stroke-miterlimit="10" stroke-width="1.012"/>
      <line id="線_59" data-name="線 59" x2="15.295" y2="2.955" transform="translate(451.407 277.853)" fill="none" stroke="#000" stroke-miterlimit="10" stroke-width="0.506"/>
      <line id="線_60" data-name="線 60" x1="15.357" y1="6.437" transform="translate(451.289 267.917)" fill="none" stroke="#000" stroke-miterlimit="10" stroke-width="0.506"/>
      <path id="パス_1363" data-name="パス 1363" d="M445.338,193.906l.234-12.207,4.047-71.275s.084-.3.222-.783a1.268,1.268,0,0,1-.756-1.308v-3.539c5.276-14.2,26.091-24.779,28.47-25.488s2.265.237,1.749,1.181c-.1.186-.3.557-.544,1.029,2.289-.809,5.416-1.746,6.935-2.192a3.029,3.029,0,0,1,.066-.61c.2-.962,1.566-.854,2.684-2.354l.166-.427c-.537.089-.961.172-1.237.248A5.334,5.334,0,0,1,483.354,76c-15.968,3.919-28.208,16.331-31.637,21.913s-7.151,15.243-7.151,15.243l-1.828,16.591c-.444,2.16-1.234,15.406-1.213,25.909a117.384,117.384,0,0,0,1.213,17.543s-.19,9.379-.419,21.927C443.31,194.715,444.333,194.3,445.338,193.906Z" transform="translate(0.297 0.07)" fill="none" stroke="#000" stroke-miterlimit="10" stroke-width="0.506"/>
      <g id="グループ_624" data-name="グループ 624" transform="translate(540.376 75.925)">
        <path id="パス_1364" data-name="パス 1364" d="M536.323,75.884l-.161-.026v0Z" transform="translate(-536.162 -75.858)" fill="none" stroke="#000" stroke-miterlimit="10" stroke-width="0.506"/>
        <path id="パス_1365" data-name="パス 1365" d="M582.517,173.2a117.3,117.3,0,0,0,1.214-17.543c.021-10.5-.77-23.749-1.214-25.909l-1.827-16.591s-3.723-9.661-7.151-15.243S557.87,79.925,541.9,76.006a5.336,5.336,0,0,1-4.019.176c-.3-.083-.792-.177-1.413-.275,1.161,1.527,2.8,1.745,3.026,2.808a2.958,2.958,0,0,1,.065.61c1.519.446,4.647,1.383,6.935,2.192-.247-.472-.442-.842-.544-1.029-.516-.943-.631-1.888,1.749-1.181s23.195,11.287,28.469,25.488v3.539a1.268,1.268,0,0,1-.756,1.308c.138.482.222.783.222.783l4.047,71.275.234,12.207c1,.395,2.026.809,3.019,1.225C582.707,182.583,582.517,173.2,582.517,173.2Z" transform="translate(-536.149 -75.856)" fill="none" stroke="#000" stroke-miterlimit="10" stroke-width="0.506"/>
      </g>
      <path id="パス_1366" data-name="パス 1366" d="M572.133,177.609c-.748-11-19.48-87.623-19.48-87.623a75.959,75.959,0,0,0-2.837-8.6c-2.287-.808-5.415-1.746-6.937-2.193,0,1.394-1.076,2.5-3.52,2.4-2.79-.116-15.978-.661-25.38-.661s-22.589.546-25.38.661c-2.443.1-3.522-1.01-3.52-2.4-1.52.447-4.648,1.384-6.935,2.193a76.016,76.016,0,0,0-2.838,8.6c-5.835,17.812-18.991,86.973-18.991,86.973s19.7-10.347,57.663-10.347,57.662,10.347,57.662,10.347Z" transform="translate(0.91 0.205)" fill="none" stroke="#000" stroke-miterlimit="10" stroke-width="0.506"/>
      <path id="パス_1367" data-name="パス 1367" d="M572.278,374.464l1.99,3.488s-2.953,7.665-7.771,10.624S550.5,394.441,550.31,394.5l3.725-3.806s7.516-2.483,11.048-4.755S572.278,374.464,572.278,374.464Z" transform="translate(4.799 12.425)" fill="none" stroke="#000" stroke-miterlimit="10" stroke-width="1.012"/>
      <path id="パス_1368" data-name="パス 1368" d="M554.087,394.655l.647-.321-.379.1,3.725-3.806s7.274-2.406,10.872-4.649l.5-.335c2.536-1.923,5.078-7.151,6.229-9.742-1.98,3.591-7.654,7.572-15.481,10.464-8.233,3.043-36.491,4.42-46.067,4.42s-37.832-1.377-46.066-4.42c-7.827-2.892-13.5-6.873-15.482-10.464,1.151,2.589,3.689,7.809,6.222,9.737.171.115.343.23.516.345,3.6,2.241,10.867,4.645,10.867,4.645l3.726,3.806-.378-.1.646.321s11.553,4.112,39.95,4.112S554.087,394.655,554.087,394.655Zm-62.015.094s15.784.8,22.064.8,22.065-.8,22.065-.8,3.279,1.434-.418,1.836-17.478,1.034-21.647,1.034-17.947-.631-21.645-1.034S492.071,394.749,492.071,394.749Z" transform="translate(0.755 12.484)" fill="none" stroke="#000" stroke-miterlimit="10" stroke-width="0.506"/>
      <g id="グループ_625" data-name="グループ 625" transform="translate(555.616 199.947)">
        <path id="パス_1369" data-name="パス 1369" d="M566.477,396c-4.248,2.609-13.433,5.175-15.681,5.784.08-.012,12.611-1.859,16.922-5.636a48.708,48.708,0,0,0,7.2-7.576c2.963-7.65,5.129-14.637,5.469-16.036.4-1.642,4.231-6.9,4.4-8.868s.194-31.86.194-35.52-1.842-11.191-1.842-11.191v-52.2c0-10.8-.365-50.595-.694-69.021l-3.005-.787,1.047,71.607-1.6,64.745s-3.07,38.117-4.048,43.169a21.846,21.846,0,0,1-2.576,7.422l1.99,3.488S571.295,393.045,566.477,396Zm14.631-135.476v-9.768h.659v9.768Zm-1.055,64.026v-9.768h.659v9.768Z" transform="translate(-550.796 -194.951)" fill="none" stroke="#000" stroke-miterlimit="10" stroke-width="0.506"/>
        <path id="パス_1370" data-name="パス 1370" d="M564.327,385.593c.056-.035.121-.071.176-.106.108-.071.218-.147.326-.229Z" transform="translate(-550.236 -187.075)" fill="none" stroke="#000" stroke-miterlimit="10" stroke-width="0.506"/>
      </g>
      <g id="グループ_626" data-name="グループ 626" transform="translate(439.98 199.947)">
        <path id="パス_1371" data-name="パス 1371" d="M459.077,385.6c-.173-.115-.345-.23-.515-.345.111.084.222.163.333.234C458.951,385.524,459.018,385.56,459.077,385.6Z" transform="translate(-438.978 -187.076)" fill="none" stroke="#000" stroke-miterlimit="10" stroke-width="0.506"/>
        <path id="パス_1372" data-name="パス 1372" d="M458.26,396c-4.818-2.96-7.773-10.624-7.773-10.624l1.991-3.488a21.843,21.843,0,0,1-2.576-7.422c-.977-5.052-4.048-43.169-4.048-43.169l-1.6-64.745,1.048-71.607-3.005.787c-.33,18.426-.694,58.225-.694,69.021v52.2s-1.842,7.53-1.842,11.191.023,33.549.195,35.52,4,7.226,4.4,8.868c.341,1.4,2.506,8.386,5.469,16.036a48.763,48.763,0,0,0,7.2,7.576c4.311,3.776,16.836,5.623,16.924,5.636C471.692,401.179,462.507,398.613,458.26,396ZM442.968,260.529v-9.768h.66v9.768Zm1.056,64.026v-9.768h.659v9.768Z" transform="translate(-439.756 -194.951)" fill="none" stroke="#000" stroke-miterlimit="10" stroke-width="0.506"/>
      </g>
      <path id="パス_1373" data-name="パス 1373" d="M452.943,330.612l-2.183-61.894.6-74.9.066-6.236h0l.079-7.722-8.62-3.135c-.073,3.771-.167,8.693-.268,14.238-3.346,1.4-6.328,2.842-7.026,3.713a4.91,4.91,0,0,0-1.2,3.943s4.051-1.056,8.123-2.122c-.33,18.426-.694,58.225-.694,69.021v52.2s-.166,1.237-.363,2.953c1.578,4.188,3.643,9.532,4.364,10.78,1.228,2.121,6.546-.67,6.546-.67S452.608,330.716,452.943,330.612Z" transform="translate(0 4.241)" fill="none" stroke="#000" stroke-miterlimit="10" stroke-width="1.012"/>
      <path id="パス_1374" data-name="パス 1374" d="M452.66,327.078l-2.183-61.894,0-.2a38.261,38.261,0,0,1-8.94-2.883v52.081s-.166,1.237-.363,2.953c1.578,4.188,3.643,9.532,4.364,10.78,1.228,2.121,6.546-.67,6.546-.67S452.325,327.182,452.66,327.078Z" transform="translate(0.283 7.775)" fill="none" stroke="#000" stroke-miterlimit="10" stroke-width="1.012"/>
      <path id="パス_1375" data-name="パス 1375" d="M578.364,331.86c.37-.7,2.832-8.416,4.134-12.531-.12-.979-.2-1.607-.2-1.607v-52.2c0-10.8-.365-50.595-.694-69.021,4.073,1.066,8.123,2.122,8.123,2.122a4.908,4.908,0,0,0-1.2-3.943c-.7-.871-3.679-2.307-7.024-3.713-.1-5.62-.2-10.6-.272-14.392-1.714.495-8.653,2.54-8.653,3.3l.036-.013.08,7.722h0l.065,6.236.6,74.9-2.177,61.737a5.7,5.7,0,0,0,1.146.543C574.247,331.658,577.858,332.823,578.364,331.86Z" transform="translate(5.663 4.235)" fill="none" stroke="#000" stroke-miterlimit="10" stroke-width="1.012"/>
      <path id="パス_1376" data-name="パス 1376" d="M578.364,328.317c.37-.7,2.832-8.416,4.134-12.531-.12-.979-.2-1.607-.2-1.607V262.188l-2.85,1.741-6.091.923,0,.329-2.177,61.737a5.694,5.694,0,0,0,1.146.543C574.247,328.115,577.858,329.28,578.364,328.317Z" transform="translate(5.663 7.778)" fill="none" stroke="#000" stroke-miterlimit="10" stroke-width="1.012"/>
      <path id="パス_1377" data-name="パス 1377" d="M589.664,198.184a4.908,4.908,0,0,0-1.2-3.943c-.7-.871-3.679-2.307-7.024-3.713l-8.808-3.381h0l.065,6.236,8.844,2.678C585.614,197.128,589.664,198.184,589.664,198.184Z" transform="translate(5.723 4.673)" fill="none" stroke="#000" stroke-miterlimit="10" stroke-width="1.012"/>
      <path id="パス_1378" data-name="パス 1378" d="M434.393,198.184a4.908,4.908,0,0,1,1.2-3.943c.7-.871,3.679-2.307,7.024-3.713l8.808-3.381h0l-.065,6.236-8.844,2.678C438.443,197.128,434.393,198.184,434.393,198.184Z" transform="translate(0 4.673)" fill="none" stroke="#000" stroke-miterlimit="10" stroke-width="1.012"/>
    </g>
    <g id="tire" transform="translate(-224.244 2858.082)">
      <g id="レイヤー_12のコピー_2" data-name="レイヤー 12のコピー 2">
        <path id="パス_1258" data-name="パス 1258" d="M516.018,115.918v100h4.453v-100Z" fill="none" stroke="#000" stroke-linecap="round" stroke-linejoin="round" stroke-width="0.25"/>
        <path id="パス_1259" data-name="パス 1259" d="M521.816,116.19a.676.676,0,1,1-1.345,0v99.457a.676.676,0,1,1,1.345,0V116.19Z" fill="none" stroke="#000" stroke-linecap="round" stroke-linejoin="round" stroke-width="0.25"/>
        <path id="パス_1260" data-name="パス 1260" d="M521.816,115.918v100l4.453-.352v-99.3Z" fill="none" stroke="#000" stroke-linecap="round" stroke-linejoin="round" stroke-width="0.25"/>
        <path id="パス_1261" data-name="パス 1261" d="M535.078,121.429v88.979s3.166-5.6,3.166-19.975V141.4C538.244,127.029,535.078,121.429,535.078,121.429Z" fill="none" stroke="#000" stroke-linecap="round" stroke-linejoin="round" stroke-width="0.25"/>
        <path id="パス_1262" data-name="パス 1262" d="M534.293,118.587a8.783,8.783,0,0,0-2.226-1.451,21.093,21.093,0,0,0-4.453-.4.781.781,0,0,1-1.345-.324v49.507h0v49.507a.781.781,0,0,1,1.345-.323,21.12,21.12,0,0,0,4.453-.4,8.761,8.761,0,0,0,2.226-1.45,5.545,5.545,0,0,0,.785-2.842v-44.49h0V121.429A5.545,5.545,0,0,0,534.293,118.587Z" fill="none" stroke="#000" stroke-linecap="round" stroke-linejoin="round" stroke-width="0.25"/>
        <path id="パス_1263" data-name="パス 1263" d="M514.672,116.19a.676.676,0,1,0,1.346,0v99.457a.676.676,0,1,0-1.346,0V116.19Z" fill="none" stroke="#000" stroke-linecap="round" stroke-linejoin="round" stroke-width="0.25"/>
        <path id="パス_1264" data-name="パス 1264" d="M514.673,115.918v100l-4.453-.352v-99.3Z" fill="none" stroke="#000" stroke-linecap="round" stroke-linejoin="round" stroke-width="0.25"/>
        <path id="パス_1265" data-name="パス 1265" d="M501.411,121.429v88.979s-3.167-5.6-3.167-19.975V141.4C498.244,127.029,501.411,121.429,501.411,121.429Z" fill="none" stroke="#000" stroke-linecap="round" stroke-linejoin="round" stroke-width="0.25"/>
        <path id="パス_1266" data-name="パス 1266" d="M502.2,118.587a8.762,8.762,0,0,1,2.226-1.451,21.085,21.085,0,0,1,4.452-.4.782.782,0,0,0,1.346-.324v49.507h0v49.507a.782.782,0,0,0-1.346-.323,21.112,21.112,0,0,1-4.452-.4,8.741,8.741,0,0,1-2.226-1.45,5.545,5.545,0,0,1-.785-2.842v-44.49h0V121.429A5.545,5.545,0,0,1,502.2,118.587Z" fill="none" stroke="#000" stroke-linecap="round" stroke-linejoin="round" stroke-width="0.25"/>
        <g id="グループ_619" data-name="グループ 619">
          <path id="パス_1267" data-name="パス 1267" d="M528.005,162.18a.59.59,0,0,0-.59.59v6.3a.59.59,0,0,0,.59.59h3.863V162.18Z" fill="none" stroke="#000" stroke-linecap="round" stroke-linejoin="round" stroke-width="0.25"/>
          <path id="パス_1268" data-name="パス 1268" d="M527.981,171.23a.6.6,0,0,0-.566.594v5.811a.533.533,0,0,0,.566.537l3.887-.274v-6.942Z" fill="none" stroke="#000" stroke-linecap="round" stroke-linejoin="round" stroke-width="0.25"/>
          <path id="パス_1269" data-name="パス 1269" d="M527.956,179.746a.614.614,0,0,0-.541.6v5.327a.478.478,0,0,0,.541.484l3.912-.547V179.2Z" fill="none" stroke="#000" stroke-linecap="round" stroke-linejoin="round" stroke-width="0.25"/>
          <path id="パス_1270" data-name="パス 1270" d="M527.931,187.728a.631.631,0,0,0-.516.6v4.843a.427.427,0,0,0,.516.431l3.937-.821v-5.874Z" fill="none" stroke="#000" stroke-linecap="round" stroke-linejoin="round" stroke-width="0.25"/>
          <path id="パス_1271" data-name="パス 1271" d="M527.906,195.175a.656.656,0,0,0-.491.6v4.357a.378.378,0,0,0,.491.378l3.962-1.094v-5.34Z" fill="none" stroke="#000" stroke-linecap="round" stroke-linejoin="round" stroke-width="0.25"/>
          <path id="パス_1272" data-name="パス 1272" d="M527.882,202.089a.682.682,0,0,0-.467.608v3.873a.334.334,0,0,0,.467.325l3.986-1.368v-4.806Z" fill="none" stroke="#000" stroke-linecap="round" stroke-linejoin="round" stroke-width="0.25"/>
          <path id="パス_1273" data-name="パス 1273" d="M527.857,208.469a.717.717,0,0,0-.442.611v3.389c0,.244.2.366.442.272l4.011-1.642v-4.272Z" fill="none" stroke="#000" stroke-linecap="round" stroke-linejoin="round" stroke-width="0.25"/>
          <path id="パス_1274" data-name="パス 1274" d="M527.739,215.1h.147c.172,0,.417,0,.708-.012l.306-.01c.212-.008.442-.02.68-.035.119-.007.24-.016.363-.025.245-.019.495-.043.742-.072.123-.015.246-.031.367-.048.288-.042.561-.1.816-.155V212.4l-4.036,1.915a.762.762,0,0,0-.417.616v.009a.959.959,0,0,1,.2.163Z" fill="none" stroke="#000" stroke-linecap="round" stroke-linejoin="round" stroke-width="0.25"/>
          <path id="パス_1275" data-name="パス 1275" d="M533.5,162.18h-1.636v7.476H533.5a.59.59,0,0,0,.59-.59v-6.3A.59.59,0,0,0,533.5,162.18Z" fill="none" stroke="#000" stroke-linecap="round" stroke-linejoin="round" stroke-width="0.25"/>
          <path id="パス_1276" data-name="パス 1276" d="M533.529,171.229l-1.661-.273V177.9l1.661.273a.5.5,0,0,0,.565-.5v-5.812A.648.648,0,0,0,533.529,171.229Z" fill="none" stroke="#000" stroke-linecap="round" stroke-linejoin="round" stroke-width="0.25"/>
          <path id="パス_1277" data-name="パス 1277" d="M533.554,179.744l-1.686-.546v6.409l1.686.545a.415.415,0,0,0,.54-.415V180.41A.723.723,0,0,0,533.554,179.744Z" fill="none" stroke="#000" stroke-linecap="round" stroke-linejoin="round" stroke-width="0.25"/>
          <path id="パス_1278" data-name="パス 1278" d="M533.578,187.725l-1.71-.818v5.874l1.71.818a.349.349,0,0,0,.516-.328v-4.842A.817.817,0,0,0,533.578,187.725Z" fill="none" stroke="#000" stroke-linecap="round" stroke-linejoin="round" stroke-width="0.25"/>
          <path id="パス_1279" data-name="パス 1279" d="M533.6,195.171l-1.735-1.09v5.34l1.735,1.09c.271.139.491.032.491-.239v-4.358A.94.94,0,0,0,533.6,195.171Z" fill="none" stroke="#000" stroke-linecap="round" stroke-linejoin="round" stroke-width="0.25"/>
          <path id="パス_1280" data-name="パス 1280" d="M533.628,202.084l-1.76-1.363v4.806l1.76,1.363c.257.174.466.106.466-.152v-3.873A1.092,1.092,0,0,0,533.628,202.084Z" fill="none" stroke="#000" stroke-linecap="round" stroke-linejoin="round" stroke-width="0.25"/>
          <path id="パス_1281" data-name="パス 1281" d="M531.868,206.827V211.1l1.784,1.636c.244.208.442.179.442-.065v-3.388a1.283,1.283,0,0,0-.442-.819Z" fill="none" stroke="#000" stroke-linecap="round" stroke-linejoin="round" stroke-width="0.25"/>
          <path id="パス_1282" data-name="パス 1282" d="M531.868,214.746c.066-.016.136-.029.2-.046a3.246,3.246,0,0,0,.371-.156,6.553,6.553,0,0,0,.755-.446l.171-.121-1.5-1.578Z" fill="none" stroke="#000" stroke-linecap="round" stroke-linejoin="round" stroke-width="0.25"/>
          <path id="パス_1283" data-name="パス 1283" d="M527.981,153.665a.532.532,0,0,0-.566.537v5.811a.6.6,0,0,0,.566.594l3.887.273v-6.942Z" fill="none" stroke="#000" stroke-linecap="round" stroke-linejoin="round" stroke-width="0.25"/>
          <path id="パス_1284" data-name="パス 1284" d="M527.956,145.683a.478.478,0,0,0-.541.484v5.327a.615.615,0,0,0,.541.6l3.912.547V146.23Z" fill="none" stroke="#000" stroke-linecap="round" stroke-linejoin="round" stroke-width="0.25"/>
          <path id="パス_1285" data-name="パス 1285" d="M527.931,138.235a.426.426,0,0,0-.516.431v4.842a.633.633,0,0,0,.516.6l3.937.821v-5.874Z" fill="none" stroke="#000" stroke-linecap="round" stroke-linejoin="round" stroke-width="0.25"/>
          <path id="パス_1286" data-name="パス 1286" d="M527.906,131.321a.379.379,0,0,0-.491.378v4.358a.654.654,0,0,0,.491.6l3.962,1.1v-5.34Z" fill="none" stroke="#000" stroke-linecap="round" stroke-linejoin="round" stroke-width="0.25"/>
          <path id="パス_1287" data-name="パス 1287" d="M527.882,124.942a.334.334,0,0,0-.467.325v3.873a.683.683,0,0,0,.467.608l3.986,1.368V126.31Z" fill="none" stroke="#000" stroke-linecap="round" stroke-linejoin="round" stroke-width="0.25"/>
          <path id="パス_1288" data-name="パス 1288" d="M527.857,119.1c-.244-.094-.442.028-.442.272v3.388a.718.718,0,0,0,.442.612l4.011,1.642v-4.272Z" fill="none" stroke="#000" stroke-linecap="round" stroke-linejoin="round" stroke-width="0.25"/>
          <path id="パス_1289" data-name="パス 1289" d="M527.832,117.522l4.036,1.916v-2.347c-.255-.06-.528-.113-.816-.155-.121-.017-.244-.033-.367-.048-.247-.029-.5-.053-.742-.072-.123-.01-.244-.018-.363-.026-.238-.015-.468-.026-.68-.034l-.306-.01c-.291-.008-.536-.011-.708-.012h-.272a.959.959,0,0,1-.2.163v.009A.761.761,0,0,0,527.832,117.522Z" fill="none" stroke="#000" stroke-linecap="round" stroke-linejoin="round" stroke-width="0.25"/>
          <path id="パス_1290" data-name="パス 1290" d="M533.529,153.666l-1.661.272v6.942l1.661-.272a.649.649,0,0,0,.565-.629v-5.811A.5.5,0,0,0,533.529,153.666Z" fill="none" stroke="#000" stroke-linecap="round" stroke-linejoin="round" stroke-width="0.25"/>
          <path id="パス_1291" data-name="パス 1291" d="M533.554,145.685l-1.686.545v6.408l1.686-.545a.724.724,0,0,0,.54-.666V146.1A.415.415,0,0,0,533.554,145.685Z" fill="none" stroke="#000" stroke-linecap="round" stroke-linejoin="round" stroke-width="0.25"/>
          <path id="パス_1292" data-name="パス 1292" d="M533.578,138.238l-1.71.818v5.874l1.71-.818a.817.817,0,0,0,.516-.7v-4.843A.349.349,0,0,0,533.578,138.238Z" fill="none" stroke="#000" stroke-linecap="round" stroke-linejoin="round" stroke-width="0.25"/>
          <path id="パス_1293" data-name="パス 1293" d="M533.6,131.325l-1.735,1.091v5.34l1.735-1.091a.937.937,0,0,0,.491-.742v-4.358C534.094,131.294,533.874,131.186,533.6,131.325Z" fill="none" stroke="#000" stroke-linecap="round" stroke-linejoin="round" stroke-width="0.25"/>
          <path id="パス_1294" data-name="パス 1294" d="M533.628,124.947l-1.76,1.363v4.806l1.76-1.363a1.094,1.094,0,0,0,.466-.781V125.1C534.094,124.841,533.885,124.773,533.628,124.947Z" fill="none" stroke="#000" stroke-linecap="round" stroke-linejoin="round" stroke-width="0.25"/>
          <path id="パス_1295" data-name="パス 1295" d="M533.652,119.1l-1.784,1.636v4.272l1.784-1.636a1.283,1.283,0,0,0,.442-.819v-3.388C534.094,118.922,533.9,118.894,533.652,119.1Z" fill="none" stroke="#000" stroke-linecap="round" stroke-linejoin="round" stroke-width="0.25"/>
          <path id="パス_1296" data-name="パス 1296" d="M532.438,117.293a3.076,3.076,0,0,0-.371-.156c-.063-.017-.133-.031-.2-.046v2.347l1.5-1.578c-.057-.041-.112-.081-.171-.121A6.551,6.551,0,0,0,532.438,117.293Z" fill="none" stroke="#000" stroke-linecap="round" stroke-linejoin="round" stroke-width="0.25"/>
        </g>
        <g id="グループ_620" data-name="グループ 620">
          <path id="パス_1297" data-name="パス 1297" d="M508.486,162.18a.59.59,0,0,1,.59.59v6.3a.59.59,0,0,1-.59.59h-3.863V162.18Z" fill="none" stroke="#000" stroke-linecap="round" stroke-linejoin="round" stroke-width="0.25"/>
          <path id="パス_1298" data-name="パス 1298" d="M508.51,171.23a.6.6,0,0,1,.566.594v5.811a.533.533,0,0,1-.566.537l-3.887-.274v-6.942Z" fill="none" stroke="#000" stroke-linecap="round" stroke-linejoin="round" stroke-width="0.25"/>
          <path id="パス_1299" data-name="パス 1299" d="M508.535,179.746a.614.614,0,0,1,.541.6v5.327a.478.478,0,0,1-.541.484l-3.912-.547V179.2Z" fill="none" stroke="#000" stroke-linecap="round" stroke-linejoin="round" stroke-width="0.25"/>
          <path id="パス_1300" data-name="パス 1300" d="M508.56,187.728a.631.631,0,0,1,.516.6v4.843a.427.427,0,0,1-.516.431l-3.937-.821v-5.874Z" fill="none" stroke="#000" stroke-linecap="round" stroke-linejoin="round" stroke-width="0.25"/>
          <path id="パス_1301" data-name="パス 1301" d="M508.584,195.175a.655.655,0,0,1,.492.6v4.357a.378.378,0,0,1-.492.378l-3.961-1.094v-5.34Z" fill="none" stroke="#000" stroke-linecap="round" stroke-linejoin="round" stroke-width="0.25"/>
          <path id="パス_1302" data-name="パス 1302" d="M508.609,202.089a.682.682,0,0,1,.467.608v3.873a.334.334,0,0,1-.467.325l-3.986-1.368v-4.806Z" fill="none" stroke="#000" stroke-linecap="round" stroke-linejoin="round" stroke-width="0.25"/>
          <path id="パス_1303" data-name="パス 1303" d="M508.634,208.469a.717.717,0,0,1,.442.611v3.389c0,.244-.2.366-.442.272l-4.011-1.642v-4.272Z" fill="none" stroke="#000" stroke-linecap="round" stroke-linejoin="round" stroke-width="0.25"/>
          <path id="パス_1304" data-name="パス 1304" d="M508.752,215.1h-.147c-.172,0-.417,0-.708-.012l-.306-.01c-.212-.008-.442-.02-.68-.035-.119-.007-.24-.016-.363-.025-.245-.019-.495-.043-.742-.072-.123-.015-.246-.031-.367-.048-.288-.042-.561-.1-.816-.155V212.4l4.036,1.915a.762.762,0,0,1,.417.616v.009a.958.958,0,0,0-.2.163Z" fill="none" stroke="#000" stroke-linecap="round" stroke-linejoin="round" stroke-width="0.25"/>
          <path id="パス_1305" data-name="パス 1305" d="M502.987,162.18h1.636v7.476h-1.636a.59.59,0,0,1-.59-.59v-6.3A.59.59,0,0,1,502.987,162.18Z" fill="none" stroke="#000" stroke-linecap="round" stroke-linejoin="round" stroke-width="0.25"/>
          <path id="パス_1306" data-name="パス 1306" d="M502.962,171.229l1.661-.273V177.9l-1.661.273a.5.5,0,0,1-.565-.5v-5.812A.648.648,0,0,1,502.962,171.229Z" fill="none" stroke="#000" stroke-linecap="round" stroke-linejoin="round" stroke-width="0.25"/>
          <path id="パス_1307" data-name="パス 1307" d="M502.937,179.744l1.686-.546v6.409l-1.686.545a.415.415,0,0,1-.54-.415V180.41A.723.723,0,0,1,502.937,179.744Z" fill="none" stroke="#000" stroke-linecap="round" stroke-linejoin="round" stroke-width="0.25"/>
          <path id="パス_1308" data-name="パス 1308" d="M502.913,187.725l1.71-.818v5.874l-1.71.818a.349.349,0,0,1-.516-.328v-4.842A.817.817,0,0,1,502.913,187.725Z" fill="none" stroke="#000" stroke-linecap="round" stroke-linejoin="round" stroke-width="0.25"/>
          <path id="パス_1309" data-name="パス 1309" d="M502.888,195.171l1.735-1.09v5.34l-1.735,1.09c-.271.139-.491.032-.491-.239v-4.358A.94.94,0,0,1,502.888,195.171Z" fill="none" stroke="#000" stroke-linecap="round" stroke-linejoin="round" stroke-width="0.25"/>
          <path id="パス_1310" data-name="パス 1310" d="M502.863,202.084l1.76-1.363v4.806l-1.76,1.363c-.257.174-.466.106-.466-.152v-3.873A1.092,1.092,0,0,1,502.863,202.084Z" fill="none" stroke="#000" stroke-linecap="round" stroke-linejoin="round" stroke-width="0.25"/>
          <path id="パス_1311" data-name="パス 1311" d="M504.623,206.827V211.1l-1.784,1.636c-.244.208-.442.179-.442-.065v-3.388a1.284,1.284,0,0,1,.442-.819Z" fill="none" stroke="#000" stroke-linecap="round" stroke-linejoin="round" stroke-width="0.25"/>
          <path id="パス_1312" data-name="パス 1312" d="M504.623,214.746c-.066-.016-.136-.029-.2-.046a3.242,3.242,0,0,1-.371-.156,6.55,6.55,0,0,1-.755-.446c-.06-.041-.114-.081-.171-.121l1.5-1.578Z" fill="none" stroke="#000" stroke-linecap="round" stroke-linejoin="round" stroke-width="0.25"/>
          <path id="パス_1313" data-name="パス 1313" d="M508.51,153.665a.532.532,0,0,1,.566.537v5.811a.6.6,0,0,1-.566.594l-3.887.273v-6.942Z" fill="none" stroke="#000" stroke-linecap="round" stroke-linejoin="round" stroke-width="0.25"/>
          <path id="パス_1314" data-name="パス 1314" d="M508.535,145.683a.478.478,0,0,1,.541.484v5.327a.615.615,0,0,1-.541.6l-3.912.547V146.23Z" fill="none" stroke="#000" stroke-linecap="round" stroke-linejoin="round" stroke-width="0.25"/>
          <path id="パス_1315" data-name="パス 1315" d="M508.56,138.235a.426.426,0,0,1,.516.431v4.842a.633.633,0,0,1-.516.6l-3.937.821v-5.874Z" fill="none" stroke="#000" stroke-linecap="round" stroke-linejoin="round" stroke-width="0.25"/>
          <path id="パス_1316" data-name="パス 1316" d="M508.584,131.321a.379.379,0,0,1,.492.378v4.358a.654.654,0,0,1-.492.6l-3.961,1.1v-5.34Z" fill="none" stroke="#000" stroke-linecap="round" stroke-linejoin="round" stroke-width="0.25"/>
          <path id="パス_1317" data-name="パス 1317" d="M508.609,124.942a.334.334,0,0,1,.467.325v3.873a.683.683,0,0,1-.467.608l-3.986,1.368V126.31Z" fill="none" stroke="#000" stroke-linecap="round" stroke-linejoin="round" stroke-width="0.25"/>
          <path id="パス_1318" data-name="パス 1318" d="M508.634,119.1c.244-.094.442.028.442.272v3.388a.718.718,0,0,1-.442.612l-4.011,1.642v-4.272Z" fill="none" stroke="#000" stroke-linecap="round" stroke-linejoin="round" stroke-width="0.25"/>
          <path id="パス_1319" data-name="パス 1319" d="M508.659,117.522l-4.036,1.916v-2.347c.255-.06.528-.113.816-.155.121-.017.244-.033.367-.048.247-.029.5-.053.742-.072.123-.01.244-.018.363-.026.238-.015.468-.026.68-.034l.306-.01c.291-.008.536-.011.708-.012h.272a.958.958,0,0,0,.2.163v.009A.76.76,0,0,1,508.659,117.522Z" fill="none" stroke="#000" stroke-linecap="round" stroke-linejoin="round" stroke-width="0.25"/>
          <path id="パス_1320" data-name="パス 1320" d="M502.962,153.666l1.661.272v6.942l-1.661-.272a.649.649,0,0,1-.565-.629v-5.811A.5.5,0,0,1,502.962,153.666Z" fill="none" stroke="#000" stroke-linecap="round" stroke-linejoin="round" stroke-width="0.25"/>
          <path id="パス_1321" data-name="パス 1321" d="M502.937,145.685l1.686.545v6.408l-1.686-.545a.724.724,0,0,1-.54-.666V146.1A.415.415,0,0,1,502.937,145.685Z" fill="none" stroke="#000" stroke-linecap="round" stroke-linejoin="round" stroke-width="0.25"/>
          <path id="パス_1322" data-name="パス 1322" d="M502.913,138.238l1.71.818v5.874l-1.71-.818a.817.817,0,0,1-.516-.7v-4.843A.349.349,0,0,1,502.913,138.238Z" fill="none" stroke="#000" stroke-linecap="round" stroke-linejoin="round" stroke-width="0.25"/>
          <path id="パス_1323" data-name="パス 1323" d="M502.888,131.325l1.735,1.091v5.34l-1.735-1.091a.937.937,0,0,1-.491-.742v-4.358C502.4,131.294,502.617,131.186,502.888,131.325Z" fill="none" stroke="#000" stroke-linecap="round" stroke-linejoin="round" stroke-width="0.25"/>
          <path id="パス_1324" data-name="パス 1324" d="M502.863,124.947l1.76,1.363v4.806l-1.76-1.363a1.094,1.094,0,0,1-.466-.781V125.1C502.4,124.841,502.606,124.773,502.863,124.947Z" fill="none" stroke="#000" stroke-linecap="round" stroke-linejoin="round" stroke-width="0.25"/>
          <path id="パス_1325" data-name="パス 1325" d="M502.839,119.1l1.784,1.636v4.272l-1.784-1.636a1.284,1.284,0,0,1-.442-.819v-3.388C502.4,118.922,502.6,118.894,502.839,119.1Z" fill="none" stroke="#000" stroke-linecap="round" stroke-linejoin="round" stroke-width="0.25"/>
          <path id="パス_1326" data-name="パス 1326" d="M504.053,117.293a3.072,3.072,0,0,1,.371-.156c.063-.017.133-.031.2-.046v2.347l-1.5-1.578c.057-.041.111-.081.171-.121A6.548,6.548,0,0,1,504.053,117.293Z" fill="none" stroke="#000" stroke-linecap="round" stroke-linejoin="round" stroke-width="0.25"/>
        </g>
      </g>
      <path id="パス_1327" data-name="パス 1327" d="M535.078,121.429h0a5.545,5.545,0,0,0-.785-2.842s-.178-.158-.451-.373c-.183-.143-.407-.311-.649-.475a6.551,6.551,0,0,0-.755-.446,3.259,3.259,0,0,0-.371-.157,8.815,8.815,0,0,0-1.015-.2c-.121-.017-.244-.033-.367-.048-.247-.029-.5-.053-.742-.072-.123-.01-.244-.018-.363-.026-.238-.015-.468-.026-.68-.034l-.306-.01c-.291-.008-.536-.011-.708-.012h-.272a.781.781,0,0,1-1.345-.324h0v-.14l-4.453-.353v.272a.676.676,0,1,1-1.345,0v-.272h-4.453v.272h0a.676.676,0,1,1-1.345,0v-.272l-4.453.353v.14h0a.782.782,0,0,1-1.346.324s-.275,0-.7,0c-.257.005-.57.015-.911.032s-.711.041-1.083.077-.745.083-1.1.145c-.233.041-.455.088-.658.143a8.762,8.762,0,0,0-2.226,1.451,5.545,5.545,0,0,0-.785,2.842h0s-3.167,5.6-3.167,19.975v49.029c0,14.373,3.166,19.973,3.167,19.975h0a5.545,5.545,0,0,0,.785,2.842,8.741,8.741,0,0,0,2.226,1.45c.2.055.425.1.658.144.35.062.724.109,1.1.144s.742.061,1.083.078.654.027.911.032c.43.008.7,0,.7,0a.782.782,0,0,1,1.346.323h0v.141l4.453.352v-.271a.676.676,0,1,1,1.345,0h0v.271h4.453v-.271h0a.676.676,0,1,1,1.345,0v.271l4.453-.352v-.141a.781.781,0,0,1,1.345-.323h.272c.172,0,.417,0,.708-.012l.306-.01c.212-.008.442-.019.68-.035.119-.007.24-.016.363-.025.245-.019.495-.043.742-.072.123-.015.246-.031.367-.048a8.6,8.6,0,0,0,1.015-.2,3.246,3.246,0,0,0,.371-.156,6.553,6.553,0,0,0,.755-.446c.242-.164.466-.332.649-.475.273-.215.451-.373.451-.373a5.545,5.545,0,0,0,.785-2.842h0s3.166-5.6,3.166-19.975V141.4C538.244,127.031,535.079,121.43,535.078,121.429Z" fill="none" stroke="#000" stroke-linecap="round" stroke-linejoin="round" stroke-width="0.75"/>
    </g>
    <g id="tire-2" data-name="tire" transform="translate(-442.244 2858.082)">
      <g id="レイヤー_12のコピー_2-2" data-name="レイヤー 12のコピー 2">
        <path id="パス_1258-2" data-name="パス 1258" d="M516.018,115.918v100h4.453v-100Z" fill="none" stroke="#000" stroke-linecap="round" stroke-linejoin="round" stroke-width="0.25"/>
        <path id="パス_1259-2" data-name="パス 1259" d="M521.816,116.19a.676.676,0,1,1-1.345,0v99.457a.676.676,0,1,1,1.345,0V116.19Z" fill="none" stroke="#000" stroke-linecap="round" stroke-linejoin="round" stroke-width="0.25"/>
        <path id="パス_1260-2" data-name="パス 1260" d="M521.816,115.918v100l4.453-.352v-99.3Z" fill="none" stroke="#000" stroke-linecap="round" stroke-linejoin="round" stroke-width="0.25"/>
        <path id="パス_1261-2" data-name="パス 1261" d="M535.078,121.429v88.979s3.166-5.6,3.166-19.975V141.4C538.244,127.029,535.078,121.429,535.078,121.429Z" fill="none" stroke="#000" stroke-linecap="round" stroke-linejoin="round" stroke-width="0.25"/>
        <path id="パス_1262-2" data-name="パス 1262" d="M534.293,118.587a8.783,8.783,0,0,0-2.226-1.451,21.093,21.093,0,0,0-4.453-.4.781.781,0,0,1-1.345-.324v49.507h0v49.507a.781.781,0,0,1,1.345-.323,21.12,21.12,0,0,0,4.453-.4,8.761,8.761,0,0,0,2.226-1.45,5.545,5.545,0,0,0,.785-2.842v-44.49h0V121.429A5.545,5.545,0,0,0,534.293,118.587Z" fill="none" stroke="#000" stroke-linecap="round" stroke-linejoin="round" stroke-width="0.25"/>
        <path id="パス_1263-2" data-name="パス 1263" d="M514.672,116.19a.676.676,0,1,0,1.346,0v99.457a.676.676,0,1,0-1.346,0V116.19Z" fill="none" stroke="#000" stroke-linecap="round" stroke-linejoin="round" stroke-width="0.25"/>
        <path id="パス_1264-2" data-name="パス 1264" d="M514.673,115.918v100l-4.453-.352v-99.3Z" fill="none" stroke="#000" stroke-linecap="round" stroke-linejoin="round" stroke-width="0.25"/>
        <path id="パス_1265-2" data-name="パス 1265" d="M501.411,121.429v88.979s-3.167-5.6-3.167-19.975V141.4C498.244,127.029,501.411,121.429,501.411,121.429Z" fill="none" stroke="#000" stroke-linecap="round" stroke-linejoin="round" stroke-width="0.25"/>
        <path id="パス_1266-2" data-name="パス 1266" d="M502.2,118.587a8.762,8.762,0,0,1,2.226-1.451,21.085,21.085,0,0,1,4.452-.4.782.782,0,0,0,1.346-.324v49.507h0v49.507a.782.782,0,0,0-1.346-.323,21.112,21.112,0,0,1-4.452-.4,8.741,8.741,0,0,1-2.226-1.45,5.545,5.545,0,0,1-.785-2.842v-44.49h0V121.429A5.545,5.545,0,0,1,502.2,118.587Z" fill="none" stroke="#000" stroke-linecap="round" stroke-linejoin="round" stroke-width="0.25"/>
        <g id="グループ_619-2" data-name="グループ 619">
          <path id="パス_1267-2" data-name="パス 1267" d="M528.005,162.18a.59.59,0,0,0-.59.59v6.3a.59.59,0,0,0,.59.59h3.863V162.18Z" fill="none" stroke="#000" stroke-linecap="round" stroke-linejoin="round" stroke-width="0.25"/>
          <path id="パス_1268-2" data-name="パス 1268" d="M527.981,171.23a.6.6,0,0,0-.566.594v5.811a.533.533,0,0,0,.566.537l3.887-.274v-6.942Z" fill="none" stroke="#000" stroke-linecap="round" stroke-linejoin="round" stroke-width="0.25"/>
          <path id="パス_1269-2" data-name="パス 1269" d="M527.956,179.746a.614.614,0,0,0-.541.6v5.327a.478.478,0,0,0,.541.484l3.912-.547V179.2Z" fill="none" stroke="#000" stroke-linecap="round" stroke-linejoin="round" stroke-width="0.25"/>
          <path id="パス_1270-2" data-name="パス 1270" d="M527.931,187.728a.631.631,0,0,0-.516.6v4.843a.427.427,0,0,0,.516.431l3.937-.821v-5.874Z" fill="none" stroke="#000" stroke-linecap="round" stroke-linejoin="round" stroke-width="0.25"/>
          <path id="パス_1271-2" data-name="パス 1271" d="M527.906,195.175a.656.656,0,0,0-.491.6v4.357a.378.378,0,0,0,.491.378l3.962-1.094v-5.34Z" fill="none" stroke="#000" stroke-linecap="round" stroke-linejoin="round" stroke-width="0.25"/>
          <path id="パス_1272-2" data-name="パス 1272" d="M527.882,202.089a.682.682,0,0,0-.467.608v3.873a.334.334,0,0,0,.467.325l3.986-1.368v-4.806Z" fill="none" stroke="#000" stroke-linecap="round" stroke-linejoin="round" stroke-width="0.25"/>
          <path id="パス_1273-2" data-name="パス 1273" d="M527.857,208.469a.717.717,0,0,0-.442.611v3.389c0,.244.2.366.442.272l4.011-1.642v-4.272Z" fill="none" stroke="#000" stroke-linecap="round" stroke-linejoin="round" stroke-width="0.25"/>
          <path id="パス_1274-2" data-name="パス 1274" d="M527.739,215.1h.147c.172,0,.417,0,.708-.012l.306-.01c.212-.008.442-.02.68-.035.119-.007.24-.016.363-.025.245-.019.495-.043.742-.072.123-.015.246-.031.367-.048.288-.042.561-.1.816-.155V212.4l-4.036,1.915a.762.762,0,0,0-.417.616v.009a.959.959,0,0,1,.2.163Z" fill="none" stroke="#000" stroke-linecap="round" stroke-linejoin="round" stroke-width="0.25"/>
          <path id="パス_1275-2" data-name="パス 1275" d="M533.5,162.18h-1.636v7.476H533.5a.59.59,0,0,0,.59-.59v-6.3A.59.59,0,0,0,533.5,162.18Z" fill="none" stroke="#000" stroke-linecap="round" stroke-linejoin="round" stroke-width="0.25"/>
          <path id="パス_1276-2" data-name="パス 1276" d="M533.529,171.229l-1.661-.273V177.9l1.661.273a.5.5,0,0,0,.565-.5v-5.812A.648.648,0,0,0,533.529,171.229Z" fill="none" stroke="#000" stroke-linecap="round" stroke-linejoin="round" stroke-width="0.25"/>
          <path id="パス_1277-2" data-name="パス 1277" d="M533.554,179.744l-1.686-.546v6.409l1.686.545a.415.415,0,0,0,.54-.415V180.41A.723.723,0,0,0,533.554,179.744Z" fill="none" stroke="#000" stroke-linecap="round" stroke-linejoin="round" stroke-width="0.25"/>
          <path id="パス_1278-2" data-name="パス 1278" d="M533.578,187.725l-1.71-.818v5.874l1.71.818a.349.349,0,0,0,.516-.328v-4.842A.817.817,0,0,0,533.578,187.725Z" fill="none" stroke="#000" stroke-linecap="round" stroke-linejoin="round" stroke-width="0.25"/>
          <path id="パス_1279-2" data-name="パス 1279" d="M533.6,195.171l-1.735-1.09v5.34l1.735,1.09c.271.139.491.032.491-.239v-4.358A.94.94,0,0,0,533.6,195.171Z" fill="none" stroke="#000" stroke-linecap="round" stroke-linejoin="round" stroke-width="0.25"/>
          <path id="パス_1280-2" data-name="パス 1280" d="M533.628,202.084l-1.76-1.363v4.806l1.76,1.363c.257.174.466.106.466-.152v-3.873A1.092,1.092,0,0,0,533.628,202.084Z" fill="none" stroke="#000" stroke-linecap="round" stroke-linejoin="round" stroke-width="0.25"/>
          <path id="パス_1281-2" data-name="パス 1281" d="M531.868,206.827V211.1l1.784,1.636c.244.208.442.179.442-.065v-3.388a1.283,1.283,0,0,0-.442-.819Z" fill="none" stroke="#000" stroke-linecap="round" stroke-linejoin="round" stroke-width="0.25"/>
          <path id="パス_1282-2" data-name="パス 1282" d="M531.868,214.746c.066-.016.136-.029.2-.046a3.246,3.246,0,0,0,.371-.156,6.553,6.553,0,0,0,.755-.446l.171-.121-1.5-1.578Z" fill="none" stroke="#000" stroke-linecap="round" stroke-linejoin="round" stroke-width="0.25"/>
          <path id="パス_1283-2" data-name="パス 1283" d="M527.981,153.665a.532.532,0,0,0-.566.537v5.811a.6.6,0,0,0,.566.594l3.887.273v-6.942Z" fill="none" stroke="#000" stroke-linecap="round" stroke-linejoin="round" stroke-width="0.25"/>
          <path id="パス_1284-2" data-name="パス 1284" d="M527.956,145.683a.478.478,0,0,0-.541.484v5.327a.615.615,0,0,0,.541.6l3.912.547V146.23Z" fill="none" stroke="#000" stroke-linecap="round" stroke-linejoin="round" stroke-width="0.25"/>
          <path id="パス_1285-2" data-name="パス 1285" d="M527.931,138.235a.426.426,0,0,0-.516.431v4.842a.633.633,0,0,0,.516.6l3.937.821v-5.874Z" fill="none" stroke="#000" stroke-linecap="round" stroke-linejoin="round" stroke-width="0.25"/>
          <path id="パス_1286-2" data-name="パス 1286" d="M527.906,131.321a.379.379,0,0,0-.491.378v4.358a.654.654,0,0,0,.491.6l3.962,1.1v-5.34Z" fill="none" stroke="#000" stroke-linecap="round" stroke-linejoin="round" stroke-width="0.25"/>
          <path id="パス_1287-2" data-name="パス 1287" d="M527.882,124.942a.334.334,0,0,0-.467.325v3.873a.683.683,0,0,0,.467.608l3.986,1.368V126.31Z" fill="none" stroke="#000" stroke-linecap="round" stroke-linejoin="round" stroke-width="0.25"/>
          <path id="パス_1288-2" data-name="パス 1288" d="M527.857,119.1c-.244-.094-.442.028-.442.272v3.388a.718.718,0,0,0,.442.612l4.011,1.642v-4.272Z" fill="none" stroke="#000" stroke-linecap="round" stroke-linejoin="round" stroke-width="0.25"/>
          <path id="パス_1289-2" data-name="パス 1289" d="M527.832,117.522l4.036,1.916v-2.347c-.255-.06-.528-.113-.816-.155-.121-.017-.244-.033-.367-.048-.247-.029-.5-.053-.742-.072-.123-.01-.244-.018-.363-.026-.238-.015-.468-.026-.68-.034l-.306-.01c-.291-.008-.536-.011-.708-.012h-.272a.959.959,0,0,1-.2.163v.009A.761.761,0,0,0,527.832,117.522Z" fill="none" stroke="#000" stroke-linecap="round" stroke-linejoin="round" stroke-width="0.25"/>
          <path id="パス_1290-2" data-name="パス 1290" d="M533.529,153.666l-1.661.272v6.942l1.661-.272a.649.649,0,0,0,.565-.629v-5.811A.5.5,0,0,0,533.529,153.666Z" fill="none" stroke="#000" stroke-linecap="round" stroke-linejoin="round" stroke-width="0.25"/>
          <path id="パス_1291-2" data-name="パス 1291" d="M533.554,145.685l-1.686.545v6.408l1.686-.545a.724.724,0,0,0,.54-.666V146.1A.415.415,0,0,0,533.554,145.685Z" fill="none" stroke="#000" stroke-linecap="round" stroke-linejoin="round" stroke-width="0.25"/>
          <path id="パス_1292-2" data-name="パス 1292" d="M533.578,138.238l-1.71.818v5.874l1.71-.818a.817.817,0,0,0,.516-.7v-4.843A.349.349,0,0,0,533.578,138.238Z" fill="none" stroke="#000" stroke-linecap="round" stroke-linejoin="round" stroke-width="0.25"/>
          <path id="パス_1293-2" data-name="パス 1293" d="M533.6,131.325l-1.735,1.091v5.34l1.735-1.091a.937.937,0,0,0,.491-.742v-4.358C534.094,131.294,533.874,131.186,533.6,131.325Z" fill="none" stroke="#000" stroke-linecap="round" stroke-linejoin="round" stroke-width="0.25"/>
          <path id="パス_1294-2" data-name="パス 1294" d="M533.628,124.947l-1.76,1.363v4.806l1.76-1.363a1.094,1.094,0,0,0,.466-.781V125.1C534.094,124.841,533.885,124.773,533.628,124.947Z" fill="none" stroke="#000" stroke-linecap="round" stroke-linejoin="round" stroke-width="0.25"/>
          <path id="パス_1295-2" data-name="パス 1295" d="M533.652,119.1l-1.784,1.636v4.272l1.784-1.636a1.283,1.283,0,0,0,.442-.819v-3.388C534.094,118.922,533.9,118.894,533.652,119.1Z" fill="none" stroke="#000" stroke-linecap="round" stroke-linejoin="round" stroke-width="0.25"/>
          <path id="パス_1296-2" data-name="パス 1296" d="M532.438,117.293a3.076,3.076,0,0,0-.371-.156c-.063-.017-.133-.031-.2-.046v2.347l1.5-1.578c-.057-.041-.112-.081-.171-.121A6.551,6.551,0,0,0,532.438,117.293Z" fill="none" stroke="#000" stroke-linecap="round" stroke-linejoin="round" stroke-width="0.25"/>
        </g>
        <g id="グループ_620-2" data-name="グループ 620">
          <path id="パス_1297-2" data-name="パス 1297" d="M508.486,162.18a.59.59,0,0,1,.59.59v6.3a.59.59,0,0,1-.59.59h-3.863V162.18Z" fill="none" stroke="#000" stroke-linecap="round" stroke-linejoin="round" stroke-width="0.25"/>
          <path id="パス_1298-2" data-name="パス 1298" d="M508.51,171.23a.6.6,0,0,1,.566.594v5.811a.533.533,0,0,1-.566.537l-3.887-.274v-6.942Z" fill="none" stroke="#000" stroke-linecap="round" stroke-linejoin="round" stroke-width="0.25"/>
          <path id="パス_1299-2" data-name="パス 1299" d="M508.535,179.746a.614.614,0,0,1,.541.6v5.327a.478.478,0,0,1-.541.484l-3.912-.547V179.2Z" fill="none" stroke="#000" stroke-linecap="round" stroke-linejoin="round" stroke-width="0.25"/>
          <path id="パス_1300-2" data-name="パス 1300" d="M508.56,187.728a.631.631,0,0,1,.516.6v4.843a.427.427,0,0,1-.516.431l-3.937-.821v-5.874Z" fill="none" stroke="#000" stroke-linecap="round" stroke-linejoin="round" stroke-width="0.25"/>
          <path id="パス_1301-2" data-name="パス 1301" d="M508.584,195.175a.655.655,0,0,1,.492.6v4.357a.378.378,0,0,1-.492.378l-3.961-1.094v-5.34Z" fill="none" stroke="#000" stroke-linecap="round" stroke-linejoin="round" stroke-width="0.25"/>
          <path id="パス_1302-2" data-name="パス 1302" d="M508.609,202.089a.682.682,0,0,1,.467.608v3.873a.334.334,0,0,1-.467.325l-3.986-1.368v-4.806Z" fill="none" stroke="#000" stroke-linecap="round" stroke-linejoin="round" stroke-width="0.25"/>
          <path id="パス_1303-2" data-name="パス 1303" d="M508.634,208.469a.717.717,0,0,1,.442.611v3.389c0,.244-.2.366-.442.272l-4.011-1.642v-4.272Z" fill="none" stroke="#000" stroke-linecap="round" stroke-linejoin="round" stroke-width="0.25"/>
          <path id="パス_1304-2" data-name="パス 1304" d="M508.752,215.1h-.147c-.172,0-.417,0-.708-.012l-.306-.01c-.212-.008-.442-.02-.68-.035-.119-.007-.24-.016-.363-.025-.245-.019-.495-.043-.742-.072-.123-.015-.246-.031-.367-.048-.288-.042-.561-.1-.816-.155V212.4l4.036,1.915a.762.762,0,0,1,.417.616v.009a.958.958,0,0,0-.2.163Z" fill="none" stroke="#000" stroke-linecap="round" stroke-linejoin="round" stroke-width="0.25"/>
          <path id="パス_1305-2" data-name="パス 1305" d="M502.987,162.18h1.636v7.476h-1.636a.59.59,0,0,1-.59-.59v-6.3A.59.59,0,0,1,502.987,162.18Z" fill="none" stroke="#000" stroke-linecap="round" stroke-linejoin="round" stroke-width="0.25"/>
          <path id="パス_1306-2" data-name="パス 1306" d="M502.962,171.229l1.661-.273V177.9l-1.661.273a.5.5,0,0,1-.565-.5v-5.812A.648.648,0,0,1,502.962,171.229Z" fill="none" stroke="#000" stroke-linecap="round" stroke-linejoin="round" stroke-width="0.25"/>
          <path id="パス_1307-2" data-name="パス 1307" d="M502.937,179.744l1.686-.546v6.409l-1.686.545a.415.415,0,0,1-.54-.415V180.41A.723.723,0,0,1,502.937,179.744Z" fill="none" stroke="#000" stroke-linecap="round" stroke-linejoin="round" stroke-width="0.25"/>
          <path id="パス_1308-2" data-name="パス 1308" d="M502.913,187.725l1.71-.818v5.874l-1.71.818a.349.349,0,0,1-.516-.328v-4.842A.817.817,0,0,1,502.913,187.725Z" fill="none" stroke="#000" stroke-linecap="round" stroke-linejoin="round" stroke-width="0.25"/>
          <path id="パス_1309-2" data-name="パス 1309" d="M502.888,195.171l1.735-1.09v5.34l-1.735,1.09c-.271.139-.491.032-.491-.239v-4.358A.94.94,0,0,1,502.888,195.171Z" fill="none" stroke="#000" stroke-linecap="round" stroke-linejoin="round" stroke-width="0.25"/>
          <path id="パス_1310-2" data-name="パス 1310" d="M502.863,202.084l1.76-1.363v4.806l-1.76,1.363c-.257.174-.466.106-.466-.152v-3.873A1.092,1.092,0,0,1,502.863,202.084Z" fill="none" stroke="#000" stroke-linecap="round" stroke-linejoin="round" stroke-width="0.25"/>
          <path id="パス_1311-2" data-name="パス 1311" d="M504.623,206.827V211.1l-1.784,1.636c-.244.208-.442.179-.442-.065v-3.388a1.284,1.284,0,0,1,.442-.819Z" fill="none" stroke="#000" stroke-linecap="round" stroke-linejoin="round" stroke-width="0.25"/>
          <path id="パス_1312-2" data-name="パス 1312" d="M504.623,214.746c-.066-.016-.136-.029-.2-.046a3.242,3.242,0,0,1-.371-.156,6.55,6.55,0,0,1-.755-.446c-.06-.041-.114-.081-.171-.121l1.5-1.578Z" fill="none" stroke="#000" stroke-linecap="round" stroke-linejoin="round" stroke-width="0.25"/>
          <path id="パス_1313-2" data-name="パス 1313" d="M508.51,153.665a.532.532,0,0,1,.566.537v5.811a.6.6,0,0,1-.566.594l-3.887.273v-6.942Z" fill="none" stroke="#000" stroke-linecap="round" stroke-linejoin="round" stroke-width="0.25"/>
          <path id="パス_1314-2" data-name="パス 1314" d="M508.535,145.683a.478.478,0,0,1,.541.484v5.327a.615.615,0,0,1-.541.6l-3.912.547V146.23Z" fill="none" stroke="#000" stroke-linecap="round" stroke-linejoin="round" stroke-width="0.25"/>
          <path id="パス_1315-2" data-name="パス 1315" d="M508.56,138.235a.426.426,0,0,1,.516.431v4.842a.633.633,0,0,1-.516.6l-3.937.821v-5.874Z" fill="none" stroke="#000" stroke-linecap="round" stroke-linejoin="round" stroke-width="0.25"/>
          <path id="パス_1316-2" data-name="パス 1316" d="M508.584,131.321a.379.379,0,0,1,.492.378v4.358a.654.654,0,0,1-.492.6l-3.961,1.1v-5.34Z" fill="none" stroke="#000" stroke-linecap="round" stroke-linejoin="round" stroke-width="0.25"/>
          <path id="パス_1317-2" data-name="パス 1317" d="M508.609,124.942a.334.334,0,0,1,.467.325v3.873a.683.683,0,0,1-.467.608l-3.986,1.368V126.31Z" fill="none" stroke="#000" stroke-linecap="round" stroke-linejoin="round" stroke-width="0.25"/>
          <path id="パス_1318-2" data-name="パス 1318" d="M508.634,119.1c.244-.094.442.028.442.272v3.388a.718.718,0,0,1-.442.612l-4.011,1.642v-4.272Z" fill="none" stroke="#000" stroke-linecap="round" stroke-linejoin="round" stroke-width="0.25"/>
          <path id="パス_1319-2" data-name="パス 1319" d="M508.659,117.522l-4.036,1.916v-2.347c.255-.06.528-.113.816-.155.121-.017.244-.033.367-.048.247-.029.5-.053.742-.072.123-.01.244-.018.363-.026.238-.015.468-.026.68-.034l.306-.01c.291-.008.536-.011.708-.012h.272a.958.958,0,0,0,.2.163v.009A.76.76,0,0,1,508.659,117.522Z" fill="none" stroke="#000" stroke-linecap="round" stroke-linejoin="round" stroke-width="0.25"/>
          <path id="パス_1320-2" data-name="パス 1320" d="M502.962,153.666l1.661.272v6.942l-1.661-.272a.649.649,0,0,1-.565-.629v-5.811A.5.5,0,0,1,502.962,153.666Z" fill="none" stroke="#000" stroke-linecap="round" stroke-linejoin="round" stroke-width="0.25"/>
          <path id="パス_1321-2" data-name="パス 1321" d="M502.937,145.685l1.686.545v6.408l-1.686-.545a.724.724,0,0,1-.54-.666V146.1A.415.415,0,0,1,502.937,145.685Z" fill="none" stroke="#000" stroke-linecap="round" stroke-linejoin="round" stroke-width="0.25"/>
          <path id="パス_1322-2" data-name="パス 1322" d="M502.913,138.238l1.71.818v5.874l-1.71-.818a.817.817,0,0,1-.516-.7v-4.843A.349.349,0,0,1,502.913,138.238Z" fill="none" stroke="#000" stroke-linecap="round" stroke-linejoin="round" stroke-width="0.25"/>
          <path id="パス_1323-2" data-name="パス 1323" d="M502.888,131.325l1.735,1.091v5.34l-1.735-1.091a.937.937,0,0,1-.491-.742v-4.358C502.4,131.294,502.617,131.186,502.888,131.325Z" fill="none" stroke="#000" stroke-linecap="round" stroke-linejoin="round" stroke-width="0.25"/>
          <path id="パス_1324-2" data-name="パス 1324" d="M502.863,124.947l1.76,1.363v4.806l-1.76-1.363a1.094,1.094,0,0,1-.466-.781V125.1C502.4,124.841,502.606,124.773,502.863,124.947Z" fill="none" stroke="#000" stroke-linecap="round" stroke-linejoin="round" stroke-width="0.25"/>
          <path id="パス_1325-2" data-name="パス 1325" d="M502.839,119.1l1.784,1.636v4.272l-1.784-1.636a1.284,1.284,0,0,1-.442-.819v-3.388C502.4,118.922,502.6,118.894,502.839,119.1Z" fill="none" stroke="#000" stroke-linecap="round" stroke-linejoin="round" stroke-width="0.25"/>
          <path id="パス_1326-2" data-name="パス 1326" d="M504.053,117.293a3.072,3.072,0,0,1,.371-.156c.063-.017.133-.031.2-.046v2.347l-1.5-1.578c.057-.041.111-.081.171-.121A6.548,6.548,0,0,1,504.053,117.293Z" fill="none" stroke="#000" stroke-linecap="round" stroke-linejoin="round" stroke-width="0.25"/>
        </g>
      </g>
      <path id="パス_1327-2" data-name="パス 1327" d="M535.078,121.429h0a5.545,5.545,0,0,0-.785-2.842s-.178-.158-.451-.373c-.183-.143-.407-.311-.649-.475a6.551,6.551,0,0,0-.755-.446,3.259,3.259,0,0,0-.371-.157,8.815,8.815,0,0,0-1.015-.2c-.121-.017-.244-.033-.367-.048-.247-.029-.5-.053-.742-.072-.123-.01-.244-.018-.363-.026-.238-.015-.468-.026-.68-.034l-.306-.01c-.291-.008-.536-.011-.708-.012h-.272a.781.781,0,0,1-1.345-.324h0v-.14l-4.453-.353v.272a.676.676,0,1,1-1.345,0v-.272h-4.453v.272h0a.676.676,0,1,1-1.345,0v-.272l-4.453.353v.14h0a.782.782,0,0,1-1.346.324s-.275,0-.7,0c-.257.005-.57.015-.911.032s-.711.041-1.083.077-.745.083-1.1.145c-.233.041-.455.088-.658.143a8.762,8.762,0,0,0-2.226,1.451,5.545,5.545,0,0,0-.785,2.842h0s-3.167,5.6-3.167,19.975v49.029c0,14.373,3.166,19.973,3.167,19.975h0a5.545,5.545,0,0,0,.785,2.842,8.741,8.741,0,0,0,2.226,1.45c.2.055.425.1.658.144.35.062.724.109,1.1.144s.742.061,1.083.078.654.027.911.032c.43.008.7,0,.7,0a.782.782,0,0,1,1.346.323h0v.141l4.453.352v-.271a.676.676,0,1,1,1.345,0h0v.271h4.453v-.271h0a.676.676,0,1,1,1.345,0v.271l4.453-.352v-.141a.781.781,0,0,1,1.345-.323h.272c.172,0,.417,0,.708-.012l.306-.01c.212-.008.442-.019.68-.035.119-.007.24-.016.363-.025.245-.019.495-.043.742-.072.123-.015.246-.031.367-.048a8.6,8.6,0,0,0,1.015-.2,3.246,3.246,0,0,0,.371-.156,6.553,6.553,0,0,0,.755-.446c.242-.164.466-.332.649-.475.273-.215.451-.373.451-.373a5.545,5.545,0,0,0,.785-2.842h0s3.166-5.6,3.166-19.975V141.4C538.244,127.031,535.079,121.43,535.078,121.429Z" fill="none" stroke="#000" stroke-linecap="round" stroke-linejoin="round" stroke-width="0.75"/>
    </g>
    <g id="tire-3" data-name="tire" transform="translate(-224.244 2640.082)">
      <g id="レイヤー_12のコピー_2-3" data-name="レイヤー 12のコピー 2">
        <path id="パス_1258-3" data-name="パス 1258" d="M516.018,115.918v100h4.453v-100Z" fill="none" stroke="#000" stroke-linecap="round" stroke-linejoin="round" stroke-width="0.25"/>
        <path id="パス_1259-3" data-name="パス 1259" d="M521.816,116.19a.676.676,0,1,1-1.345,0v99.457a.676.676,0,1,1,1.345,0V116.19Z" fill="none" stroke="#000" stroke-linecap="round" stroke-linejoin="round" stroke-width="0.25"/>
        <path id="パス_1260-3" data-name="パス 1260" d="M521.816,115.918v100l4.453-.352v-99.3Z" fill="none" stroke="#000" stroke-linecap="round" stroke-linejoin="round" stroke-width="0.25"/>
        <path id="パス_1261-3" data-name="パス 1261" d="M535.078,121.429v88.979s3.166-5.6,3.166-19.975V141.4C538.244,127.029,535.078,121.429,535.078,121.429Z" fill="none" stroke="#000" stroke-linecap="round" stroke-linejoin="round" stroke-width="0.25"/>
        <path id="パス_1262-3" data-name="パス 1262" d="M534.293,118.587a8.783,8.783,0,0,0-2.226-1.451,21.093,21.093,0,0,0-4.453-.4.781.781,0,0,1-1.345-.324v49.507h0v49.507a.781.781,0,0,1,1.345-.323,21.12,21.12,0,0,0,4.453-.4,8.761,8.761,0,0,0,2.226-1.45,5.545,5.545,0,0,0,.785-2.842v-44.49h0V121.429A5.545,5.545,0,0,0,534.293,118.587Z" fill="none" stroke="#000" stroke-linecap="round" stroke-linejoin="round" stroke-width="0.25"/>
        <path id="パス_1263-3" data-name="パス 1263" d="M514.672,116.19a.676.676,0,1,0,1.346,0v99.457a.676.676,0,1,0-1.346,0V116.19Z" fill="none" stroke="#000" stroke-linecap="round" stroke-linejoin="round" stroke-width="0.25"/>
        <path id="パス_1264-3" data-name="パス 1264" d="M514.673,115.918v100l-4.453-.352v-99.3Z" fill="none" stroke="#000" stroke-linecap="round" stroke-linejoin="round" stroke-width="0.25"/>
        <path id="パス_1265-3" data-name="パス 1265" d="M501.411,121.429v88.979s-3.167-5.6-3.167-19.975V141.4C498.244,127.029,501.411,121.429,501.411,121.429Z" fill="none" stroke="#000" stroke-linecap="round" stroke-linejoin="round" stroke-width="0.25"/>
        <path id="パス_1266-3" data-name="パス 1266" d="M502.2,118.587a8.762,8.762,0,0,1,2.226-1.451,21.085,21.085,0,0,1,4.452-.4.782.782,0,0,0,1.346-.324v49.507h0v49.507a.782.782,0,0,0-1.346-.323,21.112,21.112,0,0,1-4.452-.4,8.741,8.741,0,0,1-2.226-1.45,5.545,5.545,0,0,1-.785-2.842v-44.49h0V121.429A5.545,5.545,0,0,1,502.2,118.587Z" fill="none" stroke="#000" stroke-linecap="round" stroke-linejoin="round" stroke-width="0.25"/>
        <g id="グループ_619-3" data-name="グループ 619">
          <path id="パス_1267-3" data-name="パス 1267" d="M528.005,162.18a.59.59,0,0,0-.59.59v6.3a.59.59,0,0,0,.59.59h3.863V162.18Z" fill="none" stroke="#000" stroke-linecap="round" stroke-linejoin="round" stroke-width="0.25"/>
          <path id="パス_1268-3" data-name="パス 1268" d="M527.981,171.23a.6.6,0,0,0-.566.594v5.811a.533.533,0,0,0,.566.537l3.887-.274v-6.942Z" fill="none" stroke="#000" stroke-linecap="round" stroke-linejoin="round" stroke-width="0.25"/>
          <path id="パス_1269-3" data-name="パス 1269" d="M527.956,179.746a.614.614,0,0,0-.541.6v5.327a.478.478,0,0,0,.541.484l3.912-.547V179.2Z" fill="none" stroke="#000" stroke-linecap="round" stroke-linejoin="round" stroke-width="0.25"/>
          <path id="パス_1270-3" data-name="パス 1270" d="M527.931,187.728a.631.631,0,0,0-.516.6v4.843a.427.427,0,0,0,.516.431l3.937-.821v-5.874Z" fill="none" stroke="#000" stroke-linecap="round" stroke-linejoin="round" stroke-width="0.25"/>
          <path id="パス_1271-3" data-name="パス 1271" d="M527.906,195.175a.656.656,0,0,0-.491.6v4.357a.378.378,0,0,0,.491.378l3.962-1.094v-5.34Z" fill="none" stroke="#000" stroke-linecap="round" stroke-linejoin="round" stroke-width="0.25"/>
          <path id="パス_1272-3" data-name="パス 1272" d="M527.882,202.089a.682.682,0,0,0-.467.608v3.873a.334.334,0,0,0,.467.325l3.986-1.368v-4.806Z" fill="none" stroke="#000" stroke-linecap="round" stroke-linejoin="round" stroke-width="0.25"/>
          <path id="パス_1273-3" data-name="パス 1273" d="M527.857,208.469a.717.717,0,0,0-.442.611v3.389c0,.244.2.366.442.272l4.011-1.642v-4.272Z" fill="none" stroke="#000" stroke-linecap="round" stroke-linejoin="round" stroke-width="0.25"/>
          <path id="パス_1274-3" data-name="パス 1274" d="M527.739,215.1h.147c.172,0,.417,0,.708-.012l.306-.01c.212-.008.442-.02.68-.035.119-.007.24-.016.363-.025.245-.019.495-.043.742-.072.123-.015.246-.031.367-.048.288-.042.561-.1.816-.155V212.4l-4.036,1.915a.762.762,0,0,0-.417.616v.009a.959.959,0,0,1,.2.163Z" fill="none" stroke="#000" stroke-linecap="round" stroke-linejoin="round" stroke-width="0.25"/>
          <path id="パス_1275-3" data-name="パス 1275" d="M533.5,162.18h-1.636v7.476H533.5a.59.59,0,0,0,.59-.59v-6.3A.59.59,0,0,0,533.5,162.18Z" fill="none" stroke="#000" stroke-linecap="round" stroke-linejoin="round" stroke-width="0.25"/>
          <path id="パス_1276-3" data-name="パス 1276" d="M533.529,171.229l-1.661-.273V177.9l1.661.273a.5.5,0,0,0,.565-.5v-5.812A.648.648,0,0,0,533.529,171.229Z" fill="none" stroke="#000" stroke-linecap="round" stroke-linejoin="round" stroke-width="0.25"/>
          <path id="パス_1277-3" data-name="パス 1277" d="M533.554,179.744l-1.686-.546v6.409l1.686.545a.415.415,0,0,0,.54-.415V180.41A.723.723,0,0,0,533.554,179.744Z" fill="none" stroke="#000" stroke-linecap="round" stroke-linejoin="round" stroke-width="0.25"/>
          <path id="パス_1278-3" data-name="パス 1278" d="M533.578,187.725l-1.71-.818v5.874l1.71.818a.349.349,0,0,0,.516-.328v-4.842A.817.817,0,0,0,533.578,187.725Z" fill="none" stroke="#000" stroke-linecap="round" stroke-linejoin="round" stroke-width="0.25"/>
          <path id="パス_1279-3" data-name="パス 1279" d="M533.6,195.171l-1.735-1.09v5.34l1.735,1.09c.271.139.491.032.491-.239v-4.358A.94.94,0,0,0,533.6,195.171Z" fill="none" stroke="#000" stroke-linecap="round" stroke-linejoin="round" stroke-width="0.25"/>
          <path id="パス_1280-3" data-name="パス 1280" d="M533.628,202.084l-1.76-1.363v4.806l1.76,1.363c.257.174.466.106.466-.152v-3.873A1.092,1.092,0,0,0,533.628,202.084Z" fill="none" stroke="#000" stroke-linecap="round" stroke-linejoin="round" stroke-width="0.25"/>
          <path id="パス_1281-3" data-name="パス 1281" d="M531.868,206.827V211.1l1.784,1.636c.244.208.442.179.442-.065v-3.388a1.283,1.283,0,0,0-.442-.819Z" fill="none" stroke="#000" stroke-linecap="round" stroke-linejoin="round" stroke-width="0.25"/>
          <path id="パス_1282-3" data-name="パス 1282" d="M531.868,214.746c.066-.016.136-.029.2-.046a3.246,3.246,0,0,0,.371-.156,6.553,6.553,0,0,0,.755-.446l.171-.121-1.5-1.578Z" fill="none" stroke="#000" stroke-linecap="round" stroke-linejoin="round" stroke-width="0.25"/>
          <path id="パス_1283-3" data-name="パス 1283" d="M527.981,153.665a.532.532,0,0,0-.566.537v5.811a.6.6,0,0,0,.566.594l3.887.273v-6.942Z" fill="none" stroke="#000" stroke-linecap="round" stroke-linejoin="round" stroke-width="0.25"/>
          <path id="パス_1284-3" data-name="パス 1284" d="M527.956,145.683a.478.478,0,0,0-.541.484v5.327a.615.615,0,0,0,.541.6l3.912.547V146.23Z" fill="none" stroke="#000" stroke-linecap="round" stroke-linejoin="round" stroke-width="0.25"/>
          <path id="パス_1285-3" data-name="パス 1285" d="M527.931,138.235a.426.426,0,0,0-.516.431v4.842a.633.633,0,0,0,.516.6l3.937.821v-5.874Z" fill="none" stroke="#000" stroke-linecap="round" stroke-linejoin="round" stroke-width="0.25"/>
          <path id="パス_1286-3" data-name="パス 1286" d="M527.906,131.321a.379.379,0,0,0-.491.378v4.358a.654.654,0,0,0,.491.6l3.962,1.1v-5.34Z" fill="none" stroke="#000" stroke-linecap="round" stroke-linejoin="round" stroke-width="0.25"/>
          <path id="パス_1287-3" data-name="パス 1287" d="M527.882,124.942a.334.334,0,0,0-.467.325v3.873a.683.683,0,0,0,.467.608l3.986,1.368V126.31Z" fill="none" stroke="#000" stroke-linecap="round" stroke-linejoin="round" stroke-width="0.25"/>
          <path id="パス_1288-3" data-name="パス 1288" d="M527.857,119.1c-.244-.094-.442.028-.442.272v3.388a.718.718,0,0,0,.442.612l4.011,1.642v-4.272Z" fill="none" stroke="#000" stroke-linecap="round" stroke-linejoin="round" stroke-width="0.25"/>
          <path id="パス_1289-3" data-name="パス 1289" d="M527.832,117.522l4.036,1.916v-2.347c-.255-.06-.528-.113-.816-.155-.121-.017-.244-.033-.367-.048-.247-.029-.5-.053-.742-.072-.123-.01-.244-.018-.363-.026-.238-.015-.468-.026-.68-.034l-.306-.01c-.291-.008-.536-.011-.708-.012h-.272a.959.959,0,0,1-.2.163v.009A.761.761,0,0,0,527.832,117.522Z" fill="none" stroke="#000" stroke-linecap="round" stroke-linejoin="round" stroke-width="0.25"/>
          <path id="パス_1290-3" data-name="パス 1290" d="M533.529,153.666l-1.661.272v6.942l1.661-.272a.649.649,0,0,0,.565-.629v-5.811A.5.5,0,0,0,533.529,153.666Z" fill="none" stroke="#000" stroke-linecap="round" stroke-linejoin="round" stroke-width="0.25"/>
          <path id="パス_1291-3" data-name="パス 1291" d="M533.554,145.685l-1.686.545v6.408l1.686-.545a.724.724,0,0,0,.54-.666V146.1A.415.415,0,0,0,533.554,145.685Z" fill="none" stroke="#000" stroke-linecap="round" stroke-linejoin="round" stroke-width="0.25"/>
          <path id="パス_1292-3" data-name="パス 1292" d="M533.578,138.238l-1.71.818v5.874l1.71-.818a.817.817,0,0,0,.516-.7v-4.843A.349.349,0,0,0,533.578,138.238Z" fill="none" stroke="#000" stroke-linecap="round" stroke-linejoin="round" stroke-width="0.25"/>
          <path id="パス_1293-3" data-name="パス 1293" d="M533.6,131.325l-1.735,1.091v5.34l1.735-1.091a.937.937,0,0,0,.491-.742v-4.358C534.094,131.294,533.874,131.186,533.6,131.325Z" fill="none" stroke="#000" stroke-linecap="round" stroke-linejoin="round" stroke-width="0.25"/>
          <path id="パス_1294-3" data-name="パス 1294" d="M533.628,124.947l-1.76,1.363v4.806l1.76-1.363a1.094,1.094,0,0,0,.466-.781V125.1C534.094,124.841,533.885,124.773,533.628,124.947Z" fill="none" stroke="#000" stroke-linecap="round" stroke-linejoin="round" stroke-width="0.25"/>
          <path id="パス_1295-3" data-name="パス 1295" d="M533.652,119.1l-1.784,1.636v4.272l1.784-1.636a1.283,1.283,0,0,0,.442-.819v-3.388C534.094,118.922,533.9,118.894,533.652,119.1Z" fill="none" stroke="#000" stroke-linecap="round" stroke-linejoin="round" stroke-width="0.25"/>
          <path id="パス_1296-3" data-name="パス 1296" d="M532.438,117.293a3.076,3.076,0,0,0-.371-.156c-.063-.017-.133-.031-.2-.046v2.347l1.5-1.578c-.057-.041-.112-.081-.171-.121A6.551,6.551,0,0,0,532.438,117.293Z" fill="none" stroke="#000" stroke-linecap="round" stroke-linejoin="round" stroke-width="0.25"/>
        </g>
        <g id="グループ_620-3" data-name="グループ 620">
          <path id="パス_1297-3" data-name="パス 1297" d="M508.486,162.18a.59.59,0,0,1,.59.59v6.3a.59.59,0,0,1-.59.59h-3.863V162.18Z" fill="none" stroke="#000" stroke-linecap="round" stroke-linejoin="round" stroke-width="0.25"/>
          <path id="パス_1298-3" data-name="パス 1298" d="M508.51,171.23a.6.6,0,0,1,.566.594v5.811a.533.533,0,0,1-.566.537l-3.887-.274v-6.942Z" fill="none" stroke="#000" stroke-linecap="round" stroke-linejoin="round" stroke-width="0.25"/>
          <path id="パス_1299-3" data-name="パス 1299" d="M508.535,179.746a.614.614,0,0,1,.541.6v5.327a.478.478,0,0,1-.541.484l-3.912-.547V179.2Z" fill="none" stroke="#000" stroke-linecap="round" stroke-linejoin="round" stroke-width="0.25"/>
          <path id="パス_1300-3" data-name="パス 1300" d="M508.56,187.728a.631.631,0,0,1,.516.6v4.843a.427.427,0,0,1-.516.431l-3.937-.821v-5.874Z" fill="none" stroke="#000" stroke-linecap="round" stroke-linejoin="round" stroke-width="0.25"/>
          <path id="パス_1301-3" data-name="パス 1301" d="M508.584,195.175a.655.655,0,0,1,.492.6v4.357a.378.378,0,0,1-.492.378l-3.961-1.094v-5.34Z" fill="none" stroke="#000" stroke-linecap="round" stroke-linejoin="round" stroke-width="0.25"/>
          <path id="パス_1302-3" data-name="パス 1302" d="M508.609,202.089a.682.682,0,0,1,.467.608v3.873a.334.334,0,0,1-.467.325l-3.986-1.368v-4.806Z" fill="none" stroke="#000" stroke-linecap="round" stroke-linejoin="round" stroke-width="0.25"/>
          <path id="パス_1303-3" data-name="パス 1303" d="M508.634,208.469a.717.717,0,0,1,.442.611v3.389c0,.244-.2.366-.442.272l-4.011-1.642v-4.272Z" fill="none" stroke="#000" stroke-linecap="round" stroke-linejoin="round" stroke-width="0.25"/>
          <path id="パス_1304-3" data-name="パス 1304" d="M508.752,215.1h-.147c-.172,0-.417,0-.708-.012l-.306-.01c-.212-.008-.442-.02-.68-.035-.119-.007-.24-.016-.363-.025-.245-.019-.495-.043-.742-.072-.123-.015-.246-.031-.367-.048-.288-.042-.561-.1-.816-.155V212.4l4.036,1.915a.762.762,0,0,1,.417.616v.009a.958.958,0,0,0-.2.163Z" fill="none" stroke="#000" stroke-linecap="round" stroke-linejoin="round" stroke-width="0.25"/>
          <path id="パス_1305-3" data-name="パス 1305" d="M502.987,162.18h1.636v7.476h-1.636a.59.59,0,0,1-.59-.59v-6.3A.59.59,0,0,1,502.987,162.18Z" fill="none" stroke="#000" stroke-linecap="round" stroke-linejoin="round" stroke-width="0.25"/>
          <path id="パス_1306-3" data-name="パス 1306" d="M502.962,171.229l1.661-.273V177.9l-1.661.273a.5.5,0,0,1-.565-.5v-5.812A.648.648,0,0,1,502.962,171.229Z" fill="none" stroke="#000" stroke-linecap="round" stroke-linejoin="round" stroke-width="0.25"/>
          <path id="パス_1307-3" data-name="パス 1307" d="M502.937,179.744l1.686-.546v6.409l-1.686.545a.415.415,0,0,1-.54-.415V180.41A.723.723,0,0,1,502.937,179.744Z" fill="none" stroke="#000" stroke-linecap="round" stroke-linejoin="round" stroke-width="0.25"/>
          <path id="パス_1308-3" data-name="パス 1308" d="M502.913,187.725l1.71-.818v5.874l-1.71.818a.349.349,0,0,1-.516-.328v-4.842A.817.817,0,0,1,502.913,187.725Z" fill="none" stroke="#000" stroke-linecap="round" stroke-linejoin="round" stroke-width="0.25"/>
          <path id="パス_1309-3" data-name="パス 1309" d="M502.888,195.171l1.735-1.09v5.34l-1.735,1.09c-.271.139-.491.032-.491-.239v-4.358A.94.94,0,0,1,502.888,195.171Z" fill="none" stroke="#000" stroke-linecap="round" stroke-linejoin="round" stroke-width="0.25"/>
          <path id="パス_1310-3" data-name="パス 1310" d="M502.863,202.084l1.76-1.363v4.806l-1.76,1.363c-.257.174-.466.106-.466-.152v-3.873A1.092,1.092,0,0,1,502.863,202.084Z" fill="none" stroke="#000" stroke-linecap="round" stroke-linejoin="round" stroke-width="0.25"/>
          <path id="パス_1311-3" data-name="パス 1311" d="M504.623,206.827V211.1l-1.784,1.636c-.244.208-.442.179-.442-.065v-3.388a1.284,1.284,0,0,1,.442-.819Z" fill="none" stroke="#000" stroke-linecap="round" stroke-linejoin="round" stroke-width="0.25"/>
          <path id="パス_1312-3" data-name="パス 1312" d="M504.623,214.746c-.066-.016-.136-.029-.2-.046a3.242,3.242,0,0,1-.371-.156,6.55,6.55,0,0,1-.755-.446c-.06-.041-.114-.081-.171-.121l1.5-1.578Z" fill="none" stroke="#000" stroke-linecap="round" stroke-linejoin="round" stroke-width="0.25"/>
          <path id="パス_1313-3" data-name="パス 1313" d="M508.51,153.665a.532.532,0,0,1,.566.537v5.811a.6.6,0,0,1-.566.594l-3.887.273v-6.942Z" fill="none" stroke="#000" stroke-linecap="round" stroke-linejoin="round" stroke-width="0.25"/>
          <path id="パス_1314-3" data-name="パス 1314" d="M508.535,145.683a.478.478,0,0,1,.541.484v5.327a.615.615,0,0,1-.541.6l-3.912.547V146.23Z" fill="none" stroke="#000" stroke-linecap="round" stroke-linejoin="round" stroke-width="0.25"/>
          <path id="パス_1315-3" data-name="パス 1315" d="M508.56,138.235a.426.426,0,0,1,.516.431v4.842a.633.633,0,0,1-.516.6l-3.937.821v-5.874Z" fill="none" stroke="#000" stroke-linecap="round" stroke-linejoin="round" stroke-width="0.25"/>
          <path id="パス_1316-3" data-name="パス 1316" d="M508.584,131.321a.379.379,0,0,1,.492.378v4.358a.654.654,0,0,1-.492.6l-3.961,1.1v-5.34Z" fill="none" stroke="#000" stroke-linecap="round" stroke-linejoin="round" stroke-width="0.25"/>
          <path id="パス_1317-3" data-name="パス 1317" d="M508.609,124.942a.334.334,0,0,1,.467.325v3.873a.683.683,0,0,1-.467.608l-3.986,1.368V126.31Z" fill="none" stroke="#000" stroke-linecap="round" stroke-linejoin="round" stroke-width="0.25"/>
          <path id="パス_1318-3" data-name="パス 1318" d="M508.634,119.1c.244-.094.442.028.442.272v3.388a.718.718,0,0,1-.442.612l-4.011,1.642v-4.272Z" fill="none" stroke="#000" stroke-linecap="round" stroke-linejoin="round" stroke-width="0.25"/>
          <path id="パス_1319-3" data-name="パス 1319" d="M508.659,117.522l-4.036,1.916v-2.347c.255-.06.528-.113.816-.155.121-.017.244-.033.367-.048.247-.029.5-.053.742-.072.123-.01.244-.018.363-.026.238-.015.468-.026.68-.034l.306-.01c.291-.008.536-.011.708-.012h.272a.958.958,0,0,0,.2.163v.009A.76.76,0,0,1,508.659,117.522Z" fill="none" stroke="#000" stroke-linecap="round" stroke-linejoin="round" stroke-width="0.25"/>
          <path id="パス_1320-3" data-name="パス 1320" d="M502.962,153.666l1.661.272v6.942l-1.661-.272a.649.649,0,0,1-.565-.629v-5.811A.5.5,0,0,1,502.962,153.666Z" fill="none" stroke="#000" stroke-linecap="round" stroke-linejoin="round" stroke-width="0.25"/>
          <path id="パス_1321-3" data-name="パス 1321" d="M502.937,145.685l1.686.545v6.408l-1.686-.545a.724.724,0,0,1-.54-.666V146.1A.415.415,0,0,1,502.937,145.685Z" fill="none" stroke="#000" stroke-linecap="round" stroke-linejoin="round" stroke-width="0.25"/>
          <path id="パス_1322-3" data-name="パス 1322" d="M502.913,138.238l1.71.818v5.874l-1.71-.818a.817.817,0,0,1-.516-.7v-4.843A.349.349,0,0,1,502.913,138.238Z" fill="none" stroke="#000" stroke-linecap="round" stroke-linejoin="round" stroke-width="0.25"/>
          <path id="パス_1323-3" data-name="パス 1323" d="M502.888,131.325l1.735,1.091v5.34l-1.735-1.091a.937.937,0,0,1-.491-.742v-4.358C502.4,131.294,502.617,131.186,502.888,131.325Z" fill="none" stroke="#000" stroke-linecap="round" stroke-linejoin="round" stroke-width="0.25"/>
          <path id="パス_1324-3" data-name="パス 1324" d="M502.863,124.947l1.76,1.363v4.806l-1.76-1.363a1.094,1.094,0,0,1-.466-.781V125.1C502.4,124.841,502.606,124.773,502.863,124.947Z" fill="none" stroke="#000" stroke-linecap="round" stroke-linejoin="round" stroke-width="0.25"/>
          <path id="パス_1325-3" data-name="パス 1325" d="M502.839,119.1l1.784,1.636v4.272l-1.784-1.636a1.284,1.284,0,0,1-.442-.819v-3.388C502.4,118.922,502.6,118.894,502.839,119.1Z" fill="none" stroke="#000" stroke-linecap="round" stroke-linejoin="round" stroke-width="0.25"/>
          <path id="パス_1326-3" data-name="パス 1326" d="M504.053,117.293a3.072,3.072,0,0,1,.371-.156c.063-.017.133-.031.2-.046v2.347l-1.5-1.578c.057-.041.111-.081.171-.121A6.548,6.548,0,0,1,504.053,117.293Z" fill="none" stroke="#000" stroke-linecap="round" stroke-linejoin="round" stroke-width="0.25"/>
        </g>
      </g>
      <path id="パス_1327-3" data-name="パス 1327" d="M535.078,121.429h0a5.545,5.545,0,0,0-.785-2.842s-.178-.158-.451-.373c-.183-.143-.407-.311-.649-.475a6.551,6.551,0,0,0-.755-.446,3.259,3.259,0,0,0-.371-.157,8.815,8.815,0,0,0-1.015-.2c-.121-.017-.244-.033-.367-.048-.247-.029-.5-.053-.742-.072-.123-.01-.244-.018-.363-.026-.238-.015-.468-.026-.68-.034l-.306-.01c-.291-.008-.536-.011-.708-.012h-.272a.781.781,0,0,1-1.345-.324h0v-.14l-4.453-.353v.272a.676.676,0,1,1-1.345,0v-.272h-4.453v.272h0a.676.676,0,1,1-1.345,0v-.272l-4.453.353v.14h0a.782.782,0,0,1-1.346.324s-.275,0-.7,0c-.257.005-.57.015-.911.032s-.711.041-1.083.077-.745.083-1.1.145c-.233.041-.455.088-.658.143a8.762,8.762,0,0,0-2.226,1.451,5.545,5.545,0,0,0-.785,2.842h0s-3.167,5.6-3.167,19.975v49.029c0,14.373,3.166,19.973,3.167,19.975h0a5.545,5.545,0,0,0,.785,2.842,8.741,8.741,0,0,0,2.226,1.45c.2.055.425.1.658.144.35.062.724.109,1.1.144s.742.061,1.083.078.654.027.911.032c.43.008.7,0,.7,0a.782.782,0,0,1,1.346.323h0v.141l4.453.352v-.271a.676.676,0,1,1,1.345,0h0v.271h4.453v-.271h0a.676.676,0,1,1,1.345,0v.271l4.453-.352v-.141a.781.781,0,0,1,1.345-.323h.272c.172,0,.417,0,.708-.012l.306-.01c.212-.008.442-.019.68-.035.119-.007.24-.016.363-.025.245-.019.495-.043.742-.072.123-.015.246-.031.367-.048a8.6,8.6,0,0,0,1.015-.2,3.246,3.246,0,0,0,.371-.156,6.553,6.553,0,0,0,.755-.446c.242-.164.466-.332.649-.475.273-.215.451-.373.451-.373a5.545,5.545,0,0,0,.785-2.842h0s3.166-5.6,3.166-19.975V141.4C538.244,127.031,535.079,121.43,535.078,121.429Z" fill="none" stroke="#000" stroke-linecap="round" stroke-linejoin="round" stroke-width="0.75"/>
    </g>
    <g id="tire-4" data-name="tire" transform="translate(-442.244 2640.082)">
      <g id="レイヤー_12のコピー_2-4" data-name="レイヤー 12のコピー 2">
        <path id="パス_1258-4" data-name="パス 1258" d="M516.018,115.918v100h4.453v-100Z" fill="none" stroke="#000" stroke-linecap="round" stroke-linejoin="round" stroke-width="0.25"/>
        <path id="パス_1259-4" data-name="パス 1259" d="M521.816,116.19a.676.676,0,1,1-1.345,0v99.457a.676.676,0,1,1,1.345,0V116.19Z" fill="none" stroke="#000" stroke-linecap="round" stroke-linejoin="round" stroke-width="0.25"/>
        <path id="パス_1260-4" data-name="パス 1260" d="M521.816,115.918v100l4.453-.352v-99.3Z" fill="none" stroke="#000" stroke-linecap="round" stroke-linejoin="round" stroke-width="0.25"/>
        <path id="パス_1261-4" data-name="パス 1261" d="M535.078,121.429v88.979s3.166-5.6,3.166-19.975V141.4C538.244,127.029,535.078,121.429,535.078,121.429Z" fill="none" stroke="#000" stroke-linecap="round" stroke-linejoin="round" stroke-width="0.25"/>
        <path id="パス_1262-4" data-name="パス 1262" d="M534.293,118.587a8.783,8.783,0,0,0-2.226-1.451,21.093,21.093,0,0,0-4.453-.4.781.781,0,0,1-1.345-.324v49.507h0v49.507a.781.781,0,0,1,1.345-.323,21.12,21.12,0,0,0,4.453-.4,8.761,8.761,0,0,0,2.226-1.45,5.545,5.545,0,0,0,.785-2.842v-44.49h0V121.429A5.545,5.545,0,0,0,534.293,118.587Z" fill="none" stroke="#000" stroke-linecap="round" stroke-linejoin="round" stroke-width="0.25"/>
        <path id="パス_1263-4" data-name="パス 1263" d="M514.672,116.19a.676.676,0,1,0,1.346,0v99.457a.676.676,0,1,0-1.346,0V116.19Z" fill="none" stroke="#000" stroke-linecap="round" stroke-linejoin="round" stroke-width="0.25"/>
        <path id="パス_1264-4" data-name="パス 1264" d="M514.673,115.918v100l-4.453-.352v-99.3Z" fill="none" stroke="#000" stroke-linecap="round" stroke-linejoin="round" stroke-width="0.25"/>
        <path id="パス_1265-4" data-name="パス 1265" d="M501.411,121.429v88.979s-3.167-5.6-3.167-19.975V141.4C498.244,127.029,501.411,121.429,501.411,121.429Z" fill="none" stroke="#000" stroke-linecap="round" stroke-linejoin="round" stroke-width="0.25"/>
        <path id="パス_1266-4" data-name="パス 1266" d="M502.2,118.587a8.762,8.762,0,0,1,2.226-1.451,21.085,21.085,0,0,1,4.452-.4.782.782,0,0,0,1.346-.324v49.507h0v49.507a.782.782,0,0,0-1.346-.323,21.112,21.112,0,0,1-4.452-.4,8.741,8.741,0,0,1-2.226-1.45,5.545,5.545,0,0,1-.785-2.842v-44.49h0V121.429A5.545,5.545,0,0,1,502.2,118.587Z" fill="none" stroke="#000" stroke-linecap="round" stroke-linejoin="round" stroke-width="0.25"/>
        <g id="グループ_619-4" data-name="グループ 619">
          <path id="パス_1267-4" data-name="パス 1267" d="M528.005,162.18a.59.59,0,0,0-.59.59v6.3a.59.59,0,0,0,.59.59h3.863V162.18Z" fill="none" stroke="#000" stroke-linecap="round" stroke-linejoin="round" stroke-width="0.25"/>
          <path id="パス_1268-4" data-name="パス 1268" d="M527.981,171.23a.6.6,0,0,0-.566.594v5.811a.533.533,0,0,0,.566.537l3.887-.274v-6.942Z" fill="none" stroke="#000" stroke-linecap="round" stroke-linejoin="round" stroke-width="0.25"/>
          <path id="パス_1269-4" data-name="パス 1269" d="M527.956,179.746a.614.614,0,0,0-.541.6v5.327a.478.478,0,0,0,.541.484l3.912-.547V179.2Z" fill="none" stroke="#000" stroke-linecap="round" stroke-linejoin="round" stroke-width="0.25"/>
          <path id="パス_1270-4" data-name="パス 1270" d="M527.931,187.728a.631.631,0,0,0-.516.6v4.843a.427.427,0,0,0,.516.431l3.937-.821v-5.874Z" fill="none" stroke="#000" stroke-linecap="round" stroke-linejoin="round" stroke-width="0.25"/>
          <path id="パス_1271-4" data-name="パス 1271" d="M527.906,195.175a.656.656,0,0,0-.491.6v4.357a.378.378,0,0,0,.491.378l3.962-1.094v-5.34Z" fill="none" stroke="#000" stroke-linecap="round" stroke-linejoin="round" stroke-width="0.25"/>
          <path id="パス_1272-4" data-name="パス 1272" d="M527.882,202.089a.682.682,0,0,0-.467.608v3.873a.334.334,0,0,0,.467.325l3.986-1.368v-4.806Z" fill="none" stroke="#000" stroke-linecap="round" stroke-linejoin="round" stroke-width="0.25"/>
          <path id="パス_1273-4" data-name="パス 1273" d="M527.857,208.469a.717.717,0,0,0-.442.611v3.389c0,.244.2.366.442.272l4.011-1.642v-4.272Z" fill="none" stroke="#000" stroke-linecap="round" stroke-linejoin="round" stroke-width="0.25"/>
          <path id="パス_1274-4" data-name="パス 1274" d="M527.739,215.1h.147c.172,0,.417,0,.708-.012l.306-.01c.212-.008.442-.02.68-.035.119-.007.24-.016.363-.025.245-.019.495-.043.742-.072.123-.015.246-.031.367-.048.288-.042.561-.1.816-.155V212.4l-4.036,1.915a.762.762,0,0,0-.417.616v.009a.959.959,0,0,1,.2.163Z" fill="none" stroke="#000" stroke-linecap="round" stroke-linejoin="round" stroke-width="0.25"/>
          <path id="パス_1275-4" data-name="パス 1275" d="M533.5,162.18h-1.636v7.476H533.5a.59.59,0,0,0,.59-.59v-6.3A.59.59,0,0,0,533.5,162.18Z" fill="none" stroke="#000" stroke-linecap="round" stroke-linejoin="round" stroke-width="0.25"/>
          <path id="パス_1276-4" data-name="パス 1276" d="M533.529,171.229l-1.661-.273V177.9l1.661.273a.5.5,0,0,0,.565-.5v-5.812A.648.648,0,0,0,533.529,171.229Z" fill="none" stroke="#000" stroke-linecap="round" stroke-linejoin="round" stroke-width="0.25"/>
          <path id="パス_1277-4" data-name="パス 1277" d="M533.554,179.744l-1.686-.546v6.409l1.686.545a.415.415,0,0,0,.54-.415V180.41A.723.723,0,0,0,533.554,179.744Z" fill="none" stroke="#000" stroke-linecap="round" stroke-linejoin="round" stroke-width="0.25"/>
          <path id="パス_1278-4" data-name="パス 1278" d="M533.578,187.725l-1.71-.818v5.874l1.71.818a.349.349,0,0,0,.516-.328v-4.842A.817.817,0,0,0,533.578,187.725Z" fill="none" stroke="#000" stroke-linecap="round" stroke-linejoin="round" stroke-width="0.25"/>
          <path id="パス_1279-4" data-name="パス 1279" d="M533.6,195.171l-1.735-1.09v5.34l1.735,1.09c.271.139.491.032.491-.239v-4.358A.94.94,0,0,0,533.6,195.171Z" fill="none" stroke="#000" stroke-linecap="round" stroke-linejoin="round" stroke-width="0.25"/>
          <path id="パス_1280-4" data-name="パス 1280" d="M533.628,202.084l-1.76-1.363v4.806l1.76,1.363c.257.174.466.106.466-.152v-3.873A1.092,1.092,0,0,0,533.628,202.084Z" fill="none" stroke="#000" stroke-linecap="round" stroke-linejoin="round" stroke-width="0.25"/>
          <path id="パス_1281-4" data-name="パス 1281" d="M531.868,206.827V211.1l1.784,1.636c.244.208.442.179.442-.065v-3.388a1.283,1.283,0,0,0-.442-.819Z" fill="none" stroke="#000" stroke-linecap="round" stroke-linejoin="round" stroke-width="0.25"/>
          <path id="パス_1282-4" data-name="パス 1282" d="M531.868,214.746c.066-.016.136-.029.2-.046a3.246,3.246,0,0,0,.371-.156,6.553,6.553,0,0,0,.755-.446l.171-.121-1.5-1.578Z" fill="none" stroke="#000" stroke-linecap="round" stroke-linejoin="round" stroke-width="0.25"/>
          <path id="パス_1283-4" data-name="パス 1283" d="M527.981,153.665a.532.532,0,0,0-.566.537v5.811a.6.6,0,0,0,.566.594l3.887.273v-6.942Z" fill="none" stroke="#000" stroke-linecap="round" stroke-linejoin="round" stroke-width="0.25"/>
          <path id="パス_1284-4" data-name="パス 1284" d="M527.956,145.683a.478.478,0,0,0-.541.484v5.327a.615.615,0,0,0,.541.6l3.912.547V146.23Z" fill="none" stroke="#000" stroke-linecap="round" stroke-linejoin="round" stroke-width="0.25"/>
          <path id="パス_1285-4" data-name="パス 1285" d="M527.931,138.235a.426.426,0,0,0-.516.431v4.842a.633.633,0,0,0,.516.6l3.937.821v-5.874Z" fill="none" stroke="#000" stroke-linecap="round" stroke-linejoin="round" stroke-width="0.25"/>
          <path id="パス_1286-4" data-name="パス 1286" d="M527.906,131.321a.379.379,0,0,0-.491.378v4.358a.654.654,0,0,0,.491.6l3.962,1.1v-5.34Z" fill="none" stroke="#000" stroke-linecap="round" stroke-linejoin="round" stroke-width="0.25"/>
          <path id="パス_1287-4" data-name="パス 1287" d="M527.882,124.942a.334.334,0,0,0-.467.325v3.873a.683.683,0,0,0,.467.608l3.986,1.368V126.31Z" fill="none" stroke="#000" stroke-linecap="round" stroke-linejoin="round" stroke-width="0.25"/>
          <path id="パス_1288-4" data-name="パス 1288" d="M527.857,119.1c-.244-.094-.442.028-.442.272v3.388a.718.718,0,0,0,.442.612l4.011,1.642v-4.272Z" fill="none" stroke="#000" stroke-linecap="round" stroke-linejoin="round" stroke-width="0.25"/>
          <path id="パス_1289-4" data-name="パス 1289" d="M527.832,117.522l4.036,1.916v-2.347c-.255-.06-.528-.113-.816-.155-.121-.017-.244-.033-.367-.048-.247-.029-.5-.053-.742-.072-.123-.01-.244-.018-.363-.026-.238-.015-.468-.026-.68-.034l-.306-.01c-.291-.008-.536-.011-.708-.012h-.272a.959.959,0,0,1-.2.163v.009A.761.761,0,0,0,527.832,117.522Z" fill="none" stroke="#000" stroke-linecap="round" stroke-linejoin="round" stroke-width="0.25"/>
          <path id="パス_1290-4" data-name="パス 1290" d="M533.529,153.666l-1.661.272v6.942l1.661-.272a.649.649,0,0,0,.565-.629v-5.811A.5.5,0,0,0,533.529,153.666Z" fill="none" stroke="#000" stroke-linecap="round" stroke-linejoin="round" stroke-width="0.25"/>
          <path id="パス_1291-4" data-name="パス 1291" d="M533.554,145.685l-1.686.545v6.408l1.686-.545a.724.724,0,0,0,.54-.666V146.1A.415.415,0,0,0,533.554,145.685Z" fill="none" stroke="#000" stroke-linecap="round" stroke-linejoin="round" stroke-width="0.25"/>
          <path id="パス_1292-4" data-name="パス 1292" d="M533.578,138.238l-1.71.818v5.874l1.71-.818a.817.817,0,0,0,.516-.7v-4.843A.349.349,0,0,0,533.578,138.238Z" fill="none" stroke="#000" stroke-linecap="round" stroke-linejoin="round" stroke-width="0.25"/>
          <path id="パス_1293-4" data-name="パス 1293" d="M533.6,131.325l-1.735,1.091v5.34l1.735-1.091a.937.937,0,0,0,.491-.742v-4.358C534.094,131.294,533.874,131.186,533.6,131.325Z" fill="none" stroke="#000" stroke-linecap="round" stroke-linejoin="round" stroke-width="0.25"/>
          <path id="パス_1294-4" data-name="パス 1294" d="M533.628,124.947l-1.76,1.363v4.806l1.76-1.363a1.094,1.094,0,0,0,.466-.781V125.1C534.094,124.841,533.885,124.773,533.628,124.947Z" fill="none" stroke="#000" stroke-linecap="round" stroke-linejoin="round" stroke-width="0.25"/>
          <path id="パス_1295-4" data-name="パス 1295" d="M533.652,119.1l-1.784,1.636v4.272l1.784-1.636a1.283,1.283,0,0,0,.442-.819v-3.388C534.094,118.922,533.9,118.894,533.652,119.1Z" fill="none" stroke="#000" stroke-linecap="round" stroke-linejoin="round" stroke-width="0.25"/>
          <path id="パス_1296-4" data-name="パス 1296" d="M532.438,117.293a3.076,3.076,0,0,0-.371-.156c-.063-.017-.133-.031-.2-.046v2.347l1.5-1.578c-.057-.041-.112-.081-.171-.121A6.551,6.551,0,0,0,532.438,117.293Z" fill="none" stroke="#000" stroke-linecap="round" stroke-linejoin="round" stroke-width="0.25"/>
        </g>
        <g id="グループ_620-4" data-name="グループ 620">
          <path id="パス_1297-4" data-name="パス 1297" d="M508.486,162.18a.59.59,0,0,1,.59.59v6.3a.59.59,0,0,1-.59.59h-3.863V162.18Z" fill="none" stroke="#000" stroke-linecap="round" stroke-linejoin="round" stroke-width="0.25"/>
          <path id="パス_1298-4" data-name="パス 1298" d="M508.51,171.23a.6.6,0,0,1,.566.594v5.811a.533.533,0,0,1-.566.537l-3.887-.274v-6.942Z" fill="none" stroke="#000" stroke-linecap="round" stroke-linejoin="round" stroke-width="0.25"/>
          <path id="パス_1299-4" data-name="パス 1299" d="M508.535,179.746a.614.614,0,0,1,.541.6v5.327a.478.478,0,0,1-.541.484l-3.912-.547V179.2Z" fill="none" stroke="#000" stroke-linecap="round" stroke-linejoin="round" stroke-width="0.25"/>
          <path id="パス_1300-4" data-name="パス 1300" d="M508.56,187.728a.631.631,0,0,1,.516.6v4.843a.427.427,0,0,1-.516.431l-3.937-.821v-5.874Z" fill="none" stroke="#000" stroke-linecap="round" stroke-linejoin="round" stroke-width="0.25"/>
          <path id="パス_1301-4" data-name="パス 1301" d="M508.584,195.175a.655.655,0,0,1,.492.6v4.357a.378.378,0,0,1-.492.378l-3.961-1.094v-5.34Z" fill="none" stroke="#000" stroke-linecap="round" stroke-linejoin="round" stroke-width="0.25"/>
          <path id="パス_1302-4" data-name="パス 1302" d="M508.609,202.089a.682.682,0,0,1,.467.608v3.873a.334.334,0,0,1-.467.325l-3.986-1.368v-4.806Z" fill="none" stroke="#000" stroke-linecap="round" stroke-linejoin="round" stroke-width="0.25"/>
          <path id="パス_1303-4" data-name="パス 1303" d="M508.634,208.469a.717.717,0,0,1,.442.611v3.389c0,.244-.2.366-.442.272l-4.011-1.642v-4.272Z" fill="none" stroke="#000" stroke-linecap="round" stroke-linejoin="round" stroke-width="0.25"/>
          <path id="パス_1304-4" data-name="パス 1304" d="M508.752,215.1h-.147c-.172,0-.417,0-.708-.012l-.306-.01c-.212-.008-.442-.02-.68-.035-.119-.007-.24-.016-.363-.025-.245-.019-.495-.043-.742-.072-.123-.015-.246-.031-.367-.048-.288-.042-.561-.1-.816-.155V212.4l4.036,1.915a.762.762,0,0,1,.417.616v.009a.958.958,0,0,0-.2.163Z" fill="none" stroke="#000" stroke-linecap="round" stroke-linejoin="round" stroke-width="0.25"/>
          <path id="パス_1305-4" data-name="パス 1305" d="M502.987,162.18h1.636v7.476h-1.636a.59.59,0,0,1-.59-.59v-6.3A.59.59,0,0,1,502.987,162.18Z" fill="none" stroke="#000" stroke-linecap="round" stroke-linejoin="round" stroke-width="0.25"/>
          <path id="パス_1306-4" data-name="パス 1306" d="M502.962,171.229l1.661-.273V177.9l-1.661.273a.5.5,0,0,1-.565-.5v-5.812A.648.648,0,0,1,502.962,171.229Z" fill="none" stroke="#000" stroke-linecap="round" stroke-linejoin="round" stroke-width="0.25"/>
          <path id="パス_1307-4" data-name="パス 1307" d="M502.937,179.744l1.686-.546v6.409l-1.686.545a.415.415,0,0,1-.54-.415V180.41A.723.723,0,0,1,502.937,179.744Z" fill="none" stroke="#000" stroke-linecap="round" stroke-linejoin="round" stroke-width="0.25"/>
          <path id="パス_1308-4" data-name="パス 1308" d="M502.913,187.725l1.71-.818v5.874l-1.71.818a.349.349,0,0,1-.516-.328v-4.842A.817.817,0,0,1,502.913,187.725Z" fill="none" stroke="#000" stroke-linecap="round" stroke-linejoin="round" stroke-width="0.25"/>
          <path id="パス_1309-4" data-name="パス 1309" d="M502.888,195.171l1.735-1.09v5.34l-1.735,1.09c-.271.139-.491.032-.491-.239v-4.358A.94.94,0,0,1,502.888,195.171Z" fill="none" stroke="#000" stroke-linecap="round" stroke-linejoin="round" stroke-width="0.25"/>
          <path id="パス_1310-4" data-name="パス 1310" d="M502.863,202.084l1.76-1.363v4.806l-1.76,1.363c-.257.174-.466.106-.466-.152v-3.873A1.092,1.092,0,0,1,502.863,202.084Z" fill="none" stroke="#000" stroke-linecap="round" stroke-linejoin="round" stroke-width="0.25"/>
          <path id="パス_1311-4" data-name="パス 1311" d="M504.623,206.827V211.1l-1.784,1.636c-.244.208-.442.179-.442-.065v-3.388a1.284,1.284,0,0,1,.442-.819Z" fill="none" stroke="#000" stroke-linecap="round" stroke-linejoin="round" stroke-width="0.25"/>
          <path id="パス_1312-4" data-name="パス 1312" d="M504.623,214.746c-.066-.016-.136-.029-.2-.046a3.242,3.242,0,0,1-.371-.156,6.55,6.55,0,0,1-.755-.446c-.06-.041-.114-.081-.171-.121l1.5-1.578Z" fill="none" stroke="#000" stroke-linecap="round" stroke-linejoin="round" stroke-width="0.25"/>
          <path id="パス_1313-4" data-name="パス 1313" d="M508.51,153.665a.532.532,0,0,1,.566.537v5.811a.6.6,0,0,1-.566.594l-3.887.273v-6.942Z" fill="none" stroke="#000" stroke-linecap="round" stroke-linejoin="round" stroke-width="0.25"/>
          <path id="パス_1314-4" data-name="パス 1314" d="M508.535,145.683a.478.478,0,0,1,.541.484v5.327a.615.615,0,0,1-.541.6l-3.912.547V146.23Z" fill="none" stroke="#000" stroke-linecap="round" stroke-linejoin="round" stroke-width="0.25"/>
          <path id="パス_1315-4" data-name="パス 1315" d="M508.56,138.235a.426.426,0,0,1,.516.431v4.842a.633.633,0,0,1-.516.6l-3.937.821v-5.874Z" fill="none" stroke="#000" stroke-linecap="round" stroke-linejoin="round" stroke-width="0.25"/>
          <path id="パス_1316-4" data-name="パス 1316" d="M508.584,131.321a.379.379,0,0,1,.492.378v4.358a.654.654,0,0,1-.492.6l-3.961,1.1v-5.34Z" fill="none" stroke="#000" stroke-linecap="round" stroke-linejoin="round" stroke-width="0.25"/>
          <path id="パス_1317-4" data-name="パス 1317" d="M508.609,124.942a.334.334,0,0,1,.467.325v3.873a.683.683,0,0,1-.467.608l-3.986,1.368V126.31Z" fill="none" stroke="#000" stroke-linecap="round" stroke-linejoin="round" stroke-width="0.25"/>
          <path id="パス_1318-4" data-name="パス 1318" d="M508.634,119.1c.244-.094.442.028.442.272v3.388a.718.718,0,0,1-.442.612l-4.011,1.642v-4.272Z" fill="none" stroke="#000" stroke-linecap="round" stroke-linejoin="round" stroke-width="0.25"/>
          <path id="パス_1319-4" data-name="パス 1319" d="M508.659,117.522l-4.036,1.916v-2.347c.255-.06.528-.113.816-.155.121-.017.244-.033.367-.048.247-.029.5-.053.742-.072.123-.01.244-.018.363-.026.238-.015.468-.026.68-.034l.306-.01c.291-.008.536-.011.708-.012h.272a.958.958,0,0,0,.2.163v.009A.76.76,0,0,1,508.659,117.522Z" fill="none" stroke="#000" stroke-linecap="round" stroke-linejoin="round" stroke-width="0.25"/>
          <path id="パス_1320-4" data-name="パス 1320" d="M502.962,153.666l1.661.272v6.942l-1.661-.272a.649.649,0,0,1-.565-.629v-5.811A.5.5,0,0,1,502.962,153.666Z" fill="none" stroke="#000" stroke-linecap="round" stroke-linejoin="round" stroke-width="0.25"/>
          <path id="パス_1321-4" data-name="パス 1321" d="M502.937,145.685l1.686.545v6.408l-1.686-.545a.724.724,0,0,1-.54-.666V146.1A.415.415,0,0,1,502.937,145.685Z" fill="none" stroke="#000" stroke-linecap="round" stroke-linejoin="round" stroke-width="0.25"/>
          <path id="パス_1322-4" data-name="パス 1322" d="M502.913,138.238l1.71.818v5.874l-1.71-.818a.817.817,0,0,1-.516-.7v-4.843A.349.349,0,0,1,502.913,138.238Z" fill="none" stroke="#000" stroke-linecap="round" stroke-linejoin="round" stroke-width="0.25"/>
          <path id="パス_1323-4" data-name="パス 1323" d="M502.888,131.325l1.735,1.091v5.34l-1.735-1.091a.937.937,0,0,1-.491-.742v-4.358C502.4,131.294,502.617,131.186,502.888,131.325Z" fill="none" stroke="#000" stroke-linecap="round" stroke-linejoin="round" stroke-width="0.25"/>
          <path id="パス_1324-4" data-name="パス 1324" d="M502.863,124.947l1.76,1.363v4.806l-1.76-1.363a1.094,1.094,0,0,1-.466-.781V125.1C502.4,124.841,502.606,124.773,502.863,124.947Z" fill="none" stroke="#000" stroke-linecap="round" stroke-linejoin="round" stroke-width="0.25"/>
          <path id="パス_1325-4" data-name="パス 1325" d="M502.839,119.1l1.784,1.636v4.272l-1.784-1.636a1.284,1.284,0,0,1-.442-.819v-3.388C502.4,118.922,502.6,118.894,502.839,119.1Z" fill="none" stroke="#000" stroke-linecap="round" stroke-linejoin="round" stroke-width="0.25"/>
          <path id="パス_1326-4" data-name="パス 1326" d="M504.053,117.293a3.072,3.072,0,0,1,.371-.156c.063-.017.133-.031.2-.046v2.347l-1.5-1.578c.057-.041.111-.081.171-.121A6.548,6.548,0,0,1,504.053,117.293Z" fill="none" stroke="#000" stroke-linecap="round" stroke-linejoin="round" stroke-width="0.25"/>
        </g>
      </g>
      <path id="パス_1327-4" data-name="パス 1327" d="M535.078,121.429h0a5.545,5.545,0,0,0-.785-2.842s-.178-.158-.451-.373c-.183-.143-.407-.311-.649-.475a6.551,6.551,0,0,0-.755-.446,3.259,3.259,0,0,0-.371-.157,8.815,8.815,0,0,0-1.015-.2c-.121-.017-.244-.033-.367-.048-.247-.029-.5-.053-.742-.072-.123-.01-.244-.018-.363-.026-.238-.015-.468-.026-.68-.034l-.306-.01c-.291-.008-.536-.011-.708-.012h-.272a.781.781,0,0,1-1.345-.324h0v-.14l-4.453-.353v.272a.676.676,0,1,1-1.345,0v-.272h-4.453v.272h0a.676.676,0,1,1-1.345,0v-.272l-4.453.353v.14h0a.782.782,0,0,1-1.346.324s-.275,0-.7,0c-.257.005-.57.015-.911.032s-.711.041-1.083.077-.745.083-1.1.145c-.233.041-.455.088-.658.143a8.762,8.762,0,0,0-2.226,1.451,5.545,5.545,0,0,0-.785,2.842h0s-3.167,5.6-3.167,19.975v49.029c0,14.373,3.166,19.973,3.167,19.975h0a5.545,5.545,0,0,0,.785,2.842,8.741,8.741,0,0,0,2.226,1.45c.2.055.425.1.658.144.35.062.724.109,1.1.144s.742.061,1.083.078.654.027.911.032c.43.008.7,0,.7,0a.782.782,0,0,1,1.346.323h0v.141l4.453.352v-.271a.676.676,0,1,1,1.345,0h0v.271h4.453v-.271h0a.676.676,0,1,1,1.345,0v.271l4.453-.352v-.141a.781.781,0,0,1,1.345-.323h.272c.172,0,.417,0,.708-.012l.306-.01c.212-.008.442-.019.68-.035.119-.007.24-.016.363-.025.245-.019.495-.043.742-.072.123-.015.246-.031.367-.048a8.6,8.6,0,0,0,1.015-.2,3.246,3.246,0,0,0,.371-.156,6.553,6.553,0,0,0,.755-.446c.242-.164.466-.332.649-.475.273-.215.451-.373.451-.373a5.545,5.545,0,0,0,.785-2.842h0s3.166-5.6,3.166-19.975V141.4C538.244,127.031,535.079,121.43,535.078,121.429Z" fill="none" stroke="#000" stroke-linecap="round" stroke-linejoin="round" stroke-width="0.75"/>
    </g>
  </g>
</svg>
