<svg xmlns="http://www.w3.org/2000/svg" width="181.015" height="380.25" viewBox="0 0 181.015 380.25">
  <g id="car" transform="translate(-260.478 -73.734)" opacity="0.3">
    <path id="パス_878" data-name="パス 878" d="M278.978,374.464l-2.224,3.895s3.3,8.559,8.681,11.864,17.862,6.55,18.077,6.61l-4.161-4.251s-8.393-2.772-12.339-5.31S278.978,374.464,278.978,374.464Z" transform="translate(2.562 48.919)" fill="none" stroke="#000" stroke-miterlimit="10" stroke-width="1.012"/>
    <path id="パス_879" data-name="パス 879" d="M314.839,80.338c3.934-.192,22.517-.637,27.8-.637s23.861.445,27.8.637,2.3-1.924,1.676-3.973c-.29-.952-1.028.414-1.739-.348a254.42,254.42,0,0,0-27.733-1.778A254.42,254.42,0,0,0,314.9,76.018c-.711.759-1.45-.6-1.739.348C312.54,78.415,310.9,80.532,314.839,80.338Z" transform="translate(8.353)" fill="none" stroke="#000" stroke-miterlimit="10" stroke-width="0.506"/>
    <path id="パス_880" data-name="パス 880" d="M309.188,80.362c-.657,1.214-3.742,10.693-3.742,10.693L277.59,112.024s-2.113.738-2.113-.631v-3.952C282.431,92.878,305.945,81.4,309.188,80.362Z" transform="translate(2.354 0.998)" fill="none" stroke="#000" stroke-linejoin="bevel" stroke-width="1.012"/>
    <path id="パス_881" data-name="パス 881" d="M372.678,81.254c.657,1.214,3.3,9.656,3.3,9.656l27.855,20.969s2.113.738,2.113-.631V107.3C398.53,92.558,372.678,81.254,372.678,81.254Z" transform="translate(18.192 1.143)" fill="none" stroke="#000" stroke-linejoin="round" stroke-width="1.012"/>
    <path id="パス_882" data-name="パス 882" d="M400.213,448.992c6.878-1.678,17.194-6.289,21.4-14.148s7.451-20.072,7.9-21.905,4.725-7.7,4.916-9.9.216-35.579.216-39.666-2.057-12.5-2.057-12.5v-58.3c0-12.056-.406-56.5-.773-77.077,4.547,1.191,9.07,2.37,9.07,2.37a5.481,5.481,0,0,0-1.339-4.4c-.778-.972-4.109-2.576-7.844-4.146-.256-14.013-.469-24.487-.469-24.487a130.9,130.9,0,0,0,1.355-19.591c.023-11.728-.859-26.521-1.355-28.933l-2.04-18.528s-4.159-10.789-7.987-17.022-17.5-20.094-35.329-24.471a5.957,5.957,0,0,1-4.488.2c-2.853-.794-19.292-2.246-30.4-2.246s-27.545,1.451-30.4,2.246a5.959,5.959,0,0,1-4.488-.2c-17.83,4.376-31.5,18.237-35.33,24.471s-7.986,17.022-7.986,17.022l-2.04,18.528c-.5,2.412-1.379,17.2-1.356,28.933a130.978,130.978,0,0,0,1.356,19.591s-.213,10.473-.469,24.487c-3.737,1.569-7.066,3.174-7.845,4.146a5.481,5.481,0,0,0-1.339,4.4s4.524-1.179,9.071-2.37c-.369,20.577-.775,65.021-.775,77.077v58.3s-2.057,8.409-2.057,12.5.026,37.465.217,39.666,4.469,8.07,4.916,9.9,3.692,14.046,7.9,21.905,14.521,12.47,21.4,14.148,34.368,4.485,49.227,4.485S393.335,450.668,400.213,448.992Z" transform="translate(0)" fill="none" stroke="#000" stroke-miterlimit="10" stroke-width="1.012"/>
    <path id="パス_883" data-name="パス 883" d="M397.851,377.025c.206-1.984,2.215-28.421,2.235-28.669l2.446-69.39-.669-83.647-.072-6.964h0l-.088-8.623-.041.014c-2.8,5.039-12.613,38.408-14.851,48.248-1.735,7.629-2.615,41.053-2.615,61.91v.007q0,4.005.041,8.141c.092,9.49,1.365,26.816,6.916,61.008l.138.855c.108.674.237,1.5.38,2.419.733,4.708,2.652,17.036,3.938,18.537C396.614,380.669,397.654,378.918,397.851,377.025Z" transform="translate(20.069 17.189)" fill="none" stroke="#000" stroke-miterlimit="10" stroke-width="1.012"/>
    <path id="パス_884" data-name="パス 884" d="M287.663,362.334c.144-.922.272-1.744.381-2.419l.138-.855c5.551-34.192,6.824-51.518,6.915-61.008q.04-4.129.042-8.141V289.9c0-20.857-.88-54.281-2.615-61.91-2.238-9.84-12.048-43.209-14.852-48.248l-.041-.014-.088,8.623h0l-.072,6.964-.669,83.647,2.446,69.39c.02.248,2.028,26.685,2.235,28.669.2,1.893,1.236,3.644,2.241,3.846C285.011,379.37,286.931,367.041,287.663,362.334Z" transform="translate(2.57 17.189)" fill="none" stroke="#000" stroke-miterlimit="10" stroke-width="1.012"/>
    <line id="線_77" data-name="線 77" x1="17.079" y2="3.3" transform="translate(404.801 301.62)" fill="none" stroke="#000" stroke-miterlimit="10" stroke-width="0.506"/>
    <line id="線_78" data-name="線 78" y1="7.188" x2="17.149" transform="translate(404.862 290.524)" fill="none" stroke="#000" stroke-miterlimit="10" stroke-width="0.506"/>
    <path id="パス_885" data-name="パス 885" d="M347.7,163.138c-42.393,0-64.393,11.555-64.393,11.555l-2.129,2.819,13.071,45.519s27.262-5.041,53.451-5.041,53.45,5.041,53.45,5.041l13.071-45.519-2.129-2.819S390.1,163.138,347.7,163.138Z" transform="translate(3.283 14.485)" fill="none" stroke="#000" stroke-miterlimit="10" stroke-width="1.012"/>
    <path id="パス_886" data-name="パス 886" d="M345.963,375.062c-39.4,0-54.1-8.039-54.1-8.039l4.848-40.208s20.258,3.638,49.253,3.638,49.253-3.638,49.253-3.638l4.848,40.208S385.359,375.062,345.963,375.062Z" transform="translate(5.024 41.155)" fill="none" stroke="#000" stroke-miterlimit="10" stroke-width="1.012"/>
    <line id="線_79" data-name="線 79" x2="17.08" y2="3.3" transform="translate(280.093 301.62)" fill="none" stroke="#000" stroke-miterlimit="10" stroke-width="0.506"/>
    <line id="線_80" data-name="線 80" x1="17.15" y1="7.188" transform="translate(279.962 290.524)" fill="none" stroke="#000" stroke-miterlimit="10" stroke-width="0.506"/>
    <path id="パス_887" data-name="パス 887" d="M272.476,207.677l.263-13.632,4.519-79.6s.094-.336.247-.875a1.416,1.416,0,0,1-.844-1.461v-3.952C282.551,92.3,305.8,80.492,308.454,79.7s2.529.265,1.953,1.319c-.114.208-.333.622-.607,1.149,2.556-.9,6.048-1.95,7.744-2.448a3.381,3.381,0,0,1,.074-.681c.224-1.075,1.748-.954,3-2.628l.184-.477c-.6.1-1.073.192-1.38.277a5.959,5.959,0,0,1-4.488-.2c-17.83,4.376-31.5,18.237-35.33,24.471s-7.986,17.022-7.986,17.022l-2.04,18.528c-.5,2.412-1.379,17.2-1.356,28.933a130.973,130.973,0,0,0,1.356,19.591s-.213,10.473-.469,24.487C270.211,208.58,271.353,208.118,272.476,207.677Z" transform="translate(1.171 0.276)" fill="none" stroke="#000" stroke-miterlimit="10" stroke-width="0.506"/>
    <g id="グループ_628" data-name="グループ 628" transform="translate(379.448 76.122)">
      <path id="パス_888" data-name="パス 888" d="M363.035,75.887l-.179-.029v0Z" transform="translate(-362.856 -75.858)" fill="none" stroke="#000" stroke-miterlimit="10" stroke-width="0.506"/>
      <path id="パス_889" data-name="パス 889" d="M414.586,184.562a130.9,130.9,0,0,0,1.355-19.591c.023-11.728-.859-26.521-1.355-28.933l-2.04-18.528s-4.159-10.789-7.987-17.022-17.5-20.094-35.329-24.471a5.957,5.957,0,0,1-4.488.2c-.338-.093-.885-.2-1.577-.307,1.3,1.7,3.131,1.949,3.378,3.135a3.388,3.388,0,0,1,.074.681c1.7.5,5.188,1.544,7.743,2.448-.274-.527-.493-.941-.606-1.149-.578-1.054-.706-2.108,1.951-1.319s25.9,12.6,31.794,28.463v3.952a1.416,1.416,0,0,1-.845,1.461c.153.538.248.875.248.875l4.519,79.6.262,13.632c1.122.441,2.264.9,3.371,1.368C414.8,195.035,414.586,184.562,414.586,184.562Z" transform="translate(-362.806 -75.85)" fill="none" stroke="#000" stroke-miterlimit="10" stroke-width="0.506"/>
    </g>
    <path id="パス_890" data-name="パス 890" d="M412.345,189.1c-.835-12.281-21.753-97.851-21.753-97.851s-2.057-7.484-3.169-9.609c-2.553-.9-6.046-1.95-7.745-2.449,0,1.557-1.2,2.8-3.931,2.685-3.117-.129-17.843-.738-28.342-.738s-25.227.609-28.342.738c-2.729.11-3.934-1.128-3.931-2.685-1.7.5-5.191,1.546-7.744,2.449-1.112,2.126-3.17,9.609-3.17,9.609-6.516,19.891-21.206,97.125-21.206,97.125s22-11.555,64.393-11.555S411.8,188.372,411.8,188.372Z" transform="translate(3.582 0.806)" fill="none" stroke="#000" stroke-miterlimit="10" stroke-width="0.506"/>
    <path id="パス_891" data-name="パス 891" d="M401.535,374.464l2.224,3.895s-3.3,8.559-8.679,11.864-17.862,6.55-18.077,6.61l4.16-4.251s8.393-2.772,12.338-5.31S401.535,374.464,401.535,374.464Z" transform="translate(18.897 48.919)" fill="none" stroke="#000" stroke-miterlimit="10" stroke-width="1.012"/>
    <path id="パス_892" data-name="パス 892" d="M392.627,396.844l.722-.358-.423.113,4.16-4.251s8.124-2.686,12.141-5.191l.561-.374c2.833-2.148,5.672-7.986,6.958-10.879-2.212,4.01-8.549,8.456-17.289,11.685-9.194,3.4-40.749,4.936-51.443,4.936s-42.25-1.537-51.444-4.936c-8.741-3.229-15.079-7.675-17.289-11.685,1.285,2.891,4.119,8.721,6.949,10.873.192.128.383.257.576.385,4.021,2.5,12.135,5.187,12.135,5.187L303.1,396.6l-.422-.113.721.358s12.9,4.592,44.614,4.592S392.627,396.844,392.627,396.844Zm-69.254.1s17.627.9,24.64.9,24.64-.9,24.64-.9,3.661,1.6-.467,2.05-19.518,1.155-24.173,1.155-20.043-.7-24.173-1.155S323.373,396.949,323.373,396.949Z" transform="translate(2.974 49.153)" fill="none" stroke="#000" stroke-miterlimit="10" stroke-width="0.506"/>
    <g id="グループ_629" data-name="グループ 629" transform="translate(396.465 214.62)">
      <path id="パス_893" data-name="パス 893" d="M395,419.473c-4.744,2.913-15,5.779-17.512,6.459.09-.014,14.083-2.076,18.9-6.294a54.393,54.393,0,0,0,8.037-8.46c3.309-8.543,5.728-16.345,6.108-17.908.445-1.834,4.725-7.7,4.916-9.9s.216-35.579.216-39.666-2.057-12.5-2.057-12.5v-58.3c0-12.056-.406-56.5-.773-77.077l-3.357-.879,1.17,79.965-1.791,72.3s-3.43,42.566-4.52,48.207a24.381,24.381,0,0,1-2.878,8.288l2.224,3.895S400.38,416.168,395,419.473ZM411.34,268.184V257.275h.737v10.908Zm-1.178,71.5V328.775h.736v10.908Z" transform="translate(-377.489 -194.951)" fill="none" stroke="#000" stroke-miterlimit="10" stroke-width="0.506"/>
      <path id="パス_894" data-name="パス 894" d="M391.02,385.632c.064-.04.135-.079.2-.119.121-.079.243-.164.364-.256Z" transform="translate(-375.284 -163.942)" fill="none" stroke="#000" stroke-miterlimit="10" stroke-width="0.506"/>
    </g>
    <g id="グループ_630" data-name="グループ 630" transform="translate(267.332 214.62)">
      <path id="パス_895" data-name="パス 895" d="M285.831,385.638c-.193-.128-.384-.257-.576-.385.124.094.249.181.372.262C285.691,385.555,285.766,385.6,285.831,385.638Z" transform="translate(-263.385 -163.943)" fill="none" stroke="#000" stroke-miterlimit="10" stroke-width="0.506"/>
      <path id="パス_896" data-name="パス 896" d="M287.115,419.473c-5.382-3.305-8.681-11.864-8.681-11.864l2.224-3.895a24.391,24.391,0,0,1-2.877-8.288c-1.091-5.641-4.52-48.207-4.52-48.207l-1.791-72.3,1.169-79.965-3.356.879c-.369,20.577-.775,65.021-.775,77.077v58.3s-2.057,8.409-2.057,12.5.026,37.465.217,39.666,4.469,8.07,4.916,9.9c.379,1.563,2.8,9.365,6.108,17.908a54.383,54.383,0,0,0,8.036,8.46c4.815,4.217,18.8,6.28,18.9,6.294C302.113,425.252,291.857,422.386,287.115,419.473ZM270.037,268.184V257.275h.736v10.908Zm1.178,71.5V328.775h.736v10.908Z" transform="translate(-266.449 -194.951)" fill="none" stroke="#000" stroke-miterlimit="10" stroke-width="0.506"/>
    </g>
    <path id="パス_897" data-name="パス 897" d="M281.808,348.575l-2.436-69.118.669-83.647.072-6.964h0l.088-8.623-9.626-3.5c-.081,4.211-.186,9.708-.3,15.9-3.737,1.569-7.066,3.174-7.845,4.146a5.481,5.481,0,0,0-1.339,4.4s4.524-1.179,9.071-2.37c-.369,20.577-.775,65.021-.775,77.077v58.3s-.185,1.382-.406,3.3c1.763,4.677,4.068,10.644,4.875,12.039,1.371,2.369,7.309-.748,7.309-.748S281.434,348.691,281.808,348.575Z" transform="translate(0 16.699)" fill="none" stroke="#000" stroke-miterlimit="10" stroke-width="1.012"/>
    <path id="パス_898" data-name="パス 898" d="M280.694,334.663l-2.436-69.118,0-.223a42.741,42.741,0,0,1-9.985-3.219v58.16s-.185,1.382-.406,3.3c1.763,4.677,4.068,10.644,4.875,12.039,1.371,2.369,7.309-.748,7.309-.748S280.319,334.779,280.694,334.663Z" transform="translate(1.114 30.61)" fill="none" stroke="#000" stroke-miterlimit="10" stroke-width="1.012"/>
    <path id="パス_899" data-name="パス 899" d="M405.9,349.986c.412-.786,3.161-9.4,4.616-13.994-.134-1.093-.228-1.794-.228-1.794V275.9c0-12.056-.406-56.5-.773-77.077,4.547,1.191,9.07,2.37,9.07,2.37a5.481,5.481,0,0,0-1.339-4.4c-.778-.972-4.109-2.576-7.844-4.146-.114-6.276-.221-11.839-.3-16.072-1.915.552-9.663,2.836-9.663,3.687l.041-.014.088,8.623h0l.072,6.964.669,83.647-2.431,68.944a6.39,6.39,0,0,0,1.279.606C401.3,349.76,405.332,351.062,405.9,349.986Z" transform="translate(22.297 16.674)" fill="none" stroke="#000" stroke-miterlimit="10" stroke-width="1.012"/>
    <path id="パス_900" data-name="パス 900" d="M405.9,336.036c.412-.786,3.161-9.4,4.616-13.994-.134-1.093-.228-1.794-.228-1.794v-58.06l-3.183,1.944-6.8,1.03,0,.367-2.431,68.944a6.39,6.39,0,0,0,1.279.606C401.3,335.81,405.332,337.112,405.9,336.036Z" transform="translate(22.297 30.625)" fill="none" stroke="#000" stroke-miterlimit="10" stroke-width="1.012"/>
    <path id="パス_901" data-name="パス 901" d="M418.345,199.472a5.481,5.481,0,0,0-1.339-4.4c-.778-.972-4.109-2.576-7.844-4.146l-9.836-3.776h0l.072,6.964,9.877,2.991C413.822,198.293,418.345,199.472,418.345,199.472Z" transform="translate(22.534 18.397)" fill="none" stroke="#000" stroke-miterlimit="10" stroke-width="1.012"/>
    <path id="パス_902" data-name="パス 902" d="M261.093,199.472a5.481,5.481,0,0,1,1.339-4.4c.779-.972,4.109-2.576,7.844-4.146l9.836-3.776h0l-.072,6.964-9.876,2.991C265.615,198.293,261.093,199.472,261.093,199.472Z" transform="translate(0 18.397)" fill="none" stroke="#000" stroke-miterlimit="10" stroke-width="1.012"/>
  </g>
</svg>
