<svg xmlns="http://www.w3.org/2000/svg" width="110.605" height="273.339" viewBox="0 0 110.605 273.339">
  <g id="グループ_716" data-name="グループ 716" transform="translate(-417 -2878.349)" opacity="0.3">
    <g id="bike" transform="translate(53.939 2874.474)">
      <path id="パス_945" data-name="パス 945" d="M403.247,224.469a22.349,22.349,0,0,0,5.1,5.584l-.022-.016v29.34c0,4.072,1.04,7.23,3.074,9.206v.147a1.222,1.222,0,0,0,.718,1.112h0v1.685c0,3.253,2.5,5.188,5.668,5.188s5.667-1.936,5.667-5.188v-1.685h0a1.221,1.221,0,0,0,.718-1.112v-.147c2.034-1.976,3.075-5.134,3.075-9.206v-29.34l-.025.017a22.34,22.34,0,0,0,5.1-5.585,4.03,4.03,0,0,0,.613.767h0c-.127,10.66-.045,20.37-.045,20.37.222,1.756.693,3.832,2.369,3.832h6.566c1.264,0,2.542-.8,2.542-3.832,0,0-.111-8.95-.324-20.117h0a3.4,3.4,0,0,0,1.349-2.562,8.68,8.68,0,0,0-1.5-4.944c-.2-9.051-.447-18.546-.753-25.46h3.889a.612.612,0,0,0,.612-.612V188.98a.612.612,0,0,0-.612-.612h-4.1c-.6-10.27-3.416-27.5-4.382-37.882a3.629,3.629,0,0,1,.351.288c1.077,1.038,1.955,5.907,2.674,6.785s1.517.319,2.075-.319-1.357-6.067-3.384-8.628a5.987,5.987,0,0,0-1.982-1.643v-.026h2.893v.226a.612.612,0,0,0,.612.612h12.124a.612.612,0,0,0,.612-.612V143.4a.611.611,0,0,0-.612-.612H441.785a.612.612,0,0,0-.612.612h-2.955c0-.721,0-1.569-.01-2.522v.03c1.452-1.594,3.538-7.663,4.431-11.471h.43a1.224,1.224,0,0,0,1.224-1.224V127.14a2.448,2.448,0,0,0-2.448-2.448h-1.078a1.224,1.224,0,0,0-1.224,1.224v.073h-1.539V126a138.646,138.646,0,0,0-.9-15.334c-.72-3.9-2.017-10.051-4.83-14.482l0,0c1.01.4,2.2.871,3.46,1.368-.088.19-.143.3-.143.3l6.668,2.905c.136-.14.253-.282.376-.424.272.115.533.226.778.333,3.07,1.332,13.251,6.406,14.129,6.646s2.73-3.8,1.872-4.1c-.427-.149-11.571-5.058-14.2-6.2-.221-.1-.49-.209-.779-.329h0a1.628,1.628,0,0,0-.059-.69s.044.113-.319-1.1c-.012-.041-.021-.089-.031-.134a53.922,53.922,0,0,1,6.457-.564c.515,0,1.373-.022,2.424-.054h-.028c2.2.17,4.076.308,4.993.383,2.933.239,4.187.129,4.679-.48.046-.057.084-.114.124-.171a13.563,13.563,0,0,1,3.105.141c.479.328.569,2.874.03,3.226-.6.246-4.73.665-5.089,1.683,0,0-.359,1.2.689,1.2h11.016c1.048,0,.689-1.2.689-1.2-.359-1.018-4.49-1.437-5.089-1.683s-.539-2.089-.659-3.286-1.436-1.2-3.532-1.137l-.811.02a1.584,1.584,0,0,0-1.5-1.546c-1.933-.252-1.257,1.257-2.574,1.616l-.016,0c-4.619.065-11.2.1-15.013-.094.02-1.068.067-2.073-.223-2.124-.266-.047-4.138-.87-4.98-.9a1.669,1.669,0,0,0-1.2.307c-1.49-.223-3.98-.5-6.516-.806V88.008a3.032,3.032,0,0,0-.627-1.837V77.1c-.05.02-.1.034-.153.052a6.718,6.718,0,0,0,1.353-.665c.839,1.242,1.927,2.445,3.006,2.445,2.233,0,4.514-5.149,4.514-5.149a6.978,6.978,0,0,0,.1-1.094,4.351,4.351,0,0,0-4.613-4.294,4.693,4.693,0,0,0-3.73,1.7h0V63.912a3.046,3.046,0,0,0-1.221-2.432V50.132a1.836,1.836,0,0,0-1.447-1.793V44.058c0-.676-.548-.928-1.224-.928s-1.224.252-1.224.928v.089h-1.393c-.079-10.354-.157-20.84-.157-21.931a5.224,5.224,0,0,0-.718-2.449V9.563c0-3.253-2.5-5.188-5.667-5.188s-5.668,1.936-5.668,5.188v10.2a5.231,5.231,0,0,0-.718,2.449c0,1.092-.156,21.92-.156,21.92v.011h-1.394v-.089c0-.676-.548-.928-1.224-.928s-1.224.252-1.224.928V48.34a1.835,1.835,0,0,0-1.446,1.793V61.479a3.045,3.045,0,0,0-1.222,2.432v6.182h0a4.7,4.7,0,0,0-3.731-1.7,4.351,4.351,0,0,0-4.613,4.294,6.974,6.974,0,0,0,.1,1.094s2.281,5.149,4.514,5.149c1.08,0,2.167-1.2,3.006-2.445a6.718,6.718,0,0,0,1.353.665c-.05-.018-.1-.032-.153-.052v9.069a3.035,3.035,0,0,0-.628,1.839V89.3c-2.537.311-5.027.583-6.517.806h0a1.666,1.666,0,0,0-1.2-.308c-.842.032-4.714.855-4.98.9-.151.027-.21.315-.23.733h0c-6.324.9-13.889,1.791-15.023,1.482-1.317-.359-.641-1.868-2.574-1.616a1.6,1.6,0,0,0-1.027,2.753c.491.608,1.745.719,4.679.48,2.116-.173,9.309-.682,13.956-1.147a5.829,5.829,0,0,1-.141,1.515c-.363,1.21-.319,1.1-.319,1.1a1.628,1.628,0,0,0-.059.69c-.289.12-.558.233-.779.329-2.634,1.137-13.778,6.046-14.2,6.2-.858.3.994,4.341,1.872,4.1s11.059-5.313,14.129-6.646c.246-.106.507-.218.778-.333.123.142.24.285.376.424l6.668-2.905s-.055-.114-.143-.3c1.258-.5,2.45-.966,3.46-1.368l0,0c-2.813,4.431-4.11,10.578-4.83,14.482a73,73,0,0,0-.665,8.12c-.684.347-1.077,1.061-1.078,2.528,0,1.565,0,3.138.046,4.681v0h-.824a.608.608,0,0,0-.546-.347h-6.619a.612.612,0,0,0-.612.612v1.586a.612.612,0,0,0,.612.612H395.4a.608.608,0,0,0,.546-.347h.916q.038.636.091,1.258c-.459.012-.884.03-1.08.03-.44,0-1.478-.011-1.478,1.106s-.3,4.393,3.672,7.5,3.813,4.059,3.7,5.131a3.686,3.686,0,0,0,.028-.8h-4.059V143.4H394.4a.611.611,0,0,0-.612-.612H381.66a.611.611,0,0,0-.612.612v3.765a.612.612,0,0,0,.612.612h12.124a.612.612,0,0,0,.612-.612v-.226h3.34V150.3M439.544,128.1v.113a1.221,1.221,0,0,0,.9,1.176,15.6,15.6,0,0,1-.868,3.581c-.532,1-1.015,1.832-1.411,2.487v.013c-.025-2.318-.061-4.837-.113-7.37Z" transform="translate(0)" fill="none" stroke="#000" stroke-linecap="round" stroke-linejoin="round" stroke-width="1"/>
      <g id="グループ_656" data-name="グループ 656" transform="translate(411.091 16.429)">
        <path id="パス_946" data-name="パス 946" d="M448.911,71.486c-.057-7.337-.308-39.665-.308-41.628a6.417,6.417,0,0,0-12.772,0c0,1.963-.251,34.291-.308,41.628h13.387Z" transform="translate(-435.524 -24.071)" fill="none" stroke="#000" stroke-linecap="round" stroke-linejoin="round" stroke-width="1"/>
      </g>
      <path id="パス_947" data-name="パス 947" d="M442.869,4.375c-3.165,0-5.668,1.936-5.668,5.188v10.2a6.48,6.48,0,0,1,11.335,0V9.563C448.536,6.311,446.033,4.375,442.869,4.375Z" transform="translate(-25.084)" fill="none" stroke="#000" stroke-linecap="round" stroke-linejoin="round" stroke-width="1"/>
      <path id="パス_948" data-name="パス 948" d="M459.588,72.867h1.9a1.82,1.82,0,0,1,.389.043V68.629c0-.676-.548-.928-1.224-.928s-1.224.252-1.224.928v4.255C459.482,72.879,459.534,72.867,459.588,72.867Z" transform="translate(-33.708 -24.571)" fill="none" stroke="#000" stroke-linecap="round" stroke-linejoin="round" stroke-width="1"/>
      <g id="グループ_658" data-name="グループ 658" transform="translate(424.327 44.147)">
        <path id="パス_949" data-name="パス 949" d="M457.219,74.277a1.784,1.784,0,0,1,.133-.162c.028-.031.054-.062.084-.091a1.775,1.775,0,0,1,.189-.156,1.923,1.923,0,0,1,.17-.106l.06-.032a1.825,1.825,0,0,1,.689-.2h0V69.363h-1.393c.012,1.667.025,3.329.037,4.95C457.2,74.3,457.21,74.29,457.219,74.277Z" transform="translate(-457.152 -69.363)" fill="none" stroke="#000" stroke-linecap="round" stroke-linejoin="round" stroke-width="1"/>
        <g id="グループ_657" data-name="グループ 657" transform="translate(0.037 4.149)">
          <path id="パス_950" data-name="パス 950" d="M459.92,88.7h.705a3.035,3.035,0,0,1,1.839.628V77.979a1.836,1.836,0,0,0-1.836-1.836h-1.9c-.054,0-.106.012-.16.016a1.862,1.862,0,0,0-.689.2c-.02.01-.04.021-.06.032a1.835,1.835,0,0,0-.17.106,1.927,1.927,0,0,0-.189.156c-.03.028-.056.06-.084.091a1.789,1.789,0,0,0-.133.162l-.03.043c.041,5.363.079,10.244.1,13.22A3.049,3.049,0,0,1,459.92,88.7Z" transform="translate(-457.213 -76.143)" fill="none" stroke="#000" stroke-linecap="round" stroke-linejoin="round" stroke-width="1"/>
        </g>
      </g>
      <g id="グループ_659" data-name="グループ 659" transform="translate(424.467 60.852)">
        <path id="パス_951" data-name="パス 951" d="M462.959,109.545a6.94,6.94,0,0,1-.093-1.05,4.127,4.127,0,0,1,.884-2.6V99.718a3.06,3.06,0,0,0-3.06-3.06h-.7a3.038,3.038,0,0,0-2.6,1.485c0,.578.009,1.085.012,1.508h.106a2.839,2.839,0,0,1,2.839,2.838v7.255A9.6,9.6,0,0,0,462.959,109.545Z" transform="translate(-457.38 -96.658)" fill="none" stroke="#000" stroke-linecap="round" stroke-linejoin="round" stroke-width="1"/>
      </g>
      <g id="グループ_660" data-name="グループ 660" transform="translate(412.605 61.649)">
        <path id="パス_952" data-name="パス 952" d="M448.357,100.156a7.208,7.208,0,0,0-10.359,0h10.359Z" transform="translate(-437.998 -97.961)" fill="none" stroke="#000" stroke-linecap="round" stroke-linejoin="round" stroke-width="0.5"/>
      </g>
      <g id="グループ_661" data-name="グループ 661" transform="translate(429.952 68.395)">
        <path id="パス_953" data-name="パス 953" d="M475.571,113.278a4.625,4.625,0,0,0-9.227,0,6.981,6.981,0,0,0,.1,1.094h9.029A6.981,6.981,0,0,0,475.571,113.278Z" transform="translate(-466.344 -108.984)" fill="none" stroke="#000" stroke-linecap="round" stroke-linejoin="round" stroke-width="0.5"/>
      </g>
      <path id="パス_954" data-name="パス 954" d="M471.021,122.937c-2.234,0-4.515-5.149-4.515-5.149h9.029S473.254,122.937,471.021,122.937Z" transform="translate(-36.454 -44.005)" fill="none" stroke="#000" stroke-linecap="round" stroke-linejoin="round" stroke-width="0.5"/>
      <path id="パス_955" data-name="パス 955" d="M431.783,72.867h-1.9a1.821,1.821,0,0,0-.39.043V68.629c0-.676.548-.928,1.224-.928s1.224.252,1.224.928v4.255C431.889,72.879,431.837,72.867,431.783,72.867Z" transform="translate(-22.094 -24.571)" fill="none" stroke="#000" stroke-linecap="round" stroke-linejoin="round" stroke-width="1"/>
      <g id="グループ_663" data-name="グループ 663" transform="translate(405.954 44.147)">
        <path id="パス_956" data-name="パス 956" d="M434.82,74.277a1.682,1.682,0,0,0-.133-.162c-.028-.031-.054-.062-.084-.091a1.775,1.775,0,0,0-.189-.156,1.927,1.927,0,0,0-.169-.106l-.06-.032a1.821,1.821,0,0,0-.689-.2h0V69.363h1.394c-.013,1.667-.026,3.329-.038,4.95C434.841,74.3,434.829,74.29,434.82,74.277Z" transform="translate(-429.6 -69.363)" fill="none" stroke="#000" stroke-linecap="round" stroke-linejoin="round" stroke-width="1"/>
        <g id="グループ_662" data-name="グループ 662" transform="translate(0 4.149)">
          <path id="パス_957" data-name="パス 957" d="M429.674,88.7h-.7a3.031,3.031,0,0,0-1.838.628V77.979a1.836,1.836,0,0,1,1.836-1.836h1.9c.054,0,.106.012.16.016a1.862,1.862,0,0,1,.689.2c.02.01.04.021.06.032a1.724,1.724,0,0,1,.359.263c.03.028.056.06.084.091a1.783,1.783,0,0,1,.133.162l.03.043c-.041,5.363-.079,10.244-.1,13.22A3.049,3.049,0,0,0,429.674,88.7Z" transform="translate(-427.131 -76.143)" fill="none" stroke="#000" stroke-linecap="round" stroke-linejoin="round" stroke-width="1"/>
        </g>
      </g>
      <g id="グループ_664" data-name="グループ 664" transform="translate(396.39 68.395)">
        <path id="パス_958" data-name="パス 958" d="M411.5,113.278a4.625,4.625,0,0,1,9.227,0,6.974,6.974,0,0,1-.1,1.094H411.6A6.977,6.977,0,0,1,411.5,113.278Z" transform="translate(-411.502 -108.984)" fill="none" stroke="#000" stroke-linecap="round" stroke-linejoin="round" stroke-width="0.5"/>
      </g>
      <path id="パス_959" data-name="パス 959" d="M416.178,122.937c2.234,0,4.515-5.149,4.515-5.149h-9.029S413.945,122.937,416.178,122.937Z" transform="translate(-15.175 -44.005)" fill="none" stroke="#000" stroke-linecap="round" stroke-linejoin="round" stroke-width="0.5"/>
      <g id="グループ_666" data-name="グループ 666" transform="translate(405.208 77.1)">
        <g id="グループ_665" data-name="グループ 665">
          <path id="パス_960" data-name="パス 960" d="M446.9,124.075a4.7,4.7,0,0,1-.763.673c.025-.017.052-.029.076-.047a4.64,4.64,0,0,1-.6.369,2.819,2.819,0,0,1,.184.982c0,2.461-3.272,4.457-7.308,4.457s-7.308-2-7.308-4.457a2.819,2.819,0,0,1,.184-.982,4.683,4.683,0,0,1-.6-.369c.025.018.051.03.076.047a4.726,4.726,0,0,1-.763-.673,15.527,15.527,0,0,1-4.169-.867v9.07a3.044,3.044,0,0,1,2.433-1.223h.705a3,3,0,0,1,1.718.54v-.012a3.057,3.057,0,0,1,1.342,2.532v.242a9.7,9.7,0,0,0,1.2-.337c2.54-.958,3.683-2.215,5.18-2.215s2.639,1.258,5.179,2.215a9.7,9.7,0,0,0,1.2.337v-.242a3.057,3.057,0,0,1,1.342-2.532v.012a3,3,0,0,1,1.718-.54h.705a3.044,3.044,0,0,1,2.433,1.223v-9.07A15.527,15.527,0,0,1,446.9,124.075Z" transform="translate(-425.912 -123.208)" fill="none" stroke="#000" stroke-linecap="round" stroke-linejoin="round" stroke-width="1"/>
        </g>
        <path id="パス_961" data-name="パス 961" d="M436.015,141.427h0l-.04.009Z" transform="translate(-429.816 -130.277)" fill="none" stroke="#000" stroke-linecap="round" stroke-linejoin="round" stroke-width="1"/>
        <path id="パス_962" data-name="パス 962" d="M456.924,141.436l-.041-.01h0Z" transform="translate(-437.929 -130.277)" fill="none" stroke="#000" stroke-linecap="round" stroke-linejoin="round" stroke-width="1"/>
      </g>
      <g id="グループ_668" data-name="グループ 668" transform="translate(410.065 78.592)">
        <path id="パス_963" data-name="パス 963" d="M436.015,141.427h0l-.04.009Z" transform="translate(-434.673 -131.769)" fill="none" stroke="#000" stroke-linecap="round" stroke-linejoin="round" stroke-width="0.5"/>
        <path id="パス_964" data-name="パス 964" d="M456.924,141.436l-.041-.01h0Z" transform="translate(-442.785 -131.769)" fill="none" stroke="#000" stroke-linecap="round" stroke-linejoin="round" stroke-width="0.5"/>
        <g id="グループ_667" data-name="グループ 667">
          <path id="パス_965" data-name="パス 965" d="M448.691,126.015a2.819,2.819,0,0,1,.184.982c0,2.461-3.272,4.457-7.308,4.457s-7.308-2-7.308-4.457a2.819,2.819,0,0,1,.184-.982,4.689,4.689,0,0,1-.6-.369v6.884a3.057,3.057,0,0,1,1.342,2.532v.242a9.71,9.71,0,0,0,1.2-.337c2.54-.958,3.683-2.215,5.18-2.215s2.639,1.258,5.179,2.215a9.711,9.711,0,0,0,1.2.337v-.242a3.057,3.057,0,0,1,1.342-2.532v-6.884A4.644,4.644,0,0,1,448.691,126.015Z" transform="translate(-433.847 -125.646)" fill="none" stroke="#000" stroke-linecap="round" stroke-linejoin="round" stroke-width="0.5"/>
        </g>
      </g>
      <g id="グループ_669" data-name="グループ 669" transform="translate(398.065 85.697)">
        <path id="パス_966" data-name="パス 966" d="M453.2,143.211c.009-.056.017-.116.023-.176a1.989,1.989,0,0,1,.458-1.375c-2.623-.392-8.352-.938-11.969-1.579h0l-.032-.005c-.237-.042-.465-.085-.681-.128l-.025,0a12.617,12.617,0,0,1-1.834-.473c-2.54-.958-3.683-2.215-5.179-2.215s-2.64,1.258-5.18,2.215a12.628,12.628,0,0,1-1.834.473l-.024,0c-.217.043-.444.086-.681.128l-.032.005h0c-3.616.641-9.346,1.187-11.969,1.579a1.986,1.986,0,0,1,.458,1.375c.007.06.014.119.023.176a3.966,3.966,0,0,1-.032,1.834c.523-.109,1.124-.237,1.818-.395l.55-.2.1-.036.829-.306.264-.1.336-.122.45-.162.248-.089.5-.177.168-.059c.188-.065.371-.129.539-.186s.37-.119.572-.177l.136-.04c.2-.057.415-.114.64-.171l.12-.029c.206-.051.421-.1.643-.152l.142-.032c.246-.055.5-.109.76-.163l.2-.04q.363-.073.739-.144l.1-.02c.272-.051.548-.1.827-.149l.25-.043q.408-.07.819-.136l.218-.034.665-.1.282-.043.641-.091a1.834,1.834,0,0,1,1.8-1.493h.135a.612.612,0,0,1,.612.612v.136a5.368,5.368,0,0,1,6.329,0v-.136a.612.612,0,0,1,.612-.612h.135a1.834,1.834,0,0,1,1.8,1.493l.641.091.282.043.665.1.218.034q.412.067.819.136l.25.043c.279.048.556.1.828.149l.1.02q.376.071.739.144l.2.04c.26.054.515.108.76.163l.142.032q.332.076.643.152l.119.029c.225.056.438.114.639.171l.137.04c.2.059.4.118.572.177s.351.121.539.186l.169.059.5.177.248.089.449.162.336.122.265.1.828.306.1.036.549.2c.7.157,1.3.286,1.818.395A3.966,3.966,0,0,1,453.2,143.211Z" transform="translate(-414.24 -137.255)" fill="none" stroke="#000" stroke-linecap="round" stroke-linejoin="round" stroke-width="1"/>
      </g>
      <circle id="楕円形_85" data-name="楕円形 85" cx="4.43" cy="4.43" r="4.43" transform="translate(413.354 106.232)" stroke-width="0.5" stroke="#000" stroke-linecap="round" stroke-linejoin="round" fill="none"/>
      <g id="グループ_670" data-name="グループ 670" transform="translate(400.871 93.719)">
        <path id="パス_967" data-name="パス 967" d="M444.945,204.634a6.285,6.285,0,0,1,2.414.911c.674-3.01,2.224-9.862,4.12-17.859,2.22-9.363.9-27.8-.773-31.754-.849-2-2.837-3.632-5.524-4.756-1.286-.228-2.731-.4-4.1-.515a1.825,1.825,0,0,1-1.43.7h-.135a.611.611,0,0,1-.612-.612V150.5c-1.827-.111-3.164-.138-3.164-.138s-1.337.027-3.165.138v.244a.611.611,0,0,1-.612.612h-.135a1.826,1.826,0,0,1-1.43-.7c-1.371.119-2.816.287-4.1.515-2.687,1.124-4.675,2.755-5.524,4.756-1.676,3.951-2.993,22.391-.773,31.754,1.9,8,3.446,14.849,4.12,17.859a6.285,6.285,0,0,1,2.414-.911" transform="translate(-418.825 -150.364)" fill="none" stroke="#000" stroke-linecap="round" stroke-linejoin="round" stroke-width="1"/>
        <path id="パス_968" data-name="パス 968" d="M449.632,165.341c-.479-2.275-4.49-6.466-11.494-6.466s-11.016,4.191-11.5,6.466a69.164,69.164,0,0,0-1.081,23.469c.786,5.817,2.548,14.315,3.37,19.127a15.864,15.864,0,0,1,2.806-.208h12.8a15.864,15.864,0,0,1,2.806.208c.822-4.812,2.584-13.31,3.37-19.127A69.165,69.165,0,0,0,449.632,165.341Z" transform="translate(-421.224 -153.666)" fill="none" stroke="#000" stroke-linecap="round" stroke-linejoin="round" stroke-width="0.5"/>
      </g>
      <path id="パス_969" data-name="パス 969" d="M436.885,319.571c-9.873,0-13.862-10.08-14.466-13.291-1.193-6.346-.484-16.644.254-26.7s2.6-35.442,3.255-37.6,4.665-1.916,10.957-1.916,10.306-.239,10.957,1.916,2.518,27.554,3.255,37.6,1.447,20.355.254,26.7C450.746,309.491,446.757,319.571,436.885,319.571Z" transform="translate(-19.101 -91.446)" fill="none" stroke="#000" stroke-linecap="round" stroke-linejoin="round" stroke-width="0.5"/>
      <g id="グループ_671" data-name="グループ 671" transform="translate(398.468 147.781)">
        <path id="パス_970" data-name="パス 970" d="M452.68,306.477c1.712-7.487.384-19.89-.058-25.029-1.1-12.751-4.531-35.3-5.064-38.8-.565-3.707-4.448-3.951-6.943-3.951h-12.8c-2.5,0-6.378.244-6.943,3.951-.533,3.5-3.969,26.045-5.064,38.8-.442,5.14-1.77,17.543-.057,25.029a7.923,7.923,0,0,1,4.385,7.37c0-1.531-1.268-2.87-3.171-3.629h0c1.9.759,3.171,2.1,3.171,3.629a2.951,2.951,0,0,1-.458,1.542c2.944,4.484,7.639,8.8,14.538,8.8s11.593-4.321,14.537-8.8a2.951,2.951,0,0,1-.458-1.542A7.923,7.923,0,0,1,452.68,306.477Z" transform="translate(-414.899 -238.701)" fill="none" stroke="#000" stroke-linecap="round" stroke-linejoin="round" stroke-width="1"/>
      </g>
      <g id="グループ_672" data-name="グループ 672" transform="translate(408.325 230.036)">
        <path id="パス_971" data-name="パス 971" d="M440.464,376.344a15.349,15.349,0,0,1-9.46-3.237v29.34c0,4.072,1.04,7.23,3.074,9.206v-2.407a2.448,2.448,0,0,1,2.448-2.448H444.4a2.448,2.448,0,0,1,2.448,2.448v2.407c2.034-1.976,3.075-5.134,3.075-9.206v-29.34A15.35,15.35,0,0,1,440.464,376.344Z" transform="translate(-431.004 -373.107)" fill="none" stroke="#000" stroke-linecap="round" stroke-linejoin="round" stroke-width="1"/>
      </g>
      <path id="長方形_210" data-name="長方形 210" d="M4,0H8.772a4,4,0,0,1,4,4v.226a2,2,0,0,1-2,2H2a2,2,0,0,1-2-2V4A4,4,0,0,1,4,0Z" transform="translate(411.399 263.727)" fill="none" stroke="#000" stroke-linecap="round" stroke-linejoin="round" stroke-width="1"/>
      <path id="長方形_211" data-name="長方形 211" d="M1.676,0H7.424A1.676,1.676,0,0,1,9.1,1.676v0a0,0,0,0,1,0,0H0a0,0,0,0,1,0,0v0A1.676,1.676,0,0,1,1.676,0Z" transform="translate(413.234 262.05)" fill="none" stroke="#000" stroke-linecap="round" stroke-linejoin="round" stroke-width="1"/>
      <path id="長方形_212" data-name="長方形 212" d="M2,0H4.157a2,2,0,0,1,2,2V4.689a0,0,0,0,1,0,0H0a0,0,0,0,1,0,0V2A2,2,0,0,1,2,0Z" transform="translate(414.706 257.361)" fill="none" stroke="#000" stroke-linecap="round" stroke-linejoin="round" stroke-width="1"/>
      <g id="グループ_673" data-name="グループ 673" transform="translate(412.117 269.841)">
        <path id="パス_972" data-name="パス 972" d="M448.03,438.26h-.716a8.451,8.451,0,0,1-1.372.537h0a3.15,3.15,0,0,1-6.149,0h0a8.5,8.5,0,0,1-1.371-.538h-.716a1.213,1.213,0,0,1-.505-.112v1.685c0,3.253,2.5,5.188,5.668,5.188s5.667-1.936,5.667-5.188v-1.685A1.213,1.213,0,0,1,448.03,438.26Z" transform="translate(-437.201 -438.148)" fill="none" stroke="#000" stroke-linecap="round" stroke-linejoin="round" stroke-width="1"/>
      </g>
      <g id="グループ_674" data-name="グループ 674" transform="translate(414.706 269.953)">
        <path id="パス_973" data-name="パス 973" d="M441.431,438.835a3.146,3.146,0,0,0,6.157,0,2.057,2.057,0,0,0-.062-.5h-6.032A2.057,2.057,0,0,0,441.431,438.835Z" transform="translate(-441.431 -438.331)" fill="none" stroke="#000" stroke-linecap="round" stroke-linejoin="round" stroke-width="1"/>
      </g>
      <path id="パス_974" data-name="パス 974" d="M482.62,398.548H471.143c.222,1.756.693,3.832,2.369,3.832h6.566C481.342,402.38,482.62,401.582,482.62,398.548Z" transform="translate(-38.254 -152.942)" fill="none" stroke="#000" stroke-linecap="round" stroke-linejoin="round" stroke-width="0.5"/>
      <path id="パス_975" data-name="パス 975" d="M440.464,374.717a15.213,15.213,0,0,1-8.619-2.637,15.669,15.669,0,0,1-.841-3.166c1.436,1.437,5.868,3.109,9.46,3.109s8.023-1.672,9.46-3.109a15.632,15.632,0,0,1-.842,3.166A15.213,15.213,0,0,1,440.464,374.717Z" transform="translate(-22.679 -141.444)" fill="none" stroke="#000" stroke-linecap="round" stroke-linejoin="round" stroke-width="0.5"/>
      <path id="パス_976" data-name="パス 976" d="M474.63,149.208h0l-.549-.2Z" transform="translate(-39.394 -56.117)" fill="none" stroke="#000" stroke-miterlimit="10" stroke-width="1"/>
      <path id="パス_977" data-name="パス 977" d="M467.3,147.432l-.549-.2-.1-.036-.828-.306-.265-.1-.336-.122-.449-.162-.248-.089-.5-.177-.169-.059c-.188-.065-.371-.129-.539-.186s-.369-.119-.572-.177l-.136-.04c-.2-.057-.415-.114-.639-.171l-.119-.029q-.31-.076-.643-.152l-.142-.032c-.245-.055-.5-.109-.76-.163l-.2-.04q-.363-.073-.739-.144l-.1-.02c-.272-.051-.549-.1-.828-.149l-.25-.043q-.407-.07-.819-.136l-.218-.034-.665-.1-.282-.043-.641-.091a1.805,1.805,0,0,1,.035.343v2.449a1.818,1.818,0,0,1-.406,1.139,26.974,26.974,0,0,1,6.926,1.26c1.07.458,3.262,1.318,5.677,2.27a32.255,32.255,0,0,0,1.507-3.7c-.679-.259-1.35-.513-2-.756Z" transform="translate(-32.063 -54.341)" fill="none" stroke="#000" stroke-linecap="round" stroke-linejoin="round" stroke-width="1"/>
      <path id="長方形_213" data-name="長方形 213" d="M.646,0h0A1.938,1.938,0,0,1,2.583,1.938V4.184A1.938,1.938,0,0,1,.646,6.121h0A.646.646,0,0,1,0,5.476V.646A.646.646,0,0,1,.646,0Z" transform="translate(414.62 94.713) rotate(180)" fill="none" stroke="#000" stroke-linecap="round" stroke-linejoin="round" stroke-width="1"/>
      <path id="パス_978" data-name="パス 978" d="M402.978,150.15c-.313.795.319,2.934,2.113,4.761l6.668-2.905a35.983,35.983,0,0,1-1.651-4s.49-.467.214-2.195c-.122-.759.05-1.923-1.685-1.857-.842.032-4.714.854-4.98.9-.5.089,0,3-.359,4.2S402.978,150.15,402.978,150.15Z" transform="translate(-11.775 -54.155)" fill="none" stroke="#000" stroke-linecap="round" stroke-linejoin="round" stroke-width="1"/>
      <g id="グループ_675" data-name="グループ 675" transform="translate(372.553 91.268)">
        <path id="パス_979" data-name="パス 979" d="M374.055,146.386c1.933-.252,1.257,1.257,2.574,1.616,1.134.31,8.7-.579,15.023-1.482-.025.524.012,1.256.012,1.95-4.647.466-11.841.975-13.956,1.148-2.933.239-4.187.129-4.679-.48A1.6,1.6,0,0,1,374.055,146.386Z" transform="translate(-372.553 -146.358)" fill="none" stroke="#000" stroke-linecap="round" stroke-linejoin="round" stroke-width="1"/>
      </g>
      <path id="パス_980" data-name="パス 980" d="M378.306,161.732c.427-.149,11.571-5.058,14.2-6.2.221-.1.49-.209.779-.329.009.106.025.218.047.336,0,.026.01.052.016.078a5.731,5.731,0,0,0,.422,1.235l.017.038a8.61,8.61,0,0,0,1.294,1.961c-.272.115-.532.226-.778.333-3.07,1.332-13.251,6.406-14.129,6.646S377.448,162.031,378.306,161.732Z" transform="translate(-2.146 -58.524)" fill="none" stroke="#000" stroke-linecap="round" stroke-linejoin="round" stroke-width="1"/>
      <g id="グループ_676" data-name="グループ 676" transform="translate(435.585 89.792)">
        <path id="パス_981" data-name="パス 981" d="M484.725,146.977h.005c.02-1.068.067-2.073-.223-2.124-.266-.047-4.138-.87-4.98-.9-1.735-.066-1.564,1.1-1.685,1.857-.277,1.728.214,2.195.214,2.195C478.162,147.666,480.936,146.977,484.725,146.977Z" transform="translate(-476.405 -143.948)" fill="none" stroke="#000" stroke-linecap="round" stroke-linejoin="round" stroke-width="1"/>
        <path id="パス_982" data-name="パス 982" d="M477.2,150.573a35.988,35.988,0,0,1-1.651,4l6.668,2.905c1.793-1.827,2.425-3.966,2.113-4.761,0,0,.044.113-.319-1.1-.012-.041-.021-.089-.031-.134l-.039.006S477.093,150.909,477.2,150.573Z" transform="translate(-475.548 -146.518)" fill="none" stroke="#000" stroke-linecap="round" stroke-linejoin="round" stroke-width="1"/>
      </g>
      <g id="グループ_677" data-name="グループ 677" transform="translate(452.869 91.268)">
        <path id="パス_983" data-name="パス 983" d="M516.273,146.386c-1.933-.252-1.257,1.257-2.574,1.616l-.016,0c1.715-.024,3.16-.053,4.089-.074A1.584,1.584,0,0,0,516.273,146.386Z" transform="translate(-507.629 -146.358)" fill="none" stroke="#000" stroke-linecap="round" stroke-linejoin="round" stroke-width="1"/>
        <path id="パス_984" data-name="パス 984" d="M508.783,151.274c2.933.239,4.187.129,4.679-.48.046-.057.084-.114.124-.171-2.846.025-7.012.184-9.795.268C505.994,151.061,507.866,151.2,508.783,151.274Z" transform="translate(-503.79 -148.013)" fill="none" stroke="#000" stroke-linecap="round" stroke-linejoin="round" stroke-width="1"/>
      </g>
      <path id="パス_985" data-name="パス 985" d="M503.839,161.732c-.427-.149-11.571-5.058-14.2-6.2-.221-.1-.49-.209-.779-.329-.009.106-.025.218-.047.336,0,.026-.01.052-.016.078a5.73,5.73,0,0,1-.422,1.235l-.017.038a8.57,8.57,0,0,1-1.294,1.961c.272.115.533.226.778.333,3.07,1.332,13.251,6.406,14.129,6.646S504.7,162.031,503.839,161.732Z" transform="translate(-44.429 -58.524)" fill="none" stroke="#000" stroke-linecap="round" stroke-linejoin="round" stroke-width="1"/>
      <path id="パス_986" data-name="パス 986" d="M444.456,143.516c-.683,0-1.819.088-3.165.236v4.093c1.827-.111,3.165-.138,3.165-.138s1.337.027,3.164.138v-4.093C446.274,143.6,445.138,143.516,444.456,143.516Z" transform="translate(-26.671 -53.988)" fill="none" stroke="#000" stroke-linecap="round" stroke-linejoin="round" stroke-width="1"/>
      <path id="パス_987" data-name="パス 987" d="M416.678,147.432l.548-.2.1-.036.829-.306.264-.1.336-.122.45-.162.248-.089.5-.177.168-.059c.188-.065.371-.129.539-.186s.37-.119.572-.177l.136-.04c.2-.057.415-.114.64-.171l.12-.029c.206-.051.421-.1.643-.152l.142-.032c.246-.055.5-.109.76-.163l.2-.04q.363-.073.739-.144l.1-.02c.272-.051.548-.1.827-.149l.25-.043q.408-.07.819-.136l.218-.034.665-.1.281-.043.641-.091a1.805,1.805,0,0,0-.035.343v2.449a1.818,1.818,0,0,0,.406,1.139,26.979,26.979,0,0,0-6.926,1.26c-1.07.458-3.263,1.318-5.677,2.27a32.25,32.25,0,0,1-1.507-3.7c.679-.259,1.35-.513,2-.756Z" transform="translate(-16.345 -54.341)" fill="none" stroke="#000" stroke-linecap="round" stroke-linejoin="round" stroke-width="1"/>
      <g id="グループ_679" data-name="グループ 679" transform="translate(424.162 84.948)">
        <g id="グループ_678" data-name="グループ 678">
          <path id="パス_988" data-name="パス 988" d="M462.336,140.207l.173.023q.562.072,1.125.141l.074.009v-1.289a3.06,3.06,0,0,0-3.06-3.06h-.705a3.06,3.06,0,0,0-3.06,3.06v.242l.042.01c.187.042.384.084.592.125l.017,0c.219.043.45.087.69.129h0l.012,0,.02,0c1.193.211,2.615.412,4.08.6" transform="translate(-456.883 -136.031)" fill="none" stroke="#000" stroke-linecap="round" stroke-linejoin="round" stroke-width="1"/>
          <path id="パス_989" data-name="パス 989" d="M461.166,138.232a2.04,2.04,0,0,0-2.04,2.04v.189c1.193.211,2.615.412,4.08.6v-.789A2.04,2.04,0,0,0,461.166,138.232Z" transform="translate(-457.753 -136.885)" fill="none" stroke="#000" stroke-linecap="round" stroke-linejoin="round" stroke-width="0.5"/>
        </g>
      </g>
      <ellipse id="楕円形_86" data-name="楕円形 86" cx="6.763" cy="4.289" rx="6.763" ry="4.289" transform="translate(431.865 218.637)" fill="none" stroke="#000" stroke-linecap="round" stroke-linejoin="round" stroke-width="1"/>
      <ellipse id="楕円形_87" data-name="楕円形 87" cx="4.315" cy="1.841" rx="4.315" ry="1.841" transform="translate(434.313 221.085)" fill="none" stroke="#000" stroke-linecap="round" stroke-linejoin="round" stroke-width="0.5"/>
      <g id="グループ_680" data-name="グループ 680" transform="translate(431.864 215.046)">
        <path id="パス_990" data-name="パス 990" d="M476.231,352.2c3.736,0,6.764,1.92,6.764,4.289,0-4.352-3.028-7.881-6.764-7.881s-6.763,3.529-6.763,7.881C469.468,354.124,472.5,352.2,476.231,352.2Z" transform="translate(-469.468 -348.612)" fill="none" stroke="#000" stroke-linecap="round" stroke-linejoin="round" stroke-width="1"/>
      </g>
      <g id="グループ_681" data-name="グループ 681" transform="translate(432.867 118.478)">
        <path id="パス_991" data-name="パス 991" d="M475.342,200.526l-.3-6.386a3.668,3.668,0,0,0-2.11-3.319,59.944,59.944,0,0,1-1.169,12.564q-.337,1.42-.657,2.785C473.327,205.921,475.342,202.76,475.342,200.526Z" transform="translate(-471.107 -190.82)" fill="none" stroke="#000" stroke-linecap="round" stroke-linejoin="round" stroke-width="1"/>
      </g>
      <rect id="長方形_214" data-name="長方形 214" width="13.348" height="4.989" rx="1" transform="translate(441.173 142.792)" stroke-width="1" stroke="#000" stroke-linecap="round" stroke-linejoin="round" fill="none"/>
      <path id="長方形_215" data-name="長方形 215" d="M1.583,0h0A3.166,3.166,0,0,1,4.75,3.166v0A1.583,1.583,0,0,1,3.166,4.75H1.583A1.583,1.583,0,0,1,0,3.166V1.583A1.583,1.583,0,0,1,1.583,0Z" transform="translate(439.544 124.691)" fill="none" stroke="#000" stroke-linecap="round" stroke-linejoin="round" stroke-width="1"/>
      <g id="グループ_683" data-name="グループ 683" transform="translate(438.006 125.988)">
        <path id="パス_992" data-name="パス 992" d="M479.9,235.088h2.9v-3.539H479.85c0,.609,0,1.137,0,1.543C479.852,233.685,479.87,234.358,479.9,235.088Z" transform="translate(-479.638 -214.134)" fill="none" stroke="#000" stroke-linecap="round" stroke-linejoin="round" stroke-width="1"/>
        <g id="グループ_682" data-name="グループ 682">
          <path id="パス_993" data-name="パス 993" d="M482.043,208.654a15.6,15.6,0,0,1-.868,3.581c-.532,1-1.015,1.832-1.411,2.487.022,2.016.035,3.873.043,5.452,1.452-1.594,3.538-7.663,4.431-11.471h-1.871A1.229,1.229,0,0,1,482.043,208.654Z" transform="translate(-479.604 -205.25)" fill="none" stroke="#000" stroke-linecap="round" stroke-linejoin="round" stroke-width="1"/>
          <path id="パス_994" data-name="パス 994" d="M479.5,203.092q.026,1.056.047,2.116h1.491v-2.116Z" transform="translate(-479.503 -203.092)" fill="none" stroke="#000" stroke-linecap="round" stroke-linejoin="round" stroke-width="1"/>
        </g>
      </g>
      <path id="パス_995" data-name="パス 995" d="M448.8,33.9a6.417,6.417,0,0,0-12.772,0" transform="translate(-24.628 -9.211)" fill="none" stroke="#000" stroke-linecap="round" stroke-linejoin="round" stroke-width="0.5"/>
      <g id="グループ_684" data-name="グループ 684" transform="translate(426.203 73.739)">
        <path id="パス_996" data-name="パス 996" d="M464.06,117.716a9.627,9.627,0,0,1-2.622.2v.891a4.639,4.639,0,0,1-1.221,3.137,12.451,12.451,0,0,0,5.357-1.479,20.036,20.036,0,0,1-1.509-2.7S464.027,117.724,464.06,117.716Z" transform="translate(-460.217 -117.716)" fill="none" stroke="#000" stroke-linecap="round" stroke-linejoin="round" stroke-width="1"/>
      </g>
      <g id="グループ_685" data-name="グループ 685" transform="translate(404.733 60.852)">
        <path id="パス_997" data-name="パス 997" d="M425.926,109.545a6.948,6.948,0,0,0,.093-1.05,4.127,4.127,0,0,0-.884-2.6V99.718a3.06,3.06,0,0,1,3.06-3.06h.7a3.038,3.038,0,0,1,2.6,1.485c0,.578-.009,1.085-.012,1.508h-.106a2.839,2.839,0,0,0-2.839,2.838v7.255A9.6,9.6,0,0,1,425.926,109.545Z" transform="translate(-425.135 -96.658)" fill="none" stroke="#000" stroke-linecap="round" stroke-linejoin="round" stroke-width="1"/>
      </g>
      <g id="グループ_686" data-name="グループ 686" transform="translate(404.009 73.739)">
        <path id="パス_998" data-name="パス 998" d="M425.466,117.716a9.627,9.627,0,0,0,2.622.2v.891a4.639,4.639,0,0,0,1.221,3.137,12.451,12.451,0,0,1-5.357-1.479,20.036,20.036,0,0,0,1.509-2.7S425.5,117.724,425.466,117.716Z" transform="translate(-423.952 -117.716)" fill="none" stroke="#000" stroke-linecap="round" stroke-linejoin="round" stroke-width="1"/>
      </g>
      <path id="長方形_216" data-name="長方形 216" d="M.646,0h0A1.938,1.938,0,0,1,2.583,1.938V4.184A1.938,1.938,0,0,1,.646,6.121h0A.646.646,0,0,1,0,5.476V.646A.646.646,0,0,1,.646,0Z" transform="translate(420.949 88.592)" fill="none" stroke="#000" stroke-linecap="round" stroke-linejoin="round" stroke-width="1"/>
      <g id="グループ_687" data-name="グループ 687" transform="translate(429.405 135.903)">
        <path id="パス_999" data-name="パス 999" d="M467.172,235.122c.277,1.819,1.341,8.8,2.452,16.874,1.173-3.381.609-10.8.609-18.551a50.312,50.312,0,0,0-1.808-14.152c-1.363,5.841-2.444,10.62-2.976,13A3.974,3.974,0,0,1,467.172,235.122Z" transform="translate(-465.449 -219.293)" fill="none" stroke="#000" stroke-linecap="round" stroke-linejoin="round" stroke-width="0.5"/>
      </g>
      <g id="グループ_688" data-name="グループ 688" transform="translate(432.381 132.856)">
        <path id="パス_1000" data-name="パス 1000" d="M476.1,263.283c.5-3.752-1.782-26.981-2.021-31.052-.19-3.223-.985-13.692-1.308-17.919a3.657,3.657,0,0,1-1.969.971s-.123.521-.487,2.076a50.311,50.311,0,0,1,1.808,14.152c0,7.753.564,15.17-.609,18.551l0-.031c.737,5.359,1.5,11.2,2.059,16.332C474.969,265.383,475.957,264.324,476.1,263.283Z" transform="translate(-470.312 -214.313)" fill="none" stroke="#000" stroke-linecap="round" stroke-linejoin="round" stroke-width="0.5"/>
      </g>
      <g id="グループ_689" data-name="グループ 689" transform="translate(435.838 146.264)">
        <path id="パス_1001" data-name="パス 1001" d="M480.387,238.57a5.986,5.986,0,0,0-1.982-1.643,7.084,7.084,0,0,0-2.444-.705c.077,1.074.146,2.057.2,2.884a13.753,13.753,0,0,1,2.507,1.338,3.628,3.628,0,0,1,.351.288c1.077,1.038,1.955,5.907,2.674,6.785s1.517.319,2.075-.319S482.414,241.131,480.387,238.57Z" transform="translate(-475.961 -236.222)" fill="none" stroke="#000" stroke-linecap="round" stroke-linejoin="round" stroke-width="1"/>
      </g>
      <g id="グループ_691" data-name="グループ 691" transform="translate(427.402 94.564)">
        <g id="グループ_690" data-name="グループ 690">
          <path id="パス_1002" data-name="パス 1002" d="M472.995,202.127c0-5.226-.08-28.657-1.117-34.284-.72-3.9-2.017-10.051-4.83-14.482-.931-.371-1.707-.685-2.221-.9a13.175,13.175,0,0,0-2.646-.712l0,.047h0c2.6,1.121,4.519,2.72,5.349,4.676,1.676,3.951,2.993,22.391.773,31.754q-.32,1.353-.626,2.653l-.031.132a3.66,3.66,0,0,0,1.969-.971c.226,2.955.682,8.96,1,13.408a7.084,7.084,0,0,1,2.444.705C473.017,203.409,472.995,202.727,472.995,202.127Z" transform="translate(-462.177 -151.744)" fill="none" stroke="#000" stroke-linecap="round" stroke-linejoin="round" stroke-width="0.75"/>
        </g>
        <path id="パス_1003" data-name="パス 1003" d="M482.923,280.155c-.6-10.27-3.415-27.5-4.382-37.882a13.75,13.75,0,0,0-2.507-1.338c.044.646.08,1.2.1,1.626.239,4.071,2.526,27.3,2.021,31.052-.14,1.041-1.127,2.1-2.531,3.082.144,1.315.274,2.578.39,3.782-.01-.108-.02-.213-.031-.322Z" transform="translate(-467.396 -186.351)" fill="none" stroke="#000" stroke-linecap="round" stroke-linejoin="round" stroke-width="0.75"/>
      </g>
      <g id="グループ_692" data-name="グループ 692" transform="translate(436.249 210.509)">
        <path id="パス_1004" data-name="パス 1004" d="M482.441,346.833a11.4,11.4,0,0,0-1.163-3.884c-.583-.718-1.706-1.167-3.945-1.75a33.839,33.839,0,0,1-.7,5.051,5.874,5.874,0,0,1,2.378-.514A6.015,6.015,0,0,1,482.441,346.833Z" transform="translate(-476.633 -341.199)" fill="none" stroke="#000" stroke-linecap="round" stroke-linejoin="round" stroke-width="1"/>
      </g>
      <g id="グループ_693" data-name="グループ 693" transform="translate(435.993 188.368)">
        <path id="パス_1005" data-name="パス 1005" d="M487.249,305.02H476.215c.072.744.14,1.469.2,2.16.05.577.111,1.252.177,2h10.657a.612.612,0,0,0,.612-.612v-2.931A.612.612,0,0,0,487.249,305.02Z" transform="translate(-476.215 -305.02)" fill="none" stroke="#000" stroke-linecap="round" stroke-linejoin="round" stroke-width="1"/>
      </g>
      <g id="グループ_694" data-name="グループ 694" transform="translate(387.972 188.368)">
        <path id="パス_1006" data-name="パス 1006" d="M398.36,305.02h11.034c-.072.744-.14,1.469-.2,2.16-.05.577-.111,1.252-.177,2H398.36a.612.612,0,0,1-.612-.612v-2.931A.612.612,0,0,1,398.36,305.02Z" transform="translate(-397.748 -305.02)" fill="none" stroke="#000" stroke-linecap="round" stroke-linejoin="round" stroke-width="1"/>
      </g>
      <ellipse id="楕円形_88" data-name="楕円形 88" cx="6.763" cy="4.289" rx="6.763" ry="4.289" transform="translate(390.178 218.637)" fill="none" stroke="#000" stroke-linecap="round" stroke-linejoin="round" stroke-width="1"/>
      <ellipse id="楕円形_89" data-name="楕円形 89" cx="4.315" cy="1.841" rx="4.315" ry="1.841" transform="translate(392.626 221.085)" fill="none" stroke="#000" stroke-linecap="round" stroke-linejoin="round" stroke-width="0.5"/>
      <g id="グループ_695" data-name="グループ 695" transform="translate(390.178 215.046)">
        <path id="パス_1007" data-name="パス 1007" d="M408.116,352.2c-3.736,0-6.763,1.92-6.763,4.289,0-4.352,3.028-7.881,6.763-7.881s6.763,3.529,6.763,7.881C414.879,354.124,411.851,352.2,408.116,352.2Z" transform="translate(-401.353 -348.612)" fill="none" stroke="#000" stroke-linecap="round" stroke-linejoin="round" stroke-width="1"/>
      </g>
      <path id="パス_1008" data-name="パス 1008" d="M412.3,202.064c-.256-2.664-.257-5.561-.256-8.42,0-3.03,1.666-2.865,4.151-2.832a59.945,59.945,0,0,0,1.17,12.564q.337,1.42.657,2.785C415.806,205.913,412.561,204.729,412.3,202.064Z" transform="translate(-15.324 -72.334)" fill="none" stroke="#000" stroke-linecap="round" stroke-linejoin="round" stroke-width="1"/>
      <rect id="長方形_217" data-name="長方形 217" width="13.348" height="4.989" rx="1" transform="translate(394.396 147.781) rotate(180)" stroke-width="1" stroke="#000" stroke-linecap="round" stroke-linejoin="round" fill="none"/>
      <g id="グループ_696" data-name="グループ 696" transform="translate(394.396 143.404)">
        <rect id="長方形_218" data-name="長方形 218" width="3.34" height="3.539" fill="none" stroke="#000" stroke-linecap="round" stroke-linejoin="round" stroke-width="1"/>
      </g>
      <g id="グループ_697" data-name="グループ 697" transform="translate(395.946 125.988)">
        <path id="パス_1009" data-name="パス 1009" d="M410.843,204.943a.6.6,0,0,1-.066.265h.916q-.062-1.044-.092-2.116h-.824a.6.6,0,0,1,.066.265Z" transform="translate(-410.777 -203.092)" fill="none" stroke="#000" stroke-linecap="round" stroke-linejoin="round" stroke-width="1"/>
      </g>
      <g id="グループ_698" data-name="グループ 698" transform="translate(397.801 94.564)">
        <path id="パス_1010" data-name="パス 1010" d="M421.525,152.456c-.513.22-1.29.534-2.221.9-2.813,4.431-4.11,10.578-4.83,14.482a73.013,73.013,0,0,0-.665,8.12,7.211,7.211,0,0,1,3.073-.3c-.053-8.214.871-16.664,1.942-19.191.83-1.957,2.754-3.555,5.349-4.676l0-.047A13.176,13.176,0,0,0,421.525,152.456Z" transform="translate(-413.809 -151.744)" fill="none" stroke="#000" stroke-linecap="round" stroke-linejoin="round" stroke-width="1"/>
      </g>
      <g id="グループ_700" data-name="グループ 700" transform="translate(432.864 192.483)">
        <g id="グループ_699" data-name="グループ 699">
          <path id="パス_1011" data-name="パス 1011" d="M484.271,337.244c-.2-9.051-.447-18.546-.753-25.46H476.75l0-.04c.525,5.87,1.4,16.417-.122,23.076a5.9,5.9,0,0,1,2.384-.513A6.442,6.442,0,0,1,484.271,337.244Z" transform="translate(-473.244 -311.744)" fill="none" stroke="#000" stroke-linecap="round" stroke-linejoin="round" stroke-width="0.5"/>
          <path id="パス_1012" data-name="パス 1012" d="M476.865,367.243a8.215,8.215,0,0,1-5.693-1.98c-.127,10.66-.045,20.37-.045,20.37H482.6s-.111-8.95-.324-20.117A8.5,8.5,0,0,1,476.865,367.243Z" transform="translate(-471.101 -332.51)" fill="none" stroke="#000" stroke-linecap="round" stroke-linejoin="round" stroke-width="0.5"/>
        </g>
      </g>
      <g id="グループ_701" data-name="グループ 701" transform="translate(393.512 210.509)">
        <path id="パス_1013" data-name="パス 1013" d="M406.8,346.833a11.4,11.4,0,0,1,1.163-3.884c.583-.718,1.706-1.167,3.945-1.75a33.835,33.835,0,0,0,.7,5.051,5.879,5.879,0,0,0-2.379-.514A6.017,6.017,0,0,0,406.8,346.833Z" transform="translate(-406.8 -341.199)" fill="none" stroke="#000" stroke-linecap="round" stroke-linejoin="round" stroke-width="1"/>
      </g>
      <path id="パス_1014" data-name="パス 1014" d="M484.914,148.884c-3.789,0-6.564.69-6.669,1.026s6.741.921,6.741.921a54.525,54.525,0,0,1,6.5-.57c2.695,0,14.7-.589,15.3-.18.479.328.569,2.874.03,3.226-.6.246-4.73.665-5.089,1.683,0,0-.359,1.2.688,1.2h11.016c1.048,0,.688-1.2.688-1.2-.359-1.018-4.49-1.437-5.089-1.683s-.539-2.089-.659-3.286-1.436-1.2-3.532-1.137-14.171.3-19.919,0" transform="translate(-41.008 -56.063)" fill="none" stroke="#000" stroke-linecap="round" stroke-linejoin="round" stroke-width="1"/>
      <rect id="長方形_219" data-name="長方形 219" width="7.842" height="2.81" rx="1" transform="translate(388.169 125.641)" stroke-width="1" stroke="#000" stroke-linecap="round" stroke-linejoin="round" fill="none"/>
      <g id="グループ_702" data-name="グループ 702" transform="translate(394.39 129.362)">
        <path id="パス_1015" data-name="パス 1015" d="M410.825,208.973c-.012-.12-.016-.247-.027-.368-.459.012-.884.03-1.08.03-.44,0-1.478-.011-1.478,1.107s-.3,4.393,3.672,7.5,3.813,4.059,3.7,5.131c-.1.948.772,1.326,3.411,1.4-.653-2.868-1.5-6.572-2.476-10.706C414.326,212.822,411.082,211.637,410.825,208.973Z" transform="translate(-408.235 -208.605)" fill="none" stroke="#000" stroke-linecap="round" stroke-linejoin="round" stroke-width="1"/>
      </g>
      <g id="グループ_703" data-name="グループ 703" transform="translate(395.874 138.043)">
        <path id="パス_1016" data-name="パス 1016" d="M412.9,222.789a2.44,2.44,0,0,0-2.245,2.427,1.863,1.863,0,0,0,1.862,1.863h4.061C416.5,226.217,415.857,225.107,412.9,222.789Z" transform="translate(-410.659 -222.789)" fill="none" stroke="#000" stroke-linecap="round" stroke-linejoin="round" stroke-width="1"/>
      </g>
      <g id="グループ_704" data-name="グループ 704" transform="translate(397.736 142.333)">
        <path id="パス_1017" data-name="パス 1017" d="M413.7,229.8v7.963h1.719c.108-1.725.613-4.782.848-7.963Z" transform="translate(-413.702 -229.799)" fill="none" stroke="#000" stroke-linecap="round" stroke-linejoin="round" stroke-width="1"/>
      </g>
      <g id="グループ_705" data-name="グループ 705" transform="translate(398.467 150.296)">
        <path id="パス_1018" data-name="パス 1018" d="M421.34,242.81h-5.832a.612.612,0,0,0-.612.612v.35a.612.612,0,0,0,.612.612h5.341l.021-.138A4.452,4.452,0,0,1,421.34,242.81Z" transform="translate(-414.896 -242.81)" fill="none" stroke="#000" stroke-linecap="round" stroke-linejoin="round" stroke-width="1"/>
      </g>
      <g id="グループ_706" data-name="グループ 706" transform="translate(397.331 142.333)">
        <path id="パス_1019" data-name="パス 1019" d="M415.057,245.382c-.462,6.061-2.415,26.461-1.944,29.956.14,1.041,1.127,2.1,2.531,3.082.564-5.137,1.321-10.974,2.059-16.332l0,.031c-1.081-3.116-.687-9.661-.619-16.737" transform="translate(-413.04 -235.845)" fill="none" stroke="#000" stroke-linecap="round" stroke-linejoin="round" stroke-width="1"/>
        <path id="パス_1020" data-name="パス 1020" d="M418.44,237.522a59.988,59.988,0,0,1,.387-6.917V230.6a3.686,3.686,0,0,0,.028-.8h-1.493c-.235,3.181-.69,6.238-.842,7.963h1.919C418.44,237.681,418.44,237.6,418.44,237.522Z" transform="translate(-414.391 -229.799)" fill="none" stroke="#000" stroke-linecap="round" stroke-linejoin="round" stroke-width="0.5"/>
        <path id="パス_1021" data-name="パス 1021" d="M424.821,233.321a16.282,16.282,0,0,1-1.642-.114v5.877h1.375a3.845,3.845,0,0,1,1.254-1.4C425.576,236.654,425.238,235.156,424.821,233.321Z" transform="translate(-416.974 -231.121)" fill="none" stroke="#000" stroke-linecap="round" stroke-linejoin="round" stroke-width="0.5"/>
      </g>
      <g id="グループ_708" data-name="グループ 708" transform="translate(404.582 84.948)">
        <g id="グループ_707" data-name="グループ 707">
          <path id="パス_1022" data-name="パス 1022" d="M426.261,140.207l-.173.023q-.561.072-1.125.141l-.074.009v-1.289a3.06,3.06,0,0,1,3.06-3.06h.705a3.06,3.06,0,0,1,3.06,3.06v.242l-.041.01c-.187.042-.384.084-.592.125l-.017,0c-.219.043-.45.087-.69.129h0l-.012,0-.02,0c-1.192.211-2.615.412-4.08.6" transform="translate(-424.888 -136.031)" fill="none" stroke="#000" stroke-linecap="round" stroke-linejoin="round" stroke-width="1"/>
          <path id="パス_1023" data-name="パス 1023" d="M429.171,138.232a2.04,2.04,0,0,1,2.04,2.04v.189c-1.192.211-2.615.412-4.08.6v-.789A2.04,2.04,0,0,1,429.171,138.232Z" transform="translate(-425.758 -136.885)" fill="none" stroke="#000" stroke-linecap="round" stroke-linejoin="round" stroke-width="0.5"/>
        </g>
      </g>
      <ellipse id="楕円形_90" data-name="楕円形 90" cx="7.308" cy="4.457" rx="7.308" ry="4.457" transform="translate(410.476 75.486)" fill="none" stroke="#000" stroke-linecap="round" stroke-linejoin="round" stroke-width="1"/>
      <path id="パス_1024" data-name="パス 1024" d="M442.6,129.037c-3.586,0-6.084-1.7-6.084-3.233s2.5-3.233,6.084-3.233,6.084,1.7,6.084,3.233S446.19,129.037,442.6,129.037Z" transform="translate(-24.82 -45.861)" fill="none" stroke="#000" stroke-linecap="round" stroke-linejoin="round" stroke-width="0.5"/>
      <g id="グループ_709" data-name="グループ 709" transform="translate(410.476 72.159)">
        <path id="パス_1025" data-name="パス 1025" d="M441.828,118.461c4.036,0,7.308,2,7.308,4.457,0-3.38-.889-7.784-7.308-7.784s-7.308,4.4-7.308,7.784C434.52,120.457,437.792,118.461,441.828,118.461Z" transform="translate(-434.52 -115.134)" fill="none" stroke="#000" stroke-linecap="round" stroke-linejoin="round" stroke-width="1"/>
      </g>
      <g id="グループ_710" data-name="グループ 710" transform="translate(408.145 68.076)">
        <path id="パス_1026" data-name="パス 1026" d="M440.35,108.462h-9.639v6.753a4.657,4.657,0,0,0,2.367,4.055c.206-3.173,1.507-6.725,7.272-6.725s7.066,3.552,7.272,6.725a4.657,4.657,0,0,0,2.367-4.055v-6.753Z" transform="translate(-430.711 -108.462)" fill="none" stroke="#000" stroke-linecap="round" stroke-linejoin="round" stroke-width="0.5"/>
      </g>
      <path id="パス_1027" data-name="パス 1027" d="M447.15,101.548h-13.6a2.839,2.839,0,0,0-2.839,2.838v1.393h19.278v-1.393A2.839,2.839,0,0,0,447.15,101.548Z" transform="translate(-22.566 -37.704)" fill="none" stroke="#000" stroke-linecap="round" stroke-linejoin="round" stroke-width="0.5"/>
      <g id="グループ_711" data-name="グループ 711" transform="translate(413.678 93.719)">
        <path id="パス_1028" data-name="パス 1028" d="M447.634,151.358a.611.611,0,0,1-.612-.612V150.5c-1.827-.111-3.164-.138-3.164-.138s-1.337.027-3.165.138v.244a.611.611,0,0,1-.612.612h-.135a1.7,1.7,0,0,1-.195-.02c.011.067.022.132.035.2.16.878,1.916,1.787,4.072,1.787s3.911-.909,4.071-1.787c.013-.071.024-.136.035-.2a1.7,1.7,0,0,1-.195.02Z" transform="translate(-439.752 -150.364)" fill="none" stroke="#000" stroke-linecap="round" stroke-linejoin="round" stroke-width="1"/>
      </g>
      <g id="グループ_712" data-name="グループ 712" transform="translate(415.799 96.463)">
        <path id="パス_1029" data-name="パス 1029" d="M447.188,157.44v-2.592H447a7.419,7.419,0,0,1-3.589,0h-.191v2.592a15.477,15.477,0,0,1,3.971,0Z" transform="translate(-443.217 -154.848)" fill="none" stroke="#000" stroke-linecap="round" stroke-linejoin="round" stroke-width="0.5"/>
      </g>
      <line id="線_87" data-name="線 87" y2="12.074" transform="translate(415.612 4.714)" fill="none" stroke="#000" stroke-linecap="round" stroke-linejoin="round" stroke-width="0.5"/>
      <line id="線_88" data-name="線 88" y2="12.074" transform="translate(417.784 4.375)" fill="none" stroke="#000" stroke-linecap="round" stroke-linejoin="round" stroke-width="0.5"/>
      <line id="線_89" data-name="線 89" y2="12.074" transform="translate(419.957 4.714)" fill="none" stroke="#000" stroke-linecap="round" stroke-linejoin="round" stroke-width="0.5"/>
    </g>
    <g id="_05" data-name="05" transform="translate(401 23)">
      <g id="パス_539" data-name="パス 539" transform="translate(16 2877)" fill="rgba(255,255,255,0)">
        <path d="M0,0H110V219H0Z" stroke="none"/>
        <path d="M 1 1 L 1 218 L 109 218 L 109 1 L 1 1 M 0 0 L 110 0 L 110 219 L 0 219 L 0 0 Z" stroke="none" fill="rgba(222,210,188,0)"/>
      </g>
    </g>
  </g>
</svg>
